<svg xmlns="http://www.w3.org/2000/svg" width="144" height="50" viewBox="0 0 144 50">
    <path fill="#EE6C4D" fill-rule="evenodd" d="M12.01 11.476a.31.31 0 0 1 0-.004v.004zm0-.004c-.095.096-.24.096-.24.192-.527 1.728-2.495 1.488-4.175 2.016v.336c-.48.528-.624 1.008-.624 1.44 0 1.2.96 3.072 1.872 3.072.144 0 .432-.144.624-.144.24 0 .384.192.432.48.192 1.392 1.536 1.536 2.496 2.064.048.048.096.048.144.048.144 0 .72-.72.912-1.008.192.432.288.816.576.816.48 0 .528-1.248 1.344-1.44-.144-.576-.624-.96-.624-1.392 0-.672.816-1.2 1.344-1.296.192.288.384.816.624.816.144 0 .384-.144.48-.24-1.104-.528-1.2-.624-1.2-1.968 0-.384.24-.576.72-.576.624 0 .192.576.72.576v-.096c0-.336-.432-.336-.432-1.056 0-1.344.912-2.736.912-3.84 0-2.016-2.688-1.248-2.688-2.688 0-.432 1.2-.624 1.2-1.056 0-.144-.144-.528-.144-.816 0-.576.672-1.2 1.2-1.2.288 0 1.152.528 1.92.816 1.008.144 1.392.624 1.392 1.488 0 .144 0 .336-.048.528h.048c-.192.144-.288.288-.288.384 0 .048.24.192.432.336a2.667 2.667 0 0 1-.144-.72c.576.048.912.144.912.432 0 .192-.144.48-.432.96h-.048c.192.768.384 1.488.768 1.536.144 0 .336.096.48.192-.576.288-1.104.624-1.104 1.296 0 .864-.48 1.728-.624 2.592.144 0 .48.048.48.24 0 0-.096.096-.192.096s-.192-.24-.288-.336c-.24 0-.432.048-.672.048.192.48.384.912.384 1.392 0 .576-.384.816-.384 1.248 0 .144 0 .288.048.48 0 .192-.96.672-1.056 1.2-.192 1.152-1.056 1.92-1.776 2.736-.432.528-1.536 2.112-1.536 2.688 0 .48.192.72.48.96 1.344 1.152 2.4 4.08 2.4 5.088 0 1.392-1.152 2.784-1.152 3.504 0 .144.048.288.192.432-.48 1.152-.72 2.448-1.728 3.36-2.448 2.256-4.176 3.984-6.96 4.176-.816 0-1.152.768-1.344.768-.576-.48-1.536 0-1.968-.72-.24-.288-.432-.432-.768-.432s-.864.288-1.344.288c-.576 0-1.584-.48-1.584-1.2 0-.528.624-.816.624-1.152 0-.096-1.056-1.344-1.44-2.112l-.288-.48.096-.096c.144.144.288.24.384.384 1.152-1.44.48-3.36 2.208-4.848.528-.432 1.2-.912 1.2-1.68 0-.096-.048-.192-.048-.336 0-.096.192-.24.336-.24.192 0 .288.48.48.48.288 0 .624-.336.912-.336h.096v-.528c0-.384.288-.768.288-.864 0-.144-.192-.144-.624-.144-.096.288-.24.816-.624.816-.144 0-.192-.048-.192-.288s.48-.48.72-.624c.192-.72 3.36-2.208 3.36-3.312 0-.576-.768-1.296-.768-1.92 0-.336.144-.72.336-1.104-.288.288-.768.768-1.056.768-1.632 0-3.552-3.312-3.6-3.552l-.144-.576c-.192.24-.432.768-.624.768s-1.152-2.352-1.152-3.408c0-.192 0-.336.048-.528-.192-.192-.24-.336-.24-.528 0-.24 1.344-3.648 1.824-3.648.336 0 .672.528 1.056.528.624 0 1.056-1.2 2.112-1.2 1.008 0 1.104-1.344 1.728-1.344.624 0-.048 1.104.768 1.104.48 0 1.056-1.344 1.584-1.344.24 0 .864.624 1.152.624.336 0 .624-.72 1.296-.72.72.144 1.104.768 1.104 1.488 0 1.488-1.296 2.4-2.544 2.4-.24 0-.336-.096-.336-.432 0-.144 0-.336.048-.576 0-.095-.047-.236-.048-.332v-.004zM6.97 33.984h-.095c.048 0 .096.048.096.144 0 .912-1.296 2.352-1.728 3.552v.096c0 .72 1.68 1.248 2.592 1.248.336 0 .72-.24 1.056-.24.288 0 .432.288.624.528.528-1.776 3.6-1.392 4.08-2.688.336-1.248 2.304-2.496 2.304-2.64a.364.364 0 0 0-.096-.192c-.816-.96-.288-2.448-.96-3.264-.288-.288-.432-.576-.432-.912 0-.288.288-.816.288-1.056 0-.048-.048-.096-.192-.096-.096 0-.24 0-.48.048-1.008 0-.864-.96-1.728-1.248-.096.144-.192.24-.192.384 0 .144.048.288.048.384 0 .528-.768 1.536-1.344 1.536-.384 0-.336-.768-.336-1.2v-.048c-.192.192-.48.384-.48.48v.24c0 1.104-.72 3.024-1.584 3.216-.864.24-.384 1.824-1.104 1.824a.89.89 0 0 1-.336-.096zM7.02 13.2c-.24 0-.432.096-.72.528.144.048.24.192.336.192.336-.048.624-.144.96-.24-.192-.24-.336-.48-.576-.48zM5.627 18l.864-1.008c-.144-.048-.192-.096-.24-.096-.192 0-.912.624-.912.72 0 .24.096.288.288.384zm4.608 21.6c.144 0 .624-.048.624-.288 0-.144-.24-.192-.336-.192-.288 0-.624.192-.912.24.144.144.336.24.624.24zM3.61 15.024l-.288.96c.048.048.48.192.72.24l-.432-1.2zm1.104-1.728l.336-.288-.432-.672c-.144.096-.336.24-.336.24l.432.72zm14.4.768c-.048.144-.048.288-.048.384.048.144.096.288.096.432.336-.24.432-.48.816-.528-.24 0-.48-.096-.864-.288zm-2.592 5.952c-.048.144-.144.336-.144.432 0 .144.144.288.288.624.048-.288.096-.48.096-.672 0-.239-.095-.192-.238-.381l-.002-.003zm3.456-7.248l-.384.336c.048.048.096.192.144.192a.904.904 0 0 0 .384-.096c-.048-.144-.048-.24-.144-.432zm2.064.384l.144.288-.192.24a1.273 1.273 0 0 1-.288-.24l.336-.288zM7.019 20.4c-.096 0-.24.048-.24.096 0 .096.048.192.048.24.096 0 .24-.048.24-.096 0-.096-.048-.192-.048-.24zm7.628 3.16a.808.808 0 0 1 .004.008l-.004-.007zm.052-.408v-.016.016zm-8.496-8.08v-.144c-.048.048-.144.048-.24.096.048 0 .048.096.096.096s.096-.048.144-.048zm11.568 1.44c0-.048.048-.096.048-.144l-.096-.048c-.048.048-.048.096-.048.096 0 .048.048.048.096.096zm-7.532 9.717a.093.093 0 0 0 0-.001zM7.547 41.04l.096-.048.048-.048-.144.096zm18.466-30.096l.192.192c.144.336.432.768.816.768.576 0 .864-1.104 1.584-1.104.144 0 .384.048.576.048.864 0 .96-1.296 2.064-1.632.624-.096 1.344-.576 1.92-.576h.288l-.336.864h.24c.528 0 1.536-.96 1.536-.96 0-.192-.288-.24-.288-.48s0-.528.432-.528c1.296 0 1.728 1.296 2.064 1.296.96 0 1.104-3.504 2.784-3.504.96 0 1.344 1.248 1.344 1.728 0 .768-.528.72-1.488 1.344.144.048.384.096.384.288 0 .144-.096.384-.096.48 0 .096.048.096.096.096s.528-.336.816-.336c.144 0 .24.096.24.336 0 .048-.048.144-.048.192 0 .576.672.96.672 1.536 0 1.104-1.44 2.88-1.44 3.792 0 .24.192.528.192.768 0 .096-.048.144-.048.144-1.296 1.008-.432 3.504-1.392 3.84-.336.144-.912.24-.912.768s.24 1.056.24 1.632c-.096.528-.192.768-.48.768-.192 0-.384-.144-.672-.144-.24 0-.24.192-.24.336 0 .384.864.384.864.96 0 1.68-1.584 2.208-1.584 2.4 0 .144.048.192.336.192 1.2 0 2.64-.528 3.696-.528.864 0 1.968 1.056 1.968 1.488-.192.528-.72.48-1.152.48-.336 0-.624-.048-.912-.144-.24 1.152-4.56.384-4.704 2.544-.048.912-.48 1.92-.48 2.784v.336c0 2.544-1.2 5.04-1.488 7.344-.096.672-1.872 1.104-2.208 1.104-.144 0-.288-.384-.288-.768s.24-.48.912-.912c-.144-.048-.24-.144-.336-.144-.672 0-1.392.288-1.968.288-.336 0-.528-.144-.528-.336 0-.24.432-.768.432-1.152 0-.432-.192-.96-.192-1.392 0-.672 1.008-.816 1.008-1.296 0-.864-.528-2.16-.528-2.928 0-.816.96-1.488.96-2.4 0-.48-.336-.816-.72-.816-.528 0-1.008.336-1.44.336-.816 0-1.344-.336-1.968-.96 1.584-1.248 4.416-1.008 4.512-2.448 0-.432.72-.864.72-1.392 0-.192-.048-.336-.048-.528 0-.816.576-2.016.864-2.88.288-.96.912-3.168 1.008-3.264.624-.624.864-1.296.864-2.016v-.432c0-.096.24-.24.336-.384 0-.528.336-.816.816-1.008-.048-.864-.048-1.776-.048-2.736 0-.24.288-.432.288-.672 0-.096 0-.192-.144-.24-.192 0-.912 1.008-1.2 1.152-.864.336-2.352 1.008-3.168 1.008-.384 0-.48-.336-.672-.768-.048.048-.144.144-.144.24 0 .576-.336.912-.816.96-1.248 0-3.408.912-3.408 1.344 0 1.2 1.296 1.584 1.296 2.448 0 .384-.144.864-.144 1.248 0 .192.048.336.048.528 0 .672-1.008.576-1.008.912 0 .192.576.48.576.864 0 .144 0 .24-.048.384.288-.192.816-.672 1.056-.672.048 0 .24.096.24.24 0 1.488-2.16 2.16-3.12 2.16-.336 0-.528-.144-.528-.48 0-.192.048-.384.048-.48 0-.096 0-.096-.048-.096-.096 0-.816.576-1.104.576-1.008 0-.24-2.688-1.056-3.168-.096-.048-.144-.144-.144-.288 0-.24.096-.528.096-.768 0-1.632-.816-3.072-.816-4.656 0-1.008 1.44-3.552 1.728-3.552.192 0 .672.624 1.152.624.288 0 1.056-.144 1.296-.192zm.192.192l-.192-.192c0-.096.096-.24.096-.336 0-.288-.432 0-.432-.672 0-.336.432-.528.72-.528.24.048.432.336.432.528-.048.432.048 1.008-.624 1.2zm3.36 30.528c-.144-.24-.288-.384-.288-.528 0-.144.288-.24.432-.384.096.192.192.336.24.528 0 .048-.192.192-.384.384zm1.776-5.76l.192.24.576-.288-.096-.24c-.24 0-.624.144-.672.288zm-.048-24.912c-.144-.144-.24-.288-.336-.288-.096 0-.24.144-.336.288.096.144.144.24.288.24.096 0 .192-.096.384-.24zm-6.672 1.488a1.705 1.705 0 0 0-.48-.096c-.048 0-.096.144-.144.24l.48.24c0-.096.048-.144.144-.384zM40.27 26.928c-.048.048-.144.144-.144.192 0 .192.048.336.096.48.048-.192.048-.432.048-.672zm-7.584 9.84l-.48.096v.144c.192-.048.48-.096.48-.24zm-1.872 1.296l-.144-.192-.192.24c.096 0 .144.048.24.048.048 0 .096-.096.096-.096zM23.23 15.408l-.096-.288c-.192 0-.144.192-.144.288h.24zm9.456 27.072l.24-.144c0 .048.048.096.048.096l-.24.144s-.048-.048-.048-.096zm-9.648-28.416l.096-.096c-.048-.048-.048-.096-.096-.096s-.096.048-.144.048l.144.144zm2.64-.48v-.144c-.096 0-.192-.048-.144.096.048.048.096.048.144.048zm-1.872-4.416c-.048 0-.096-.048-.144-.048 0 .048-.048.096-.048.096a.149.149 0 0 0 .096.048c.048 0 .048-.047.094-.094l.002-.002zm0 0l-.002.002.002-.002zm14.4.72c-.048 0-.096.048-.144.048l.192.096c-.048-.048-.048-.096-.048-.144zm1.824-2.544l.096-.096v-.144l-.096.24zm23.842 9.752a.712.712 0 0 1 0-.008v.008zm0-.008c-.048.144-.144.288-.144.432 0 .096.096.192.144.288-.192 1.152-.048 1.632-.816 1.632h-.288c-.192 0-.432.048-.624.048-.096 0-.192-.048-.288-.048-.576 0-.528.528-.72 1.344l.672-.336v.048c.288.048.48.192.48.384 0 .624-1.056.72-1.248 1.536-.144.672-.24.864-.624.864-.24 0-.624-.144-.96-.144 0-.24.048-.432.096-.672-.144.144-.24.24-.24.384 0 .096.048.192.144.288-.144.672-.384 1.68-.864 1.68-.24 0-.72-.192-.72-.816a.103.103 0 0 0-.096.096l.192.384c-1.68.336-1.872 1.392-1.872 2.352 0 .144.096.192.192.192.576 0 .144-1.392.864-1.392.24 0 .624.912.624 1.152 0 .816-.384 1.584-1.248 1.824-.816.192-2.448 2.208-2.448 2.352 0 .768 1.008.72 1.008 1.296 0 .24-.048.576-.384.576-.432 0-.336-.24-.672-.24-.192 0-.384-.048-.384.288.24.336.336.672.336 1.008 0 .864-.768 2.688-1.392 2.688-.432 0-.912-.192-1.344-.24-.096 0-.288.144-.288.24 0 .048.048.144.096.144.624.384.816 1.056.864 1.728-.816.096-1.584.288-2.352.288-.528 0-1.152.096-1.152 1.392.288-.288.48-.624 1.152-.624.288 0 1.056 1.248 1.056 1.824 0 .336-.144.96-.528.96-.144 0-.288-.096-.432-.096-.288 0-.576.096-.816.096-.192 0-.384-.192-.528-.192-.192 0-.24.144-.24.288 0 .384 1.152.288 1.152.96 0 .72-.768.72-1.392.816.48.384 2.064.432 2.064.816 0 .912-1.344 2.976-1.584 2.976-.192 0-.672-.432-.96-.432.096 0-.96.768-.96 1.2 0 .096.048.192.144.336-.048.048-.144.288-.336.288-.48 0-.48-1.584-1.344-2.112-.48-.288-.72-.864-.72-1.488 0-.768.144-.912 1.008-1.632-.48-.528-.96-1.152-.96-1.68 0-1.44.96-3.072 1.968-4.032.192-.192.288-.336.288-.528 0-.288-.624-.576-.624-1.008 0-.72 3.312-5.472 3.504-5.712.096-.144.24-.24.336-.24.192 0 .528.336.672.576.288-.864-.192-3.024 1.2-3.024h.192c-.096.336-.336.864-.336 1.2 0 .048.048.096.048.096.336 0 1.344-1.2 1.968-1.728-.096-.048-.192-.096-.288-.096-.432 0-.768.576-1.2.576-.096 0-.144 0-.192-.048 0-.912.096-1.776 1.104-2.304.192-.096.432-.384.432-.528v-.144c0-1.2 1.584-1.296 1.824-2.64.144-.768.72-1.056 1.392-1.392 0 0 .144.24.192.336.576-.192.768-.528.768-.96 0-.192-.096-.432-.096-.672 0-.96 2.448-1.056 2.448-2.16 0-.24-.192-.72-.192-1.008 0-.432 1.2-1.632 1.488-1.632.24 0 .432.336.528.336.288 0 .096-2.544 1.728-3.216.048 0 .192-.144.192-.24.144-2.304 3.312-3.792 4.128-6.672.528-1.968 4.08-4.992 5.28-4.992.336 0 .816.144.816.48 0 1.392-2.064 4.656-2.304 5.04-.096.192-.288.384-.288.528v.24c0 .672-1.392 1.008-1.824 1.44.288.192.864.24.864.528 0 .192-.288 1.008-.624 1.296-1.824 1.392-1.728 4.512-3.552 4.608-.432 0-1.008.48-1.008.72 0 .288.672.576.672.912 0 .432-1.248 1.056-1.824 1.44 0-.096.048-.24.048-.336 0-.141-.046-.236-.048-.376v-.008zm3.024 14.016c0-.144-.048-.288-.048-.48 0-.24.144-.48.336-.48.336 0 .96.432 1.392.672 0-.24.336-1.44.576-1.44.24 0 .768.72.768 1.488 0 .144-.048.288-.048.432 0 .816 1.296 1.392 1.296 2.592 0 1.296-1.824 3.168-1.824 3.6 0 .336.432.912.432 1.104 0 .48-1.008.24-1.392.72-.768.96-2.016 1.392-2.592 2.592-.384.816-1.2.336-1.824 1.008-.288.24-.576.432-.816.432-.144 0-1.68-1.008-2.592-1.344-.96-.336-1.392-.96-1.584-1.872-.192-.336-1.824-3.024-1.824-3.024 0-.528 1.008-1.152 1.008-1.392s-.528-1.104-.528-1.296c0-.432 1.776-2.208 2.4-2.208.672 0 1.488 1.056 2.352 1.056.384 0 .864.048 1.056-.48 0-.048-.096-.144-.192-.144-.192 0-.336.096-.528.096-.768 0-2.016-1.056-2.016-1.392 0-.24.336-.48.576-.48.768 0 1.2.528 1.824.528.672 0 1.776-.864 2.112-.864.192 0 .336.192.672.624-.576.432-1.056.912-1.056 1.488 0 .192.144.432.144.624 0 .288-.24.72-.48.72-.192 0-.384-.288-.528-.288-.528 0-.528 1.824-1.104 2.016-.576 0-.432-1.2-1.248-1.2-.288 0-.576.144-.768.288.48.48.768.48.768.864 0 .72-.528 1.152-1.056 1.152h-.24c-.384 0-.864.096-1.008.432 0 .048.144.192.192.192h.24c.864 0 .816.816 1.872 1.248.576.24 1.584.096 1.584.72 0 .144-.096.288-.096.432 0 .096.096.144.336.144.816-.048 1.392-.672 2.112-.96 1.296-.528 1.968-1.44 1.968-2.64 0-.576-.144-1.152-.144-1.68 0-.816.48-1.68.48-2.256 0-.576-.336-1.008-.96-1.296 0 .336.048.672.048 1.008 0 .48-.336 1.392-.96 1.392-.336 0-.624-.576-.624-.96s.288-.912.528-1.44c.336 0 .672-.048 1.008-.048zM48.991 15.456v.384c0 .624-.48 1.056-1.248 1.056-1.104 0-2.112-1.728-2.112-2.352 0-.672.384-1.92.816-1.92.144 0 .384.144.576.144.576 0 1.152-1.104 1.152-1.536 0-1.344 1.728-2.304 2.304-2.304.144.048.288.048.384.048.24 0 .384-.048.384-.192 0-.144-.24-.288-.24-.528 0-.336.48-.72.816-.72.336 0 .528.192.768.192.336 0 .96-.624 1.536-.624.816 0 1.632.672 2.64.672.48 0 .672.096.672.384 0 .336-.144.864-.144 1.2 0 .72.864 1.104.864 1.536 0 .336-.384.816-.72.912-2.112 1.2-1.104 4.704-3.312 4.704-.624 0-.192-.864-.816-1.056h-.048c.192.336.384.672.528 1.008-.144.528-.336 1.248-.72 1.248-.432 0-.624-.768-1.104-.768-.384 0-1.104.576-1.44.576-.72 0-1.152-1.248-1.536-2.064zm4.416-2.976h.96a4.925 4.925 0 0 1-.192-1.296c0-.672.24-1.248 1.2-1.632.192-.048.24-.192.24-.384 0-.288-.288-.432-.72-.432-1.296 0-1.68 1.824-1.68 2.784 0 .336.048.672.192.96-.336.192-.432.816-.864.816-.48 0-.624-.432-.624-.72 0-.24.048-.48.048-.624 0-.144-.24-.24-.384-.288-1.056 0-1.344 1.44-2.4 1.536 0 0-.048.336-.048.432.384.768.624 1.344 1.152 1.344.576 0 1.392-.624 2.208-1.056.864-.432.864-.432.912-1.44zM44 43.344c.096.144.192.24.192.384 0 .96-.72 2.448-1.056 2.448-.192 0-.24-.096-.24-.24 0-.816.528-2.16 1.104-2.592zm13.008-29.328l.432.768c-.24.096-.432.24-.528.24-.288-.048-.432-.24-.432-.48 0-.288.336-.48.528-.528zm-6.576 18.768c-.432.144-.912.432-.816.672.24.096.432.192.672.24.144 0 .192-.384.192-.432 0-.144 0-.288-.048-.48zm5.712-1.92c-.288.24-.48.48-.624.48-.144-.048-.24-.288-.288-.48 0-.048.24-.288.336-.288.144 0 .288.144.576.288zm-5.04 4.416c-.24-.048-.432-.048-.576-.048-.192 0-.288.096-.384.288.096.048.192.096.288.096.192 0 .336-.096.672-.336zm-3.6 5.232l.912-.384c-.384.048-.864.048-1.056.24.048.048.096.144.144.144zm11.136-19.2c0-.144-.048-.288-.288-.384l.192.912c0-.192.096-.384.096-.528zm-13.056 23.52c.048 0 .096-.048.192-.096a3.824 3.824 0 0 1-.624-.624c.096.192.432.72.432.72zM52.64 31.44l-.288-.288s-.096.144-.144.192c.096.096.192.192.288.24.048 0 .096-.048.144-.144zm6.96 4.368c0-.192 0-.624-.192-.624 0 .096-.048.192-.048.288 0 .144.192.24.24.336zm-11.088 1.104h.432c-.048-.144-.048-.24-.096-.288-.24 0-.192 0-.336.288zm10.704 3.264c.096 0 .24-.192.288-.336-.192.096-.192-.048-.528.288.048 0 .192.048.24.048zm7.008-26.784c-.048-.048-.096-.144-.192-.192 0 0-.096.048-.096.096 0 .096.048.192.096.288.048-.048.144-.096.192-.192zM51.44 10.128c-.096.048-.24.144-.24.24s.144.048.336.048c-.048-.096-.096-.192-.096-.288zm4.752 19.392v.384c-.048 0-.144-.048-.192-.048.048-.096.144-.192.192-.336zm.816-16.176l-.144-.144c0-.048.048-.096.096-.096l.144.144-.096.096zM45.63 42.145l.001-.001v.001zm.865 1.247v.144l.192-.096-.048-.096c-.048 0-.096.048-.144.048zM68.671 5.376c-.048-.048-.096-.048-.096-.048s-.096.048-.096.096c.048.048.048.096.096.096 0 0 .048-.096.096-.144zM53.84 10.848c-.048 0-.096-.048-.096-.048 0-.096 0-.096.144-.096 0 .048-.048.096-.048.144zM50 37.68v-.144h-.144l.144.144zm1.92.816l.048-.048c.048.048.144.048.24.096-.096 0-.192-.048-.288-.048zm9.876-18.24c.012.048.012.096.012.144-.024-.048-.048-.096-.066-.144h.054zm0 0a.302.302 0 0 0-.084-.144c0 .048.012.096.03.144h.054zm-5.556 9.216c0-.048 0-.096.048-.144-.048.048-.048.096-.048.144zm-4.272 8.976l-.048.048v-.048h.048zm13.944-7.302c.012-.006.024-.018.024-.042-.024 0-.036.012-.042.024l.018.018zm0 0c-.012.006-.024.006-.024.006s0-.012.006-.024l.018.018zm25.972 10.37c.025.065.067.13.089.196.024-.024.072-.048.096-.096-.062-.041-.123-.065-.185-.1zm-.02-.013a.545.545 0 0 1-.011-.007c.12-.096.24-.216.336-.336.024-.048.024-.192.024-.192-.168-.024-.36 0-.528-.024-.312-.048-.384-.336-.168-.624.072-.096.192-.168.264-.264.048-.048.072-.096.12-.144-.072-.024-.168-.072-.24-.048-.432.144-.672.6-.552 1.08.048.12.168.24.216.36.072.264-.048.408-.36.456-.048 0-.12 0-.168.024-.552.12-.768-.024-.672-.6.048-.264.192-.528.312-.792.096-.216.144-.432 0-.624-.024-.048-.072-.096-.12-.096s-.12.072-.144.096c-.096.264-.192.504-.264.744-.072.288-.24.432-.504.504-.288.096-.312-.168-.384-.336-.024-.096-.072-.168-.12-.24-.024-.048-.096-.048-.144-.024a.274.274 0 0 0-.072.168c.024.192.048.408.072.624.024.336-.024.384-.384.48-.432.096-.432.096-.624-.312-.048-.096-.072-.216-.144-.312s-.072-.36-.264-.168c-.072.072-.096.288-.096.432.024.096.12.216.096.312a.466.466 0 0 1-.216.264c-.072.024-.168-.048-.24-.072-.408-.144-.816-.408-1.296 0-.384-.216-1.032.216-1.224-.432-.504-.168-.48-.6-.456-1.104.048-.408.048-.792-.096-1.176-.096-.24-.12-.624.264-.816.216-.12.192-.36.12-.504-.264-.552-.36-1.128-.072-1.8.048-.096-.024-.24 0-.36.024-.456.072-.936.096-1.416.048-.504.072-.984.12-1.488.024-.144.024-.264.072-.384.24-.648.192-1.296.192-1.944 0-.672.072-1.392.144-2.064.048-.384.144-.744.216-1.128.168-.12.336-.24.504-.384.336-.36.456-.432.648-.048.24.552.648 0 .96.072.216.072.312-.288.36-.576.048-.24.144-.48.192-.72l.048-.072c.552.624.552.816.144 1.704-.048.072-.12.144-.168.24-.216.336-.216.336.192.504l.024.048c0 .144-.024.312 0 .456.096.792.096.792-.624 1.272a.741.741 0 0 0-.059-.105.187.187 0 0 1 .035.105c0 .216 0 .456.024.648.072.6.048 1.152-.456 1.68-.192.192-.24.576-.336.888-.072.216-.12.432-.192.624-.192.552-.168.576.312.84.264.168.288.168.048.576-.168.24-.096.432-.072.624 0 .192.096.168.216.12.288-.072.408.12.36.36-.024.264-.144.528-.264.792-.072.144-.24.216-.336.336-.264.288-.24.36 0 .624.072.096.192.216.24.336.144.6.72.696.984 1.152.072.144.216-.024.24-.144.048-.288.192-.336.432-.36.504-.048.96-.096 1.368.216.168.144.264.048.384-.168.168-.264.336-.288.456-.024.072.12.096.336.288.096.144-.216.36-.312.552-.24.6.24 1.296.024 1.944.12.096.024.264.048.264.096-.024.768.24.336.456.072.144-.168.312-.264.432-.096.192.192.672-.096.648.408 0 0 .168.024.168-.024.216-.36.36-.192.552-.048.216.144.288.528.648.408.216.456.36.912.216 1.512-.168.552-.432.912-.984 1.008a.507.507 0 0 0-.24.096c-.6.384-.816.384-1.32-.048-.144-.144-.288-.168-.456-.072-.432.192-.84.312-1.224.048-.168-.12-.36-.096-.552.072-.12.096-.264.192-.384.072-.168-.144-.168-.432 0-.672.046-.069.135-.094.226-.137zm4.014-.678c-.017-.064-.02-.124-.041-.145-.072 0-.144 0-.216.024l-.024.072a.341.341 0 0 0 .144.048c.04.02.082.006.137.001zm.006.309a4.336 4.336 0 0 1-.023.266.509.509 0 0 0 .11-.274l-.087.008zm-9.855-.2a5.298 5.298 0 0 0 .024-.021l-.024.02zm-.584-1.454c.216-.144.408-.288.576-.456.072-.048.096-.192.12-.288-.096 0-.216-.048-.288 0-.288.12-.408.384-.456.672 0 .048.048.072.048.072zm-.648 1.608c.072-.12.144-.216.192-.312 0-.024-.096-.096-.144-.12-.072.096-.12.192-.168.312-.024.024.048.048.12.12zm1.175-4.993l.001.001v-.001zm-.791.769c-.048-.096-.096-.168-.12-.24-.048.072-.12.144-.12.216-.024.072.048.144.096.216a.787.787 0 0 1 .144-.192zm-.336 1.416l.192-.192c-.024-.048-.072-.096-.096-.096-.048.024-.12.072-.144.12-.024.024.024.096.048.168zm-.384.624c-.048-.024-.12-.072-.192-.096-.024 0-.096.12-.096.12.048.072.096.12.144.168a.896.896 0 0 0 .144-.192zm.888-5.304c.024-.024.024-.048.048-.072-.024 0-.048-.024-.096-.024v.072a.074.074 0 0 0 .048.024zm.72-8.688c.36 0 .48.216.312.48a1.464 1.464 0 0 1-.288.384c-.048.048-.168.072-.216.024-.192-.144-.192-.408-.072-.648.048-.12.192-.192.264-.24zm1.56.648c-.096.024-.216.048-.312.12-.216.12-.336.096-.408-.12l-.072-.36c0-.048.024-.144.072-.168.072-.048.192-.072.24-.048.192.144.36.336.528.504l-.048.072zm-2.448-.072c.144.192.24.336.36.456-.12.072-.24.192-.36.192-.192.024-.312-.096-.264-.312.024-.096.12-.168.264-.336zm4.104 16.152c.072.192.144.312.12.408 0 .072-.12.168-.192.24-.048-.096-.144-.192-.168-.288 0-.072.12-.168.24-.36zm-2.472-7.968c-.048-.144-.096-.216-.096-.312.024-.048.096-.168.168-.168.048-.024.144.072.144.12s-.072.144-.216.36zm1.032-5.736v-.168c.048-.144.096-.264.24-.168.024.024.048.168 0 .216-.024.072-.144.12-.216.168l-.024-.048zm-2.88-.72l-.216-.072c.024-.048.048-.072.072-.096.048.048.096.12.144.168zm2.904 2.424l-.024.048-.024-.048h.048zm-1.392-3.696l.072-.024-.048.096-.024-.072zm18.766-1.62l-.012.012.012-.012zm0 0l.012-.012c.456-.408.864-.96 1.344-.96.096 0 .192.024.288.024.336 0 .744-.36.936-.36.168 0 .264.264.48.264.288 0 .864-.48 1.104-.48.144 0 .288.192.432.192.216 0 .504-.24.72-.24.192 0 .408.552.696.552.096 0 .144-.024.24-.216 0-.144-.072-.36-.072-.504 0-.144.408-.36.576-.36.12 0 .24.048.36.048.384 0 .816-.432 1.224-.432.096 0 .12.048.12.216v.12c0 .168 0 .24.048.24.072 0 .216-.192.408-.312.048-.024.096-.024.144-.024a.19.19 0 0 1 .192.192c0 .432 0 .888-.144 1.296-.216.624-.744 1.728-1.176 1.728-.168 0-.36-.072-.36-.192 0-.312.36-.384.36-.624 0-.12-.072-.216-.12-.336-.264.384-.84.552-.84.84 0 .072.024.144.072.24 0 .024-.144.144-.192.144a32.82 32.82 0 0 1-1.536-.048v-.029c-.028.373-.844.605-1.08.605-.12 0-.264-.024-.408-.024-.168 0-.36.048-.552.048-.096 0-.192-.072-.288-.072-.168 0-.384.504-.768.504-.912 0-1.824.456-2.688.456h-.216c-1.152 0-.096 1.416-1.2 1.416-.168 0-.216-.048-.216-.144 0-.096.072-.24.072-.336 0-.096-.048-.144-.12-.216-.168.168-.24.48-.24.696 0 .24.24.432.24.672 0 .12-.048.24-.216.312-.528.264-.576.672-.576 1.128 0 .096.024.168.024.264 0 .24-.168.456-.384.456-.288 0-.384-.384-.6-.384-.048 0-.12.096-.12.12 0 .336.216.456.216.648 0 .168-.384.336-.384.552 0 .192.12.384.12.576 0 .216-.408.168-.408.408 0 .168.12.48.144.72.528-.096.36-.912 1.008-.912.144 0 .456.168.552.168.12 0 .36-.72.648-.72.144 0 .432.264.648.264h.144c.096 0 .168.072.216.072.096 0 .24-.552.384-.552.12 0 .408.192.576.192.216 0 .432-.288.672-.288.096 0 .216.12.336.12.144 0 .312-.288.432-.288.216 0 .336.336.48.336.192 0 .552-.576.744-.576.168 0 .384.456.456.456.12 0 .264-.6.504-.6.072.024.12.096.168.144.024.072-.096.432-.096.504 0 .024.096.024.12.024.312 0 .408-.624.816-.624.432 0 .552.192.552.48 0 .096-.024.192-.024.288 0 .048.024.072.024.12 0 .24-.12.384-.336.48-.72.336-1.56 1.344-1.992 1.344-.12 0-.264-.072-.384-.072-.072 0-.144 0-.216.024-1.056.408-2.352.456-3.312.528-.288.048-.672.192-.84.192-.12 0-.264-.072-.384-.072-.576 0-1.104.456-1.68.456-.168 0-.192.432-.384.432-.12 0-.288-.072-.456-.072-.12 0-.216.12-.216.216 0 .24.36.384.36.624 0 .168-.192.384-.24.6 0 .24.024.48.048.744.12-.216.288-.432.384-.648.12-.36.144-.96.6-.96.072 0 .24.024.24.168 0 .024-.024.072-.024.096-.24.456-.504.792-.504 1.152 0 .6.576 1.104.936 1.608.264.384.336.744.408.744.096 0 .36-.216.744-.216.48 0 .6.432.792.432.12 0 .552-.216.864-.216.072 0 .168.024.24.024.384 0 .768-.36 1.08-.36.312 0 .288.696.36 1.104-.552 0-.552 0-.552.576v.168c.192-.24.36-.504.552-.744.432-.336.6-1.224 1.272-1.392 0 .072.024.144.024.216 0 .072-.048.144-.048.24 0 .144.048.24.192.24.288 0 .48-.144.576-.432-.144.072-.24.072-.384.072.12-.48.552-.72.936-.72.12 0 .264.072.36.072.456 0 1.032-.552 1.68-.552.456 0 .744.24.744.6 0 .264-.24.792-.528.792-.096 0-.288-.072-.408-.12 0 .048-.024.096-.024.144 0 .192.096.336.096.432 0 .168-.12.216-.408.408-.792.504-.504 1.176-1.368 1.176-.288 0-.6 0-.888-.024.024-.12.024-.216.024-.288 0-.144-.072-.144-.288-.216l-.024-.024.024.048c.096.168.168.312.264.48-.192.456-.216.6-.792.6-.408 0-.264-.576-.528-.576-.192 0-.408.192-.552.192-.384 0-.48-.552-.84-.552-.48 0 .024 1.2-1.104 1.2-.792 0-.528-1.176-1.128-1.176-.696 0-.504.648-.96 1.248-.048-.072-.192-.144-.192-.24 0-.048.024-.096.024-.12-.048-.096-.096-.168-.12-.24-.384.576-.336.456-.72.552 0-.072-.024-.168-.024-.24 0-.192.096-.336.096-.528-.24.12-.312.672-.648.672-.096 0-.192-.096-.192-.24 0-.24.216-.48.216-.72 0-.072-.024-.12-.096-.12-.072 0-.264.096-.336.096-.167 0-.229-.186-.316-.299-.069.214-.098.467-.38.491-.24 0-.384-.12-.432-.36-.144-.84-.72-.936-.72-2.568 0-.648.168-1.344.168-1.92 0-.168-.072-.336-.072-.504.024-.36.12-.984.24-1.488.216-1.008 1.128-2.928 1.2-4.536.024-.552.264-1.056.36-1.56.096-.528.576-.576.864-1.152h-.144c-.168 0-.288.072-.36.072-.048 0-.072-.024-.072-.096-.024-.12.144-.504.168-.816.072-1.128.624-1.824 1.704-2.232.504-.192 1.152-.576 1.392-.576.144 0 .312.168.48.168.192 0 .432-.192.624-.192.144 0 .216.144.264.264l-.012.012zm-5.283 16.98c-.035-.043-.076-.072-.129-.072-.048 0-.12.072-.192.072h.321zm10.597-16.037c-.006-.071-.022-.133-.022-.211-.024.024-.048.048-.048.072l.07.14zM99.782 38.928c0-.048.024-.072-.048-.072 0 .048-.024.072.048.072zm-.36-.768c.144-.144.264-.264.384-.408-.072-.144-.048-.264-.168-.264-.192 0-.408.24-.408.408 0 .12.096.24.192.264zm9.984 1.944c0 .048-.024.096-.024.144 0 .096.024.216.048.312.024-.432.864-.48.864-.768v-.12c-.144.144-.144.12-.192.312-.144-.024-.264-.072-.408-.072-.048 0-.24.072-.288.192zm-7.08.264c-.144.12-.312.24-.312.24.072.12.168.24.24.336.096-.096.192-.144.192-.264 0-.096-.072-.192-.12-.312zm-2.28-.306c-.006.018 0 .042 0 .066a.314.314 0 0 1 .036-.057l-.036-.009zm1.536-14.334c.072.048.168.096.24.144 0 0 .072-.072.12-.144-.072-.048-.12-.12-.216-.168 0 0-.096.096-.144.168zm.216.768c.024 0 .048-.024.072-.024 0-.024 0-.048-.024-.096-.024.048-.024.096-.048.12zm.192 2.28c.096-.096.168-.144.168-.216 0-.048-.072-.096-.12-.144-.072.072-.144.096-.144.168 0 .072.048.12.096.192zm4.368-4.632a.543.543 0 0 0 .096-.216c0-.048-.024-.096-.096-.12-.24 0-.384.384-.384.576 0 .048.024.072.048.096.216-.096.216-.168.336-.336zm3.24 1.224c.24-.216.36-.36.36-.48 0-.192-.192-.192-.6-.408-.024.288-.048.552-.048.816 0 .048.024.144.072.144a.387.387 0 0 0 .216-.072zm1.992-.672v-.144a.331.331 0 0 0-.072.096c0 .024.024.072.048.096 0 0 .024-.024.024-.048zm10.715 7.752l.24-.072-.216.168c.168.312.12.96.312.96.24 0 .192-.456.696-.456.048 0 .12 0 .144.024.576.672 1.368.264 2.112.816.528.408 1.584 1.896 1.584 1.992 0 .12-.216.144-.576.552.288.192.792.312.792.72 0 .456-.672.48-.672.72 0 .144.288.624.288.84 0 .576-.504.432-1.224 1.008.168 0 .432.264.432.36-.072.12-.12.192-.216.192s-.192-.12-.288-.144c-.696.864-1.536 1.08-2.28 1.776-.504.48-1.536.408-2.184.696-.168.072-.288.12-.432.12-.288 0-.456-.264-.84-.264-.96 0-2.04.456-2.976.456-.432 0-.312-.6-.528-.6-.12 0-.264.144-.408.192l-.192.096.144-.168c-.744-.12-1.248-.576-1.416-1.368-.072-.312-.336-.768-.768-1.104l.024-.024c-.312-.264.072-.96-.144-.96-.072 0-.216.072-.312.072-.36 0-.096-.744-.096-1.176 0-.792.312-1.296.84-1.296 1.152 0 1.488.84 1.68 1.944.12.648.168 1.464.816 2.088.24.264.504.984.528.936.144 0 .336-.648.672-.648.312 0 .432.24.432.432 0 .168-.072.408-.072.504.096.024.216.048.336.048.384 0 .6-.168.6-.576 0-.048-.048-.12-.048-.168 0-.264.024-.432.216-.432.12 0 .336.48.504.432.528-.72 1.416-.168 2.136-.768.384-.336 2.232-.84 2.256-1.656-.216-.744-.144-2.304-.912-2.304-.144 0-.552.216-.816.216-.144 0-.192-.12-.192-.192 0-.192.192-.456.24-.696-.528.288-.792.504-.96.504-.216 0-1.368-.696-1.368-1.248 0-.096.024-.24.024-.336-.24.192-.552.432-.792.432-.264 0-2.352-1.2-2.352-1.224-.144-.216-.216-.528-.408-.624-.192-.096-.456-.072-.72-.192-.696-.24-1.128-1.272-1.128-1.824 0-.528.48-1.008.48-1.56 0-.072-.024-.168-.024-.24 0-.168.12-.264.264-.264.096 0 .144.024.192.024.456 0 .432-.744.696-.744 1.152 0 1.032-1.8 1.992-1.8.336 0 .432.72.6.72.384 0 .672-1.176 1.08-1.32.192-.048.36-.096.552-.096.384 0 .648.192.912.192.168 0 .48-.216.672-.216.384 0 .36.624.696.624.264 0 .384-.456.384-.72 0-.096-.048-.216-.048-.312 0-.168.072-.192.216-.192h.192c.24 0 .48-.192.72-.192.432 0 .696.528 1.104.528.408 0 .912-.312 1.224-.312.192 0 .408.24.648.24.648 0 .672.528.672 1.104 0 .432-.456 1.152-.84 1.152-.288 0-.576-.144-.864-.144-.384 0-.744.072-1.128.072-.192 0-.408 0-.576-.096-.216.192-.384.24-.552.24-.216 0-.408-.12-.624-.12-.336 0-1.512.696-2.016.696-.36 0-.432-.48-.528-.48-.168 0-.36.72-.696.72-.624.072-1.104.624-1.704.816-.672.192-1.92.504-1.92 1.248 0 .264.288.696.552.696.288 0 .552-.12.672-.12.264 0 .048.768.408.768h.144c.432 0 .36.336.768.504.024-.096.12-.216.12-.288-.048-.072-.048-.12-.048-.192 0-.312.192-.48.408-.696.168.072.432.096.456.264.168.744.912.744 1.536.744.216 0 .456-.024.696-.024zm2.424 3.648c-.168.168-.24.312-.24.48 0 .336.792.6.816.624.312 0 .72-.504.72-.6 0-.216-.144-.504-.264-.672-.312.312-.216.504-.456.504-.168 0-.36-.192-.576-.336zm-5.28-2.832c-.024 0-.072.048-.072.048.024.336.24.408.528.456 0-.288-.168-.48-.456-.504zm1.704.288h-.072c.168.096.264.216.528.216.024-.024.048-.12.048-.168 0-.048-.12-.12-.216-.12-.072 0-.192.048-.288.072zm3.768 4.368l-.168.24.144.24c.048-.048.144-.096.144-.144a1.881 1.881 0 0 0-.12-.336zm-2.592 2.664l-.144.192.216.24c.024-.048.096-.12.096-.144-.024-.12-.096-.192-.168-.288zm4.008-12.048l-.264.144a.899.899 0 0 1-.144-.24.573.573 0 0 1 .216-.048c.096 0 .12.072.192.144zm-6.984 2.64h.144c.096 0 .096.192.12.264-.144-.024-.264-.072-.264-.264zm-4.032 6.744a.408.408 0 0 1 .144-.144l-.096-.216c-.048.024-.12.072-.12.096 0 .071.046.142.07.259l.002.005zm3.264-9.36c-.048-.072-.12-.192-.168-.192a.182.182 0 0 0-.096.048c.024.048.024.168.12.168.024 0 .072-.024.144-.024zm-.264 14.568l-.168.12-.072-.216c.024-.024.12-.048.168-.048.048 0 .048.072.072.144zm6.48-8.088c-.024.048-.072.144-.072.192l.072.192c.024-.072.072-.144.072-.216 0-.072-.048-.12-.072-.168zm-11.184 5.112c-.024 0-.048-.024-.072-.024.096-.192.12-.144.264-.168-.048.072-.144.192-.192.192zm12.168-.432c-.096.072-.144.144-.144.24 0 .072.024.12.096.168 0-.12.024-.288.048-.408zm-4.824-12.768c-.024-.072-.048-.144-.048-.192l-.144.072c0 .144.12.12.192.12zm2.52 8.256l.096-.144c-.048-.024-.096-.048-.144-.048 0 .048-.048.096-.048.168l.096.024zm-3.456-8.016l.216-.192-.096-.072-.12.264zm5.52 7.632c0-.048 0-.072-.048-.096-.024 0-.048.024-.072.024 0 .048 0 .096.048.096.024 0 .024-.024.072-.024zm-6.048 8.136v.072c-.048 0-.096.024-.072-.048.024-.024.048-.024.072-.024zm3.072-14.568v.048c-.024.024-.048.024-.072.024l.072-.072zm-1.752 12.96l.096-.144c-.048.048-.096.072-.096.144zm3.79-11.738l-.022-.046c0 .015.01.03.022.046zm0 0a.523.523 0 0 0 .026.026v.024l-.026-.05zm-4.966 1.826l-.024.024v-.024h.024zm-5.808 8.496v.024h-.024l.024-.024zm23.962-7.488l.24-.072-.216.168c.168.312.12.96.312.96.24 0 .192-.456.696-.456.048 0 .12 0 .144.024.576.672 1.368.264 2.112.816.528.408 1.584 1.896 1.584 1.992 0 .12-.216.144-.576.552.288.192.792.312.792.72 0 .456-.672.48-.672.72 0 .144.288.624.288.84 0 .576-.504.432-1.224 1.008.168 0 .432.264.432.36-.072.12-.12.192-.216.192s-.192-.12-.288-.144c-.696.864-1.536 1.08-2.28 1.776-.504.48-1.536.408-2.184.696-.168.072-.288.12-.432.12-.288 0-.456-.264-.84-.264-.96 0-2.04.456-2.976.456-.432 0-.312-.6-.528-.6-.12 0-.264.144-.408.192l-.192.096.144-.168c-.744-.12-1.248-.576-1.416-1.368-.072-.312-.336-.768-.768-1.104l.024-.024c-.312-.264.072-.96-.144-.96-.072 0-.216.072-.312.072-.36 0-.096-.744-.096-1.176 0-.792.312-1.296.84-1.296 1.152 0 1.488.84 1.68 1.944.12.648.168 1.464.816 2.088.24.264.504.984.528.936.144 0 .336-.648.672-.648.312 0 .432.24.432.432 0 .168-.072.408-.072.504.096.024.216.048.336.048.384 0 .6-.168.6-.576 0-.048-.048-.12-.048-.168 0-.264.024-.432.216-.432.12 0 .336.48.504.432.528-.72 1.416-.168 2.136-.768.384-.336 2.232-.84 2.256-1.656-.216-.744-.144-2.304-.912-2.304-.144 0-.552.216-.816.216-.144 0-.192-.12-.192-.192 0-.192.192-.456.24-.696-.528.288-.792.504-.96.504-.216 0-1.368-.696-1.368-1.248 0-.096.024-.24.024-.336-.24.192-.552.432-.792.432-.264 0-2.352-1.2-2.352-1.224-.144-.216-.216-.528-.408-.624-.192-.096-.456-.072-.72-.192-.696-.24-1.128-1.272-1.128-1.824 0-.528.48-1.008.48-1.56 0-.072-.024-.168-.024-.24 0-.168.12-.264.264-.264.096 0 .144.024.192.024.456 0 .432-.744.696-.744 1.152 0 1.032-1.8 1.992-1.8.336 0 .432.72.6.72.384 0 .672-1.176 1.08-1.32.192-.048.36-.096.552-.096.384 0 .648.192.912.192.168 0 .48-.216.672-.216.384 0 .36.624.696.624.264 0 .384-.456.384-.72 0-.096-.048-.216-.048-.312 0-.168.072-.192.216-.192h.192c.24 0 .48-.192.72-.192.432 0 .696.528 1.104.528.408 0 .912-.312 1.224-.312.192 0 .408.24.648.24.648 0 .672.528.672 1.104 0 .432-.456 1.152-.84 1.152-.288 0-.576-.144-.864-.144-.384 0-.744.072-1.128.072-.192 0-.408 0-.576-.096-.216.192-.384.24-.552.24-.216 0-.408-.12-.624-.12-.336 0-1.512.696-2.016.696-.36 0-.432-.48-.528-.48-.168 0-.36.72-.696.72-.624.072-1.104.624-1.704.816-.672.192-1.92.504-1.92 1.248 0 .264.288.696.552.696.288 0 .552-.12.672-.12.264 0 .048.768.408.768h.144c.432 0 .36.336.768.504.024-.096.12-.216.12-.288-.048-.072-.048-.12-.048-.192 0-.312.192-.48.408-.696.168.072.432.096.456.264.168.744.912.744 1.536.744.216 0 .456-.024.696-.024zm2.424 3.648c-.168.168-.24.312-.24.48 0 .336.792.6.816.624.312 0 .72-.504.72-.6 0-.216-.144-.504-.264-.672-.312.312-.216.504-.456.504-.168 0-.36-.192-.576-.336zm-5.28-2.832c-.024 0-.072.048-.072.048.024.336.24.408.528.456 0-.288-.168-.48-.456-.504zm1.704.288h-.072c.168.096.264.216.528.216.024-.024.048-.12.048-.168 0-.048-.12-.12-.216-.12-.072 0-.192.048-.288.072zm3.768 4.368l-.168.24.144.24c.048-.048.144-.096.144-.144a1.881 1.881 0 0 0-.12-.336zm-2.592 2.664l-.144.192.216.24c.024-.048.096-.12.096-.144-.024-.12-.096-.192-.168-.288zm4.008-12.048l-.264.144a.899.899 0 0 1-.144-.24.573.573 0 0 1 .216-.048c.096 0 .12.072.192.144zm-6.984 2.64h.144c.096 0 .096.192.12.264-.144-.024-.264-.072-.264-.264zm-4.032 6.744a.408.408 0 0 1 .144-.144l-.096-.216c-.048.024-.12.072-.12.096 0 .071.046.142.07.259l.002.005zm3.264-9.36c-.048-.072-.12-.192-.168-.192a.182.182 0 0 0-.096.048c.024.048.024.168.12.168.024 0 .072-.024.144-.024zm-.264 14.568l-.168.12-.072-.216c.024-.024.12-.048.168-.048.048 0 .048.072.072.144zm6.48-8.088c-.024.048-.072.144-.072.192l.072.192c.024-.072.072-.144.072-.216 0-.072-.048-.12-.072-.168zm-11.184 5.112c-.024 0-.048-.024-.072-.024.096-.192.12-.144.264-.168-.048.072-.144.192-.192.192zm12.168-.432c-.096.072-.144.144-.144.24 0 .072.024.12.096.168 0-.12.024-.288.048-.408zm-4.824-12.768c-.024-.072-.048-.144-.048-.192l-.144.072c0 .144.12.12.192.12zm2.52 8.256l.096-.144c-.048-.024-.096-.048-.144-.048 0 .048-.048.096-.048.168l.096.024zm-3.456-8.016l.216-.192-.096-.072-.12.264zm5.52 7.632c0-.048 0-.072-.048-.096-.024 0-.048.024-.072.024 0 .048 0 .096.048.096.024 0 .024-.024.072-.024zm-6.048 8.136v.072c-.048 0-.096.024-.072-.048.024-.024.048-.024.072-.024zm3.072-14.568v.048c-.024.024-.048.024-.072.024l.072-.072zm-1.752 12.96l.096-.144c-.048.048-.096.072-.096.144zm3.79-11.738c-.013-.016-.022-.03-.022-.046l.023.046zm0 0a.519.519 0 0 0 .026.026v.024l-.025-.05zm-4.966 1.826l-.024.024v-.024h.024zm-5.808 8.496v.024h-.024l.024-.024z"/>
</svg>
