<svg xmlns="http://www.w3.org/2000/svg" xmlns:xlink="http://www.w3.org/1999/xlink" width="70" height="19" viewBox="0 0 70 19">
    <defs>
        <path id="a" d="M.148.12h53.807V12H.148z"/>
        <path id="c" d="M0 .28h.5v.5H0z"/>
        <path id="e" d="M.143.07h16.771v11.708H.144z"/>
        <path id="g" d="M.243.004h.5v.5h-.5z"/>
    </defs>
    <g fill="none" fill-rule="evenodd">
        <path fill="#202020" d="M65.05 7.458c.235.036.15-.383.186-.458-.392.095-.175.567-.185.458M62.44 8.171L62.5 8l-.5.421z"/>
        <path fill="#202020" d="M61 8.245c.296.615 1.114-.104 1.664.112l.091.141L63 8c-.667.082-1.53.415-2 .245M61.054 7c.12.276-.41.244.446.08-.043-.03-.056-.047-.081-.069A2.313 2.313 0 0 1 61.054 7M61.061 7.108c.38-.025-.251-.23 0 0M60.167 7.5l.333-.224c-.072-.142-.37-.169-.26-.276-.344.125-.272.267-.073.5"/>
        <path fill="#202020" d="M60 7.157l.258-.108c-.047-.068-.116-.092-.258.108M60.5 7l-.5.229c.068.114.078.345.23-.083-.039.212.058.006.27-.146M61 7.016c.356.147.813.238.185.484 1.202-.108 1.018-.593-.185-.484M61 8.085l.27.205.23-.24c-.115.117-.518-.19-.5.035M59.002 7c-.024.128.15.337.185.5l.313-.15c-.163-.086-.473-.162-.498-.35"/>
        <path fill="#202020" d="M59.494 7L59 7.268c.446.024.525-.101.494-.268M60.163 7.491L61 7l-1 .5zM58.22 7.33L58.5 7l-.5.5zM57.951 7.5c.2-.221-.291-.362-.077-.5-.336.045-.62.237-.874.41.273-.098.567-.08.951.09M57 7.338c.154-.072.312-.201.484-.338a1.44 1.44 0 0 0-.484.338"/>
        <path fill="#202020" d="M58.444 7.423C58.4 7.333 58.312 7.095 58 7l.226.422.218.002M58.478 7.027l-.008-.014L58 7l.478.027"/>
        <path fill="#202020" d="M58.055 7H58c.022.042.035.055.055 0M59.5 7c-.262.282-.81.589-.271 1 .185-.342-.123-.576.271-1M58 7.307l.47.09c-.01-.113-.097-.277.03-.397l-.5.307zM58 7.173l.285-.141L58.067 7z"/>
        <path fill="#202020" d="M57.778 7.002c-.232.192-.488.214-.778.25.313.077.636.115.941.105.04-.135.17-.379-.163-.355M57.056 7c-.017.01-.04.016-.056.026.035.035.063.046.056-.026M55 7l.051.077.01-.075L55 7z"/>
        <path fill="#202020" d="M57.057 7.165c.207.077.328-.031.443-.165a1.994 1.994 0 0 1-.49.087c-.017.062-.019.102.047.079M56 7.032c.134.087.285.16.444.225-.133-.132-.4-.337-.444-.225M57.027 7.07c.013-.006.024-.015.038-.02-.085-.089-.074-.045-.038.02"/>
        <path fill="#202020" d="M57.33 7c-.13.065-.23.173-.33.27.153-.038.295-.087.417-.153A.534.534 0 0 1 57.33 7M55.298 9c.015-.297.313-.581.58-.275.253-.23.07-1.192-.164-1.725-.006.129-.004.248-.267.432.096.156.595.353.376.628-.349.165-.29-.094-.463-.242.151.359-.437.557-.351 1.092l.304-.206c.007.084-.102.224-.015.296"/>
        <path fill="#202020" d="M55.822 7.5L56 7.452c-.205-.054-.354-.188-.63-.452-.293.177-.352.307-.37.422l.882.025-.06.053zM56.634 7.194c-.104.322-.44.467-.226.806.414-.034.285-.275.53-.42-.667.099.189-.183-.298-.35.13-.058.249-.078.36-.094A2.02 2.02 0 0 1 56.651 7l.016.02.003-.001v.004c.03.04.04.063.006.041-.002.004-.01.006-.014.007a.491.491 0 0 1-.028.12c-.195-.059-.032-.08.028-.12.002-.016.007-.03.008-.048l-.003-.003-.667.193c.143.04.32.027.634-.02M59.097 9.1c-.035-.038-.034-.069-.038-.1-.072.054-.099.09.038.1M59.442 8.87c.062-.05.112-.196.316-.162.179.106.002.173.013.292.122-.098.426-.266.038-.436l-.06.05c-.35-.12-.804-.564-.744-.614.107.324.2.554.437.87M58 8l-1 .196.52.304-.031-.188c.573.064.444-.166.511-.312"/>
        <path fill="#202020" d="M55.393 7.35L55.5 7l-.5.5z"/>
        <path fill="#202020" d="M55.283 7.396L55.317 7 55 7.249zM27.261 13l-.261.143a.948.948 0 0 0 .261-.143M28.049 12.199l.027-.199c-.08.117-.109.2-.027.199M43 8.5c-.505-.281-1.083-.727-.99-.363l.18.35A1.49 1.49 0 0 1 43 8.5M35 11.316l.13.121.232-.437-.362.316M34.5 12.232L34 12c.116.086.277.165.5.232M22.262 14l-.262.479c.499-.066.25-.259.262-.479M50 7.225A3.072 3.072 0 0 0 49 7c.49.231.892.59 1 .225M27.208 11c-.16.098-.222.194-.206.29.165-.094.254-.188.206-.29"/>
        <path fill="#202020" d="M49 7.205c.063.041.124.06.188.094.25-.083.502-.152.812-.138-.316-.171-.675-.271-1 .044M6.098 17.027c-.032-.01-.067-.012-.098-.027.008.06.046.052.098.027M2 17.221c.096-.071.272-.146.436-.221-.093.006-.227.067-.436.221M54 7.032c.26-.036.04-.049 0 0M54.096 8a.287.287 0 0 0-.096.214c.017-.104.051-.172.096-.214M48.023 9H48c.081.081.067.065.023 0"/>
        <path fill="#202020" d="M54.337 7.118c-.1-.05-.214-.091-.337-.118.054.032.157.071.337.118"/>
        <path fill="#202020" d="M54 7.045l.229.034c.03-.073 0-.117-.229-.034M53 7.035a1.51 1.51 0 0 1 .423.031c-.053-.027-.075-.05-.062-.066L53 7.035M15.192 15.031c-.019-.01-.04-.016-.061-.031-.231.217-.122.172.061.031M40.011 11.036c.012-.005.018-.018.028-.023L40 11l.011.036zM39 12c.397-.345.655-.316 1-.259L39.551 11 39 12z"/>
        <g transform="translate(0 7)">
            <mask id="b" fill="#fff">
                <use xlink:href="#a"/>
            </mask>
            <path fill="#202020" d="M13.06 5.813l.077.055c-.147.11-.111.031-.077-.055M51.378.65c.035-.039.031-.077.015-.114-.023.07-.103.08-.196.065.028.07.075.115.18.05m-.36-.097a.077.077 0 0 0-.009.013c-.176-.095-.113-.056.008-.013M34.246 3.91c-.052.096-.144.063-.25-.027.071-.03.154-.03.25.027m-5.972 1.466c-.072.067-.211.264-.28.114.063-.32.142-.183.28-.114m-3.935.793l.283.173c-.287.407-.528.322-.253.585-.03-.758 1.018-.242.99-1l.187.13c-.05 0-.054.046-.104.047.369.306.204-.585.65-.549.157.033.273.125.176.232l.324-.241c.1-.001.086.133-.013.135l.512-.142-.002.023c.064-.129.217-.337.292-.426.14.089-.06.09-.018.178l.272-.225c.132.179-.09.403-.29.404.329.713.222-.224.835.13l-.263.135c.209.401.407.215.734.436-.083-.128-.665-.58-.37-.814.093.044.21.053.366-.123.023.268.181.177.385.132l.014.357c.213-.135.182-.314.3-.493.25-.001.322.266.397.489.4-.002-.306-.4.157-.537.339.09.559-.086.937-.352.24.092-.024.223.066.314l.184-.312c.05 0 .04.09.035.135.165-.134-.011-.358.253-.49.045-.402.596.496.9.007.09.09-.025.223.01.357.44-.354.38-.266.73-.71l.338.195c-.255-.238.026-.59.274-.883-.093-.118-.173-.223-.224-.27l.41-.243c.055.052.02.18-.039.337.027-.033.053-.066.072-.095.16.113.095.327 0 .54a5.999 5.999 0 0 1-.167-.202c-.09.23-.171.48-.135.686a.3.3 0 0 1 .132-.113c-.024.062-.038.116-.023.15.017.036.056-.048.119-.147l.123.384.012-.16.57.18c.368-.447.675-1.077 1.294-1.317-.138.31-.004.479.009.824-.194-.343-.477.215-.806.18.172.018.145.187.105.25l.56-.403c.004.283.136.196.295.294-.15-.545.41-.422.635-.617.026.185-.019.383-.31.369.344.385.371-.7.705-.377-.07.012-.11-.012-.132.086.155-.184.565-.096.48.077l-.07.011c.47.015 1.422-.151 1.466-.632.008.06-.03.577-.053.676l.748-1.68c-.052.414.283 1.354-.092 1.622.114.047.255.102.482-.065-.079-.05-.22-.57-.119-.617.31.426.211.224.582.576-.118-.076-.025-.726.156-.723-.023.098.048.627-.014.7l.415-.669c-.106.123.008.532.117.7-.053-.118.387-.026.503-.1l-.196-.126c.51.046.455-.93.96-.944-.055.135-.112.808.147.866.101-.33.445-1.586.88-1.87l.094.176.332-.238c-.191.5-.741 1.566-1.047 1.989.196.13.062.212.345.171.108.164-.142.274-.225.291l.664.056c-.046-.372.487-.418.448-.728l-.699.449c-.046-.372.366-1.098.838-1.072.125.14-.06.675-.045.799.055-.134.433-.283.48-.195l-.19.216c.267.12.404-.532.732-.2.11.015.342.455.352.232-.193-.413-.283-1.732-.179-2.063.04.024.586.368.718.57.192.323-.235.818-.072 1.095.002-.103.096-.236.135-.28.117.08-.035.32.21.257.026-.382.503-.003.104-.33.237-.125.26.061.542.024-.1-.239.223-.853.462-.979-.01.098.048.22.077.276.496 0 .768.15 1.23.126.046.09.272.188.183.357.064-.07.12-.203.263-.22.286.312-.316.068-.093.452.01-.222.358-.327.556-.476-.073-.338-.47-.039-.669.11-.017-.47.321-.983.798-1.228.381-.14.176.295.24.224.725.04.592-.857 1.202-.552.246.286.027.595.086.809-.31.131-.486-.163-.698-.138l.266.126c-.097.106-.303.193-.42.113.207.26 1.22-.023 1.783.206.096-.104.264-.216.18-.333l-.174.05c-.169-.235.322-.35.097-.453.232-.18.49-.46.827-.338l.07.34c-.009-.1-.222-.194-.313-.086.135-.158.521.44.663-.014l-.239-.227c.234-.182.52-.559.817-.464-.142-.332-.067.042-.286-.344.193.484-.756.013-.452.517-.226-.45-.378-.178-.669-.557.012.113.105.212-.144.167a.49.49 0 0 1-.052.102L52.335.38l.014.013c-.01.017-.011.021.005.004.06.047.11.104.13.166-.116.265-.51.274-.64.414-.149-.047.058-.132-.026-.249l-.193.21c-.027-.25-.403-.4-.06-.562l-.312.005c-.188-.13-.443-.171-.596-.057-.148-.046-.363.299-.24.095l-.486.183-.006-.062c-.484-.004-.98.472-1.548.052-.16.072-.325.163-.6.11l-.06-.213c-.206.09-.635-.172-.717.06-.247-.567-1.018-.056-1.389-.134L45.608.7c-.253.002-.492.1-.8.24l.03.248c-.262.228-.703-.12-1.129-.058.025-.098.134-.082.214-.03-.536-.523-1.059.5-1.54.127-.111.1-.196.076-.28.02a.05.05 0 0 0 .028-.015.197.197 0 0 0-.048 0c-.053-.037-.108-.082-.166-.116.05.056.1.101.141.12a1.07 1.07 0 0 0-.351.134l-.07-.263c-.01.004-.019.004-.03.01-.134-.086-.098.137-.019.333a.723.723 0 0 0-.167.178c-.126-.423-.339.18-.506-.269-.077.234-.656.234-.701.714-.008-.061-.048-.087.023-.098-.15-.04-.3-.08-.425.067l-.08-.335-.298.49c-.206-.19-.294-.302-.114-.583-.446.448-.372.19-.747.633l.007-.223c-.142.024-.353.345-.449.172-.342-.383-1.577.111-2.418-.183.199.63-.398-.244-.398.263-.058-.148-.177-.22-.053-.37-.407.202-.642-.166-.903.293-.057-.149.075-.236.027-.322-.032.038-.124.15-.174.063-.048-.086.053-.136.115-.21-.425.077-.436.555-.438 1.002-.23-.183-.335-.141-.471.169-.085-.136-.22-.272.04-.357-.15-.004-.923-.099-.913.26-.053-.083-.21.003-.246.049-.335.024-.367-.004-.691.074l.094.045c-.098.446-.265.133-.525.22l.005-.045c-.628-.227-.25.183-.874-.089l.053.262c-.013.582-.554-.268-.884.005l.137.134c-.174.223-.588-.7-.784-.744-.046-.044.059-.09.114-.135-.524-.264-.038.358-.402.494-.083-.178.05-.491-.202-.49-.137-.133-.675.719-1.044.409.086.134.172.267.01.401-.26.09-.76-.44-.96.056a.17.17 0 0 1-.056-.106c-.192.15-.639.301-.739.569-.265-.889-1.213.649-1.282-.2l-.616.146.009-.089c-.401.013-.523.24-.643.468-.097-.042-.037-.132-.034-.178-.593-.07-.648-.023-1.093.483l-.076-.266c-.116.183-.877-.287-1.413.137a.223.223 0 0 1 .05-.135c-.605.442-1.602-.473-1.735.569l-.395.325c.551-.025-.037.448.203.571-.207.1-.583-.197-.325-.297l.046.042c.043-.538-.694-.058-.716-.414-1.066.24-2.139.161-3.143.342l.16.38-.352.05c-.102-.075-.158-.29.093-.326-.157-.201-.397.28-.394.369-.506-.061.138-.51-.013-.49l-.2.074.051.037c-.146.2-.14.377-.442.423-.2-.04-.126-.228-.203-.227-.003-.03-.03-.037-.116.013l-.444.062.213.28c-.176.198-.415.076-.17.39-.364-.493-1.664.18-1.87.056-.242.3-.51.365-.848.422.093.046.19.385-.1.42 0-.762-.571-.175-.883-.639.26.288-.805.327-.401.726-.249.01-.058-.27-.267-.388-.524.452-1.288.207-1.977.55.008.099.152.203.029.397l-.462-.34c-.13.099-.018.595-.337.36.052.067.13.167.043.232-.73.027-1.407.419-2.088.776a6.92 6.92 0 0 1-1.037.486 2.93 2.93 0 0 1-1.125.189c.235.07.119.158-.018.245.103-.01.066.225.122.337l-.666-.015c.008.397-.586.398-.535.753l.154-.168c-.1.523.604.638.728 1.15.053-.3.275-.234.504-.205.231.03.468.021.585-.405.123.052-.032.202.052.29.043-.269.16-.382.425-.413l-.012.068c.326-.209.58-.282.849-.34.267-.062.553-.094.952-.19l-.116-.226c.172-.04.226.023.317.052.101-.467-.468.185-.395-.313.336.405 1.177-.489 1.45.039.258-.093-.136-.266.123-.36l.1.134.024-.23c.176-.03.3.139.334.271-.044 0-.109.082-.15.11.254.104.602-.294.69-.255l-.267-.013c.678-.398 1.578-.475 2.219-1l-.072-.107c.495-.382.445.007 1.013-.256l-.017.035a.63.63 0 0 1 .409-.288c-.128.182.317.207.145.416.545-.39.26-.264.58-.818l.116.182c.106-.218.105-.317.393-.44-.219.232.228.265-.013.561.672.297.86-.667 1.224-.078.216-.63-.573-.192-.429-.35-.156-.154.183-.475.385-.463.2-.032.423.647.919.528-.05.009-.048.052-.098.06.203.104.342-.275.598-.089.09-.37.3-.043.287-.487l-.446.197c.246-.169.432-.731.888-.573-.023.095-.138.238-.218.32.14.103.231-.136.376-.03.011.444-.546.212-.787.603.155.157.49-.427.404.076.133-.645.5-.027.787-.554l.007.266c.049-.051.146-.197.246-.21l-.142.375c.243-.345.556.147.801-.063-.549.118-.157-.291-.41-.436.64-.487.463.607 1.209.329-.099.058-.403-.08-.255-.234.15.025.352.087.455.208.498-.156-.105-.255.092-.46.205.286.233-.179.444-.325l.029.266c.592.06.095-.585.633-.476l-.18.41.26-.146-.025.314c.27-.28.367-.24.663-.208-.085-.175-.01-.49.243-.547.19.126-.072.272.285.166-.065.182-.133.408-.314.192-.008.09-.064.182-.072.272.205.146.474-.047.604-.074-.051 0-.113-.004-.148-.036l.487-.468c.092.085.034.177-.022.269.103-.05.164-.186.317-.238-.019.225.013.447-.198.59l.475-.334c.042.088.28.212.223.303.289.08.637-.54 1.02-.435.015-.045.05-.092.124-.137.35-.01.679.202 1.06-.166l.266.348c.312-.144-.358-.436.161-.675.366-.19.17.307.313.392.17-.228.46-.679.835-.418-.108.092-.203.049-.308.095" mask="url(#b)"/>
        </g>
        <path fill="#202020" d="M35.144 12.254A.602.602 0 0 1 35.04 12c-.067.087-.06.18.104.254M22.049 14.002c-.011-.003-.02 0-.03-.002a.259.259 0 0 0-.019.09l.049-.088zM46.361 11.23a.735.735 0 0 1-.36-.23c-.004.118.083.213.36.23M54.5 7l-.5.144c.243-.033.333.07.458.141-.014-.112-.115-.271.042-.285M56.182 9.296c.08-.061.174-.01.253-.072L56.407 9c-.35.023-.59.209-.225.296M54 8.204c.071.405.509.255 1 .167-.03.003-.058.007-.088.003.125-.57-.395-.37-.912-.17"/>
        <path fill="#202020" d="M54 8.133c.121-.023.245-.037.364-.022.04-.229-.149-.043-.364.022M53.309 7.454c.16.09.083-.479.176-.33.16-.479-1.024.608-.176.33M54.365 9.496L54.208 9 54 9.411z"/>
        <path fill="#202020" d="M54 9.086l.796.119c-.015-.084.082-.135.204-.176-.487-.005-1.024-.09-1 .057"/>
        <path fill="#202020" d="M54 9.1c.2.002.39-.014.5-.1a1.821 1.821 0 0 0-.5.1"/>
        <path fill="#202020" d="M54.5 9.12l-.15-.098L54 9zM49.48 9l-.472.172c-.043.174.09.271.265.192.11-.126.286-.203.208-.364M51.318 9.296C51.128 9.22 51.112 9.13 51 9l.005.5.313-.204zM49.32 10c-.041.175-.65.536-.071.46.041-.173.496-.345.07-.46M46 10l.174-.016L46.093 9zM42.104 11.967c.798.221.145-.76.871-.46.17-.3-.593-.244-.418-.507-.456.342-.713.194-.453.967M42 11.171c.075-.045.156-.1.24-.171a.786.786 0 0 0-.24.171M.5 17l-.5.035.397.163z"/>
        <g transform="translate(0 17)">
            <mask id="d" fill="#fff">
                <use xlink:href="#c"/>
            </mask>
            <path fill="#202020" d="M.434.68L.039.28 0 .78C.098.724.288.61.435.68" mask="url(#d)"/>
        </g>
        <path fill="#202020" d="M29.444 13.319l.023-.16c-.098-.16-.221-.159-.467-.159l.444.319zM26.171 13.5h.123L26 13zM24.043 14.327c.308-.005.647-.173.957-.176-.649.17-1.153-.54-.957.176M54.04 14.016c-.11-.006.042.386.048.463.144-.139-.082-.566-.047-.463M54 13.301l.018.173.13-.474zM56 12.294c-.355-.816-.548.348-.906.142L55 12.253l.035.747c.321-.235.663-.862.965-.706M55.218 13.203c-.128-.25.114-.28-.218-.026.028.023.038.039.055.057a.48.48 0 0 1 .163-.03M55.045 13c-.16.067.172.193 0 0M56.148 13l-.148.269c.091.128.294.11.256.231.184-.174.093-.302-.108-.5"/>
        <path fill="#202020" d="M56.083 13l-.083.133c.038.061.075.076.083-.133M55 13.43l.176-.282c-.063-.102-.13-.323-.087.108-.039-.209-.03 0-.089.173"/>
        <path fill="#202020" d="M55.41 13.446c-.166-.11-.35-.157-.201-.446-.388.207-.187.654.2.446M55.295 12.155L55.074 12l-.074.271c.038-.134.367.095.295-.117M56.367 13.5c-.028-.136-.185-.334-.255-.5l-.112.195c.111.07.294.111.367.305M56.033 12.32L56.2 12c-.223.033-.227.163-.167.32"/>
        <path fill="#202020" d="M55.242 12.022L55 12.5l.315-.5zM57.038 13.175L57 13.5l.094-.5z"/>
        <path fill="#202020" d="M57 13c-.018.243.273.34.217.5.149-.077.22-.298.283-.496-.099.125-.25.134-.5-.004M57.122 12c-.048.086-.083.226-.122.376a.944.944 0 0 0 .122-.376"/>
        <path fill="#202020" d="M57 12.021c.044.083.147.303.31.362L57.096 12l-.096.021"/>
        <path fill="#202020" d="M57 12.024l.007.012.21-.036-.217.024"/>
        <path fill="#202020" d="M57.002 12.037l.024-.005c-.02-.038-.03-.05-.024.005M56.09 13c.075-.311.297-.692-.089-1-.02.357.201.532.09 1"/>
        <path fill="#202020" d="M56.282 12.02L56 12c.036.107.129.252.092.386l.19-.366zM57.087 12l-.087.166.105.008z"/>
        <path fill="#202020" d="M57.173 12.357c.058-.211.174-.26.301-.328a.927.927 0 0 0-.474.004c.017.135.021.384.173.324"/>
        <path fill="#202020" d="M57.011 12.053c.005-.012.014-.019.018-.03-.025-.031-.04-.038-.018.03M58.043 12.069L58 12l.016.072.027-.003zM57.194 12.01c-.132-.047-.169.073-.194.216a.661.661 0 0 1 .241-.146c-.008-.06-.017-.1-.047-.07"/>
        <path fill="#202020" d="M57.255 12.17A1.436 1.436 0 0 0 57 12c.093.114.266.283.255.17"/>
        <path fill="#202020" d="M57.011 12c-.004.008-.007.017-.011.023.061.077.044.036.011-.023M57.07 12.293c.039-.075.054-.19.072-.293a.61.61 0 0 0-.142.19.721.721 0 0 1 .07.104"/>
        <path fill="#202020" d="M57.541 11c.1.288-.104.612-.508.362-.178.265.397 1.163.855 1.638-.044-.125-.093-.24.112-.462-.163-.135-.77-.241-.646-.543.305-.218.344.041.587.156-.303-.323.246-.606-.056-1.11l-.243.247c-.041-.08.02-.232-.1-.288"/>
        <path fill="#202020" d="M57.074 12.027L57 12.1c.113.031.218.155.416.399a.834.834 0 0 0 .072-.5l-.43.091.016-.064z"/>
        <path fill="#202020" d="M57.44 12.81c-.046-.325.192-.51-.148-.81-.356.087-.136.303-.292.476.554-.182-.09.202.42.3a.847.847 0 0 1-.282.138c.124.018.25.047.372.086a1.047 1.047 0 0 0-.022-.016h-.003l-.001-.004c-.044-.034-.063-.056-.024-.04 0-.003.007-.005.009-.008a.57.57 0 0 1-.028-.12c.201.033.065.075.028.12l.015.048.004.004.512-.275c-.146-.02-.298.016-.56.101M56 12c.026.033.033.063.044.092.017-.06.019-.098-.044-.091"/>
        <path fill="#202020" d="M56.353 12.097c-.023.065-.001.233-.157.225-.167-.091-.07-.191-.124-.322-.046.126-.194.356.145.49l.022-.065c.291.082.782.51.76.575a4.725 4.725 0 0 0-.646-.903M57.048 12.5l.35-.26-.312-.24.073.171c-.257-.013-.13.188-.11.329M58 12.17l.072.33.057-.5z"/>
        <path fill="#202020" d="M58 12l.09.385.074-.27zM62.188 7L62 7.054c.064-.014.127-.033.188-.054M63 7.103L63.307 7c-.181.052-.307.093-.307.103M65 10.092c.511.211 1.288.541.89.213L65.46 10c-.108.119-.28.129-.46.092M67.404 7.002L67 7l1 .085-.596-.083M65 7.011L66 7l-1 .011M61.272 7L61 7.377c.215.067.189-.176.272-.377M61.007 12.165c.199.119.339.153.45.142-.251-.186-.502-.503-.45-.142M65.5 5a1.25 1.25 0 0 0-.5.098c.206-.004.38-.029.5-.098"/>
        <path fill="#202020" d="M61.436 12.075c-.039-.034-.071-.047-.108-.075-.09.102-.186.19-.328.203.186.139.372.205.436-.128M54.034 3.06c-.008-.022-.02-.035-.027-.06-.017.057 0 .063.027.06M54 1.023c.056-.017.14 0 .219.011-.032-.037-.096-.048-.219-.011M60.048 12c-.105.06-.005.051 0 0M59.014 11.216A.47.47 0 0 0 59 11c.02.102.023.171.014.216M61.03 10.05l.01-.001c-.057-.072-.046-.058-.01 0M59 12a.554.554 0 0 0 .18.082A.562.562 0 0 0 59 12"/>
        <path fill="#202020" d="M59.11 12.012c-.044-.008-.078-.009-.11-.012.005.073.031.114.11.012M60.195 12a.332.332 0 0 1-.195.01c.03.022.047.042.044.059.032-.017.076-.039.151-.069M59.113 4.045c-.004-.014-.01-.026-.013-.045-.162.142-.105.128.013.045M63 7l.027.013.034.007L63 7z"/>
        <path fill="#202020" d="M63 7c.669.336.522.32.332.269l.826.369L65 8s-.477-.26-.978-.509L63 7"/>
        <g transform="translate(53 1)">
            <mask id="f" fill="#fff">
                <use xlink:href="#e"/>
            </mask>
            <path fill="#202020" d="M5.931 2.006l.016.077c-.081.048-.05-.011-.016-.077m.873 9.021a.183.183 0 0 0 .014.109c-.003-.068.03-.086.073-.083-.025-.062-.054-.1-.087-.026m.174.05v-.014c.094.07.06.04 0 .014m5.63-4.159c-.173-.022-.055-.024.2-.022.026.012-.024.022-.2.022m-2.158-.64c-.09.015-.335.08-.142.006.405-.128.237-.054.142-.006m-.811-.206c.003.002-.088.184-.091.183-.242.258-.162.168-.324.408.202-.298.236-.302.269-.307.033-.004.066-.009.355-.266l-.046.06-.05.06c-.001-.008-.036.022-.037.014-.12.132-.01.041.14-.063.15-.105.34-.224.34-.168-.018.052-.104.125-.205.171l.117-.042.123-.04c.005.019-.133.09-.135.075l.155.01-.025.011c.14-.057.382-.132.495-.16-.094.07-.109.032-.208.083l.139-.03.143-.026c-.211.105-.489.17-.488.14-.409.2-.356.176-.237.142.113-.036.302-.077.061.039l-.155.025-.396.157c-.058.023-.087.038-.269.091.097-.027.322-.095.542-.172.222-.077.44-.161.593-.187-.059.032-.082.05.16.007-.372.103-.257.089-.202.1l-.523.121c.171-.025.442-.084.707-.124-.009.034-.438.116-.805.182-.033.014.144-.016.34-.054.197-.037.411-.082.505-.071-.17.062.093.037.563.044-.18.042-.405.031-.575.056l.56-.025c-.003.006-.17.016-.253.022.24.002.667-.049.92-.024.388-.017.156.021-.075.053-.227.034-.463.056.041.071-.194.012-.466 0-.75.006l1.49.102-.22.016-.227.011c.279-.003.611.008.97.034l.273.022.225.023.388.053.731-.005c.004-.002.205.102.2.104-.147.003-.378-.023-.659-.053l.144.025a4.925 4.925 0 0 1-.546-.019l-.604-.057.55.004a26.66 26.66 0 0 0-1.45-.098c.087.007.153.017.181.026-.141-.01-.243-.015-.324-.02-.088-.003.08.01.264.029l-.91-.041.345.023-.334.006-.32.002c.775.097 1.832.275 1.862.43-.475-.107-.867-.138-1.498-.238.36.043.327.016.22-.017-.106-.035-.29-.075-.178-.082a4.033 4.033 0 0 1-.538-.05l.267.062.248.07c-.527-.077-.424-.046-.667-.068 1.046.15.567.152.792.237-.318-.064-.63-.135-.487-.145-.402-.054-.133.006.128.077.265.069.522.149.187.1.013-.009.071-.003-.077-.04.224.08-.106.077-.327-.001l.012-.009c-.11.01-.19.042-.176.104.017.06.118.157.403.285l-.825-.35s.471.217.87.464c.1.061.198.124.287.184a6.056 6.056 0 0 1 .43.332c-.2-.123-.592-.309-.96-.493-.362-.183-.682-.36-.777-.44-.091-.023-.185-.054-.08.05.073.03.684.327.691.362l-.43-.174c-.068-.026-.134-.044-.36-.15.111.043.706.456.615.472-.08-.065-.588-.407-.636-.456 0 0 .125.11.234.226.11.116.206.237.206.237-.06-.09-.454-.36-.619-.475.11.082-.085.023-.06.076l.15.088c-.091-.011.041.16.154.347.117.186.215.387.103.415-.044-.114-.427-.64-.528-.68.077.132.254.454.366.794.116.337.157.695.071.856l-.113-.142-.06.13-.066.133a6.905 6.905 0 0 0-.071-.97 4.262 4.262 0 0 0-.224-.843c-.11-.104-.116-.174-.158-.14-.089-.14-.093-.228-.09-.24a.89.89 0 0 1-.118-.066c.143.325.052.362.133.648 0 0 .017-.106.019-.206.003-.1-.009-.194-.009-.194.078.16.168.394.194.599.029.203-.012.378-.103.381-.07-.124-.126-.63-.166-.74a.291.291 0 0 1-.02.17c-.04.05-.083.075-.101.036l.044-.222c-.138-.088-.082.539-.285.255-.05-.004-.231-.399-.196-.187.16.372.435 1.61.449 1.931-.022-.02-.32-.288-.415-.466-.141-.285-.044-.796-.165-1.041a.9.9 0 0 1-.009.278c-.065-.063-.042-.306-.138-.221.058.363-.218.054.015.321-.081.143-.124-.03-.24.034.086.215.057.828-.024.97a1.022 1.022 0 0 0-.083-.251c-.216.051-.363-.066-.558.009-.036-.08-.152-.147-.144-.316-.015.074-.016.206-.074.238-.18-.262.124-.101-.043-.437.036.21-.095.349-.153.512.094.31.21-.017.27-.18.092.44.04.963-.12 1.25-.14.174-.13-.258-.146-.184-.32.044-.096.875-.416.657-.16-.241-.122-.558-.187-.752.11-.16.24.097.327.05l-.138-.089c.022-.11.095-.216.16-.155-.137-.219-.524.158-.807.018-.022.11-.074.238-.016.337l.066-.069c.116.2-.074.37.043.439-.066.2-.125.495-.292.423l-.094-.311c.022.093.132.154.15.04-.028.167-.306-.348-.282.098l.145.183c-.066.202-.118.592-.263.54.123.295.02-.047.187.289-.173-.431.322-.108.097-.544.181.395.195.12.39.44-.025-.104-.084-.186.032-.176a.8.8 0 0 1 .003-.102l.009.005-.009-.01c.002-.018.001-.022-.003-.003a.421.421 0 0 1-.087-.14c.001-.264.168-.323.198-.471.073.025 0 .132.057.231l.044-.222c.058.232.247.325.13.522l.134-.042c.105.1.222.11.267-.015.072.027.101-.323.086-.117l.175-.228.014.058c.21-.051.337-.557.658-.225.056-.086.111-.187.24-.166l.065.194c.073-.106.306.099.3-.128.21.51.45-.051.625-.016l-.05-.268c.11-.028.196-.144.305-.303l-.057-.232c.036-.119.118-.106.213-.076.05.014.09.038.155.041.074 0 .15-.01.218-.044.007.095-.075.102-.138.068.236.193.417.017.544-.158.135-.179.219-.356.477-.25.028-.103.097-.1.185-.072-.007.004-.01.01-.01.018a.12.12 0 0 0 .032-.01c.057.02.122.045.184.06a.847.847 0 0 0-.169-.067.408.408 0 0 0 .166-.17l.213.187c.005-.006.011-.008.016-.015.156.037-.019-.122-.198-.255a.31.31 0 0 0-.006-.162c.184.145.214.095.245.049.033-.047.065-.09.294.051-.123-.18.282-.29-.122-.605.06.039.108.049.073.067.129.002.268 0 .207-.11l.378.19s-.067-.089-.14-.174a4.033 4.033 0 0 0-.155-.169c.323.078.517.12.682.318-.074-.174-.069-.215-.06-.256.004-.04.01-.08-.126-.225l.258.116c.076-.04-.18-.231.1-.163.359.064.615-.028.899-.133.287-.108.59-.225 1.18-.274-.607-.073-.427-.075-.198-.079.23-.004.518-.015.073-.08.304.026.538.016.693.084 0-.074.211-.101.355-.134.143-.033.216-.07-.112-.145.336.013.385.063.593.068-.042-.016-.176-.06.036-.056.211.003.216.038.3.07.257-.133-.692-.209-1.593-.275.551-.02.566-.055.02-.116.35 0 .756-.019.714.05a20.114 20.114 0 0 1 .135-.032c.008-.002.028-.004.025-.007l-.007-.01a.347.347 0 0 0-.106-.09c-.11-.065-.309-.125-.673-.13.158-.011-.062-.06-.164-.07-.137-.094-.094-.105-.337-.197l-.06.03c-.87-.006-.315-.065-.55-.134l.083-.003c.118-.098.012-.115-.074-.127-.09-.013-.16-.022-.03-.138l-.421.06c-.488.046-.404.002-.282-.07.125-.068.277-.17.02-.188l-.166.073c-.195.002.037-.082.296-.187.26-.104.547-.23.535-.274.043-.03.154-.004.244.004.14-.282-.533.09-.866.004.209-.09.703-.14.581-.24.058-.05-.268-.058-.558-.073-.292-.018-.545-.041-.447-.182a.685.685 0 0 1-.464.183c-.104-.025-.051-.144-.071-.243-.017-.097-.098-.175-.39-.08a.227.227 0 0 1 .081-.079c-.237.006-.574-.078-.837.053.323-.322.028-.35-.218-.344-.253.007-.466.043-.224-.283l-.405-.142.05-.066c-.228-.164-.398-.032-.54.112-.033-.075.03-.128.05-.165-.143-.155-.25-.237-.33-.23-.071.01-.154.091-.302.244l.038-.267c-.09.125-.26-.562-.57-.366a.28.28 0 0 1 .053-.104c-.339.187-.49-.994-.799-.095l-.23.157c.215.168-.124.395-.063.59-.103.018-.173-.38-.05-.383l.007.054c.148-.474-.25-.292-.171-.625-.46-.165-.85-.613-1.276-.804l-.03.403-.145-.08c-.02-.104.009-.32.113-.264-.013-.24-.217.114-.237.196-.178-.235.172-.417.11-.45l-.093-.005.01.053c-.102.13-.142.294-.267.226-.066-.108.006-.253-.023-.28.005-.028-.003-.045-.047-.03l-.183-.105.015.333c-.113.118-.174-.084-.155.294-.023-.582-.669-.45-.716-.645-.16.18-.274.132-.414.056.024.076-.018.426-.135.341.178-.692-.17-.386-.177-.932.028.37-.37-.04-.315.49-.093-.094.042-.268-.007-.462-.297.189-.515-.363-.838-.373-.021.092.005.252-.084.369l-.082-.52c-.069.025-.148.52-.204.16.003.084.006.21-.04.227C2.059.472 1.298 1.108.818.07.874.276.815.278.751.266.785.322.714.498.703.628L.5.2C.4.54.22.144.143.474l.09-.037c-.167.368.018.93-.075 1.437.19-.419.213.761.508.17.027.117-.062.154-.057.279.083-.205.15-.233.246-.1l-.021.05c.32.041.42.297.745.548l.015-.26c.07.057.073.14.098.215.149-.354-.207-.089-.06-.485.015.545.529.177.498.78.114.04.015-.302.13-.262l.004.168.063-.194c.07.057.075.267.055.4-.016-.021-.058.021-.08.026.066.216.286.028.31.099l-.094-.134c.339-.04.685.29 1.045.077l-.002-.126c.272-.138.162.194.434.182l-.014.025c.072-.1.151-.136.218-.098-.09.116.071.31-.042.434.294-.145.158-.14.407-.518v.21c.09-.157.113-.248.25-.253-.136.13.024.327-.135.507.182.524.478-.288.477.382.228-.496-.17-.385-.08-.475-.023-.198.18-.368.253-.282.083.044.008.746.222.816-.02-.01-.03.03-.05.02.051.168.192-.128.245.133.12-.306.123.067.223-.343l-.215.022c.132-.066.335-.515.47-.207a.721.721 0 0 1-.158.214c.029.143.12-.04.149.107-.1.408-.256-.003-.438.27.021.198.285-.216.134.212.202-.54.193.154.426-.227l-.06.245c.03-.03.102-.129.142-.106l-.142.293c.173-.23.173.33.315.223-.234-.084.01-.32-.05-.54.357-.219.03.714.374.724-.05.017-.131-.215-.039-.303a.75.75 0 0 1 .12.35c.223.036.022-.269.145-.384.008.332.13-.08.245-.139l-.054.253c.207.261.179-.5.355-.214l-.169.312.134-.044-.087.277c.17-.162.197-.092.3.04.011-.188.117-.449.226-.411.04.18-.094.221.065.25-.07.143-.15.324-.165.065-.025.079-.069.143-.094.221.04.205.189.123.244.144a.133.133 0 0 1-.046-.083l.298-.255c.013.109-.032.173-.076.236.051-.009.108-.11.178-.104-.063.196-.107.409-.22.466l.26-.138c-.007.095.05.29.007.353.087.17.373-.27.49-.045a.148.148 0 0 1 .08-.08c.067.054.118.158.181.223.016.016.033.03.05.04.006.005.013.005.021 0a.388.388 0 0 0 .073-.102s-.02.092-.047.181c-.025.09-.056.177-.056.177.026-.035.068-.142.107-.26.04-.116.077-.242.156-.282.123-.072-.114.293-.144.391.052-.077.14-.192.21-.248.067-.057.118-.055.049.078-.062.047-.041-.003-.074.012" mask="url(#f)"/>
        </g>
        <path fill="#202020" d="M65 7l1 .023A17.895 17.895 0 0 0 65 7M61.05 7.01c-.002-.006-.007-.005-.01-.01a.53.53 0 0 0-.04.079l.05-.07zM61 8a.532.532 0 0 1 .22.196c-.028-.115-.091-.2-.22-.196M59.054 12.28l.21-.191c-.111.057-.183-.033-.264-.089.036.107.129.25.054.28M57.093 11c-.02.068-.075.028-.093.096l.072.213c.148-.058.204-.263.02-.309M58.398 12.234c-.133-.384-.248-.207-.398-.085.01-.005.019-.01.03-.01.108.56.238.327.367.095"/>
        <path fill="#202020" d="M58.156 12a.249.249 0 0 1-.156.056c.044.224.078.027.156-.056M60.034 12.066c-.11-.067.093.45.001.322.053.458.368-.664-.001-.322M58 11l.201.463-.017-.415zM59.338 11.055L59.026 11a.193.193 0 0 1-.026.184c.173-.031.386.01.338-.13"/>
        <path fill="#202020" d="M59.197 11c-.09.017-.171.052-.197.144a.438.438 0 0 0 .197-.144M58 11l.11.077.203-.021zM60.04 10.42l.258-.224c-.018-.173-.128-.25-.22-.153-.038.136-.13.232-.039.377"/>
        <path fill="#202020" d="M60 10.227c.11.063.147.152.237.273l-.163-.5-.074.227zM60.156 9.484c-.018-.174.295-.6-.072-.454.017.173-.242.397.072.454M61.074 9L61 9.03l.294.97zM62.054 7.02c-.234-.122.388.378.107.222.118.155.234.126.339.258-.086-.175.034-.098-.446-.48M62 8c.018.037.042.08.077.139A.46.46 0 0 0 62 8"/>
        <g transform="translate(53)">
            <mask id="h" fill="#fff">
                <use xlink:href="#g"/>
            </mask>
            <path fill="#202020" d="M.435.261L.243.004l.082.367z" mask="url(#h)"/>
        </g>
        <path fill="#202020" d="M53.183.5l.075-.5L53 .422c.059-.014.172-.04.183.078M62 7.145l.226-.056c.24-.064.25-.072.274-.089l-.5.145zM62.004 7.374L62 7.387 62.5 7zM61.001 7.278c-.013.022.072-.089.062-.065-.065.09.355-.568-.062.065"/>
    </g>
</svg>
