<svg xmlns="http://www.w3.org/2000/svg" width="25" height="26" viewBox="0 0 25 26">
    <g fill="#FFF" fill-rule="evenodd">
        <path d="M7.637 15.663h7.294v-.803H7.637zM7.637 13.88h7.294v-.803H7.637zM7.637 12.097h7.294v-.803H7.637zM7.637 17.549h7.294v-.804H7.637z"/>
        <path d="M18.749 15.815v1.518a1.52 1.52 0 0 1-1.081 1.454V8.077a2.386 2.386 0 0 0-2.383-2.383H7.612a1.52 1.52 0 0 1 1.455-1.08h8.164c.838 0 1.518.68 1.518 1.518v9.683zm-1.946 1.945v1.518c0 .84-.68 1.52-1.518 1.52H7.121c-.839 0-1.519-.68-1.519-1.52v-11.2c0-.84.68-1.52 1.52-1.52h8.163c.839 0 1.518.68 1.518 1.52v9.682zM12.5.097C5.597.097 0 5.693 0 12.597c0 6.903 5.597 12.5 12.5 12.5S25 19.5 25 12.597c0-6.904-5.597-12.5-12.5-12.5z"/>
        <path d="M7.637 10.315h7.294V9.51H7.637z"/>
    </g>
</svg>
