<svg xmlns="http://www.w3.org/2000/svg" width="29" height="24" viewBox="0 0 29 24">
    <path fill="#4A4A4A" fill-rule="evenodd" d="M14.5 24c-2.16 0-4.147-.223-4.147-.223C5.305 23.193 0 21.212 0 12.363 0 9.842.885 7.78 2.338 6.166c-.232-.584-1.013-2.932.223-6.113 0 0 1.909-.62 6.251 2.369 1.813-.512 3.758-.768 5.69-.777 1.93.009 3.875.265 5.691.777 4.34-2.99 6.244-2.369 6.244-2.369 1.24 3.18.46 5.529.227 6.113C28.119 7.78 29 9.842 29 12.363c0 8.87-5.314 10.825-10.378 11.396 0 0-1.962.241-4.122.241z"/>
</svg>
