<svg xmlns="http://www.w3.org/2000/svg" xmlns:xlink="http://www.w3.org/1999/xlink" width="20" height="15" viewBox="0 0 20 15">
    <defs>
        <path id="a" d="M0 .039h19.981V15H0z"/>
    </defs>
    <g fill="none" fill-rule="evenodd">
        <g>
            <mask id="b" fill="#fff">
                <use xlink:href="#a"/>
            </mask>
            <path fill="#FFF" d="M18.87 12.596c0 .72-.596 1.306-1.328 1.306H2.443a1.318 1.318 0 0 1-1.327-1.306V2.446c0-.72.596-1.305 1.327-1.305h15.095c.732 0 1.327.586 1.327 1.306v10.15h.004zM17.541.04H2.443C1.096.039 0 1.117 0 2.443v10.153C0 13.922 1.096 15 2.443 15h15.095c1.348 0 2.443-1.078 2.443-2.404V2.446C19.985 1.122 18.89.04 17.542.04z" mask="url(#b)"/>
        </g>
        <path fill="#FFF" d="M12.044 7.369l4.767-4.39a.572.572 0 0 0 .04-.79.537.537 0 0 0-.77-.042L9.507 8.205 8.225 7.029c-.004-.004-.008-.008-.008-.012a.835.835 0 0 0-.09-.08L2.91 2.144a.534.534 0 0 0-.77.045.569.569 0 0 0 .044.791l4.824 4.427-4.803 4.617a.572.572 0 0 0-.025.79.538.538 0 0 0 .77.029L7.826 8.16l1.323 1.214a.536.536 0 0 0 .726-.004l1.36-1.251 4.847 4.729a.533.533 0 0 0 .77-.021.572.572 0 0 0-.02-.79l-4.787-4.667z"/>
    </g>
</svg>
