<svg xmlns="http://www.w3.org/2000/svg" xmlns:xlink="http://www.w3.org/1999/xlink" width="129" height="145" viewBox="0 0 129 145">
    <defs>
        <path id="a" d="M.623.114h.933V.5H.623z"/>
        <path id="c" d="M0 .279h30.651v31.282H0z"/>
    </defs>
    <g fill="none" fill-rule="evenodd">
        <g transform="rotate(6 -1309.558 1282.936)">
            <mask id="b" fill="#fff">
                <use xlink:href="#a"/>
            </mask>
            <path fill="#FFF" d="M.653.427c.156.246.75-.207.903-.242C1.047-.09.488.533.653.427" mask="url(#b)"/>
        </g>
        <path fill="#FFF" d="M124.925 141.156l.3-.153-.966-.386zM122.716 137.438c-.685.823.886 1.112.94 1.882l-.141.213.874-.146c-.558-.65-1.605-1.303-1.673-1.949M123.44 134.498c-.55.666-1.063-.44.297 1.011.026-.132.056-.184.082-.269a4.337 4.337 0 0 1-.38-.742M122.868 134.718c.5.715.304-.85 0 0M122.038 133.056l.815.375c.192-.286-.1-.868.233-.78-.637-.5-.827-.212-1.048.405M121.01 133.265l.58.343c.122-.196.102-.368-.58-.343"/>
        <path fill="#FFF" d="M121.945 133.936l-.763-.681c-.146.327-.537.724.313.349-.393.262.03.134.45.332M122.457 134.395c-.032.415.073.868-.618.55.787.907 1.407.357.618-.55M121.479 138.375l-.071.814.967.224c-.48-.113-.379-1.329-.896-1.038M121.327 130.254c-.367.083-.696.503-1.08.697l.794.278c.015-.294-.177-.772.286-.975M120.277 130.677l-.94-.632c.341.996.649.966.94.632M120.079 133.445l.834.747-.894-1.06zM118.914 128.107l.628-.007-.99-.149zM118.203 125.903c.385-.01.341-.64.623-.556-.216-.296-.607-.394-.955-.484.26.179.378.49.332 1.04M116.877 124.758c.244.18.592.279.964.391a1.707 1.707 0 0 0-.964-.39"/>
        <path fill="#FFF" d="M118.735 128.976c.174-.138.667-.46.526-.95l-.786.664.26.286M118.923 129.939l.025-.036-.5-.957.475.993"/>
        <path fill="#FFF" d="M118.56 129.061l-.061-.11c-.083.108-.103.153.061.11M119.104 132.267c-.388-.168-.933-.853-1.074.657.41-.048.49-.91 1.074-.657M118.343 129.94l.262 1.033c.178-.164.372-.542.682-.448l-.944-.585z"/>
        <path fill="#FFF" d="M118.324 130.126l.69.348-.168-.481zM117.614 126.377c-.406-.1-.603-.35-.842-.624.104.381.264.745.477 1.056.205-.058.614-.102.365-.432M117.706 127.92c-.047-.019-.085-.055-.13-.072-.052.126-.047.198.13.072M115.21 122.572l-.138.22.203-.095-.065-.125zM116.71 127.002c.066.622.433.744.851.809a4.89 4.89 0 0 1-.734-1.047c-.152.06-.24.117-.116.238M116.886 124.769a3.907 3.907 0 0 0-.042.991c.178-.372.379-1.054.042-.991M117.644 127.023c.032.014.066.024.094.044.133-.305.033-.216-.094-.044"/>
        <path fill="#FFF" d="M118.539 128.08c-.287-.154-.647-.185-.981-.234.248.244.51.448.794.588.037-.109.112-.245.187-.355M110.256 123.354c.51-.213 1.357.088 1.184.813.702.266 2.07-.845 2.66-1.697-.22.094-.415.194-1.052-.125-.14.299.161 1.35-.572 1.182-.712-.488-.209-.592-.18-1.023-.41.564-1.465-.333-2.248.258l.717.379c-.13.08-.496-.001-.51.213M115.697 123.503l.233.15c-.096-.239-.017-.47.152-.903-.54-.19-.795-.172-.992-.121l.744.903-.137-.03zM116.28 125.714c-.638.173-1.194-.253-1.567.493.44.683.726.194 1.198.46-.783-1.053.483.128.313-.903.219.164.362.347.492.523a4.315 4.315 0 0 1-.094-.757l-.018.049.004.005-.008.003c-.038.095-.07.139-.063.058-.008 0-.019-.013-.025-.017a.974.974 0 0 1-.229.084c-.079-.406.107-.145.229-.084.03-.015.06-.022.088-.04l.004-.01-.943-.947c.064.292.252.586.62 1.083M117.082 133.088c.055-.128.136-.173.212-.227-.222-.06-.347-.058-.212.227M117.096 132.243c.147.035.449-.025.576.265-.025.32-.305.152-.505.268.284.071.858.317.806-.327l-.144-.034c-.107-.55.265-1.513.41-1.48-.477.416-.8.734-1.143 1.308M116.483 128.505l-.81-.857-.199.885.271-.236c.196.681.48.294.738.208M114.488 123.115l.609-.555-1.016.098zM114.25 121.259l1.04-.544-.979-.248zM60.853 61.726l-.673-.24c.278.15.49.217.673.24M61.955 64.046l.51-.31c-.38.06-.616.155-.51.31M94.855 92.279c.22-.521.752-1.196 0-.906l-.649.342c.457.174.613.369.649.564M76.89 75.308l-.112.46 1.041-.341-.929-.12M74.901 77.11l-.167-1.023c-.04.273.006.607.167 1.023M51.96 53.583l-1.056.488c.569.753.67-.07 1.057-.488M106.112 109.501a1.62 1.62 0 0 0-.553-1.015c-.027.569-.466 1.136.553 1.015M67.49 58.263c-.436-.13-.744-.075-.952.128.434.148.772.149.953-.128M105.622 107.487c-.02.107-.003.192-.01.293.347.213.67.441.898.806.038-.504-.082-.995-.888-1.099M17.996 24.118c-.013-.087-.055-.162-.054-.254-.132.12-.068.187.054.254M12.279 10.197c.241.12.543.41.838.674-.077-.2-.314-.418-.838-.674M111.746 116.175c.393.458.171.003 0 0M110.084 119.018c-.191-.03-.402-.01-.663.139.29-.127.503-.163.663-.139M100.725 107.016a1.055 1.055 0 0 1-.025-.046c-.114.289-.089.236.025.046"/>
        <path fill="#FFF" d="M111.831 117.027a2.909 2.909 0 0 0-.085-.852c-.019.159 0 .422.085.852"/>
        <path fill="#FFF" d="M111.746 116.175c.062.205.121.359.175.508.222-.053.302-.182-.175-.508M110.751 116.07c.202.277.323.578.408.888.012-.147.046-.226.1-.224a14.964 14.964 0 0 1-.508-.663M38.027 38.214c-.004-.055-.02-.105-.017-.175-.804.025-.55.13.017.175M84.305 90.254c.027.014.064.005.089.017l-.013-.099-.076.082zM83.375 89.534c.826-.201.88.142.924.63l1.219-1.883-2.143 1.253z"/>
        <path fill="#FFF" d="M38.464 31.862l.029.271c-.475-.125-.258-.19-.029-.27m70.617 82.383c.139.032.22-.029.283-.12-.192.04-.325-.144-.421-.39-.121.163-.161.344.138.51m-.28-1.021a.178.178 0 0 0-.042 0c-.025-.563-.027-.357.042 0M77.113 77.45c-.287.026-.354-.24-.32-.63.175.12.302.315.32.63M64.777 65.712c-.257-.06-.894-.068-.68-.47.783-.37.614.037.68.47m-7.83-7.888l.074.934c-1.305.018-1.494-.667-1.626.393 1.554-1.323 2.082 1.903 3.655.61l.014.653c-.08-.118-.183-.054-.263-.17-.078 1.365 1.567-.467 2.185.642.174.423.157.844-.22.79l1.018.37c.158.234-.15.42-.308.189l1.104.972-.052.033c.377-.06 1.059-.039 1.369-.007.03.472-.285.006-.41.246l.906.274c-.174.598-1.002.44-1.318-.026-1.011 1.922.829.158 1.028 2.164l-.7-.396c-.536 1.136.173 1.299.206 2.418.147-.4.21-2.491 1.172-2.176.05.286.213.577.835.658-.541.485-.096.708.314 1.114l-.746.607c.618.284.952-.076 1.518-.085.387.585-.078 1.184-.442 1.72.616.935.392-1.364 1.396-.493.33.94 1.059 1.165 2.216 1.63.168.71-.519.298-.577.654l.953-.063c.077.12-.13.238-.236.297.54.175.755-.595 1.447-.183.94-.528-.164 2.19 1.363 2.131-.058.353-.523.294-.762.587 1.442.476 1.147.48 2.643.618l.091 1.1c.132-.972 1.33-.862 2.349-.728.118-.404.224-.755.25-.953l1.161.597c-.03.212-.362.328-.798.43.114.013.224.023.319.024-.003.555-.574.733-1.184.838.055-.232.119-.471.185-.707-.639.142-1.312.341-1.708.746a.775.775 0 0 1 .449.135c-.171.042-.312.094-.363.182-.053.095.19.056.503.05l-.656.887.37-.22.464 1.622c1.528.187 3.372-.049 4.827 1.065-.89.144-1.064.722-1.81 1.28.472-.988-1.18-.807-1.592-1.644.216.438-.196.633-.39.634l1.715.713c-.62.445-.231.625-.213 1.152.98-1.183 1.548.326 2.31.573-.373.343-.877.535-1.274-.18-.349 1.402 2.096-.173 1.873 1.113-.13-.15-.134-.281-.385-.185.637.09 1.046 1.203.536 1.26l-.129-.15c.33.574.937 1.365 1.604 1.937.664.574 1.376.939 1.948.633-.125.11-1.334.786-1.588.878l4.847-.685c-1.004.488-2.629 2.678-3.776 2.177.06.343.144.76.848 1.057 0-.263.958-1.368 1.214-1.194-.504 1.367-.193.835-.444 2.24-.004-.393 1.6-1.13 1.852-.684-.253.087-1.345 1.034-1.597.99l2.099.028c-.43-.077-1.19.796-1.414 1.304.193-.3.61.898.94 1.072l.008-.661c.62 1.3 2.748-.246 3.503.956-.384.063-1.995.902-1.75 1.606.9-.24 4.237-1.213 5.503-.558l-.267.482 1.013.47c-1.413.247-4.615.44-6.004.309-.017.66-.392.457.099 1.083-.22.497-.822.05-.978-.126l.81 1.687c.78-.647 1.637.58 2.288.042l-2.007-1.05c.778-.647 3.011-.688 3.62.496-.14.504-1.62.819-1.88 1.034.382-.059 1.257.644 1.124.883l-.763-.15c.104.814 1.783.22 1.49 1.486.118.287-.566 1.482-.043 1.189.675-1.058 3.56-3.15 4.462-3.363-.004.134-.011 1.952-.289 2.558-.467.922-2.202.584-2.605 1.373.238-.14.675-.101.83-.067-.017.396-.782.37-.291.873.912-.476.717 1.216.9-.212.622.399.228.715.711 1.35.407-.58 2.27-.66 2.896-.255-.239.111-.435.426-.523.574.7 1.21.715 2.097 1.423 3.186-.141.237-.048.925-.563.944.254.056.638.01.878.331-.315 1.133-.604-.671-1.17.406.525-.284 1.255.415 1.879.69.673-.65-.577-1.2-1.2-1.473 1.057-.698 2.713-.593 3.953.228.859.735-.428.84-.175.898.932 1.818 2.8.255 2.947 2.173-.317 1-1.334.892-1.744 1.333-.732-.577-.298-1.417-.647-1.902l.075.826c-.377-.09-.864-.476-.84-.872-.307.866 1.73 2.965 2.01 4.644.377.09.873.343 1.024-.023l-.362-.357c.303-.734 1.262.303 1.18-.39.745.316 1.755.56 1.95 1.548l-.683.64c.217-.16.132-.81-.246-.881.554.112-.276 1.874.967 1.595l.189-.896c.75.318 2.012.5 2.208 1.36.57-.804-.19-.106.397-1.174-.847 1.139-1.082-1.836-1.82-.396.716-1.171-.125-1.164.337-2.398-.243.184-.34.549-.59-.121a1.3 1.3 0 0 1-.308.014c-.005-.022-.005-.032-.007-.052l-.01.052c-.054-.002-.064.001-.002.018-.023.212-.085.412-.198.548-.775.081-1.355-.866-1.862-.988-.1-.427.388-.042.539-.407l-.757-.182c.538-.409.35-1.532 1.209-.921l-.449-.758c.039-.64-.22-1.324-.694-1.54-.102-.43-1.193-.48-.554-.461l-1.103-.932.134-.102c-.677-1.188-2.473-1.733-2.31-3.705-.394-.29-.828-.572-1.09-1.319l.404-.447c-.487-.384-.496-1.8-1.144-1.672.948-1.401-1.32-2.569-1.67-3.585l-.652.395c-.366-.615-.926-1.063-1.677-1.623l-.524.425c-.892-.314-.728-1.883-1.476-2.837.258-.08.378.21.374.478.42-2.057-2.643-1.87-2.492-3.577-.39-.123-.46-.364-.458-.647a.14.14 0 0 0 .077.044.649.649 0 0 0-.07-.113c.009-.185.032-.384.025-.577-.053.206-.086.39-.07.52a3.046 3.046 0 0 0-.806-.665l.494-.55c-.025-.02-.038-.04-.067-.059.002-.454-.451-.04-.779.436a1.884 1.884 0 0 0-.643-.148c.773-.924-.891-.566-.12-1.626-.64.151-1.468-1.263-2.62-.666.127-.109.126-.244.255-.089-.131-.42-.263-.84-.776-.926l.634-.687-1.537.005c.12-.777.244-1.156 1.14-1.137-1.667-.414-.973-.62-2.508-.877l.507-.313c-.26-.31-1.278-.347-1.033-.836.34-1.394-2.584-3.637-3.205-6.098-1.092 1.438-.06-1.33-1.18-.559.24-.362.22-.762.736-.691-1.056-.673-.6-1.806-2.002-1.727.238-.368.63-.183.746-.433-.13-.017-.515-.067-.4-.32.116-.25.378-.082.636-.049-.819-.902-1.892-.183-2.872.504.05-.83-.207-1.016-1.095-.856.167-.413.256-.948.843-.459-.224-.36-1.202-2.356-1.966-1.774.104-.258-.32-.5-.48-.512-.568-.757-.556-.876-1.228-1.524l.048.297c-1.12.47-.697-.42-1.288-.899l.103-.06c-.481-1.848-.775-.309-1.165-2.208l-.484.541c-1.273.896-.296-1.725-1.39-2.077l-.077.538c-.75-.053.597-2.517.385-3.054.023-.178.284-.003.466.056-.248-1.67-.826.483-1.689-.157.252-.483 1.136-.672.733-1.264.071-.538-2.604-.433-2.52-1.803-.15.42-.3.839-.845.672-.6-.466-.254-2.495-1.625-2.165a.488.488 0 0 1 .137-.306c-.62-.209-1.64-1.018-2.367-.821 1.497-2.075-3.32-1.793-1.632-3.346l-1.31-1.213.2-.128c-.676-.932-1.366-.82-2.035-.72-.073-.296.215-.311.315-.38-.84-1.5-1.03-1.558-2.812-1.72l.417-.632c-.57.052-.917-2.5-2.691-2.999a.53.53 0 0 1 .358-.12c-1.92-.608-1.821-4.493-4.137-2.948l-1.342-.303c1.014 1.188-.96.72-.786 1.478-.558-.284-.625-1.652.025-1.26l-.003.18c1.148-.868-1.102-1.654-.432-2.346-2.332-1.97-4.073-4.504-6.213-6.398l-.461 1.05-.717-.693c-.033-.364.289-.883.8-.387.118-.717-1.244-.375-1.413-.205-.776-1.232 1.241-.629.932-.922l-.495-.31.017.182c-.648.04-.987.378-1.604-.211-.27-.516.224-.697.089-.865.052-.06.02-.133-.228-.235l-.899-.877-.174.986c-.7-.03-.871-.792-1.06.332.324-1.706-3.226-3.405-3.323-4.099-.999-.01-1.578-.51-2.255-1.176.064.29-.453 1.127-1.004.512 1.522-1.35-.589-1.628-.158-3.161-.168 1.114-1.923-1.31-2.096.326-.415-.563.454-.602.365-1.296-1.746-.445-2.387-2.69-4.072-3.785-.197.181-.205.703-.788.723l.066-1.686c-.38-.16-1.271.913-1.211-.251-.07.234-.175.586-.43.476-.524-.885-1.204-1.605-1.952-2.257-.74-.66-1.543-1.256-2.328-1.878-1.58-1.232-3.015-2.642-3.632-4.852.039.734-.258.53-.566.263.106.273-.453.468-.663.764l-.496-1.867c-.907.503-1.315-1.183-2.105-.626l.497.243c-1.29.311-1.04 2.461-2.114 3.425 1.456-.373.192 2.839 2.413 2.397.009.41-.498.17-.614.518.666-.223 1.044-.046 1.398.66l-.166.056c1.62 1.314 1.874 2.352 3.347 4.217l.345-.645c.31.406.24.643.296.933 1.147-.42-1.008-.988.176-1.523-.476 1.534 2.624 2.36 1.88 3.887.576.515.372-.769.946-.254l-.138.47.523-.304c.318.403.146.992-.086 1.288-.064-.114-.333-.15-.453-.212.15.832 1.516 1.077 1.575 1.35l-.383-.688c1.868 1.05 3.438 3.167 5.574 3.773l.098-.355c1.582.52.708 1.082 2.192 1.95l-.098.022c.474-.04.93.122 1.261.449-.58.027.127 1.1-.583 1.075 1.711.561.971.129 2.618-.12l-.162.592c.613-.146.807-.33 1.547.102-.838-.078-.13.995-1.131.983.578 2.069 2.807.744 2.288 2.63 1.614-.66-.627-1.639-.065-1.6.03-.63 1.254-.452 1.582.023.41.39-.531 2.13.574 3.02-.103-.097-.185-.013-.288-.11.153.643 1.14.264 1.227 1.171.881-.477.614.585 1.46-.253l-1.175-.63c.767.237 2.196-.377 2.686.928-.227.12-.707.127-1.01.1.044.497.671.267.719.78-.852.838-1.368-.83-2.561-.646-.03.627 1.696.309.562 1.034 1.493-.879.927 1.062 2.469.732l-.51.5c.187.013.645-.038.846.157l-.985.373c1.103-.094.691 1.492 1.528 1.654-1.188-1.001.298-.88.137-1.703 2.078.535-.382 2.134 1.46 3.279-.286-.114-.543-1.037.017-.988.212.379.44.938.381 1.384 1.17.82.32-.694 1.065-.628-.206.97.759.194 1.408.402l-.476.546c.898 1.424 1.323-.843 2.039.55l-1.13.337.74.312-.666.51c1.022.094 1.113.382 1.557 1.093.204-.504.96-.9 1.504-.431.069.649-.666.323.15.935-.475.177-1.042.427-.917-.363-.192.144-.471.182-.663.324.052.72.89.974 1.165 1.217-.086-.115-.183-.258-.177-.392l1.761.259c-.015.356-.299.39-.579.425.273.143.651.04 1.015.29-.485.353-.881.815-1.523.6l.735.234.732.238c-.108.25.03 1.005-.249 1.037.313.78 2.151.481 2.572 1.519.118-.045.271-.05.487.041.597.767.67 1.883 2.046 2.118l-.299 1.195c.797.462.334-1.55 1.665-.776.983.513-.37.906-.326 1.373.735.006 2.145-.075 2.18 1.215-.364-.096-.42-.384-.681-.547"/>
        <path fill="#FFF" d="M75.566 77.872c.11-.25.297-.446.489-.641-.295.023-.515.2-.489.641M52.21 53.665c-.007-.025-.026-.036-.035-.06a.989.989 0 0 0-.231.142l.267-.082zM95.984 105.469c-.06-.422.025-.73.165-.988-.303.162-.444.459-.165.988M113.458 119.017l-.927-.748c.366.41.237.704.214 1.028.244-.168.497-.556.713-.28M112.788 125.933c.233.064.21.326.442.387l.508-.403c-.424-.654-1.126-.836-.95.016M111.555 120.177c-.57.41-.113.672.281 1.035-.019-.024-.04-.046-.05-.076.923-.376.345-.669-.231-.959M112.218 121.252c.195.207.372.431.468.693.634-.273-.059-.363-.468-.693M110.044 115.85c-.044.529.769-.683.6-.2.813-.508-1.508-1.236-.6.2M110.346 122.061l.877-.913-1.025.19zM108.444 118.885l.369 1.004c.163-.104.347-.049.527.044-.368-.544-.607-1.228-.896-1.048M109.443 118.95c.226.404.492.758.838.844-.148-.203-.481-.631-.838-.844M109.692 121.992l.023-.38-.48-.673zM104.127 112.133l-.702-.855c-.312.133-.342.567-.058.864.299.085.58.384.76-.009M104.477 115.411c.029-.419.212-.585.412-.962l-1.089.79.677.172zM102.908 113.4c-.292.174-1.318-.97-.74.564.29-.17.912.847.74-.564M97.103 102.425l.092.155.992-.902zM87.713 96.095c.17.941.714-.383.785.543.333-.041-.059-.757.244-.765-.497-.215-.486-.571-1.029.222M89.758 95.77c.203.075.433.143.71.194-.343-.153-.551-.192-.71-.195M12.064 8.127l-.426-1.013-.145.99zM9.9 7.936l.703-.931-1.052.445c.152.074.448.218.35.486M64.42 68.97l.404-.158c.24-.325.076-.492-.249-.832l-.154.99zM60.089 62.351l.166.148.884-.913zM54.482 58.3c.229.27.716.393.934.674-.702-.404.059-1.682-.934-.674M38.734 17.11c.169.135.138-.032.168-.035-.288-.201-.17.08-.168.036M37.144 16.946l.087-.104-.262.056-.264.068.44-.02zM35.729 16.684c-.017.892.531.282.729.76l.012.186.21-.432c-.307-.219-.78-.12-.951-.514M35.032 14.6c-.012.416-.39.109.297.327-.02-.06-.024-.088-.035-.128a1.552 1.552 0 0 1-.262-.2M34.957 14.746c.284.16-.101-.416 0 0M33.98 15.266l.464-.112c-.015-.271-.323-.545-.156-.63-.423-.07-.416.228-.307.742"/>
        <path fill="#FFF" d="M33.932 14.653l.235-.041c-.006-.117-.047-.185-.235.04"/>
        <path fill="#FFF" d="M34.432 14.537l-.496.072c.009.196-.076.523.22-.004-.116.278.045.037.276-.068M34.948 14.591c.15.333.39.608-.082.733.761.251.826-.435.082-.733M35.72 16.764l.235.341.329-.17c-.164.086-.514-.43-.563-.171M33.088 13.39c-.093.218-.062.686-.122.993l.354-.112c-.096-.231-.317-.527-.232-.881M33.465 14.435l-.537.203c.355.249.482.083.537-.203M33.931 16.02l.457-.226.451-.209-.52.18-.526.205.138.05zM32.258 13.832l.412-.486-.686.701zM32.831 13.363c.319-.321.02-.81.291-.97-.301-.076-.668.156-1.004.378.296-.07.52.104.713.592M31.124 12.666c.156-.074.348-.25.553-.43-.16.057-.334.172-.553.43"/>
        <path fill="#FFF" d="M33.16 14.334c.014-.178.075-.632-.101-.947l-.059.846.16.1M32.299 14.534v-.027l-.339-.23.339.257M32.994 14.407l-.04-.026c-.006.083-.003.112.04.026M33.512 15.446c-.344.18-.987.32-.623.94.303-.292.098-.653.623-.94M32.92 14.71l.4.382c.046-.194.046-.512.224-.649l-.624.267zM32.925 14.666l.288-.13-.148-.143zM31.816 13.256c-.296.256-.513.178-.766.112.202.3.436.522.685.647.113-.24.357-.64.08-.759M32.117 13.288c-.018.011-.037.01-.055.022.006.082.02.113.055-.022M30.075 13.073l-.014.187.057-.155-.043-.032z"/>
        <path fill="#FFF" d="M32.095 13.46c.143.255.317.112.498-.077a1.058 1.058 0 0 1-.495-.097c-.05.11-.076.184-.003.175M31.065 13.228c.041.238.105.452.18.654-.014-.322-.077-.86-.18-.654"/>
        <path fill="#FFF" d="M32.05 13.423c.013-.006.026-.016.039-.02-.011-.202-.028-.116-.038.02M32.419 13.32c-.132.061-.266.216-.396.354a.893.893 0 0 0 .394-.1 1.679 1.679 0 0 1 .002-.254M28.953 15.972c.138-.458.461-.785.52-.235.272-.265.528-1.743.598-2.664-.057.192-.103.369-.352.536-.005.287.248.784-.011 1.109-.304.117-.158-.252-.21-.55-.05.61-.532.688-.708 1.568l.3-.217c-.031.132-.167.312-.137.453M30.867 13.157l.206-.004c-.165-.175-.222-.454-.307-1.013-.404.162-.552.355-.65.54l.845.415-.094.062zM31.668 13.44c-.264.284-.666.333-.64.736.42.081.42-.193.73-.263-.688-.104.271-.12-.104-.436.154-.016.274.003.388.022a1.46 1.46 0 0 1-.258-.246l.005.024h.003l-.002.005c.007.048.003.075-.016.043-.003.003-.012.002-.017.002a.67.67 0 0 1-.088.11c-.152-.121.012-.09.088-.11l.033-.045v-.005l-.728-.02c.112.087.287.128.606.183M32.798 16.551c-.011-.07.005-.121.018-.173-.085.068-.124.122-.018.173M32.902 16.235c.09-.03.21-.141.41-.065.139.13-.078.145-.122.247.175-.056.57-.12.241-.355l-.086.028c-.315-.18-.569-.682-.481-.713-.048.31-.062.534.038.858M31.695 15.255l-.853.096.168.837.106-.422c.373.32.433-.219.58-.511"/>
        <path fill="#FFF" d="M30.51 12.888l.377-.735-.812.92z"/>
        <path fill="#FFF" d="M30.231 12.98l.31-.863-.407.403zM9.086 11.873l.416.502c-.186-.225-.31-.376-.416-.502"/>
        <path fill="#FFF" d="M9.792 12.71l-.706-.837c.4.482.688.824.706.836M18.16 6.793c.046-.558.261-1.388-.142-.794l-.333.592c.3-.053.423.047.475.202M8.725 7.42l.313.426-.256-.6-.168-.45c.026.183.03.34.111.625M10.908 12.064l-.723-1.081c.233.369.475.731.723 1.081M10.866 14.07l.928.738c-.025-.06-.477-.39-.928-.737M24.85 10.23c-.116-.435-.263-.657-.428-.767.095.62.027 1.456.428.766M.082 1.877c.21.325.519.7.89 1.099a7.53 7.53 0 0 0-.89-1.1"/>
        <path fill="#FFF" d="M24.378 9.878c.003.143.027.225.038.348.264-.116.514-.19.72-.004-.053-.62-.205-1.062-.758-.344M14.493 27.524c-.01.028-.01.06-.023.087.046-.007.04-.041.023-.087M14.112 32.866c-.045-.087-.101-.234-.155-.371.013.07.057.184.155.371M28.29 10.921c.217.031.07-.101 0 0M28.176 13.88c-.081.098-.163.237-.246.476.098-.245.178-.393.246-.477M22.03 13.243l-.015-.011c-.027.263-.02.213.016.011"/>
        <path fill="#FFF" d="M28.44 11.317a1.52 1.52 0 0 0-.145-.442 1.6 1.6 0 0 0 .145.442"/>
        <path fill="#FFF" d="M28.29 10.923c.051.082.095.135.135.19.083-.163.097-.287-.135-.19"/>
        <path fill="#FFF" d="M28.295 10.875c.117.039.204.14.278.269-.014-.093-.01-.16.012-.191-.062-.014-.15-.03-.29-.078M11.369 19.151c-.014.021-.02.041-.038.066.307.12.239.042.038-.066M13.053 12.397l.033-.05-.001-.054-.032.104zM13.064 12.29c.43-.622.506-.508.534-.34l.348-.769.322-.775s-.336.463-.635.934c-.303.471-.569.95-.569.95"/>
        <g transform="rotate(6 1.216 2.716)">
            <mask id="d" fill="#fff">
                <use xlink:href="#c"/>
            </mask>
            <path fill="#FFF" d="M11.425 19.473l.04-.1c.167.1.067.098-.04.1m16.672-10.87a.463.463 0 0 0 .077-.259c-.06.15-.142.136-.222.061-.012.175.008.303.145.197m-.29-.393l-.016.029c-.112-.307-.075-.188.016-.03m-16.917.25c.097.276-.03.113-.278-.249.018-.054.101 0 .278.25M9.698 9.97c.244.255.952.97.346.383-1.218-1.205-.67-.684-.346-.383m1.544 2.01l.656.473c1.106.902.673.552 1.63 1.283-1.468-1.12-1.123-.897-1.32-1.081l-1.506-1.29.482.38c-.015-.005.13.12.115.113.561.454.113.07-.461-.438-.57-.503-1.267-1.131-1.148-1.074.154.103.512.409.845.724l-.732-.72c.027.005.5.445.47.432l-.337-.397.082.077a98.995 98.995 0 0 1-1.496-1.476c.365.32.32.32.66.635l-.78-.805c.716.669 1.504 1.472 1.441 1.44 1.377 1.288 1.203 1.125.853.774-.342-.338-.872-.881-.065-.123l.418.438 1.258 1.212.82.805-1.631-1.613c-.68-.667-1.37-1.333-1.781-1.763.203.188.294.267-.365-.42.546.548.743.74.791.782.032.026-.005-.011 0-.017 0-.012-.01-.034-.007-.043l1.434 1.472-1.656-1.788c.243.182 1.294 1.3 2.167 2.237.135.124-.276-.32-.756-.83-.478-.51-1.033-1.09-1.06-1.19.62.59.151.031-.328-.711.497.509.673.826 1.034 1.229l-.8-1.05c.045.035.303.361.435.527-.255-.388-1.086-1.345-1.204-1.648-.551-.724-.026-.152.452.385.486.54.902 1.038.434.27.297.38.526.776.888 1.277-.27-.491-.337-.659-.446-.875-.103-.214-.248-.478-.547-1.116l.355.44.337.434c-.692-.964-1.167-1.991-1.37-2.773-.172-.25-.283-.392-.402-.55a11.12 11.12 0 0 0-.277-.355l.088-.184.103-.182c.14.174.259.487.398.863a32.81 32.81 0 0 0-.039-.203c.087.101.163.21.231.323.068.112.127.227.205.39.144.302.274.623.404.94l-.53-.78c.294.692.686 1.48 1.102 2.192-.061-.134-.093-.242-.09-.295.09.192.178.365.252.487.079.13-.043-.127-.161-.416l.763 1.344-.264-.52.355.459.324.448c-.434-1.244-.879-3-.373-3.294.105.838.388 1.437.673 2.48-.211-.571-.27-.483-.28-.279-.015.203.029.523-.105.377.144.154.313.662.364.835 0 0-.038-.24-.05-.472-.016-.234-.006-.46-.006-.46.258.861.265.668.43 1.043-.523-1.707-.04-1.04.027-1.49.1.548.163 1.098-.014.916.216.648.153.176.137-.303-.026-.482-.006-.972.162-.425-.046-.003-.084-.094-.066.175.054-.443.373.024.325.458l-.04-.003c.27.269.888.3 1.164-.934l-.325 1.753s.266-1.023.672-2.008c.199-.496.426-.979.609-1.336l.316-.597c-.182.51-.358 1.407-.576 2.242-.215.832-.456 1.596-.64 1.858.015.086.03.179.07.21.019.015.045.014.082-.01.033-.026.081-.074.178-.141-.04-.18.299-1.556.404-1.629-.07 1.253.01.684.064 1.803-.047-.265.58-1.871.746-1.764-.103.239-.476 1.642-.595 1.791l.944-1.484c-.201.26-.434 1.383-.47 1.885.049-.339.387.164.557.041l-.08-.45c.443.424 1.19-2.17 1.677-1.945-.16.33-.767 2.087-.565 2.377.368-.82 1.715-3.996 2.347-4.55l-.053.518.501-.473c-.573 1.251-1.952 3.835-2.592 4.794.084.448-.112.6.194.64-.026.496-.358.656-.453.656l.602.504c.253-1.02.81-.868 1.017-1.722l-1.036.84c.255-1.016 1.232-2.75 1.66-2.443.012.438-.588 1.782-.672 2.123.16-.33.645-.547.623-.288l-.356.49c.17.45.809-1.233.874-.186.094.093-.01 1.383.17.789.12-1.197 1.045-4.783 1.395-5.617.015.089.278 1.26.257 1.859-.053.946-.839 2.078-.887 2.891.08-.274.271-.59.342-.688.057.263-.272.84.02.774.306-1.005.502.2.344-.832.327-.233.213.27.522.287.074-.674.83-2.158 1.147-2.378-.079.251-.107.597-.119.754.485.214.648.728 1.123.84-.013.247.15.577-.05.975.111-.16.254-.475.408-.468.088.887-.364.066-.386 1.112.155-.559.574-.704.867-1.006.138-.869-.446-.27-.745.043.292-1.202.957-2.37 1.569-2.772.453-.18-.01.8.096.654.686.386 1.079-1.823 1.487-.823.078.78-.31 1.418-.373 1.948-.383.2-.388-.568-.609-.597l.187.409c-.157.217-.414.35-.481.113.053.704 1.222.405 1.67 1.097.154-.21.381-.41.358-.7l-.201.054c-.044-.595.505-.68.335-.995.325-.328.716-.834.984-.435l-.097.767c.039-.22-.125-.505-.268-.301.209-.29.302 1.14.662.21l-.126-.578c.319-.308.77-.98 1.012-.645.014-.755-.085.059-.116-.85-.04 1.107-.73-.32-.678.897 0-1.072-.28-.542-.365-1.52-.046.256-.007.52-.222.304-.027.07-.073.154-.101.203-.006-.009-.008-.014-.013-.025l.008.035c-.02.035-.022.043.002.012.033.134.051.284.04.43-.247.538-.634.398-.836.668-.119-.17.127-.28.109-.582l-.3.402c.107-.584-.168-1.103.248-1.325l-.3-.136c-.104-.393-.317-.62-.527-.422-.112-.183-.516.54-.282.11l-.566.213.032-.155c-.449-.253-1.229.727-1.49-.602-.198.108-.413.255-.633-.018l.089-.582c-.253.128-.466-.775-.703-.21.174-1.616-.897-.661-1.186-1.045l-.214.757c-.236-.119-.53.027-.922.246l-.163.68c-.419.48-.562-.667-1.004-.713.1-.251.189-.155.222.023-.08-1.667-1.381.824-1.534-.4-.185.217-.245.114-.278-.073.011 0 .025-.01.039-.029a.086.086 0 0 0-.045-.02c-.018-.127-.033-.273-.058-.392.001.173.009.317.031.389-.093-.008-.252.044-.433.179l.15-.728c-.013.007-.02.003-.036.013-.053-.293-.202.312-.29.867-.1.1-.203.226-.3.385.23-1.173-.463.298-.248-.953-.265.57-.802.292-1.243 1.502.044-.162.027-.248.103-.24-.107-.178-.214-.351-.452-.04l.203-.89-.107.171c-.065.103-.144.242-.246.374-.193.266-.37.534-.37.534-.09-.596-.153-.936.298-1.543-.468.439-.604.506-.741.574-.131.068-.263.137-.588.59l.109-.565c-.202-.026-.563.67-.625.167-.157-.595-.697-.776-1.32-.944-.632-.171-1.315-.354-2.04-.992.34.875.16.655-.071.38-.232-.276-.539-.606-.34.047-.197-.416-.447-.681-.37-.986-.238.123-.51-.103-.745-.227-.23-.125-.413-.155-.359.353-.253-.428-.14-.562-.31-.822-.01.075-.032.303-.209.042-.176-.26-.069-.318-.047-.47-.636-.104-.05 1.146.523 2.324-.553-.64-.677-.605-.415.126-.308-.419-.716-.877-.451-.92-.22-.108-1.547-.923-.92.044-.22-.265-.302-.15-.271-.052-.442-.184-.546-.284-.875-.314l.23.195c.734 1.14-.114.165-.317.21l-.087-.118c-1.424-1.092.054.319-1.477-.895l.683.762c.66.796.323.51-.183.086-.502-.425-1.19-.99-1.103-.744l.538.476c.151.242-.498-.357-1.268-1.052C2.148 1.883 1.261 1.09 1.036.952.844.795.902.752.88.67.08.094.294.335.687.73c.414.413.868.895.975 1.09C1.09 1.285.318.42.09.337c-.262-.224.096.24.445.692.336.442.676.881-.053.278.574.505 1.097.97 1.493 1.429.087.15-.43-.269-.854-.556-.449-.289-.767-.432.225.543-.199-.155-.382-.31-.55-.46.426.53.618 1.008 1.964 2.225C1.536 3.47 1 3.083.844 3.034c-.078-.024-.058.037.02.15.067.074.017.07.039.116a.61.61 0 0 0 .057.136c1.24 1.255 2.392 2.35-.115.393L2.11 5.372l-.474-.364c.196.345.62.793 1.108 1.237.478.432 1.011.851 1.55 1.274-.16-.03-.587-.372-.797-.521-.033.24.05.463.4.826.347.359.988.892 2.01 1.683l-.95-.473c.185.136.238.234.252.342.01.1.006.246.002.376 0 .273.218.764.98 1.377-.092-.04-.25-.11-.412-.223.412.346.58.609.688.873.053.132.089.262.125.395l.056.202.03.176c.096.469.389.966 1.44 1.119l.404.272.384.247c-.139-.346.084-.32.34-.267.26.056.544.127.633.008.107.095.046.238-.057.346-.104.105-.256.167-.387.026l.058-.059c-.481.008-.435.225-.335.462.089.244.268.45.008.546.075.079.115.169.167.255l.127.232c.065.123.124.247.18.373.112.25.21.507.307.76.188.512.375 1.012.635 1.464l.411-.34.158.329c-.06.137-.299.291-.415.06-.192.248.446.263.547.222.07.532-.637.094-.57.236l.144.164.029-.068c.275.055.479-.029.613.253.01.216-.224.223-.202.299-.032.015-.033.045.049.109l.199.412.25-.326c.271.094.196.385.479.011-.44.56.624 1.601.543 1.852.368.141.49.395.631.714.02-.105.329-.307.424-.019-.724.217-.035.625-.38 1.052.202-.332.493.713.75.221.066.246-.226.12-.28.354.517.421.498 1.218.932 1.832.074-.02.122-.177.298-.082l-.152.494c.105.112.442-.048.344.286.036-.057.091-.143.157-.065.186.71.592 1.338.957 1.99.366.652.676 1.331.856 2.052-.022-.206.048-.092.119.044-.028-.096.09-.035.13-.072l.069.305.077.3c.168.054.31.588.438.606l-.103-.169c.223.19.12-.44.311-.476-.123-.107-.137-.309-.155-.534-.022-.224-.042-.474-.258-.644.007-.117.098.057.128-.016-.13-.078-.202-.206-.251-.48l.034.019c-.283-.708-.285-1.062-.484-1.91l-.123.121c-.045-.181-.011-.238-.003-.335-.299-.102.164.493-.145.415.215-.357-.462-1.215-.14-1.536-.093-.269-.165.163-.262-.104l.08-.118-.163-.006a.348.348 0 0 1 .155-.382c.004.048.068.11.092.153.053-.287-.27-.626-.255-.723l.02.29c-.375-.682-.54-1.648-1.084-2.224l-.082.1c-.408-.441-.058-.477-.387-1.017l.035.01a.587.587 0 0 1-.335-.358c.193.085.145-.398.372-.274-.46-.47-.29-.204-.891-.373l.16-.18c-.237-.043-.338-.008-.521-.267.279.152.229-.331.574-.176.202-.829-.85-.677-.286-1.285-.72.012-.104.683-.298.59-.132.22-.544-.015-.573-.23-.08-.194.622-.7.403-1.184.019.05.068.03.085.08.083-.262-.372-.25-.205-.604-.443.067-.103-.302-.618-.09l.315.386c-.239-.19-.935-.13-.85-.68.119-.02.312.035.426.082.094-.195-.208-.182-.111-.384.53-.221.36.48.855.565.156-.238-.583-.335.02-.47-.784.153-.115-.528-.805-.584l.323-.136c-.071-.028-.268-.06-.303-.16l.485-.033c-.466-.09.09-.677-.21-.839.238.537-.338.32-.473.667-.733-.435.68-.812.206-1.481.09.077-.036.481-.26.403.007-.176.053-.429.193-.608-.284-.458-.316.256-.616.155.17-.19.101-.23-.04-.238-.142-.014-.338.08-.447.042l.358-.156c.139-.323-.808.193-.663-.178 0 0 .157.004.31-.002.152-.004.299-.019.299-.019l-.101-.038-.105-.044.473-.065c-.396-.034-.342-.113-.252-.21-.298.03-.814-.006-.913-.16.227-.07.469.08.308-.097.325.083.702.132.31.165.154.016.304.044.453.053.284-.038.003-.12-.028-.168-.01.01-.027.024-.09.024 0 0-.189-.062-.391-.148-.202-.083-.416-.19-.416-.19.173.011.348.083.513.141-.077-.05-.334-.141-.418-.224.443.144.893.28 1.118.375a6.708 6.708 0 0 1-.553-.268c.185.05.507.131.684.21.123.03-.112-.077-.36-.218-.243-.136-.5-.31-.33-.257a2.9 2.9 0 0 1-.293-.182c.027-.023.194.04.26.053.064.008.028-.031-.401-.35l.502.313.513.333a16.03 16.03 0 0 0-.81-.554c-.343-.226-.714-.466-.963-.7-.407-.377.92.624 1.222.822-.28-.213-.721-.557-.992-.791-.269-.23-.37-.353.112-.004.24.21.067.089.165.183" mask="url(#d)"/>
        </g>
        <path fill="#FFF" d="M10.768 11.043l-.478-1.055c.1.303.264.679.478 1.055M10.878 14.074c-.01-.005-.004 0-.012-.003l.215.148-.203-.145zM19.898 15.839c-.072-.253-.06-.534-.013-.82-.136.338-.178.652.013.82M29.684 12.029l-.512.075c.22.05.213.336.258.569.075-.269.118-.695.254-.644M29.908 15.654c.105-.104.146.028.25-.076l.123-.47c-.29-.063-.605.26-.373.546M29.09 13.27c-.26.915.118.71.479.665-.02-.004-.04-.003-.054-.02.493-1.201.037-.931-.424-.645"/>
        <path fill="#FFF" d="M28.955 14.17c.108-.005.212.012.29.092.198-.498-.08-.155-.29-.092M27.485 11.76c.061.264.487-.993.44-.633.558-.963-1.424.855-.44.633M28.023 15.874l.232-.98-.457.714zM26.97 13.926l.39.514a.561.561 0 0 1 .267-.364c-.294-.151-.55-.516-.658-.15M27.97 13.97c.153.08.315.104.468-.06a.69.69 0 0 0-.468.06"/>
        <path fill="#FFF" d="M28.28 15.344l-.072-.292-.33-.199zM24.742 13.518l-.677.19c-.218.445-.169.783.1.67.243-.278.506-.383.577-.86M25.244 15.224c-.072-.194.006-.369.05-.642l-.505.952.455-.31zM24.475 15.501c-.205.354-1.258.858-.504.953.21-.354.9-.516.504-.953M20.027 13.014l.148.024.98-1.908zM14.853 14.404c.356.44.676-.695.928-.203.34-.247-.206-.4.11-.607-.562.206-.616-.012-1.038.81"/>
        <path fill="#FFF" d="M15.902 13.992c.109-.088.23-.2.375-.358-.185.133-.294.25-.375.358M14.847 33.594l.1.43.003-.297z"/>
        <path fill="#FFF" d="M14.987 33.609l-.158.153.27.2c-.044-.093-.13-.269-.112-.353M11.86 14.175l-.385-.484c-.43-.533-.446-.55-.505-.615l.89 1.1zM10.85 14.056l.016.015-.89-1.1z"/>
        <path fill="#FFF" d="M12.762 14.982a3.69 3.69 0 0 1-.151-.14c.238.208-1.908-1.697.15.14"/>
    </g>
</svg>
