<svg xmlns="http://www.w3.org/2000/svg" xmlns:xlink="http://www.w3.org/1999/xlink" width="38" height="37" viewBox="0 0 38 37">
    <defs>
        <path id="a" d="M.083.056h.5v1.666h-.5V.056z"/>
    </defs>
    <g fill="none" fill-rule="evenodd">
        <path stroke="#EE6C4D" d="M12 4.5a3.5 3.5 0 1 1-7 0 3.5 3.5 0 0 1 7 0zM3.909 15.036v19.112S4.112 36 6.14 36c2.03 0 2.293-1.653 2.293-1.653S8.577 36 10.538 36c1.962 0 2.165-1.72 2.165-1.72V12.755h9.37S24 12.787 24 10.869s-1.962-1.786-1.962-1.786H10.674l-2.571 4.894L5.6 9.083S1 8.025 1 13.448v9.524s.068 1.719 1.691 1.719c1.218 0 1.218-1.256 1.218-1.256"/>
        <path stroke="#EE6C4D" d="M14 2h23v23H14"/>
        <g transform="translate(23)">
            <mask id="b" fill="#fff">
                <use xlink:href="#a"/>
            </mask>
            <path stroke="#EE6C4D" d="M.083.056v1.666" mask="url(#b)"/>
        </g>
        <path stroke="#EE6C4D" stroke-linejoin="bevel" d="M18 35l4.966-10L28 35"/>
        <path stroke="#EE6C4D" d="M9 35v-9"/>
    </g>
</svg>
