<svg xmlns="http://www.w3.org/2000/svg" xmlns:xlink="http://www.w3.org/1999/xlink" width="230" height="118" viewBox="0 0 230 118">
    <defs>
        <path id="a" d="M.336.044h3.428v.081H.336z"/>
        <path id="c" d="M.118.05h.078V1.96H.118z"/>
    </defs>
    <g fill="none" fill-rule="evenodd">
        <path fill="#FEFEFE" d="M194.529 10.187c1.514.11 2.824.326 2.252.335 3.09.109 3.146.267 3.563.02 1.984.005 4.083.34 1.827.293 0 0 1.428.064 2.855.096l1.962.054c.534.017.89.015.89.015l-.531-.028-1.17-.081-1.703-.119c.47-.09 1.83.013 3.208.092 1.378.068 2.776.131 3.318.019l-3.08-.111c-.769-.022-1.54-.078-2.118-.104l-.963-.051.313-.058c-1.407.015-4.134-.224-5.081-.32.152-.027.06-.095 1.148-.025-3.72-.273-4.23-.239-4.58-.147-.351.08-.545.201-3.639-.034.388.028.867.073 1.529.154M188.74 9.392l-2.828.028-4.695-.305c-.062.059-3.496-.08-1.183.103.454.016 1.354.047 2.077.092-.544.106-6.265-.278-4.902-.065 3.725.17 4.293.23 6.597.247 3.408.202 5.885.364 7.47.5 1.015.033 1.168-.044 2.456.005l-.874-.039-.112-.21c-1.077-.01-2.088-.087-3.277-.146l5.531.05c-1.748-.276-7.165-.453-9.315-.652 2.655.317-2.145-.03 3.055.392M193 10l.355.027L193 10M141.156 111.488c1.133-.06 1.452-.13 1.611-.154 0 0-.791.059-1.988.118l-4.383.234-4.397.186-1.448.06-.551.019c.408.031 4.103-.079 1.643.049 1.106-.004 4.45-.175 4.92-.256l-.456.053-.458.05c2.928-.22 4.97-.185 3.062-.035l.248-.014 1.263-.114c.757-.07 1.769-.155 2.77-.265L147 111c-2.98.177-2.255.265-5.844.488M116 1c1.909.518 2.148.511 1.937.362A23.345 23.345 0 0 0 116 1M148 111l3-1c-1.205.36-2.26.714-3 1M130.007 114.459c-.003.029-.026.06.032.082L131 114a.145.145 0 0 1-.025.007l-.968.452M200 94l1-1-1 1M97 117l5.525-.278c-.737.114 1.932.036.767.174.422-.024 2.399-.099 1.859-.14l-1.13.026c2.915-.355 1.145-.4 5.979-.76-3.007-.083-4.318.085-5.907.25l-1.447.066-4.59.465L97 117zM190 19.014l.174.04c-.144-.064-.177-.062-.174-.04"/>
        <path fill="#FEFEFE" d="M190.354 19.156L190 19c.392.332 1.817 1.881.354.156M147.034 110.716c.074-.133.412-.384.966-.716l-.998.517c-.498.271-1.002.483-1.002.483.29-.068.673-.166 1.034-.284M143 112l-.684.116c-.411.067-.957.17-1.508.236l-2.199.3L137 113l2.749-.427 1.56-.245L143 112M193.581 94.57c8.452-3.778-1.923 1.132 2.005-.547 2.335-1.071 3.074-1.554 4.49-2.263-3.273 1.594-3.124 1.394-2.964 1.218.15-.186.312-.348-3.056 1.17.42-.295 1.604-.88 2.963-1.525 1.358-.646 2.89-1.354 4.02-1.877 1.33-.534.804-.236-.111.25-.915.488-2.236 1.145-2.462 1.36 2.651-1.282 2.15-1.097 3.198-1.73 2.084-.995 4.142-2.131 5.966-3.175 1.833-1.04 3.407-2.002 4.643-2.594 2.65-1.749 2.362-1.726 3.725-2.828.024-.089-.195.033-.57.266-.374.233-.88.589-1.46.954-1.13.745-2.487 1.556-3.06 1.799.224-.114.661-.335.566-.24l-1.199.7-1.222.684c2.339-1.28-.139.36-1.393 1.06-.903.511-2.742 1.494-2.533 1.31 0 0 .348-.19.687-.388l.68-.393c-1.837.915-3.892 2.223-5.948 3.076-.135.012.593-.369.686-.447-2.103 1.189-4.259 2.194-7.565 3.75l.911-.514.903-.52c-1.26.698-3.438 1.691-5.867 2.687a137.333 137.333 0 0 1-7.332 2.755c.507-.148 1.394-.458.893-.224-2.543 1.01-4.583 1.574-3.443 1.048-1.215.53-3.65 1.355-6.222 2.153-2.57.804-5.271 1.575-6.988 2.146l-.177.06c-.115.04-.285.097-.505.162l-1.818.557c-.755.232-1.636.502-2.58.79l-3.029.795-1.543.405c-.51.136-1.024.236-1.515.351l-2.7.608c-.395.09-.759.17-1.08.243-.323.07-.608.12-.841.167l-.734.142c.64-.117 1.337-.21 2.04-.344 1.606-.079 2.449-.238-.252.373 1.335-.265 1.735-.39 2.306-.533.286-.072.614-.147 1.123-.246l.917-.169.592-.102.69-.14c-.765.206-1.245.346-1.04.382.21.044 1.084-.076 3.005-.445 2.398-.48 4.514-1.099 6.53-1.655 2.007-.572 3.856-1.22 5.68-1.872 3.642-1.319 7.14-2.731 11.21-4.395.193.004 1.913-.608 3.96-1.406a276.495 276.495 0 0 0 5.962-2.42c-1.08.63-3.349 1.631-5.746 2.611 1.521-.59 4.117-1.641 6.019-2.453l.585-.586zM174 104.723c.325-.22.659-.467 1-.723-.187.11-.487.322-1 .723M186.029 100.919c-.036.053-.02.051-.029.081l1-1-.971.919M149.86 111.012L148 112l1.458-.658c.482-.24.709-.387.403-.33M147.553 111.345L148 111l-.971.262c-.092.139.024.195.524.083M223 79l.948-1c-.621.592-.853.854-.948 1"/>
        <path fill="#FEFEFE" d="M202.744 90.788c-1.38.76-1.436.842-1.628 1.01-.193.167-.53.413-2.53 1.438l1.18-.592c-2.79 1.578-7.964 4.001-11.52 5.546.354-.247-2.215.842-1.873.54-2.417 1.072-4.844 2.078-6.05 2.705-1.558.559-3.844 1.559-5.856 2.205.874-.227-2.693 1.263 2.082-.558-.383.151-.13.08-.508.23 3.152-1.034 4.285-1.696 6.908-2.756 1.613-.561-2.5 1.154-1 .585 1.623-.69 4.196-1.731 6.296-2.657 2.102-.922 3.732-1.717 3.54-1.8 2.306-1.087 2.652-1.197 3.375-1.47 1.72-1.012 5.078-2.642 7.89-4.165 2.82-1.511 5.107-2.889 4.942-3.049-1.214.762-3.25 1.941-5.072 3.031l-.176-.243zM155 110.363l1-.363-1 .363M115.2 111.71l1.292-.02c.646-.007 1.29-.027 1.29-.027-.613-.01-1.576.01-2.581.048m-4.201.14l1.409-.254 5.23-.15c1.515-.05 2.855-.092 4.162-.134 1.31-.033 2.58-.101 3.968-.155 1.386-.058 2.887-.118 4.636-.232.539-.001-.31.068-.739.104l4.055-.25c1.436-.097 2.923-.218 4.37-.327 1.45-.1 2.844-.249 4.102-.377 1.256-.134 2.38-.243 3.254-.371 1.538-.18 5.601-.586 4.089-.341.749-.099 1.588-.249 2.444-.364.248.042-1.9.307-1.938.362.685-.076.949-.11 1.099-.154-.56.116-.245.14-.455.23-.208.099-.956.226-3.647.544-2.128.06 3.727-.46 2.442-.52-1.782.209-1.555.263-1.7.306-2.275.263-2.227.205-2.117.144-.854.172-3.755.338-4.945.556-1.11.115-1.657.141-1.892.146-.235.004-.16-.022-.035-.052.247-.059.688-.135-.771-.023l-1.65.335-2.433.161-2.441.125c-3.526.247-3.265.316-3.128.407.137.09.15.191-3.9.433.528-.079-.026-.127-1.183-.14a135.492 135.492 0 0 0-4.811.022c1.13-.042 2.737-.13 4.425-.216 1.686-.104 3.452-.202 4.911-.236-2.06.008-.648-.053 1.007-.146 1.652-.105 3.55-.228 2.476-.259a73.936 73.936 0 0 1-3.774.288c-1.426.072-2.93.131-4.25.166l.862-.058c-1.4.06-2.631.14-3.995.229-1.365.084-2.862.18-4.807.177-1.93.052-1.571-.015-1.234-.072-1.63.07-3.088.146-3.096.096M152 6l1 .207c-.219-.07-.597-.139-1-.207M19 102l-1-1c.386.395.707.714 1 1M2 76s-.07-.125-.172-.314L1.471 75 1 74c.293.79.633 1.41 1 2M134 6.009L133.826 6l-.826.029 1-.02zM28 30a29.78 29.78 0 0 0 1-1c-.066.017-.437.395-1 1M1.248 79a78.55 78.55 0 0 1-.054-.333L1 78l.248 1zM32 109l1 .982a22.267 22.267 0 0 0-1-.982M31 108c.37.38.722.737 1 1l-1-1zM82 116.176l2-.176c-.983.04-1.57.103-2 .176M36.077 109.065c.329.089.659.18.882.227-.756-.272-1.132-.368-.882-.227M164.484 8.024L164.147 8l-.147.088.484-.064zM169 8l2 .336A22.561 22.561 0 0 0 169 8M53 18c.597-.255 1.966-.907 1.366-.52 1.061-.65.908-.784-1.366.52M154.054 9.096c.272-.058.608-.076.946-.09-.628-.009-1.178-.022-.946.09M155 9.003l1 .023a11.468 11.468 0 0 0-1-.023M42 24c-.225.138-.562.388-1 .769.166-.016.521-.311 1-.769M172.735 7.84c.321-.034 7.987.34 1.554-.1.269-.153 4.138.188 5.858.26-1.241-.12.632-.067.261-.152-.853-.035-1.87-.053-3.275-.157-.637-.118 1.503-.03 3.165.106-2.042-.222 2.62.038-.276-.22C173.805 7.23 169.402 7.011 165 7c3.55.166 7.521.368 10.418.622l-1.238.067c-3.268-.339-5.308-.367-8.54-.575l7.25.524c3.384.338 1.108.22-1.573.076.658.042 1.253.09 1.418.126M167 9l.283.043c.25.006.557.024.717.016L167 9zM81.018 112.223L82 112c-.82.107-1.073.176-.982.223M163.102 8.004h.015a1.892 1.892 0 0 1-.015 0M67 112.012c.062-.004.125-.01.232-.01-.154-.008-.157.008-.232.01M61 114c.076.039.095.066.276.123.92.13.481.027-.276-.123"/>
        <path fill="#FEFEFE" d="M67.03 112.045c.001-.016-.022-.036.04-.045-.036.013-.112.018-.04.045M6 81s.157.367.459.932c.196.2.101-.024-.459-.932M13 93c.123.229.171.379.348.66 0 0-.1-.156-.18-.326L13 93zM49 18c-.844.412-1.472.728-2 1 .617-.298 1.28-.626 2-1"/>
        <path fill="#FEFEFE" d="M67 112c.211.01.51.046 1 .13-.54-.095-.828-.127-1-.13M3 63l.026 1 .047-.593L3 63z"/>
        <path fill="#FEFEFE" d="M4.202 56.385c-.011.219-.001.32.001.444.147-1.134.5-2.731.918-4.09.397-1.363.89-2.475.879-2.739-.168.367-.709 1.502-1.061 2.489-.372.982-.649 1.797-.632 1.45-.377 1.574-.92 3.908-.983 4.77.252-1.3.313-1.366.29-.888-.029.479-.124 1.502-.165 2.386-.21 1.6-.171-.312-.334 1.07l-.032.58a32.44 32.44 0 0 0-.054 1.28c-.018.466-.024.932-.024 1.28L3 65l.013-.507c.009-.304.013-.71.036-1.115.032-.81.096-1.62.096-1.62l.18.99-.008-.33c.116-2.738.273-2.848.355-2.976.113-.127.132-.275.53-3.057"/>
        <path fill="#FEFEFE" d="M4.208 58c-.099.39-.193.732-.208 1 .179-.587.219-.815.208-1M16 40c.294-.286.587-.62 1-1-.2.178-.632.619-1 1M133 112.021c-.125-.143-4.079.48-3.999.828 1.175-.155 2.355-.445 3.543-.659l.456-.169zM81 11c-.28.242-.564.434-.841.747l-.159.231c.172-.138.721-.711 1-.978M4.458 54c-.325.59-.431.856-.458 1 .219-.381.396-.734.458-1M81 11c.492-.081 1.216-.197 1.327-.155.99-.26 1.665-.576 2.673-.845-1.138.297-2.45.668-4 1M86.252 10l-.252.051.252-.051"/>
        <path fill="#FEFEFE" d="M94.375 116.172l.14.003h-.155l.015-.003zM17.887 99.221c1.072.8 2.143 1.627 3.348 2.354l-.335-.225.545.334.558.343c.204.125.44.239.666.363l1.254.669c.169.093.315.164.42.21l.163.076a9.191 9.191 0 0 1-.775-.45l-.64-.406c-.377-.245-.645-.432-.75-.525-.207-.188.241-.002 1.783.835-.297-.098.543.473-.54-.105.25.15.524.342.851.511l1.023.546c.699.389 1.476.723 2.135 1.023.656.306 1.241.503 1.566.617.329.108.415.102.123-.074-1.114-.375-1.704-.638-2.036-.802-.334-.164-.407-.238-.45-.3-.082-.131-.072-.18-1.712-.924.453.184.892.382 1.33.578.448.182.889.369 1.325.557.433.194.874.369 1.316.536.44.168.873.339 1.314.487-.926-.294-.857-.197-.226.121.642.3 1.855.81 3.224 1.31l1.242.412c.506.176 1.09.372 1.704.562l.933.294c.314.095.635.176.946.261.625.163 1.217.333 1.743.444-.345-.156-.058-.14-.106-.193-.05-.048-.427-.184-2.083-.661l5.272 1.351c-.87-.16-2.355-.529-2.272-.453 1.335.474 2.982.82 3.867 1.078l2.174.433a6.51 6.51 0 0 1-.513-.153l1.221.192c.61.097 1.225.18 1.225.18-3.232-.578-1.465-.36-1.402-.42-.136.141 2.063.425 3.164.63l-2.343-.618c.59.07 1.6.295 2.394.468.794.174 1.376.278 1.095.147a508.486 508.486 0 0 1-5.96-1.207c-1.681-.354-3.304-.693-5.55-1.237l1.776.574c-2.56-.571-3.295-.867-4.116-1.157-.809-.317-1.653-.649-4.41-1.613-1.175-.334-3.204-1.074-4.931-1.765-.843-.372-1.644-.689-2.215-.949-.572-.258-.957-.407-1.022-.37.17.063.067-.014-.209-.177-.135-.084-.323-.18-.526-.307l-.689-.426c-1.031-.585-2.243-1.428-3.07-1.898-.458-.26-1.102-.698-1.803-1.177-.36-.232-.688-.513-1.022-.78l-.963-.782-.436-.354-.36-.333-.534-.487c-.26-.229-.304-.24-.003.099.294.286.597.608.952.908l1.083.906.524.448.25.22.257.2c.334.265.634.516.875.746l-.414-.303c-.244-.184-.587-.417-.902-.673l-1.238-1.043.747.735.517.505.253.216-.282-.224a3.763 3.763 0 0 0-.195-.163c-.11-.084-.18-.122-.217-.122-.076 0-.024.15.092.377zm-8.888-9.703a26.309 26.309 0 0 0-.65-1.485c-.27-.56-.54-1.246-.973-2.106-.212-.431-.454-.91-.736-1.447l-.862-1.837-.519-1.076c-.178-.378-.396-.773-.56-1.195-.344-.847-.62-1.812-.87-2.887l.09.336c.043.169.096.336.096.336-.401-2.18-.778-4.308-1.053-6.574-.27-2.264-.432-4.669-.2-7.357.035 1.307.075 1.923.139 2.574.063.65.156 1.334.4 2.762 0 0-.067-.695-.113-1.392-.051-.697-.082-1.394-.082-1.394.227.772.071-2.01.219-4.052l.084.905.102.903c-.06.611-.095 1.712-.093 2.647.007.936.043 1.707.075 1.66-.026-.348-.082.702-.046 2.172.034 1.469.2 3.356.467 4.666.058-.144-.141-1.603-.22-2.724-.077-1.122-.081-1.897.176-.66a16.548 16.548 0 0 1-.207-2.345c-.013-.632-.018-1.276-.074-2.427.182 2.205.258.543.453 2.177l-.036-.587a40.859 40.859 0 0 1-.065-1.292c-.039-.94-.048-1.882-.048-1.882.027-.049.058 1.322.145 2.317.09.995.192 1.612.239.074-.07-.75-.088-2.13-.066-3.33.02-1.2.064-2.22-.03-2.26l.063-.09c.114-1.401.084-1.711.063-2.103-.017-.39-.041-.866.27-2.568-.085-.05-.27.593-.393 1.827-.063 1.046.027 1.211-.072 3.364-.101.48-.062-.17-.039-.753.036-.582.054-1.1-.13-.36-.099.369-.147 1.796-.165 2.932-.013 1.136-.013 1.983-.162 1.191l.04-1.411.046-.97.027-.44c-.093-.039-.114-.57-.122-1.084-.002-.514 0-1.012-.08-.988.077-1.733.503-3.334.688-5.088.015-.368-.102-.246-.133-.389-.028-.142.001-.558.441-1.975.23-.541.516-1.355.927-2.277.406-.921.914-1.962 1.59-2.916.184-.233.333-.47.541-.7l.601-.69 1.139-1.319c.173-.213.36-.408.545-.593l.518-.535.856-.888.251-.28c.151-.167.347-.394.569-.604l.863-.86c-.06.02-.308.228-.628.51l-.521.467c-.178.168-.347.349-.514.515-.66.67-1.17 1.18-.681.585l.41-.426c.254-.251.56-.607.921-.926l1.406-1.305-.165.24c.933-.863 1.907-1.732 2.783-2.504-.417.425-1.177 1.073-1.756 1.587-.551.536-.934.928-.656.797.34-.296.61-.53.846-.726.247-.188.453-.347.655-.502.404-.311.786-.616 1.418-1.16-.272.241-.5.452-.444.44l1.66-1.331c.406-.328.671-.565.865-.753.386-.376.483-.554.832-.855.706-.601.884-.75.711-.679a5.45 5.45 0 0 0-.465.272c-.213.138-.47.321-.75.517-1.115.787-2.562 1.823-2.433 1.627 0 0 .127-.112.367-.293l.983-.759 1.392-1.073c.512-.39 1.085-.782 1.644-1.186.565-.4 1.119-.81 1.658-1.175l1.484-.99 1.05-.7c.252-.171.402-.262.402-.262-.765.555-1.52 1.127-1.169.98 1.172-.72 1.208-.703 1.357-.766.148-.065.405-.21 2.045-1.223-.421-.054 4.08-2.61 6.431-4.016.593-.276.964-.426.862-.357-.102.07-.662.376-1.89 1.06.196-.014 1.096-.506 2.125-1.037 1.03-.532 2.153-1.147 2.761-1.445.676-.384 1.855-1.004 2.591-1.413-1.057.454-.697.143 1.487-.983l.11-.09c-.917.434-1.966.92-3.04 1.45l-1.64.795c-.542.277-1.085.552-1.618.823l-1.549.8-1.396.769c-.87.49-1.62.911-2.128 1.262l.28-.207.283-.204a79.608 79.608 0 0 0-3.088 1.77c-1.005.629-1.98 1.269-2.897 1.86-1.796 1.222-3.344 2.259-4.297 2.772.071-.193-.768.505-.83.343 0 0-.666.5-1.317 1.012l-1.274 1.048.492-.468-.7.537c-.415.328-.994.742-1.528 1.195l-2.148 1.797.088-.114c-.246.22-.469.447-.683.67l-.629.646-1.152 1.185c-.704.758-1.276 1.457-1.806 2.06.062.045.2-.061-.357.583-.546.654-.951 1.155-1.344 1.583l-.002.004c-.894.975-1.575 1.595-2.352 2.973l.097-.184c.066-.115.14-.287.264-.48l.411-.666.54-.736 1.636-1.898c.152-.375-.245-.127-1.951 1.697.658-.766.845-1.138.009-.197-.016.029-.157.2-.324.456-.173.249-.387.559-.536.847-.333.565-.487 1.008-.167.505-1.15 2.046-2.121 4.863-2.713 8.008a42.372 42.372 0 0 0-.667 9.952c-.053-1.2-.07-1.56-.099-1.509-.026.053-.058.518-.069.966-.023.898-.054 1.731-.082-.941-.126 1.865-.037 2.67.078 3.478.116.809.254 1.623.418 3.517-.06.328-.182-2.062-.376-2.93.13 3.16.549 5.82 1.254 8.416.19.649.384 1.294.644 1.94.118.322.274.647.425.966l.496.931c.675 1.25 1.292 2.573 2.109 3.95l-.026.297.983 1.64L9 89.518zm56.248-75.91c.412-.123.55-.192.55-.192-8.893 2.828-15.613 6.08-20.063 8.117.943-.28 4.992-2.042 6.97-2.765l-.81.42c-.408.205-.805.433-.805.433l-1.128.363s-.715.353-1.42.72l-1.415.725c.875-.283 3.218-1.38 4.858-1.99.06-.041 1.343-.627 2.787-1.29l1.097-.504c.368-.161.74-.303 1.083-.445.687-.28 1.277-.524 1.634-.678l-2.134.708c-.54.167-1.055.376-1.446.524l-.652.25c.284-.104.835-.326 1.538-.611l2.501-.901 1.37-.5.675-.249.666-.214 2.21-.718c.005-.043-.983.212-2.025.517-1.053.286-2.108.718-2.312.872-.257.03.719-.353 1.403-.63.701-.245 1.095-.42-.351-.008.82-.315 1.793-.617 2.808-.946 1.022-.316 2.079-.678 3.15-.936 2.128-.55 4.138-1.078 5.446-1.32l.503.084c1.423-.29 1.88-.456 2.405-.633.523-.186 1.128-.348 2.84-.628-4.154.861.763.053-2.535.743 1.071-.162.085.186 3.389-.485 1.34-.395 2.224-.535 3.1-.624.873-.1 1.726-.193 3.013-.52 1.775-.208-1.854.451 1.611-.065 3.958-.679 3.711-.742 3.922-.959a45.106 45.106 0 0 0-3.863.627c-.952.19-1.805.416-3.328.639l2.982-.65 3.008-.574a45.4 45.4 0 0 0-2.658.327 55.507 55.507 0 0 0 3.127-.561l1.39-.287-4.632.623c-1.269.168-2.167.317-2.448.317l.453-.167c-1.238.125-3.212.504-4.103.739-1.526.305-3.042.638-4.264.897-1.219.266-2.13.503-2.481.517l1.12-.345-4.037.963-4.7 1.27zm48.135-6.391c.097.013.43.045.896.082l-1.188.082-.817.056-.372.03c-2.12.086-4.039.084-5.899.154-1.858.088-3.666.177-5.554.451-1.787.1-2.758.063-3.684.044.874-.07 1.691-.132 2.373-.177l1.818-.212c.55-.06 1.048-.096 1.498-.136a82.89 82.89 0 0 1 2.193-.155c1.163-.06 1.8-.067 2.375-.039.574.024 1.084.053 1.99.037a49.28 49.28 0 0 0 1.714-.066l2.657-.151zM83.915 114.085c-.618.086-1.962.138-3.183.193-1.227.066-2.299.078-2.432.175-.263.042.6.077 1.574.1l3.489-.013c.042-.027.287-.054.697-.082-1.22-.013-2.035-.053-1.543-.17 3.138.222 2.807-.198 6.196-.153 1.077-.136-3.77-.112-4.798-.05zm19.605.305l-.71.143 2.028-.01c-.23-.057-.469-.107-1.318-.133zm6.102.086l-.309.01 2.164-.024a52.617 52.617 0 0 0-1.855.014zm-58.084-3.12c.329.06.609.113.753.15l-.753-.15zm2.593.27c-2.919-.56-2.274-.363-2.748-.373l3.088.517c-.386-.082-.572-.142-.34-.144zm3.542 1.207c5.21.836 10.488 1.595 15.582 2.039-4.577-.555-8.399-1.268-9.215-1.476-.407-.11-.058-.112 1.338.035l2.918.317c1.26.143 2.824.295 4.727.467l1 .049c-1.987-.181-5.41-.537-8.623-.926-.655-.052-1.678-.121-2.838-.226a235.327 235.327 0 0 1-3.679-.327c-1.217-.11-2.349-.224-3.17-.31-.822-.081-1.337-.128-1.316-.114.891.246 2.249.377 3.913.656l-.637-.184zM123.041 2.391c.242.015.434.02.577.016-.148.006.008.044-.577-.016zm12.285 110.653l1.033-.117-.535.082 2.687-.203 1.1-.119a2.97 2.97 0 0 0-.386.067l.862-.063c2.115-.329 7.386-1.025 8.877-1.35l3.157-.513a152.43 152.43 0 0 1 2.797-.493c-1.415.24-3.287.587-2.705.562 2.885-.431 4.374-.389 9.22-1.63l-2.88.603 3.19-.81c.402-.095.792-.218 1.159-.327l1.002-.301.978-.293c1.135-.226.356.008-.816.338l-1.86.524c-.6.144-1.105.27-1.322.342 1.256-.275 2.434-.598 3.558-.868 1.12-.279 2.193-.497 3.158-.752 1.935-.501 3.521-.971 4.583-1.448.38.026 1.033.099 4.173-1.012-2.346.642 1.83-.756-.115-.267 1.045-.45 3.508-1.211 3.629-1.379l-.26.162c2.71-.888 4.436-1.606 5.751-2.226 1.318-.616 2.23-1.128 3.3-1.649a395.92 395.92 0 0 0 7.373-3.286 138.58 138.58 0 0 0 6.38-3.108c.253-.015 1.744-.461 3.631-1.507.398-.292 1.645-1.043 2.811-1.787 1.17-.742 2.248-1.484 2.393-1.678-3.3 1.919-2.572 1.713-4.539 2.885-1.809.772-.267-.05-2.65 1.1.964-.461 3.045-1.622 5.096-2.844 2.055-1.22 4.06-2.517 5.052-3.095l-.644.463c.384-.242.735-.454 1.063-.65l.913-.555a41.664 41.664 0 0 0 1.691-1.052c.295-.186.58-.403.9-.636.32-.233.66-.493 1.016-.804.362-.305.754-.647 1.16-1.058.418-.404.85-.864 1.27-1.415 0 0 .413-.52.76-1.072.187-.268.331-.556.458-.763.125-.208.195-.352.195-.352-.043.116-.027.137-.047.2a24.04 24.04 0 0 0 1.111-2.055c.25-.5.406-.863.566-1.239.29-.757.634-1.575.96-3.82-.05.348.013.134-.038.486.308-1.265.43-2.563.45-3.779.017-1.217-.068-2.353-.135-3.323.1-1.194.199.274.328 1.012-.002-2.277-.353-4.64-.914-6.738-.556-2.1-1.316-3.933-1.982-5.223l-.167-.433-.405-.94a59.666 59.666 0 0 0-.661-1.359c.48.793.972 1.646 1.321 2.272.341.623.56.986.51.72-.17-.38-.296-.644-.402-.86l-.304-.57-.996-1.878c.29.327.885 1.16 1.477 2.135-.472-1.127-.83-1.725-1.027-2.06-.206-.335-.29-.402-.348-.429-.116-.054-.123.048-.795-1.525-.752-1.361-1.37-2.082-1.576-2.182 0 0-.313-.625-.659-1.238l-.466-.847a6.15 6.15 0 0 0-.22-.382c-.083-.05-.269-.27-.521-.6-.256-.328-.562-.776-.942-1.257-.377-.482-.763-1.027-1.186-1.547l-1.21-1.49c-.118-.094.137.294.498.788.358.495.834 1.09 1.11 1.436-.054-.021-.189-.16-.375-.374-.196-.21-.448-.496-.724-.818l-.87-1.033-.876-.993c-.03-.148-.448-.737-1.133-1.46l-1.12-1.198c-.409-.419-.861-.836-1.285-1.248-.836-.834-1.692-1.557-2.19-2.033-.502-.473-.669-.684-.224-.417-2.868-2.417-6.6-5.096-10.312-7.33-3.668-2.285-7.38-4.006-9.798-5.033-.382-.194-.87-.43-1.354-.662-.486-.232-.98-.445-1.355-.622-.755-.35-1.063-.518-.046-.165-1.474-.636-2.814-1.126-4.052-1.594-1.251-.444-2.412-.85-3.58-1.237l-7.744-2.547c-.493-.197 2.788.891 2.609.742-2.034-.609-3.852-1.226-5.965-1.903a137.78 137.78 0 0 0-7.718-2.262c1.073.293 1.41.324 1.57.337.047.038-.616-.12-1.497-.339l-2.829-.675c-.92-.27 1.252.295.744.122-6.155-1.702-11.702-2.898-17.271-3.952-5.572-1.047-11.173-1.951-17.538-2.83 1.819.246 3.077.394 3.892.46.814.067 1.183.055 1.211.02l-1.778-.273-1.223-.187-.557-.079c-.698-.048-1.716-.165-2.841-.299-1.128-.118-2.363-.256-3.493-.354-.27-.065-1.358-.222-.233-.145-3.523-.501-6.32-.639-9.305-.736l-2.293-.05-2.457-.02c-.856-.017-1.754.01-2.71.001-.957-.004-1.968.036-3.056.04l1.643-.095c.986-.072 2.308-.086 3.631-.13 1.323 0 2.65-.027 3.645.003l1.66.029-2.612-.273 2.339.036c.586.005 1.17.03 1.609.045l.731.026a32.118 32.118 0 0 0-1.992-.165 80.972 80.972 0 0 0-1.702-.054c-.999-.031-1.692-.017-1.856-.096.594-.032 2.014.057 2.064-.017-1.337-.108-2.065-.1-2.707-.101l-2.211.025c2.664-.125 6.617-.023 10.58.284 3.964.295 7.94.767 10.714 1.126.876.098-.761-.033-.921-.025 2.262.297 3.594.587 6.434.985 1.786.166-1.315-.314-2.713-.528.217-.075.92.033 2.48.262.075.05.644.165 1.486.32.843.15 1.957.344 3.118.565 2.327.42 4.843.94 5.808 1.216 4.106.807 3.804.664 3.48.508-.327-.153-.682-.298 3.3.592l2.32.699c4.654.93 10.626 2.316 15.723 3.834l-.54-.154-.542-.149c-.75-.132.426.233.933.425 3.837 1.164 7.35 2.086 9.58 2.99 2.199.647 5.119 1.55 8.055 2.606 2.94 1.048 5.923 2.199 8.291 3.24.285.19.036.123-.528-.096l-2.438-.984-1.534-.617-1.536-.582-1.355-.5c-.406-.141-.755-.255-1.016-.335 0 0 1.108.41 2.199.852a4644 4644 0 0 0 1.504.597l.678.283c-2.693-1.099-3.817-1.43-5.519-1.93 3.844 1.492 5.202 1.834 8.803 3.35-.314-.068.147.162 1.769.917l.548.095c.022.025.194.12.686.366l.979.458 2.12 1.058 2.077 1.123c.284.152.504.294.666.387l.251.149c-.295-.2-.514-.359-.7-.498l-.523-.369c-.339-.237-.72-.49-1.494-.923.502.368-.841-.325-2.427-1.137.722.32.356.094-.198-.194-.554-.286-1.283-.654-1.241-.68.809.39 1.67.793 2.511 1.238l1.272.652 1.227.675c.4.225.802.435 1.17.654l1.06.635 1.78 1.058.269.247c.135.123.26.256.26.256 1.357.946 2.819 1.855 4.06 2.795.63.461 1.245.893 1.791 1.313.536.429 1.025.826 1.448 1.18l-.606-.387c3.028 2.463 5.868 5.031 7.972 7.615a55.013 55.013 0 0 1 3.61 4.052l.842 1.047.769 1.022c.51.657.94 1.29 1.346 1.837.247.282.643.948 1.154 1.83a97.903 97.903 0 0 1 1.666 3.151c.149.289.3.58.45.874l.462.929.422.932.382.916c.487 1.203.86 2.32 1.176 3.174.022.119-.177-.47-.47-1.228a29.344 29.344 0 0 0-.975-2.242c.893 2.25 1.606 4.047 1.554 4.808-.292-1.299-.501-1.921-.591-2.17-.092-.247-.08-.12-.044.097.075.433.213 1.22-.156.073a40.93 40.93 0 0 1 .908 3.524c.231 1.09.382 2.033.491 2.63-.254-1.98-.156-1.635-.03-1.296.059.17.114.339.111.214-.007-.123-.052-.543-.265-1.541.385 1.539.696 3.387.792 5.324.103 1.937.004 3.962-.326 5.836-.093-.047-.179.413-.52 1.796l-.06.57-.081.57c-.253.867-.056.019.06-.608.05-.314.086-.573.056-.534-.037.037-.105.375-.365 1.242-.195.904-.531 2.03-1.07 3.204a17.536 17.536 0 0 1-2.103 3.495c-.214.274-.445.537-.66.798-.228.256-.468.499-.692.738-.462.448-.886.865-1.284 1.232-.4.362-.746.695-1.037.97-.292.272-.517.5-.654.673-1.293.919-.142-.022.817-.865.939-.867 1.715-1.6-.134-.134.485-.467 1.044-.953 1.57-1.476.27-.254.54-.51.794-.79l.382-.404.34-.407c.11-.133.221-.263.322-.392l.278-.383c.18-.247.342-.48.465-.695.129-.215.239-.406.325-.569.077-.166.13-.303.157-.404-.616 1.104-.818 1.273-.933 1.35-.124.074-.168.06-.68.722l-.274.36c-.158.22-.4.498-.645.776-.24.286-.5.536-.69.733l-.32.326.481-.44c-.84.889-1.922 1.813-3.121 2.78a62.63 62.63 0 0 1-4.003 2.868c-2.875 1.885-6.038 3.698-8.915 5.241-2.381 1.375-4.41 2.52-6.606 3.671a107.015 107.015 0 0 1-7.666 3.636c.882-.444-.415.094-1.468.495-1.052.405-1.85.686.05-.225-1.461.57-2.895 1.162-3.968 1.621-1.07.464-1.783.786-1.79.835l3.091-1.165c-1.392.682-4.766 2-6.199 2.46.652-.235.396-.16.522-.24-3.13 1.096-1.435.64-3.667 1.493-.394.064-1.643.504-3.074.982-1.428.483-3.041 1.004-4.116 1.295l-1.503.549-1.043.366a8.06 8.06 0 0 1-.477.16c1.68-.556-3.037.72-3.573.735-1.106.345-2.142.602-3.327.9-.593.146-1.224.297-1.926.455-.351.077-.719.163-1.11.238l-1.248.21c1.431-.312-3.226.457-3.316.344-.752.124-1.477.203-2.173.306-.696.098-1.366.199-2.018.302l-1.91.313-1.854.27c-1.227.177-2.445.352-3.717.512a89.539 89.539 0 0 1-4.048.33c.175-.045 1.324-.231-.36-.112-1.317.172-3.64.295-5.057.415l.045-.007-.074.009c-.693.055-1.128.101-1.143.133-1.207.154-2.123.245-3.332.376-1.21.118-2.715.282-5.104.417.18.06 1.28.053 2.553-.018 1.273-.07 2.719-.173 3.592-.243l1.499-.222c1.465.115 4.31-.34 5.417-.345-.71.114-1.76.232-3.013.352-1.253.123-2.71.247-4.232.337-1.522.096-3.11.21-4.628.291-1.516.08-2.963.163-4.201.252 3.036.083 9.632-.14 15.382-.625l-2.542.091 3.008-.214-2.928.053c1.425-.092 2.753-.173 4.045-.29l3.835-.353c-3.012.274-4.209.181-2.502.06 3.373-.163 3.482-.39 6.038-.678-.713.074-1.532.162-2.026.205-.493.04-.661.032-.07-.067 2.532-.201 4.138-.358 5.683-.529 1.543-.199 3.029-.385 5.337-.619-.31-.07 1.11-.318 2.686-.59.788-.135 1.616-.276 2.286-.402.668-.13 1.173-.274 1.328-.353l-1.05.208-1.057.173s1.111-.216 2.206-.497l2.195-.533c2.077-.332 1.19-.096.563.079-.313.088-.56.16-.336.136.112-.012.342-.047.74-.116.4-.067.968-.166 1.744-.354 2.855-.71 4.228-1.1 5.416-1.525 1.186-.418 2.218-.793 4.368-1.509-.677.299-1.858.755-3.33 1.248-.734.25-1.547.503-2.398.756-.86.23-1.758.465-2.663.693l2.218-.49c-.563.186-2.1.592-3.81 1.029l-.648.163-.661.139-1.305.27-2.273.468c2.064-.514 1.57-.424.321-.172-1.243.28-3.273.586-4.242.696-.317.196 2.379-.289-.783.366l3.31-.569c.958-.16 2.009-.395 3.907-.756-2.047.407-3.515.758-4.7.98-1.18.243-2.058.452-2.904.655-.424.099-.839.207-1.282.296-.443.087-.913.175-1.443.266-1.06.178-2.36.385-4.175.591 1.661-.245 1.36-.266.594-.207-.767.052-2.002.129-2.208.122l-3.122.388c-1.153.145-2.276.243-2.929.325l1.216.09a60.021 60.021 0 0 1-5.055.334 59.76 59.76 0 0 0-5.53.363c-.622.172 4.294-.258 3.418-.172-3.33.315-5.605.362-7.786.4-1.09.023-2.157.01-3.321.007-1.164-.004-2.426.001-3.906.017-.331.07-.256.193-2.32.357.645-.138-.888-.156 1.434-.309-1.977 0-4.316.172-6.056.242 4.113-.01-1.676.204-2.432.29-2.131.02.645-.132 1.954-.192-1.71-.002-3.747-.13-4.711.055-.07-.12 4.767-.405 7.934-.52l-2.136.032c1.469-.091 1.745-.09 3.866-.128-2.08-.039-1.88-.152-1.4-.255.273.01-.15.034.11.045 1.709-.017 3.016-.088 2.617-.143 1.526-.212-2.37-.039-3.53-.09-.872.039-1.744.063-2.6.091l-4.421.353-4.424.325c-3.78.097-5.484-.019-8.32-.086l-.778.15c-3.288.002-6.382-.028-4.28-.222.117.047.55.034 1.264.037.094-.02.258-.035.466-.048l.162-.026-5.911.115c5.966-.243.295-.265 1.291-.527l-6.023.128c1.827.026 1.843.058 1.242.088-.3.015-.756.03-1.217.044l-1.302.014c-.093-.037-.456-.06-.982-.074a87.909 87.909 0 0 0-1.93-.091c-.737-.024-1.513-.088-2.251-.13a39.046 39.046 0 0 1-1.952-.16l.16-.015-7.836-.89c.1.066-3.063-.129-4.589-.22 4.153.662 1.67.355 1.983.495-.43-.07-1.207-.178-1.3-.177-.607-.047.797.175.905.234 4.448.58 9.062 1.073 10.937 1.025-1.369-.22-2.37-.136-3.895-.378.56.03 1.158.074 1.798.128.645.046 1.33.102 2.063.168.73.072 1.518.125 2.354.19.42.03.847.07 1.296.095l1.39.072.623.091c.154.025.313.044.434.056l.2.022.617-.002c.364-.003.876.002 1.342-.01l1.859-.047c-.776.038-.93.087-1.377.133-.233.02-.5.052-1.026.059-.511.003-1.246.027-2.263-.012.245.083 1.286.084 2.57.085 1.205-.024 2.641-.062 3.836-.052l1.22-.17c-.471.091 4.647.082 1.012.223l-5.906.176 1.643.096-.78.011-.799.012c-.285.006-.643-.002-.973-.003-.668-.01-1.357.001-1.838-.03l-.817-.036 1.237-.022a126.434 126.434 0 0 1-2.529-.109 54.346 54.346 0 0 1-1.498-.132c-.74-.08-1.043-.134-1.34-.202-.3-.064-.6-.125-1.34-.208-.37-.043-.851-.086-1.493-.148l-2.467-.234c-2.575-.124-5.318-.43-10.234-1.258 3.58.505.4-.078 1.768.017-1.81-.311-3.024-.504-4.03-.627-1.005-.122-1.794-.21-2.744-.338-.894-.265-1.526-.463 1.701.127.46-.136-4.26-.718-4.49-1.008l-3.46-.659-2.594-.481c-1.513-.264-2.664-.48-3.872-.702-1.212-.256-2.471-.51-4.245-1.07a73.614 73.614 0 0 1-2.836-.96c-.547-.195-1.13-.4-1.77-.65-.64-.246-1.324-.504-2.06-.825l.495.097c-3.82-1.425-6.724-2.94-9.27-4.647-2.54-1.717-4.805-3.595-7.231-6.093 0 0-.059-.062-.148-.179l-.375-.476-1.137-1.442-.307-.39c-.095-.132-.181-.264-.27-.39l-.471-.693-.46-.674c.187.23.458.555.747.893.296.335.58.695.875.962.566.546.917.828.482.232a33.54 33.54 0 0 0 1.174 1.562c.197.264.434.51.67.76l.715.75c.242.25.485.5.728.753.238.256.524.484.785.73.539.48 1.055.982 1.606 1.466.152.067-.021-.078-.245-.308l-.708-.705c.332.289.616.546.886.793l.85.688c.58.463 1.202.986 2.245 1.617-.03-.05-.584-.448-.918-.698-.16-.131-.263-.229-.232-.217.033.009.194.133.618.394l1.311.953c.323.245.674.46.935.626l.434.276c.49.267.884.489 1.227.65.345.158.623.279.857.376.468.195.76.296 1.07.411.311.114.652.221 1.205.45.277.112.608.254 1.02.433l1.517.616c-.968-.242-2.944-.816-4.785-1.724 1.07.55.339.208-.42-.143-.767-.342-1.524-.747-.589-.185.813.349 1.5.677 2.16.97.668.28 1.292.557 1.95.842.666.262 1.363.552 2.167.851.804.289 1.718.618 2.796.954-.515-.156-.66-.15-1.725-.531l.267.101c.17.066.412.157.7.26l2.102.76 1.112.4 1.055.351.747.248c.18.062.282.089.282.089-.397-.15-.248-.119.181-.02.43.099 1.145.28 1.891.467 1.49.342 3.104.689 2.829.537l-2.214-.567c-.623-.155-1.144-.317-1.598-.44-.455-.13-.842-.229-1.203-.34-.362-.113-.694-.218-1.034-.326-.332-.107-.704-.218-1.061-.343l-1.247-.434c-.965-.34-2.252-.79-4.13-1.523 1.08.386 2.33.786 3.47 1.105a65.782 65.782 0 0 0 2.265.607l.599.13c.065.029.176.07.418.15 1.273.235.067-.197.223-.45-.924-.234-1.7-.48-2.456-.725-.758-.247-1.493-.5-2.24-.765-.748-.284-1.522-.545-2.347-.88l-1.299-.504-1.416-.59c-.417-.096.123.2 1.018.624.903.403 2.173.917 3.188 1.255l-.564-.19a32.82 32.82 0 0 1-1.236-.438l-1.235-.454-.553-.227.363.12c.18.063.365.116.365.116s-2.228-.942-4.327-2.08c-1.027-.597-2.066-1.178-2.779-1.685-.73-.488-1.218-.812-1.218-.812 1.498.965 2.046 1.252 2.92 1.647-.261-.155-.53-.302-.78-.468-.247-.17-.494-.34-.742-.513l-.744-.524a9.283 9.283 0 0 1-.738-.556c.089.268-.128.247-1.054-.456l-.858-.659c-.267-.221-.51-.448-.755-.662l-1.367-1.228c-.783-.818-1.477-1.535-2.058-2.188-1.079-1.351-1.887-2.353-2.376-3.222l-.398-.505c.206.404-.479-.329-1.31-1.353l-1.238-1.655c-.405-.544-.799-1.038-1.035-1.387.107.002-.212-.609-.643-1.39l-.69-1.248c-.245-.418-.412-.844-.569-1.19-.284-.33-.376-.23-.312.171.032.2.103.475.208.81.118.33.286.713.48 1.14 2.009 3.097 1.182 1.713 2.388 3.07l.535.76.55.779.31.438.352.44c.474.587.947 1.175 1.302 1.617l.429.531.179.194-.163-.148c-.096-.09-.212-.216-.333-.34l-.48-.497c.219.303.438.604.661.894l.716.819 1.267 1.41c.786.78 1.283 1.262 1.11 1.242a25.487 25.487 0 0 1-1.052-.955c-.365-.36-.707-.769-1.07-1.167l-1.057-1.173c-.33-.378-.614-.74-.89-1.038l.568.813c.135.207.306.397.42.546l.198.246c-.653-.644-.97-1.092-1.213-1.412-.236-.323-.362-.535-.499-.765-.137-.23-.287-.478-.57-.878-.29-.397-.64-.973-1.26-1.83.338.681.283.603.005.174-.14-.215-.339-.516-.563-.857-.23-.34-.499-.715-.738-1.09.133.324.475.865.88 1.486l1.28 1.954c.914 1.231 1.608 2.197 1.078 1.756-.365-.43-.82-1.027-1.303-1.722l-1.421-2.333-.376-.616-.339-.627a60.309 60.309 0 0 0-.68-1.223c-.447-.792-.923-1.514-1.294-2.123l.096.112a97.188 97.188 0 0 0-1.445-2.845c-.08-.16-.159-.28-.235-.455a14.294 14.294 0 0 1-.397-.895c-.434-1.079-.694-1.805-.921-2.56-.293-1.746-.767-4.087-.934-5.942l.1.04s-.07-.653-.12-1.304c-.056-.653-.094-1.305-.094-1.305.237 1.237.165 3.057.499 5.305l.14-.295c.067 1.302.288 2.385.583 3.39.298 1.006.66 1.93 1.134 2.959-.665-1.509-1.102-3.573-1.388-5.352-.283-1.777-.452-3.27-.652-3.603l.02-.906.034-.903-.106-.859c.038-.672.126-.666.223-.17.097.497.2 1.484.332 2.778-.01.452-.008.68-.06.545.219 1.201.42 2.305.946 5.21l-.202-.774c-.102-.387-.185-.773-.185-.773.304 1.821.711 3.549 1.373 5.045.169.396.34.68.498.976.16.29.31.56.448.806.28.49.518.885.702 1.158l-.883-1.818c-.147-.307-.296-.593-.44-.916l-.211-.508-.177-.499c-.45-1.323-.712-2.606-.94-3.883-.443-2.55-.65-5.053-.754-7.502C.577 67.34.36 65.613 0 64.863c0-1.66.085-3.623.312-5.535.22-1.911.587-3.772 1.027-5.215l.006.279c.386-1.41.772-2.717 1.191-3.82.364-.738.31-.466.207-.143-.081.324-.188.7.04.188l.078-.206.231-.543c.094-.225.205-.487.353-.768.146-.28.277-.58.466-.878.183-.299.337-.598.546-.876l.284-.4c.091-.13.178-.25.255-.337l.52-.627c-.018.08-.212.348-.513.73-.152.205-.332.475-.528.752-.198.28-.36.587-.557.905-.737 1.273-1.307 2.751-1.613 3.703l.194-.654c.066-.2.102-.326.045-.212-.458 1.1-.869 2.698-1.138 4.13-.145.715-.245 1.39-.354 1.946-.092.555-.187.99-.283 1.227-.043.54-.028-.01-.042-.241-.013-.232-.112-.141-.328 1.686-.336 2.442-.11 3.245-.06 3.501.053.021.12-.933.222-1.724.09-.792.2-1.42.19-.747.043-.473.073-.876.099-1.252l.098-1.09c.08-.73.189-1.527.472-2.735-.384 1.885-.46 4.445-.683 5.434-.055 1.859.099 2.653.23 2.768.137.114.267-.45.331-1.316-.083.204-.038-1.477.043-2.61.026-.566.066-.994.029-.98-.017.007-.049.125-.1.393-.055.267-.111.684-.196 1.288.007-1.094.137-2.639.396-4.27a35.179 35.179 0 0 1 1.103-4.787l-.008.137s.065-.222.187-.555c.133-.332.274-.777.48-1.22l.288-.65.29-.565.208-.4.091-.15c-.135.254-.302.652-.456.991-.142.34-.222.625-.188.656l.084-.212c.053-.135.128-.328.243-.558.112-.23.228-.5.383-.788.165-.287.323-.595.52-.9L5 47.16c.102-.15.203-.302.3-.417l.533-.672.52-.656c-.926 1.189-.59.845.095.081.35-.378.76-.88 1.195-1.314a48.98 48.98 0 0 1 1.107-1.073c.292-.488 1.71-2.064.205-.65-.85.793-1.071 1.043-1.26 1.28-.188.239-.364.452-1.03 1.244l.272-.363.28-.374.347-.409.95-1.115.197-.17.556-.686c.135-.174.284-.338.397-.46l.186-.206c1.518-1.372 1.27-1.011 1.11-.763-.08.125-.137.222.058.062.098-.08.258-.224.511-.46.257-.233.585-.578 1.084-1.002l-.359.146c-.182.071-.355.151-.355.151.583-.492 1.206-.984 1.834-1.493l.956-.766c.326-.253.668-.494 1.004-.744l2.037-1.487 2.081-1.408 1.018-.686 1.015-.645 1.924-1.231c1.25-.762 2.372-1.458 3.293-2.047-.948.725-1.253 1.157.245.381-.817.478-2.035 1.212-3.324 2.017l-1.923 1.264-.934.618-.854.608c-.464.26 2.557-2.105 5.117-3.596-.367.12-.94.429-1.59.835-.642.417-1.366.924-2.06 1.412-.703.48-1.349.972-1.862 1.33-.514.357-.896.584-1.037.568-.386.263-.745.501-1.068.732l-.874.655c-.534.405-.973.747-1.347 1.046-.377.296-.683.555-.94.8-.26.243-.49.456-.712.665-.442.417-.86.81-1.478 1.338a70.768 70.768 0 0 1-2.565 2.254c.075.15-1.157 1.288-1.253 1.6.384-.28.919-.794 1.588-1.423.693-.61 1.498-1.352 2.35-2.143.888-.762 1.838-1.56 2.756-2.331.954-.739 1.887-1.442 2.714-2.038-.307.248-.925.747-1.024.863.59-.426 1.077-.805 1.534-1.12l1.226-.867c.748-.532 1.378-1.03 2.221-1.604l-.23.127c2.88-2.074 1.93-1.137 3.78-2.191.34-.224 1.144-.712 1.802-1.124.667-.402 1.192-.723.944-.651l1.716-.906c.425-.229.86-.448 1.187-.61l.544-.272-.285-.053c.95-.53 1.548-.83 2.116-1.125.575-.287 1.12-.571 1.959-1.076l-.024-.173-.756.388c-.452.236-1.063.537-1.659.86l-2.388 1.286c2.37-1.363.556-.502 3.192-1.967-.72.427-.935.588-.862.567.074-.02.443-.211.921-.449.952-.48 2.312-1.178 2.507-1.194l1.932-1.08-.482.292c1.612-.725 1.824-.985 3.68-1.862-2.227.979-3.722 1.585-6.365 3.098.951-.565 2.415-1.35 3.753-2.068 1.345-.709 2.58-1.33 3.067-1.572a53.496 53.496 0 0 1 2.865-1.344c.909-.389 1.808-.76 2.818-1.21-1.91.907-1.5.855-1.587 1.005-.086.154-.682.484-4.532 2.263.122-.093.74-.39.993-.485-.572.157-1.71.717-2.905 1.34-1.186.638-2.424 1.348-3.212 1.795.246-.06-.048.137-.041.168.004.016.082-.012.343-.13.262-.117.706-.325 1.439-.677-.498.209.068-.153 1.112-.73a54.542 54.542 0 0 1 4.013-1.965l-.34.443 2.046-.945 2.057-.927-.377.184c.818-.286 1.908-.787 3.161-1.359a44.643 44.643 0 0 1 2.012-.876 69.48 69.48 0 0 1 2.18-.868c.258-.118.61-.272 1.021-.45l1.413-.527 3.081-1.139c1.91-.642 3.102-1.049 1.222-.604 1.408-.352 2.682-.777 3.995-1.198 1.324-.393 2.673-.816 4.188-1.24l-3.833.926 6.701-2.064c.392-.022 1.222-.156.506.082.766-.17 1.567-.37 2.405-.536l2.58-.499c.876-.164 1.758-.353 2.645-.501l2.632-.436c.862-.14 1.702-.295 2.51-.418l2.307-.341c1.445-.215 2.68-.438 3.594-.576a88.868 88.868 0 0 1 5.013-.409 87.875 87.875 0 0 0 2.578-.16l3.77-.324c1.307-.122-1.048-.16 3.083-.366.279 0-3.95.447.637.12 1.627-.186 3.552-.243 5.598-.314 2.046-.04 4.215-.078 6.34-.21 2.25.035 6.149-.046 5.338.12-1.779-.001-3.928.036-5.727.072-1.799.063-3.248.135-3.63.182.488-.105-2.535-.01.084-.159-2.693.015-3.565.107-4.366.166-.801.072-1.534.12-3.948.223-.163.046.46.03 1.252.026.793-.011 1.755-.044 2.27-.096.01.05-.58.11-1.4.172l-1.36.094-1.433.118c-1.838.153-3.141.275-.991.253 2.568-.18 4.228-.337 5.806-.494.789-.074 1.557-.151 2.408-.19.852-.035 1.786-.05 2.904-.03-.891.09-2.038.129-3.244.181-1.206.074-2.47.162-3.597.323l3.667-.093 2.652-.227-.158.034c3.241-.018 4.735-.071 6.145-.183l2.26-.178c.87-.052 1.926-.094 3.376-.12-3.36-.14.778-.352-1.753-.439 3.886-.041 6.735.037 6.756.24-1.815.02-2.747.035-3.231.071-.484.031-.518.06-.536.089-.034.058-.002.121-3.352.223 1.1.072-1.592.297 2.397.32 4.496-.14-1.344-.185 3.14-.222.265.022.54.043.383.071 2.063-.074 2.405.058 4.902-.004l-.593.026c3.07.202 3.37-.066 6.01.15-1.051-.187 1.78-.062 3.427-.1-1.339-.074-2.369-.178-3.726-.285-1.358-.104-3.046-.189-5.696-.25-.644.103-.259.18-2.437.208l1.723.015 1.722.03c-.744.003-1.31.015-1.993.033l-3.308-.104c4.198-.03 2.278-.185 4.065-.283 3.839.147 3.171.042 5.584.144-.125.084 1.721.222 4.148.374l3.9.255c1.329.09 2.63.17 3.73.26-.684-.045-1.567-.082-2.045-.106-3.21-.03 2.193.24 2.306.306l2.338.033c-.44-.011-1.05-.001-.058.074 3.159.129 2.989-.04 6.141.105.228.11-2.447.102-.495.266.668.12 2.794.475 6.978.659.3-.017 1.384.035 2.64.103-.174-.006-.394-.017-.473-.016l2.762.292c-2.38.007-4.769-.405-7.162-.387l-.217.143c-1.848-.119-4.364-.205-5.527-.187 2.817.186 3.413.19 6.567.356.431.126-1.795.06-2.115.05l.478-.06c-1.872-.185-3.28-.234-4.805-.27-1.524-.037-3.164-.074-5.503-.204-.707-.043-.274-.032-.115-.054a81.79 81.79 0 0 1-2.834-.087l-2.807-.128c-.932-.044-1.861-.088-2.788-.116a65.588 65.588 0 0 0-2.777-.01l1.206-.04a437.58 437.58 0 0 0-12.337.065l-.041.06c.544.044-1.296.018-2.283-.02h.005c-2.459.08-4.82.125-6.75.21a82.59 82.59 0 0 0 2.315.06c.767-.07 5.268-.016 4.652-.17 2.08.128 5.435.014 6.96.128-2.78-.172 1.945-.106 2.437-.183.932.114 4.127.124 3.755.247.548.055-1.362-.14-2.55-.097-1.461.032-.127.082 1.115.158 1.244.07 2.397.137.578.135 4.624.038 10.701.38 15.471.514l-2.66-.199c2.115.121 7.123.393 7.491.48-1.573-.079-3.41-.183-5.422-.273-.111.15 4.83.278 5.046.388l5.862.115-2.556-.173c1.62 0 6.954.476 10.913.777-2.296.052-5.976-.413-10.154-.597-3.035-.11 1.85.323-1.02.193.737.095 2.608.208 3.534.22l1.126.114c-2.575.014-8.299-.39-12.127-.436.336-.002.63-.007.738-.023a132.43 132.43 0 0 0-4.414-.296c-1.47-.078-2.933-.141-4.367-.174 1.51.125 2.113.113 2.98.137.104.048-2.6-.06-3.626-.046 2.659.172.488.135 2.171.24-1.738-.029-3.14-.104-5.253-.216-1.091-.114.913-.066.695-.166-2.18-.029-3.164-.288-6.357-.285 2.12.088 1.837.134.843.154l-3.43.056.71.024c-1.349.08-2.487.055-3.413-.068 1.736-.006 3.412.068 2.923-.058-1.146-.02-2.288-.056-3.587-.035l1.182-.063-5.694-.054c-.903.096-2.408.242-3.195.39a29.856 29.856 0 0 0-2.304-.038c-.807.019-1.604.062-2.25.087l.6-.05a95.394 95.394 0 0 0-5.037.06c-1.763.073-3.27.159-3.502.21-.896-.012 2.255-.25 4.056-.426 1.803-.152 2.246-.297-4.083-.058-4.809.199-2.974.419-5.705.64 0 0 .151-.036-.122-.041-2.099.1-2.297.236-4.013.393 1.26-.04 3.077-.164 3.66-.24-.619.16-4.361.273-5.95.49 2.051-.365-4.04.287-2.443.051-1.04.07-2.102.128-3.131.248-1.03.114-2.035.238-2.978.363-1.89.23-3.505.558-4.57.764-.708.038-1.367.102-2.029.183-.66.085-1.316.212-2.027.338l-5.293.946c.687-.122 1.91-.422 2.886-.542 1.26-.283.093-.109-.903.038-.986.175-1.805.312.134-.125-.835.17-.04.081.82-.08 1.506-.266 2.916-.565 2.52-.567l-3.7.483 1.27-.249-.878.117c-.528.066-1.22.194-1.919.304l-2.79.457c-.14.058.39-.009.66-.043-3.208.612-6.6 1.42-9.833 2.337l-1.212.331c-.398.119-.788.248-1.18.37l-2.302.727-1.119.351c-.368.117-.719.255-1.072.378l-2.045.73c-.097.091-.37.235-.782.419-.206.092-.446.194-.717.305l-.872.397c-.633.283-1.365.6-2.158.94-.397.167-.81.342-1.232.522l-1.291.582c-3.51 1.58-7.346 3.416-9.256 4.507.996-.622 1.45-1.086.73-.836.443-.224 1.092-.598 1.895-1.028a46.991 46.991 0 0 1 2.797-1.374c.371-.094 2.965-1.191 1.371-.377 5.696-2.616-.887.186.709-.707-6.31 2.915-9.765 4.942-13.504 7.056l-.13.01-2.783 1.645c2.347-1.257 2.382-1.012-.65.588l.35-.217a57.409 57.409 0 0 0-3.547 2.043l-2.095 1.32c-.699.44-1.36.898-1.99 1.3l-.794.607c-.402.298-.78.616-.78.616-1.218.844-1.905 1.238-2.403 1.476-.496.239-.786.337-1.235.568l-1.309.996-.601.467-.547.466c-.709.612-1.347 1.178-1.948 1.72-.578.558-1.103 1.102-1.636 1.637-.266.268-.53.536-.8.806l-.763.855c-.276.236-.775.707-1.334 1.24-.547.54-1.091 1.177-1.568 1.682-.47.498-.835.886-.936.995-.097.094-.038-.086.517-.764l-.426.532c-.118.163-.201.31-.29.45-.181.272-.287.542-.395.777-.111.234-.177.467-.253.69-.076.223-.148.444-.215.692a113.98 113.98 0 0 1-.59 1.856 65.187 65.187 0 0 0-1.029 3.376l.106-.799.13-.793c-.747 2.881-1.09 6.513-1.133 9.74-.058 3.23.162 6.054.217 7.43-.315-1.091-.336.79-.114 3.064.11 1.137.287 2.368.474 3.367.183 1 .375 1.766.374 2.03 0-.143.191.273.502.803.293.521.617 1.118.72 1.262.187.475.502 1.269 1.028 2.042-1.038-2.2 1.2 1.382-1.065-2.722.688 1.002 1.365 2.183 2.34 3.61a97.52 97.52 0 0 0 3.578 5.297l-.214.016-.385-.522c-.226-.314-.49-.755-.77-1.185l-1.11-1.73c.071.414-.964-1.421-1.457-2.148a7578.01 7578.01 0 0 0 1.523 2.784c.172.343.06.262-.047.183-.106-.079-.206-.155-.006.2.1.178.276.464.562.91.292.445.663 1.068 1.288 1.851.576.56.22.191 1.527 1.81-.313-.376-.504-.597-.518-.556-.005.02.038.103.141.26.097.16.274.383.538.68l1.126 1.079c.792 1.137-.012.285-.847-.617-.863-.884-1.601-1.904-.987-.897-2.142-2.33-4.923-6.858-4.62-5.933l.427.761c.14.234.29.443.421.643a32.246 32.246 0 0 0 1.346 1.857c.19.249.375.477.583.696.403.444.808.893 1.306 1.498.473.619 1.147 1.33 2 2.358l.29.48c.686.672 1.14 1.025 1.5 1.31l.515.392c.167.13.342.265.565.42.027.095.364.44 1.287 1.262 1.362.963 2.508 1.739 3.704 2.413.297.17.58.35.886.51l.935.47.967.478 1.064.446c-.465-.23-.92-.42-1.303-.642l-1.089-.604c-.688-.361-1.209-.744-1.699-1.058-.485-.318-.909-.598-1.265-.896l-1.043-.825c-.348-.26-.661-.554-1.006-.87L17.44 96.76c-.425-.39-.865-.86-1.408-1.385-.263-.269-.575-.536-.858-.862l-.935-1.036c.222.227.62.658 1.1 1.18l1.72 1.63c.285.286.61.532.904.769l.816.638c.244.185.454.34.618.45.171.104.297.162.355.17l-.197.065 1.652 1.167c.574.375 1.177.734 1.78 1.12.297.2.63.367.956.553l.999.564c.331.2.708.363 1.07.556l1.129.577s-.126-.05-.307-.133l-.671-.301-.98-.439a95.247 95.247 0 0 0 5.543 2.53c1.727.69 3.385 1.282 5.3 1.801a102.566 102.566 0 0 0-3.147-1.075l1.898.62c.663.218 1.363.465 2.015.664l.996.32c.335.105.686.196 1.026.295.683.194 1.353.392 2.02.556l.873.174.895.178 1.037.185c.706.123 1.407.255 1.94.34l.889.143c-.037.033.832.234 1.492.398.661.16 1.117.276.235.171 2.015.45 3.52.708 4.822.883 1.298.189 2.391.295 3.58.473 4.157.85-3.656-.518-4.116-.41 2.87.561 5.861 1.028 8.542 1.405 2.684.361 5.061.617 6.718.74-1.183-.166-1.754-.279-1.687-.305.084.033.712.131 1.484.221l2.341.266s.23.003.458-.002l.457-.008c2.167.278 1.855.308-.012.205 1.041.108 2.191.186 3.34.234l1.715.1c.561.03 1.113.073 1.642.136-3.533-.011-8.081-.617-9.944-.763.934.093 1.75.18 2.481.265l1.979.211c1.196.148 2.187.238 3.244.362.528.056 1.068.092 1.66.14.294.022.603.048.925.066l1.01.03c.7.027 1.526.023 2.467.013.939-.008 1.994-.024 3.199-.05.119.047-1.513.154.345.141 4.298-.06 1.12-.214 2.462-.334-3.308.078-4.853.035-6.776-.079l.883-.089c.134.042 2.215.028 2.829.064l.534-.172c-.246.186 3.082.31 5.694.227-2.642-.12-1.928-.117-2.649-.324 3.675-.22 4.146.175 8.26-.06-.307.063-3.9.125-.795.155 2.568-.01 2.224-.153 3.944-.212-1.936.169-1.437.28-3.537.478-4.566.045-1.841.008-6.306.1l3.78.11c-3.87.045-2.812.19-3.13.251 6.609.123 4.978-.258 9.226-.25 2.047-.122-3.98.008-.777-.127 3.972-.01.906-.101 5.359-.221l-.744.08c1.363.072 2.707-.05 4.281-.094 1.73-.08-1.97-.498 5.138-.645-.347.051-.474.08-.473.098l-3.45.713-3.462.702c7.227-.102 15.552-.263 23.903-.669 1.99.145-5.944.533-5.426.608l-3.819.1c.104-.058 2.102-.146 3.641-.225 1.54-.085 2.617-.183.891-.182-3.363.174-5.81.276-8.216.339-1.203.037-2.394.079-3.685.135-1.29.045-2.68.105-4.278.191 1.996.221 8.425-.206 12.592-.192-.874.026-1.679.06-2.444.1l-2.208.107c3.91-.077 8.093-.216 12.538-.43l.992-.114-5.335.226c1.985-.095 3.81-.222 5.17-.35 1.36-.141 2.25-.293 2.372-.392l-.703.042 1.423-.157 2.782-.16z"/>
        <path fill="#FEFEFE" d="M166.332 8.254c1.204.055 4.163.665 3.597.165.056.44-5.292-.972-3.597-.165"/>
        <path fill="#FEFEFE" d="M169.852 8.615c.173-.061.06-.252 1.148-.006L168 8l1.852.615zM172.152 10.068c1.637.029 2.675.052 5.228.32.926.524-4.192-.295-5.38-.005 4.678.497 6.145.27 10 .617-1.896-.373-9.683-1.25-9.848-.932"/>
        <path fill="#FEFEFE" d="M171.269 10.119l2.731.375-.267-.121L171 10zM114 6.094c-.263-.288-2.045.159-3 .384.779-.108 1.87-.086 3-.384M179 15s-1.098-.44-2.77-1.044l-1.345-.495-1.512-.53-1.617-.565-1.68-.558c-1.123-.38-2.255-.738-3.317-1.071-1.059-.34-2.054-.641-2.909-.896A143.62 143.62 0 0 0 161 9c2.631.756 5.142 1.533 8 2.458 2.854.936 6.05 2.03 10 3.542M49.128 19.203C53.83 16.923 55.905 15.803 61 14c-6.797 2.163-8.63 3.659-14 6l2.128-.797zM50.591 17.425c.414-.083-.416.336-1.232.77-.804.443-1.622.885-1.278.793 1.414-.714 1.727-.91 2.023-1.076.29-.17.551-.318 1.896-.912l-1.409.425zM75 13l-1 1 .813-.716zM31.382 26.25L32 26l-.474.152c-.286.09-.661.215-1.033.342L29 27l1.19-.376.817-.259.375-.114M32 25l-1 1 1-1z"/>
        <path fill="#FEFEFE" d="M73 14l1.008-.312.692-.215.319-.084L76 13l-.472.143c-.282.092-.664.191-1.036.327L73 14zM53.265 18.924L55 18c-.344.183-2.798 1.297-1.735.924M17.802 35.08L16 36l.204-.083L18 35zM40.3 25.133c.897-.22-.302.177-1.28.501-.968.333-1.717.592.034.064 3.04-1.005 1.735-.656 1.246-.565M14 40c-.339.316-.68.661-1 1l1-1M14 40c.74-.374 1.525-.727 2-1-.975.441-1.293.621-2 1M6.074 48.96l.285-.314c.068-.08.146-.156.209-.212l.101-.094c-.288.321-.308.423-.26.351.05-.071.247-.289.502-.577.16-.163.298-.279.397-.366a2.63 2.63 0 0 0 .197-.19c.077-.086.066-.104.093-.149L8 47l-.564.535c-1.186.964-1.626 1.638-1.362 1.426M6 87c-.809-1.321-1.334-2.148-1.586-2.642-.243-.496-.28-.643-.178-.59-.688-1.268-1.03-1.787-1.315-2.18a161.193 161.193 0 0 1-.31-.42l-.11-.179a11.139 11.139 0 0 1-.246-.43C2.176 80.4 2.095 80.22 2 80l.243.588.266.555.462.829.791 1.427.402.724c.138.252.288.518.48.802L6 87M2 81c-.352-.325-.68-.633-1-1 .341.412.678.723 1 1M16 39l-.502.5-.345.342A3.162 3.162 0 0 0 15 40l.058-.057.134-.12.196-.173L16 39zM7.958 90.922c-.325-.544-.748-1.459-.942-1.919-.088-.053.207.572.492 1.14.288.565.608 1.052.45.779M5 81c-.026-.212-.272-.94-.49-1.756-.115-.407-.21-.839-.308-1.23A30.065 30.065 0 0 1 4 77c.285 1.496.295 2.788 1 4M16 98c-.302-.14-.667-.324-.893-.454-.231-.129-.289-.215-.057-.134-.437-.2-.986-.426-1.045-.411-.03.007.065.074.357.235.15.078.334.186.606.311L16 98M7 84l-.146-.356-.143-.253c-.086-.152-.202-.353-.3-.562L6 82l.474 1.01L7 84M5.436 78.45c-.267-.962-.177-.175-.105.436.042.3.073.56.035.538-.032-.026-.161-.315-.366-1.164.202 1.108.37 1.601.445 1.807.082.202.08.123.069.012-.013-.108-.022-.263.021-.192.02.037.06.122.127.288.037.087.063.18.127.323L6 81c-.09-.23-.18-.452-.248-.647-.055-.19-.113-.353-.15-.522-.04-.168-.075-.319-.103-.457l-.06-.378c-.062-.44-.044-.637-.003-.545M6 81l1 1-1-1M32 104.977c-.43-.439-.726-.722-1-.977.338.345.663.665 1 .977M13.561 90.744l-1.317-1.352c-.163-.17-.334-.336-.48-.499l-.387-.452L11 88c.202.236.435.519.689.832.261.31.578.635.887.982.638.684 1.264 1.454 1.964 2.084.678.64 1.262 1.234 1.73 1.608.47.37.753.565.729.47-.792-.678-1.548-1.495-2.275-2.187l-.524-.501c-.17-.159-.305-.323-.447-.467a21.067 21.067 0 0 0-.704-.716l.512.639zM55.432 113.595l-1.216-.291L53 113l1.498.513L56 114c-.853-.326.753-.177-.568-.405M55 114.269L54 114c.218.072.536.16 1 .269M23.997 102.985l-1.558-.989A70.676 70.676 0 0 0 21 101c.193.155.932.744 1.652 1.222.732.462 1.401.862 1.345.763M67.669 114.875s-.922-.188-1.837-.424L64 114l1.997.519c.499.134 1 .255 1.376.337L68 115l-.331-.125z"/>
        <g transform="translate(82 117)">
            <mask id="b" fill="#fff">
                <use xlink:href="#a"/>
            </mask>
            <path fill="#FEFEFE" d="M.336.082l.59.013L3.764.058l-.6-.014z" mask="url(#b)"/>
        </g>
        <path fill="#FEFEFE" d="M63.192 111.517a19.267 19.267 0 0 0-2.494-.471c-.587-.073-.859-.06-.6.039l.608.152 1.342.314L64 112c-.962-.463-1.083-.246-3.337-.84l2.529.357zM189.54 102.191c-.397.21-1.637.722-2.826 1.161-1.185.446-2.314.822-2.45.822.545-.243 2.786-1.148 1.33-.655l-1.591.733-1.6.723c-2.272.735-1.462.364.17-.312 1.637-.671 4.076-1.677 5.128-2.142-2.238.857-3.675 1.433-5.156 2.013-1.48.584-3.003 1.17-5.444 1.997 1.451-.467 2.39-.726 3.172-.948.13.05-.946.456-2.467.981-1.524.52-3.497 1.15-5.154 1.666 2.14-.592.96-.147-.554.386a9.505 9.505 0 0 0-.583.204L171 109l.4-.12c-.02.026.08.02.385-.037 2.78-.89 4.95-1.462 6.716-2.061-.944.169.554-.349 2.532-1.047 1.981-.695 4.442-1.58 5.494-2.039l1.238-.493 1.232-.502.925-.37c.204-.048-.033.095-1.416.702 1.16-.5 5.07-2.099 4.652-2.03 0 0 2.219-.93 4.409-1.902 1.092-.49 2.185-.979 2.995-1.36l1.353-.63c.276-.119.554-.234.766-.312.287-.157.327-.193.278-.186 0 0 .589-.276 1.605-.78.51-.249 1.128-.553 1.83-.913.706-.353 1.494-.764 2.351-1.216 3.42-1.82 7.928-4.33 12.014-7.41.508-.387 1.018-.772 1.504-1.184.245-.204.494-.401.733-.61l.706-.633.35-.318.353-.353c.237-.234.467-.469.67-.712a17.65 17.65 0 0 0 1.157-1.45c1.374-1.95 2.168-3.873 2.695-5.517.516-1.648.764-3.032.897-3.998.132-.967.176-1.519.176-1.519-.184 1.742-.535 3.244-1.083 5.02.264-1.357.046-.626-.24.336-.306.962-.806 2.145-.757 1.732a52.42 52.42 0 0 0 1.2-3.978c-.021-.202-.117.067-.247.36-.128.294-.264.612-.31.517a46.295 46.295 0 0 1-.845 2.677c-.124.37-.243.712-.372 1.037l-.179.482-.198.467-.199.467-.234.471-.252.49-.31.513c-.435.703-1.018 1.5-1.963 2.417.02-.106.288-.457.252-.479-.017-.01-.11.06-.346.285l-.473.455-.747.671.591-.564c-1.869 1.782-2.787 2.304-3.425 2.756-.67.42-1.096.737-2.346 1.762l-.058-.163c-.932.71-2.393 1.671-3.921 2.599-1.525.93-3.125 1.816-4.28 2.45l.117-.098a102.981 102.981 0 0 1-3.41 1.876c-.766.406-1.262.648-1.784.903s-1.072.519-1.967.942c-.892.426-2.126 1.015-4.036 1.893l.534-.273a79.22 79.22 0 0 0 1.17-.605l1.692-.89c-2.67 1.162-3.142 1.593-5.064 2.42.116-.089-.393.017 1.385-.81 0 0-2.282 1.103-4.603 2.158a256.91 256.91 0 0 1-4.679 2.064c-2.222 1.007.531-.084.927-.169"/>
        <path fill="#FEFEFE" d="M178 106l-2 1c.751-.358 1.387-.69 2-1"/>
        <g transform="translate(229 67)">
            <mask id="d" fill="#fff">
                <use xlink:href="#c"/>
            </mask>
            <path fill="#FEFEFE" d="M.194.05s.001.476-.02.954c-.007.24-.024.479-.036.658l-.02.3C.168 1.368.205.75.194.048" mask="url(#d)"/>
        </g>
        <path fill="#FEFEFE" d="M163.645 110.442c.927-.2.595-.08-.006.109-.608.163-1.488.382-1.639.449l1.034-.228c.623-.123 1.438-.36 2.258-.573l3.275-.875c-.052-.05.563-.303.408-.324l-.227.069-.604.163-1.832.493-2.667.717zM170.182 109.586c.225-.102.977-.332 1.818-.586l-1.988.509-1.381.335c-.376.095-.631.146-.631.146.048.04.52-.025 2.182-.404M168 107l.604-.183.6-.19.9-.31L171 106s-.746.262-1.497.509c-.748.254-1.503.491-1.503.491M183 102c-1.171.242-3.285.816-4 1 2.483-.611 1.427-.325 4-1M180 102l1.504-.495L183 101l-.293.075-1.35.466L180 102zM223 49l-1-1 1 1M228.47 67.763c.157-1.438.181-1.924.217-1.868.034.056.038.654.026 1.377-.018.723-.078 1.572-.113 2.129-.042.556-.032.821.105.37l.059-.495c.023-.298.055-.695.088-1.091l.048-1.089c.004-.296.005-.494.005-.494l.064.271s.041-.965.029-1.927c-.017-.481-.025-.962-.049-1.322l-.039-.6c-.074.793-.074 1.383-.212 1.215-.026-1.277-.091-2.014-.111-2.463-.027-.449-.028-.608-.013-.726.019-.236.118-.305-.125-2.179 0 0-.262-1.42-.655-2.824-.382-1.407-.909-2.796-.909-2.796l.102.221.099.221c-.164-.47-.271-.67-.352-.827l-.082-.21a11.6 11.6 0 0 0-.246-.59 25.027 25.027 0 0 0-1.004-2.093l-.344-.636-.36-.657-.795-1.437-.883-1.544-.96-1.59c-1.305-2.13-2.819-4.193-4.022-5.7-.609-.75-1.107-1.38-1.495-1.8l-.591-.67c-.322-.35-.546-.585-.694-.733-.154-.144-.23-.204-.251-.206-.044-.002.14.222.32.484.367.519.803 1.132-.19.136 1.47 1.619 3.114 3.73 4.362 5.492 1.235 1.768 2.112 3.164 2.332 3.267-.11-.107-.312-.319.092.42l.718.998.692 1.005-.532-1.005-.558-1.003c.18.251.4.578.648.959.24.381.503.818.783 1.29.278.47.558.972.85 1.49.14.256.283.514.427.774l.213.39.222.422c1.191 2.26 1.821 4.476 1.957 5.16-.344-1.054-.61-1.704-.829-2.179-.215-.475-.376-.777-.562-1.13l-.727-1.429-1.517-2.889c.07.262.496 1.277-.197.088l1.279 2.307c.442.807.814 1.62 1.157 2.431a32.908 32.908 0 0 1 1.564 4.916c.758 3.311 1.124 6.7.958 10.37M180.192 15.107l.196.018c-.398-.146-.534-.18-.196-.018"/>
        <path fill="#FEFEFE" d="M182.366 15.861l.572.17c.342.102.794.249 1.248.39l1.249.395c.341.106.565.184.565.184l-.233-.091c-.15-.055-.366-.134-.623-.23l-1.89-.693-2.774-.963L180 15c.514.13 2.492.76 3.213 1.066l-.423-.103-.424-.102M191 19.849c-1.273-.7-1.9-.986-2.044-.984-.143-.002.21.25.867.685-.582-.318-.951-.514-1.195-.659a4.743 4.743 0 0 1-.464-.307c-.199-.147-.315-.235-1.164-.584-.005.071.718.477 1.528.907.814.419 1.687.922 2.021 1.093l.451-.151zM210.463 32.362L210 32l.511.491c.249.251.489.509.489.509l-.264-.322c-.13-.163-.273-.316-.273-.316M210 32l-.996-.502-.685-.345C208.135 31.058 208 31 208 31c.088.091.164.185.45.365L210 32zM204 27c-.828-.617-1.808-1.24-3-2l1.52.982c.385.24.75.5 1.023.695L204 27M207 27l-.04-.04L205 26l2 1M209 29c-.085-.119-.181-.246-.58-.532-.2-.143-.475-.326-.862-.567-.392-.238-.874-.55-1.558-.901l.353.393L209 29zM199.306 93.923L202 93l-.304.082-1.346.46c-.67.232-1.35.458-1.35.458l.306-.077zM210 88c.413-.404.722-.715 1-1-.44.416-.785.756-1 1M219.085 80.874c1.974-1.796-2.406 2.713 1.051-.733.18-.111 0 .249-.556.869-.134.153-.282.323-.448.5l-.559.55a18.54 18.54 0 0 1-1.316 1.16c.025-.105.453-.502.722-.763.257-.267.372-.388-.226.059-1.085 1.147-1.665 1.455-1.081 1.23-2.035 1.798-2.225 2.056-3.672 3.254 1.349-1.006 3.472-2.534 5.448-4.296.475-.45.984-.891 1.425-1.361.221-.232.465-.464.663-.692.192-.23.396-.446.573-.68a12.153 12.153 0 0 0 1.638-2.758c.678-1.966-.186-.92-.496-1.048-.092.13-.705 1.37-1.463 2.469-.176.286-.395.534-.572.79-.187.249-.38.464-.533.665-.35.408-.61.715-.598.785M215 82c-.513.26-.862.427-1.155.57L213 83c.132-.015.42-.16.787-.353L215 82M225.922 62.356c-.06-.135-.293-.847-.493-1.454-.227-.606-.436-1.104-.429-.82l.191.608c.116.365.237.856.374 1.344l.315 1.35.12.616c-.129-.928-.123-1.26-.078-1.644M226.454 64l-.202-.5L226 63l.454 1M226.024 61l-.024.51c.047.144.073.112.024-.51M195.995 22c.094-.029-1.294-.68-1.995-1 .555.276 1.315.685 1.995 1M134 3l-.5-.506L133 2c.352.378.53.597 1 1M111.853 1c-.125.037-.435.045-.853.038.417.014.708.004.853-.038M111 2c-.564-.057-1.709-.289-2.87-.497-1.16-.238-2.34-.38-2.967-.33l.16-.058-1.162-.073C103.581.992 103 1 103 1c.543.02 1.236.12 1.989.21.753.105 1.567.164 2.351.306 1.57.248 3.026.443 3.66.483"/>
    </g>
</svg>
