<svg xmlns="http://www.w3.org/2000/svg" width="15" height="68" viewBox="0 0 15 68">
    <path fill="#EE6C4D" fill-rule="evenodd" d="M1.526 67.4l-.914.199.51-.702v.1-.1c.137-.401.256-.82.358-1.254a5.12 5.12 0 0 0 .153-1.153c0-.268-.068-.401-.204-.401-.136 0-.29.066-.46.2-.17.134-.323.2-.459.2s-.255-.334-.357-1.002C.051 62.818 0 62.283 0 61.882c0-.535.136-.953.408-1.254.272-.3.51-.92.714-1.855-.68-.602-1.02-1.037-1.02-1.304 0-.2.255-.568.765-1.103s.766-1.07.766-1.605c0-.067-.017-.117-.051-.15-.034-.034-.051-.084-.051-.15-.885-.937-1.276-1.74-1.174-2.408.102-.669.153-1.37.153-2.106 0-.535-.017-1.12-.05-1.755-.035-.635 0-1.254.101-1.856a4.15 4.15 0 0 1 .663-1.655c.34-.501.85-.886 1.531-1.153l.714 4.112c.953-1.003 1.429-1.738 1.429-2.206 0-.201-.204-.468-.612-.803a13.849 13.849 0 0 1-1.276-1.203 11.288 11.288 0 0 1-1.275-1.655c-.408-.635-.613-1.421-.613-2.357 0-1.471.409-2.207 1.225-2.207h.612c-.34-.601-.646-1.337-.918-2.206-.272-.87-.408-1.672-.408-2.407 0-.334.034-.602.102-.802a11.19 11.19 0 0 0 .663-4.062c-.034-1.371.29-2.725.97-4.062 0-.067.016-.117.05-.15.034-.034.051-.084.051-.151 0-.535-.17-1.104-.51-1.705-.34-.602-.51-1.204-.51-1.806 0-2.34.187-4.68.561-7.02.374-2.34.63-4.748.766-7.221a6.954 6.954 0 0 1 1.632-3.912C6.361.568 7.653 0 9.286 0c.34 0 .833.134 1.48.401.646.268 1.275.585 1.887.953a10.21 10.21 0 0 1 1.633 1.204c.476.434.714.852.714 1.253v.602a2.803 2.803 0 0 1-1.48-.401 49.453 49.453 0 0 0-1.377-.803c-.068.335-.187.602-.357.803-.17.2-.255.468-.255.802 0 .2.102.368.306.502.204.133.306.4.306.802 0 .535-.136.97-.408 1.304-.272.334-.408.635-.408.902 0 .335.34.535 1.02.602.068.535.17 1.087.306 1.655.136.568.204 1.12.204 1.655 0 .602-.272 1.103-.816 1.504-.544.402-.817.77-.817 1.104 0 .334.12.702.358 1.103s.357.802.357 1.203c0 .67-.051 1.455-.153 2.357-.102.903-.425 1.354-.97 1.354-.204-.067-.476-.1-.816-.1-.612 0-.918.334-.918 1.003 0 .134.017.3.05.501.035.201.052.402.052.602v.401c1.156.937 1.955 2.006 2.398 3.21.442 1.203.663 2.574.663 4.112 0 1.538-.646 2.574-1.939 3.11-.68.333-1.071.6-1.173.801-.102.201-.323.469-.664.803.136 0 .255.017.358.05.102.033.22.05.357.05a.46.46 0 0 0 .204-.05.46.46 0 0 1 .204-.05c.68 0 1.02.3 1.02.902 0 .335-.05.67-.153 1.003a3.42 3.42 0 0 0-.153 1.003c0 1.07.17 2.056.51 2.96.34.902.51 1.855.51 2.858 0 .334-.102.635-.306.902a1.45 1.45 0 0 0-.306.903c0 .535.085 1.053.255 1.554.17.502.255 1.02.255 1.555 0 .334-.017.685-.05 1.053-.035.368-.052.719-.052 1.053 0 .803.068 1.588.205 2.357.136.769.374 1.521.714 2.257v.3c0 .335-.068.686-.204 1.054a3.034 3.034 0 0 0-.204 1.053c0 .802.238 1.47.714 2.006.476.535.714 1.27.714 2.206 0 .736-.204 1.287-.612 1.655-.408.368-.918.619-1.53.752-.613.134-1.31.2-2.092.2H6.633c-.272 0-.545-.066-.817-.2-.272-.133-.476-.2-.612-.2-.408 0-.697.184-.867.551a6.28 6.28 0 0 0-.408 1.204c-.102.434-.205.836-.307 1.203-.102.368-.323.552-.663.552s-.697-.117-1.071-.351a4.488 4.488 0 0 1-.362-.25zm6.127-27.182c.136-.668.204-1.203.204-1.604 0-.134-.238-.201-.714-.201-.408 0-.714.25-.919.752-.204.502-.306.886-.306 1.154 0 .2.051.45.153.752.102.3.29.451.562.451.68 0 1.02-.234 1.02-.702v-.602zM2.45 49.245c0 .267.051.468.153.602.102.133.221.367.357.702.272-.468.425-.936.46-1.404.033-.468.05-.97.05-1.505-.68.468-1.02 1.003-1.02 1.605zm7.755 10.33h-.102c-.408.602-.612 1.17-.612 1.705l.102.1c.136 0 .306-.133.51-.4.204-.268.34-.469.408-.602a.878.878 0 0 0-.102-.402l-.204-.4zm-4.082-40.92c-.136-.134-.272-.2-.408-.2-.136 0-.204.066-.204.2 0 .267.102.434.306.501l.306-.501zM4.49 34.2c-.068.133-.136.217-.204.25a.799.799 0 0 0-.204.15l.408.302.306-.2-.306-.502zm4.592 13.44l.306-.302-.715-.2c.137.267.273.434.409.501zm1.632-7.022l.613-.601-.307.802c-.136-.134-.238-.2-.306-.2zM8.776 13.841c0-.067.017-.117.05-.15.035-.034.052-.084.052-.151-.068-.067-.137-.1-.205-.1l-.204.4h.307zM3.163 59.876c0 .067-.034.117-.102.15-.068.034-.102.084-.102.151.068 0 .102.033.102.1l.408-.3c-.068 0-.119-.017-.153-.05-.034-.034-.085-.05-.153-.05z"/>
</svg>
