<svg xmlns="http://www.w3.org/2000/svg" xmlns:xlink="http://www.w3.org/1999/xlink" width="160" height="60" viewBox="0 0 160 60">
    <defs>
        <path id="a" d="M.314.251h2.11V6H.315z"/>
        <path id="c" d="M.406.962h1.019V6.35H.405z"/>
        <path id="e" d="M.535.101h1.89V5.49H.535z"/>
        <path id="g" d="M.147.154h.661v5.748H.147z"/>
        <path id="i" d="M.91.298h1.515v5.388H.91z"/>
        <path id="k" d="M.35.043h3.232v1.382H.35z"/>
        <path id="m" d="M0 .105h52.418v66.173H0z"/>
        <path id="o" d="M.48.435h3.234v2.798H.48z"/>
        <path id="q" d="M.095.025h3.233v5.441H.095z"/>
    </defs>
    <g fill="none" fill-rule="evenodd">
        <path fill="#EC6B4D" d="M143.697 27.18c.12-.105.196.911.238 1.088-.25-.196-.264-1.353-.238-1.088M142.155 26.366l.09.404-.45-.966zM138.713 27.013c-.024-1.741.778.184 1.067-.474l.012-.398.337 1.36c-.47-.16-1.165-1.006-1.416-.488M136.009 30.498c-.019-.678-.309-.543.227-.242l-.025.174c-.044-.006-.104.007-.202.068M135.954 30.003c.222.02-.069.58 0 0M134.477 30.236l.36.559c-.005.403-.247.527-.116.8-.333-.287-.325-.688-.244-1.359M134.064 28.665l.181.233c-.006.168-.035.232-.18-.233"/>
        <path fill="#EC6B4D" d="M134.51 29.554l-.382-.489c.003-.285-.065-.84.168.173-.09-.506.035-.025.214.316M135.85 29.61c.112-.394.286-.658-.077-1.215.576.167.65 1.383.078 1.215M138.175 23.608l.152-.528.258.552c-.129-.275-.354.514-.41-.024M131.35 32.198c-.066-.362-.034-.986-.072-1.455l.264.39c-.076.264-.247.524-.191 1.065M131.27 29.766l-.398-.586c.27-.111.363.182.398.586M133.913 27.072l.69 1.25-.792-1.254z"/>
        <path fill="#EC6B4D" d="M131.32 31.182l.29.821-.486-1.235zM130.14 30.923c.225.677-.022 1.201.177 1.61-.235-.094-.499-.667-.737-1.18.217.275.394.173.56-.43"/>
        <path fill="#EC6B4D" d="M129.527 31.02c.11.157.244.443.387.75-.115-.151-.241-.367-.387-.75M131.142 29.128c.007.225.037.81-.108 1.074l-.014-1.042.122-.032z"/>
        <path fill="#EC6B4D" d="M131.142 29.128l-.001.033c-.127.046-.217.077-.257.093l.258-.126"/>
        <path fill="#EC6B4D" d="M130.916 29.251l-.031.008c0-.101.001-.137.031-.008M133.879 25.421c-.24-.42-.687-.844-.397-1.574.201.526.035.942.397 1.574M130.654 27.801l.303-.28c.03.273.022.677.15.951l-.453-.671z"/>
        <path fill="#EC6B4D" d="M130.618 27.574l.205.305-.111.103zM129.877 30.21c-.205-.427-.368-.443-.556-.489.164-.229.345-.366.535-.389.07.32.232.886.02.877M129.326 29.545l-.041-.055c.009-.087.02-.118.041.055M124.514 30.368l.002-.19.032.178-.034.012z"/>
        <path fill="#EC6B4D" d="M129.325 29.486c.116-.218.236.021.36.329-.119-.09-.242-.142-.364-.132-.033-.146-.048-.241.004-.197M124.572 30.738c.047-.223.104-.419.171-.597-.029.336-.106.862-.17.597"/>
        <path fill="#EC6B4D" d="M129.292 29.42l.027.043c-.017.228-.024.118-.027-.042"/>
        <path fill="#EC6B4D" d="M129.55 30.025c-.094-.139-.186-.383-.276-.601.1.07.194.169.285.311 0 .076-.006.188-.01.29M122.006 22.392c.194 1.183.73 2.23.877.911.449.849.79 4.784.818 7.003-.081-.514-.151-.997-.58-1.653.024-.662.521-1.611.088-2.65-.526-.555-.302.468-.424 1.121-.029-1.504-.866-2.078-1.081-4.264l.496.715c-.041-.341-.257-.859-.194-1.183M125.11 30.083l.154.1c-.135.185-.193.584-.294 1.353a2.704 2.704 0 0 1-.444-1.092l.651-.227-.067-.134z"/>
        <path fill="#EC6B4D" d="M125.246 31.062c-.246-1.013-.632-1.403-.583-2.545.408.017.395.821.696 1.235-.68-.165.26.546-.126 1.192a.72.72 0 0 0 .386.224c-.099.14-.19.31-.269.514l.006-.066.004.003-.003-.016c.01-.131.01-.213-.014-.131l-.016-.02a45.94 45.94 0 0 0-.08-.384c-.16.237.007.272.08.384l.03.15v.014l-.72-.474c.115-.16.289-.156.609-.08M129.918 22.775c-.008.093.004.17.012.244-.062-.122-.088-.206-.012-.244M130.306 23.143c.07.153.172.61.307.472.087-.363-.074-.552-.118-.931.131.292.432.783.219 1.381l-.066-.15c-.207.43-.346 1.909-.28 2.062-.064-1.046-.097-1.794-.062-2.834M129.262 25.956l-.606-.438.153-.93.057.54c.277-.253.302.42.396.828"/>
        <path fill="#EC6B4D" d="M124.786 30.6l.221 1.084-.523-1.502zM123.054 30.409l.156.947-.263-.547zM58.794 27.768l-.198-.243a.83.83 0 0 1 .198.243M61.815 27.015l.1.462c-.092-.25-.145-.436-.1-.462M96.218 34.66c-.1.919-.15 2.334-.281 1.262l-.085-1.05c.189.16.296.028.366-.213M75.37 30.102l.02-.327c.109.35.212.67.306.973-.101-.204-.21-.419-.325-.646M75.125 26.543l-.204.717c.033-.244.096-.484.204-.717M47.506 28.731l-.34-1.033c.289-.036.239.516.34 1.033M112.27 32.486c-.141.435-.274.63-.404.7.152-.634.215-1.557.404-.7M60.597 39.313a1.347 1.347 0 0 1-.231-.612c.127.163.213.353.23.612M108.556 32.954l.07-.26c.169.153.335.271.503.179-.111.473-.273.776-.573.08M12.349 34.861c-.012.048-.021.072-.035.13-.022-.14-.001-.15.035-.13M2.886 47.805c.075.057.18.043.286.046-.044.076-.125.08-.286-.046M121.544 32.285c.158.047.04.111 0 0M120.664 26.398a2.08 2.08 0 0 1-.132-.5c.05.251.091.408.132.5M107.288 24.86l-.013.005c.016-.209.013-.169.013-.005M121.486 30.657a1.116 1.116 0 0 1-.146.338c.019-.085.064-.194.146-.338"/>
        <path fill="#EC6B4D" d="M121.56 32.384c.05-.054.081-.085.115-.12.043.17.041.282-.115.12M116.518 31.552c.085.003.158-.058.223-.143a.346.346 0 0 0-.01.172.855.855 0 0 0-.213-.029M31.854 33.615c-.004.033-.01.057-.016.104-.213-.412-.138-.351.016-.104M87.594 24.568l.024.049-.016.039zM87.335 22.973c.387 1.036.494.886.634.634l.191 2.508-.825-3.142z"/>
        <path fill="#EC6B4D" d="M30.96 42.38l.11-.354c-.404-.313-.26.002-.11.355m85.977-12.498c.104.167.122.343.114.524-.101-.31-.283-.307-.473-.187.014-.343.084-.588.359-.337m-.723.67l-.026-.06c-.319.553-.207.338.026.06m-38.976-3.146c-.189-.401-.355-.163-.508.35.174.08.355.004.508-.35m-13.995-.981c-.21-.243-.677-1.013-.69-.243.408 1.425.456.707.69.243m-9.023.539l.444-1.119c-.964-1.573-1.397-.913-1.05-2.443.606 3.562 2.365.013 2.97 3.571l.285-.81c-.107.05-.156-.158-.262-.105.514-1.826.943 2.496 1.856 1.838.303-.325.465-.881.17-1.269l.893.767c.212-.106.064-.714-.144-.613l1.206.107-.022-.104c.247.535.75 1.342.987 1.685.224-.56-.202-.356-.191-.813l.773.764c.129-.965-.543-1.78-.965-1.58.078-3.66.666.816 1.661-1.466l-.677-.36c.096-2.09.682-1.425 1.185-2.793-.07.686-.913 3.393-.08 4.176.157-.298.396-.468.881.194-.185-1.27.23-1.016.705-1.016l-.281-1.678c.571.412.66 1.273 1.066 1.988.529-.252.455-1.572.424-2.69.85-.404-.312 2.18.793 2.34.647-.76 1.27-.152 2.305.718.433-.657-.244-1.013-.126-1.523L69.68 26c.107-.049.011-.453-.037-.661.464.461.28 1.675.954 2.042.441 1.828.855-2.903 1.916-.914.119-.503-.24-1.017-.28-1.675 1.241 1.221 1.039.866 2.158 2.594l.563-1.216c-.344 1.347.554 2.737 1.329 3.874a91.387 91.387 0 0 1-.253 1.468l1.085.758c.074-.292-.104-.856-.363-1.536.078.131.16.258.232.376.248-.67-.068-1.615-.452-2.52-.059.35-.126.72-.192 1.09-.386-.984-.768-2.082-.868-3.075a.902.902 0 0 0 .382.406c-.104-.267-.18-.51-.175-.683.007-.18.158.176.379.583l-.063-1.91.164.738 1.072-1.365c1.164 1.75 2.348 4.412 3.876 4.97-.554-1.322-.407-2.236-.664-3.86-.135 1.783-1.2-.567-1.884-.104.353-.242.16-1.005.02-1.259l1.536 1.368c-.226-1.328.133-1.04.392-1.645.126 2.672 1.23 1.604 1.877 2.334-.094-.893-.354-1.775-.972-1.461.424-2.095 1.38 2.95 1.832 1.16-.161.003-.226.15-.353-.29.486.731 1.294-.028.973-.77l-.16.007c1.004-.472 3.195-.506 3.676 1.707-.06-.284-.564-2.67-.66-3.118l2.972 7.242c-.446-1.896-.477-6.571-1.51-7.524.212-.31.477-.678 1.104-.081-.135.301-.025 2.842.238 2.984.329-2.238.277-1.21.799-3.156-.195.451.526 3.423.918 3.264-.132-.442-.399-2.98-.591-3.272l1.435 2.805c-.328-.494-.41-2.498-.304-3.369-.02.596.863-.187 1.174.066l-.33.748c1.076-.619 1.723 3.994 2.83 3.668-.225-.592-.88-3.711-.359-4.17.48 1.474 2.212 7.114 3.375 8.129l.067-.894.904.869c-.803-2.206-2.825-6.806-3.823-8.56.324-.752-.03-1.04.62-1.057.106-.846-.526-1.18-.722-1.2l1.41-.75c.188 1.783 1.39 1.603 1.542 3.086l-1.874-1.59c.187 1.775 1.655 4.88 2.66 4.409.164-.744-.65-3.117-.714-3.713.224.589 1.163 1.014 1.201.567l-.582-.88c.49-.753 1.288 2.204 1.754.407.227-.147.4-2.389.59-1.346-.108 2.081.7 8.338 1.18 9.816.064-.15.994-2.12 1.132-3.162.177-1.643-1.131-3.682-.985-5.095.087.482.39 1.044.507 1.223.2-.452-.313-1.483.271-1.35.345 1.783 1.103-.318.475 1.483.61.43.523-.456 1.172-.473-.041 1.191 1.122 3.86 1.733 4.29-.092-.451-.054-1.064-.035-1.343 1.09-.327 1.573-1.233 2.605-1.403.033-.45.46-1.05.144-1.792.193.296.411.886.74.88.402-1.643-.748-.136-.532-2.069.18 1.038 1.022 1.317 1.569 1.901.08 1.631-1.012.466-1.558-.119.305 2.223 1.422 4.433 2.64 5.303.933.426.175-1.492.368-1.196 1.56-.628 1.897 3.676 3.02 1.876.337-1.497-.358-2.822-.376-3.86-.773-.434-.954 1.056-1.438 1.068l.496-.757c-.288-.435-.803-.724-.998-.276.273-1.34 2.693-.65 3.782-2.006.284.443.729.878.625 1.473l-.419-.139c-.212 1.197.953 1.472.522 2.078.637.725 1.397 1.9 2.05 1.147l-.072-1.636c.044.474-.358 1.033-.634.57.403.673.853-2.349 1.473-.283l-.375 1.194c.633.736 1.511 2.359 2.104 1.755-.09 1.637-.177-.162-.397 1.771.097-2.38-1.668.343-1.339-2.192-.194 2.234-.707 1.038-1.088 2.975-.054-.533.089-1.051-.43-.707-.06-.148-.138-.34-.182-.452l-.034.045.02-.068c-.032-.074-.035-.091.012-.023.1-.253.17-.548.173-.853-.438-1.183-1.309-1.017-1.694-1.602-.292.298.219.59.12 1.184l-.573-.882c.116 1.19-.607 2.095.257 2.676l-.685.155c-.318.725-.847 1.07-1.257.623-.296.305-1.007-1.187-.596-.304l-1.186-.573.031.3c-1.052.306-2.48-1.635-3.417.685-.4-.246-.824-.556-1.388-.129l.024 1.04c-.51-.288-1.25 1.232-1.596.196-.116 2.829-2.168.94-2.916 1.55l-.22-1.33c-.555.16-1.144-.138-1.917-.572l-.126-1.186c-.739-.88-1.432 1.07-2.398 1.095.127.442.353.288.484-.009-.756 2.837-2.68-1.574-3.434.522-.317-.39-.483-.217-.62.106 0 0 .046.021.072.053a.205.205 0 0 1-.105.03c-.085.223-.186.475-.267.686.066-.305.136-.557.21-.68-.202.007-.526-.096-.863-.344l.058 1.283c-.023-.01-.043-.008-.072-.025-.221.513-.32-.566-.302-1.542a2.959 2.959 0 0 1-.502-.702c.063 2.078-.873-.573-.88 1.657-.352-1.035-1.599-.576-2.08-2.79.03.294-.034.444.127.44-.29.304-.582.609-.972.025l.097 1.632-1.035-2.058c-.293 1.048-.392 1.645.222 2.818-1.325-1.746-.954-.588-2.119-2.342l.196 1.035c-.323.008-1.037-1.307-1.105-.417-.42 2.087-3.481.81-5.039 2.93-.093-3.122-.649 1.502-1.065-.861-.003.74-.198 1.187.192 1.774-1.04-.57-1.233 1.366-2.172-.538.003.742.357 1.03.323 1.474-.097-.146-.385-.585-.419-.139-.033.447.224.59.416.882-.966.024-1.39-2.195-1.773-4.28-.337 1.065-.599.963-1.147-.357-.07.707-.242 1.47.388 1.625-.32.151-1.888 1.318-2.17-.36-.044.445-.448.197-.565.018-.734.213-.776.374-1.534.33l.165-.307c-.59-1.984-.677-.36-1.307-.51l.048.203c-1.138 1.67-.686-.612-1.782 1.262l-.113-1.27c-.525-2.695-.949 1.78-1.877.86l.172-.762c-.56-.863-.644 3.874-1.018 4.278-.06.25.202.355.357.51-.883 1.773-.389-1.632-1.275-1.89-.022.915.527 2.238-.007 2.491-.171.763-2.047-2.647-2.56-.818.069-.714.133-1.428-.33-1.882-.63-.155-1.22 2.842-2.07.759-.048.197-.05.38-.028.553-.536-.49-1.609-.707-2.054-1.839.22 4.423-3.127-1.69-2.527 2.328l-1.425-.004.096.408c-.854.4-1.307-.514-1.76-1.43-.166.303.037.658.085.866-1.181 1.006-1.34.855-2.717-.984l.074 1.324c-.405-.715-1.587 2.33-3.086 1.002.034.145.1.397.225.564-1.653-1.314-2.923 4.141-4.127-.531l-1.117-1.029c1.175-.552-.474-2.035-.08-2.902-.522-.204-1.046 1.623-.417 1.778l.06-.253c.57 2.447-1.4 1.108-1.13 2.788-2.434.238-4.597 1.966-6.848 2.409l-.004-1.966-.772.23c-.148.479-.073 1.547.48 1.384-.143 1.136-1.072-.774-1.143-1.193-.998.944.737 2.184.408 2.279l-.482-.075.072-.24c-.481-.732-.628-1.563-1.291-1.368-.378.45-.057 1.222-.214 1.322.016.134-.03.206-.256.09l-.973.313.193-1.578c-.541-.685-.926.215-.698-1.576-.315 2.756-3.586 1.505-3.889 2.39-.767-1.02-1.37-.914-2.11-.672.145-.342.033-2.068-.587-1.766.7 3.496-.997 1.705-1.193 4.324.255-1.752-1.912-.146-1.479-2.651-.505.367.137 1.327-.17 2.22-1.47-1.182-2.74 1.309-4.41 1.068-.08-.462.1-1.208-.33-1.85l-.563 2.44c-.347-.182-.616-2.638-1-.947.035-.4.085-1.008-.148-1.126-2.878 2.71-6.624-.953-9.356 3.733.338-.962.038-1.011-.3-1 .19-.246-.13-1.147-.157-1.785l-1.15 1.934c-.428-1.72-1.448.075-1.762-1.58l.45.244c-.765-1.9.326-4.498-.026-7.02.869 2.16 1.284-3.547 2.658-.474.17-.544-.281-.788-.226-1.393.38 1.053.718 1.236 1.244.672l-.094-.262c1.66.043 2.239-1.115 3.984-2.088l.013 1.269c.372-.22.406-.628.557-.964.676 1.834-1.097.26-.435 2.294.221-2.62 2.775-.429 2.779-3.369.605-.1-.002 1.472.603 1.37l.065-.804.276.986c.378-.221.458-1.228.39-1.892-.085.092-.295-.147-.406-.19.4-.994 1.488.112 1.63-.216l-.521.564c1.739.507 3.63-.82 5.432.539l-.05.607c1.366.914.898-.788 2.303-.476l-.068-.133c.348.548.742.794 1.103.673-.43-.643.457-1.433-.087-2.133 1.48.979.777.825 1.944 2.887l.07-1.006c.415.843.504 1.302 1.206 1.457-.662-.757.23-1.551-.532-2.572 1.12-2.345 2.38 1.852 2.6-1.37 1.013 2.61-1.012 1.682-.574 2.208-.181.93.809 1.943 1.214 1.606.44-.127.295-3.574 1.43-3.69-.11.032-.147-.17-.258-.142.33-.752.958.81 1.321-.388.519 1.593.664-.192 1.034 1.881l-1.106-.33c.662.458 1.551 2.815 2.359 1.489-.138-.41-.5-.919-.743-1.196.198-.66.604.324.811-.348-.37-2.076-1.326-.27-2.173-1.766.187-.927 1.4 1.332.773-.88.852 2.809 1.06-.526 2.13 1.555l-.223-1.243c.148.178.48.732.7.665l-.628-1.56c.81 1.29 1.027-1.39 1.721-.724-1.249.148-.068 1.547-.468 2.54 1.767 1.443.426-3.402 2.227-3.063-.257-.138-.768.883-.32 1.408.291-.305.654-.85.764-1.535 1.172.087.004 1.31.594 2.005.178-1.578.649.536 1.215.95l-.176-1.272c1.181-1.01.72 2.595 1.746 1.435l-.742-1.688.674.367-.33-1.426c.816.973.98.663 1.574.16-.027.92.41 2.293.992 2.244.283-.813-.39-1.173.449-1.116-.298-.764-.64-1.732-.826-.508-.137-.402-.26-.777-.395-1.172.301-.934 1.033-.36 1.33-.394-.109.068-.23.155-.278.346l1.434 1.582c.118-.507-.085-.866-.281-1.219.255.1.506.66.875.716-.24-1.021-.373-2.088-.939-2.5l1.287.977c.01-.461.401-1.32.198-1.68.536-.698 1.82 1.773 2.533.845a.902.902 0 0 0 .381.492c.743-.347 1.25-1.72 2.376-.444l.253-1.928c.784.306-.37 2.438.932 2.95.939.461.091-1.626.316-2.186.554.867 1.567 2.652 2.13 1.027-.31-.307-.47-.001-.732-.103"/>
        <path fill="#EC6B4D" d="M74.893 26.58c-.002.2.023.415.048.634a1.028 1.028 0 0 1-.048-.634M47.23 27.891l-.015.015-.049-.208zM102.165 22.26c-.079.183-.106.404-.113.627-.045-.28-.035-.528.113-.626M121.965 32.915l-.362-.257c.163.037.18-.225.235-.42.03.274.025.674.127.677M123.58 23.779c.067.133.102 0 .17.137l.06.543c-.205-.01-.405-.423-.23-.68M122.234 26.307c-.11-.978.138-.677.388-.526 0 0-.028-.01-.042.006.257 1.354-.044.937-.346.52"/>
        <path fill="#EC6B4D" d="M122.13 25.645c.074.038.148.052.211-.004.103.544-.068.126-.212.004M116.729 31.518c.072-.267.241 1.235.246.831.295 1.22-.923-1.402-.246-.831M122.087 24.015l.087 1.214-.261-.95zM120.332 24.627l.312-.383c.026.202.086.314.154.394-.214.074-.426.346-.466-.01"/>
        <path fill="#EC6B4D" d="M120.28 24.307c.112-.037.225-.03.317.16a.447.447 0 0 1-.317-.16"/>
        <path fill="#EC6B4D" d="M120.647 24.243l-.073.267-.242.124zM111.235 26.653l-.442-.287c-.1-.406-.028-.673.142-.533.135.277.304.414.3.82M113.667 22.668c-.069.266-.04.533-.044.94l-.223-1.49.267.55zM110.638 23.684c-.097-.407-.741-1.107-.23-1.083.1.403.545.693.23 1.083M102.464 25.487l.102.009.46 3.175zM93.79 22.036c.399-.545.29 1.204.624.55.18.448-.272.532-.103.919-.353-.45-.459-.15-.52-1.469M93.975 23.558c.06.089.123.2.199.348a1.47 1.47 0 0 1-.2-.348M1.659 48.32l-.24.549.094-.847z"/>
        <path fill="#EC6B4D" d="M1.545 48.017l.118 1.57-.351-1.392c.075.06.225.18.233-.178M64.969 24.878l.078.371c.016.413-.05.453-.18.536l.102-.907zM58.418 25.949l.065-.043.082 1.427zM53.057 23.499c.131-.08.341.211.472.128-.34-.208-.249 1.634-.472-.128"/>
        <g transform="scale(1 -1) rotate(-81 11.49 -82.626)">
            <mask id="b" fill="#fff">
                <use xlink:href="#a"/>
            </mask>
            <path fill="#EC6B4D" d="M1.132 1.608C1.277 1.51.446.475.314.25c.052.563 1.031 1.638.818 1.357" mask="url(#b)"/>
        </g>
        <g transform="scale(1 -1) rotate(-81 14.776 -86.445)">
            <mask id="d" fill="#fff">
                <use xlink:href="#c"/>
            </mask>
            <path fill="#EC6B4D" d="M.713 1.436L.406.962l.624 1.47z" mask="url(#d)"/>
        </g>
        <g transform="scale(1 -1) rotate(-81 16.222 -86.668)">
            <mask id="f" fill="#fff">
                <use xlink:href="#e"/>
            </mask>
            <path fill="#EC6B4D" d="M.535 2.575c1.484 1.487.2-1.288.896-1.159l.346.318L.765.101c-.078.825.33 2.538-.23 2.474" mask="url(#f)"/>
        </g>
        <path fill="#EC6B4D" d="M98.67 52.275c.438.513.588.237-.03.322a5.325 5.325 0 0 1-.09-.153c.04-.019.081-.065.12-.17M98.721 52.487c-.191.116-.306-.488 0 0"/>
        <path fill="#EC6B4D" d="M99.567 53.206l-.637-.22c-.247-.317-.127-.552-.404-.689.446.025.69.343 1.041.91M100.727 53.83l-.29-.074c-.1-.135-.114-.202.29.075M98.78 53.894l.61.159c.173.221.575.612-.241-.037.387.338-.014.038-.37-.122"/>
        <path fill="#EC6B4D" d="M99.006 53.858c.157.371.183.678.82.895-.563.21-1.386-.687-.82-.895"/>
        <g transform="scale(1 -1) rotate(-81 16.36 -88.422)">
            <mask id="h" fill="#fff">
                <use xlink:href="#g"/>
            </mask>
            <path fill="#EC6B4D" d="M.283.804l.523.24-.355-.89C.625.597-.157.24.283.804" mask="url(#h)"/>
        </g>
        <path fill="#EC6B4D" d="M99.87 50.448c.278.244.639.747.962 1.088l-.456-.147c-.102-.249-.124-.553-.506-.941M100.123 52.045l.68.222c-.148.243-.4.074-.68-.222M101.703 54.207l-1.327-.566 1.41.51zM100.609 50.917l-.739-.47 1.151.676zM100.758 50.017c-.6-.4-.728-.958-1.14-1.165.248-.062.816.234 1.325.497-.344-.09-.426.097-.185.668M105.178 48.452c-.186-.056-.468-.204-.77-.36.183.047.419.147.77.36M105.239 50.593c-.142-.171-.529-.607-.579-.904l.655.81-.076.094zM104.964 51.507l-.02-.026c.074-.113.127-.19.151-.224-.018.03-.056.104-.13.25M104.917 51.308l.018-.026c.066.082.083.108-.018.026M105.166 52.883c.547.273 1.271.44 1.641 1.31-.607-.4-.816-.895-1.641-1.31"/>
        <path fill="#EC6B4D" d="M105.69 51.543l-.068.393c-.192-.195-.435-.513-.709-.65l.777.257zM105.54 53.137l-.352-.114.023-.148zM104.707 49.682c.427.214.567.133.746.058.01.274-.054.487-.188.616-.252-.209-.73-.559-.558-.674"/>
        <path fill="#EC6B4D" d="M104.913 51.286l.065.019c.048.074.06.105-.065-.02M109.472 48.927l.116.152-.134-.123z"/>
        <path fill="#EC6B4D" d="M105.41 51.38c.04.24-.204.121-.49-.046.151-.001.28-.031.373-.108.116.093.185.157.116.155M106.34 49.47c.102.203.173.388.232.57-.185-.28-.445-.739-.231-.57M104.775 49.818l-.049-.019c-.124-.186-.052-.106.05.019"/>
        <path fill="#EC6B4D" d="M104.913 51.286c.159.05.384.191.59.31a1.179 1.179 0 0 1-.42-.079c-.044-.058-.108-.15-.17-.231M118.04 52.48c-1.194-.573-2.79-.826-1.997.069-1.314-.193-4.848-2.305-6.593-3.618.522.25.987.488 2.134.577.47.418.465 1.337 1.901 1.654 1.205-.041.085-.492-.232-.973 1.2.882 2.873.636 4.865 1.8l-1.272-.082c.316.175 1.035.334 1.193.573M106.78 49.065l-.18.013c-.01-.225-.205-.57-.596-1.238.496.173.785.39 1.025.603l-.383.555.135.067zM106.944 49.982c1.214.828 2.036.923 3.007 2.108-.508.306-1.22-.517-1.957-.697.972-.363-.813-.348-.93-1.302a1.264 1.264 0 0 0-.672.076 2.587 2.587 0 0 0-.135-.73l.05.072h-.004l.017.015c.106.14.177.219.133.124l.04.006.445.325c-.023-.366-.254-.27-.445-.325l-.173-.13-.012-.015 1.306-.084c.005.255-.215.383-.67.557"/>
        <g transform="scale(1 -1) rotate(-81 21.54 -91.209)">
            <mask id="j" fill="#fff">
                <use xlink:href="#i"/>
            </mask>
            <path fill="#EC6B4D" d="M1.114.513C1.03.448.972.373.911.298c.077.183.136.29.203.215" mask="url(#j)"/>
        </g>
        <path fill="#EC6B4D" d="M108.434 55.083c-.141-.089-.48-.423-.503-.203.142.38.373.436.624.74-.269-.17-.782-.392-.96-1.066l.137.086c-.089-.521-.83-1.92-.97-2.01.65.875 1.105 1.513 1.672 2.453"/>
        <path fill="#EC6B4D" d="M106.763 52.63l.75-.011.454.818-.379-.388c-.064.357-.499-.154-.825-.42M106.845 48.564l-.841-.724 1.337.878zM109.9 47.989l-.703-.655.545.277zM146.971 17.154l-.003-.353a.7.7 0 0 1 .003.353M147.551 18.355l-.337.331c.142-.218.266-.366.337-.331M130.592 34.064c-.458-.805-1.24-1.98-.512-1.183l.68.802c-.245-.023-.252.145-.168.38M150.066 29.44c.124.016.26.03.394.049l-1.52.093c.353-.042.728-.092 1.126-.142"/>
        <g transform="scale(1 -1) rotate(-81 63.415 -107.334)">
            <mask id="l" fill="#fff">
                <use xlink:href="#k"/>
            </mask>
            <path fill="#EC6B4D" d="M.737.95L.35.043C.453.43.575.74.737.95" mask="url(#l)"/>
        </g>
        <path fill="#EC6B4D" d="M139.404 10.713l.488-.975c.235.183-.193.538-.488.975M116.847 43.654c-.15-.428-.157-.656-.096-.79.258.594.76 1.366.096.79M133.877 27.48c.106-.157.243-.323.413-.487a1.83 1.83 0 0 1-.413.487M116.73 39.83c.043.105.065.16.098.25-.226-.026-.433-.026-.51.144-.192-.442-.241-.777.412-.393M106.773.28c-.038.032-.058.052-.104.089.058-.13.082-.125.104-.089M90.102 9.44c.032.08.119.11.193.147-.063.056-.126.03-.193-.146M110.64 45.5c-.155.053-.099-.067 0 0M114.24 48.172c.108.061.23.15.407.318a2.94 2.94 0 0 0-.407-.318M126.762 44.562l.008-.011c.113.175.091.142-.008.01"/>
        <path fill="#EC6B4D" d="M110.633 45.833a1.12 1.12 0 0 1-.088-.35c.038.077.069.19.088.35"/>
        <path fill="#EC6B4D" d="M110.692 45.485l-.02.16c-.14-.109-.205-.196.02-.16"/>
        <path fill="#EC6B4D" d="M110.739 45.453c-.071.047-.093.136-.093.24a.33.33 0 0 0-.094-.138c.043-.017.1-.046.187-.102M121.324 9.647c-.027.02-.044.037-.081.069.111-.453.126-.358.08-.069M145.482 38.382l-.06-.013-.008-.045.068.058zM149.951 35.969c-2.533-.064-2.518.07-2.5.302l-4.14-.887 3.268.315c1.69.134 3.372.27 3.372.27"/>
        <g transform="scale(1 -1) rotate(-81 43.565 -52.737)">
            <mask id="n" fill="#fff">
                <use xlink:href="#m"/>
            </mask>
            <path fill="#EC6B4D" d="M18.007 21.193l-.183.429c-.417.096-.131-.148.183-.429m28.634-2.156a1.464 1.464 0 0 0-.407-.49c.235.321.183.485.035.571.286.24.507.352.372-.081m-.741.168l.041.066c-.538-.112-.331-.056-.041-.066M37.284 59.65c.051.928-.107.74-.328.02.048-.356.145-.438.328-.02m-9.516-2.228c-.231.22-.849 1.025-.645-.138.748-1.835.565-.744.645.138m-6.592-7.02l-.39 1.504c-1.493 1.295-1.369.306-2.055 2.228 2.442-3.732 1.424 1.239 3.842-2.524l-.303 1.076c-.031-.112-.18.102-.214-.016-.707 2.417 2.11-2.248 2.421-.846.08.632-.038 1.484-.465 1.744l1.083-.29c.124.295-.252 1.004-.387.698l1.038.8-.062.122c.414-.54 1.104-1.315 1.4-1.641-.037.943-.282.367-.444 1.014l.848-.566c-.22 1.5-1.01 2.208-1.293 1.58-1.18 5.35.78-.682.948 3.432l-.703.01c-.49 3.222.248 2.723.465 5.348.007-1.223-.069-6.056.866-6.607.052.571.228 1.025.766.326-.428 1.866-.014 1.78.383 2.121l-.525 2.519c.59-.204.787-1.565 1.221-2.458.394.786.197 2.978.076 4.88.738 1.34-.072-3.957.883-3.442.476 1.744 1.07 1.152 1.828.179.352 1.478-.162 1.713-.058 2.717l.469-1.932c.082.158.03.856.003 1.208.331-.576.131-2.942.573-3.263.086-3.299.927 6.037 1.448 2.768.173 1.071.004 1.897.09 3.187.704-1.728.642-1.106.98-4.135-.018-.076.7 2.947.682 2.682-.286-1.25-.382-2.758-.4-4.048-.02-1.606-.041-3.222-.058-4.69-.204-1.112-.376-2.08-.462-2.55l.1-2.503c.1.484.213 1.708.324 3.263-.01-.332-.024-.653-.035-.954.27 1.035.459 3.024.566 5.089l-.376-1.75c.135 2.224.255 4.722.48 6.654-.01-.454.017-.912.062-1.234.03.617.062 1.153.113 1.459.052.32.028-.53.01-1.54l.546 3.456-.145-1.519c-.017.026.993.857 1.01.826.007-4.609-.562-10.288-.348-12.68.4 2.585.848 3.82 1.493 6.542-.858-2.514-.296 2.406-.848 2.65.269-.096.49 1.367.517 1.964l.11-2.131.066-2.07c.493 2.289.535 1.381.96 1.891-1.205-4.068-.198-3.936-.294-5.74.428 1.325.776 2.865.314 3.262 1.32 2.254-.928-5.802.203-3.91-.069.194-.176.076.01.816-.2-1.54.556-1.57.86-.26l-.073.204c.728-.75 1.77-3.697.362-6.399.197.321 1.666 3.32 1.914 3.946 0 0-.924-2.824-1.993-5.338-1.052-2.549-2.252-4.787-2.252-4.787 1.259 2.213 4.842 6.245 5.122 8.412.327.005.748-.076.558-1.397-.307-.046-2.231-2.33-2.249-2.743 1.877 1.464 1.035.72 2.85 1.51-.456-.082-2.608-3.182-2.37-3.437.324.46 2.356 2.565 2.518 3.018.045-.091-1.832-3.635-1.88-3.533.338.643 2.007 2.121 2.763 2.641-.504-.403.369-.642.234-1.101l-.714-.235c.787-.525-2.931-4.359-2.38-5.123.442.617 2.901 3.41 3.412 3.268-1.121-1.474-5.422-7.02-5.981-8.795l.765.571-.503-1.438c1.649 2.295 5.001 7.383 6.229 9.519.71.234.866.76 1.042.189.738.504.862 1.305.827 1.493l.973-.729c-1.445-1.427-1-2.38-2.204-3.574l.87 2.81c-1.442-1.423-3.684-4.946-3.04-5.517.666.377 2.453 2.804 2.936 3.283-.438-.622-.562-1.769-.18-1.478l.594 1.147c.752.097-1.525-2.728.09-1.86.182-.098 2.096 1.345 1.272.427-1.762-1.386-6.795-6.587-7.909-8.075.142.046 2.025.611 2.929 1.233 1.414 1.02 2.79 3.661 4.007 4.538-.382-.418-.776-1.096-.896-1.33.427.147 1.159 1.345 1.19.723-1.397-1.59.545-.76-1.114-1.488-.207-.862.51-.143.686-.714-1.004-.821-2.939-3.793-3.139-4.66.349.413.87.82 1.11 1.004.546-.75 1.418-.53 1.819-1.335.382.29.99.341 1.524 1.167-.197-.387-.631-1.015-.545-1.305 1.466.836-.076.775 1.587 1.988-.818-.923-.838-1.881-1.187-2.799-1.331-1.259-.638.571-.293 1.489-1.766-1.892-3.322-4.502-3.728-6.246-.114-1.157 1.28.928 1.086.54.917-.952-2.56-4.42-.78-4.119 1.321.79 2.242 2.397 3.098 3.177.162 1.014-1.121.086-1.252.515l.752.107c.29.58.396 1.254-.024 1.106 1.176.734 1.217-1.958 2.617-1.942-.293-.582-.538-1.31-1.059-1.657l.01.484c-1.04-.693-.972-1.948-1.582-2.009-.435-1.111-1.207-2.671-.418-2.712l1.332 1.28c-.38-.393-.945-.439-.635.153-.448-.867 2.156.973.617-1.122l-1.083-.55c-.441-1.122-1.545-3.126-.893-3.218-1.373-1.137.086.28-1.566-.953 1.987 1.677-.717 1.27 1.46 2.85-1.894-1.484-1.042-.128-2.743-1.208.428.443.89.698.473.917.107.163.245.377.327.5 0 0-.027-.005-.048-.005l.062.03c.055.087.066.102.02.01.235.092.498.25.75.47.865 1.274.5 1.942.89 2.727-.328.046-.432-.637-.953-.979l.583 1.168c-.955-.979-1.89-.984-2.145-2.203l-.304.515c-.683-.24-1.107-.01-.845.694-.327.046.725 1.79.097.764l.169 1.504-.238-.244c-.531.739.714 3.451-1.452 2.62.1.546.248 1.158-.249 1.362l-.858-.775c.107.678-1.352.26-.576 1.32-2.387-1.927-1.342 1.315-2.042 1.56l1.055 1.152c-.272.388-.176 1.142-.01 2.157l.959.958c.548 1.3-1.26.536-1.525 1.408-.338-.434-.152-.526.135-.434-2.577-1.32.641 3.554-1.308 2.758.245.566.06.592-.251.49 0 0 0-.056-.024-.102-.021.005-.038.036-.052.071-.207-.076-.445-.163-.642-.24.273.154.5.27.625.291-.06.179-.056.54.072 1.025l-1.07-.953c.008.03-.003.046.004.081-.486-.158.397.688 1.221 1.361.114.291.262.612.47.949-1.74-1.514.261 1.198-1.618-.362.396.505.396 1.02.565 1.534.207.444.514 1.05 1.356 2.106-.228-.255-.355-.336-.331-.438-.283-.046-.545-.138-.156.632l-1.217-1.504s.355.622.707 1.249l.683 1.305c-.821-.76-1.221-1.351-2.01-2.83 1.106 2.499.347 1.081 1.355 3.753l-.656-1.265c-.034.184.683 2.203.107 1.234-.686-1.055-.903-.77-1.148-.377-.242.377-.532.913-1.07-.286 1.287 5.058-.693-2.024.204 2.111-.29-1.223-.476-1.871-.659-3.084.086 1.631-.555-1.744-.058 2.289l-.418-2.901c.038.316.142 1.3.007.49-.134-.816-.155-1.224-.231-1.862-.045.403.493 4.936.993 9.198-.372-1.734-.362-1.397-.176 1.698-.193-1.331-.39-2.738-.31-3.529-.076.368-.697-2.375-.507 1.132-.083-.912-.169-.428-.183-.076-.269-.5-.29-.81-.534-.79l.072.611c-.083 3.783-.238.597-.448.8l.013-.376c-.372-3.253-.307.968-.579-2.555l-.148 2.233c-.47 4.625-.21-3.314-.625-1.83l-.058 1.31c-.435 1.244.49-6.485.58-7.025.054-.388.137-.556.206-.8.307-2.698-.507 2.538-.835 2.865.27-1.377.783-3.375.76-3.727.296-1.015-1.436 3.762-.898 1.142-.286.958-.541 1.963-.896 2.498-.352.01.928-3.84-.393-1.361a6.3 6.3 0 0 1 .275-.683c-.43.514-.945.555-1.807 1.702 2.784-4.812-2.718.47-.007-3.777l-.793-.668.293-.413c-.231-.847-1.031-.036-1.831.77.093-.424.417-.72.565-.928-.045-1.713-.214-1.606-2.09-.245l.842-1.433c-.66.581.545-3.34-1.073-2.636.11-.142.297-.382.47-.504-1.719.591 1.01-5.97-2.57-1.504l-1.249.535c.286 1.218-1.538 1.948-1.873 3.095-.414-.061.459-2.315.893-2.147l-.127.306c1.852-2.345-.052-1.942 1.162-3.604-1.162-1.525-1.17-4.523-2.045-6.185l-1.3 2.05-.26-.663c.242-.576.987-1.647 1.17-1.178.676-1.259-1.073.225-1.386.612.117-1.53 1.831-1.85 1.724-2.141l-.297-.184-.12.291c-.735.495-1.363 1.27-1.573.698.107-.673.786-1.29.773-1.478.103-.128.124-.23-.066-.235l-.286-.856-.966 1.723c-.742.398-.331-.744-1.424 1.214 1.686-2.978-.814-3.56-.352-4.635-1.09.576-1.325.107-1.528-.56-.166.422-1.428 2.064-1.535 1.391 2.797-3.023.697-2.269 2.466-4.935-1.124 1.85-1.028-.979-2.604 1.682.01-.657 1.014-1.193 1.504-2.233-1.576.255-.387-2.855-1.304-3.63-.38.373-.848 1.173-1.524 1.5l1.552-2.575c-.294-.041-2.256 2.013-1.17.244-.282.388-.714.964-.91.928.762-4.11-3.77-3.569-1.066-9.029-.662.943-.81.795-.928.571-.127.311-.986.79-1.517 1.26L7.894.427c-1.59.958-.48-1.005-1.987-.056l.38.142c-1.9.78-3.629 3.447-5.853 5.058 2.145-.948-2.339 3.854.79 2.57-.36.57-.766.402-1.225.927 1.024-.53 1.324-.418 1.12.46l-.25.132c.82 1.274.15 2.748.296 4.91l.976-1.102c.014.474-.276.857-.459 1.27 1.732-1.112-.341-1.05 1.538-2.335-1.89 2.462 1.025 2.406-1.176 5.073.235.53 1.097-1.336 1.328-.816l-.562.785.873-.709c.024.47-.676 1.453-1.2 2.02.02-.149-.263-.077-.352-.118-.525 1.208.855.974.686 1.377l.145-.903c1.248.79 1.29 3.37 3.21 3.243l.408-.617c1.355.005-.093 1.361.862 1.988l-.13.087c.561-.311.948-.311 1.051.036-.673.362-.748 1.718-1.524 2.064 1.469-.025.99-.316 3.028-1.652l-.655 1.056c.8-.581 1.162-.994 1.638-.714-.87.352-.942 1.708-2.042 2.259-1 3.105 2.525-.403.472 3.023 2.308-2.06.583-2.335 1.18-2.605.528-1.056 1.745-1.5 1.735-.913.148.388-2.245 3.84-1.7 4.655-.038-.097-.194.092-.238-.005-.318.984 1.062-.26.465 1.208 1.335-1.346.235.607 1.804-1.336l-.814-.32c.666-.072 2.697-2.01 2.263-.17-.342.353-.876.679-1.194.827-.32.805.549.01.218.836-1.563 1.958-.91-.484-2.356.56-.514 1.087 1.649-.555-.155 1.388 2.314-2.437.248 1.187 2.2-.373l-.935 1.178c.2-.102.745-.49.825-.29L11.212 35.8c1.29-.882-.328 2.085.497 1.795-.604-.898.962-1.688 1.38-2.973 1.91-.51-1.97 3.88-.725 4.568-.238 0 .128-1.386.717-1.692a6.08 6.08 0 0 1-.548 2.085c.724.581.838-1.402 1.618-1.81-.907 1.795.703-.209 1.283-.331l-.904 1.27c.028 1.763 2.045-2.402 1.887-.567l-1.48 1.407.607-.01-1.083 1.356c1.073-.591.966-.158.993.72.56-1.015 1.666-2.27 1.966-1.908-.345 1.046-.952 1.071-.438 1.469-.645.678-1.445 1.545-.79.102-.327.362-.63.703-.955 1.065-.407 1.183.373.964.524 1.168a.9.9 0 0 1 .052-.535l1.797-.949c-.245.622-.58.908-.914 1.188.21.03.697-.449.942-.31-.763.993-1.494 2.1-2.073 2.237l1.341-.362c-.275.515-.579 1.683-.914 1.968-.117 1.086 2.135-.968 1.987.444.159-.179.335-.316.52-.347.222.79-.303 2.6 1.115 1.77l-1 2.314c.641.066 1.231-2.942 2.3-2.84.821-.04-.91 1.881-1.11 2.63.848-.687 2.486-2.196 1.866-.06-.363.193-.283-.24-.494-.26" mask="url(#n)"/>
        </g>
        <g transform="scale(1 -1) rotate(-81 62.83 -106.834)">
            <mask id="p" fill="#fff">
                <use xlink:href="#o"/>
            </mask>
            <path fill="#EC6B4D" d="M.649 1.676C.58 1.317.529.881.48.435c.006.475.051.95.168 1.241" mask="url(#p)"/>
        </g>
        <path fill="#EC6B4D" d="M136.626 13.693h-.023l.113-.178zM133.683 45.705c-.047-.19-.156-.382-.283-.568.205.203.34.408.283.568M108.945 45.74l.447-.005c-.153.064-.01.283.065.468-.188-.196-.426-.519-.512-.462M112.658 55.482c-.135-.067-.083.056-.218-.014l-.38-.389c.166-.11.58.102.598.403M111.617 48.784c.684.707.302.61.012.636 0 0 .028-.01.028-.027-1.03-.92-.533-.763-.04-.609M111.65 50.354c-.083.017-.15.047-.167.125-.412-.367-.022-.137.167-.125M111.469 46.246c.105.252-.942-.84-.7-.514-.975-.802 1.584.577.7.514M115.301 50.675l-.808-.906.785.599zM118.113 49.315l-.015.48a.73.73 0 0 0-.363-.224c.129-.18.128-.515.378-.256"/>
        <path fill="#EC6B4D" d="M114.847 49.749c-.064.095-.163.153-.348.055a.454.454 0 0 1 .348-.055M118.078 51.322l-.106-.252.117-.234zM123.82 46.655l.524-.021c.323.266.426.522.207.504-.271-.144-.49-.158-.731-.483M124.604 49.022c-.105-.252-.29-.446-.531-.77l1.073 1.053-.542-.283zM125.68 47.997c.323.27 1.248.463.832.732-.32-.267-.844-.246-.833-.732M127.997 42.688l-.085.045-1.657-1.374zM142.655 43.432c.088.74-1.137-1.02-.916-.205-.484-.345-.18-.665-.609-.95.626.25.485-.1 1.525 1.155M138.298 42.954a3.891 3.891 0 0 1-.361-.172c.163.056.273.114.361.172M86.053 12.046l-.382.418.392-.747zM86.03 10.086l-.5 1.49.254-1.415c.036.086.105.252.247-.075"/>
        <g transform="scale(1 -1) rotate(-81 66.372 -100.04)">
            <mask id="r" fill="#fff">
                <use xlink:href="#q"/>
            </mask>
            <path fill="#EC6B4D" d="M.13 2.36l.153-.731C.348.678.263.465.095.025l.036 2.334z" mask="url(#r)"/>
        </g>
        <path fill="#EC6B4D" d="M147.794 15.034l.113.05-1.117.924zM141.91 12.692c.15.042.088.399.242.44-.092-.398-1.353.944-.243-.44"/>
    </g>
</svg>
