<svg xmlns="http://www.w3.org/2000/svg" xmlns:xlink="http://www.w3.org/1999/xlink" width="14" height="23" viewBox="0 0 14 23">
    <defs>
        <path id="a" d="M.049.022h.326v.5H.049z"/>
        <path id="c" d="M.217.09h.158v.5H.217z"/>
        <path id="e" d="M.083.16h.292v.5H.083z"/>
        <path id="g" d="M.273.013h.102v.5H.273z"/>
        <path id="i" d="M.14.12h.235v.5H.141z"/>
        <path id="k" d="M0 .014h12.348V9H0z"/>
    </defs>
    <g fill="none" fill-rule="evenodd">
        <path fill="#EC6B4D" d="M8.012 21.015c-.026.042.288.016.344.02-.072-.067-.426-.015-.344-.02M6.189 21.083l.128.008L6 21z"/>
        <path fill="#EC6B4D" d="M6.22 21c-.533.077.094.229-.093.349l-.12.023.431.037c-.072-.136-.364-.307-.218-.409M8.154 20.005c-.208.027-.18-.068-.063.081.022-.007.036-.01.052-.016-.004-.013-.003-.032.011-.065M8 20.012c.017.067.174-.049 0 0"/>
        <path fill="#EC6B4D" d="M8 20.05l.188.083c.123-.021.149-.101.239-.074-.104-.088-.226-.066-.427-.009"/>
        <path fill="#EC6B4D" d="M8 20l.08.044c.051-.01.069-.022-.08-.044"/>
        <path fill="#EC6B4D" d="M8.293 20.093L8.125 20c-.087.015-.26.021.061.043-.159-.003-.006.012.107.05"/>
        <path fill="#EC6B4D" d="M8.375 20c-.115.053-.187.119-.375.035.079.168.454.132.375-.035M6.154 21L6 21.074l.181.052c-.09-.026.14-.133-.027-.124"/>
        <path fill="#EC6B4D" d="M8.448 20c-.114-.003-.303.037-.448.048l.132.062c.077-.036.148-.1.316-.11"/>
        <path fill="#EC6B4D" d="M8.2 20.093L8.004 20c-.021.088.073.102.198.093"/>
        <path fill="#EC6B4D" d="M8.006 20.031l.415.15L8 20zM8.136 19.04l.265.049L8 19z"/>
        <path fill="#EC6B4D" d="M8 19.192c.219.036.368-.065.503-.024-.04-.067-.229-.12-.398-.168.095.053.072.112-.105.192"/>
        <path fill="#EC6B4D" d="M8 19c.053.026.147.053.248.082A.898.898 0 0 0 8 19"/>
        <path fill="#EC6B4D" d="M8 19.085c.069-.009.249-.028.323-.085l-.319.046-.004.039z"/>
        <path fill="#EC6B4D" d="M8 19.085l.01-.002.016-.083-.026.085M8.027 20.01V20c-.03.005-.041.007 0 .01M6.646 20.1c-.181-.053-.376-.169-.646-.045.22.036.374-.035.646.045M8.071 20L8 20.106c.085-.004.208-.026.298 0L8.071 20z"/>
        <path fill="#EC6B4D" d="M8 20l.103.048.026-.039zM8.27 19.146c-.14-.042-.154-.091-.177-.146-.062.061-.095.123-.093.182.101.006.282.028.27-.036M8.04 19.01L8.02 19c-.025.007-.034.012.02.01"/>
        <path fill="#EC6B4D" d="M8.058 19L8 19.01l.056.001.002-.011z"/>
        <path fill="#EC6B4D" d="M8.021 19.013c-.06.046.018.07.118.094a.17.17 0 0 1-.058-.105c-.046-.003-.076-.003-.06.01"/>
        <path fill="#EC6B4D" d="M8.174 19a1.232 1.232 0 0 0-.174.081c.101-.025.258-.074.174-.081M8 19.006a.548.548 0 0 1 .014.006c.069-.016.035-.013-.014-.006"/>
        <path fill="#EC6B4D" d="M8.197 19.055C8.15 19.033 8.071 19.017 8 19a.333.333 0 0 0 .109.072l.088-.017M5 19.12c.148.002.287.115.128.224.113.096.6.01.872-.09-.064 0-.125.003-.213-.096-.08.039-.187.237-.322.155-.078-.134.051-.115.128-.184-.184.064-.27-.164-.542-.124l.097.117c-.042.004-.11-.037-.148-.002"/>
        <path fill="#EC6B4D" d="M8 19.196l.038.042c.05-.05.169-.087.399-.155A.836.836 0 0 0 8.082 19l-.038.21L8 19.196zM6.806 19.19c-.322-.026-.46-.125-.806-.055.025.124.27.081.41.153-.083-.2.18.053.359-.096a.222.222 0 0 1 .087.107.722.722 0 0 1 .144-.107l-.02.005.001.001h-.005c-.04.009-.064.013-.04.002l-.007-.004a14.21 14.21 0 0 1-.121-.006c.064-.06.083-.011.12.006l.048.002.004-.001L6.8 19c-.043.043-.033.096.006.19M6 20.018c.028-.007.052-.007.075-.008-.04-.013-.067-.017-.075.008M6.118 20.119c.045.014.175.023.143.071-.096.044-.155.004-.261.009.086.026.234.094.389 0l-.044-.013c.109-.084.509-.198.554-.185a6.81 6.81 0 0 0-.781.118"/>
        <path fill="#EC6B4D" d="M6.44 19.164L6.277 19 6 19.092l.168-.009c-.064.097.143.072.272.081M8.142 19.072l.342.015L8 19zM8 18.052l.297.002-.18-.054zM4.084 9.049L4 9a.257.257 0 0 0 .084.049"/>
        <path fill="#EC6B4D" d="M4 9.008l.146.008C4.065 9 4.006 8.993 4 9.008M8 15.148c.276-.075.706-.159.372-.147l-.325.025c.058.05.023.09-.047.122M5.099 11L5 11.022l.312.046L5.099 11"/>
        <path fill="#EC6B4D" d="M5 11.097L5.209 11a.777.777 0 0 0-.209.097M4.332 7.054L4 7c.003.09.169.048.332.054M8.113 17.157c.126-.064.179-.114.194-.157-.186.077-.465.141-.194.157M8.198 9.041A.416.416 0 0 0 8 9.001a.33.33 0 0 0 .198.04"/>
        <path fill="#EC6B4D" d="M8.076 17L8 17.034c.055.044.099.089.079.145.139-.057.224-.121-.003-.179M4.004 2.017L4.042 2c-.044 0-.046.007-.038.017M6 0c.021.02.022.053.028.085C6.049.068 6.046.043 6 0M8 18c.022.046.036.007 0 0M6.042 16.004L6.043 16c-.063.015-.051.012-.001.004M8 18.061A.345.345 0 0 0 8.096 18a.401.401 0 0 0-.096.061"/>
        <path fill="#EC6B4D" d="M8.031 18L8 18.041c.054.005.088-.001.031-.041"/>
        <path fill="#EC6B4D" d="M8.033 18c.005.026-.01.051-.033.075a.107.107 0 0 1 .052-.011.264.264 0 0 1-.019-.064M5.067 5.036l.03-.01c-.135-.045-.113-.025-.03.01M4 14.002l.016.005.011-.007z"/>
        <path fill="#EC6B4D" d="M4 14c.335.068.295.108.224.163L5 14.1 4 14z"/>
        <path fill="#EC6B4D" d="M6.134 4.424l-.069.024c-.076-.052-.008-.038.07-.024m.227 12.728c.038.01.074.01.11.004-.066-.007-.071-.034-.053-.064-.07.01-.117.026-.057.06m.114-.12l-.014-.003c.103-.059.063-.038.014.002m-1.899-5.567c-.087-.019-.044-.048.055-.082.022.023.013.051-.055.082m-.65-2.003c-.057-.025-.229-.075-.073-.095.304.027.16.05.072.095m-.181-1.318l-.214.09c-.351-.104-.23-.182-.531-.096.745.006.079.342.823.348l-.156.06c.007-.017-.037-.02-.03-.036-.355.116.54.08.435.226a.264.264 0 0 1-.253.054l.185.112c-.015.033-.144.025-.13-.007l.06.172h-.021c.117.023.297.077.375.103-.107.046-.08-.02-.172-.009l.18.095c-.192.04-.38-.038-.352-.104-.743.095.187.078-.245.274l-.095-.09c-.423.062-.269.132-.53.236.137-.026.66-.21.847-.107-.056.03-.083.068.068.123-.265.002-.2.057-.184.125l-.351-.002c.102.073.28.066.44.109-.035.082-.306.102-.535.123-.055.132.434-.095.502.06-.134.112.01.188.22.318-.12.078-.213-.012-.314.017l.28.065c-.006.017-.092.012-.136.01.11.057.35.002.447.091.387.022-.563.19-.124.299-.099.028-.215-.012-.35-.003.288.152.21.13.598.253l-.23.11c.263-.081.575.017.832.103l.29-.07.19.14c-.057.017-.178.004-.324-.018l.084.025c-.129.051-.332.027-.528-.008l.215-.052a3.532 3.532 0 0 0-.654-.055.2.2 0 0 1 .095.046.577.577 0 0 0-.144-.01c-.037.005.04.019.13.041l-.39.035.155.007-.243.186c.394.129.974.239 1.137.447-.287-.05-.469-.007-.808-.007.36-.06-.154-.161-.082-.27-.038.056-.2.045-.255.031l.328.191c-.278-.002-.208.043-.322.094.548-.043.366.142.535.219-.185.006-.372-.011-.329-.108-.413.11.646.132.296.239-.005-.024.023-.036-.07-.045.164.054.035.188-.126.159l-.004-.024c-.063.157 0 .475.466.493l-.656-.024 1.57.264c-.4-.02-1.353.082-1.58-.046-.056.038-.123.085.019.162.057-.026.578-.069.615-.034-.445.099-.237.068-.617.188.086-.039.714-.002.695.058-.095-.009-.62.01-.686-.01l.618.143c-.111-.036-.522-.002-.696.033.12-.016-.01.13.051.168l.142-.064c-.091.17.869.157.838.325-.128-.019-.784-.042-.86.044.315.035 1.52.157 1.764.302l-.18.03.206.11a22.338 22.338 0 0 1-1.867-.356c-.142.064-.212.02-.195.114-.169.034-.257-.05-.267-.077l-.108.22c.37-.013.371.165.678.153l-.384-.234c.368-.014 1.047.127.984.283-.146.041-.656-.022-.78-.018.128.02.245.145.155.161l-.198-.064c-.138.088.49.136.14.245-.023.036-.474.112-.256.116.42-.064 1.72-.09 2.037-.055-.028.013-.4.193-.607.237-.329.063-.787-.08-1.07-.026.101.002.226.033.266.045-.086.04-.312-.011-.266.07.374.01-.03.167.317.035.108.079-.076.086-.058.18.24-.033.822.075.93.153a1.611 1.611 0 0 0-.275.026c-.032.165-.2.256-.202.409-.09.015-.199.09-.36.062.066.021.193.04.203.087-.322.096-.052-.105-.439-.03.217.003.301.118.438.184.335-.026.062-.157-.075-.223.463-.007.95.104 1.165.26.117.126-.298.06-.231.081-.078.24.81.19.48.394-.295.083-.587.013-.799.034-.113-.102.184-.162.171-.232l-.138.089c-.098-.032-.173-.1-.088-.138-.264.07-.046.404-.287.593.1.03.202.085.32.057l-.042-.058c.237-.058.33.104.44.028.169.076.432.159.3.27l-.335.028c.098-.005.198-.076.095-.105.15.043-.45.177-.01.22l.231-.082c.17.075.53.164.426.264.33-.05-.04-.022.347-.098-.481.069.017-.25-.49-.144.45-.079.19-.126.572-.225-.11.004-.212.037-.158-.046a15.883 15.883 0 0 0-.098-.016l.008-.006-.013.004c-.016-.003-.02-.003-.005.003a.633.633 0 0 1-.168.044c-.255-.036-.25-.166-.38-.208.05-.05.127.018.244-.01l-.198-.063c.246-.01.407-.136.553-.024l.01-.103c.137-.062.19-.147.086-.196.053-.05-.274-.118-.08-.079l-.156-.159.062-.002c.029-.16-.413-.321.03-.51-.063-.052-.14-.107-.071-.198l.212-.02c-.075-.067.21-.21-.011-.236.572-.081.12-.335.221-.457l-.278-.002c.015-.084-.065-.162-.178-.264l-.246.01c-.203-.088.172-.233.146-.373.094.008.07.044.014.07.553-.174-.407-.352-.005-.509-.09-.037-.06-.065.002-.092 0 0 .006.006.013.01.003-.004.004-.01.003-.017l.13-.054a.66.66 0 0 0-.13.046c-.006-.03-.037-.074-.099-.117l.263-.021-.007-.01c.097-.044-.126-.033-.324-.008a.731.731 0 0 0-.16-.057c.426-.038-.144-.113.31-.165-.222-.027-.169-.218-.635-.237.06-.002.09-.015.093.008.053-.049.106-.098-.026-.14l.336-.024-.453-.103c.204-.066.323-.094.581-.032-.398-.152-.15-.125-.545-.253l.217.004c-.009-.047-.3-.12-.12-.15.411-.109.052-.522.434-.796-.64.058.285-.129-.21-.135.15-.017.235-.056.368-.013-.15-.137.238-.21-.18-.302.151-.016.221.028.31.013-.033-.01-.131-.042-.041-.057s.127.019.193.04c-.027-.14-.492-.151-.93-.159.207-.073.178-.108-.109-.157.142-.027.292-.07.344.018.02-.05.207-.303-.144-.305.09-.017.026-.07-.014-.083.02-.11.05-.12.017-.229l-.057.03c-.423-.04-.095-.089-.146-.176l.043.002c.303-.203-.147-.085.2-.287l-.263.013c-.565-.015.332-.178.115-.292l-.15.043c-.193-.061.768-.182.839-.246.049-.014.079.021.115.04.333-.168-.345-.019-.426-.14.186-.025.473.024.507-.059.15-.042-.605-.235-.25-.352-.142.027-.286.052-.393-.004-.052-.088.54-.242.088-.317a.427.427 0 0 1 .112-.017c-.117-.066-.196-.217-.441-.255.908-.07-.445-.414.392-.419l-.047-.206.087.004c.054-.132-.147-.177-.348-.221.056-.031.135-.01.179-.008.167-.194.13-.214-.288-.37l.272-.02c-.159-.043.423-.283.104-.47.031.002.084.005.122.02-.32-.21.75-.518-.24-.585l-.246-.138c-.075.182-.43-.022-.594.055-.058-.071.297-.189.349-.101l-.05.014c.517.026.18-.228.531-.227-.03-.358.253-.71.27-1.047l-.4.045.022-.117c.092-.032.312-.046.297.038.227-.047-.192-.138-.28-.138.16-.166.469.056.477.006l-.03-.068-.047.016c-.165-.053-.339-.055-.32-.155.08-.065.247-.036.262-.061.028-.001.041-.01.01-.04l.033-.148-.315.065c-.158-.063.013-.14-.344-.065.551-.109.19-.554.361-.618-.232-.087-.23-.177-.205-.29-.065.029-.42.052-.378-.044.734.02.315-.184.842-.272-.349.077-.092-.273-.588-.153.059-.082.275-.01.447-.076-.288-.185.178-.426.075-.662-.096-.001-.243.042-.387-.006l.478-.137c-.048-.046-.557-.029-.225-.123-.08.014-.202.035-.234.004.46-.478-.407-.936.459-1.44-.185.072-.205.03-.214-.02C6.003.445 5.81.42 5.68.43l.357-.211C5.672.196 6.004.008 5.656 0l.065.06c-.411-.068-.905.15-1.43.157.468.076-.681.267-.011.395-.105.037-.17-.022-.291 0 .227.03.275.075.177.164L4.11.768c.062.24-.155.35-.297.625l.259-.027c-.033.058-.115.073-.179.102.396.056.018-.164.453-.115-.526.092.003.411-.596.48 0 .089.3-.035.298.055l-.161.028.21.017c-.034.06-.236.095-.373.1.016-.014-.04-.04-.052-.054-.19.08.07.212.008.24l.098-.088c.16.24-.05.544.285.774l.123-.021c.23.176-.132.148-.023.344l-.03-.007c.123.038.186.09.173.144-.145-.047-.277.1-.437.036.247.192.193.094.65.216l-.202.033c.185.04.282.043.336.141-.176-.079-.309.069-.541-.018-.442.216.454.302-.195.407.564.087.31-.184.43-.133.184-.048.423.072.367.139-.012.066-.718.124-.705.291.003-.016-.04-.017-.038-.034-.142.065.196.12-.036.2.341.039-.018.1.416.107l-.103-.153c.115.085.624.16.38.307a1.082 1.082 0 0 1-.268-.08c-.128.044.086.08-.044.126-.435-.006-.098-.186-.43-.274-.183.048.316.172-.154.132.599.059-.073.165.385.272l-.26-.003c.04.017.164.052.158.086l-.338-.056c.289.088-.25.18-.092.266-.01-.184.313-.045.502-.126.35.223-.68.14-.552.393-.037-.034.155-.132.276-.079a.649.649 0 0 1-.288.146c.056.167.267-.03.428.04-.316.062.13.081.232.154l-.264.004c-.168.194.552.044.348.22l-.367-.07.096.09-.3-.015c.224.095.166.126.082.224.187-.025.48.007.49.092-.157.06-.252-.03-.213.09-.165-.025-.374-.052-.13-.107l-.252-.03c-.18.064-.04.157-.037.2a.096.096 0 0 1 .061-.047l.369.17c-.1.03-.18.008-.258-.012.029.035.151.058.174.11-.215-.011-.437-.006-.54-.078l.241.164c-.093.012-.255.088-.335.067-.125.093.42.222.254.347a.216.216 0 0 1 .112.044c-.047.115-.31.22-.014.354l-.384.08c.087.107.484-.109.63.068.125.125-.328.05-.434.096.194.06.59.166.277.284-.072-.037-.015-.068-.044-.103"/>
        <path fill="#EC6B4D" d="M5 11.024c.061-.01.128-.013.196-.016a.318.318 0 0 0-.196.016M4.062 7.01l.004-.005L4 7zM5 16.065A.54.54 0 0 1 5.186 16c-.088 0-.163.015-.186.065M8.213 18.098L8.117 18c.019.048-.06.066-.117.092.085-.004.207-.025.213.006M6 19.034c.044.014.005.03.05.045l.169-.008c-.013-.062-.149-.103-.219-.037M6.207 18c-.304.014-.2.075-.142.144 0 0-.004-.008 0-.013.426.013.284-.059.142-.131"/>
        <path fill="#EC6B4D" d="M6 18c.015.021.023.043.009.065.171.005.035-.027-.009-.065M8.033 18.066c-.078.035.389.014.266.035.387.031-.473-.214-.266-.035"/>
        <path fill="#EC6B4D" d="M6 18.066l.375-.032L6.072 18z"/>
        <path fill="#EC6B4D" d="M6.102 18L6 18.114c.063-.002.1.011.128.028.012-.069.085-.147-.026-.142"/>
        <path fill="#EC6B4D" d="M6.002 18c-.006.036.002.07.064.089A.138.138 0 0 0 6.002 18"/>
        <path fill="#EC6B4D" d="M6 18.115l.078-.035.026-.08zM6.28 17.123l-.108-.121c-.13-.011-.207.024-.156.069.09.028.14.073.265.052M5.181 17.059c.078-.034.161-.038.285-.059L5 17.004l.181.055z"/>
        <path fill="#EC6B4D" d="M5.345 17.085c-.13-.01-.374-.173-.342-.018.128.01.238.133.342.018M5 16l.006.031.764-.013zM4.032 15.017c-.182.148.472.03.245.164.18.033.185-.109.341-.076-.19-.086-.084-.133-.586-.088M5 15c.03.014.067.028.116.044A.454.454 0 0 0 5 15M8.098.1l.156-.1L8 .07zM6 .08l.485-.04L6.043 0c.022.02.066.06-.043.08M4 9.075l.117.006c.127-.015.136-.037.155-.081L4 9.075zM4.01 8.022L4 8.044 4.44 8z"/>
        <path fill="#EC6B4D" d="M4.002 8.003c-.018.044.081.094.062.138-.08-.094.487-.155-.062-.138"/>
        <g transform="translate(13 13)">
            <mask id="b" fill="#fff">
                <use xlink:href="#a"/>
            </mask>
            <path fill="#EC6B4D" d="M.175.14C.198.13.07.04.05.022.057.07.209.164.175.14" mask="url(#b)"/>
        </g>
        <g transform="translate(13 14)">
            <mask id="d" fill="#fff">
                <use xlink:href="#c"/>
            </mask>
            <path fill="#EC6B4D" d="M.265.133L.217.09l.097.137z" mask="url(#d)"/>
        </g>
        <g transform="translate(13 14)">
            <mask id="f" fill="#fff">
                <use xlink:href="#e"/>
            </mask>
            <path fill="#EC6B4D" d="M.083.389C.313.527.113.269.22.28l.054.03L.118.159C.106.236.17.395.083.39" mask="url(#f)"/>
        </g>
        <path fill="#EC6B4D" d="M12 14.045c.178.109.101.168.097-.025a1.647 1.647 0 0 0-.051-.02c-.004.013-.016.028-.046.045M12.067 14.05c.026-.064-.164-.07 0 0"/>
        <path fill="#EC6B4D" d="M12.328 14.274l-.098-.184c-.109-.06-.175-.012-.23-.09.029.135.138.194.328.274M12.075 15.098l-.037-.085c-.046-.024-.067-.025.037.085"/>
        <path fill="#EC6B4D" d="M12 15l.078.179c.076.042.215.146-.023-.072.122.102.011-.006-.055-.107"/>
        <path fill="#EC6B4D" d="M12 15.07c.121.03.216.024.313.208.037-.182-.277-.39-.313-.207"/>
        <g transform="translate(13 15)">
            <mask id="h" fill="#fff">
                <use xlink:href="#g"/>
            </mask>
            <path fill="#EC6B4D" d="M.294.07l.08.02L.32.014C.347.052.226.021.294.07" mask="url(#h)"/>
        </g>
        <path fill="#EC6B4D" d="M11 15c.088.073.259.159.379.241l-.067-.132c-.081-.019-.175-.011-.312-.109M12 15l.101.197c.067-.057.003-.126-.101-.197"/>
        <path fill="#EC6B4D" d="M12.237 15.378L12 15l.224.406zM11.179 15.203L11 15l.262.319z"/>
        <path fill="#EC6B4D" d="M11.411 15.292c-.15-.164-.328-.176-.41-.292-.008.079.11.238.215.381-.044-.101.01-.135.195-.089"/>
        <path fill="#EC6B4D" d="M11.147 15.218c-.026-.054-.085-.133-.147-.218a.896.896 0 0 0 .147.218M11.304 15.133c-.059-.035-.211-.132-.304-.133l.279.161.025-.028zM12.07 15.005L12.061 15a1.903 1.903 0 0 0-.061.057l.07-.052M12.007 15l-.007.007c.028.016.037.02.007-.007"/>
        <path fill="#EC6B4D" d="M12 15c.11.154.196.367.48.438-.152-.166-.313-.206-.48-.438"/>
        <path fill="#EC6B4D" d="M12.116 15.225l.117-.04c-.069-.049-.178-.108-.233-.185l.116.225z"/>
        <path fill="#EC6B4D" d="M12.096 15.102L12.044 15l-.044.014zM11 15.015c.086.12.068.167.054.225.084-.01.146-.04.179-.087-.076-.067-.206-.196-.233-.138"/>
        <path fill="#EC6B4D" d="M12 15l.009.019c.025.011.035.013-.009-.019M11 16.007l.052.028-.044-.035z"/>
        <path fill="#EC6B4D" d="M12.053 15.147c.075.001.027-.068-.038-.147a.179.179 0 0 1-.015.119c.034.031.057.049.053.028M11.014 16.024c.067.021.127.034.185.043-.094-.043-.247-.1-.185-.043M11.045 15.029a.647.647 0 0 1-.008-.014c-.063-.03-.035-.011.008.014"/>
        <path fill="#EC6B4D" d="M12 15c.023.046.077.108.123.165a.365.365 0 0 0-.044-.124L12 15M12 16.98c-.155-.134-.258-.324-.05-.244-.082-.157-.626-.548-.95-.736.068.059.131.111.186.25.1.049.288.03.399.2.03.148-.098.02-.206-.01.218.13.222.34.523.56l-.057-.154c.046.035.101.12.155.135"/>
        <path fill="#EC6B4D" d="M11.412 16.178l-.005-.056c-.069.008-.184-.035-.407-.122a.883.883 0 0 0 .234.284l.151-.144.027.038z"/>
        <path fill="#EC6B4D" d="M11.154 16.122c.24.22.293.384.608.543.053-.113-.167-.231-.237-.375-.049.209-.112-.154-.341-.147a.226.226 0 0 1-.007-.139A.713.713 0 0 1 11 16l.019.008v-.001l.004.003c.037.017.058.029.034.023l.003.008.093.08c-.087.007-.073-.043-.093-.08l-.037-.031-.004-.002.029.268c.06-.007.082-.056.106-.154"/>
        <g transform="translate(13 16)">
            <mask id="j" fill="#fff">
                <use xlink:href="#i"/>
            </mask>
            <path fill="#EC6B4D" d="M.172.14C.16.134.15.127.141.12c.012.017.02.027.031.02" mask="url(#j)"/>
        </g>
        <path fill="#EC6B4D" d="M12.681 16.392c-.028-.039-.125-.126-.071-.144.101.025.124.093.21.155-.053-.074-.129-.22-.305-.242l.027.038c-.134-.002-.514-.161-.542-.199.245.156.423.264.681.392"/>
        <path fill="#EC6B4D" d="M12 16l.033.23.272.099-.137-.097c.106-.037-.071-.145-.168-.232M11.262 16.222L11 16l.333.366z"/>
        <path fill="#EC6B4D" d="M11.234 16.183L11 16l.111.153zM5.108 22L5 22.016A.217.217 0 0 0 5.108 22"/>
        <path fill="#EC6B4D" d="M5.003 22.119L5.088 22c-.06.054-.1.099-.085.119M9.481 19.178c-.268-.101-.665-.283-.386-.1l.278.17c-.019-.074.032-.084.108-.07M9.011 22.351l.034.118L9 22l.011.351M4.274 21L4 21.196c.067.063.155-.085.274-.196M10.246 17.015c-.138-.025-.208-.016-.246.009.194.05.454.166.246-.01M6.129 20a.945.945 0 0 0-.129.15.566.566 0 0 0 .129-.15"/>
        <path fill="#EC6B4D" d="M10.072 17.164l.081.018c-.019-.068-.029-.13.02-.163-.145-.037-.25-.036-.1.145M.008 17.036L.03 17c-.037.024-.034.031-.022.036M2 14c.026.006.039.031.054.052.014-.022.003-.04-.054-.052M11.01 16.03c.008-.05-.026-.028 0 0M11.003 19l-.003.003c.059.026.048.021.003-.003M11.111 17.011a.346.346 0 0 0-.111-.01.333.333 0 0 0 .111.01"/>
        <path fill="#EC6B4D" d="M11.007 16.046l.048-.014c-.04-.037-.07-.053-.048.014M11 17.062c.011-.024.037-.035.069-.04a.102.102 0 0 1-.047-.022.315.315 0 0 1-.022.062M3.074 19.028L3.09 19c-.133.056-.103.056-.017.028M10.021 21.018L10.014 21H10l.021.018zM10.735 22c-.209-.385-.148-.386-.042-.39L10 21l.374.491.361.509"/>
        <g transform="translate(0 14)">
            <mask id="l" fill="#fff">
                <use xlink:href="#k"/>
            </mask>
            <path fill="#EC6B4D" d="M4.242 2.878l-.043.058c-.099.013-.031-.02.043-.058m6.745-.293a.282.282 0 0 0-.096-.066c.056.043.043.065.008.077.068.033.12.048.088-.011m-.174.023l.01.009c-.127-.015-.079-.008-.01-.01M8.783 8.1c.012.126-.025.1-.077.003.011-.049.034-.06.077-.003M6.54 7.797c-.054.03-.2.14-.152-.018.177-.25.134-.101.152.018M4.99 6.844l-.092.204c-.352.176-.323.042-.485.303.576-.507.336.168.906-.343l-.072.146c-.007-.015-.042.014-.05-.002-.167.328.497-.305.57-.115.019.086-.009.202-.11.237l.256-.04c.029.04-.06.137-.091.095l.244.11-.015.016c.098-.074.26-.179.33-.223-.009.128-.066.05-.104.138l.2-.077c-.053.203-.239.3-.305.214-.278.727.183-.092.223.466l-.166.002c-.115.437.059.37.11.726.002-.166-.016-.823.204-.897.012.077.054.139.18.044-.1.253-.003.242.09.288l-.123.342c.139-.028.185-.213.288-.334.092.107.046.405.018.663.173.182-.017-.537.208-.468.112.237.251.157.43.025.083.2-.038.232-.014.369l.11-.263c.02.022.008.117.002.164.078-.078.03-.4.135-.443.02-.448.218.82.34.376.041.146.002.258.022.433.166-.235.151-.15.23-.562-.003-.01.166.4.162.365a1.647 1.647 0 0 1-.095-.55c-.005-.218-.01-.438-.013-.637l-.11-.346.024-.34c.024.066.05.232.077.443l-.009-.13c.064.141.109.411.134.691l-.089-.237c.032.302.06.641.113.903a.649.649 0 0 1 .015-.167c.007.084.014.156.027.198.012.044.006-.072.002-.21l.128.47-.034-.206c-.004.003.234.116.238.112.002-.626-.132-1.397-.082-1.722.094.351.2.519.352.889-.202-.342-.07.326-.2.36.064-.014.116.185.122.266l.026-.29.015-.28c.117.31.126.187.226.256-.283-.552-.046-.534-.069-.78.101.18.183.39.074.444.311.306-.218-.788.048-.531-.016.026-.041.01.003.11-.048-.208.13-.212.202-.035l-.017.028a.57.57 0 0 0 .085-.869c.046.044.393.451.451.536 0 0-.218-.383-.47-.725a7.478 7.478 0 0 0-.53-.65c.296.3 1.14.848 1.206 1.143.078 0 .177-.01.132-.19-.072-.006-.526-.317-.53-.373.442.2.244.098.671.205-.107-.01-.614-.432-.558-.466.077.062.555.348.593.41.01-.013-.431-.494-.442-.48.08.087.472.288.65.358-.118-.054.087-.087.056-.15l-.169-.031c.186-.071-.69-.592-.56-.696.104.084.683.463.803.444-.264-.2-1.277-.953-1.408-1.194l.18.077-.119-.195a25.773 25.773 0 0 1 1.468 1.293c.167.031.204.103.245.025.174.069.203.177.195.203l.23-.099c-.341-.194-.236-.323-.52-.485l.205.381c-.34-.193-.868-.671-.716-.749.157.051.578.38.691.446-.103-.084-.132-.24-.042-.2l.14.155c.177.013-.36-.37.02-.253.044-.013.495.183.3.058-.414-.188-1.6-.894-1.862-1.096.033.006.477.083.69.167.333.139.657.497.944.617a1.184 1.184 0 0 1-.212-.181c.101.02.273.183.28.098-.328-.216.13-.103-.262-.202-.048-.117.12-.02.162-.097-.236-.111-.692-.515-.74-.633.083.056.205.112.262.137.129-.102.334-.072.428-.182.09.04.234.047.36.159-.047-.053-.15-.138-.129-.177.345.113-.018.105.374.27-.193-.126-.198-.256-.28-.38-.313-.171-.15.077-.069.202-.416-.257-.782-.612-.878-.848-.027-.158.301.126.256.073.216-.13-.603-.6-.184-.56.312.108.528.326.73.432.038.138-.264.012-.295.07l.177.014c.068.08.094.17-.006.15.278.1.287-.265.617-.263-.069-.08-.127-.178-.25-.225l.003.066c-.245-.095-.229-.265-.373-.273-.102-.151-.284-.363-.098-.368l.314.173c-.09-.053-.223-.06-.15.021-.106-.118.508.132.145-.152l-.255-.075c-.104-.152-.364-.424-.21-.437-.323-.154.02.038-.369-.13.468.228-.169.173.344.388-.446-.202-.246-.018-.646-.164.1.06.21.094.111.124l.077.068h-.011l.015.004c.013.011.015.013.004 0a.788.788 0 0 1 .177.065c.204.173.118.263.21.37-.078.006-.102-.087-.225-.133l.137.159c-.225-.133-.445-.134-.505-.3l-.071.07c-.161-.032-.261 0-.2.095-.077.006.171.243.023.103l.04.205-.056-.034c-.125.1.168.47-.342.356.023.074.058.157-.059.185l-.202-.105c.025.092-.318.035-.136.18-.562-.262-.316.178-.48.211l.248.157c-.064.052-.041.155-.002.292l.225.13c.13.177-.296.073-.359.192-.08-.06-.035-.072.032-.06-.607-.179.151.483-.308.375.058.077.014.08-.06.067 0 0 0-.008-.005-.014-.005 0-.009.005-.012.01l-.151-.033c.064.02.118.037.147.04-.014.024-.013.073.017.139l-.252-.13c.002.004 0 .006 0 .011-.114-.021.094.094.288.185a.76.76 0 0 0 .11.129c-.409-.206.063.163-.38-.05.093.07.093.14.133.21.049.06.121.142.32.285-.054-.035-.084-.046-.079-.06-.066-.006-.128-.018-.036.086l-.287-.204.167.17.16.177c-.193-.103-.287-.183-.473-.384.26.339.082.147.32.51l-.155-.172c-.008.025.16.299.025.167-.162-.143-.213-.104-.27-.051-.057.051-.126.124-.252-.039.303.687-.164-.275.047.287-.068-.166-.112-.254-.155-.42.02.222-.13-.236-.014.312l-.098-.394c.01.043.033.176.002.066-.032-.11-.037-.166-.055-.252-.01.054.117.67.234 1.249-.087-.236-.085-.19-.041.23-.046-.18-.092-.372-.073-.479-.018.05-.164-.323-.12.154-.02-.124-.04-.058-.043-.01-.063-.069-.068-.11-.126-.108l.017.083c-.02.514-.056.081-.105.109l.003-.051c-.088-.442-.072.131-.136-.347l-.035.303c-.11.628-.05-.45-.147-.249l-.014.178c-.103.17.115-.88.136-.954.013-.052.033-.075.049-.108.072-.367-.12.344-.197.389.064-.187.185-.459.18-.506.069-.138-.339.51-.212.155-.068.13-.128.266-.211.339-.083.001.218-.521-.093-.185a.717.717 0 0 1 .065-.093c-.102.07-.223.076-.426.232.656-.654-.64.063-.001-.513l-.187-.091.069-.056c-.055-.115-.243-.005-.432.104.022-.057.099-.097.134-.126-.011-.232-.05-.218-.493-.033l.198-.194c-.155.078.129-.454-.252-.358a.56.56 0 0 1 .11-.069c-.404.08.238-.81-.605-.204l-.294.073c.067.165-.363.264-.441.42-.098-.009.108-.315.21-.292l-.03.042c.436-.319-.012-.264.274-.49-.274-.207-.276-.614-.482-.84l-.306.279-.061-.09c.057-.078.232-.224.275-.16.16-.171-.252.03-.326.083.027-.208.431-.251.406-.29l-.07-.026-.028.04c-.174.067-.321.172-.371.095.025-.092.185-.175.182-.201.024-.017.03-.031-.015-.032l-.068-.116-.227.234c-.175.054-.078-.101-.336.165.397-.405-.192-.484-.083-.63-.257.078-.312.015-.36-.076-.039.058-.336.28-.361.19.659-.411.164-.309.58-.671-.264.251-.241-.133-.613.228.003-.089.24-.162.354-.303-.37.035-.09-.388-.307-.493-.09.05-.2.16-.359.204l.366-.35c-.07-.005-.532.274-.276.033-.066.053-.168.131-.214.126.18-.558-.888-.484-.251-1.226-.156.128-.191.108-.219.078-.03.042-.232.107-.357.17L1.86.059c-.375.13-.113-.136-.468-.008l.089.02C1.033.176.626.538.102.757c.506-.13-.55.523.186.349-.084.077-.18.054-.288.126.241-.072.312-.057.264.062l-.06.018c.194.173.036.373.07.667l.23-.15c.004.064-.065.116-.108.172.408-.15-.08-.142.363-.317-.446.335.24.327-.277.69.055.071.258-.182.312-.112l-.132.107.206-.096c.005.063-.16.197-.283.274.005-.02-.062-.01-.083-.016-.124.164.201.132.162.187l.034-.123c.294.108.304.458.756.44l.096-.083c.32 0-.022.185.203.27l-.03.012c.132-.043.223-.043.247.005-.158.049-.176.233-.36.28.347-.004.234-.043.714-.224l-.154.143c.188-.079.274-.135.386-.097-.205.048-.222.232-.481.307-.236.421.595-.055.111.41.544-.28.138-.317.278-.354.124-.143.411-.203.409-.123.035.052-.53.52-.4.632-.01-.014-.046.012-.057-.001-.075.134.25-.035.11.164.314-.183.055.082.425-.181l-.192-.044c.157-.01.635-.273.533-.023-.08.048-.206.092-.281.112-.076.11.13.002.051.114-.368.266-.214-.066-.555.076-.12.147.389-.075-.036.188.545-.33.058.162.518-.05l-.22.16c.047-.014.175-.067.194-.04l-.322.173c.304-.12-.077.283.117.244-.142-.122.227-.23.325-.404.45-.069-.464.527-.17.62-.056 0 .03-.188.169-.23a.571.571 0 0 1-.13.284c.171.079.198-.19.381-.246-.213.244.166-.028.303-.045l-.213.173c.006.24.482-.326.444-.077l-.348.19h.143l-.255.184c.252-.08.227-.022.234.097.131-.138.392-.308.463-.259-.082.142-.225.146-.103.2-.152.092-.34.21-.187.014l-.225.144c-.095.16.088.131.124.159-.006-.018-.01-.041.012-.073l.423-.129a.493.493 0 0 1-.215.162c.05.004.164-.061.222-.043-.18.135-.352.286-.488.304l.316-.049c-.065.07-.137.229-.216.267-.027.148.503-.131.468.06a.277.277 0 0 1 .123-.046c.052.107-.071.353.262.24l-.235.314c.15.01.29-.4.542-.386.193-.005-.215.256-.262.358.2-.094.586-.299.44-.009-.086.027-.067-.032-.116-.035" mask="url(#l)"/>
        </g>
        <path fill="#EC6B4D" d="M4.05 21.007L4.049 21 4 21.043zM11.187 20.059A.562.562 0 0 1 11 20c.072.053.141.084.187.059M11.001 16l.02.137c.012-.05.086-.017.146-.003-.069-.048-.179-.105-.166-.134M12.157 17.163c-.027-.038.013-.028-.015-.066L12.005 17c-.026.056.059.172.152.163M11.06 17.169c.25.175.201.063.195-.027 0 0-.002.009-.007.01-.33-.27-.259-.126-.188.017"/>
        <path fill="#EC6B4D" d="M12.041 17.103c.001-.026.007-.048.03-.057-.132-.108-.043 0-.03.057M11.278 17.247c.082.02-.302-.247-.191-.19-.292-.258.253.457.19.19"/>
        <path fill="#EC6B4D" d="M12.316 17.203L12 17l.221.211z"/>
        <path fill="#EC6B4D" d="M12.036 17.128l.146-.028a.226.226 0 0 1-.086-.1c-.049.048-.15.064-.06.128"/>
        <path fill="#EC6B4D" d="M12.011 17.109c.026-.024.04-.057 0-.109a.14.14 0 0 0 0 .109"/>
        <path fill="#EC6B4D" d="M12.148 17.02l-.082-.02-.066.047zM11 18l.019.161c.097.086.18.105.164.039-.057-.076-.072-.142-.183-.2M12.261 18.125c-.082-.02-.15-.067-.261-.125l.374.277-.113-.152z"/>
        <path fill="#EC6B4D" d="M12 18.003c.098.086.202.359.264.219-.097-.085-.116-.246-.264-.219M10.612 19.468l.012-.028L10 19zM11.427 21.41c.23-.009-.367-.298-.107-.27-.129-.131-.212-.023-.32-.14.107.179-.007.153.427.41"/>
        <path fill="#EC6B4D" d="M11.07 21.102A1.204 1.204 0 0 0 11 21a.478.478 0 0 0 .07.102M2.1 14.137L2.209 14 2 14.156zM1 14.225L1.431 14l-.42.146c.028.007.082.02-.011.079M5 22.354l.021.032.228-.386zM4 22.17c.02.043.126.007.146.052-.126-.009.223-.459-.146-.053"/>
    </g>
</svg>
