<svg xmlns="http://www.w3.org/2000/svg" width="20" height="12" viewBox="0 0 20 12">
    <path fill="#FFF" fill-rule="evenodd" d="M10.147 8.273a2.269 2.269 0 0 1-2.405-2.421 2.282 2.282 0 0 1 2.115-2.13 2.269 2.269 0 0 1 2.405 2.422c-.073 1.14-.99 2.06-2.115 2.13m.127 1.951c-2.536.16-4.631-1.944-4.472-4.501.131-2.108 1.83-3.817 3.924-3.95 2.536-.16 4.631 1.944 4.472 4.502-.135 2.104-1.833 3.813-3.924 3.95M10 0C6.179 0 2.713 2.104.156 5.522a.801.801 0 0 0 0 .952C2.713 9.896 6.18 12 10 12c3.821 0 7.286-2.104 9.843-5.522a.8.8 0 0 0 0-.952C17.286 2.104 13.821 0 10 0" opacity=".5"/>
</svg>
