<svg xmlns="http://www.w3.org/2000/svg" width="53" height="51" viewBox="0 0 53 51">
  <metadata><?xpacket begin="﻿" id="W5M0MpCehiHzreSzNTczkc9d"?>
      <x:xmpmeta xmlns:x="adobe:ns:meta/" x:xmptk="Adobe XMP Core 5.6-c138 79.159824, 2016/09/14-01:09:01        ">
          <rdf:RDF xmlns:rdf="http://www.w3.org/1999/02/22-rdf-syntax-ns#">
              <rdf:Description rdf:about=""/>
          </rdf:RDF>
      </x:xmpmeta>


      <?xpacket end="w"?></metadata>
  <path class="cls-1" d="M22.054,47.592A2.527,2.527,0,0,1,21.3,45.6a2.937,2.937,0,0,1,.87-1.989L36.1,30.163H2.786a2.676,2.676,0,0,1-1.973-.819A2.718,2.718,0,0,1,0,27.356V23.613a2.718,2.718,0,0,1,.813-1.988,2.676,2.676,0,0,1,1.973-.819H36.1L22.17,7.354a2.936,2.936,0,0,1-.87-1.989,2.527,2.527,0,0,1,.755-1.989L24.723,0.8A2.787,2.787,0,0,1,28.67.8L51.188,23.5a2.84,2.84,0,0,1,0,3.977L28.67,50.166a2.787,2.787,0,0,1-3.946,0Z"/>
</svg>
