<svg xmlns="http://www.w3.org/2000/svg" width="53" height="51" viewBox="0 0 53 51">
    <metadata><?xpacket begin="﻿" id="W5M0MpCehiHzreSzNTczkc9d"?>
        <x:xmpmeta xmlns:x="adobe:ns:meta/" x:xmptk="Adobe XMP Core 5.6-c138 79.159824, 2016/09/14-01:09:01        ">
            <rdf:RDF xmlns:rdf="http://www.w3.org/1999/02/22-rdf-syntax-ns#">
                <rdf:Description rdf:about=""/>
            </rdf:RDF>
        </x:xmpmeta>


        <?xpacket end="w"?>
    </metadata>
    <path class="cls-1"
          d="M29.734,47.648a2.521,2.521,0,0,0,.762-1.992,2.931,2.931,0,0,0-.879-1.992L15.555,30.188H49.188A2.8,2.8,0,0,0,52,27.375v-3.75a2.8,2.8,0,0,0-2.812-2.812H15.555L29.617,7.336A2.931,2.931,0,0,0,30.5,5.344a2.521,2.521,0,0,0-.762-1.992l-2.7-2.578a2.829,2.829,0,0,0-3.984,0L0.32,23.508a2.829,2.829,0,0,0,0,3.984L23.055,50.227a2.829,2.829,0,0,0,3.984,0Z"/>
</svg>
