<svg xmlns="http://www.w3.org/2000/svg" width="63" height="39" viewBox="0 0 63 39">
  <metadata><?xpacket begin="﻿" id="W5M0MpCehiHzreSzNTczkc9d"?>
    <x:xmpmeta xmlns:x="adobe:ns:meta/" x:xmptk="Adobe XMP Core 5.6-c138 79.159824, 2016/09/14-01:09:01        ">
      <rdf:RDF xmlns:rdf="http://www.w3.org/1999/02/22-rdf-syntax-ns#">
        <rdf:Description rdf:about=""/>
      </rdf:RDF>
    </x:xmpmeta>

    <?xpacket end="w"?></metadata>
  <path
    id="Фигура_1"
    data-name="Фигура 1"
    fill="#43ac3c"
    d="M0.137,32.621S0,2.984,0,1.086,1.5-.136,3.28-0.136H33.618c1.367,0,1.23,1.1,1.23,2.715V29.363h1.23V4.751c0-1.094.957-.95,1.64-0.95S48.377,3.936,49.2,3.936s1.093,1.1,1.777,2.036,5.33,8.77,6.013,9.592c1.777,1.634,5.876,5.709,5.876,6.651S63,29.891,63,31.263s-0.683,1.493-1.23,1.493H56.577s-0.142-7.294-7.38-7.013c-6.97.271-6.7,6.877-6.7,6.877H24.872s-0.548-7.027-7.79-6.877c-6.56.135-6.833,7.013-6.833,7.013Z"/>
  <path id="Эллипс_1" data-name="Эллипс 1" fill="#43ac3c" d="M17.675,26.83a6.153,6.153,0,1,1-6.2,6.153A6.174,6.174,0,0,1,17.675,26.83Z"/>
  <path id="Эллипс_1_копия" data-name="Эллипс 1 копия" fill="#43ac3c" d="M49.653,26.83a6.153,6.153,0,1,1-6.2,6.153A6.174,6.174,0,0,1,49.653,26.83Z"/>
</svg>
