<svg xmlns="http://www.w3.org/2000/svg" width="50" height="61" viewBox="0 0 50 61">
  <metadata><?xpacket begin="﻿" id="W5M0MpCehiHzreSzNTczkc9d"?>
    <x:xmpmeta xmlns:x="adobe:ns:meta/" x:xmptk="Adobe XMP Core 5.6-c138 79.159824, 2016/09/14-01:09:01        ">
      <rdf:RDF xmlns:rdf="http://www.w3.org/1999/02/22-rdf-syntax-ns#">
        <rdf:Description rdf:about=""/>
      </rdf:RDF>
    </x:xmpmeta>

    <?xpacket end="w"?></metadata>
  
  <path
    id="Фигура_1"
    data-name="Фигура 1"
    fill="#43ac3c"
    d="M35.264,36.02s3.483-.561,4.236-0.281c0.047-.936,0-20.864,0-24.044s0.424-5.614-5.883-5.614H29.946s0.585,5.239-4.895,5.239c-2.682,0-5.271-.047-5.271-0.047v4.35H34.135c0.612,0,1.082.047,1.082,0.748S35.264,36.02,35.264,36.02Z"/>
  <path
    id="Фигура_1_копия"
    data-name="Фигура 1 копия"
    fill="#43ac3c"
    d="M5.534,50.615c3.737,0,16.992-.019,19.344,0a10.471,10.471,0,0,0,1.035,4.07c-2.393,0-17.787.236-19.508,0.234-5.062-.008-6.095-1.65-6.095-4.4-0.047-.936,0-35.646,0-38.827S-0.117,6.081,6.191,6.081H9.862s-0.585,5.239,4.9,5.239c2.682,0,5.272-.047,5.272-0.047v4.35H5.673c-0.612,0-1.083.047-1.083,0.748,0,0.62-.036,26.868-0.036,32.979C4.555,50.331,4.979,50.615,5.534,50.615Z"/>
  <path
    id="Фигура_2"
    data-name="Фигура 2"
    fill="#43ac3c"
    d="M20.03-.094a3.917,3.917,0,0,0-2.306,1.169c-0.659.936-.518,1.918-0.894,2.76s-2.353.281-3.248,0.608A2.555,2.555,0,0,0,11.793,6.83a2.455,2.455,0,0,0,2.165,2.62c1.318,0,6.071.047,6.071,0.047v-9.59Z"/>
  <path
    id="Фигура_2_копия_2"
    data-name="Фигура 2 копия 2"
    fill="#43ac3c"
    d="M19.78-.094a3.917,3.917,0,0,1,2.306,1.169c0.659,0.936.518,1.918,0.894,2.76s2.353,0.281,3.247.608A2.555,2.555,0,0,1,28.016,6.83a2.455,2.455,0,0,1-2.165,2.62c-1.318,0-6.071.047-6.071,0.047v-9.59Z"/>
  <path id="Фигура_2_копия" data-name="Фигура 2 копия" fill="#43ac3c" d="M16.579,3.836"/>
  <rect id="Прямоугольник_скругл._углы_1" data-name="Прямоугольник, скругл. углы 1" fill="#43ac3c" x="15.875" y="20.031" width="15.813" height="2.719" rx="1.153" ry="1.153"/>
  <rect id="Прямоугольник_скругл._углы_1_копия" data-name="Прямоугольник, скругл. углы 1 копия" fill="#43ac3c" x="15.875" y="27.781" width="15.813" height="2.719" rx="1.153" ry="1.153"/>
  <rect id="Прямоугольник_скругл._углы_1_копия_2" data-name="Прямоугольник, скругл. углы 1 копия 2" fill="#43ac3c" x="15.875" y="34.656" width="11.563" height="2.719" rx="1.153" ry="1.153"/>
  <rect id="Прямоугольник_скругл._углы_1_копия_3" data-name="Прямоугольник, скругл. углы 1 копия 3" fill="#43ac3c" x="15.875" y="42.438" width="9.781" height="2.719" rx="1.153" ry="1.153"/>
  <path
    id="Фигура_3"
    data-name="Фигура 3"
    fill="#43ac3c"
    d="M7.731,20.349c0.659-.655,1.177.094,1.553,0.374s0.847,0.655.847,0.655l1.553-1.544c0.8-.8,1.809-2.264,2.589-1.544,0.879,0.812-.941,2.2-1.883,3.134-0.824.819-1.647,1.824-2.118,1.824A6.779,6.779,0,0,1,8.3,21.893C7.919,21.612,7.072,21,7.731,20.349Z"/>
  <path
    id="Фигура_3_копия"
    data-name="Фигура 3 копия"
    fill="#43ac3c"
    d="M7.731,28.068c0.659-.655,1.177.094,1.553,0.374s0.847,0.655.847,0.655l1.553-1.544c0.8-.8,1.809-2.264,2.589-1.544,0.879,0.812-.941,2.2-1.883,3.134-0.824.819-1.647,1.824-2.118,1.824A6.779,6.779,0,0,1,8.3,29.611C7.919,29.331,7.072,28.722,7.731,28.068Z"/>
  <path
    id="Фигура_3_копия_2"
    data-name="Фигура 3 копия 2"
    fill="#43ac3c"
    d="M7.731,35.552c0.659-.655,1.177.094,1.553,0.374s0.847,0.655.847,0.655l1.553-1.544c0.8-.8,1.809-2.264,2.589-1.544,0.879,0.812-.941,2.2-1.883,3.134-0.824.819-1.647,1.824-2.118,1.824A6.781,6.781,0,0,1,8.3,37.1C7.919,36.815,7.072,36.207,7.731,35.552Z"/>
  <path
    id="Фигура_3_копия_3"
    data-name="Фигура 3 копия 3"
    fill="#43ac3c"
    d="M7.731,43.037c0.659-.655,1.177.094,1.553,0.374s0.847,0.655.847,0.655l1.553-1.544c0.8-.8,1.809-2.264,2.589-1.544,0.879,0.812-.941,2.2-1.883,3.134-0.824.819-1.647,1.824-2.118,1.824A6.779,6.779,0,0,1,8.3,44.581C7.919,44.3,7.072,43.692,7.731,43.037Z"/>
  <path
    id="Эллипс_1"
    data-name="Эллипс 1"
    fill="#43ac3c"
    d="M38.719,38.281A11.219,11.219,0,1,1,27.438,49.5,11.25,11.25,0,0,1,38.719,38.281Zm-6.561,11c0.78-.892,1.986-0.569,3.389.561s2.047,1.684,2.047,1.684,1.66-1.765,3.083-3.438,3.524-5.157,5.365-3.415-1.213,4.463-3.883,7.274-3.427,3.855-4.353,3.859-2.395-1.48-3.883-2.666S30.747,50.895,32.158,49.282Z"/>
</svg>
