<svg xmlns="http://www.w3.org/2000/svg" width="36" height="50" viewBox="0 0 36 50">
  <metadata><?xpacket begin="﻿" id="W5M0MpCehiHzreSzNTczkc9d"?>
    <x:xmpmeta xmlns:x="adobe:ns:meta/" x:xmptk="Adobe XMP Core 5.6-c138 79.159824, 2016/09/14-01:09:01        ">
      <rdf:RDF xmlns:rdf="http://www.w3.org/1999/02/22-rdf-syntax-ns#">
        <rdf:Description rdf:about=""/>
      </rdf:RDF>
    </x:xmpmeta>

    <?xpacket end="w"?></metadata>
  <defs>
    <style>
      .cls-1 {
        fill: #43ac3c;
        fill-rule: evenodd;
      }
    </style>
  </defs>
  <path
    id="Прямоугольник_1"
    data-name="Прямоугольник 1"
    fill="#43ac3c"
    d="M4.358,0H31.642A4.358,4.358,0,0,1,36,4.358V45.642A4.358,4.358,0,0,1,31.642,50H4.358A4.358,4.358,0,0,1,0,45.642V4.358A4.358,4.358,0,0,1,4.358,0Zm-1,4.756H32.644a0.131,0.131,0,0,1,.131.131v13.7a0.131,0.131,0,0,1-.131.131H3.356a0.131,0.131,0,0,1-.131-0.131V4.886A0.131,0.131,0,0,1,3.356,4.756Zm3.792,18.15H11.07a0.131,0.131,0,0,1,.131.131v3.927a0.131,0.131,0,0,1-.131.131H7.148a0.131,0.131,0,0,1-.131-0.131V23.037A0.131,0.131,0,0,1,7.148,22.906Zm5.927,0H17a0.131,0.131,0,0,1,.131.131v3.927a0.131,0.131,0,0,1-.131.131H13.075a0.131,0.131,0,0,1-.131-0.131V23.037A0.131,0.131,0,0,1,13.075,22.906Zm5.927,0h3.966a0.131,0.131,0,0,1,.131.131v3.927a0.131,0.131,0,0,1-.131.131H19a0.131,0.131,0,0,1-.131-0.131V23.037A0.131,0.131,0,0,1,19,22.906Zm6.014,0h3.835a0.131,0.131,0,0,1,.131.131v3.927a0.131,0.131,0,0,1-.131.131H25.017a0.131,0.131,0,0,1-.131-0.131V23.037A0.131,0.131,0,0,1,25.017,22.906ZM7.148,28.8H11.07a0.131,0.131,0,0,1,.131.131v4.058a0.131,0.131,0,0,1-.131.131H7.148a0.131,0.131,0,0,1-.131-0.131V28.927A0.131,0.131,0,0,1,7.148,28.8Zm5.927,0H17a0.131,0.131,0,0,1,.131.131v4.058a0.131,0.131,0,0,1-.131.131H13.075a0.131,0.131,0,0,1-.131-0.131V28.927A0.131,0.131,0,0,1,13.075,28.8ZM19,28.8h3.966a0.131,0.131,0,0,1,.131.131v4.058a0.131,0.131,0,0,1-.131.131H19a0.131,0.131,0,0,1-.131-0.131V28.927A0.131,0.131,0,0,1,19,28.8Zm6.014,0h3.835a0.131,0.131,0,0,1,.131.131v4.058a0.131,0.131,0,0,1-.131.131H25.017a0.131,0.131,0,0,1-.131-0.131V28.927A0.131,0.131,0,0,1,25.017,28.8ZM7.148,34.6H11.07a0.131,0.131,0,0,1,.131.131v4.1a0.131,0.131,0,0,1-.131.131H7.148a0.131,0.131,0,0,1-.131-0.131v-4.1A0.131,0.131,0,0,1,7.148,34.6Zm5.927,0H17a0.131,0.131,0,0,1,.131.131v4.1a0.131,0.131,0,0,1-.131.131H13.075a0.131,0.131,0,0,1-.131-0.131v-4.1A0.131,0.131,0,0,1,13.075,34.6ZM19,34.6h3.966a0.131,0.131,0,0,1,.131.131v4.1a0.131,0.131,0,0,1-.131.131H19a0.131,0.131,0,0,1-.131-0.131v-4.1A0.131,0.131,0,0,1,19,34.6Zm6.014,0h3.835a0.131,0.131,0,0,1,.131.131v4.1a0.131,0.131,0,0,1-.131.131H25.017a0.131,0.131,0,0,1-.131-0.131v-4.1A0.131,0.131,0,0,1,25.017,34.6ZM7.148,40.489H11.07a0.131,0.131,0,0,1,.131.131V44.59a0.131,0.131,0,0,1-.131.131H7.148a0.131,0.131,0,0,1-.131-0.131V40.619A0.131,0.131,0,0,1,7.148,40.489Zm5.927,0H17a0.131,0.131,0,0,1,.131.131V44.59a0.131,0.131,0,0,1-.131.131H13.075a0.131,0.131,0,0,1-.131-0.131V40.619A0.131,0.131,0,0,1,13.075,40.489Zm5.927,0h3.966a0.131,0.131,0,0,1,.131.131V44.59a0.131,0.131,0,0,1-.131.131H19a0.131,0.131,0,0,1-.131-0.131V40.619A0.131,0.131,0,0,1,19,40.489Zm6.014,0h3.835a0.131,0.131,0,0,1,.131.131V44.59a0.131,0.131,0,0,1-.131.131H25.017a0.131,0.131,0,0,1-.131-0.131V40.619A0.131,0.131,0,0,1,25.017,40.489Z"/>
</svg>
