<svg xmlns="http://www.w3.org/2000/svg" width="100" height="100" viewBox="0 0 100 100">
    <defs>
        <style>.cls-1{fill:#434242;fill-rule:evenodd}</style>
    </defs>
    <path id="_" data-name="" class="cls-1"
          d="M79.95 20Q92 32.1 92.5 50.2 92 68.3 79.95 80.35T49.7 92.9q-18.1-.5-30.15-12.5T7 50.2Q7.5 32 19.55 19.95T49.7 7.4q18.2.5 30.25 12.6zm9.55 31.6H77a58.628 58.628 0 0 1-3 17.8h10.5a39.941 39.941 0 0 0 5-17.8zm-78 9.35A41.668 41.668 0 0 0 15 69.4h10.4a65.389 65.389 0 0 1-2.9-17.8H10a38.81 38.81 0 0 0 1.5 9.35zm0-21.5A38.543 38.543 0 0 0 10 48.7h12.5a57.844 57.844 0 0 1 3-17.8H15a44.275 44.275 0 0 0-3.5 8.55zm62.6 9.25a57.94 57.94 0 0 0-3-17.8h-12q.5 4.5.75 9.05t.35 8.75h13.9zm-16.8 0q-.2-10.2-1-17.8H43.2a167.229 167.229 0 0 0-1 17.8h15.1zm-15.1 2.9a167.2 167.2 0 0 0 1 17.8h13.1q.8-7.6 1-17.8H42.2zm27.9-23.5A35.628 35.628 0 0 0 63.3 17a21.315 21.315 0 0 0-9.1-6 32.051 32.051 0 0 1 2.75 7.3 79.483 79.483 0 0 1 1.85 9.8h11.3zM52.85 14.8q-1.751-4.5-3.1-4.5t-3.1 4.5a65.107 65.107 0 0 0-3.05 13.3h12.3a65.324 65.324 0 0 0-3.05-13.3zm-10.3 3.5A31.9 31.9 0 0 1 45.3 11a21.3 21.3 0 0 0-9.1 6 35.6 35.6 0 0 0-6.8 11.1h11.3a78.889 78.889 0 0 1 1.85-9.8zM28.4 30.9a57.844 57.844 0 0 0-3 17.8h13.9q.1-4.2.35-8.75t.75-9.05h-12zm0 38.5h12q-.5-4.5-.75-9.05t-.35-8.75H25.4a57.146 57.146 0 0 0 3 17.8zm1 2.9a35.818 35.818 0 0 0 6.8 11 21.3 21.3 0 0 0 9.1 6 29.736 29.736 0 0 1-2.75-7.25 81.55 81.55 0 0 1-1.85-9.75H29.4zm17.25 13.25q1.75 4.55 3.1 4.55t3.1-4.55A66.357 66.357 0 0 0 55.9 72.3H43.6a66.133 66.133 0 0 0 3.05 13.25zm10.3-3.5a29.867 29.867 0 0 1-2.75 7.25 21.315 21.315 0 0 0 9.1-6 35.848 35.848 0 0 0 6.8-11H58.8a82.191 82.191 0 0 1-1.85 9.75zM71.1 69.4a57.24 57.24 0 0 0 3-17.8H60.2q-.1 4.2-.35 8.75t-.75 9.05h12zm18.4-20.7a40.448 40.448 0 0 0-5-17.8H74a57.94 57.94 0 0 1 3 17.8h12.5zM74.05 18.65A40.261 40.261 0 0 0 62.5 12.6a33.549 33.549 0 0 1 5.9 6.6 41.429 41.429 0 0 1 4.6 8.9h9.9a37.341 37.341 0 0 0-8.85-9.45zm-48.6 0a37.341 37.341 0 0 0-8.85 9.45h9.8a44.8 44.8 0 0 1 4.7-8.9 33.5 33.5 0 0 1 5.9-6.6 40.261 40.261 0 0 0-11.55 6.05zm0 63A42.244 42.244 0 0 0 37 87.8a32.884 32.884 0 0 1-5.9-6.65 47.233 47.233 0 0 1-4.7-8.85h-9.8a38.018 38.018 0 0 0 8.85 9.35zm48.6 0a38.018 38.018 0 0 0 8.85-9.35H73a43.448 43.448 0 0 1-4.6 8.85 32.932 32.932 0 0 1-5.9 6.65 42.244 42.244 0 0 0 11.55-6.15z"/>
</svg>