<svg xmlns="http://www.w3.org/2000/svg" width="100" height="100" viewBox="0 0 100 100">
    <defs>
        <style>.cls-1{fill:#434242;fill-rule:evenodd}</style>
    </defs>
    <path id="_" data-name="î " class="cls-1"
          d="M59.25 54.65a1.439 1.439 0 0 1 .45 1.05v8.7a1.281 1.281 0 0 1-.45 1 1.529 1.529 0 0 1-1.05.4h-4.4a18.767 18.767 0 0 1-2.1 4.9l3.2 3.2a1.488 1.488 0 0 1 .5 1.05 1.186 1.186 0 0 1-.5.95l-6.2 6.2a1.3 1.3 0 0 1-.95.4 1.653 1.653 0 0 1-1.05-.4L43.5 79a30.392 30.392 0 0 1-4.8 2v4.5a1.339 1.339 0 0 1-.45.95 1.439 1.439 0 0 1-1.05.45h-8.7a1.439 1.439 0 0 1-1.05-.45 1.339 1.339 0 0 1-.45-.95V81a28.437 28.437 0 0 1-4.9-2.1L19 82.1a1.45 1.45 0 0 1-2.1 0l-6.1-6.2a1.293 1.293 0 0 1-.4-.95 1.66 1.66 0 0 1 .4-1.05l3.1-3.2a28.912 28.912 0 0 1-2-4.9H7.4A1.365 1.365 0 0 1 6 64.4v-8.7a1.529 1.529 0 0 1 .4-1.05 1.281 1.281 0 0 1 1-.45h4.5a34.354 34.354 0 0 1 2-4.9l-3.1-3.1a1.524 1.524 0 0 1-.5-1.1.98.98 0 0 1 .5-.9l6.1-6.2a1.53 1.53 0 0 1 1.1-.5 1.233 1.233 0 0 1 1 .5l3.1 3.1a27.176 27.176 0 0 1 4.9-2v-4.5a1.283 1.283 0 0 1 .45-1 1.536 1.536 0 0 1 1.05-.4h8.7a1.536 1.536 0 0 1 1.05.4 1.283 1.283 0 0 1 .45 1v4.5a21.63 21.63 0 0 1 4.8 2l3.2-3.1a1.25 1.25 0 0 1 2 0l6.2 6.1a1.45 1.45 0 0 1 0 2.1l-3.1 3.1a34.541 34.541 0 0 1 2 4.9h4.4a1.439 1.439 0 0 1 1.05.45zM56.8 57.1h-4.1a1.466 1.466 0 0 1-1.4-1.1 19.871 19.871 0 0 0-2.6-6.1 1.5 1.5 0 0 1 .2-1.8l3-2.9-4.2-4.2-2.9 3a1.6 1.6 0 0 1-1.8.1 19.37 19.37 0 0 0-6.1-2.5 1.466 1.466 0 0 1-1.1-1.4v-4.1h-5.9v4.1a1.469 1.469 0 0 1-1.1 1.4 19.339 19.339 0 0 0-6.1 2.5 1.6 1.6 0 0 1-1.8-.1L18 41l-4.2 4.2 3 2.9a1.743 1.743 0 0 1 .2 1.8 17.05 17.05 0 0 0-2.6 6.1 1.357 1.357 0 0 1-1.4 1.1H8.9V63H13a1.255 1.255 0 0 1 1.4 1.1 18.1 18.1 0 0 0 2.6 6.1 1.742 1.742 0 0 1-.2 1.8l-3 2.9 4.2 4.2 2.9-3a1.244 1.244 0 0 1 .9-.4 2 2 0 0 1 .9.2 19.815 19.815 0 0 0 6.1 2.6 1.36 1.36 0 0 1 1.1 1.4V84h5.9v-4.1a1.357 1.357 0 0 1 1.1-1.4 21.321 21.321 0 0 0 6.1-2.6 1.743 1.743 0 0 1 1.8.2l2.9 3 4.2-4.2-3-2.9a1.5 1.5 0 0 1-.2-1.8 21.328 21.328 0 0 0 2.6-6.1 1.336 1.336 0 0 1 1.4-1.1h4.1v-5.9zm-14.2-6.75a13.35 13.35 0 0 1 4 9.65 13.519 13.519 0 0 1-4 9.7 14 14 0 0 1-9.8 4.1 13.7 13.7 0 0 1-9.65-4.1A13.977 13.977 0 0 1 19.1 60a13.83 13.83 0 0 1 13.7-13.7 14.111 14.111 0 0 1 9.8 4.05zM40.5 67.7a10.81 10.81 0 0 0 3.2-7.7 10.643 10.643 0 0 0-3.2-7.65 10.909 10.909 0 0 0-7.7-3.15 10.786 10.786 0 0 0-7.6 3.15A10.63 10.63 0 0 0 22 60a10.8 10.8 0 0 0 3.2 7.7 10.682 10.682 0 0 0 7.6 3.2 10.8 10.8 0 0 0 7.7-3.2zm52.8-35.45a1.536 1.536 0 0 1 .4 1.05v6.4a1.536 1.536 0 0 1-.4 1.05 1.283 1.283 0 0 1-1 .45h-3a17.948 17.948 0 0 1-1.4 3.1l2.2 2.2a1.3 1.3 0 0 1 .4.95 1.662 1.662 0 0 1-.4 1.05l-4.6 4.6a1.748 1.748 0 0 1-2.1 0l-2.1-2.2a23.087 23.087 0 0 1-3.2 1.4v3a1.367 1.367 0 0 1-1.4 1.4h-6.5a1.365 1.365 0 0 1-1.4-1.4v-3a23 23 0 0 1-3.2-1.4l-2.1 2.2a1.66 1.66 0 0 1-1.05.4 1.293 1.293 0 0 1-.95-.4l-4.6-4.6a1.414 1.414 0 0 1-.4-1.05 1.109 1.109 0 0 1 .4-.95l2.1-2.2a17.815 17.815 0 0 1-1.3-3.1h-3a1.538 1.538 0 0 1-1.5-1.5v-6.4a1.538 1.538 0 0 1 1.5-1.5h3a21.389 21.389 0 0 1 1.3-3.2l-2.1-2.1a1.414 1.414 0 0 1-.4-1.05 1.109 1.109 0 0 1 .4-.95l4.6-4.6a1.186 1.186 0 0 1 .95-.5 1.488 1.488 0 0 1 1.05.5l2.1 2.1a17.008 17.008 0 0 1 3.2-1.3v-3a1.367 1.367 0 0 1 1.4-1.4h6.5a1.369 1.369 0 0 1 1.4 1.4v3a17.051 17.051 0 0 1 3.2 1.3l2.2-2.1a1.186 1.186 0 0 1 .95-.5 1.488 1.488 0 0 1 1.05.5l4.6 4.6a1.3 1.3 0 0 1 .4.95 1.662 1.662 0 0 1-.4 1.05l-2.2 2.1a16.793 16.793 0 0 1 1.4 3.2h3a1.283 1.283 0 0 1 1 .45zm-2.5 2.45h-2.7a1.6 1.6 0 0 1-1.4-1.1 10.647 10.647 0 0 0-1.8-4.4 1.336 1.336 0 0 1 .2-1.8l1.9-1.9-2.5-2.6-1.9 2a1.764 1.764 0 0 1-.9.35 1.592 1.592 0 0 1-.9-.15 16.037 16.037 0 0 0-4.4-1.9 1.334 1.334 0 0 1-1.1-1.4v-2.7h-3.6v2.7a1.488 1.488 0 0 1-1.2 1.4 14.615 14.615 0 0 0-4.3 1.9 1.739 1.739 0 0 1-1.8-.2l-1.9-2-2.6 2.6 1.9 1.9a1.338 1.338 0 0 1 .2 1.8 12.768 12.768 0 0 0-1.8 4.4 1.467 1.467 0 0 1-1.4 1.1h-2.7v3.6h2.7a1.471 1.471 0 0 1 1.4 1.1 13.91 13.91 0 0 0 1.8 4.4 1.248 1.248 0 0 1 .25.9 1.464 1.464 0 0 1-.45.9l-1.9 1.9 2.6 2.5 1.9-1.9a1.5 1.5 0 0 1 1.8-.2 14.573 14.573 0 0 0 4.3 1.9 1.383 1.383 0 0 1 1.2 1.4v2.6h3.6v-2.6a1.253 1.253 0 0 1 1.1-1.4 15.988 15.988 0 0 0 4.4-1.9 1.985 1.985 0 0 1 .9-.2 1.249 1.249 0 0 1 .9.4l1.9 1.9 2.5-2.5-1.9-1.9a1.336 1.336 0 0 1-.2-1.8 11.416 11.416 0 0 0 1.8-4.4 1.6 1.6 0 0 1 1.4-1.1h2.7v-3.6zM79.95 30a8.912 8.912 0 0 1 2.55 6.5 8.909 8.909 0 0 1-2.55 6.5 8.65 8.65 0 0 1-6.45 2.6 8.886 8.886 0 0 1-9.1-9.1A8.817 8.817 0 0 1 67 30a9.175 9.175 0 0 1 6.5-2.7 9 9 0 0 1 6.45 2.7zM77.9 40.95a5.939 5.939 0 0 0 1.8-4.45 6.2 6.2 0 1 0-12.4 0 6.025 6.025 0 0 0 1.75 4.45 6.373 6.373 0 0 0 4.45 1.85 6.443 6.443 0 0 0 4.4-1.85z"/>
</svg>