<svg xmlns="http://www.w3.org/2000/svg" width="100" height="100" viewBox="0 0 100 100">
    <defs>
        <style>.cls-1{fill:#434242;fill-rule:evenodd}</style>
    </defs>
    <path id="_" data-name="" class="cls-1"
          d="M48.3 49.6l9.4 35.3a1.079 1.079 0 0 1-.1 1 1.6 1.6 0 0 1-.9.7 36 36 0 0 1-10.4 1.5q-17.1-.4-28.5-11.75T6 47.8q.4-17.2 11.75-28.6T46.3 7.4q17.2.4 28.6 11.8t11.8 28.6a30.448 30.448 0 0 1-.7 6.7 1.461 1.461 0 0 1-.55.95 1.286 1.286 0 0 1-1.05.25zm-3.4-1.5a1.4 1.4 0 0 1 .35-1.35 1.113 1.113 0 0 1 1.35-.35l36.8 6.2a28.078 28.078 0 0 0 .4-4.8q-.4-15.9-11-26.5t-26.5-11q-15.9.4-26.5 11t-11 26.5q.4 15.9 11 26.5t26.5 11a34.235 34.235 0 0 0 8.3-1.1zm49.4 13.6a39.868 39.868 0 0 1-9.9 20.25A40.8 40.8 0 0 1 65 93.8l-.4.1a1.6 1.6 0 0 1-1.4-1.1l-10-37.5a1.61 1.61 0 0 1 .4-1.35 1.3 1.3 0 0 1 1.2-.45l38.3 6.6a1.38 1.38 0 0 1 1.2 1.6zM82.25 80.1a37.239 37.239 0 0 0 8.95-17.5l-34.6-5.9 9 33.9a37.1 37.1 0 0 0 16.65-10.5z"/>
</svg>