<svg xmlns="http://www.w3.org/2000/svg" width="100" height="100" viewBox="0 0 100 100">
    <defs>
        <style>.cls-1{fill:#434242;fill-rule:evenodd}</style>
    </defs>
    <path id="_" data-name="" class="cls-1"
          d="M37.6 42a17.4 17.4 0 0 1 0-24.7 17.1 17.1 0 0 1 5.7-3.8 17.648 17.648 0 0 1 6.7-1.3A17.45 17.45 0 1 1 37.6 42zm2.05-22.65A14.488 14.488 0 1 0 50 15a14.756 14.756 0 0 0-10.35 4.35zm36.4 39.35a11.47 11.47 0 0 1 0-16.4 11.66 11.66 0 0 1 8.25-3.4 11.6 11.6 0 0 1 0 23.2 11.653 11.653 0 0 1-8.25-3.4zM78 44.3a9.062 9.062 0 0 0 0 12.5 8.751 8.751 0 0 0 15-6.25 8.485 8.485 0 0 0-2.5-6.25 8.784 8.784 0 0 0-6.2-2.6 8.9 8.9 0 0 0-6.3 2.6zM99 87a1.283 1.283 0 0 1-.45 1 1.42 1.42 0 0 1-.95.4H2.4a1.281 1.281 0 0 1-1-.45A1.412 1.412 0 0 1 1 87l.5-17.6a14.237 14.237 0 0 1 3.1-8.3 1.392 1.392 0 0 1 1-.55 1.516 1.516 0 0 1 1.1.35 14.589 14.589 0 0 0 4.2 2.65 12.6 12.6 0 0 0 9.6 0 14.631 14.631 0 0 0 4.2-2.65 1.514 1.514 0 0 1 1.1-.35 1.4 1.4 0 0 1 1 .55 17.036 17.036 0 0 1 1.6 2.6l.1-4.3a23.284 23.284 0 0 1 4.7-12.7 1.392 1.392 0 0 1 1-.55 1.21 1.21 0 0 1 1 .35 21.66 21.66 0 0 0 6.9 4.4 21.321 21.321 0 0 0 7.9 1.5 20.567 20.567 0 0 0 7.8-1.5 23.283 23.283 0 0 0 6.9-4.4 1.514 1.514 0 0 1 1.1-.35 1.4 1.4 0 0 1 1 .55 23 23 0 0 1 4.6 12.7l.2 4.3a10.51 10.51 0 0 1 1.6-2.6 1.355 1.355 0 0 1 .95-.55 1.446 1.446 0 0 1 1.05.35 13.6 13.6 0 0 0 9.1 3.6 13.744 13.744 0 0 0 9-3.6 1.514 1.514 0 0 1 1.1-.35 1.4 1.4 0 0 1 1 .55 14.912 14.912 0 0 1 3 8.3l.6 17.5v.1zm-16.2-8.1h3l-1.5-11.5h-.1zM46.7 75h6.5l-2.5-19.6h-1.5zm-32.5 3.9h3l-1.5-11.5zm13.4 6.7l-.5-16.1a12.119 12.119 0 0 0-1.7-5.6 16.51 16.51 0 0 1-6.9 3.1l1.6 13v.3a1.417 1.417 0 0 1-.4.95 1.186 1.186 0 0 1-.9.45h-6.2a1.227 1.227 0 0 1-1-.5 1.717 1.717 0 0 1-.4-1.1L12.9 67A16.493 16.493 0 0 1 6 63.9a12.082 12.082 0 0 0-1.7 5.6l-.5 16.1h23.8zm41.9 0l-.8-26.1a18.305 18.305 0 0 0-3.3-9.9 24.351 24.351 0 0 1-6.3 3.7 20.649 20.649 0 0 1-5.6 1.6l2.7 21.5a1.367 1.367 0 0 1-1.4 1.4h-9.7a1.227 1.227 0 0 1-1-.5 1.337 1.337 0 0 1-.3-1.1l2.7-21.3a20.632 20.632 0 0 1-5.6-1.6 22.318 22.318 0 0 1-6.3-3.7 19.461 19.461 0 0 0-3.3 9.9l-.8 26.1h39zm26.6 0l-.5-16.1a10.722 10.722 0 0 0-1.7-5.6A15.792 15.792 0 0 1 87 67l1.7 13v.3a1.417 1.417 0 0 1-.4.95 1.283 1.283 0 0 1-1 .45h-6.1a1.227 1.227 0 0 1-1-.5 1.717 1.717 0 0 1-.4-1.1L81.5 67a15.776 15.776 0 0 1-6.9-3.1 10.707 10.707 0 0 0-1.7 5.6l-.5 16.1h23.7zM7.5 58.7a11.6 11.6 0 0 1 8.2-19.8 11.6 11.6 0 1 1-8.2 19.8zm1.9-14.4a8.752 8.752 0 0 0 6.3 15 8.376 8.376 0 0 0 6.25-2.5 9.2 9.2 0 0 0 0-12.5 8.725 8.725 0 0 0-6.25-2.6 8.9 8.9 0 0 0-6.3 2.6z"/>
</svg>