<svg xmlns="http://www.w3.org/2000/svg" width="100" height="100" viewBox="0 0 100 100">
    <metadata><?xpacket begin="﻿" id="W5M0MpCehiHzreSzNTczkc9d"?>
        <x:xmpmeta xmlns:x="adobe:ns:meta/" x:xmptk="Adobe XMP Core 5.6-c138 79.159824, 2016/09/14-01:09:01        ">
            <rdf:RDF xmlns:rdf="http://www.w3.org/1999/02/22-rdf-syntax-ns#">
                <rdf:Description rdf:about=""/>
            </rdf:RDF>
        </x:xmpmeta>


        <?xpacket end="w"?>
    </metadata>
    <defs>
        <style>
            .cls-1 {
            fill: #434242;
            fill-rule: evenodd;
            }
        </style>
    </defs>
    <path id="_" data-name="" class="cls-1"
          d="M75.25,48.7q6.848,11.4,7.25,22-0.4,13.6-9.8,17.65T50.3,92q-13,.4-22.45-3.65T18,70.7q0.3-11.1,7.05-22.45T40.8,30.9a3.641,3.641,0,0,1-.8-2.35,3.4,3.4,0,0,1,.9-2.35,4.235,4.235,0,0,1-1-2.4,5.5,5.5,0,0,1,.4-1.5,18.448,18.448,0,0,1-4.65-2.6,10.443,10.443,0,0,1-3.25-3.8,4.288,4.288,0,0,1,.5-4.3Q35,9.3,36.95,9.45a8.671,8.671,0,0,1,3.45.95,10.2,10.2,0,0,0,2,.7,0.978,0.978,0,0,0,.9-0.2,7.042,7.042,0,0,0,.9-1.45A11.191,11.191,0,0,1,45.9,7.1a5.715,5.715,0,0,1,3.3-1.6,4.859,4.859,0,0,1,3.9,1.2,13.728,13.728,0,0,1,2.2,2.5l0.3,0.5a2.063,2.063,0,0,0,1.9.95,4.053,4.053,0,0,0,1.9-.85,4.388,4.388,0,0,1,2.7-.9,5.006,5.006,0,0,1,2.75.8,4.024,4.024,0,0,1,1.7,2.1,5.6,5.6,0,0,1,.15,2.9,9.256,9.256,0,0,1-2.6,4.4A14.95,14.95,0,0,1,60,21.9a4.9,4.9,0,0,1,.6,1.9,4.623,4.623,0,0,1-.9,2.4,4.044,4.044,0,0,1,.85,2.45,3.17,3.17,0,0,1-.95,2.45Q68.4,37.3,75.25,48.7ZM56.8,29.6a1.025,1.025,0,0,0,0-2h-13a1.025,1.025,0,0,0-1,1,1.024,1.024,0,0,0,1,1h13ZM43.1,24.5a0.959,0.959,0,0,0,.7.3h13a0.964,0.964,0,0,0,0-1.9h-13a0.988,0.988,0,0,0-1,.9A0.959,0.959,0,0,0,43.1,24.5Zm-4.4-6.2a11.287,11.287,0,0,0,4.4,1.8l0.7-.1h13l0.4,0.1,0.4-.3a10.52,10.52,0,0,0,3.6-1.9,7.325,7.325,0,0,0,2.7-3.8,1.672,1.672,0,0,0-.6-2,2.354,2.354,0,0,0-2.3,0,5.923,5.923,0,0,1-4.2,1.4,4.8,4.8,0,0,1-3.5-2.1,2.268,2.268,0,0,1-.4-0.6A8.321,8.321,0,0,0,51.4,9a2.37,2.37,0,0,0-1.85-.6,2.6,2.6,0,0,0-1.65.7,6.516,6.516,0,0,0-1.15,1.7A9.883,9.883,0,0,1,45.2,13a3.5,3.5,0,0,1-3.1.9,9.177,9.177,0,0,1-3-.9,5.456,5.456,0,0,0-2.25-.7,2.165,2.165,0,0,0-1.65,1.1,1.133,1.133,0,0,0-.1,1.4h0A9.534,9.534,0,0,0,38.7,18.3ZM71.6,85.65q7.9-3.75,8.1-14.95-0.5-11.1-7.75-22.2T56.4,32.4H43.7q-8.6,5-15.5,16.2T20.9,70.7q0.2,11.2,8.05,14.95T50.3,89.1h0Q63.7,89.4,71.6,85.65ZM60.8,61.7a8.505,8.505,0,0,1,1.5,4.9,9.814,9.814,0,0,1-2.65,6.75Q57,76.3,51.6,76.9v4.6H47.7V76.9q-8.8-1-10.8-8.5l6.7-1.6q1.2,4.3,6.4,4.3a6.174,6.174,0,0,0,3.7-.9,2.9,2.9,0,0,0,1.25-2.3,2.338,2.338,0,0,0-1.05-2.15,12.874,12.874,0,0,0-4.4-1.35q-6.9-1.5-8.95-3.9a8.489,8.489,0,0,1-2.05-5.7,9.153,9.153,0,0,1,2.6-6.6,10.262,10.262,0,0,1,6.6-3.1V41.2h3.9V45q7.5,0.7,9.9,7.2l-6.2,2.1A5.037,5.037,0,0,0,50,50.6q-4.3,0-4.3,2.8a2.547,2.547,0,0,0,.8,1.95,7.794,7.794,0,0,0,3.6,1.25,36.229,36.229,0,0,1,7,2A8.242,8.242,0,0,1,60.8,61.7Z"/>
</svg>
