<svg xmlns="http://www.w3.org/2000/svg" width="100" height="100" viewBox="0 0 100 100">
  <metadata><?xpacket begin="﻿" id="W5M0MpCehiHzreSzNTczkc9d"?>
<x:xmpmeta xmlns:x="adobe:ns:meta/" x:xmptk="Adobe XMP Core 5.6-c138 79.159824, 2016/09/14-01:09:01        ">
   <rdf:RDF xmlns:rdf="http://www.w3.org/1999/02/22-rdf-syntax-ns#">
      <rdf:Description rdf:about=""/>
   </rdf:RDF>
</x:xmpmeta>
                                                                                                    
                                                                                                    
                                                                                                    
                                                                                                    
                                                                                                    
                                                                                                    
                                                                                                    
                                                                                                    
                                                                                                    
                                                                                                    
                                                                                                    
                                                                                                    
                                                                                                    
                                                                                                    
                                                                                                    
                                                                                                    
                                                                                                    
                                                                                                    
                                                                                                    
                                                                                                    
                           
<?xpacket end="w"?></metadata>
<defs>
    <style>
      .cls-1 {
        fill: #434242;
        fill-rule: evenodd;
      }
    </style>
  </defs>
  <path id="_" data-name="" class="cls-1" d="M48.3,49.6l9.4,35.3a1.079,1.079,0,0,1-.1,1,1.6,1.6,0,0,1-.9.7,36,36,0,0,1-10.4,1.5q-17.1-.4-28.5-11.75T6,47.8Q6.4,30.6,17.75,19.2T46.3,7.4Q63.5,7.8,74.9,19.2T86.7,47.8a30.448,30.448,0,0,1-.7,6.7,1.461,1.461,0,0,1-.55.95,1.286,1.286,0,0,1-1.05.25Zm-3.4-1.5a1.4,1.4,0,0,1,.35-1.35,1.113,1.113,0,0,1,1.35-.35l36.8,6.2a28.078,28.078,0,0,0,.4-4.8q-0.4-15.9-11-26.5t-26.5-11q-15.9.4-26.5,11T8.8,47.8q0.4,15.9,11,26.5t26.5,11a34.235,34.235,0,0,0,8.3-1.1ZM94.3,61.7a39.868,39.868,0,0,1-9.9,20.25A40.8,40.8,0,0,1,65,93.8l-0.4.1a1.6,1.6,0,0,1-1.4-1.1l-10-37.5a1.61,1.61,0,0,1,.4-1.35,1.3,1.3,0,0,1,1.2-.45l38.3,6.6a1.38,1.38,0,0,1,1.2,1.6h0ZM82.25,80.1A37.239,37.239,0,0,0,91.2,62.6L56.6,56.7l9,33.9A37.1,37.1,0,0,0,82.25,80.1Z"/>
</svg>
