<svg xmlns="http://www.w3.org/2000/svg" width="14" height="15" viewBox="0 0 14 15">
  <metadata><?xpacket begin="﻿" id="W5M0MpCehiHzreSzNTczkc9d"?>
<x:xmpmeta xmlns:x="adobe:ns:meta/" x:xmptk="Adobe XMP Core 5.6-c138 79.159824, 2016/09/14-01:09:01        ">
   <rdf:RDF xmlns:rdf="http://www.w3.org/1999/02/22-rdf-syntax-ns#">
      <rdf:Description rdf:about=""/>
   </rdf:RDF>
</x:xmpmeta>
                                                                                                    
                                                                                                    
                                                                                                    
                                                                                                    
                                                                                                    
                                                                                                    
                                                                                                    
                                                                                                    
                                                                                                    
                                                                                                    
                                                                                                    
                                                                                                    
                                                                                                    
                                                                                                    
                                                                                                    
                                                                                                    
                                                                                                    
                                                                                                    
                                                                                                    
                                                                                                    
                           
<?xpacket end="w"?></metadata>

  <path fill="#fff" fill-rule="evenodd" d="M7,0.75a4.28,4.28,0,0,0-2.187.588,4.344,4.344,0,0,0-1.6,1.6,4.364,4.364,0,0,0,0,4.375,4.344,4.344,0,0,0,1.6,1.6,4.364,4.364,0,0,0,4.375,0,4.344,4.344,0,0,0,1.6-1.6,4.364,4.364,0,0,0,0-4.375,4.344,4.344,0,0,0-1.6-1.6A4.28,4.28,0,0,0,7,.75Zm5,9.133a2.577,2.577,0,0,1,1.436.93A2.536,2.536,0,0,1,14,12.426v1.012a1.307,1.307,0,0,1-1.312,1.313H1.313a1.266,1.266,0,0,1-.93-0.383A1.266,1.266,0,0,1,0,13.438V12.426a2.536,2.536,0,0,1,.561-1.613A2.577,2.577,0,0,1,2,9.883l1.941-.492a5.133,5.133,0,0,0,2.9.984,5.126,5.126,0,0,0,3.227-.984Z"/>
</svg>
