<svg xmlns="http://www.w3.org/2000/svg" width="24" height="23" viewBox="0 0 24 23">
    <metadata><?xpacket begin="﻿" id="W5M0MpCehiHzreSzNTczkc9d"?>
        <x:xmpmeta xmlns:x="adobe:ns:meta/" x:xmptk="Adobe XMP Core 5.6-c138 79.159824, 2016/09/14-01:09:01        ">
            <rdf:RDF xmlns:rdf="http://www.w3.org/1999/02/22-rdf-syntax-ns#">
                <rdf:Description rdf:about=""/>
            </rdf:RDF>
        </x:xmpmeta>


        <?xpacket end="w"?>
    </metadata>

    <path fill="#00ae2c" fill-rule="evenodd"
          d="M8.133,6.973a1.456,1.456,0,0,0,.234-1.23A13.843,13.843,0,0,1,7.605,1.23,1.254,1.254,0,0,0,7.283.352,1.171,1.171,0,0,0,6.375,0H1.98A1.2,1.2,0,0,0,.75,1.23,20.907,20.907,0,0,0,3.592,11.924a20.979,20.979,0,0,0,7.734,7.734A20.907,20.907,0,0,0,22.02,22.5a1.2,1.2,0,0,0,1.23-1.23V16.992a1.2,1.2,0,0,0-1.23-1.231A12.859,12.859,0,0,1,17.508,15a0.889,0.889,0,0,0-1.23.234l-2.754,2.754A18.37,18.37,0,0,1,5.262,9.727Z"/>
</svg>
