<svg xmlns="http://www.w3.org/2000/svg" width="84" height="26" viewBox="0 0 84 26">
  <metadata><?xpacket begin="﻿" id="W5M0MpCehiHzreSzNTczkc9d"?>
    <x:xmpmeta xmlns:x="adobe:ns:meta/" x:xmptk="Adobe XMP Core 5.6-c138 79.159824, 2016/09/14-01:09:01        ">
      <rdf:RDF xmlns:rdf="http://www.w3.org/1999/02/22-rdf-syntax-ns#">
        <rdf:Description rdf:about=""/>
      </rdf:RDF>
    </x:xmpmeta>

    <?xpacket end="w"?></metadata>

  <path
    id="Фигура_1"
    data-name="Фигура 1"
    fill="#43ac3c"
    d="M9.006,0.529H32.013a0.355,0.355,0,0,1,.357.353V5.993H8.65V0.881A0.355,0.355,0,0,1,9.006.529ZM6.331,5.993H35.669a0.355,0.355,0,0,1,.357.353v2.2H5.975v-2.2A0.355,0.355,0,0,1,6.331,5.993ZM3.3,8.549H38.612a0.443,0.443,0,0,1,.446.441v4.054H2.854V8.99A0.443,0.443,0,0,1,3.3,8.549Zm41.643,2.292h10.7a0.355,0.355,0,0,1,.357.352v2.468H44.586V11.193A0.355,0.355,0,0,1,44.943,10.841Zm11.5-10.664H76.153A0.443,0.443,0,0,1,76.6.617v9.607a0.443,0.443,0,0,1-.446.441H56.446A0.443,0.443,0,0,1,56,10.224V0.617A0.443,0.443,0,0,1,56.446.176Zm0,10.488h19.8a0.443,0.443,0,0,1,.446.441v2.556H56V11.105A0.443,0.443,0,0,1,56.446,10.664Zm-56.535,2.38s0.981,6.786,1.338,8.285A5.557,5.557,0,0,0,6.688,26H75.35L84,13.661H44.586v6.258H38.968l0.089-6.875H-0.089Z"/>
</svg>
