<svg xmlns="http://www.w3.org/2000/svg" width="16" height="16" viewBox="0 0 16 16">
    <metadata><?xpacket begin="﻿" id="W5M0MpCehiHzreSzNTczkc9d"?>
        <x:xmpmeta xmlns:x="adobe:ns:meta/" x:xmptk="Adobe XMP Core 5.6-c138 79.159824, 2016/09/14-01:09:01        ">
            <rdf:RDF xmlns:rdf="http://www.w3.org/1999/02/22-rdf-syntax-ns#">
                <rdf:Description rdf:about=""/>
            </rdf:RDF>
        </x:xmpmeta>


        <?xpacket end="w"?>
    </metadata>

    <path fill="#00ae2c" fill-rule="evenodd"
          d="M14.941,9.8a3.827,3.827,0,0,1,.809,2.391,3.937,3.937,0,0,1-3.937,3.938,3.827,3.827,0,0,1-2.391-.809,8.626,8.626,0,0,1-1.547.141,7.041,7.041,0,0,1-3.621-.967,7.2,7.2,0,0,1-2.619-2.619A7.042,7.042,0,0,1,.668,8.25,9.034,9.034,0,0,1,.809,6.7,3.827,3.827,0,0,1,0,4.313,3.937,3.937,0,0,1,1.969.9,3.874,3.874,0,0,1,3.938.375a3.827,3.827,0,0,1,2.391.809,8.631,8.631,0,0,1,1.547-.141A7.042,7.042,0,0,1,11.5,2.01a7.2,7.2,0,0,1,2.619,2.619,7.041,7.041,0,0,1,.967,3.621A9.029,9.029,0,0,1,14.941,9.8ZM8.086,13a4.824,4.824,0,0,0,2.707-.738,2.635,2.635,0,0,0,1.23-2.285,2.261,2.261,0,0,0-1.055-1.934A6.517,6.517,0,0,0,8.824,7.23L8.262,7.125A11.452,11.452,0,0,1,6.855,6.7,0.677,0.677,0,0,1,6.4,6.07Q6.4,5.3,7.875,5.3a2.492,2.492,0,0,1,1.055.211,4.974,4.974,0,0,1,.633.457,1.266,1.266,0,0,0,.422.352A1.112,1.112,0,0,0,11.3,6.141a1.13,1.13,0,0,0,.3-0.809,1.676,1.676,0,0,0-1.23-1.406A6.441,6.441,0,0,0,7.682,3.4,4.939,4.939,0,0,0,5.1,4.031a2.468,2.468,0,0,0-1.23,2.215,2.41,2.41,0,0,0,.492,1.582,2.612,2.612,0,0,0,1.266.844,13.038,13.038,0,0,0,1.793.492l0.7,0.176a3.606,3.606,0,0,1,.984.316,0.68,0.68,0,0,1,.387.633,0.786,0.786,0,0,1-.422.686,2.065,2.065,0,0,1-1.107.264,2.312,2.312,0,0,1-1.213-.316,3.819,3.819,0,0,1-.773-0.633,2.568,2.568,0,0,0-.492-0.457,1.109,1.109,0,0,0-.6-0.176,0.955,0.955,0,0,0-.756.3,1.1,1.1,0,0,0-.264.756,1.57,1.57,0,0,0,.563,1.16,3.87,3.87,0,0,0,1.547.826A7.227,7.227,0,0,0,8.086,13Z"/>
</svg>
