<svg xmlns="http://www.w3.org/2000/svg" width="18" height="18" viewBox="0 0 18 18">
    <metadata><?xpacket begin="﻿" id="W5M0MpCehiHzreSzNTczkc9d"?>
        <x:xmpmeta xmlns:x="adobe:ns:meta/" x:xmptk="Adobe XMP Core 5.6-c138 79.159824, 2016/09/14-01:09:01        ">
            <rdf:RDF xmlns:rdf="http://www.w3.org/1999/02/22-rdf-syntax-ns#">
                <rdf:Description rdf:about=""/>
            </rdf:RDF>
        </x:xmpmeta>


        <?xpacket end="w"?>
    </metadata>
    <path fill="#00ae2c" fill-rule="evenodd"
          d="M13.578,1.709A8.816,8.816,0,0,1,16.76,4.891,8.455,8.455,0,0,1,17.938,9.25a8.454,8.454,0,0,1-1.178,4.359,8.816,8.816,0,0,1-3.182,3.182,8.454,8.454,0,0,1-4.359,1.178,8.453,8.453,0,0,1-4.359-1.178,8.811,8.811,0,0,1-3.182-3.182A8.448,8.448,0,0,1,.5,9.25,8.449,8.449,0,0,1,1.678,4.891,8.812,8.812,0,0,1,4.859,1.709,8.453,8.453,0,0,1,9.219.531,8.454,8.454,0,0,1,13.578,1.709ZM13.385,5.893A0.415,0.415,0,0,0,12.91,5.8l-8.4,3.27a0.555,0.555,0,0,0-.475.352Q4.015,9.637,4.4,9.742L6.547,10.41l4.992-3.129a0.358,0.358,0,0,1,.281-0.07q0.105,0.035,0,.141L7.777,11.008,7.6,13.223a0.639,0.639,0,0,0,.457-0.211l1.055-1.019,2.18,1.617q0.633,0.352.773-.352l1.441-6.75A0.678,0.678,0,0,0,13.385,5.893Z"/>
</svg>
