<svg xmlns="http://www.w3.org/2000/svg" width="21" height="18">
    <path fill="#FFF" fill-rule="evenodd" d="M19.001 5.062h-2.83a.789.789 0 0 0-.073-.165l-2.777-4.5A.83.83 0 0 0 12.614 0a.838.838 0 0 0-.833.843.85.85 0 0 0 .126.447l2.328 3.772H7.106L9.434 1.29a.858.858 0 0 0 .125-.447.83.83 0 1 0-1.54-.446l-2.777 4.5c-.031.05-.052.108-.073.165h-2.83c-.92 0-1.666.756-1.666 1.688v1.125c0 .799.55 1.464 1.287 1.639l2.113 7.275a1.67 1.67 0 0 0 1.599 1.21h9.997c.756 0 1.395-.511 1.599-1.21l2.113-7.275a1.681 1.681 0 0 0 1.286-1.639V6.75c0-.932-.746-1.688-1.666-1.688zM2.339 6.75h16.662v1.125H2.339V6.75zm13.33 9.562l-9.998.001-1.96-6.751h13.918l-1.96 6.75z"/>
</svg>
