<svg xmlns="http://www.w3.org/2000/svg" width="33" height="27">
    <defs>
        <filter id="a">
            <feFlood flood-color="#000" flood-opacity="1" result="floodOut"/>
            <feComposite in="floodOut" in2="SourceGraphic" operator="atop" result="compOut"/>
            <feBlend in="compOut" in2="SourceGraphic"/>
        </filter>
    </defs>
    <path fill="#FFF" fill-rule="evenodd" d="M18.812 17.662a2.69 2.69 0 0 1-3.771 0 2.61 2.61 0 0 1 0-3.724c.453-.447 1.726-1.488 3.392-2.807L32.924-.002 21.616 14.359c-1.316 1.621-2.353 2.858-2.804 3.303zM18.26 2.716v1.232c0 .728-.597 1.318-1.333 1.318-.737 0-1.334-.59-1.334-1.318V2.713A13.314 13.314 0 0 0 8.495 5.61l.89.879a1.304 1.304 0 0 1 0 1.862 1.345 1.345 0 0 1-1.885 0l-.892-.881a13.03 13.03 0 0 0-2.944 7.014h1.264c.737 0 1.333.589 1.333 1.316 0 .727-.596 1.317-1.333 1.317H3.664A13.045 13.045 0 0 0 7.5 25.111l-1.885 1.863C2.72 24.114.929 20.163.929 15.8.929 7.073 8.091-.002 16.927-.002c3.026 0 5.847.843 8.257 2.289l-2.288 1.757a13.46 13.46 0 0 0-4.636-1.328zm10.665 14.401c-.737 0-1.333-.59-1.333-1.317s.596-1.316 1.333-1.316h1.249a13.094 13.094 0 0 0-1.34-4.588l1.773-2.253a15.512 15.512 0 0 1 2.317 8.157c0 4.363-1.791 8.314-4.685 11.174l-1.886-1.863a13.019 13.019 0 0 0 3.823-7.994h-1.251z" filter="url(#a)" opacity=".251"/>
</svg>
