<svg xmlns="http://www.w3.org/2000/svg" width="32" height="32">
    <defs>
        <filter id="a">
            <feFlood flood-color="#000" flood-opacity="1" result="floodOut"/>
            <feComposite in="floodOut" in2="SourceGraphic" operator="atop" result="compOut"/>
            <feBlend in="compOut" in2="SourceGraphic"/>
        </filter>
    </defs>
    <path fill="#FFF" fill-rule="evenodd" d="M29.051 17.257l2.577 1.288a15.932 15.932 0 0 1-2.852 6.82l-2.73-.91a13.353 13.353 0 0 1-1.73 1.732l.908 2.72a15.935 15.935 0 0 1-6.725 2.815v-8.238a7.94 7.94 0 0 0 2.959-1.868 8.002 8.002 0 0 0 0-11.303 7.939 7.939 0 0 0-1.643-1.256v6.348l-3.977 1.902-3.978-1.902V9.032a7.986 7.986 0 0 0-1.685 1.281 8.004 8.004 0 0 0 0 11.303 7.93 7.93 0 0 0 3.001 1.882v8.238a15.961 15.961 0 0 1-6.689-2.794l.91-2.726a13.362 13.362 0 0 1-1.801-1.798l-2.722.907a15.902 15.902 0 0 1-2.815-6.786l2.571-1.285a13.19 13.19 0 0 1-.006-2.544L.048 13.424a15.942 15.942 0 0 1 2.851-6.821l2.73.91a13.29 13.29 0 0 1 1.73-1.732l-.908-2.72A15.949 15.949 0 0 1 13.283.222l1.283 2.565a13.291 13.291 0 0 1 2.546-.006L18.399.209a15.973 15.973 0 0 1 6.789 2.817l-.91 2.726c.655.54 1.258 1.14 1.801 1.797l2.722-.906a15.902 15.902 0 0 1 2.815 6.786l-2.571 1.285c.084.861.086 1.711.006 2.543z" filter="url(#a)" opacity=".251"/>
</svg>
