<svg xmlns="http://www.w3.org/2000/svg" xmlns:xlink="http://www.w3.org/1999/xlink" width="30" height="30" viewBox="0 0 30 30"><defs><path id="kl85a" d="M292 1518.013v2.4a.245.245 0 0 1-.248.245.252.252 0 0 1-.176-.071l-5.029-4.914a.244.244 0 0 1 .042-.381l1.46-.911a.25.25 0 0 1 .308.03l3.568 3.427c.048.046.075.11.075.175zm-.067 4.515a.373.373 0 0 1 .067.214v1.215c0 .14-.108.254-.242.254h-1.035a.237.237 0 0 1-.173-.077l-4.797-5.138a.263.263 0 0 1-.01-.343l1.076-1.383c.045-.054.109-.165.177-.165h.006c.066 0 .13.106.176.156zm-3.559 1.27a.24.24 0 0 1-.167.413h-2.488a.242.242 0 0 1-.167-.067l-2.951-2.81a.24.24 0 0 1-.062-.25l.622-1.842a.24.24 0 0 1 .395-.095zm-18.53-12.414c-8.883-8.917-7.83-15.77-7.781-16.057.019-.112.102-.2.212-.225.019-.004.461-.102 1.264-.102 2.439 0 7.497.863 13.967 6.643a32.936 32.936 0 0 1 3 3.03l4.609.826c.058.011.11.04.152.083l3.498 3.69a.279.279 0 0 1-.105.454l-4.518 1.656c.285 1.558.016 2.583-.134 2.994l1.758 1.619a.278.278 0 0 1 .014.397l-1.319 1.393a.277.277 0 0 1-.377.023l-1.776-1.465c-.71.49-1.571.714-2.548.674l-1.34 4.624a.278.278 0 0 1-.443.137l-3.902-3.257a.279.279 0 0 1-.09-.14l-1.269-4.58c-1.67-1.247-2.86-2.405-2.872-2.417zm6.09-5.377a2.803 2.803 0 0 0-2.798-2.809 2.803 2.803 0 0 0-2.798 2.81 2.804 2.804 0 0 0 2.798 2.808 2.804 2.804 0 0 0 2.798-2.809z"/></defs><g><g transform="translate(-262 -1495)"><use fill="#fff" xlink:href="#kl85a"/></g></g></svg>