<svg xmlns="http://www.w3.org/2000/svg" xmlns:xlink="http://www.w3.org/1999/xlink" width="52" height="50" viewBox="0 0 52 50"><defs><path id="ehoja" d="M201.14 45.223c-1.23-.276-2.326.11-3.045-.064-1.873-2.57-4.464-4.159-7.34-4.159-2.865 0-5.457 1.588-7.32 4.14-.719.166-1.958-.743-3.48-.193-2.214.8-5.326-.036-4.919 1.01.388.992.095 4.958 6.072 4.067-.435 1.542-.407 3.186-.492 4.93-.094 1.928-1.986 6.61.568 9.547 2.27 2.617 5.277 4.526 9.552 4.499 2.734-.019 6.933-1.506 8.796-3.856 2.838-3.58 1.04-7.252.946-9.088-.085-1.745.36-4.48-.076-6.023 3.207.358 5.174-2.634 5.562-3.617.406-1.046-2.696-.716-4.824-1.193z"/><path id="ehojb" d="M186.37 61.165c0-2.08 2.156-3.765 4.815-3.765 2.66 0 4.815 1.686 4.815 3.765 0 2.08-2.156 3.765-4.815 3.765-2.66 0-4.815-1.686-4.815-3.765z"/><path id="ehojc" d="M180.246 45.626c-1.441.56-2.392.54-2.12 1.242.274.701 1.659 1.592 3.1 1.033.179-.066.349-.142.509-.227.301-.901.66-1.754 1.074-2.54-.594-.228-1.564.113-2.563.492z"/><path id="ehojd" d="M201.783 45.814c1.441.56 2.383.085 2.12.796-.264.711-1.65 2.133-3.09 1.583a4.146 4.146 0 0 1-.51-.227c-.3-.901-.659-1.754-1.073-2.54.904-.37 1.234-.115 2.553.388z"/><path id="ehoje" d="M180 67.53c0-.845.739-1.53 1.65-1.53.911 0 1.65.685 1.65 1.53s-.739 1.53-1.65 1.53c-.911 0-1.65-.685-1.65-1.53z"/><path id="ehojf" d="M190.4 71.44c0-.845.739-1.53 1.65-1.53.911 0 1.65.685 1.65 1.53s-.739 1.53-1.65 1.53c-.911 0-1.65-.685-1.65-1.53z"/><path id="ehojg" d="M184.62 70.33c0-.845.739-1.53 1.65-1.53.911 0 1.65.685 1.65 1.53s-.739 1.53-1.65 1.53c-.911 0-1.65-.685-1.65-1.53z"/><path id="ehojh" d="M196.12 70.33c0-.845.739-1.53 1.65-1.53.911 0 1.65.685 1.65 1.53s-.739 1.53-1.65 1.53c-.911 0-1.65-.685-1.65-1.53z"/><path id="ehoji" d="M199.7 67.53c0-.845.739-1.53 1.65-1.53.911 0 1.65.685 1.65 1.53s-.739 1.53-1.65 1.53c-.911 0-1.65-.685-1.65-1.53z"/><path id="ehojj" d="M170.342 28.107c.604.055.241 1.05.223 1.262-.074 1.068-.585 2.035-1.356 2.929-.028.037-.065.073-.093.11-.408.406-.445.83-.287 1.299.464 1.382 1.272 2.579 2.46 3.574.64.534 1.337 1.004 2.015 1.51.047.037.112.065.223.13.14-.425.297-.802.39-1.189a4.98 4.98 0 0 0-.25-3.205c-.112-.267-.493-.442-.029-.884.558-.212.985 1.455 1.04 1.575.353.7.158 1.786-.027 2.431-.084.295-.168.59-.223.884-.112.617.111 1.106.79 1.336 1.002.35 2.005.69 3.026.995 1.374.405 2.767.782 4.15 1.17.103.027.224.045.382.073-.047-.414-.075-.801-.13-1.179-.14-.838-.446-1.612-1.04-2.275-.446-.488-.697-1.068-.966-1.649-.38-.829-1.709-2.394-1.244-2.67.557-.553 3.017 3.039 3.853 4.586.279.507.362 1.078.409 1.649.074.893.566 1.566 1.42 2.035a.386.386 0 0 0 .27.019c.26-.092.501-.12.696.046.214.175.26.396.149.645-.149.35-.437.635-.743.902-.344.304-.724.571-1.198.71-.186.055-.4.082-.585.082-.362-.009-.539-.147-.539-.451 0-.46-.287-.755-.677-.995-.669-.414-1.43-.7-2.238-.902-1.607-.415-3.213-.81-4.764-1.336-.26-.092-.548-.074-.79-.166-.101-.037-.203-.092-.306-.129-.027-.009-.065-.036-.092-.027-.39.11-.743-.01-1.105-.037-1.031-.092-2.071-.166-3.065-.405-1.588-.378-2.693-1.225-3.491-2.386-.25-.36-1.226-2.34-.437-2.303.112-.138.883 1.898 1.95 2.552.632.856 3.111 1.833 3.315 1.501.168-.138-.037-.313-.13-.414-.25-.258-.547-.47-.817-.71a10.237 10.237 0 0 1-2.702-3.684c-.696-1.584-2.758-7.248-2.767-7.322-.056-1.004 1.03-3.537 1.17-3.85.14-.313.975-.912.947-.894.492.166-.176 1.28-.325 1.787-.111.387-.408 2.358-.241 2.948.028.1 1.328 2.975 1.523 3.352.055.11.148.221.241.313.12.13.204.11.316-.046.455-.644 1.003-1.215 1.207-1.925.037-.22.446-1.409.492-1.372z"/><path id="ehojk" d="M185.71 52.11c0-.917.748-1.66 1.67-1.66.922 0 1.67.743 1.67 1.66 0 .917-.748 1.66-1.67 1.66-.922 0-1.67-.743-1.67-1.66z"/><path id="ehojl" d="M193.6 52.11c0-.917.748-1.66 1.67-1.66.922 0 1.67.743 1.67 1.66 0 .917-.748 1.66-1.67 1.66-.922 0-1.67-.743-1.67-1.66z"/><path id="ehojm" d="M212.141 29.45c.205.718.753 1.28 1.208 1.924.111.157.185.175.315.046.093-.092.177-.202.242-.313.204-.377 1.495-3.251 1.523-3.352.176-.58-.121-2.56-.242-2.948-.148-.516-.826-1.63-.325-1.787-.028-.018.808.58.947.894.14.313 1.226 2.846 1.17 3.85 0 .074-2.07 5.738-2.767 7.322a10.348 10.348 0 0 1-2.702 3.684c-.27.24-.576.452-.817.71-.102.1-.307.285-.13.414.204.322 2.683-.645 3.315-1.501 1.068-.654 1.83-2.69 1.95-2.552.79-.036-.186 1.935-.437 2.303-.798 1.16-1.894 2.008-3.491 2.386-.994.23-2.034.313-3.064.405-.362.037-.715.156-1.105.037-.028-.01-.065.009-.093.027-.102.046-.195.092-.307.13-.25.091-.529.073-.789.165-1.541.525-3.157.93-4.763 1.336-.808.202-1.56.488-2.238.902-.39.24-.678.534-.678.995 0 .304-.186.442-.539.451-.195 0-.399-.018-.585-.083-.464-.138-.845-.405-1.198-.709-.306-.267-.585-.552-.742-.902-.112-.25-.065-.47.148-.645.195-.166.437-.138.697-.046a.386.386 0 0 0 .269-.019c.854-.47 1.356-1.133 1.42-2.035.047-.571.14-1.142.41-1.649.835-1.538 3.296-5.14 3.853-4.587.464.277-.864 1.842-1.245 2.653-.269.571-.51 1.151-.965 1.649-.604.663-.901 1.436-1.04 2.275-.065.377-.084.764-.13 1.179.158-.028.269-.037.38-.074 1.384-.387 2.777-.755 4.151-1.17a68.313 68.313 0 0 0 3.027-.995c.678-.24.901-.718.79-1.335-.056-.295-.14-.59-.223-.884-.186-.645-.372-1.732-.028-2.432.056-.129.483-1.787 1.04-1.575.464.433.083.608-.028.884a4.98 4.98 0 0 0-.25 3.206c.092.386.25.773.39 1.188.11-.065.176-.083.222-.13.678-.497 1.374-.976 2.015-1.51a7.748 7.748 0 0 0 2.46-3.573c.159-.47.122-.894-.287-1.3-.037-.036-.065-.073-.093-.11-.77-.893-1.272-1.86-1.356-2.929-.018-.202-.371-1.197.223-1.261.028.009.437 1.197.492 1.39z"/><path id="ehojn" d="M181.947 66.414l-.12-.194-.743.47-.446-.7-.12.074.445.7-.743.47.12.193.744-.47.445.7.121-.074-.446-.7z"/><path id="ehojo" d="M186.407 69.454l-.12-.194-.743.47-.446-.7-.12.074.445.7-.743.47.12.193.744-.47.445.7.12-.074-.445-.7z"/><path id="ehojp" d="M192.226 70.693l-.13-.194-.742.461-.446-.7-.12.074.445.7-.743.47.12.193.753-.47.446.7.12-.074-.455-.7z"/><path id="ehojq" d="M197.737 69.454l-.12-.194-.743.47-.446-.7-.12.074.445.7-.743.47.12.193.744-.47.445.7.12-.074-.445-.7z"/><path id="ehojr" d="M201.357 66.414l-.12-.194-.743.47-.446-.7-.12.074.445.7-.743.47.12.193.744-.47.445.7.12-.074-.445-.7z"/><path id="ehojs" d="M183.84 50.044c-.027-.185 1.115-1.695 2.452-1.916 1.337-.221 2.358.94 2.396 1.124.027.184-.948-.691-2.285-.47-1.337.22-2.535 1.446-2.562 1.262z"/><path id="ehojt" d="M197.698 50.044c.028-.185-1.115-1.695-2.452-1.916-1.337-.221-2.358.94-2.395 1.124-.028.184.947-.691 2.284-.47 1.337.22 2.526 1.446 2.563 1.262z"/><path id="ehoju" d="M188 58a3 3 0 1 1 6 0 3 3 0 0 1-6 0z"/><path id="ehojv" d="M187 51.54c0-.298.23-.54.515-.54.284 0 .515.242.515.54 0 .298-.23.54-.515.54a.528.528 0 0 1-.515-.54z"/><path id="ehojw" d="M194.97 51.54c0-.298.23-.54.515-.54.284 0 .515.242.515.54 0 .298-.23.54-.515.54a.528.528 0 0 1-.515-.54z"/><path id="ehojx" d="M190.82 57.38c0-.331.461-.6 1.03-.6s1.03.269 1.03.6c0 .331-.461.6-1.03.6s-1.03-.269-1.03-.6z"/></defs><g><g transform="translate(-165 -23)"><g><use fill="#603813" xlink:href="#ehoja"/></g><g><g><use fill="#a67c52" xlink:href="#ehojb"/></g><g><use fill="#a67c52" xlink:href="#ehojc"/></g><g><use fill="#a67c52" xlink:href="#ehojd"/></g></g><g><g><use fill="#b3b3b3" xlink:href="#ehoje"/></g><g><use fill="#b3b3b3" xlink:href="#ehojf"/></g><g><use fill="#b3b3b3" xlink:href="#ehojg"/></g><g><use fill="#b3b3b3" xlink:href="#ehojh"/></g><g><use fill="#b3b3b3" xlink:href="#ehoji"/></g></g><g><g><use xlink:href="#ehojj"/></g><g><use xlink:href="#ehojk"/></g><g><use xlink:href="#ehojl"/></g><g><use xlink:href="#ehojm"/></g><g><use xlink:href="#ehojn"/></g><g><use xlink:href="#ehojo"/></g><g><use xlink:href="#ehojp"/></g><g><use xlink:href="#ehojq"/></g><g><use xlink:href="#ehojr"/></g><g><use xlink:href="#ehojs"/></g><g><use xlink:href="#ehojt"/></g></g><g><use fill="red" xlink:href="#ehoju"/></g><g><g><use fill="#fff" xlink:href="#ehojv"/></g><g><use fill="#fff" xlink:href="#ehojw"/></g><g><use fill="#fff" xlink:href="#ehojx"/></g></g></g></g></svg>