<svg xmlns="http://www.w3.org/2000/svg" xmlns:xlink="http://www.w3.org/1999/xlink" width="33" height="48" viewBox="0 0 33 48"><defs><path id="wv2pa" d="M946.93 1711.4h-1.6c-.48 0-.8-.32-.8-.8 0-.48.32-.8.8-.8h1.6c.48 0 .8.32.8.8 0 .48-.32.8-.8.8z"/><path id="wv2pb" d="M957.096 1710.034a.8.8 0 1 1-1.132 1.132.8.8 0 0 1 1.132-1.132"/><path id="wv2pc" d="M958.93 1745h-25.6v-36.8h25.6zm-10.4 4.8h-4.8c-.48 0-.8-.32-.8-.8 0-.48.32-.8.8-.8h4.8c.48 0 .8.32.8.8 0 .48-.32.8-.8.8zm10.4-44.8h-25.6a3.21 3.21 0 0 0-3.2 3.2v41.6c0 1.76 1.44 3.2 3.2 3.2h25.6c1.76 0 3.2-1.44 3.2-3.2v-41.6c0-1.76-1.44-3.2-3.2-3.2z"/></defs><g><g transform="translate(-930 -1705)"><g><use xlink:href="#wv2pa"/></g><g><use xlink:href="#wv2pb"/></g><g><use xlink:href="#wv2pc"/></g></g></g></svg>