<svg width="16" height="16" viewBox="0 0 16 16" fill="none" xmlns="http://www.w3.org/2000/svg">
<g clip-path="url(#clip0)">
<path d="M12.1871 13.4547L9.48995 11.6565C9.36929 11.5769 9.20769 11.6031 9.11842 11.7168L8.33309 12.7265C8.07856 13.0582 7.6192 13.1529 7.25427 12.9488L7.10909 12.8691C6.58525 12.5833 5.9331 12.2278 4.63852 10.9332C3.34394 9.63864 2.98814 8.98649 2.70263 8.46237L2.62261 8.31718C2.4186 7.95234 2.51328 7.49305 2.84495 7.23865L3.85434 6.45303C3.96817 6.36382 3.99443 6.20216 3.91463 6.08151L2.11678 3.38404C2.03501 3.26164 1.87163 3.22482 1.74526 3.3003L0.616714 3.97702C0.374596 4.11834 0.196524 4.34783 0.119756 4.61745C-0.250892 5.9672 0.0608987 8.33059 3.65057 11.9206C7.24024 15.5106 9.6031 15.8229 10.954 15.4519C11.2237 15.3751 11.4531 15.1969 11.5944 14.9547L12.2708 13.8261C12.3465 13.6999 12.3097 13.5364 12.1871 13.4547Z" fill="#F0F0F0"/>
<path d="M15.9544 0.473743C15.9249 0.444174 15.8846 0.427764 15.8428 0.428232H3.86859C3.82677 0.427764 3.78651 0.444174 3.75694 0.473743C3.72737 0.503312 3.71096 0.543572 3.71143 0.585394V4.74579L4.39043 5.76431C4.63533 6.13433 4.55484 6.63038 4.20554 6.90401L3.19703 7.68962C3.08907 7.77152 3.05768 7.9203 3.12329 8.03886L3.20559 8.1889C3.468 8.68795 3.78807 9.15449 4.15925 9.57894H15.8428C15.9285 9.57956 15.9987 9.51092 16 9.42518V0.585394C16.0004 0.543572 15.984 0.503312 15.9544 0.473743ZM7.83494 5.67113V5.66969L4.90742 8.80613C4.79977 8.9216 4.61892 8.92791 4.50349 8.82029C4.38802 8.71264 4.38171 8.53179 4.48933 8.41635L7.41684 5.28135C7.52449 5.16589 7.70535 5.15957 7.82078 5.26719C7.93624 5.37484 7.94259 5.5557 7.83494 5.67113ZM9.85569 5.44595C9.64973 5.44689 9.44906 5.38069 9.28412 5.25735L4.50761 1.63535C4.38183 1.53955 4.35751 1.35992 4.45332 1.23411C4.54912 1.10833 4.72876 1.08401 4.85457 1.17981L9.6291 4.8018C9.76423 4.89998 9.94721 4.89998 10.0824 4.8018L14.8583 1.17981C14.9841 1.08441 15.1634 1.10905 15.2588 1.23482C15.3542 1.3606 15.3296 1.53993 15.2038 1.63535L10.4273 5.25735C10.2623 5.38069 10.0617 5.44689 9.85569 5.44595ZM15.2261 8.82017C15.1707 8.87193 15.0969 8.89953 15.0211 8.8969C14.9453 8.89428 14.8737 8.86165 14.822 8.80616L11.8948 5.66972C11.7953 5.55316 11.8055 5.3789 11.9178 5.27472C12.0301 5.17051 12.2046 5.17345 12.3134 5.28135L15.2401 8.41635C15.3477 8.53172 15.3414 8.71249 15.2261 8.82017Z" fill="#F0F0F0"/>
</g>
<defs>
<clipPath id="clip0">
<rect width="16" height="16" fill="white"/>
</clipPath>
</defs>
</svg>
