<svg width="23" height="16" viewBox="0 0 23 16" fill="none" xmlns="http://www.w3.org/2000/svg">
<path d="M18.6296 12.0002C18.5385 12.0002 18.4475 11.9721 18.3764 11.9152L14.1167 8.54074C13.9679 8.42321 13.9605 8.22505 14.1004 8.09939C14.2403 7.97249 14.4735 7.96686 14.6238 8.08564L18.8835 11.4601C19.0323 11.5777 19.0397 11.7758 18.8998 11.9015C18.8265 11.9671 18.7288 12.0002 18.6296 12.0002Z" fill="#16222A"/>
<path d="M4.3705 12.0002C4.27207 12.0002 4.17364 11.9671 4.10037 11.9015C3.96049 11.7758 3.96789 11.5776 4.11665 11.46L8.37657 8.08494C8.52607 7.9674 8.76068 7.9724 8.89981 8.0987C9.03969 8.22437 9.03229 8.42258 8.88353 8.54012L4.62361 11.9152C4.55256 11.9721 4.46153 12.0002 4.3705 12.0002Z" fill="#16222A"/>
<path d="M21.1459 16H1.85412C0.83213 16 0 15.1865 0 14.1857V1.81431C0 0.813535 0.83213 0 1.85412 0H21.1459C22.1679 0 23 0.813535 23 1.81431V14.1857C23 15.1865 22.1679 16 21.1459 16ZM1.85412 0.725722C1.24078 0.725722 0.741648 1.21413 0.741648 1.81431V14.1857C0.741648 14.7859 1.24078 15.2743 1.85412 15.2743H21.1459C21.7592 15.2743 22.2584 14.7859 22.2584 14.1857V1.81431C22.2584 1.21413 21.7592 0.725722 21.1459 0.725722H1.85412Z" fill="#16222A"/>
<path d="M11.5064 10C10.9911 10 10.4757 9.82652 10.0836 9.48035L0.132976 0.687807C-0.028218 0.545726 -0.0452672 0.297673 0.0950021 0.133612C0.236821 -0.029663 0.480937 -0.0445775 0.64213 0.0959336L10.5927 8.88769C11.0879 9.32492 11.9249 9.32492 12.4193 8.88769L22.3575 0.110063C22.518 -0.0320177 22.7621 -0.0163183 22.9047 0.147742C23.0449 0.311803 23.0287 0.55907 22.8675 0.701936L12.9293 9.47956C12.5364 9.82652 12.0218 10 11.5064 10Z" fill="#16222A"/>
</svg>
