<svg width="23" height="23" viewBox="0 0 23 23" fill="none" xmlns="http://www.w3.org/2000/svg">
<path d="M22.3965 17.7437L17.7412 14.639C17.1504 14.2481 16.3585 14.3767 15.9218 14.9345L14.5657 16.6781C14.3915 16.9079 14.0747 16.9746 13.8226 16.8345L13.5646 16.6923C12.7095 16.2262 11.6456 15.6459 9.50189 13.5013C7.35822 11.3567 6.7768 10.2919 6.31071 9.4383L6.16927 9.18034C6.0273 8.92826 6.09269 8.6101 6.32257 8.43442L8.06492 7.07869C8.62241 6.64186 8.75118 5.85013 8.36082 5.25914L5.25628 0.603526C4.85622 0.00170956 4.05359 -0.178952 3.43425 0.193376L1.48758 1.36283C0.875922 1.72244 0.427174 2.30486 0.235431 2.98802C-0.465561 5.54235 0.0617886 9.95073 6.55527 16.4454C11.7207 21.6108 15.5661 22.9999 18.2092 22.9999C18.8175 23.0025 19.4234 22.9234 20.0106 22.7646C20.6939 22.5731 21.2763 22.1243 21.6357 21.5124L22.8062 19.5667C23.1791 18.9472 22.9985 18.144 22.3965 17.7437ZM22.1458 19.1734L20.978 21.1202C20.7199 21.5619 20.301 21.8866 19.809 22.0264C17.451 22.6738 13.3316 22.1375 7.09758 15.9031C0.863571 9.66865 0.327418 5.54927 0.974781 3.19083C1.11474 2.69816 1.43983 2.27867 1.88198 2.02021L3.82865 0.852285C4.09738 0.690578 4.44574 0.768961 4.61934 1.03012L6.30577 3.56221L7.72123 5.68533C7.89074 5.94168 7.83504 6.28526 7.59322 6.47495L5.85046 7.83067C5.3201 8.23624 5.16865 8.97007 5.49518 9.55249L5.63357 9.80394C6.12341 10.7024 6.73242 11.8201 8.95581 14.0433C11.1792 16.2664 12.2965 16.8755 13.1945 17.3654L13.4463 17.5041C14.0286 17.8306 14.7624 17.6792 15.1679 17.1488L16.5236 15.4059C16.7133 15.1642 17.0567 15.1086 17.3131 15.2779L21.968 18.3827C22.2293 18.5562 22.3077 18.9047 22.1458 19.1734Z" fill="#16222A"/>
<path d="M12.4 3.79997C16.1538 3.80414 19.1958 6.8462 19.2 10.6C19.2 10.8209 19.3791 11 19.6 11C19.8209 11 20 10.8209 20 10.6C19.9954 6.40454 16.5955 3.00459 12.4 3C12.1791 3 12 3.17906 12 3.39999C12 3.62091 12.1791 3.79997 12.4 3.79997Z" fill="#16222A"/>
<path d="M12.4286 6.71426C15.0309 6.71681 17.1398 8.47422 17.1429 10.6429C17.1429 10.8401 17.3348 11 17.5714 11C17.8081 11 18 10.8401 18 10.6429C17.9964 8.07988 15.5041 6.00293 12.4286 6C12.1919 6 12 6.15988 12 6.35713C12 6.55438 12.1919 6.71426 12.4286 6.71426Z" fill="#16222A"/>
<path d="M12.375 8.74998C13.41 8.75121 14.2487 9.58996 14.25 10.625C14.25 10.8321 14.4179 11 14.625 11C14.8321 11 15 10.8321 15 10.625C14.9983 9.17594 13.8241 8.00163 12.375 8C12.1679 8 12 8.16787 12 8.37499C12 8.58211 12.1679 8.74998 12.375 8.74998Z" fill="#16222A"/>
</svg>
