<svg width="19" height="27" viewBox="0 0 19 27" fill="none" xmlns="http://www.w3.org/2000/svg">
<path d="M9.5 7C7.5705 7 6 8.34614 6 10C6 11.6539 7.5705 13 9.5 13C11.4295 13 13 11.6539 13 10C13 8.34614 11.4295 7 9.5 7ZM9.5 12.1429C8.1215 12.1429 7 11.1816 7 10C7 8.81843 8.1215 7.85714 9.5 7.85714C10.8785 7.85714 12 8.81843 12 10C12 11.1816 10.8785 12.1429 9.5 12.1429Z" fill="#16222A"/>
<path d="M16.2189 2.76967C14.4245 0.98371 12.0385 0 9.50096 0C6.96291 0 4.57744 0.98371 2.78302 2.76967C-0.537808 6.07435 -0.950496 12.2922 1.88927 16.0594L9.50096 27L17.1013 16.0747C19.9524 12.2922 19.5397 6.07435 16.2189 2.76967ZM16.2977 15.4982L9.50096 25.2673L2.69335 15.483C0.117637 12.0649 0.486728 6.44959 3.48404 3.4669C5.0912 1.86732 7.22796 0.986175 9.50096 0.986175C11.774 0.986175 13.9107 1.86732 15.5184 3.4669C18.5157 6.44959 18.8848 12.0649 16.2977 15.4982Z" fill="#16222A"/>
</svg>
