<svg width="44" height="44" viewBox="0 0 44 44" fill="none" xmlns="http://www.w3.org/2000/svg">
<g clip-path="url(#clip0)">
<path d="M44 8.35807C42.3806 9.07566 40.643 9.56232 38.8172 9.77958C40.6814 8.66326 42.1084 6.89262 42.7847 4.78925C41.0361 5.82304 39.1059 6.57369 37.0493 6.98062C35.4024 5.22371 33.0598 4.12939 30.4615 4.12939C25.4767 4.12939 21.4349 8.17114 21.4349 13.1532C21.4349 13.8598 21.5147 14.5499 21.6687 15.2098C14.1681 14.8331 7.51713 11.2396 3.06573 5.77903C2.2876 7.10982 1.84494 8.66046 1.84494 10.3157C1.84494 13.4474 3.43966 16.2106 5.85922 17.8273C4.37998 17.7778 2.98873 17.3709 1.77075 16.6945V16.8072C1.77075 21.1789 4.88317 24.8274 9.01011 25.6578C8.25399 25.8613 7.45667 25.974 6.63181 25.974C6.04896 25.974 5.4853 25.9163 4.93264 25.8063C6.08188 29.3944 9.41431 32.0036 13.3626 32.0751C10.2749 34.4947 6.38162 35.9327 2.15294 35.9327C1.42436 35.9327 0.706695 35.8887 0.000106812 35.809C3.99512 38.3743 8.73799 39.87 13.8355 39.87C30.4396 39.87 39.5157 26.117 39.5157 14.1898L39.4854 13.0213C41.2588 11.7564 42.793 10.1672 44 8.35807Z" fill="white"/>
</g>
<defs>
<clipPath id="clip0">
<rect width="44" height="44" fill="white"/>
</clipPath>
</defs>
</svg>
