<svg width="44" height="44" viewBox="0 0 44 44" fill="none" xmlns="http://www.w3.org/2000/svg">
<path d="M42.13 9.79C40.9365 7.667 39.6413 7.2765 37.004 7.128C34.3695 6.94925 27.7447 6.875 22.0055 6.875C16.2552 6.875 9.62775 6.94925 6.996 7.12525C4.36425 7.2765 3.06625 7.66425 1.86175 9.79C0.6325 11.9102 0 15.5623 0 21.9918C0 21.9973 0 22 0 22C0 22.0055 0 22.0083 0 22.0083V22.0138C0 28.4158 0.6325 32.0952 1.86175 34.1935C3.06625 36.3165 4.3615 36.7015 6.99325 36.8803C9.62775 37.0343 16.2552 37.125 22.0055 37.125C27.7447 37.125 34.3695 37.0342 37.0067 36.883C39.644 36.7042 40.9393 36.3193 42.1328 34.1963C43.373 32.098 44 28.4185 44 22.0165C44 22.0165 44 22.0083 44 22.0028C44 22.0028 44 21.9973 44 21.9945C44 15.5623 43.373 11.9102 42.13 9.79ZM16.5 30.25V13.75L30.25 22L16.5 30.25Z" fill="white"/>
</svg>
