<svg width="44" height="44" viewBox="0 0 44 44" fill="none" xmlns="http://www.w3.org/2000/svg"><path d="M40.02 0H3.98A3.98 3.98 0 0 0 0 3.98v36.04A3.98 3.98 0 0 0 3.98 44h36.04A3.98 3.98 0 0 0 44 40.02V3.98A3.98 3.98 0 0 0 40.02 0zM13.615 37.992c0 .64-.518 1.159-1.158 1.159h-4.93c-.64 0-1.159-.519-1.159-1.159V17.325c0-.64.519-1.158 1.159-1.158h4.93c.64 0 1.159.518 1.159 1.158v20.668zM9.992 14.218a4.684 4.684 0 1 1 0-9.368 4.684 4.684 0 0 1 0 9.368zm29.39 23.869c0 .588-.477 1.065-1.065 1.065h-5.29a1.065 1.065 0 0 1-1.066-1.065V28.39c0-1.446.425-6.337-3.779-6.337-3.26 0-3.922 3.348-4.055 4.85v11.182c0 .588-.477 1.065-1.065 1.065h-5.117a1.065 1.065 0 0 1-1.065-1.065V17.23c0-.589.477-1.065 1.065-1.065h5.117c.588 0 1.065.476 1.065 1.065v1.803c1.21-1.815 3.006-3.215 6.832-3.215 8.472 0 8.423 7.915 8.423 12.264v10.003z" fill="#fff"/></svg>