<svg width="66" height="66" viewBox="0 0 66 66" fill="none" xmlns="http://www.w3.org/2000/svg">
<g clip-path="url(#clip0)">
<path d="M46.8754 33.8079C46.7615 33.4191 46.4693 33.1016 46.0809 32.9596C46.0025 32.9309 45.3671 32.7061 44.3802 32.5618C48.5965 28.0754 47.2044 22.834 46.8754 21.8103C46.7615 21.4214 46.4693 21.1039 46.0809 20.9619C45.8999 20.8956 42.7442 19.7829 39.1487 21.0342C39.3517 20.2013 39.4705 19.2857 39.4705 18.281C39.4705 11.8528 34.6026 9.02747 33.6257 8.5259C33.2703 8.33125 32.8389 8.31346 32.464 8.48774C32.2223 8.60002 26.5435 11.3177 26.5435 18.281C26.5435 19.2878 26.6627 20.2053 26.8665 21.0395C23.2648 19.7798 20.1005 20.8955 19.9192 20.9619C19.5309 21.1039 19.2386 21.4214 19.1248 21.8103C18.7957 22.834 17.4036 28.0754 21.6199 32.5618C20.633 32.7061 19.9976 32.9309 19.9192 32.9596C19.5309 33.1016 19.2385 33.4192 19.1247 33.808C18.7887 34.8531 17.3442 40.2934 21.8897 44.8389C24.5202 47.4694 27.4396 48.0969 29.6269 48.0969C30.4367 48.0969 31.1445 48.0107 31.7018 47.9083V56.343C31.7018 57.0548 32.2789 57.6321 32.9909 57.6321C33.7028 57.6321 34.2799 57.0548 34.2799 56.343V47.9051C34.8398 48.0087 35.5545 48.0968 36.3731 48.0968C38.5603 48.0968 41.4801 47.469 44.1103 44.8388C48.6558 40.2932 47.2113 34.8529 46.8754 33.8079ZM31.7018 43.8899C31.6732 44.475 31.5911 44.9668 31.5126 45.3204C30.1347 45.6265 26.6872 45.9903 23.7128 43.0158C20.7832 40.0864 21.0902 36.696 21.4146 35.2167C22.2809 35.0284 23.9715 34.8185 25.8433 35.4259C25.9665 35.4721 26.0893 35.5156 26.2115 35.5562C27.2028 35.9321 28.232 36.5457 29.2075 37.521C31.0662 39.3797 31.6212 41.4229 31.7018 43.0298V43.8899ZM31.7018 31.8925C31.6732 32.4776 31.5911 32.9694 31.5126 33.3228C30.6588 33.5127 29.0106 33.7235 27.1728 33.1498C26.9865 33.078 26.8013 33.0127 26.6173 32.9535C25.656 32.5737 24.6604 31.9658 23.7127 31.0182C20.7832 28.0887 21.0902 24.6985 21.4146 23.2193C22.7912 22.92 26.2483 22.5644 29.2075 25.5236C29.2263 25.5424 29.2433 25.5614 29.2617 25.5801C29.3748 25.7069 29.4882 25.8282 29.6015 25.9447C31.1444 27.6864 31.6273 29.546 31.7018 31.0324V31.8925V31.8925ZM33.009 25.4247C32.605 25.1656 32.0229 24.7386 31.4316 24.1212C31.3713 24.0551 31.3103 23.989 31.2477 23.9231C30.1706 22.7267 29.1215 20.8915 29.1215 18.281C29.1215 14.079 31.8105 11.8989 33.0004 11.1399C34.2748 11.9553 36.8922 14.1355 36.8922 18.281C36.8922 20.7444 35.9678 22.512 34.9634 23.7067C34.7546 23.9158 34.5591 24.1269 34.3749 24.3391C33.8596 24.8401 33.366 25.1973 33.009 25.4247ZM34.2879 31.4747C34.2861 29.9613 34.6776 27.9586 36.2804 26.0779C36.4703 25.8892 36.6612 25.6862 36.8504 25.4679C39.8085 22.5584 43.2157 22.9138 44.5849 23.2167C44.9094 24.6946 45.2185 28.087 42.2872 31.0182C41.3413 31.9643 40.3477 32.5717 39.388 32.9517C39.2009 33.0118 39.0126 33.0782 38.8231 33.1512C36.9855 33.724 35.3384 33.5124 34.488 33.3232C34.3926 32.8936 34.2915 32.2626 34.2878 31.5076C34.2878 31.4966 34.2879 31.4856 34.2879 31.4747ZM42.2872 43.0158C39.3123 45.9908 35.8647 45.6264 34.49 45.3214C34.1903 43.9501 33.828 40.4856 36.7926 37.521C37.7411 36.5725 38.7374 35.9645 39.6995 35.5847C39.8831 35.5257 40.0678 35.4607 40.2536 35.3891C42.0874 34.8167 43.7318 35.0255 44.5849 35.2141C44.9094 36.6922 45.2185 40.0846 42.2872 43.0158Z" fill="#CBE7EF"/>
<path d="M39.8779 0.718137C37.631 0.241699 35.3168 0 33 0C24.1854 0 15.8984 3.43252 9.66552 9.66552C3.43264 15.8984 0 24.1854 0 33C0 40.3448 2.47113 47.5145 6.97331 53.2874C6.46684 54.0709 6.1942 54.9835 6.1942 55.9387C6.1942 57.2471 6.70377 58.4772 7.62893 59.4024C8.55409 60.3276 9.78424 60.8372 11.0926 60.8372C12.401 60.8372 13.6312 60.3276 14.5564 59.4024C15.4816 58.4772 15.9911 57.2471 15.9911 55.9387C15.9911 54.6303 15.4815 53.4003 14.5564 52.475C13.6312 51.5497 12.401 51.0402 11.0926 51.0402C10.3171 51.0402 9.56961 51.2205 8.89634 51.559C4.8162 46.2625 2.57812 39.711 2.57812 33C2.57812 16.2253 16.2253 2.57812 33 2.57812C35.1375 2.57812 37.2716 2.80087 39.3431 3.24019C40.04 3.38779 40.7238 2.94293 40.8715 2.24658C41.0193 1.5501 40.5744 0.865863 39.8779 0.718137ZM9.45192 54.2979C9.90425 53.8454 10.4984 53.6193 11.0926 53.6193C11.6869 53.6193 12.281 53.8456 12.7334 54.2979C13.1716 54.736 13.413 55.3188 13.413 55.9386C13.413 56.5584 13.1716 57.141 12.7334 57.5793C11.8287 58.4842 10.3566 58.484 9.45192 57.5793C9.01364 57.1412 8.77233 56.5584 8.77233 55.9386C8.77233 55.3188 9.01364 54.7362 9.45192 54.2979Z" fill="#CBE7EF"/>
<path d="M59.0267 12.7126C59.5332 11.9291 59.8058 11.0165 59.8058 10.0613C59.8058 8.75288 59.2963 7.52273 58.3711 6.59757C57.4459 5.67228 56.2158 5.16284 54.9074 5.16284C53.599 5.16284 52.3688 5.67241 51.4437 6.59757C50.5185 7.52273 50.0089 8.75288 50.0089 10.0613C50.0089 11.3697 50.5185 12.5998 51.4437 13.525C52.3688 14.4503 53.599 14.9597 54.9074 14.9597C55.683 14.9597 56.4304 14.7794 57.1038 14.4409C61.1838 19.7375 63.4219 26.289 63.4219 33C63.4219 49.7747 49.7747 63.4219 33 63.4219C31.1955 63.4219 29.3874 63.2628 27.6262 62.9489C26.9257 62.8243 26.2558 63.2908 26.131 63.9919C26.0061 64.6928 26.473 65.3622 27.1738 65.4871C29.0841 65.8274 31.0443 66 33 66C41.8146 66 50.1016 62.5674 56.3346 56.3346C62.5676 50.1019 66 41.8146 66 33C66 25.6552 63.5289 18.4856 59.0267 12.7126ZM56.5482 11.702C56.1101 12.1403 55.5273 12.3816 54.9075 12.3816C54.2877 12.3816 53.7049 12.1404 53.2668 11.702C52.362 10.7973 52.362 9.32535 53.2668 8.42056C53.7049 7.98228 54.2877 7.74097 54.9075 7.74097C55.5273 7.74097 56.1099 7.98228 56.5482 8.42056C56.9865 8.85871 57.2278 9.4415 57.2278 10.0613C57.2278 10.6811 56.9865 11.2637 56.5482 11.702Z" fill="#CBE7EF"/>
<path d="M21.6735 61.2437L21.1868 62.4374L21.6699 61.2423C21.0095 60.9757 20.2585 61.2942 19.9917 61.9542C19.7249 62.6142 20.0437 63.3656 20.7037 63.6326L20.7435 63.6483C20.8955 63.7064 21.052 63.734 21.2059 63.734C21.7251 63.734 22.2159 63.4198 22.4123 62.9071C22.667 62.2421 22.3384 61.4983 21.6735 61.2437Z" fill="#CBE7EF"/>
<path d="M45.3523 2.39031L45.3293 2.38116C44.6684 2.11665 43.9182 2.43827 43.6537 3.0993C43.3892 3.76033 43.7108 4.51031 44.3718 4.77482L44.3865 4.78075C44.5448 4.84469 44.7081 4.87485 44.869 4.87485C45.379 4.87485 45.8618 4.57025 46.0646 4.06842C46.3313 3.40829 46.0124 2.65702 45.3523 2.39031Z" fill="#CBE7EF"/>
</g>
<defs>
<clipPath id="clip0">
<rect width="66" height="66" fill="white"/>
</clipPath>
</defs>
</svg>
