<svg width="66" height="66" viewBox="0 0 66 66" fill="none" xmlns="http://www.w3.org/2000/svg">
<path d="M56.3346 9.66539C50.1016 3.43264 41.8146 0 33 0C24.1854 0 15.8984 3.43264 9.66539 9.66539C3.43264 15.8984 0 24.1854 0 33C0 41.8146 3.43264 50.1016 9.66539 56.3346C15.8984 62.5674 24.1854 66 33 66C41.8146 66 50.1016 62.5674 56.3346 56.3346C62.5674 50.1016 66 41.8146 66 33C66 24.1854 62.5674 15.8984 56.3346 9.66539ZM54.9673 54.9673C49.0996 60.835 41.2982 64.0664 33 64.0664C24.7018 64.0664 16.9004 60.835 11.0327 54.9673C5.16502 49.0996 1.93359 41.2982 1.93359 33C1.93359 24.7018 5.16502 16.9004 11.0327 11.0327C16.9004 5.16502 24.7018 1.93359 33 1.93359C41.2982 1.93359 49.0996 5.16502 54.9673 11.0327C60.835 16.9004 64.0664 24.7018 64.0664 33C64.0664 41.2982 60.835 49.0996 54.9673 54.9673Z" fill="#CBE7EF"/>
<path d="M56.6275 40.0901C56.026 34.9805 52.0978 28.861 44.6186 21.3816C37.1392 13.9023 31.0196 9.97399 25.91 9.37265C20.7237 8.76228 17.1568 11.5472 14.3519 14.352C11.547 17.1568 8.76199 20.7235 9.37249 25.9102C9.97397 31.0197 13.9021 37.1394 21.3814 44.6187C23.7882 47.0255 26.0807 49.0898 28.1949 50.754C28.6143 51.0841 29.2223 51.0118 29.5525 50.5922C29.8828 50.1726 29.8103 49.5648 29.3907 49.2346C27.3362 47.6176 25.1016 45.6045 22.7486 43.2515C15.5886 36.0916 11.8414 30.3452 11.2927 25.6842C11.0594 23.7015 11.4177 21.9988 12.1218 20.4857C12.1304 20.5474 12.1386 20.6089 12.1486 20.6717C12.5955 23.4377 14.5445 26.9073 18.1011 31.2656L17.746 32.0327C17.5636 32.4266 17.6662 32.8938 17.9967 33.1751C18.0906 33.2549 19.4316 34.3766 21.4755 35.1495C22.8388 36.639 24.3825 38.2471 26.0677 39.9323C33.4863 47.351 39.082 51.7098 43.1745 53.258C44.0204 53.5781 44.7923 53.7743 45.5009 53.8738C44.7292 54.2359 43.9615 54.4855 43.1778 54.6291C40.2214 55.171 36.8735 54.2329 32.9429 51.7613C32.4907 51.477 31.894 51.6132 31.6097 52.065C31.3255 52.5171 31.4615 53.1139 31.9134 53.3981C35.695 55.7762 38.8402 56.7207 41.5385 56.7206C45.7638 56.7204 48.8924 54.4037 51.6478 51.6482C54.4529 48.8435 57.238 45.2768 56.6275 40.0901ZM15.4799 15.9604C15.5593 15.8796 15.6391 15.7993 15.7191 15.7192C17.2859 14.1524 18.9777 13.354 22.141 14.5508C25.9718 16 31.344 20.2144 38.5647 27.4351C38.8253 27.6956 39.0816 27.9541 39.3357 28.2113C39.0532 28.2204 38.7603 28.2395 38.4584 28.2679C38.3468 28.1392 38.2318 28.0126 38.1096 27.8904C36.2198 26.0005 33.5355 25.3804 31.1221 26.0258C31.7675 23.6125 31.1472 20.9282 29.2574 19.0384C26.5271 16.3082 22.1376 16.2239 19.3046 18.7851C18.6108 18.3441 17.3609 17.7207 16.0915 17.9394C15.5653 18.0301 15.2123 18.5301 15.303 19.0565C15.3936 19.5828 15.8936 19.936 16.4201 19.845C16.9317 19.7568 17.5684 20.0195 18.0421 20.2857C16.4745 22.7634 16.5586 25.9928 18.2969 28.3885C12.0626 20.1573 13.969 17.5091 15.4799 15.9604ZM39.633 30.1378C41.9533 30.1052 43.38 30.7793 44.0441 31.204L42.9233 34.7094C41.9421 34.5635 40.9369 34.6206 39.9742 34.878C40.3924 33.3148 40.2785 31.6389 39.633 30.1378ZM41.852 36.5621C43.2073 36.5621 44.5626 37.078 45.5944 38.1097C47.6579 40.1732 47.6579 43.531 45.5944 45.5945C43.5307 47.6579 40.1732 47.6581 38.1096 45.5945C36.046 43.531 36.046 40.1732 38.1096 38.1097C39.1415 37.0781 40.4968 36.5621 41.852 36.5621ZM44.7811 35.2481L45.0633 34.3655C45.9503 35.3955 46.7322 36.3543 47.4219 37.2497C47.2776 37.0754 47.125 36.9056 46.9618 36.7425C46.3141 36.0949 45.5725 35.5981 44.7811 35.2481ZM29.2576 29.2577C30.2893 28.226 31.6447 27.7101 33 27.7101C34.3553 27.7101 35.7106 28.226 36.7424 29.2577C36.8832 29.3985 37.0133 29.5457 37.1348 29.6976C37.1899 29.8164 37.2685 29.9208 37.3633 30.0067C38.7779 32.067 38.5718 34.9131 36.7423 36.7427C34.6786 38.8062 31.321 38.8062 29.2574 36.7427C27.1939 34.679 27.1939 31.3213 29.2576 29.2577ZM20.4055 27.8904C18.3419 25.8269 18.3419 22.4691 20.4055 20.4056C21.4372 19.3738 22.7925 18.858 24.1479 18.858C25.5032 18.858 26.8584 19.3738 27.8903 20.4056C29.9538 22.4691 29.9538 25.8269 27.8903 27.8904C25.8266 29.9541 22.4691 29.9539 20.4055 27.8904ZM19.8326 32.1282C20.1237 31.4993 20.006 30.5429 19.5683 30.0056C19.1605 29.505 18.7806 29.0226 18.4255 28.5576C18.6129 28.8005 18.8158 29.0351 19.0383 29.2577C20.447 30.6664 22.2974 31.3709 24.148 31.3709C24.7799 31.3709 25.4114 31.2867 26.0258 31.1224C25.7814 32.0362 25.7186 32.9883 25.8377 33.9219C23.1811 34.115 20.8703 32.8257 19.8326 32.1282ZM46.3045 52.0178C45.5937 51.9802 44.7905 51.8019 43.8588 51.4495C40.0281 50.0003 34.6558 45.7858 27.435 38.5651C26.5079 37.6379 25.626 36.7358 24.7929 35.8639C24.954 35.872 25.1163 35.8777 25.2808 35.8777C25.6292 35.8777 25.9854 35.858 26.347 35.8166C26.6988 36.6504 27.212 37.4315 27.8903 38.1098C29.299 39.5187 31.1495 40.223 33 40.223C33.6319 40.223 34.2634 40.1388 34.8778 39.9745C34.7606 40.4125 34.6852 40.8592 34.6515 41.3087L34.1052 41.2632C33.5748 41.2183 33.1058 41.6143 33.0615 42.1464C33.0171 42.6784 33.4126 43.1458 33.9447 43.1902L34.7668 43.2586C35.0341 44.6165 35.6923 45.912 36.7423 46.962C38.1509 48.3707 40.0014 49.0751 41.8518 49.0751C42.8253 49.0751 43.7982 48.8782 44.7074 48.4883C45.2126 48.9493 46.7548 50.5132 46.3045 52.0178ZM50.5414 50.0179C50.5382 50.0212 50.1757 50.3837 50.1229 50.4357C49.562 50.9743 48.9792 51.4096 48.3147 51.6881C48.4262 49.8531 47.2137 48.279 46.4174 47.4539C46.6051 47.3007 46.7869 47.1368 46.9617 46.9618C49.4815 44.4421 49.7458 40.51 47.7585 37.6915C53.8943 45.8325 52.0599 48.4561 50.5414 50.0179ZM53.8838 45.5022C53.4339 42.4001 51.093 38.2542 45.7511 32.2139L46.0923 31.1466C46.2026 30.8019 46.111 30.4245 45.8552 30.1686C45.7855 30.099 44.6391 28.9866 42.286 28.4674C41.5423 27.694 40.7523 26.8882 39.932 26.0678C32.5134 18.6491 26.9177 14.2903 22.8251 12.7421C21.9727 12.4196 21.1949 12.2222 20.4816 12.1235C21.9956 11.4184 23.6997 11.0591 25.6838 11.2927C30.3448 11.8413 36.0911 15.5886 43.2511 22.7486C50.4111 29.9086 54.1583 35.655 54.707 40.3159C54.9398 42.2935 54.5839 43.9924 53.8838 45.5022Z" fill="#CBE7EF"/>
<path d="M22.5657 23.6987L21.3942 23.5035C20.8676 23.4155 20.3694 23.7714 20.2816 24.2982C20.1938 24.8249 20.5496 25.323 21.0763 25.4107L22.2478 25.606C22.3016 25.6151 22.3552 25.6193 22.4079 25.6193C22.872 25.6193 23.2815 25.2842 23.3604 24.8113C23.4482 24.2846 23.0924 23.7864 22.5657 23.6987Z" fill="#CBE7EF"/>
<path d="M27.6492 23.561L27.454 23.0728C27.2556 22.5772 26.6931 22.336 26.1972 22.5341C25.7015 22.7325 25.4603 23.2951 25.6585 23.7909L25.8538 24.279C26.005 24.6571 26.368 24.8871 26.7518 24.8871C26.8713 24.8871 26.9929 24.8648 27.1105 24.8177C27.6063 24.6193 27.8475 24.0568 27.6492 23.561Z" fill="#CBE7EF"/>
<path d="M31.993 33.075L31.5048 32.6844C31.0878 32.3508 30.4794 32.4185 30.1459 32.8354C29.8124 33.2524 29.8799 33.8607 30.2968 34.1943L30.785 34.5849C30.9633 34.7275 31.1766 34.7968 31.3884 34.7968C31.672 34.7968 31.953 34.6726 32.1439 34.434C32.4774 34.017 32.4099 33.4085 31.993 33.075Z" fill="#CBE7EF"/>
<path d="M36.208 34.7154L36.0127 34.3249C35.7737 33.8474 35.1931 33.6539 34.7155 33.8927C34.2379 34.1315 34.0444 34.7123 34.2833 35.1899L34.4785 35.5803C34.6479 35.9189 34.9894 36.1148 35.344 36.1148C35.4893 36.1148 35.6369 36.0819 35.7757 36.0125C36.2533 35.7737 36.4468 35.193 36.208 34.7154Z" fill="#CBE7EF"/>
<path d="M34.7749 30.2964L34.2867 30.1011C33.7908 29.9026 33.2283 30.1439 33.0299 30.6396C32.8315 31.1352 33.0726 31.6979 33.5685 31.8963L34.0566 32.0916C34.1745 32.1387 34.2959 32.161 34.4155 32.161C34.7993 32.161 35.1621 31.9311 35.3135 31.5531C35.5119 31.0573 35.2707 30.4948 34.7749 30.2964Z" fill="#CBE7EF"/>
<path d="M40.7273 42.4053L39.8486 42.21C39.3272 42.0938 38.811 42.4227 38.6951 42.944C38.5794 43.4653 38.908 43.9817 39.4292 44.0976L40.3078 44.2928C40.3784 44.3086 40.449 44.3161 40.5184 44.3161C40.9616 44.3161 41.3612 44.0094 41.4613 43.5589C41.5771 43.0377 41.2486 42.5212 40.7273 42.4053Z" fill="#CBE7EF"/>
<path d="M44.0099 40.8469L43.9123 40.2611C43.8245 39.7344 43.3266 39.3786 42.7997 39.4664C42.273 39.5542 41.9172 40.0523 42.005 40.579L42.1026 41.1648C42.1814 41.6376 42.591 41.9728 43.0551 41.9728C43.1078 41.9728 43.1613 41.9684 43.2152 41.9595C43.7419 41.8717 44.0977 41.3736 44.0099 40.8469Z" fill="#CBE7EF"/>
</svg>
