<svg width="32" height="35" viewBox="0 0 32 35" fill="none" xmlns="http://www.w3.org/2000/svg">
<path d="M30.3278 27.0645L24.0239 22.3772C23.2239 21.7872 22.1516 21.9813 21.5602 22.8234L19.7239 25.4558C19.4879 25.8027 19.059 25.9033 18.7176 25.6919L18.3683 25.4772C17.2104 24.7735 15.7696 23.8974 12.8668 20.6597C9.96401 17.422 9.17668 15.8144 8.54554 14.5257L8.35401 14.1363C8.16175 13.7557 8.25031 13.2754 8.56159 13.0101L10.921 10.9634C11.6759 10.3039 11.8503 9.1086 11.3217 8.21637L7.1177 1.18773C6.57596 0.279162 5.48909 0.00641415 4.65043 0.568524L2.01438 2.33406C1.18611 2.87698 0.578451 3.75625 0.318805 4.78763C-0.630431 8.64394 0.0836699 15.2993 8.87671 25.1045C15.8714 32.9027 21.0786 34.9999 24.6577 34.9999C25.4814 35.0038 26.3018 34.8843 27.097 34.6446C28.0222 34.3554 28.811 33.6779 29.2976 32.7541L30.8827 29.8167C31.3875 28.8814 31.143 27.6689 30.3278 27.0645ZM29.9883 29.223L28.4069 32.1621C28.0575 32.8288 27.4902 33.319 26.8239 33.5301C23.631 34.5075 18.0527 33.6979 9.61106 24.2857C1.16939 14.8735 0.443367 8.65438 1.31998 5.09381C1.5095 4.35003 1.94972 3.71672 2.54845 3.32652L5.1845 1.56329C5.54839 1.31916 6.02012 1.43749 6.25519 1.83176L8.53885 5.6545L10.4556 8.85979C10.6851 9.24681 10.6097 9.76552 10.2822 10.0519L7.9223 12.0987C7.20412 12.7109 6.99904 13.8188 7.44121 14.6981L7.6286 15.0777C8.29191 16.4341 9.11659 18.1215 12.1274 21.4779C15.1381 24.8342 16.6511 25.7538 17.867 26.4933L18.208 26.7028C18.9966 27.1957 19.9903 26.9671 20.5394 26.1664L22.3751 23.5351C22.632 23.1702 23.0971 23.0862 23.4443 23.3419L29.7476 28.0292C30.1015 28.2911 30.2076 28.8173 29.9883 29.223Z" fill="#88B04B"/>
<path d="M16.5958 5.53462C22.0239 5.54134 26.4227 10.4456 26.4288 16.4974C26.4288 16.8535 26.6878 17.1422 27.0072 17.1422C27.3267 17.1422 27.5856 16.8535 27.5856 16.4974C27.5789 9.7336 22.6626 4.25234 16.5958 4.24493C16.2764 4.24493 16.0175 4.53361 16.0175 4.88977C16.0175 5.24594 16.2764 5.53462 16.5958 5.53462Z" fill="#88B04B"/>
<path d="M16.653 11.1896C20.5126 11.1931 23.6403 13.6341 23.6449 16.6462C23.6449 16.9202 23.9295 17.1422 24.2804 17.1422C24.6315 17.1422 24.916 16.9202 24.916 16.6462C24.9107 13.0864 21.2144 10.2016 16.653 10.1975C16.302 10.1975 16.0175 10.4196 16.0175 10.6936C16.0175 10.9675 16.302 11.1896 16.653 11.1896Z" fill="#88B04B"/>
<path d="M16.5736 13.4218C18.1086 13.4239 19.3526 14.8107 19.3545 16.5222C19.3545 16.8646 19.6035 17.1422 19.9106 17.1422C20.2177 17.1422 20.4667 16.8646 20.4667 16.5222C20.4643 14.1262 18.7227 12.1844 16.5736 12.1817C16.2664 12.1817 16.0175 12.4593 16.0175 12.8018C16.0175 13.1442 16.2664 13.4218 16.5736 13.4218Z" fill="#88B04B"/>
</svg>
