<svg width="64" height="64" viewBox="0 0 64 64" fill="none" xmlns="http://www.w3.org/2000/svg">
<g clip-path="url(#clip0)">
<path d="M28.8035 47.9976C22.0147 47.9976 19.1087 44.3105 18.9911 44.1582C18.7157 43.791 18.2362 43.6411 17.8007 43.7861C17.3652 43.9316 17.0713 44.3388 17.0713 44.7982C17.0713 53.0445 23.7567 59.7298 32.0034 59.7298C40.2497 59.7298 46.935 53.0445 46.935 44.7982C46.935 44.2089 46.4576 43.7314 45.8683 43.7314C42.3051 43.6084 38.7757 44.4565 35.6574 46.1848C33.5809 47.4025 31.2105 48.0298 28.8035 47.9976V47.9976ZM44.7561 45.886C44.2151 52.2111 39.1194 57.1842 32.7826 57.5709C26.4459 57.9571 20.7838 53.6401 19.4788 47.4269C22.2324 49.2714 25.4904 50.2161 28.8035 50.1307C31.544 50.159 34.2425 49.4526 36.6172 48.084C39.1057 46.6877 41.9028 45.9324 44.7561 45.886Z" fill="#CBE7EF"/>
<path d="M62.9336 61.8633C60.2811 61.6738 57.7911 60.5167 55.9358 58.6116C55.1478 57.8183 54.4643 56.9272 53.9033 55.9601C53.9692 55.9425 54.0346 55.921 54.0981 55.8961C56.1843 54.9606 62.5338 52.1128 63.9799 42.8295C64.0844 42.1685 63.8461 41.4996 63.3476 41.0538C62.8619 40.6159 62.1871 40.4553 61.5568 40.6271C59.6122 41.1549 54.1034 42.6792 51.9577 50.8937C51.4323 48.5433 51.1784 46.1402 51.2014 43.7318C51.2014 37.7343 53.6299 32.853 55.7737 28.5429C57.1871 25.7038 58.4126 23.2187 58.6235 20.9406C60.4837 19.8333 65.4324 15.5076 63.1631 1.57731C63.0527 0.913799 62.5967 0.359655 61.9674 0.12335C61.3415 -0.11686 60.6345 -0.000172353 60.1199 0.429472C56.3669 3.53854 52.7203 9.5272 56.5246 20.4021C56.4714 22.3399 55.265 24.7747 53.8647 27.5928C51.9704 31.0724 50.5398 34.7854 49.6102 38.6371C48.1265 36.1622 46.3122 33.9017 44.2177 31.9175C40.679 28.2441 37.3361 24.7771 37.3361 19.201V13.6718C38.5269 13.2578 39.3598 12.1788 39.4589 10.9221C39.558 9.66536 38.9048 8.46871 37.7936 7.87306L38.8027 5.85422C39.3149 4.82649 39.2387 3.60347 38.603 2.64702L37.7906 1.42791C37.1979 0.536395 36.1985 0.00178058 35.1283 0.00275704H28.8784C27.8068 0.000315881 26.8054 0.535419 26.2122 1.42791L25.4022 2.648C24.768 3.60396 24.6923 4.826 25.204 5.85276L26.2132 7.87306C25.102 8.46871 24.4487 9.66536 24.5478 10.9221C24.6469 12.1788 25.4798 13.2578 26.6706 13.6718V19.201C26.6706 24.7771 23.3282 28.2441 19.789 31.9166C17.4826 34.0609 15.5414 36.5675 14.0425 39.3377C10.8954 36.543 7.197 34.4393 3.18715 33.1611C2.37913 32.9331 1.51056 33.124 0.872442 33.6698C0.247016 34.2015 -0.0713117 35.011 0.02487 35.8263C0.72109 41.7051 4.28372 46.7554 7.6784 50.3371C3.22523 51.0728 0.00680542 53.7576 0.00680542 57.0639C0.00680542 60.9513 4.45753 63.9964 10.1391 63.9964C12.1565 64.0056 14.1514 63.5667 15.9784 62.7104C17.8341 63.5809 19.8627 64.0208 21.9128 63.9964C23.5054 63.9988 25.0873 63.7317 26.5916 63.2074C36.2131 66.0601 46.404 60.9918 49.9344 51.5977C50.6121 54.8005 52.1671 57.7519 54.4257 60.1217C56.6799 62.4286 59.7137 63.8103 62.9336 63.9964C63.5224 63.9964 64.0004 63.5189 64.0004 62.9301C64.0004 62.3408 63.5224 61.8633 62.9336 61.8633V61.8633ZM61.8253 42.7719C61.2346 47.6738 58.0694 51.8862 53.5254 53.8172C54.8119 45.0671 59.6581 43.3724 61.8253 42.7719ZM61.1291 2.37508C62.7779 13.1089 59.7948 17.23 58.1777 18.6293C56.0012 11.6285 57.0118 6.03536 61.1291 2.37508ZM36.2698 11.735H27.7369C27.1481 11.735 26.6706 11.2575 26.6706 10.6687C26.6706 10.0794 27.1481 9.60189 27.7369 9.60189H36.2698C36.8586 9.60189 37.3361 10.0794 37.3361 10.6687C37.3361 11.2575 36.8586 11.735 36.2698 11.735ZM27.1784 3.83099L27.9908 2.61041C28.189 2.31405 28.522 2.13584 28.8784 2.13584H35.1283C35.4847 2.13584 35.8177 2.31405 36.0159 2.61041L36.8273 3.82952C37.0392 4.14736 37.0646 4.55455 36.8947 4.89631L35.6107 7.46881H28.3961L27.1164 4.89826C26.9441 4.55699 26.968 4.1498 27.1784 3.83099ZM2.25805 35.2922C2.35325 35.2072 2.48605 35.178 2.60811 35.2155C6.57011 36.4928 10.2026 38.6268 13.2467 41.4664C13.236 41.504 13.234 41.543 13.2233 41.5816C13.1017 42.044 13.0065 42.5132 12.9386 42.9863C12.9249 43.0854 12.9152 43.1869 12.9035 43.287C12.8405 43.7884 12.8078 44.2932 12.8053 44.7986C12.8053 45.3849 12.8405 45.9718 12.8937 46.5464C12.9118 46.7427 12.9376 46.9356 12.9621 47.1309C13.0079 47.5034 13.069 47.8774 13.1315 48.2421C13.1744 48.4789 13.2179 48.7147 13.2692 48.9485C13.3365 49.2459 13.4176 49.5403 13.4986 49.8357C13.5645 50.0798 13.6192 50.3283 13.6949 50.5695C13.6309 50.5534 13.5626 50.547 13.4976 50.5309C13.1774 50.4533 12.8405 50.3947 12.5046 50.34C12.3317 50.3127 12.1623 50.2795 11.9851 50.257C11.6077 50.2101 11.2235 50.1857 10.8363 50.1677C10.7157 50.1677 10.6005 50.1428 10.4789 50.1398C7.00318 46.7798 2.85759 41.607 2.14282 35.5759C2.12915 35.4675 2.1726 35.3601 2.25805 35.2922V35.2922ZM10.1391 61.8633C5.8031 61.8633 2.13989 59.6652 2.13989 57.0639C2.13989 54.4626 5.8031 52.2641 10.1391 52.2641C10.5409 52.2641 10.9354 52.289 11.327 52.3252C11.4402 52.3359 11.552 52.3505 11.6653 52.3637C11.9617 52.3999 12.2531 52.4458 12.5397 52.5009C12.6388 52.5214 12.7389 52.5375 12.8361 52.5585C13.1862 52.6376 13.5284 52.7304 13.8599 52.8393C13.8389 52.8583 13.8194 52.8798 13.7984 52.8988C13.7408 52.9521 13.6915 53.0058 13.6329 53.06C13.4986 53.1908 13.3707 53.3246 13.2501 53.4608C13.1954 53.5218 13.1432 53.5838 13.0909 53.6468C12.9708 53.7938 12.8585 53.9441 12.7531 54.0965C12.7199 54.1458 12.6838 54.1926 12.6462 54.2405C12.5178 54.4392 12.4016 54.6457 12.2976 54.8581C12.2761 54.9021 12.2614 54.9455 12.2409 54.9894C12.1648 55.1569 12.0974 55.3278 12.0383 55.5026C12.0149 55.5719 11.9949 55.6422 11.9753 55.7159C11.9304 55.8722 11.8928 56.0304 11.8635 56.1905C11.8518 56.2574 11.8367 56.3248 11.8274 56.3931C11.7942 56.6162 11.7771 56.8413 11.7752 57.0669C11.7761 57.2832 11.7918 57.499 11.8211 57.7133C11.8337 57.8061 11.8538 57.8978 11.8709 57.9896C11.8923 58.0961 11.9138 58.2103 11.9426 58.3202C11.9714 58.43 12.012 58.5657 12.0491 58.6873C12.0705 58.7488 12.093 58.8099 12.1164 58.8704C12.488 59.8063 13.0783 60.6393 13.8379 61.3003C12.6413 61.6782 11.3934 61.8682 10.1391 61.8633V61.8633ZM23.107 61.8066C22.7135 61.8442 22.3137 61.8633 21.9128 61.8633C20.0009 61.8896 18.1139 61.4268 16.4314 60.5182C16.3079 60.4469 16.1893 60.3746 16.0745 60.3053C16.0116 60.2633 15.9476 60.2228 15.8856 60.1803C15.7567 60.0905 15.6346 59.9977 15.5175 59.903C15.4769 59.8708 15.4335 59.8391 15.3939 59.8049C15.2626 59.6984 15.141 59.5798 15.0258 59.4626C15.0058 59.4421 14.9833 59.4231 14.9638 59.4016C14.8374 59.2698 14.7187 59.1301 14.6089 58.9837L14.5991 58.9729C14.1699 58.4295 13.9292 57.7616 13.9136 57.0693C13.9146 56.813 13.9502 56.5581 14.0201 56.3121C14.0425 56.232 14.085 56.1539 14.1138 56.0753C14.1714 55.9044 14.2427 55.7384 14.3272 55.5792C14.3794 55.4874 14.4497 55.3991 14.5127 55.3083C14.6103 55.1594 14.7172 55.0168 14.833 54.8815C14.916 54.7878 15.0131 54.698 15.1069 54.6067C15.2006 54.5149 15.2816 54.4465 15.3734 54.3674C15.4101 54.4304 15.4516 54.488 15.4877 54.55C15.8465 55.155 16.2381 55.7394 16.6609 56.3013C16.759 56.4312 16.8528 56.5645 16.9543 56.6929C17.1535 56.9443 17.3625 57.1884 17.5739 57.4306C17.7218 57.599 17.8727 57.765 18.026 57.9276C18.2296 58.141 18.4337 58.3617 18.647 58.5677C18.9038 58.8172 19.1704 59.055 19.4404 59.2898C19.687 59.5032 19.9384 59.7087 20.1957 59.9103C20.4686 60.1237 20.745 60.3371 21.0296 60.5343C21.2063 60.6583 21.3855 60.7774 21.5628 60.8951C21.8825 61.1085 22.2189 61.3067 22.5548 61.4986C22.6925 61.5767 22.8268 61.6587 22.9654 61.7334C23.0196 61.7568 23.0626 61.7832 23.107 61.8066ZM32.0036 61.8633C30.0448 61.8589 28.1021 61.5156 26.261 60.8477C25.9412 60.735 25.6273 60.6349 25.3202 60.4972C25.1068 60.4083 24.915 60.3009 24.7123 60.2038C24.3999 60.0553 24.0864 59.9113 23.7847 59.7453C23.6275 59.6589 23.4805 59.5573 23.3258 59.467C22.9879 59.2639 22.6496 59.0628 22.3254 58.8377C22.2189 58.7606 22.112 58.6732 21.9992 58.5931C21.6448 58.3353 21.2952 58.0707 20.9613 57.786C20.8836 57.7196 20.8109 57.6464 20.7332 57.579C20.3798 57.2656 20.0356 56.939 19.7089 56.6021C19.6528 56.5445 19.6025 56.4825 19.5459 56.4229C19.209 56.0611 18.8838 55.6881 18.5787 55.2975C18.5382 55.2453 18.4996 55.1911 18.4591 55.1374C18.15 54.7321 17.8556 54.3142 17.5822 53.8812C17.5514 53.8333 17.5226 53.783 17.4929 53.7342C17.2644 53.3641 17.0564 52.9789 16.8528 52.5898L16.8357 52.5566L16.7219 52.3432C16.6799 52.2656 16.6409 52.1855 16.5999 52.1064C16.5594 52.0273 16.5188 51.9424 16.4807 51.8579C16.2459 51.3438 16.0413 50.8234 15.8597 50.2966C15.8441 50.2516 15.826 50.2082 15.8109 50.1633C15.639 49.6511 15.5004 49.1331 15.3842 48.6112C15.3671 48.5389 15.3437 48.4686 15.329 48.3978C15.2221 47.9052 15.1464 47.4062 15.0834 46.9048C15.0707 46.8037 15.0483 46.7066 15.0375 46.605C14.9721 46.005 14.9389 45.402 14.9384 44.7986C14.9384 40.0222 18.0402 36.8047 21.324 33.3969C25.0024 29.5818 28.8037 25.6364 28.8037 19.201V13.8681H35.203V19.201C35.203 25.6364 39.0044 29.5818 42.6827 33.3969C45.9666 36.8047 49.0683 40.0222 49.0683 44.7986C49.0571 54.2185 41.4236 61.852 32.0036 61.8633V61.8633Z" fill="#CBE7EF"/>
</g>
<defs>
<clipPath id="clip0">
<rect width="64" height="64" fill="white"/>
</clipPath>
</defs>
</svg>
