<svg width="66" height="66" viewBox="0 0 66 66" fill="none" xmlns="http://www.w3.org/2000/svg">
<g clip-path="url(#clip0)">
<path d="M43.2228 20.4337C42.7849 20.0769 42.1354 20.1678 41.8074 20.6276C41.5063 21.0499 41.588 21.6309 41.9898 21.9587C45.2923 24.6529 47.2386 28.7152 47.2386 33.0007C47.2386 41.0383 40.544 47.5419 32.4379 47.228C25.0482 46.942 19.0594 40.9534 18.773 33.5637C18.4589 25.4573 24.9625 18.7624 33.0004 18.7624C34.9246 18.7624 36.7775 19.1352 38.5216 19.8717C38.998 20.0729 39.5485 19.8705 39.7796 19.4077L39.78 19.4071C40.0319 18.9029 39.8094 18.2869 39.2904 18.0674C37.3029 17.2268 35.1918 16.8014 33.0004 16.8014C23.8554 16.8014 16.4561 24.4186 16.8135 33.6413C17.1393 42.0488 23.9531 48.8623 32.3604 49.1877C41.583 49.5447 49.1998 42.1454 49.1998 33.0007C49.1997 28.1222 46.9834 23.4986 43.2228 20.4337Z" fill="#CBE7EF"/>
<path d="M65.7332 32.328C62.746 29.1496 59.3581 27.286 55.8559 26.8759C58.6833 24.7701 60.6852 21.4617 61.6832 17.2148C61.802 16.7089 61.509 16.2014 61.0116 16.0514C56.8354 14.7925 52.9696 14.8724 49.7318 16.2685C51.1274 13.0309 51.207 9.16483 49.9476 4.98776C49.7982 4.49198 49.2886 4.19795 48.7844 4.31628C44.5384 5.31402 41.2303 7.31619 39.1242 10.1443C38.7142 6.64214 36.8506 3.25422 33.6722 0.26708C33.2936 -0.0887012 32.7076 -0.0887012 32.329 0.26708C29.1501 3.25487 27.2858 6.64265 26.8758 10.1444C24.7697 7.31632 21.4616 5.31415 17.2156 4.31641C16.7117 4.19808 16.2021 4.49198 16.0524 4.98788C14.7932 9.16496 14.8728 13.031 16.2682 16.2686C13.0302 14.8725 9.16446 14.7925 4.98841 16.0515C4.49097 16.2014 4.19796 16.7091 4.31681 17.2149C5.3148 21.462 7.31672 24.7702 10.1441 26.876C6.64202 27.286 3.25411 29.1497 0.266836 32.328C-0.0889453 32.7066 -0.0889453 33.2926 0.266836 33.6712C3.2545 36.8503 6.64254 38.7143 10.1441 39.1244C7.31595 41.2306 5.31364 44.5389 4.31604 48.7853C4.19719 49.291 4.49045 49.798 4.98777 49.9479C6.96042 50.5427 8.86346 50.8388 10.664 50.8388C12.6765 50.8388 14.5601 50.4672 16.269 49.7302C15.7717 50.8807 15.439 52.1107 15.2755 53.4084C15.2049 53.9684 15.6316 54.4689 16.195 54.5004H16.1962C16.711 54.5291 17.1578 54.1535 17.2228 53.6417C17.4188 52.0977 17.8908 50.671 18.6303 49.39C18.7963 49.1024 18.9771 48.8206 19.1711 48.5467C21.2627 50.4094 23.7309 51.8576 26.446 52.7604C26.3071 53.0615 26.1552 53.3556 25.9911 53.6398C24.3824 56.4262 21.5191 58.4537 17.6772 59.5389C17.5097 58.8791 17.3793 58.2282 17.2867 57.591C17.2119 57.0753 16.7498 56.7071 16.2306 56.7532C15.6701 56.8028 15.2648 57.3126 15.3456 57.8696C15.4941 58.8947 15.7306 59.9474 16.0515 61.0121C16.1788 61.434 16.5664 61.7099 16.9897 61.7099C17.064 61.7099 17.1394 61.7013 17.2145 61.6837C21.4616 60.6857 24.77 58.6838 26.8759 55.8562C27.2861 59.3578 29.1502 62.7457 32.3293 65.7335C32.518 65.9108 32.7595 65.9996 33.0008 65.9996C33.2421 65.9996 33.4837 65.9109 33.6722 65.7335C36.8507 62.7465 38.7143 59.3586 39.1243 55.8562C41.2303 58.6837 44.5387 60.6856 48.7857 61.6836C48.861 61.7012 48.9363 61.7097 49.0105 61.7097C49.4339 61.7097 49.8215 61.4339 49.9487 61.0121C51.208 56.8351 51.1277 52.9686 49.7309 49.7301C51.4398 50.467 53.3231 50.8388 55.336 50.8387C57.1363 50.8387 59.0398 50.5424 61.0122 49.9478C61.5096 49.7979 61.8027 49.2908 61.684 48.7852C60.6862 44.5386 58.6839 41.2305 55.8559 39.1244C59.3575 38.7143 62.7454 36.8503 65.7332 33.6712C66.0888 33.2926 66.0888 32.7066 65.7332 32.328ZM49.3898 18.6303C52.1769 17.0214 55.6698 16.6966 59.5387 17.6774C58.4534 21.5193 56.426 24.3825 53.6396 25.9911C53.3553 26.1552 53.0614 26.3069 52.7603 26.446C51.8574 23.7307 50.4093 21.2626 48.5466 19.1709C48.8205 18.977 49.1022 18.7963 49.3898 18.6303ZM40.009 12.3607C41.6182 9.5736 44.4808 7.54603 48.3217 6.4609C49.3028 10.3308 48.9786 13.824 47.3698 16.6103C47.2038 16.8979 47.0231 17.1796 46.8292 17.4536C44.7374 15.5909 42.2693 14.1429 39.5541 13.2401C39.6932 12.939 39.8449 12.645 40.009 12.3607ZM33.0006 2.35575C35.7845 5.21592 37.2498 8.40326 37.2498 11.6214C37.2498 11.9492 37.2342 12.2792 37.2042 12.609C35.846 12.3294 34.44 12.1824 33.0003 12.1824C31.5604 12.1824 30.1543 12.3295 28.796 12.6091C28.7658 12.2792 28.7503 11.9492 28.7503 11.6214C28.7502 8.4039 30.216 5.21669 33.0006 2.35575ZM17.6782 6.4609C21.5191 7.5459 24.3817 9.5736 25.9909 12.3608C26.1551 12.6452 26.3068 12.9391 26.4459 13.2403C23.7306 14.1432 21.2624 15.5913 19.1709 17.454C18.9771 17.18 18.7962 16.8982 18.6302 16.6106C17.0214 13.8242 16.6971 10.3309 17.6782 6.4609ZM6.46117 17.6775C10.33 16.6967 13.823 17.0214 16.61 18.6305C16.8977 18.7967 17.1795 18.9774 17.4534 19.1713C15.5907 21.2631 14.1427 23.7311 13.2398 26.4463C12.9386 26.3073 12.6445 26.1555 12.3602 25.9912C9.57387 24.3825 7.54656 21.5193 6.46117 17.6775ZM2.35537 32.9995C5.21568 30.2157 8.40288 28.7505 11.621 28.7505C11.949 28.7505 12.279 28.7661 12.6088 28.7961C12.3292 30.1544 12.1822 31.5605 12.1822 33.0002C12.1822 34.44 12.3292 35.846 12.6088 37.2043C12.279 37.2343 11.949 37.2499 11.6212 37.2499C8.40366 37.2499 5.21632 35.7842 2.35537 32.9995ZM16.6102 47.3701C13.8239 48.9788 10.3308 49.3031 6.46065 48.322C7.54566 44.481 9.57335 41.6185 12.3604 40.0094C12.6448 39.8453 12.9387 39.6934 13.2401 39.5544C14.1429 42.2696 15.591 44.7378 17.4536 46.8294C17.1796 47.0234 16.8978 47.204 16.6102 47.3701ZM33.0006 63.6449C30.216 60.7841 28.7502 57.5967 28.7502 54.3792C28.7502 54.0514 28.7658 53.7215 28.7959 53.3918C30.1541 53.6714 31.5602 53.8185 33.0003 53.8185C34.44 53.8185 35.846 53.6714 37.2042 53.3918C37.2343 53.7215 37.2498 54.0514 37.2498 54.3792C37.2498 57.5974 35.7845 60.7847 33.0006 63.6449ZM33.0003 51.8574C22.6026 51.8574 14.1432 43.3982 14.1432 33.0004C14.1432 22.6025 22.6024 14.1433 33.0003 14.1433C43.3981 14.1433 51.8573 22.6025 51.8573 33.0004C51.8573 43.3982 43.398 51.8574 33.0003 51.8574ZM48.3228 59.5391C44.4809 58.4538 41.6178 56.4264 40.0091 53.6401C39.845 53.3557 39.6933 53.0618 39.5542 52.7607C42.2695 51.8578 44.7377 50.4098 46.8293 48.5471C47.0232 48.8209 47.2038 49.1027 47.3698 49.3902C48.979 52.1771 49.3035 55.67 48.3228 59.5391ZM59.5392 48.322C55.6695 49.3031 52.1761 48.9789 49.3897 47.3701C49.1022 47.204 48.8205 47.0234 48.5466 46.8297C50.4093 44.7379 51.8573 42.2698 52.7603 39.5546C53.0614 39.6936 53.3553 39.8453 53.6396 40.0094C56.4265 41.6184 58.4542 44.481 59.5392 48.322ZM54.3788 37.25C54.0512 37.25 53.7213 37.2344 53.3916 37.2044C53.6711 35.8462 53.8182 34.4401 53.8182 33.0004C53.8182 31.5605 53.6711 30.1544 53.3916 28.7961C53.7213 28.7661 54.0512 28.7505 54.3788 28.7505C57.5971 28.7505 60.7845 30.2157 63.6446 32.9996C60.7838 35.7842 57.5965 37.25 54.3788 37.25Z" fill="#CBE7EF"/>
<path d="M21.9442 30.5293C21.682 30.2524 21.2622 30.1534 20.9038 30.2826C20.5126 30.4236 20.2442 30.8075 20.2536 31.2254C20.2621 31.6088 20.5027 31.9651 20.8586 32.111C21.2902 32.288 21.7883 32.1318 22.0496 31.7489C22.3026 31.3739 22.2536 30.8562 21.9442 30.5293Z" fill="#CBE7EF"/>
<path d="M27.2016 40.5025C26.8647 40.2375 26.3857 40.2257 26.0342 40.4685C25.6618 40.7258 25.5128 41.2293 25.6892 41.6473C25.841 42.0258 26.2364 42.272 26.6421 42.2514C27.0513 42.2306 27.414 41.9495 27.532 41.5567C27.6466 41.1754 27.5153 40.7493 27.2016 40.5025Z" fill="#CBE7EF"/>
<path d="M22.0035 35.8776C21.615 36.1301 21.4556 36.6437 21.6362 37.0715C21.7818 37.4347 22.1516 37.6771 22.5409 37.6769C22.9871 37.6766 23.3828 37.3662 23.4916 36.9348C23.706 36.0848 22.7339 35.4026 22.0035 35.8776Z" fill="#CBE7EF"/>
<path d="M26.0945 29.6132C25.9756 29.2206 25.6135 28.9418 25.2052 28.9196C24.7954 28.8974 24.4077 29.1445 24.2511 29.5225C24.0726 29.9534 24.2291 30.4523 24.6119 30.7136C25.3615 31.2195 26.3536 30.4697 26.0945 29.6132Z" fill="#CBE7EF"/>
<path d="M36.1458 39.3736C35.862 38.5666 34.7001 38.5138 34.3372 39.2844C34.1314 39.7216 34.2823 40.2486 34.679 40.5193C35.0163 40.7413 35.4634 40.7355 35.7929 40.5014C36.1471 40.2496 36.2894 39.7816 36.1458 39.3736Z" fill="#CBE7EF"/>
<path d="M32.1166 35.6294C31.8859 35.291 31.4632 35.1219 31.0631 35.2226C30.681 35.3186 30.3911 35.6411 30.3311 36.0297C30.2702 36.425 30.4713 36.8304 30.8183 37.0264C31.1893 37.2358 31.6682 37.1777 31.9773 36.8838C32.3168 36.5613 32.3792 36.0183 32.1166 35.6294Z" fill="#CBE7EF"/>
<path d="M44.5735 33.99C44.3688 33.6271 43.9393 33.43 43.5302 33.5128C43.1406 33.5918 42.8329 33.9018 42.758 34.2924C42.6715 34.7442 42.9239 35.2017 43.3459 35.3797C43.7579 35.5411 44.2415 35.421 44.5076 35.0599C44.7365 34.7494 44.7632 34.3262 44.5735 33.99Z" fill="#CBE7EF"/>
<path d="M34.3392 42.9509C34.1033 42.6052 33.6681 42.438 33.2626 42.5511C32.8671 42.6614 32.5773 43.0124 32.546 43.4229C32.5167 43.8053 32.7242 44.179 33.0619 44.3596C33.4374 44.5605 33.9162 44.4898 34.2163 44.1877C34.5399 43.8618 34.5983 43.3348 34.3392 42.9509Z" fill="#CBE7EF"/>
<path d="M26.4173 36.3189C26.0796 36.0548 25.6021 36.0416 25.2499 36.2849C24.8775 36.5422 24.7285 37.0458 24.9048 37.4637C25.0502 37.8265 25.4206 38.0691 25.8096 38.0691C26.219 38.0691 26.5956 37.8049 26.7325 37.4189C26.871 37.0283 26.7452 36.5753 26.4173 36.3189Z" fill="#CBE7EF"/>
<path d="M38.9151 41.7743C38.6746 41.4217 38.2269 41.2547 37.8153 41.3803C37.4234 41.5001 37.141 41.8599 37.12 42.2701C37.0773 43.1036 38.0748 43.5992 38.7178 43.0789C39.1041 42.7663 39.194 42.1873 38.9151 41.7743Z" fill="#CBE7EF"/>
<path d="M24.1118 26.4555C23.7404 26.2212 23.245 26.2644 22.9215 26.5632C22.6354 26.8274 22.5333 27.2473 22.6648 27.6135C22.8264 28.064 23.308 28.3396 23.7791 28.2438C24.6323 28.0832 24.837 26.9129 24.1118 26.4555Z" fill="#CBE7EF"/>
</g>
<defs>
<clipPath id="clip0">
<rect width="66" height="66" fill="white"/>
</clipPath>
</defs>
</svg>
