<svg width="66" height="66" viewBox="0 0 66 66" fill="none" xmlns="http://www.w3.org/2000/svg"><g clip-path="url(#a)" fill="#CBE7EF"><path d="M46.875 33.808a1.29 1.29 0 0 0-.794-.848c-.079-.03-.714-.254-1.7-.398 4.215-4.487 2.823-9.728 2.494-10.752a1.29 1.29 0 0 0-.794-.848c-.181-.066-3.337-1.18-6.932.072.203-.833.322-1.748.322-2.753 0-6.428-4.868-9.254-5.845-9.755a1.288 1.288 0 0 0-1.162-.038c-.242.112-5.92 2.83-5.92 9.793 0 1.007.119 1.924.322 2.759-3.601-1.26-6.765-.145-6.947-.078-.388.142-.68.46-.794.848-.33 1.024-1.721 6.265 2.495 10.752-.987.144-1.622.369-1.7.398a1.29 1.29 0 0 0-.795.848c-.336 1.045-1.78 6.485 2.765 11.03 2.63 2.631 5.55 3.259 7.737 3.259.81 0 1.518-.086 2.075-.189v8.435a1.29 1.29 0 0 0 2.578 0v-8.438c.56.104 1.274.192 2.093.192 2.187 0 5.107-.628 7.737-3.258 4.546-4.546 3.101-9.986 2.765-11.031zM31.702 43.89a8.593 8.593 0 0 1-.19 1.43c-1.377.306-4.825.67-7.8-2.304-2.929-2.93-2.622-6.32-2.297-7.8.866-.188 2.556-.398 4.428.21.123.046.246.09.369.13.99.376 2.02.99 2.995 1.965 1.86 1.859 2.414 3.902 2.495 5.509v.86zm0-11.998a8.587 8.587 0 0 1-.19 1.43c-.853.19-2.501.401-4.34-.172a10.412 10.412 0 0 0-.555-.197c-.961-.38-1.957-.987-2.904-1.935-2.93-2.93-2.623-6.32-2.298-7.799 1.376-.299 4.833-.655 7.793 2.305l.054.056c.113.127.226.248.34.365 1.542 1.741 2.025 3.601 2.1 5.087v.86zm1.307-6.467a8.761 8.761 0 0 1-1.761-1.502c-1.077-1.196-2.127-3.031-2.127-5.642 0-4.202 2.69-6.382 3.88-7.141 1.274.815 3.891 2.995 3.891 7.141 0 2.463-.924 4.231-1.929 5.426-.208.209-.404.42-.588.632a8.653 8.653 0 0 1-1.366 1.086zm1.279 6.05a8.16 8.16 0 0 1 1.992-5.397c.19-.189.381-.392.57-.61 2.959-2.91 6.366-2.554 7.735-2.251.324 1.478.633 4.87-2.298 7.801-.946.946-1.94 1.554-2.899 1.934-.187.06-.375.126-.565.2-1.837.572-3.485.36-4.335.171a8.65 8.65 0 0 1-.2-1.815v-.033zm8 11.54c-2.976 2.976-6.423 2.611-7.798 2.306-.3-1.37-.662-4.835 2.303-7.8.948-.949 1.944-1.556 2.907-1.936.183-.06.368-.124.554-.196 1.833-.572 3.478-.364 4.33-.175.325 1.478.634 4.87-2.297 7.802z"/><path d="M39.878.718A33.222 33.222 0 0 0 33 0C24.185 0 15.898 3.433 9.666 9.666 3.433 15.898 0 24.186 0 33a33.063 33.063 0 0 0 6.973 20.287 4.864 4.864 0 0 0-.779 2.652c0 1.308.51 2.538 1.435 3.463a4.866 4.866 0 0 0 3.464 1.435c1.308 0 2.538-.51 3.463-1.435a4.866 4.866 0 0 0 1.435-3.463c0-1.309-.51-2.539-1.435-3.464a4.866 4.866 0 0 0-3.463-1.435c-.776 0-1.523.18-2.197.519A30.478 30.478 0 0 1 2.578 33C2.578 16.225 16.225 2.578 33 2.578c2.138 0 4.272.223 6.343.662a1.289 1.289 0 1 0 .535-2.522zM9.452 54.298a2.312 2.312 0 0 1 1.64-.679c.595 0 1.189.227 1.641.679.439.438.68 1.02.68 1.64a2.323 2.323 0 0 1-4.64 0c0-.62.24-1.202.679-1.64zM59.027 12.713c.506-.784.779-1.696.779-2.652 0-1.308-.51-2.538-1.435-3.463a4.866 4.866 0 0 0-3.464-1.435c-1.308 0-2.538.51-3.463 1.435a4.866 4.866 0 0 0-1.435 3.463c0 1.309.51 2.539 1.435 3.464a4.866 4.866 0 0 0 3.463 1.435c.776 0 1.523-.18 2.197-.52A30.48 30.48 0 0 1 63.422 33c0 16.775-13.647 30.422-30.422 30.422a30.71 30.71 0 0 1-5.374-.473 1.29 1.29 0 0 0-.452 2.538c1.91.34 3.87.513 5.826.513 8.815 0 17.102-3.433 23.335-9.665C62.568 50.102 66 41.815 66 33a33.063 33.063 0 0 0-6.973-20.287zm-2.479-1.011c-.438.438-1.02.68-1.64.68a2.323 2.323 0 0 1 0-4.64c.62-.001 1.202.24 1.64.679.438.438.68 1.02.68 1.64 0 .62-.242 1.203-.68 1.641zM21.674 61.244l-.487 1.193.483-1.195a1.29 1.29 0 1 0-.966 2.39l.04.016a1.293 1.293 0 0 0 1.668-.74 1.285 1.285 0 0 0-.738-1.664zM45.352 2.39l-.023-.009a1.289 1.289 0 0 0-.957 2.394l.014.006a1.29 1.29 0 0 0 .966-2.39z"/></g><defs><clipPath id="a"><path fill="#fff" d="M0 0h66v66H0z"/></clipPath></defs></svg>