<svg width="66" height="66" viewBox="0 0 66 66" fill="none" xmlns="http://www.w3.org/2000/svg"><path d="M56.335 9.665C50.102 3.433 41.815 0 33 0 24.185 0 15.898 3.433 9.665 9.665 3.433 15.898 0 24.185 0 33c0 8.815 3.433 17.102 9.665 23.335C15.898 62.567 24.185 66 33 66c8.815 0 17.102-3.433 23.335-9.665C62.567 50.102 66 41.815 66 33c0-8.815-3.433-17.102-9.665-23.335zm-1.368 45.302c-5.867 5.868-13.669 9.1-21.967 9.1-8.298 0-16.1-3.232-21.967-9.1C5.165 49.1 1.933 41.298 1.933 33c0-8.298 3.232-16.1 9.1-21.967C16.9 5.165 24.702 1.933 33 1.933c8.298 0 16.1 3.232 21.967 9.1 5.868 5.867 9.1 13.669 9.1 21.967 0 8.298-3.232 16.1-9.1 21.967z" fill="#CBE7EF"/><path d="M56.627 40.09c-.601-5.11-4.53-11.229-12.008-18.708-7.48-7.48-13.6-11.408-18.709-12.01-5.186-.61-8.753 2.175-11.558 4.98-2.805 2.805-5.59 6.372-4.98 11.558.602 5.11 4.53 11.23 12.01 18.709 2.406 2.407 4.699 4.47 6.813 6.135a.967.967 0 0 0 1.196-1.52c-2.055-1.616-4.29-3.63-6.642-5.983-7.16-7.16-10.908-12.906-11.456-17.567a9.41 9.41 0 0 1 .829-5.198l.027.186c.447 2.766 2.396 6.235 5.952 10.594l-.355.767a.967.967 0 0 0 .25 1.142c.095.08 1.436 1.202 3.48 1.975a151.373 151.373 0 0 0 4.592 4.782c7.418 7.419 13.014 11.778 17.107 13.326.845.32 1.617.516 2.326.616a9.441 9.441 0 0 1-2.323.755c-2.957.542-6.304-.396-10.235-2.868a.967.967 0 0 0-1.03 1.637c3.782 2.378 6.927 3.323 9.625 3.323 4.226 0 7.354-2.317 10.11-5.073 2.805-2.805 5.59-6.371 4.98-11.558zM15.48 15.96l.24-.24c1.566-1.568 3.258-2.366 6.421-1.17 3.83 1.45 9.203 5.664 16.424 12.885.26.26.517.52.77.776-.282.01-.575.029-.877.057a7.229 7.229 0 0 0-7.336-2.242 7.229 7.229 0 0 0-1.865-6.988c-2.73-2.73-7.12-2.814-9.952-.253-.694-.44-1.944-1.064-3.213-.846a.967.967 0 1 0 .328 1.906c.512-.088 1.148.175 1.622.44a7.245 7.245 0 0 0 .255 8.104c-6.234-8.232-4.328-10.88-2.817-12.429zm24.153 14.178c2.32-.033 3.747.641 4.411 1.066l-1.12 3.505a7.28 7.28 0 0 0-2.95.169 7.266 7.266 0 0 0-.341-4.74zm2.219 6.424c1.355 0 2.71.516 3.742 1.548a5.299 5.299 0 0 1 0 7.484 5.299 5.299 0 0 1-7.484 0 5.298 5.298 0 0 1 0-7.484 5.277 5.277 0 0 1 3.742-1.548zm2.93-1.314l.281-.883a68.393 68.393 0 0 1 2.359 2.885 7.19 7.19 0 0 0-2.64-2.002zm-15.524-5.99A5.276 5.276 0 0 1 33 27.71a5.276 5.276 0 0 1 4.135 1.988.966.966 0 0 0 .228.309 5.3 5.3 0 0 1-.62 6.736 5.299 5.299 0 0 1-7.486 0 5.299 5.299 0 0 1 0-7.485zm-8.852-1.368a5.298 5.298 0 0 1 0-7.484 5.276 5.276 0 0 1 3.742-1.548c1.355 0 2.71.516 3.742 1.548a5.299 5.299 0 0 1 0 7.484 5.298 5.298 0 0 1-7.485 0zm-.573 4.238c.29-.629.173-1.585-.265-2.122-.408-.501-.787-.983-1.143-1.448a7.204 7.204 0 0 0 5.723 2.813c.632 0 1.263-.084 1.878-.249a7.277 7.277 0 0 0-.188 2.8c-2.657.193-4.968-1.096-6.005-1.794zm26.471 19.89c-.71-.038-1.514-.216-2.445-.569-3.83-1.449-9.203-5.663-16.424-12.884-.927-.927-1.809-1.83-2.642-2.701a9.376 9.376 0 0 0 1.554-.047A7.203 7.203 0 0 0 33 40.223c.632 0 1.263-.084 1.878-.248a7.262 7.262 0 0 0-.227 1.334l-.546-.046a.967.967 0 0 0-.16 1.927l.822.069a7.183 7.183 0 0 0 1.975 3.703 7.203 7.203 0 0 0 5.11 2.113c.973 0 1.946-.197 2.855-.587.506.461 2.048 2.025 1.597 3.53zm4.237-2l-.418.418c-.561.538-1.144.974-1.808 1.252.111-1.835-1.101-3.409-1.898-4.234.188-.153.37-.317.545-.492 2.52-2.52 2.784-6.452.796-9.27 6.136 8.14 4.302 10.764 2.783 12.326zm3.343-4.516c-.45-3.102-2.791-7.248-8.133-13.288l.341-1.067a.967.967 0 0 0-.237-.978c-.07-.07-1.216-1.182-3.569-1.702-.744-.773-1.534-1.579-2.354-2.4-7.419-7.418-13.014-11.777-17.107-13.325-.852-.322-1.63-.52-2.343-.619a9.41 9.41 0 0 1 5.202-.83c4.66.548 10.407 4.296 17.567 11.456 7.16 7.16 10.907 12.906 11.456 17.567a9.41 9.41 0 0 1-.823 5.186z" fill="#CBE7EF"/><path d="M22.566 23.699l-1.172-.196a.967.967 0 1 0-.318 1.908l1.172.195a.967.967 0 0 0 .318-1.907zM27.65 23.561l-.196-.488a.967.967 0 0 0-1.796.718l.196.488a.967.967 0 1 0 1.795-.718zM31.993 33.075l-.488-.39a.967.967 0 0 0-1.208 1.51l.488.39a.963.963 0 0 0 1.359-.151.967.967 0 0 0-.151-1.359zM36.208 34.715l-.195-.39a.967.967 0 0 0-1.73.865l.195.39a.967.967 0 0 0 1.73-.865zM34.775 30.296l-.488-.195a.967.967 0 1 0-.718 1.795l.488.196a.965.965 0 0 0 1.256-.539.967.967 0 0 0-.538-1.257zM40.727 42.405l-.878-.195a.966.966 0 1 0-.42 1.888l.879.195a.964.964 0 0 0 1.153-.734.967.967 0 0 0-.734-1.154zM44.01 40.847l-.098-.586a.967.967 0 1 0-1.907.318l.098.586a.967.967 0 0 0 1.907-.318z" fill="#CBE7EF"/></svg>