<svg width="44" height="44" viewBox="0 0 44 44" fill="none" xmlns="http://www.w3.org/2000/svg"><g clip-path="url(#a)"><path d="M38.071 0H5.931A5.93 5.93 0 0 0 0 5.93v32.14A5.929 5.929 0 0 0 5.93 44h15.852l.027-15.723h-4.085a.964.964 0 0 1-.964-.96l-.02-5.069a.964.964 0 0 1 .965-.967h4.077v-4.897c0-5.684 3.471-8.778 8.54-8.778h4.16c.533 0 .965.431.965.964v4.273a.964.964 0 0 1-.964.964l-2.553.001c-2.757 0-3.29 1.31-3.29 3.233v4.24h6.058a.964.964 0 0 1 .957 1.077l-.6 5.068a.964.964 0 0 1-.958.85h-5.43L28.64 44h9.432A5.929 5.929 0 0 0 44 38.071V5.929A5.93 5.93 0 0 0 38.07 0z" fill="#fff"/></g><defs><clipPath id="a"><path fill="#fff" d="M0 0h44v44H0z"/></clipPath></defs></svg>