<svg width="23" height="34" viewBox="0 0 23 34" fill="none" xmlns="http://www.w3.org/2000/svg"><path d="M11.5 8.786c-2.264 0-4.107 1.658-4.107 3.696 0 2.038 1.843 3.697 4.107 3.697 2.264 0 4.107-1.66 4.107-3.697 0-2.038-1.843-3.696-4.107-3.696zm0 6.336c-1.618 0-2.934-1.184-2.934-2.64 0-1.456 1.316-2.64 2.934-2.64s2.934 1.184 2.934 2.64c0 1.456-1.316 2.64-2.934 2.64z" fill="#88B04B"/><path d="M19.633 3.942a11.423 11.423 0 0 0-8.132-3.37c-3.072 0-5.96 1.197-8.132 3.37-4.02 4.021-4.52 11.588-1.082 16.173l9.214 13.314 9.2-13.296c3.452-4.603 2.952-12.17-1.068-16.191zm.096 15.49L11.5 31.32l-8.24-11.907C.141 15.253.588 8.42 4.217 4.79A10.23 10.23 0 0 1 11.5 1.772c2.752 0 5.338 1.072 7.284 3.018 3.629 3.63 4.075 10.463.944 14.642z" fill="#88B04B"/></svg>