<svg width="32" height="35" viewBox="0 0 32 35" fill="none" xmlns="http://www.w3.org/2000/svg"><path d="M30.328 27.064l-6.304-4.687c-.8-.59-1.872-.396-2.464.446l-1.836 2.633c-.236.347-.665.447-1.006.236l-.35-.215c-1.158-.704-2.598-1.58-5.501-4.817-2.903-3.238-3.69-4.846-4.321-6.134l-.192-.39c-.192-.38-.104-.86.208-1.126l2.359-2.047c.755-.66.93-1.854.4-2.747L7.119 1.188C6.576.279 5.489.006 4.65.568L2.014 2.335C1.186 2.877.578 3.756.32 4.788c-.95 3.856-.235 10.511 8.558 20.317C15.87 32.903 21.079 35 24.657 35a8.308 8.308 0 0 0 2.44-.355c.925-.29 1.714-.967 2.2-1.89l1.586-2.938c.505-.936.26-2.148-.555-2.753zm-.34 2.159l-1.581 2.94c-.35.666-.917 1.156-1.583 1.367-3.193.977-8.771.168-17.213-9.244C1.17 14.873.443 8.654 1.32 5.094c.19-.744.63-1.377 1.228-1.767l2.636-1.764c.364-.244.836-.126 1.071.269L8.54 5.654l1.917 3.206c.23.387.154.906-.174 1.192l-2.36 2.047c-.718.612-.923 1.72-.48 2.6l.187.379c.663 1.356 1.488 3.044 4.498 6.4 3.011 3.356 4.524 4.276 5.74 5.015l.341.21c.789.493 1.782.264 2.331-.537l1.836-2.63c.257-.366.722-.45 1.07-.194l6.303 4.687c.354.262.46.788.24 1.194zM16.596 5.535c5.428.006 9.827 4.91 9.833 10.962 0 .357.259.645.578.645.32 0 .579-.288.579-.645-.007-6.763-4.923-12.245-10.99-12.252-.32 0-.579.289-.579.645 0 .356.26.645.579.645z" fill="#88B04B"/><path d="M16.653 11.19c3.86.003 6.987 2.444 6.992 5.456 0 .274.285.496.635.496.351 0 .636-.222.636-.496-.005-3.56-3.702-6.444-8.263-6.449-.351 0-.636.223-.636.497 0 .273.285.496.636.496z" fill="#88B04B"/><path d="M16.574 13.422c1.535.002 2.779 1.389 2.78 3.1 0 .343.25.62.557.62.307 0 .556-.277.556-.62-.003-2.396-1.744-4.338-3.893-4.34-.308 0-.557.277-.557.62 0 .342.25.62.557.62z" fill="#88B04B"/></svg>