<svg width="64" height="64" viewBox="0 0 64 64" fill="none" xmlns="http://www.w3.org/2000/svg"><g clip-path="url(#a)" fill="#CBE7EF"><path d="M28.803 47.998c-6.788 0-9.694-3.688-9.812-3.84a1.067 1.067 0 0 0-1.92.64c0 8.246 6.686 14.932 14.932 14.932 8.247 0 14.932-6.685 14.932-14.932 0-.59-.477-1.067-1.067-1.067a19.664 19.664 0 0 0-10.21 2.454 13.201 13.201 0 0 1-6.855 1.813zm15.953-2.112a12.8 12.8 0 0 1-25.277 1.54 16.014 16.014 0 0 0 9.325 2.705c2.74.028 5.439-.678 7.813-2.047a17.205 17.205 0 0 1 8.14-2.198z"/><path d="M62.934 61.863a10.846 10.846 0 0 1-6.998-3.251 13.067 13.067 0 0 1-2.033-2.652c.066-.017.132-.039.195-.064 2.086-.935 8.436-3.783 9.882-13.066a1.97 1.97 0 0 0-.632-1.776 1.92 1.92 0 0 0-1.791-.427c-1.945.528-7.454 2.052-9.6 10.267a31.453 31.453 0 0 1-.756-7.162c0-5.998 2.429-10.879 4.573-15.19 1.413-2.838 2.639-5.323 2.85-7.601 1.86-1.108 6.808-5.433 4.54-19.364A1.883 1.883 0 0 0 61.966.123 1.849 1.849 0 0 0 60.12.43c-3.753 3.11-7.4 9.098-3.595 19.973-.054 1.938-1.26 4.373-2.66 7.19a45.352 45.352 0 0 0-4.255 11.045 31.729 31.729 0 0 0-5.392-6.72c-3.539-3.673-6.882-7.14-6.882-12.716v-5.53a3.175 3.175 0 0 0 .458-5.798l1.009-2.019a3.208 3.208 0 0 0-.2-3.207l-.812-1.22A3.193 3.193 0 0 0 35.128.004h-6.25a3.192 3.192 0 0 0-2.666 1.425l-.81 1.22a3.209 3.209 0 0 0-.198 3.205l1.01 2.02a3.176 3.176 0 0 0 .457 5.799V19.2c0 5.576-3.343 9.043-6.882 12.716a28.934 28.934 0 0 0-5.747 7.42 30.129 30.129 0 0 0-10.855-6.176 2.512 2.512 0 0 0-2.315.509 2.454 2.454 0 0 0-.847 2.156c.696 5.88 4.259 10.93 7.653 14.511-4.453.736-7.671 3.42-7.671 6.727 0 3.887 4.45 6.932 10.132 6.932 2.018.01 4.012-.43 5.84-1.286 1.855.87 3.884 1.31 5.934 1.286a14.152 14.152 0 0 0 4.679-.789c9.621 2.853 19.812-2.215 23.342-11.61a17.652 17.652 0 0 0 4.492 8.525 12.938 12.938 0 0 0 8.508 3.874 1.067 1.067 0 0 0 0-2.133zm-1.109-19.091a13.794 13.794 0 0 1-8.3 11.045c1.287-8.75 6.133-10.445 8.3-11.045zM61.13 2.375c1.649 10.734-1.334 14.855-2.951 16.254-2.177-7-1.166-12.594 2.951-16.254zm-24.86 9.36h-8.532a1.066 1.066 0 0 1 0-2.133h8.533a1.067 1.067 0 0 1 0 2.133zm-9.09-7.904l.812-1.22c.198-.297.531-.475.887-.475h6.25c.357 0 .69.178.888.474l.811 1.22c.212.317.238.725.068 1.066L35.61 7.47h-7.215l-1.28-2.57a1.066 1.066 0 0 1 .062-1.068zM2.258 35.292a.365.365 0 0 1 .35-.077 28.348 28.348 0 0 1 10.638 6.251c-.011.038-.013.077-.024.116-.121.462-.216.931-.284 1.404-.014.1-.024.2-.036.301a12.626 12.626 0 0 0-.098 1.512c0 .586.036 1.173.089 1.747.018.197.044.39.068.585a23.818 23.818 0 0 0 .307 1.818c.067.297.149.591.23.887.066.244.12.492.196.733-.064-.016-.132-.022-.197-.038-.32-.078-.657-.136-.993-.191-.173-.027-.343-.06-.52-.083a14.97 14.97 0 0 0-1.149-.09c-.12 0-.236-.024-.357-.027-3.476-3.36-7.621-8.533-8.336-14.564a.312.312 0 0 1 .115-.284zm7.88 26.571c-4.336 0-8-2.198-8-4.8 0-2.6 3.664-4.799 8-4.799.402 0 .796.025 1.188.061.113.01.225.025.338.039.297.036.588.082.875.137.099.02.199.037.296.058.35.079.692.171 1.024.28l-.062.06c-.057.053-.107.107-.165.161a7.51 7.51 0 0 0-.542.587c-.12.147-.232.297-.338.45-.033.049-.07.096-.107.143a5.996 5.996 0 0 0-.348.618c-.022.044-.037.088-.057.131a5.49 5.49 0 0 0-.203.514c-.023.069-.043.14-.063.213a4.939 4.939 0 0 0-.111.474c-.012.067-.027.135-.037.203-.033.223-.05.448-.052.674.001.216.017.432.046.646.013.093.033.185.05.277.021.106.043.22.072.33.028.11.069.246.106.367a6.306 6.306 0 0 0 1.789 2.613 12.126 12.126 0 0 1-3.699.563zm12.968-.056c-.393.037-.793.056-1.194.056a11.211 11.211 0 0 1-5.482-1.345c-.123-.071-.242-.143-.357-.213-.062-.042-.126-.082-.188-.125a6.43 6.43 0 0 1-.368-.277c-.041-.032-.085-.064-.124-.098a4.483 4.483 0 0 1-.368-.342c-.02-.02-.043-.04-.062-.061a4.537 4.537 0 0 1-.355-.418l-.01-.011a3.187 3.187 0 0 1-.685-1.904 2.81 2.81 0 0 1 .106-.757c.023-.08.065-.158.094-.237a3.32 3.32 0 0 1 .213-.496c.052-.092.123-.18.186-.27.097-.15.204-.292.32-.427.083-.094.18-.184.274-.275.094-.092.175-.16.266-.24.037.063.079.121.115.183.359.605.75 1.19 1.173 1.751.098.13.192.264.293.392a20.277 20.277 0 0 0 1.072 1.235c.204.213.408.434.621.64a19.422 19.422 0 0 0 1.549 1.342 18.1 18.1 0 0 0 2.359 1.589c.137.078.272.16.41.234.055.024.098.05.142.074zm8.897.056a16.95 16.95 0 0 1-5.743-1.015c-.32-.113-.634-.213-.94-.35-.214-.09-.406-.197-.609-.294-.312-.149-.626-.293-.927-.459-.157-.086-.305-.188-.46-.278-.337-.203-.675-.404-1-.63-.106-.076-.213-.164-.326-.244a17.044 17.044 0 0 1-1.038-.807c-.077-.066-.15-.14-.228-.207-.353-.313-.697-.64-1.024-.977-.056-.057-.107-.12-.163-.18a17.122 17.122 0 0 1-.967-1.124l-.12-.16c-.309-.406-.603-.824-.877-1.257l-.09-.147a18.49 18.49 0 0 1-.64-1.144l-.016-.033-.114-.214c-.042-.077-.081-.158-.122-.237a5.628 5.628 0 0 1-.12-.248 17.397 17.397 0 0 1-.62-1.561l-.05-.134c-.171-.512-.31-1.03-.426-1.552-.017-.072-.04-.142-.055-.213a17.063 17.063 0 0 1-.246-1.493c-.012-.101-.035-.198-.046-.3a16.8 16.8 0 0 1-.099-1.806c0-4.777 3.102-7.994 6.386-11.402 3.678-3.815 7.48-7.76 7.48-14.196v-5.333h6.399v5.333c0 6.435 3.801 10.38 7.48 14.196 3.284 3.408 6.385 6.625 6.385 11.402-.01 9.42-7.644 17.053-17.064 17.064z"/></g><defs><clipPath id="a"><path fill="#fff" d="M0 0h64v64H0z"/></clipPath></defs></svg>