<svg width="66" height="66" viewBox="0 0 66 66" fill="none" xmlns="http://www.w3.org/2000/svg"><g clip-path="url(#a)" fill="#CBE7EF"><path d="M43.223 20.434a.98.98 0 1 0-1.233 1.525A14.28 14.28 0 0 1 47.239 33c0 8.037-6.695 14.54-14.801 14.227-7.39-.286-13.379-6.275-13.665-13.664-.314-8.107 6.19-14.802 14.227-14.802 1.925 0 3.778.373 5.522 1.11a.98.98 0 1 0 .769-1.804A16.038 16.038 0 0 0 33 16.8c-9.146 0-16.545 7.618-16.187 16.84.325 8.408 7.14 15.221 15.546 15.547C41.583 49.545 49.2 42.145 49.2 33c0-4.879-2.217-9.502-5.977-12.567z"/><path d="M65.733 32.328c-2.987-3.178-6.375-5.042-9.877-5.452 2.827-2.106 4.83-5.414 5.827-9.661a.979.979 0 0 0-.671-1.164c-4.177-1.258-8.042-1.179-11.28.218 1.395-3.238 1.475-7.104.216-11.281a.98.98 0 0 0-1.164-.672c-4.246.998-7.554 3-9.66 5.828-.41-3.502-2.273-6.89-5.452-9.877a.979.979 0 0 0-1.343 0c-3.179 2.988-5.043 6.376-5.453 9.877-2.106-2.828-5.414-4.83-9.66-5.828a.981.981 0 0 0-1.164.672c-1.259 4.177-1.18 8.043.216 11.28-3.238-1.396-7.104-1.476-11.28-.216a.979.979 0 0 0-.671 1.163c.998 4.247 3 7.555 5.827 9.661-3.502.41-6.89 2.274-9.877 5.452a.979.979 0 0 0 0 1.343c2.988 3.18 6.376 5.043 9.877 5.453-2.828 2.107-4.83 5.415-5.828 9.661a.978.978 0 0 0 .672 1.163c1.972.595 3.875.89 5.676.89 2.013 0 3.896-.37 5.605-1.108-.497 1.15-.83 2.38-.993 3.678a.978.978 0 0 0 .919 1.092h.001a.981.981 0 0 0 1.027-.858c.196-1.544.668-2.971 1.407-4.252.166-.288.347-.57.541-.843a20.824 20.824 0 0 0 7.275 4.213c-.139.302-.29.596-.455.88-1.609 2.786-4.472 4.814-8.314 5.899-.167-.66-.298-1.31-.39-1.948a.98.98 0 1 0-1.941.279c.148 1.025.385 2.077.706 3.142a.981.981 0 0 0 1.163.672c4.247-.998 7.555-3 9.66-5.828.411 3.502 2.275 6.89 5.454 9.878a.978.978 0 0 0 1.343 0c3.179-2.987 5.042-6.375 5.452-9.878 2.106 2.828 5.415 4.83 9.662 5.828a.98.98 0 0 0 1.163-.672c1.259-4.177 1.179-8.043-.218-11.282 1.709.737 3.592 1.109 5.605 1.109 1.8 0 3.704-.297 5.676-.891a.978.978 0 0 0 .672-1.163c-.998-4.246-3-7.554-5.828-9.66 3.502-.41 6.89-2.275 9.877-5.454a.979.979 0 0 0 0-1.343zM49.39 18.63c2.787-1.609 6.28-1.933 10.149-.953-1.086 3.842-3.113 6.706-5.9 8.314-.284.164-.578.316-.879.455a20.825 20.825 0 0 0-4.213-7.275c.274-.194.555-.375.843-.54zm-9.381-6.27c1.61-2.786 4.472-4.814 8.313-5.9.98 3.87.657 7.364-.952 10.15-.166.288-.347.57-.54.844a20.825 20.825 0 0 0-7.276-4.214c.14-.301.29-.595.455-.88zM33.001 2.357c2.784 2.86 4.249 6.047 4.249 9.265 0 .328-.016.658-.046.988A20.833 20.833 0 0 0 33 12.182c-1.44 0-2.846.147-4.204.427-.03-.33-.046-.66-.046-.988 0-3.217 1.466-6.404 4.25-9.265zM17.678 6.46c3.841 1.085 6.704 3.113 8.313 5.9.164.284.316.578.455.88a20.823 20.823 0 0 0-7.275 4.213 10.888 10.888 0 0 1-.54-.843c-1.61-2.787-1.934-6.28-.953-10.15zM6.461 17.677c3.869-.98 7.362-.656 10.149.954.288.166.57.346.843.54a20.826 20.826 0 0 0-4.213 7.275c-.301-.139-.595-.29-.88-.455-2.786-1.608-4.813-4.472-5.899-8.314zM2.355 33c2.86-2.783 6.048-4.249 9.266-4.249.328 0 .658.016.988.046A20.835 20.835 0 0 0 12.182 33c0 1.44.147 2.846.427 4.204-.33.03-.66.046-.988.046-3.217 0-6.405-1.466-9.266-4.25zM16.61 47.37c-2.786 1.609-6.28 1.933-10.15.952 1.086-3.841 3.113-6.704 5.9-8.313.285-.164.579-.316.88-.455a20.824 20.824 0 0 0 4.214 7.275c-.274.194-.556.375-.844.541zM33 63.645c-2.784-2.86-4.25-6.048-4.25-9.266 0-.328.016-.657.046-.987 1.358.28 2.764.426 4.204.426s2.846-.147 4.204-.426c.03.33.046.66.046.987 0 3.218-1.465 6.406-4.25 9.266zm0-11.788c-10.397 0-18.857-8.459-18.857-18.857S22.603 14.143 33 14.143c10.398 0 18.857 8.46 18.857 18.857 0 10.398-8.459 18.857-18.857 18.857zm15.323 7.682c-3.842-1.085-6.705-3.113-8.314-5.899a10.942 10.942 0 0 1-.455-.88 20.824 20.824 0 0 0 7.275-4.213c.194.274.375.556.54.843 1.61 2.787 1.934 6.28.954 10.15zm11.216-11.217c-3.87.981-7.363.657-10.15-.952-.287-.166-.569-.347-.842-.54a20.829 20.829 0 0 0 4.213-7.275c.301.139.595.29.88.454 2.786 1.61 4.814 4.472 5.9 8.313zM54.38 37.25c-.328 0-.658-.016-.987-.046A20.84 20.84 0 0 0 53.818 33c0-1.44-.147-2.846-.426-4.204.33-.03.66-.046.987-.046 3.218 0 6.406 1.466 9.266 4.25-2.861 2.784-6.049 4.25-9.266 4.25z"/><path d="M21.944 30.53a.991.991 0 0 0-1.04-.247.99.99 0 0 0-.65.942.99.99 0 0 0 .605.886c.431.177.93.02 1.19-.362a.99.99 0 0 0-.105-1.22zM27.202 40.502a.99.99 0 0 0-1.168-.034.987.987 0 0 0-.345 1.18.986.986 0 0 0 .953.603.988.988 0 0 0 .89-.694.99.99 0 0 0-.33-1.055zM22.003 35.878a.985.985 0 0 0-.367 1.194.985.985 0 0 0 .905.605c.446 0 .842-.31.95-.742.215-.85-.757-1.532-1.488-1.057zM26.095 29.613a.99.99 0 0 0-.89-.693.985.985 0 0 0-.954.602.99.99 0 0 0 .36 1.192c.75.506 1.743-.244 1.483-1.1zM36.146 39.374c-.284-.807-1.446-.86-1.809-.09a.993.993 0 0 0 .342 1.235.992.992 0 0 0 1.114-.018.99.99 0 0 0 .353-1.127zM32.117 35.63a.992.992 0 0 0-1.054-.407.991.991 0 0 0-.732.807c-.06.395.14.8.487.996.371.21.85.152 1.16-.142a.99.99 0 0 0 .139-1.255zM44.574 33.99a.987.987 0 0 0-1.044-.477.99.99 0 0 0-.772.78.99.99 0 0 0 .588 1.087.994.994 0 0 0 1.162-.32.992.992 0 0 0 .066-1.07zM34.34 42.95a.99.99 0 0 0-1.077-.399.988.988 0 0 0-.717.872.989.989 0 0 0 .516.937c.375.2.854.13 1.154-.172a.99.99 0 0 0 .123-1.237zM26.417 36.319a.99.99 0 0 0-1.167-.034.987.987 0 0 0-.345 1.179.986.986 0 0 0 .905.605c.409 0 .786-.264.923-.65a.99.99 0 0 0-.316-1.1zM38.915 41.774a.991.991 0 0 0-1.1-.394.99.99 0 0 0-.695.89c-.043.834.955 1.33 1.598.809a.989.989 0 0 0 .197-1.305zM24.112 26.456a.99.99 0 0 0-1.19.107.987.987 0 0 0-.257 1.05.988.988 0 0 0 1.114.63c.853-.16 1.058-1.33.333-1.787z"/></g><defs><clipPath id="a"><path fill="#fff" d="M0 0h66v66H0z"/></clipPath></defs></svg>