<svg width="44" height="44" viewBox="0 0 44 44" fill="none" xmlns="http://www.w3.org/2000/svg"><path d="M42.13 9.79c-1.194-2.123-2.489-2.513-5.126-2.662-2.634-.179-9.26-.253-14.998-.253-5.75 0-12.378.074-15.01.25-2.632.152-3.93.54-5.134 2.665C.632 11.91 0 15.562 0 21.992v.022c0 6.402.632 10.081 1.862 12.18 1.204 2.122 2.5 2.508 5.131 2.686 2.635.154 9.262.245 15.013.245 5.739 0 12.364-.09 15-.242 2.638-.179 3.933-.564 5.127-2.687C43.373 32.098 44 28.42 44 22.016v-.013-.009c0-6.432-.627-10.084-1.87-12.204zM16.5 30.25v-16.5L30.25 22 16.5 30.25z" fill="#fff"/></svg>