<svg xmlns="http://www.w3.org/2000/svg" width="152" height="50" viewBox="0 0 152 50">
    <path fill="#EE6C4D" fill-rule="evenodd" d="M11.615 29.664l-.336-.24.192-.144.192.384c.912-.336 2.16-.48 2.16-.816 0-.288-.432-.576-.672-.576-.24 0-.528.192-.816.192a.89.89 0 0 1-.336-.096c.096-.192.24-.624.48-.624 1.728-.288.528-2.16 2.016-2.64.096-.048.24-.192.336-.288-.672-.432-1.056-.24-1.056-.528 0-.144.624-.912.624-1.44v-.48c0-.624 0-1.248.48-1.728.144.192.288.24.288.576 0 .144-.048.336-.096.48 0 .096.048.144.096.24.336-.336.48-.672.48-1.104 0-1.056-1.2-1.056-1.2-1.872 0-.096.048-.144.048-.24 0-.336-.384-.72-.384-1.056 0-.816 1.584-.576 1.584-1.584-.24.48-.816.48-.96.48-.48 0-1.056-1.392-1.056-2.448 0-.336.096-.672.096-1.008 0-1.44-.288-1.872-1.776-2.112-.576 1.488-1.392.528-1.68 1.344-.288.864-1.296.672-1.488 1.152-.768 1.392-2.256 1.92-2.928 3.408-.432.912-.528 1.68-1.296 1.632-1.008-.048-.624-.528-1.104-1.488-.096-.288-.288-.72-.288-.96 0-.48.672-.48 1.2-.72.528-1.248.672-2.592 1.92-3.408.576-.384 1.104-1.104 1.92-1.104h.24c.336 0 1.104-.24 1.344-.336-.576-.288-1.2-.48-1.2-.816 0-.288.96-.528 1.296-.528.24.048.576.192.816.192.528 0 .576-1.632 1.008-1.872.912-.48 2.784-1.584 3.552-1.584.672 0 .96.528 1.392.528.096 0 .24 0 .384-.048.336 0 1.248.48 1.248.72 0 .288-.24.816-.48 1.056-.768 1.008-1.488 3.072-1.488 4.032 0 .336.144.528.432.528h.24c.576 0 .528.48.528.96.24-.048.432-.096.576-.096.288 0 .432.144.432.384 0 .768-.672 1.728-.672 1.92 0 .336.768.24.768.384 0 .096-.048.192-.048.24 0 .768.864 1.248.864 1.872 0 .144-.096.336-.384.336-.144-.048-.24-.192-.384-.192-.144 0-.336.048-.48.096.288.816 1.152.912 1.152 1.344 0 .192-.864.72-.864 1.008 0 .24.672.672.672 1.152 0 .288-.336.672-.336 1.008 0 .336.192.768.192 1.104-.048.24-.144.432-.288.432s-.384-.24-.576-.24c-.096 0-.144.144-.144.24 0 .288.288.528.336.768 0 .192-.192.384-.288.576h.048c0 .096.048.24.048.336 0 .672-1.344 2.4-1.2 2.352-.288.144-.96.144-.96.48 0 .192.096.48.096.672 0 .384-2.112 1.2-2.112 1.632-.432 1.92-.432 1.92-2.304 2.208 0-.096.048-.192.048-.336-.384.192-.96 2.88-2.16 2.88a40.12 40.12 0 0 1-1.68.144c-.288 0-.576-.24-.72-.48 0 .336.48.336.48.528 0 .144-.048.336-.048.48 0 .144.048.24.24.24s.528-.144.864-.144c.768 0 1.968.24 1.968 1.152 0 .144-.048.288-.048.432l.384-.48c.432-.864 1.344-.864 2.016-1.2.384 0 .48.72.864.72s.912-.432 1.344-.432c.624 0 .432 1.872.768 1.872.144 0 .336-.672.768-.672.288 0 .672.192.864.192.192 0 .336-.144.624-.576.144-.288.384-.528.624-.528.432 0 .864 1.2 1.056 1.2.192 0 .576-1.056 1.248-1.056 2.448 0 6.432.672 6.432 2.352 0 .432-.384.864-1.152 1.344-.144.384-.384.576-.768.672-.288.288-.432.432-.576.432-.336 0-1.392-2.016-1.536-2.016 0 0-.144.144-.144.24.048.288.192.576.192.912 0 .432-.288.768-.672.768-.432 0-.816-.24-.816-.624 0-.336.192-.672.192-1.008 0-.048-.048-.144-.144-.192-.096 0-.288.048-.288.096-.048.72-1.152.768-1.152 1.536v.144c0 .048-.144.144-.192.24-.48-.48-1.056-1.584-1.632-1.584-.24 0-.528.336-.72.336-.336 0-.672-.24-.96-.288-.192 1.056-.24 1.008-1.584 1.44-.192.096-.336.096-.48.096-.288 0-.336-.192-.384-.72 0-.864.432-.192.72-.768a.995.995 0 0 0-.288-.096c-.432 0-.672 1.488-1.104 1.488-.384 0-1.488-1.344-1.488-1.488 0-.48.528-.72.528-.912 0 0-.048-.192-.144-.192-1.056 0-.48 2.16-2.304 2.16-.672 0-.672-.144-.768-.96-.432.336-.768.816-.912.816-.288 0-.384-.192-.384-.432 0-.192.096-.384.096-.528 0-.096-.336-.336-.48-.384-.576 0-.576 1.104-1.2 1.104-.432 0-.48-1.056-.624-1.632L4.03 40.992c-.48.192-.768.288-.912.288-.432 0-.864-1.2-1.152-1.968-.048-.288-.144-.576-.144-.912 0-.48.192-1.008.624-1.296.72-.48-.288-1.2 1.44-1.2.96 0 2.016.912 2.16.912.144 0 .624-.432 1.008-1.2a1.272 1.272 0 0 1-.144-.48c0-.768 2.064-1.968 3.024-2.112.144 0 .24.192.336.192.096 0 .384-.528.384-.816 0-.096-.192-.24-.288-.336l-.336.336-.144-.192.384-.288c-.288-.288-.48-.48-.48-.864 0-.72 1.296-.624 1.824-1.392zM1.295 40.56c.192.288.432.576.624.912 0 .288-.288.384-.48.384-.384 0-.624-.336-.624-.672 0-.288-.144-.384.48-.624zm18.72 2.16c-.24.192-.48.336-.576.336-.144 0-.336-.432-.384-.576 0-.048.384-.336.48-.336.192.096.288.336.48.576zm-2.496-21.312c-.528.384-.912.816-1.248 1.248.576-.288 1.056-.288 1.248-1.248zM3.839 39.84c-.192-.192-.288-.384-.384-.528-.144.096-.384.24-.384.288.048.192.192.384.288.528.048 0 .24-.144.48-.288zm3.264-6.144c-.144.144-.144.288-.336.288a.367.367 0 0 1-.24-.096c.144-.144.288-.24.528-.24.096-.144.144-.432.288-.432.096 0 .24.048.336.048-.24.48-.288.336-.576.432zM14.639 7.68l.144.336a2.81 2.81 0 0 0-.096.624c.144 0 .336-.048.528-.048-.144-.384-.432-.624-.576-.912zm-2.064 23.04a2.275 2.275 0 0 0-.48.48l.24.24c.096-.096.336-.336.336-.528 0-.048-.048-.096-.096-.192zm3.264-12.048c0 .048.048.096.096.144-.144-.24 0-.432-.288-.768-.048.144-.144.24-.144.336 0 .144.24.24.336.288zM10.415 39.84a.98.98 0 0 1 .24.24c.144-.096.24-.24.336-.336-.048-.048-.144-.144-.192-.144-.144.048-.24.144-.384.24zm5.424-16.512l-.432.192c.048.048.096.096.096.144.288-.144.48-.576.72-.912-.144.192-.288.384-.384.576zm10.464 17.664c-.048.048-.096.192-.096.192.096.096.192.096.288.144-.048-.096-.048-.336-.192-.336zm-13.248.96a.103.103 0 0 1-.096.096c0-.048-.048-.048-.048-.096.048-.048.096-.048.096-.096.048.048.048.096.048.096zm.672-33.792h-.288c.048 0 .096.048.144.048.048 0 .096-.048.144-.048zm-5.52 32.784l-.048.096-.048-.096h.096zm-6.24-1.632v.048l-.24.144.24-.192zM14.453 7.255c.014.061.052.1.09.137v-.048a.449.449 0 0 1-.085-.102l-.005.013zm-4.326 33.641c-.048.048-.096.048-.096.096 0-.048.048-.048.096-.096zm19.186-29.952l.192.192c.144.336.432.768.816.768.576 0 .864-1.104 1.584-1.104.144 0 .384.048.576.048.864 0 .96-1.296 2.064-1.632.624-.096 1.344-.576 1.92-.576h.288l-.336.864h.24c.528 0 1.536-.96 1.536-.96 0-.192-.288-.24-.288-.48s0-.528.432-.528c1.296 0 1.728 1.296 2.064 1.296.96 0 1.104-3.504 2.784-3.504.96 0 1.344 1.248 1.344 1.728 0 .768-.528.72-1.488 1.344.144.048.384.096.384.288 0 .144-.096.384-.096.48 0 .096.048.096.096.096s.528-.336.816-.336c.144 0 .24.096.24.336 0 .048-.048.144-.048.192 0 .576.672.96.672 1.536 0 1.104-1.44 2.88-1.44 3.792 0 .24.192.528.192.768 0 .096-.048.144-.048.144-1.296 1.008-.432 3.504-1.392 3.84-.336.144-.912.24-.912.768s.24 1.056.24 1.632c-.096.528-.192.768-.48.768-.192 0-.384-.144-.672-.144-.24 0-.24.192-.24.336 0 .384.864.384.864.96 0 1.68-1.584 2.208-1.584 2.4 0 .144.048.192.336.192 1.2 0 2.64-.528 3.696-.528.864 0 1.968 1.056 1.968 1.488-.192.528-.72.48-1.152.48-.336 0-.624-.048-.912-.144-.24 1.152-4.56.384-4.704 2.544-.048.912-.48 1.92-.48 2.784v.336c0 2.544-1.2 5.04-1.488 7.344-.096.672-1.872 1.104-2.208 1.104-.144 0-.288-.384-.288-.768s.24-.48.912-.912c-.144-.048-.24-.144-.336-.144-.672 0-1.392.288-1.968.288-.336 0-.528-.144-.528-.336 0-.24.432-.768.432-1.152 0-.432-.192-.96-.192-1.392 0-.672 1.008-.816 1.008-1.296 0-.864-.528-2.16-.528-2.928 0-.816.96-1.488.96-2.4 0-.48-.336-.816-.72-.816-.528 0-1.008.336-1.44.336-.816 0-1.344-.336-1.968-.96 1.584-1.248 4.416-1.008 4.512-2.448 0-.432.72-.864.72-1.392 0-.192-.048-.336-.048-.528 0-.816.576-2.016.864-2.88.288-.96.912-3.168 1.008-3.264.624-.624.864-1.296.864-2.016v-.432c0-.096.24-.24.336-.384 0-.528.336-.816.816-1.008-.048-.864-.048-1.776-.048-2.736 0-.24.288-.432.288-.672 0-.096 0-.192-.144-.24-.192 0-.912 1.008-1.2 1.152-.864.336-2.352 1.008-3.168 1.008-.384 0-.48-.336-.672-.768-.048.048-.144.144-.144.24 0 .576-.336.912-.816.96-1.248 0-3.408.912-3.408 1.344 0 1.2 1.296 1.584 1.296 2.448 0 .384-.144.864-.144 1.248 0 .192.048.336.048.528 0 .672-1.008.576-1.008.912 0 .192.576.48.576.864 0 .144 0 .24-.048.384.288-.192.816-.672 1.056-.672.048 0 .24.096.24.24 0 1.488-2.16 2.16-3.12 2.16-.336 0-.528-.144-.528-.48 0-.192.048-.384.048-.48 0-.096 0-.096-.048-.096-.096 0-.816.576-1.104.576-1.008 0-.24-2.688-1.056-3.168-.096-.048-.144-.144-.144-.288 0-.24.096-.528.096-.768 0-1.632-.816-3.072-.816-4.656 0-1.008 1.44-3.552 1.728-3.552.192 0 .672.624 1.152.624.288 0 1.056-.144 1.296-.192zm.192.192l-.192-.192c0-.096.096-.24.096-.336 0-.288-.432 0-.432-.672 0-.336.432-.528.72-.528.24.048.432.336.432.528-.048.432.048 1.008-.624 1.2zm3.36 30.528c-.144-.24-.288-.384-.288-.528 0-.144.288-.24.432-.384.096.192.192.336.24.528 0 .048-.192.192-.384.384zm1.776-5.76l.192.24.576-.288-.096-.24c-.24 0-.624.144-.672.288zm-.048-24.912c-.144-.144-.24-.288-.336-.288-.096 0-.24.144-.336.288.096.144.144.24.288.24.096 0 .192-.096.384-.24zm-6.672 1.488a1.705 1.705 0 0 0-.48-.096c-.048 0-.096.144-.144.24l.48.24c0-.096.048-.144.144-.384zM43.57 26.928c-.048.048-.144.144-.144.192 0 .192.048.336.096.48.048-.192.048-.432.048-.672zm-7.584 9.84l-.48.096v.144c.192-.048.48-.096.48-.24zm-1.872 1.296l-.144-.192-.192.24c.096 0 .144.048.24.048.048 0 .096-.096.096-.096zM26.53 15.408l-.096-.288c-.192 0-.144.192-.144.288h.24zm9.456 27.072l.24-.144c0 .048.048.096.048.096l-.24.144s-.048-.048-.048-.096zm-9.648-28.416l.096-.096c-.048-.048-.048-.096-.096-.096s-.096.048-.144.048l.144.144zm2.64-.48v-.144c-.096 0-.192-.048-.144.096.048.048.096.048.144.048zm-1.872-4.416c-.048 0-.096-.048-.144-.048 0 .048-.048.096-.048.096a.149.149 0 0 0 .096.048c.048 0 .048-.047.094-.094l.002-.002zm0 0l-.002.002.002-.002zm14.4.72c-.048 0-.096.048-.144.048l.192.096c-.048-.048-.048-.096-.048-.144zm1.824-2.544l.096-.096v-.144l-.096.24zm23.842 9.752v-.008.008zm0-.008c-.048.144-.144.288-.144.432 0 .096.096.192.144.288-.192 1.152-.048 1.632-.816 1.632h-.288c-.192 0-.432.048-.624.048-.096 0-.192-.048-.288-.048-.576 0-.528.528-.72 1.344l.672-.336v.048c.288.048.48.192.48.384 0 .624-1.056.72-1.248 1.536-.144.672-.24.864-.624.864-.24 0-.624-.144-.96-.144 0-.24.048-.432.096-.672-.144.144-.24.24-.24.384 0 .096.048.192.144.288-.144.672-.384 1.68-.864 1.68-.24 0-.72-.192-.72-.816a.103.103 0 0 0-.096.096l.192.384c-1.68.336-1.872 1.392-1.872 2.352 0 .144.096.192.192.192.576 0 .144-1.392.864-1.392.24 0 .624.912.624 1.152 0 .816-.384 1.584-1.248 1.824-.816.192-2.448 2.208-2.448 2.352 0 .768 1.008.72 1.008 1.296 0 .24-.048.576-.384.576-.432 0-.336-.24-.672-.24-.192 0-.384-.048-.384.288.24.336.336.672.336 1.008 0 .864-.768 2.688-1.392 2.688-.432 0-.912-.192-1.344-.24-.096 0-.288.144-.288.24 0 .048.048.144.096.144.624.384.816 1.056.864 1.728-.816.096-1.584.288-2.352.288-.528 0-1.152.096-1.152 1.392.288-.288.48-.624 1.152-.624.288 0 1.056 1.248 1.056 1.824 0 .336-.144.96-.528.96-.144 0-.288-.096-.432-.096-.288 0-.576.096-.816.096-.192 0-.384-.192-.528-.192-.192 0-.24.144-.24.288 0 .384 1.152.288 1.152.96 0 .72-.768.72-1.392.816.48.384 2.064.432 2.064.816 0 .912-1.344 2.976-1.584 2.976-.192 0-.672-.432-.96-.432.096 0-.96.768-.96 1.2 0 .096.048.192.144.336-.048.048-.144.288-.336.288-.48 0-.48-1.584-1.344-2.112-.48-.288-.72-.864-.72-1.488 0-.768.144-.912 1.008-1.632-.48-.528-.96-1.152-.96-1.68 0-1.44.96-3.072 1.968-4.032.192-.192.288-.336.288-.528 0-.288-.624-.576-.624-1.008 0-.72 3.312-5.472 3.504-5.712.096-.144.24-.24.336-.24.192 0 .528.336.672.576.288-.864-.192-3.024 1.2-3.024h.192c-.096.336-.336.864-.336 1.2 0 .048.048.096.048.096.336 0 1.344-1.2 1.968-1.728-.096-.048-.192-.096-.288-.096-.432 0-.768.576-1.2.576-.096 0-.144 0-.192-.048 0-.912.096-1.776 1.104-2.304.192-.096.432-.384.432-.528v-.144c0-1.2 1.584-1.296 1.824-2.64.144-.768.72-1.056 1.392-1.392 0 0 .144.24.192.336.576-.192.768-.528.768-.96 0-.192-.096-.432-.096-.672 0-.96 2.448-1.056 2.448-2.16 0-.24-.192-.72-.192-1.008 0-.432 1.2-1.632 1.488-1.632.24 0 .432.336.528.336.288 0 .096-2.544 1.728-3.216.048 0 .192-.144.192-.24.144-2.304 3.312-3.792 4.128-6.672.528-1.968 4.08-4.992 5.28-4.992.336 0 .816.144.816.48 0 1.392-2.064 4.656-2.304 5.04-.096.192-.288.384-.288.528v.24c0 .672-1.392 1.008-1.824 1.44.288.192.864.24.864.528 0 .192-.288 1.008-.624 1.296-1.824 1.392-1.728 4.512-3.552 4.608-.432 0-1.008.48-1.008.72 0 .288.672.576.672.912 0 .432-1.248 1.056-1.824 1.44 0-.096.048-.24.048-.336 0-.141-.046-.236-.048-.376v-.008zm3.024 14.016c0-.144-.048-.288-.048-.48 0-.24.144-.48.336-.48.336 0 .96.432 1.392.672 0-.24.336-1.44.576-1.44.24 0 .768.72.768 1.488 0 .144-.048.288-.048.432 0 .816 1.296 1.392 1.296 2.592 0 1.296-1.824 3.168-1.824 3.6 0 .336.432.912.432 1.104 0 .48-1.008.24-1.392.72-.768.96-2.016 1.392-2.592 2.592-.384.816-1.2.336-1.824 1.008-.288.24-.576.432-.816.432-.144 0-1.68-1.008-2.592-1.344-.96-.336-1.392-.96-1.584-1.872-.192-.336-1.824-3.024-1.824-3.024 0-.528 1.008-1.152 1.008-1.392s-.528-1.104-.528-1.296c0-.432 1.776-2.208 2.4-2.208.672 0 1.488 1.056 2.352 1.056.384 0 .864.048 1.056-.48 0-.048-.096-.144-.192-.144-.192 0-.336.096-.528.096-.768 0-2.016-1.056-2.016-1.392 0-.24.336-.48.576-.48.768 0 1.2.528 1.824.528.672 0 1.776-.864 2.112-.864.192 0 .336.192.672.624-.576.432-1.056.912-1.056 1.488 0 .192.144.432.144.624 0 .288-.24.72-.48.72-.192 0-.384-.288-.528-.288-.528 0-.528 1.824-1.104 2.016-.576 0-.432-1.2-1.248-1.2-.288 0-.576.144-.768.288.48.48.768.48.768.864 0 .72-.528 1.152-1.056 1.152h-.24c-.384 0-.864.096-1.008.432 0 .048.144.192.192.192h.24c.864 0 .816.816 1.872 1.248.576.24 1.584.096 1.584.72 0 .144-.096.288-.096.432 0 .096.096.144.336.144.816-.048 1.392-.672 2.112-.96 1.296-.528 1.968-1.44 1.968-2.64 0-.576-.144-1.152-.144-1.68 0-.816.48-1.68.48-2.256 0-.576-.336-1.008-.96-1.296 0 .336.048.672.048 1.008 0 .48-.336 1.392-.96 1.392-.336 0-.624-.576-.624-.96s.288-.912.528-1.44c.336 0 .672-.048 1.008-.048zM52.291 15.456v.384c0 .624-.48 1.056-1.248 1.056-1.104 0-2.112-1.728-2.112-2.352 0-.672.384-1.92.816-1.92.144 0 .384.144.576.144.576 0 1.152-1.104 1.152-1.536 0-1.344 1.728-2.304 2.304-2.304.144.048.288.048.384.048.24 0 .384-.048.384-.192 0-.144-.24-.288-.24-.528 0-.336.48-.72.816-.72.336 0 .528.192.768.192.336 0 .96-.624 1.536-.624.816 0 1.632.672 2.64.672.48 0 .672.096.672.384 0 .336-.144.864-.144 1.2 0 .72.864 1.104.864 1.536 0 .336-.384.816-.72.912-2.112 1.2-1.104 4.704-3.312 4.704-.624 0-.192-.864-.816-1.056h-.048c.192.336.384.672.528 1.008-.144.528-.336 1.248-.72 1.248-.432 0-.624-.768-1.104-.768-.384 0-1.104.576-1.44.576-.72 0-1.152-1.248-1.536-2.064zm4.416-2.976h.96a4.925 4.925 0 0 1-.192-1.296c0-.672.24-1.248 1.2-1.632.192-.048.24-.192.24-.384 0-.288-.288-.432-.72-.432-1.296 0-1.68 1.824-1.68 2.784 0 .336.048.672.192.96-.336.192-.432.816-.864.816-.48 0-.624-.432-.624-.72 0-.24.048-.48.048-.624 0-.144-.24-.24-.384-.288-1.056 0-1.344 1.44-2.4 1.536 0 0-.048.336-.048.432.384.768.624 1.344 1.152 1.344.576 0 1.392-.624 2.208-1.056.864-.432.864-.432.912-1.44zM47.3 43.344c.096.144.192.24.192.384 0 .96-.72 2.448-1.056 2.448-.192 0-.24-.096-.24-.24 0-.816.528-2.16 1.104-2.592zm13.008-29.328l.432.768c-.24.096-.432.24-.528.24-.288-.048-.432-.24-.432-.48 0-.288.336-.48.528-.528zm-6.576 18.768c-.432.144-.912.432-.816.672.24.096.432.192.672.24.144 0 .192-.384.192-.432 0-.144 0-.288-.048-.48zm5.712-1.92c-.288.24-.48.48-.624.48-.144-.048-.24-.288-.288-.48 0-.048.24-.288.336-.288.144 0 .288.144.576.288zm-5.04 4.416c-.24-.048-.432-.048-.576-.048-.192 0-.288.096-.384.288.096.048.192.096.288.096.192 0 .336-.096.672-.336zm-3.6 5.232l.912-.384c-.384.048-.864.048-1.056.24.048.048.096.144.144.144zm11.136-19.2c0-.144-.048-.288-.288-.384l.192.912c0-.192.096-.384.096-.528zm-13.056 23.52c.048 0 .096-.048.192-.096a3.824 3.824 0 0 1-.624-.624c.096.192.432.72.432.72zM55.94 31.44l-.288-.288s-.096.144-.144.192c.096.096.192.192.288.24.048 0 .096-.048.144-.144zm6.96 4.368c0-.192 0-.624-.192-.624 0 .096-.048.192-.048.288 0 .144.192.24.24.336zm-11.088 1.104h.432c-.048-.144-.048-.24-.096-.288-.24 0-.192 0-.336.288zm10.704 3.264c.096 0 .24-.192.288-.336-.192.096-.192-.048-.528.288.048 0 .192.048.24.048zm7.008-26.784c-.048-.048-.096-.144-.192-.192 0 0-.096.048-.096.096 0 .096.048.192.096.288.048-.048.144-.096.192-.192zM54.74 10.128c-.096.048-.24.144-.24.24s.144.048.336.048c-.048-.096-.096-.192-.096-.288zm4.752 19.392v.384c-.048 0-.144-.048-.192-.048.048-.096.144-.192.192-.336zm.816-16.176l-.144-.144c0-.048.048-.096.096-.096l.144.144-.096.096zM48.93 42.145l.001-.001v.001zm.865 1.247v.144l.192-.096-.048-.096c-.048 0-.096.048-.144.048zM71.971 5.376c-.048-.048-.096-.048-.096-.048s-.096.048-.096.096c.048.048.048.096.096.096 0 0 .048-.096.096-.144zM57.14 10.848c-.048 0-.096-.048-.096-.048 0-.096 0-.096.144-.096 0 .048-.048.096-.048.144zM53.3 37.68v-.144h-.144l.144.144zm1.92.816l.048-.048c.048.048.144.048.24.096-.096 0-.192-.048-.288-.048zm9.876-18.24a.584.584 0 0 1 .012.144c-.024-.048-.048-.096-.066-.144h.054zm0 0a.302.302 0 0 0-.084-.144c0 .048.012.096.03.144h.054zm-5.55 9.144zm0 0c-.006.024-.006.048-.006.072 0-.024 0-.048.006-.072zm-4.278 9.048l-.048.048v-.048h.048zm13.944-7.302c.012-.006.024-.018.024-.042-.024 0-.036.012-.042.024l.018.018zm0 0c-.012.006-.024.006-.024.006s0-.012.006-.024l.018.018zm33.159-4.547l.006-.007-.006.007zm.006-.007c-.12.072-.216.12-.312.12.144.144.36.336.504.336.816 0 1.224 1.032 1.224 1.704 0 .72-.384 1.152-.624 1.992v.024c0 .096.096.24.168.24.048 0 .12-.024.168-.024.168.072.336.048.336.216 0 .456-1.128.264-1.128.576 0 .072.024.144.072.168.552.072.768.888.768 1.248 0 .384-.36.432-.624.528.048-.144.144-.264.168-.384 0-.096-.144-.216-.24-.216-.144 0-.144.096-.144.192 0 .552.912.768.912.96 0 .12-.36.72-.72.768.12.168.288.312.288.504 0 .12-.048.24-.216.384-.024.384-.192.816-.192 1.2 0 .36.384.696.384.888 0 .12-.168.288-.168.432 0 .192.432.144.432.384 0 .12-.192.288-.192.48 0 .072.024.168.048.168.336.192.312.768.312 1.032 0 .336-.384.432-.456.696-.168.696-1.08 1.032-1.608 1.032-.288 0-.84-.144-.84-.384 0-.096.072-.216.072-.36v-.024c-.696-.072-.168-.912-.6-1.152 0-.288-.024-.576-.024-.864 0-.792.072-1.248.816-1.248.096.144.288.48.432.48.144-.072.12-.552.12-.792 0-.024-.096-.048-.144-.048-.096 0-.336.288-.408.36 0-.216.024-.384-.264-.384h-.096c-.384 0-.288-.648-.288-1.008.048-.168.504-.168.504-.336 0-.12-.384-.192-.384-.456 0-1.392.024-2.76.144-4.128.024-.408.096-.792.096-1.2 0-.48-.216-.72-.96-.72-.048 0-.936.648-1.176 1.056.216.12.648.264.648.456 0 .144-.168.24-.36.24-.432 0-.312-.384-.336-.672-.96.528-1.032.744-1.152 1.32.12.048.624.264.624.336 0 .408-.696.288-.816.936-.024.216-.168.336-.384.408l.096.48-.432.672c-.84.288-1.128 1.464-1.968 1.464-.72 0-1.896-1.08-1.896-1.704 0-.144.096-.36.096-.504 0-.072-.024-.12-.12-.12-.048 0-.144.048-.216.048-.192 0-.432-.24-.456-.432-.192-.672-1.152-1.92-1.248-1.92-.072 0-.144.024-.192.024-.168 0-.192-.36-.24-.48-.048.048-.504.648-.504.936 0 .744.288 1.368.288 1.344 0 .24-.216.456-.216.648.024.264.192.504.192.768 0 .12-.216.312-.216.456 0 .12.216.288.216.432 0 .48-.312.936-.552 1.176 0 .048.024.096.024.144.168 0 .24-.288.288-.432.432.312.312.672.312 1.104 0 .36-.048.72-.048 1.08 0 .288.144.528.144.864 0 .408-.048.912-.456.912-.12 0-.312-.12-.408-.12-.264 0-.024.36-.528.48a.445.445 0 0 1-.048-.168c0-.312.408-.768.552-.96l-.912.36c-.096-.072-.12-.168-.12-.264 0-.216.12-.456.12-.672-.024-.216-.048-.288-.216-.288-.12 0-.168.048-.264.096.144.288.264.384.264.576 0 .24-.48.6-.48.744 0 .12.432.024.432.24 0 .336-.408.456-.648.456-.144 0-.384-.264-.384-.504 0-.264.192-.696.192-1.032.024-.264.192-.648.192-.888 0-.144-.048-.312-.048-.456 0-.144.048-.24.216-.24h.168c.36 0 .648-.408.864-.648-.048-.048-.072-.072-.096-.072-.264 0-.84.336-1.224.432-.096 0-.264-.144-.264-.216.024-.096.024-.216.024-.336v-.288c0-.288.288-.576.288-.864 0-.216-.072-.408-.072-.648 0-.432.096-1.32.168-1.392.072-.12.648-.048.648-.312 0-.072-.024-.072-.048-.072-.048 0-.12.072-.168.072-.288-.024-.408-.096-.408-.288 0-.288.096-.552.096-.816v-.336c0-.528.168-.84.6-1.272l-.096.072c-.192-.072-.264-.192-.264-.36 0-.36.192-.696.192-1.056v-.288c0-.312.24-.648.24-.96 0-.24-.168-.456-.168-.696 0-.36 1.272-2.184 1.656-2.184.312 0 .504 1.584.72 1.584.24 0 .552-.024.84-.048.072.264.144.672.384.672.12 0 .216-.096.312-.096.504 0 .24.84.6 1.104.216.144.288.288.288.48 0 .144-.048.312-.144.504.336.12.24.312.288.528.144-.048.264-.144.408-.192.36 0 .336.96.48 1.056.384.192.36.6.456.936.048-.168.024-.456.312-.456.048 0 .12.072.12.12 0 .24-.216.288-.408.36.216.144.552.384.672.384.072 0 1.128-2.016 1.752-2.736.216-.264.576-.336.696-.792.072-.288.84-1.008.96-1.128.528-.48 1.056-1.68 1.224-1.68.072 0 .216.12.264.12.072 0 .096-.072.096-.168 0-.096-.072-.24-.072-.36 0-.336.864-.504.912-.528.072.024.072.12.072.264 0 .432-.456.624-.456.864 0 .144.072.216.144.312.048-.144 0-.288.168-.36.72-.312.984-2.04 1.656-2.04.12 0 .12.072.12.12 0 .168-.288.36-.288.576v.312c.192-.096.36-.168.48-.168.096 0 .144.048.144.144 0 .36-.168.696-.36.912l.168-.096v.192c0 .216-.096.288-.456.336 0-.047 0-.14.114-.28l.006-.008zm-3.768 5.544c-.168.12-.264.216-.36.24-.24 0-.456-.072-.456-.36 0-.168.096-.216.192-.216.168 0 .384.168.624.336zm4.344-4.416c-.312 0-.384.408-.432.648 0 .024.168.072.216.072.144 0 .36-.528.36-.504 0-.072-.096-.144-.144-.216zm-.84 8.712c0-.168.024-.552-.12-.552-.24 0-.168.576-.168.816 0 .024.024.048.048.048.12-.048.192-.192.24-.312zm-2.568-7.296c.048-.096.144-.288.192-.48a.699.699 0 0 0-.048-.192c-.216.048-.336.072-.336.288a.43.43 0 0 0 .192.384zm.24-1.68c-.048-.048-.096-.12-.12-.12-.24 0-.336.288-.36.432 0 .048.072.096.12.168.168-.168.216-.264.36-.48zm-1.944 6.096c-.072.12-.168.336-.24.336-.168 0-.168-.12-.168-.216 0-.168.096-.24.24-.336.048.072.096.144.168.216zm5.064-3.576c.072-.168.144-.264.144-.336 0-.024-.048-.072-.072-.12-.048.048-.216.144-.216.24 0 .024.072.12.144.216zm.192-5.424l.096.264c0 .048-.048.096-.096.144-.048-.048-.144-.096-.144-.12.024-.096.096-.192.144-.288zm-2.736 4.824c.072.024.12.096.168.096.072-.024.12-.12.168-.168-.072-.048-.096-.072-.12-.072-.071 0-.142.094-.213.142l-.003.002zm1.656 10.032c-.048-.048-.12-.096-.12-.096l-.192.168c.048.048.096.096.12.096.072 0 .144-.12.192-.168zm-8.112-5.76l-.144-.216c-.072.072-.12.144-.12.144l.168.144s.072-.048.096-.072zm3.12 1.392l.072.144c-.072.024-.12.072-.192.072-.024 0-.072-.096-.072-.096.072-.048.12-.096.192-.12zm-2.706.189c-.012.069-.006.111-.006.219a.705.705 0 0 0 .078-.237l-.072.018zm.306-1.581l.168-.144c0-.048 0-.072-.024-.096l-.216.144.072.096zm7.2-3.768l.288.336c-.024-.192-.096-.288-.288-.336zm-8.688 1.824l-.096-.144c-.072.048-.12.048-.168.072.072.024.192.12.216.12.024 0 .024-.024.048-.048zm9.24 6.168l.072-.12c-.024-.024-.048-.072-.096-.096-.024.048-.072.096-.072.12 0 .024.048.072.096.096zm-2.688-7.416l.072.12c-.048.024-.096.024-.144.024-.024 0-.024 0-.024-.024s.048-.072.096-.12zM103 34.512l-.144.072s-.024.024-.024.048H103v-.12zm-11.712-7.128l.192-.096v.12c-.072-.024-.144-.024-.192-.024zm4.078 7.221l.002.003-.002-.003zm-.046-1.389l.072.072.048-.048-.072-.096c0 .024-.024.048-.048.072zm6.408.672l-.168-.288c0 .072.072.168.168.288zm.936 1.824v-.072l-.096.048c0 .024.024.048.024.048.024 0 .048-.024.072-.024zm-.48-4.2c0-.024.024-.072.024-.072 0-.024-.048-.024-.072-.024 0 .072-.024.048.048.096zm.48 3.456l.216.072c-.072-.024-.12-.072-.168-.096 0 0-.024.024-.048.024zm-11.376-5.544a.182.182 0 0 0 .096-.048c-.024 0-.048-.024-.048-.024-.024.024-.048.048-.048.072zm10.581 4.62a.585.585 0 0 1 .051.108.481.481 0 0 0-.051-.126v.018zm-12.477-8.556v-.048l.048.024-.048.024zm7.464 7.032l-.048.024-.024.024.072-.048zm0 2.04v-.024l.024.048-.024-.024zm21.49-2.208l-.192.192c-.048-.072-.12-.12-.12-.192 0-.072.072-.168.096-.24.072.072.12.144.216.24zm-1.296-7.704c.024-.072.048-.168.072-.192.12-.048.24-.096.36-.12.024 0 .048.168.048.168-.096.072-.216.168-.336.24h-.072c-.024-.048-.048-.072-.072-.096zm-6.408 16.548a.414.414 0 0 0 .024.06c-.024.24-.144.408-.336.456a6.511 6.511 0 0 1-.984.096c-.072 0-.096-.192-.168-.264-.072-.072-.192-.168-.24-.12-.384.24-.432-.024-.432-.384 0-.168.024-.336 0-.504-.024-.216-.192-.264-.408-.096-.312.24-.48.24-.624 0-.144-.216-.12-.672-.528-.504-.024 0-.096-.168-.072-.24.024-.432.048-.768-.384-.888-.312-.072-.36-.6-.384-.984-.072-.84-.12-1.656-.168-2.496-.024-.816.024-1.656.432-2.4.288-.552.288-1.032.216-1.536-.024-.336-.048-.576.312-.744.288-.12.216-.528.288-.816.048-.192.168-.312.312-.24.336.144.384-.096.408-.408 0-.144-.024-.264-.024-.408.024-.072.072-.216.144-.24.048-.024.144 0 .216.048.048.024.048.096.096.12a.648.648 0 0 0 .264.12c0-.096 0-.24-.024-.312-.216-.432-.216-.672.096-.96.192-.192.456-.288.672-.408l.012.024-.012-.024c.024-.24.024-.456.024-.696.048-.336.24-.36.432-.336l.003.002c.12-.844.266-.959.837-.602.192.144.264.12.336-.12.12-.288.24-.504.504-.552.12-.024.264-.072.312-.168.168-.36.264-.744.72-.744.312.024.648-.144.96-.312.36-.168.648-.048.96-.024 1.08.024 1.704.744 2.232 1.704l.024.024c-.096.168-.216.36-.264.528-.024.096.048.216.096.312.072-.024.168-.072.192-.12.096-.216.144-.456.24-.672.048-.048.072-.096.12-.12.12-.216.24-.408.48-.312.12.048.24.072.384.072.36-.048.36-.048.216.36-.216.528-.168.744.216 1.056.336.264.336.264 0 .648-.024.048-.096.096-.12.144-.12.168-.168.312.048.36.264.024.336.216.144.48-.216.264-.144.456-.048.72.072.168.144.48.048.624-.216.456-.192.864-.24 1.296-.024.576-.168 1.104-.624 1.464-.312.24-.336.528-.216.864.096.312 0 .768.312.936.024.024.072.144.048.168-.288.504-.024 1.152-.48 1.608a2.183 2.183 0 0 0-.6 1.848c.096.696-.24 1.128-.456 1.632-.024.072-.168.12-.216.096-.384-.264-.528.336-.792.432-.024.024-.048.264-.024.384.048.288 0 .504-.288.624-.144.024-.264.168-.384.24-.072.024-.216.024-.24-.024-.264-.816-.24-.048-.336.144-.048.168-.072.36-.168.48-.12.144-.288.24-.432.36-.048-.144-.144-.312-.192-.48-.024-.168 0-.384-.024-.576-.024-.072-.12-.168-.168-.144-.048.024-.144.144-.144.216-.048.12-.024.264-.024.384.096.576.048.72-.36.768-.288.048-.504.072-.72.408-.072.12-.312.12-.48.12-.144-.024-.288-.12-.432-.168-.384-.096-.408-.144-.192-.552.144-.264.168-.456.096-.672a.178.178 0 0 0-.015-.069l-.009.009zm-.82-15.067c.111.09.202.18.292.271.048-.096.12-.192.096-.24-.091-.229-.248-.087-.387-.031zm-.464 1.039l.012.024-.012-.024zm-2.256 10.356c-.012-.018-.024-.036-.036-.06a.25.25 0 0 1 .036.051v.009zm10.172-6.76l.04-.02a.34.34 0 0 0-.023.013l-.017.008zm-.096.07c-.894-.31-.775-.647-.68-1.53l.072-.288c.072-.336.24-.72-.24-.696-.048 0-.144-.192-.144-.288.072-.456-.144-.648-.384-.864l-1.248-1.248c-.24-.24-.432-.552-.816-.144a.517.517 0 0 1-.408.12c-.24-.048-.408.048-.576.288a.977.977 0 0 1-.456.312c-.336.096-.6.288-.888.6-.576.6-1.272.984-1.776 1.704-.504.168-.696.744-1.008 1.152-.144.168-.216.432-.336.624-.072.144-.192.384-.288.384-.456.048-.408.336-.336.696.048.24-.072.456-.264.624-.216.168-.288.408-.24.696.048.336.072.648.096.984 0 .192.024.408-.048.576-.096.24.024.36.048.552.024.336-.072.696-.048 1.032.024.384.552.24.528.744 0 .192.168.384.288.528.264.264.552.48.792.744.144.12.336.264.384.456.12.576.408.648.864.432.24-.096.432-.024.552.24.144.312.36.288.624.192.192-.072.408-.12.576-.192.216-.072.408-.096.528.096.168.24.264.144.456-.024.12-.096.384-.144.48-.048.336.24.432-.024.552-.336.384-1.104 1.008-1.992 1.728-2.808.072-.216.12-.456.192-.672.048-.24.144-.456.168-.672.072-.456.048-.888.12-1.32.072-.576.24-1.152.36-1.704.024-.096.12-.216.168-.216.351-.07.406-.482.608-.726zm-5.84-4.65c-.048-.072-.072-.144-.096-.144-.072.024-.144.096-.216.144.024.024.048.096.072.096.072-.024.144-.072.24-.096zm.504 14.136a2.11 2.11 0 0 0 .24-.144c-.048-.048-.096-.12-.144-.144-.048 0-.144.048-.192.072.024.072.048.144.096.216zm-2.904-.192c.024 0 .048-.024.072-.024-.024-.024-.024-.048-.024-.072-.023.023-.024.069-.045.093l-.003.003zm-.864-1.484c0 .046-.024.093-.024.14.024-.024.024-.048.048-.072 0-.02-.017-.04-.022-.061l-.002-.007zm16.547-2.932c.072.024.12.048.216.048 0 .384-.24.936-.768.936-.072 0-.144-.048-.144-.168 0-.168.168-.24.336-.264-.096-.144-.312-.456-.456-.456-.12 0-.432.264-.528.264-.144 0-.264-.432-.384-.432-.168 0-.36.24-.36.432 0 .168.048.336.048.504 0 .144-.144.288-.144.432 0 .24.288.48.288.792 0 .096-.024.192-.024.312s.096.264.096.384c0 .216-.384.216-.528.48.168.168.48 0 .552.144.12.24.192.528.216.816 0 .096-.024.12-.048.12-.096 0-.264-.096-.432-.096 0 .168.12.288.12.384 0 .36-1.008.576-1.032.576-.144 0-.192-.072-.192-.264 0-.096.024-.264.024-.384 0-.504-.264-.24-.672-.672.168-.288.288-.408.6-.624-.024-.024-.048-.024-.072-.024-.192 0-.6.816-.912.816-.12 0-.144-.072-.144-.144 0-.24.312-.408.312-.504 0-.072-.48.024-.48-.264 0-.288.456-.936.456-1.08 0-.168-.288-.288-.288-.552 0-.24.24-.624.528-.624.072 0 .168.096.24.096.048 0 .096-.024.12-.024-.072-.144-.84-.456-.84-.48 0-.048.048-.192.072-.288 0-.024.024-.024.024-.048 0 0-.024 0-.024.024v-.048l-.024.024c-.048-.168-.096-.312-.096-.528 0-.888-.024-1.968.312-2.712.048-.144.24-.264.24-.384 0-.072-.072-.12-.24-.168.048-.84.048-2.16.24-2.592.072-.192.096-.384.096-.6 0-.192-.024-.384-.024-.576 0-.36.072-.744.072-1.08v-.12c0-.456.24-.72.696-.72.144 0 .336.072.456.072.048 0 .12-.048.168-.048-.216-.432-.408-.528-.408-.792 0-.168.288-1.008.816-1.008.072 0 .096 0 .12.048V24.6c.048-.168.096-.432.24-.432s.384.432.504.432c.24 0 .72-.336 1.152-.336.264 0 .336.216.504.216.192 0 .48-.264.624-.264.144 0 .144.24.264.24.216 0 .336-.552.576-.552.048 0 .12.024.192.096.144.12.504-.072.504.312v.024c0 .192.504.168.504.552 0 .072.024.096.048.096.048 0 .312-.192.456-.192.336 0 .072.72.576.816 0 .144.072.192.168.288.048-.096.144-.216.144-.312v-.12l.072-.048c.12.12.312.456.432.456.096 0 .168-.36.288-.36.144.048.408.024.408.216 0 .144-.048.24-.048.336 0 .384.456.384.456.744 0 .144.048.192.096.192.144 0 .36-.144.576-.144.048.024.072.12.072.168 0 .192-.552.456-.552.648 0 .12.12.264.336.264.192 0 .096-.504.336-.504.072 0 .12.456.12.6 0 .216-.672.456-.672.648 0 .504.72 1.176.72 1.536 0 .744-1.32.384-1.32 1.68 0 .12.072.264.072.384 0 .096-.12.12-.192.12-.216 0-.36-.168-.504-.264-.072.144-.528.624-.528.696.144 0 .24-.168.312-.24.192 0 .36.024.36.216 0 .336-.672.648-.984.648-.336 0-.672-.24-.912-.24-.432 0-.696.576-1.032.648-.552.12-.648.6-.648 1.224 0 .216.408.168.408.48 0 .144-.12.336-.12.48 0 .264.888 1.224 1.176 1.224.072 0 .168-.144.168-.24 0-.456-.912-.672-.912-1.08 0-.072.12-.12.144-.12.144 0 .24.192.48.192.288-.024.48-.072.624-.072.312 0 .432.12.816.48.528 0 .336.672.768.816.072.024.096.072.096.144 0 .24-.312.624-.312.72 0 .096.096.12.216.144l-.096-.336c.144-.024.312-.096.48-.096.096 0 .168.024.24.024.072 0 .168-.096.288-.096.168 0 1.344.744 1.344 1.032 0 .096-.024.192-.048.312.096 0 .264.072.264.144 0 .12-.192.216-.192.288 0 .144.288.144.288.456.024.264.048.528.048.768.144-.288.24-.408.24-.744v-.36c0-.096.072-.192.096-.288.384.096.96.792 1.2.984.168.144.408.216.408.48 0 .216-.288.192-.528.264.192.6.6.24.6.696 0 .384-.456 1.344-.864 1.344-.192 0-.384-.192-.576-.192-.192 0-.216.144-.504.36-.168-.288-.696-.096-.744-.576-.048-.432-.288-1.224-.6-1.272a.463.463 0 0 0-.24.072c0 .216.336.384.336.6 0 .072-.144.288-.264.288-.144 0-.336-.24-.384-.432-.264-.84-1.56-1.128-1.584-1.176-.24-.624-1.008-.528-1.248-1.032-.288-.192-.504-.384-.504-.816 0-.336-.552-.456-.552-.84 0-.144.144-.36.144-.528-.024-.072-.072-.12-.12-.192-.264.264-.312.984-.6.984s-.312-.816-.312-.96c0-.168.048-.336.048-.48 0-.6-.792-.672-.792-.816 0-.12.312-.288.312-.384 0-.096-.144-.192-.144-.312-.336.168-.264.336-.576.336-.168 0-.192-.072-.264-.072-.024 0-.048.024-.072.024zm-1.8-4.272c.024.168.048.336.048.504 0 .552-.384.552-.6 1.344 0 .048.048.144.096.192.12 0 .24-.168.24-.288v-.072c0-.12.024-.192.144-.192.432 0 .816.168 1.128.168.576 0 1.176-.432 1.488-.432.168 0 .36.192.48.192.144 0 .288-.168.288-.36 0-.048-.024-.12-.024-.192 0-.072.072-.336.168-.336.12 0 .264.12.384.168.168-.36.576-.312.768-.504.408-.456.936-.696 1.416-1.056.336-.24.6-.816.6-1.152 0-.144-1.128-1.464-1.728-1.752-.144-.072-.216-.264-.336-.408h.024c-.072-.096-.168-.528-.288-.528-.192 0-.504.312-.84.312-.048 0-.072 0-.096-.024-.336-.264-.888-.072-1.176-.312-.336-.264-1.128-.264-1.416-.264-.288 0-.456.168-.456.48 0 .072.024.168.024.24 0 .096-.024.192-.024.288 0 .192.192.192.192.384 0 .552-.624.768-.624.96 0 .168-.24.312-.24.48 0 .096.072.264.12.264.072-.024.168-.024.216-.024.096 0 .168.024.168.144 0 .336-.36.432-.6.432.096.216.24.408.24.648 0 .096-.072.216-.072.336 0 .072.216.24.288.36zm6.12 7.944h-.168c-.216 0-.48.24-.672.384.288-.072.408-.024.84-.384zm-3.144-13.176c.048 0 .168-.096.168-.144 0-.072-.024-.168-.048-.168-.168 0-.288.024-.456.048.12.096.192.216.336.264zm1.368 7.248c.192 0 .168-.048.288-.216-.048-.024-.096-.048-.12-.048-.168 0-.336.144-.456.24.096 0 .192.024.288.024zm5.663 8.469v.003-.003zM130.573 39l-.12.072c0 .144-.048.24.144.336 0-.048.024-.12.024-.168 0-.096-.024-.144-.048-.24zm-.504-12.12c-.024.072-.096.144-.096.216 0 .048.072.072.12.12l.096-.216c0-.024-.072-.072-.12-.12zm-8.04 13.2c.048-.072.096-.144.12-.216 0-.024-.048-.048-.072-.096l-.12.192c0 .024.048.072.072.12zm3.753-5.856c-.021.06-.021.132-.033.216.06-.06.09-.108.114-.162l-.081-.054zm3.35-7.224c-.023.096-.047.168-.047.24 0 .048.024.072.048.096l.072-.216c0-.024-.024-.072-.072-.12zm-.215 10.464l-.072-.12c-.024 0-.072.048-.12.048l.072.12c.024 0 .072-.024.12-.048zm-.48-5.784c.048-.024.096-.048.144-.048-.024-.048-.048-.096-.072-.096-.072 0-.072.096-.072.144zm-3.12-5.832c-.024 0-.072.048-.096.072.024.024.048.024.072.024h.12a.187.187 0 0 0-.096-.096zm3.048.144c.024 0 .072-.048.096-.072-.024 0-.048-.024-.072-.024a.183.183 0 0 0-.12.048c.024.024.048.048.096.048zm2.736 13.632c.024-.024.048-.048.048-.072-.024-.024-.048-.024-.072-.024l-.024.048c0 .024.024.024.048.048zm-9.384-1.2c-.048-.048-.024-.048-.048-.048h-.048c0 .048.024.072.024.096.024 0 .048-.024.072-.048zm8.4-10.56c-.072 0-.048.048-.048.096.024 0 .048-.024.072-.048 0 0 0-.024-.024-.048zm-1.056 4.416s-.024-.024-.048-.024c0 0-.024.024-.048.024l.072.072c0-.024.024-.048.024-.072zm1.92-2.448c.024-.024.024-.024.024-.048l-.048-.048c0 .024-.024.048-.024.072 0 .024.024.024.048.024zm-1.32 9.816V39.6s-.024-.072-.048-.12c0 .072-.024.12.048.168zm-4.848-13.56l.072-.096h-.048c-.024 0-.024.048-.024.096zm-3.673 11.805v.003l.001-.009v.006zm-.784-1.973c.017-.021.017-.043.017-.064l.024.024v.024c-.023 0-.024 0-.045.02l.004-.004zm0 0a.094.094 0 0 1-.004.004l.004-.004zm13.27 5.609c.007.009.019.015.043.015a.048.048 0 0 1-.033-.015h-.01zm-.941-.729l-.048.072c.024-.024.048-.048.048-.072zm.852.612a.085.085 0 0 0 .036.012.075.075 0 0 0-.036-.021v.009zm8.938-17.088l-.012.012.012-.012zm0 0l.012-.012c.456-.408.864-.96 1.344-.96.096 0 .192.024.288.024.336 0 .744-.36.936-.36.168 0 .264.264.48.264.288 0 .864-.48 1.104-.48.144 0 .288.192.432.192.216 0 .504-.24.72-.24.192 0 .408.552.696.552.096 0 .144-.024.24-.216 0-.144-.072-.36-.072-.504 0-.144.408-.36.576-.36.12 0 .24.048.36.048.384 0 .816-.432 1.224-.432.096 0 .12.048.12.216v.12c0 .168 0 .24.048.24.072 0 .216-.192.408-.312.048-.024.096-.024.144-.024a.19.19 0 0 1 .192.192c0 .432 0 .888-.144 1.296-.216.624-.744 1.728-1.176 1.728-.168 0-.36-.072-.36-.192 0-.312.36-.384.36-.624 0-.12-.072-.216-.12-.336-.264.384-.84.552-.84.84 0 .072.024.144.072.24 0 .024-.144.144-.192.144a32.82 32.82 0 0 1-1.536-.048v-.029c-.028.373-.844.605-1.08.605-.12 0-.264-.024-.408-.024-.168 0-.36.048-.552.048-.096 0-.192-.072-.288-.072-.168 0-.384.504-.768.504-.912 0-1.824.456-2.688.456h-.216c-1.152 0-.096 1.416-1.2 1.416-.168 0-.216-.048-.216-.144 0-.096.072-.24.072-.336 0-.096-.048-.144-.12-.216-.168.168-.24.48-.24.696 0 .24.24.432.24.672 0 .12-.048.24-.216.312-.528.264-.576.672-.576 1.128 0 .096.024.168.024.264 0 .24-.168.456-.384.456-.288 0-.384-.384-.6-.384-.048 0-.12.096-.12.12 0 .336.216.456.216.648 0 .168-.384.336-.384.552 0 .192.12.384.12.576 0 .216-.408.168-.408.408 0 .168.12.48.144.72.528-.096.36-.912 1.008-.912.144 0 .456.168.552.168.12 0 .36-.72.648-.72.144 0 .432.264.648.264h.144c.096 0 .168.072.216.072.096 0 .24-.552.384-.552.12 0 .408.192.576.192.216 0 .432-.288.672-.288.096 0 .216.12.336.12.144 0 .312-.288.432-.288.216 0 .336.336.48.336.192 0 .552-.576.744-.576.168 0 .384.456.456.456.12 0 .264-.6.504-.6.072.024.12.096.168.144.024.072-.096.432-.096.504 0 .024.096.024.12.024.312 0 .408-.624.816-.624.432 0 .552.192.552.48 0 .096-.024.192-.024.288 0 .048.024.072.024.12 0 .24-.12.384-.336.48-.72.336-1.56 1.344-1.992 1.344-.12 0-.264-.072-.384-.072-.072 0-.144 0-.216.024-1.056.408-2.352.456-3.312.528-.288.048-.672.192-.84.192-.12 0-.264-.072-.384-.072-.576 0-1.104.456-1.68.456-.168 0-.192.432-.384.432-.12 0-.288-.072-.456-.072-.12 0-.216.12-.216.216 0 .24.36.384.36.624 0 .168-.192.384-.24.6 0 .24.024.48.048.744.12-.216.288-.432.384-.648.12-.36.144-.96.6-.96.072 0 .24.024.24.168 0 .024-.024.072-.024.096-.24.456-.504.792-.504 1.152 0 .6.576 1.104.936 1.608.264.384.336.744.408.744.096 0 .36-.216.744-.216.48 0 .6.432.792.432.12 0 .552-.216.864-.216.072 0 .168.024.24.024.384 0 .768-.36 1.08-.36.312 0 .288.696.36 1.104-.552 0-.552 0-.552.576v.168c.192-.24.36-.504.552-.744.432-.336.6-1.224 1.272-1.392 0 .072.024.144.024.216 0 .072-.048.144-.048.24 0 .144.048.24.192.24.288 0 .48-.144.576-.432-.144.072-.24.072-.384.072.12-.48.552-.72.936-.72.12 0 .264.072.36.072.456 0 1.032-.552 1.68-.552.456 0 .744.24.744.6 0 .264-.24.792-.528.792-.096 0-.288-.072-.408-.12 0 .048-.024.096-.024.144 0 .192.096.336.096.432 0 .168-.12.216-.408.408-.792.504-.504 1.176-1.368 1.176-.288 0-.6 0-.888-.024.024-.12.024-.216.024-.288 0-.144-.072-.144-.288-.216l-.024-.024.024.048c.096.168.168.312.264.48-.192.456-.216.6-.792.6-.408 0-.264-.576-.528-.576-.192 0-.408.192-.552.192-.384 0-.48-.552-.84-.552-.48 0 .024 1.2-1.104 1.2-.792 0-.528-1.176-1.128-1.176-.696 0-.504.648-.96 1.248-.048-.072-.192-.144-.192-.24 0-.048.024-.096.024-.12-.048-.096-.096-.168-.12-.24-.384.576-.336.456-.72.552 0-.072-.024-.168-.024-.24 0-.192.096-.336.096-.528-.24.12-.312.672-.648.672-.096 0-.192-.096-.192-.24 0-.24.216-.48.216-.72 0-.072-.024-.12-.096-.12-.072 0-.264.096-.336.096-.167 0-.23-.186-.317-.299-.068.214-.097.467-.38.491-.24 0-.383-.12-.431-.36-.144-.84-.72-.936-.72-2.568 0-.648.168-1.344.168-1.92 0-.168-.072-.336-.072-.504.024-.36.12-.984.24-1.488.216-1.008 1.128-2.928 1.2-4.536.024-.552.264-1.056.36-1.56.096-.528.576-.576.864-1.152h-.144c-.168 0-.288.072-.36.072-.048 0-.072-.024-.072-.096-.024-.12.144-.504.168-.816.072-1.128.624-1.824 1.704-2.232.504-.192 1.152-.576 1.392-.576.144 0 .312.168.48.168.192 0 .432-.192.624-.192.144 0 .216.144.264.264l-.012.012zm-5.283 16.98c-.036-.043-.076-.072-.13-.072-.047 0-.12.072-.191.072h.32zm10.597-16.037c-.006-.071-.022-.133-.022-.211-.024.024-.048.048-.048.072l.07.14zM136.964 38.91c.003.012.015.018.05.018 0-.024.007-.042.004-.054l-.054.036zm-.31-.75c.145-.144.265-.264.385-.408-.072-.144-.048-.264-.168-.264-.192 0-.408.24-.408.408 0 .12.096.24.192.264zm9.985 1.944c0 .048-.024.096-.024.144 0 .096.024.216.048.312.024-.432.864-.48.864-.768v-.12c-.144.144-.144.12-.192.312-.144-.024-.264-.072-.408-.072-.048 0-.24.072-.288.192zm-7.08.264c-.144.12-.312.24-.312.24.072.12.168.24.24.336.096-.096.192-.144.192-.264 0-.096-.072-.192-.12-.312zm-2.28-.306c-.006.018 0 .042 0 .066a.314.314 0 0 1 .036-.057l-.036-.009zm1.536-14.334c.072.048.168.096.24.144 0 0 .072-.072.12-.144-.072-.048-.12-.12-.216-.168 0 0-.096.096-.144.168zm.216.768c.024 0 .048-.024.072-.024 0-.024 0-.048-.024-.096-.024.048-.024.096-.048.12zm.192 2.28c.096-.096.168-.144.168-.216 0-.048-.072-.096-.12-.144-.072.072-.144.096-.144.168 0 .072.048.12.096.192zm4.368-4.632a.543.543 0 0 0 .096-.216c0-.048-.024-.096-.096-.12-.24 0-.384.384-.384.576 0 .048.024.072.048.096.216-.096.216-.168.336-.336zm3.24 1.224c.24-.216.36-.36.36-.48 0-.192-.192-.192-.6-.408-.024.288-.048.552-.048.816 0 .048.024.144.072.144a.387.387 0 0 0 .216-.072zm1.992-.672v-.144a.331.331 0 0 0-.072.096c0 .024.024.072.048.096 0 0 .024-.024.024-.048z"/>
</svg>
