<svg xmlns="http://www.w3.org/2000/svg" width="150" height="50" viewBox="0 0 150 50">
    <path fill="#EE6C4D" fill-rule="evenodd" d="M3.687 27.216c.672-.192 1.632-.576 2.256-.576.192 0 .192.048.192.24 0 .672-1.104 1.488-1.728 1.488-.624 0-.912-.336-.912-1.008.048 0 .096-.048.144-.096-.24.144-.768.192-1.056.192-.768 0-1.056-1.008-1.248-1.008-.336-.144-.72-.24-.72-.72 0-2.64 4.8-2.496 4.8-4.704 0-.144-.096-.24-.144-.384-.096.096-.288.24-.288.336v.192c0 .672-.432.96-1.056 1.008-.528.048-.768.432-1.152.576-.24.096-1.536.336-1.536.336-.096 0-.192-.096-.192-.24 0-1.152 1.488-1.056 1.488-1.344 0-.096-.192-.336-.192-.336-.096 0-.192.048-.288.048-.624 0-.672-.816-.672-1.44a.81.81 0 0 1 .144-.48c.672-.864.816-1.728.816-2.592 0-.48-.048-.96-.048-1.44 0-.576.384-.912.768-1.296-.288-.096-.432-.288-.432-.576 0-.72.432-1.968.864-2.544l-.192.144c-.096-.144-.336-.288-.336-.432.048-1.44-.144-3.648 1.728-3.648 1.008 0 1.776.72 2.496.72.624 0 1.44-.768 1.824-.768.48 0 1.056 1.056 1.392 1.056.384 0 .96-.624 2.16-.96.048-.048.144-.048.192-.048.144 0 .24.096.24.24 0 .288-.336.528-.336.72 0 .048.096.192.24.192.432 0 .864-.816 1.104-.816.576.096 1.056.336 1.584.576-.096 0 1.776 1.248 1.68.864.048.192.096.432.096.672 0 2.544-4.32 3.12-4.848 3.216-.096 0-.192.048-.24.048-.24 0-.336-.096-.336-.24s.144-.288.144-.48c0-.144-.048-.336-.048-.288-.336.048-.672.096-.96.096-.432 0-.816-.384-1.104-.384-.624 0-1.056.384-1.248.384-.144 0-.72-.288-.72-1.056-.288.144-.672.24-.672.576 0 .144.144.336.144.528 0 .432-.624 1.056-.672 1.44 0 .384.528.672.576 1.056 0 .72-1.008 1.536-1.008 2.304 0 .768.624 2.448.624 3.6 0 .624-.912 1.152-.912 1.488 0 .288.576.48.912.48.768 0 1.248-.72 1.776-.72.48 0 1.008.864 1.008 1.248s-.288.864-.48 1.056c-.576-.096-.672.144-1.056-.528.048.144.096.288.192.432-.384 1.488-4.224 2.688-4.752 3.6zm3.696 15.072c-.48-.336-.672-.48-.672-.72 0-.096.528-2.112.864-2.112.048 0 .528.144.768.432v-.048c1.584-2.064 2.496-3.168 4.608-3.6.528-.096 1.776-2.304 1.824-2.448.48-1.344 2.064-1.2 2.064-1.68 0-1.104.864-1.872 1.296-2.832.048-.096.144-.192.144-.288-.144-1.008-.432-3.84-.816-3.84-.384 0-1.008 1.104-1.344 1.104-.24 0-.864-.288-.864-.576s.672-.576.672-.912c0-.288-.288-.384-.624-.384-.768 0-1.392.96-1.92.96-.432 0-1.056-.768-1.44-.768-.288 0-.72.24-1.056.24-.576 0-1.68-.24-1.68-.72s1.872-2.592 2.496-2.592c1.296 0 .816 1.488 2.112 1.488.816 0 2.304-1.44 2.448-1.44.288 0 .432.72.768.72.288 0 .624-.288.96-.288.192 0 .288.096.288.24 0 .24-.288.912-.288 1.008 0 .432 1.344-.048 1.344.768 0 .432-.144.816-.144 1.2 0 .048.048.096.096.144.432-.192.48-1.152 1.008-1.152.384 0 .528.144.528.384 0 .192-.144.48-.144.72 0 .096.048.192.048.288 0 .528-1.008 1.056-1.008 1.488 0 .192.192.192.336.192.24 0 .528-.96.624-1.296.528-.096.624-1.008 1.056-1.008.432 0 .384.384.384.576 0 1.008-.96 1.728-1.056 2.592-.096.576-1.968 3.648-2.304 3.648-.096 0-.144 0-.24-.048 0 0-.192.288-.192.336.24.288.288.576.288.816 0 .72-.768 2.256-1.056 2.256-.528 0-.528-.672-.528-.576v-.336c0-.192-.048-.384-.288-.384-.672 0-.672 1.056-.672 1.344 0 .672.672.816.672 1.728 0 .384-.288.672-.624.672-.384 0-.72-.336-1.152-.336-1.104 0-2.304 1.776-2.304 2.304 0 .24.24.576.24.816 0 .288-.288.432-.672.432-.768-.096-.72-1.008-1.152-1.008-.288 0-.576.384-.576.768 0 .528.912.672.912 1.152 0 .288-.336.48-.432.48-.288 0-.72-.336-1.104-.336-.912 0-1.2 1.68-1.776 1.68-.48 0-.576-.768-.72-1.248zm-4.704-1.632l-.384.336C.999 40.128.663 40.32.663 39.36c0-2.208.096-2.304 1.488-2.688.096 0 .192-.192.288-.288-.048-.048-.096-.192-.192-.192-.144.048-.24.048-.336.048-.48 0-1.056-.336-1.056-.912 0-.336.192-.816.48-.816.336 0 .48.528.672.528.24 0 .288-.624.816-.624 1.68 0 1.968 1.776 2.016 1.776.624.24.72.672.72 1.2 0 .576-.048 1.152-.048 1.68 0 .72.672 1.056.672 1.536 0 .192-.24.432-.24.672 0 .432.48.816.48 1.248 0 .672-.864 1.248-1.488 1.248-.288 0-.384-.096-.48-.432 0-.192.048-.432.048-.624 0-.24-.096-.384-.288-.48-.624 0-.864 1.344-1.488 1.344-.336 0-.768-1.152-.768-1.728 0-.48.72-.912.72-1.2zm4.704 1.632c.672-.48 1.44-1.008 1.44-1.344 0-.192-.192-.432-.384-.864a13.285 13.285 0 0 1-1.056 2.208zM3.59 15.984c.096.096.24.144.336.144.528 0 .816-.912 1.104-1.44-.576.384-1.008.864-1.44 1.296zm1.584 2.592c-.096 0-.192-.096-.24-.096-.384.048-.96.096-.96.48 0 .096.288.192.432.192.288 0 .624-.24.768-.576zm4.608-8.352l-.336-.576c-.24.288-.48.528-.48.624 0 .048.144.24.288.24.144-.048.336-.192.528-.288zm2.112-1.248c-.096.288-.288.672-.288.96 0 .096.096.192.144.288.096-.096.24-.24.24-.336 0-.336-.048-.624-.096-.912zm-8.256 4.272v-.288c-.288.288-.336.528-.384.816.144-.144.24-.336.384-.528zM3.303 26.16c-.096-.048-.144-.144-.24-.144a.89.89 0 0 0-.336.096c.096.048.192.144.336.144.096 0 .144-.048.24-.096zM2.967 18l.24-.192c0-.048-.048-.144-.048-.144-.096 0-.144.048-.24.048 0 .096.048.192.048.288zm11.808 20.4l.144.24a.483.483 0 0 0-.144.048l-.144-.192a.69.69 0 0 1 .144-.096zM7.143 16.656c-.096-.048-.144-.048-.24-.048 0-.048.048-.144.048-.144.096 0 .192 0 .24.048 0 .048-.048.096-.048.144zm16.272 8.016l-.24.192c0-.048-.048-.144-.048-.144l.192-.144c.048.048.048.096.096.096zm-3.648-2.16l.048-.096.096.048-.144.048zM33.72 40.464c0 .144.048.24.048.384 0 .288-.192.288-.528.432 0-.096-.048-.24-.048-.336 0-.192.336-.336.528-.48-.624-.384-1.008-.672-1.536-1.2-.768 1.104-.432 1.776-1.008 1.776-.336 0-2.688-1.68-2.736-1.728-.48-.816-2.304-4.416-2.64-4.416-.144 0-.528.384-.72.384-.576 0-.912-3.648-.912-3.744 0-.624.528-1.2.528-1.584 0-.432-.48-1.008-.48-1.68 0-.864 1.248-3.312 1.248-3.648 0-.336-.528.048-.528-.672 0-.528.672-.672.672-1.104 0-.24-.192-.48-.192-.816 0-1.296 1.152-1.44 1.152-2.304 0-.768 1.68-.864 1.68-1.68 0-.192-.192-.48-.192-.864 0-.672 1.344-1.248 2.016-1.728.192-.864.576-1.68 1.104-1.68.288 0 .912.288 1.152.288.576 0-.096-1.296.672-1.488.912-.24 1.68-1.632 2.112-1.584.576 0 .192 1.392 1.056 1.392 1.248 0 1.728-.672 2.208-2.496-.768.336-.48 1.488-1.2 1.488-.096-.048-.24-.144-.24-.288 0-.912.48-1.824.864-1.824.192 0 .432.144.72.48l-.096.096c.384-.288 1.536-.816 1.44-.768.096-.048.24-.048.384-.048 1.056 0 1.872.816 1.872 1.344 0 .336-1.104.336-1.104.768 0 .24.192.576.384.576.48 0 .768-.432 1.152-.432.528 0 1.2 1.776 1.296 1.776-.048.336-.288.624-.576.912.24-.24.72-.24 1.2-.24.384 0 .528.192.528.384 0 .48-.96 1.008-.96 1.536 0 .384.576.624.576.96 0 .144-.096.288-.384.48.096.576.096 1.104.288 1.536.192-.72.336-1.008.72-1.008 1.152 0 1.584.624 2.256 1.2-.384.576-.384 1.44-1.296 1.632-.096-.096-.192-.192-.24-.288l-.144.144c.24.096.48.192.48.48 0 .24-.72.96-.864 1.152.192 0 .432-.096.624-.096.24 0 .384.048.384.24s-.288.576-.288.768c0 .432.432.864.432 1.296 0 .768-.912 1.776-.912 2.832v.576c0 .624-.24 1.248-1.056 1.584l-.144-.384c-.048 0-.096.048-.144.096.384.384.432.912.432 1.536 0 .384-.144.624-.576.624h-.192c-.096 0-.192.048-.288.096.24.24.72.432.72.672 0 .192-.384.672-.384.912 0 .384.48.816.48 1.2 0 .816-1.44.24-1.44 1.008v.144c0 .576-.816.816-.816 1.392 0 .048.048.096.048.144-.72.336-1.776.624-1.776.912 0 .144.096.336.096.528 0 .384-.336.624-.72.768-.288.096-.48.192-.576.192-.288 0-.096-.384-.624-1.152-.24.864-.048 1.152-.672 1.152-.192 0-.528-.096-.768-.192l-.384-.336c-.336.528-.624.816-.816.816-.336 0-.288-.384-.864-.96-.144.288-.288.48-.288.816 0 .48.576.72.576 1.248 0 .288-.24.384-.336.384-.336 0-.576-.432-.912-.432-.192 0-.336.048-.528.144zm2.16-26.352c-.144.336-.288.432-.528.432-.528 0-.768-.24-.768-.624v-.144c-1.776 1.056-2.784 2.88-4.272 4.224-.912.624-.432 2.064-1.776 2.448-.288.096-.96 2.256-.96 3.408 0 .192.048.432.048.672 0 .72-.864 1.056-.864 1.488 0 .432.432.816.432 1.44.192 1.68.144 4.032.816 5.376.336.672 1.296 2.4 1.344 2.4 1.44.24 2.304 1.248 4.368 1.248.48 0 .912-.288 1.344-.288h.144c1.2-.192 3.6-.384 3.6-1.104 0-.096 0-.192-.048-.336.96-.96 1.968-2.832 1.968-3.552 0-.864.96-1.728.96-2.88 0-.576-.144-1.248-.144-1.92 0-.48-.048-1.488.336-1.488.672 0 .624.48.624.768 0 .336-.048.624-.048.96l.192.72c.384-.528.48-1.2.48-1.824 0-.912-.432-.72-.864-1.632-.192-.144-.288-.336-.288-.528 0-.48.624-1.536.624-2.448 0-1.248-.816-2.928-1.056-4.368-.144-.672-.384-1.296-.576-1.92-.96-.144-1.872-.384-2.832-.384-.384 0-.816.048-1.2.048s-.72-.096-1.056-.192zm10.032.144c.096.192.336.48.336.672 0 .144-.624 1.056-.912 1.056-.336 0-.432-.336-.432-.576 0-.576.336-.96 1.008-1.152zm-11.328-.48h.336c.384 0 .672.096.96.336-.096-.624-.144-.912-.384-.912-.192 0-.48.192-.912.576zm4.272 25.728c.048.24.144.432.144.576-.048.096-.288.24-.384.24-.048 0-.192-.336-.24-.432 0-.096.24-.192.48-.384zm-9.312-1.056l.24.192c.096-.096.24-.192.336-.336 0-.048-.096-.144-.144-.24l-.432.384zm13.68-21.552c-.096-.24-.048-.24-.288-.528 0 .048-.048.096-.048.144l.144.576c.048.048.192-.048.192-.192zM28.921 36.96c-.144-.144-.24-.288-.384-.288-.048 0-.144.048-.192.048.048.096.192.336.288.336.048 0 .144-.048.288-.096zm17.664-20.256l.192.144c-.048.048-.096.144-.192.192l-.096-.24.096-.096zm-.24 10.896l.144.144-.192.096c0-.048-.048-.048-.048-.096s.096-.096.096-.144zm-9.072 11.184c-.048.096-.096.192-.096.288-.048-.048-.096-.096-.144-.096.048-.096.144-.144.24-.192zm4.032-2.736v-.096c-.144 0-.144.096-.144.192.144 0 .144-.096.144-.096zm3.504-16.992c.048 0 .096-.048.144-.048l-.336-.144c.048.048.096.144.192.192zm-13.92 19.92c0-.048-.048-.096-.048-.144-.048.048-.096.096-.096.144 0 .048 0 .048.048.096.048 0 .048-.048.096-.096zm11.52-4.896c.048-.048.096-.096.096-.144 0-.048-.048-.048-.048-.096-.048.048-.096.048-.096.096s.048.096.048.144zm-15.6.326a.078.078 0 0 1 0 .007v-.007zm9.696 5.674h.144l-.096.144-.048-.144zm7.056-30.72l-.096-.096.096-.048v.144zm2.016 3.072v.144h-.096l.096-.144zm24.082 4.664v-.008.008zm0-.008c-.048.144-.144.288-.144.432 0 .096.096.192.144.288-.192 1.152-.048 1.632-.816 1.632h-.288c-.192 0-.432.048-.624.048-.096 0-.192-.048-.288-.048-.576 0-.528.528-.72 1.344l.672-.336v.048c.288.048.48.192.48.384 0 .624-1.056.72-1.248 1.536-.144.672-.24.864-.624.864-.24 0-.624-.144-.96-.144 0-.24.048-.432.096-.672-.144.144-.24.24-.24.384 0 .096.048.192.144.288-.144.672-.384 1.68-.864 1.68-.24 0-.72-.192-.72-.816a.103.103 0 0 0-.096.096l.192.384c-1.68.336-1.872 1.392-1.872 2.352 0 .144.096.192.192.192.576 0 .144-1.392.864-1.392.24 0 .624.912.624 1.152 0 .816-.384 1.584-1.248 1.824-.816.192-2.448 2.208-2.448 2.352 0 .768 1.008.72 1.008 1.296 0 .24-.048.576-.384.576-.432 0-.336-.24-.672-.24-.192 0-.384-.048-.384.288.24.336.336.672.336 1.008 0 .864-.768 2.688-1.392 2.688-.432 0-.912-.192-1.344-.24-.096 0-.288.144-.288.24 0 .048.048.144.096.144.624.384.816 1.056.864 1.728-.816.096-1.584.288-2.352.288-.528 0-1.152.096-1.152 1.392.288-.288.48-.624 1.152-.624.288 0 1.056 1.248 1.056 1.824 0 .336-.144.96-.528.96-.144 0-.288-.096-.432-.096-.288 0-.576.096-.816.096-.192 0-.384-.192-.528-.192-.192 0-.24.144-.24.288 0 .384 1.152.288 1.152.96 0 .72-.768.72-1.392.816.48.384 2.064.432 2.064.816 0 .912-1.344 2.976-1.584 2.976-.192 0-.672-.432-.96-.432.096 0-.96.768-.96 1.2 0 .096.048.192.144.336-.048.048-.144.288-.336.288-.48 0-.48-1.584-1.344-2.112-.48-.288-.72-.864-.72-1.488 0-.768.144-.912 1.008-1.632-.48-.528-.96-1.152-.96-1.68 0-1.44.96-3.072 1.968-4.032.192-.192.288-.336.288-.528 0-.288-.624-.576-.624-1.008 0-.72 3.312-5.472 3.504-5.712.096-.144.24-.24.336-.24.192 0 .528.336.672.576.288-.864-.192-3.024 1.2-3.024h.192c-.096.336-.336.864-.336 1.2 0 .048.048.096.048.096.336 0 1.344-1.2 1.968-1.728-.096-.048-.192-.096-.288-.096-.432 0-.768.576-1.2.576-.096 0-.144 0-.192-.048 0-.912.096-1.776 1.104-2.304.192-.096.432-.384.432-.528v-.144c0-1.2 1.584-1.296 1.824-2.64.144-.768.72-1.056 1.392-1.392 0 0 .144.24.192.336.576-.192.768-.528.768-.96 0-.192-.096-.432-.096-.672 0-.96 2.448-1.056 2.448-2.16 0-.24-.192-.72-.192-1.008 0-.432 1.2-1.632 1.488-1.632.24 0 .432.336.528.336.288 0 .096-2.544 1.728-3.216.048 0 .192-.144.192-.24.144-2.304 3.312-3.792 4.128-6.672.528-1.968 4.08-4.992 5.28-4.992.336 0 .816.144.816.48 0 1.392-2.064 4.656-2.304 5.04-.096.192-.288.384-.288.528v.24c0 .672-1.392 1.008-1.824 1.44.288.192.864.24.864.528 0 .192-.288 1.008-.624 1.296-1.824 1.392-1.728 4.512-3.552 4.608-.432 0-1.008.48-1.008.72 0 .288.672.576.672.912 0 .432-1.248 1.056-1.824 1.44 0-.096.048-.24.048-.336 0-.141-.046-.236-.048-.376v-.008zm3.024 14.016c0-.144-.048-.288-.048-.48 0-.24.144-.48.336-.48.336 0 .96.432 1.392.672 0-.24.336-1.44.576-1.44.24 0 .768.72.768 1.488 0 .144-.048.288-.048.432 0 .816 1.296 1.392 1.296 2.592 0 1.296-1.824 3.168-1.824 3.6 0 .336.432.912.432 1.104 0 .48-1.008.24-1.392.72-.768.96-2.016 1.392-2.592 2.592-.384.816-1.2.336-1.824 1.008-.288.24-.576.432-.816.432-.144 0-1.68-1.008-2.592-1.344-.96-.336-1.392-.96-1.584-1.872-.192-.336-1.824-3.024-1.824-3.024 0-.528 1.008-1.152 1.008-1.392s-.528-1.104-.528-1.296c0-.432 1.776-2.208 2.4-2.208.672 0 1.488 1.056 2.352 1.056.384 0 .864.048 1.056-.48 0-.048-.096-.144-.192-.144-.192 0-.336.096-.528.096-.768 0-2.016-1.056-2.016-1.392 0-.24.336-.48.576-.48.768 0 1.2.528 1.824.528.672 0 1.776-.864 2.112-.864.192 0 .336.192.672.624-.576.432-1.056.912-1.056 1.488 0 .192.144.432.144.624 0 .288-.24.72-.48.72-.192 0-.384-.288-.528-.288-.528 0-.528 1.824-1.104 2.016-.576 0-.432-1.2-1.248-1.2-.288 0-.576.144-.768.288.48.48.768.48.768.864 0 .72-.528 1.152-1.056 1.152h-.24c-.384 0-.864.096-1.008.432 0 .048.144.192.192.192h.24c.864 0 .816.816 1.872 1.248.576.24 1.584.096 1.584.72 0 .144-.096.288-.096.432 0 .096.096.144.336.144.816-.048 1.392-.672 2.112-.96 1.296-.528 1.968-1.44 1.968-2.64 0-.576-.144-1.152-.144-1.68 0-.816.48-1.68.48-2.256 0-.576-.336-1.008-.96-1.296 0 .336.048.672.048 1.008 0 .48-.336 1.392-.96 1.392-.336 0-.624-.576-.624-.96s.288-.912.528-1.44c.336 0 .672-.048 1.008-.048zM54.78 15.456v.384c0 .624-.48 1.056-1.248 1.056-1.104 0-2.112-1.728-2.112-2.352 0-.672.384-1.92.816-1.92.144 0 .384.144.576.144.576 0 1.152-1.104 1.152-1.536 0-1.344 1.728-2.304 2.304-2.304.144.048.288.048.384.048.24 0 .384-.048.384-.192 0-.144-.24-.288-.24-.528 0-.336.48-.72.816-.72.336 0 .528.192.768.192.336 0 .96-.624 1.536-.624.816 0 1.632.672 2.64.672.48 0 .672.096.672.384 0 .336-.144.864-.144 1.2 0 .72.864 1.104.864 1.536 0 .336-.384.816-.72.912-2.112 1.2-1.104 4.704-3.312 4.704-.624 0-.192-.864-.816-1.056h-.048c.192.336.384.672.528 1.008-.144.528-.336 1.248-.72 1.248-.432 0-.624-.768-1.104-.768-.384 0-1.104.576-1.44.576-.72 0-1.152-1.248-1.536-2.064zm4.416-2.976h.96a4.925 4.925 0 0 1-.192-1.296c0-.672.24-1.248 1.2-1.632.192-.048.24-.192.24-.384 0-.288-.288-.432-.72-.432-1.296 0-1.68 1.824-1.68 2.784 0 .336.048.672.192.96-.336.192-.432.816-.864.816-.48 0-.624-.432-.624-.72 0-.24.048-.48.048-.624 0-.144-.24-.24-.384-.288-1.056 0-1.344 1.44-2.4 1.536 0 0-.048.336-.048.432.384.768.624 1.344 1.152 1.344.576 0 1.392-.624 2.208-1.056.864-.432.864-.432.912-1.44zm-9.408 30.864c.096.144.192.24.192.384 0 .96-.72 2.448-1.056 2.448-.192 0-.24-.096-.24-.24 0-.816.528-2.16 1.104-2.592zm13.008-29.328l.432.768c-.24.096-.432.24-.528.24-.288-.048-.432-.24-.432-.48 0-.288.336-.48.528-.528zM56.22 32.784c-.432.144-.912.432-.816.672.24.096.432.192.672.24.144 0 .192-.384.192-.432 0-.144 0-.288-.048-.48zm5.712-1.92c-.288.24-.48.48-.624.48-.144-.048-.24-.288-.288-.48 0-.048.24-.288.336-.288.144 0 .288.144.576.288zm-5.04 4.416c-.24-.048-.432-.048-.576-.048-.192 0-.288.096-.384.288.096.048.192.096.288.096.192 0 .336-.096.672-.336zm-3.6 5.232l.912-.384c-.384.048-.864.048-1.056.24.048.048.096.144.144.144zm11.136-19.2c0-.144-.048-.288-.288-.384l.192.912c0-.192.096-.384.096-.528zm-13.056 23.52c.048 0 .096-.048.192-.096a3.824 3.824 0 0 1-.624-.624c.096.192.432.72.432.72zm7.056-13.392l-.288-.288s-.096.144-.144.192c.096.096.192.192.288.24.048 0 .096-.048.144-.144zm6.96 4.368c0-.192 0-.624-.192-.624 0 .096-.048.192-.048.288 0 .144.192.24.24.336zM54.3 36.912h.432c-.048-.144-.048-.24-.096-.288-.24 0-.192 0-.336.288zm10.704 3.264c.096 0 .24-.192.288-.336-.192.096-.192-.048-.528.288.048 0 .192.048.24.048zm7.008-26.784c-.048-.048-.096-.144-.192-.192 0 0-.096.048-.096.096 0 .096.048.192.096.288.048-.048.144-.096.192-.192zm-14.784-3.264c-.096.048-.24.144-.24.24s.144.048.336.048c-.048-.096-.096-.192-.096-.288zM61.98 29.52v.384c-.048 0-.144-.048-.192-.048.048-.096.144-.192.192-.336zm.816-16.176l-.144-.144c0-.048.048-.096.096-.096l.144.144-.096.096zM51.418 42.145l.001-.001v.001zm.865 1.247v.144l.192-.096-.048-.096c-.048 0-.096.048-.144.048zM74.46 5.376c-.048-.048-.096-.048-.096-.048s-.096.048-.096.096c.048.048.048.096.096.096 0 0 .048-.096.096-.144zm-14.832 5.472c-.048 0-.096-.048-.096-.048 0-.096 0-.096.144-.096 0 .048-.048.096-.048.144zm-3.84 26.832v-.144h-.144l.144.144zm1.92.816l.048-.048c.048.048.144.048.24.096-.096 0-.192-.048-.288-.048zm9.876-18.24a.584.584 0 0 1 .012.144c-.024-.048-.048-.096-.066-.144h.054zm0 0a.302.302 0 0 0-.084-.144c0 .048.012.096.03.144h.054zm-5.556 9.216c0-.048 0-.096.048-.144-.048.048-.048.096-.048.144zm-4.272 8.976l-.048.048v-.048h.048zM71.7 31.146c.012-.006.024-.018.024-.042-.024 0-.036.012-.042.024l.018.018zm0 0c-.012.006-.024.006-.024.006s0-.012.006-.024l.018.018zm25.972 10.37c.025.065.067.13.089.196.024-.024.072-.048.096-.096-.062-.041-.123-.065-.185-.1zm-.02-.013a.545.545 0 0 1-.011-.007c.12-.096.24-.216.336-.336.024-.048.024-.192.024-.192-.168-.024-.36 0-.528-.024-.312-.048-.384-.336-.168-.624.072-.096.192-.168.264-.264.048-.048.072-.096.12-.144-.072-.024-.168-.072-.24-.048-.432.144-.672.6-.552 1.08.048.12.168.24.216.36.072.264-.048.408-.36.456-.048 0-.12 0-.168.024-.552.12-.768-.024-.672-.6.048-.264.192-.528.312-.792.096-.216.144-.432 0-.624-.024-.048-.072-.096-.12-.096s-.12.072-.144.096c-.096.264-.192.504-.264.744-.072.288-.24.432-.504.504-.288.096-.312-.168-.384-.336-.024-.096-.072-.168-.12-.24-.024-.048-.096-.048-.144-.024a.274.274 0 0 0-.072.168c.024.192.048.408.072.624.024.336-.024.384-.384.48-.432.096-.432.096-.624-.312-.048-.096-.072-.216-.144-.312s-.072-.36-.264-.168c-.072.072-.096.288-.096.432.024.096.12.216.096.312a.466.466 0 0 1-.216.264c-.072.024-.168-.048-.24-.072-.408-.144-.816-.408-1.296 0-.384-.216-1.032.216-1.224-.432-.504-.168-.48-.6-.456-1.104.048-.408.048-.792-.096-1.176-.096-.24-.12-.624.264-.816.216-.12.192-.36.12-.504-.264-.552-.36-1.128-.072-1.8.048-.096-.024-.24 0-.36.024-.456.072-.936.096-1.416.048-.504.072-.984.12-1.488.024-.144.024-.264.072-.384.24-.648.192-1.296.192-1.944 0-.672.072-1.392.144-2.064.048-.384.144-.744.216-1.128.168-.12.336-.24.504-.384.336-.36.456-.432.648-.048.24.552.648 0 .96.072.216.072.312-.288.36-.576.048-.24.144-.48.192-.72l.048-.072c.552.624.552.816.144 1.704-.048.072-.12.144-.168.24-.216.336-.216.336.192.504l.024.048c0 .144-.024.312 0 .456.096.792.096.792-.624 1.272-.02-.04-.04-.079-.059-.105a.187.187 0 0 1 .035.105c0 .216 0 .456.024.648.072.6.048 1.152-.456 1.68-.192.192-.24.576-.336.888-.072.216-.12.432-.192.624-.192.552-.168.576.312.84.264.168.288.168.048.576-.168.24-.096.432-.072.624 0 .192.096.168.216.12.288-.072.408.12.36.36-.024.264-.144.528-.264.792-.072.144-.24.216-.336.336-.264.288-.24.36 0 .624.072.096.192.216.24.336.144.6.72.696.984 1.152.072.144.216-.024.24-.144.048-.288.192-.336.432-.36.504-.048.96-.096 1.368.216.168.144.264.048.384-.168.168-.264.336-.288.456-.024.072.12.096.336.288.096.144-.216.36-.312.552-.24.6.24 1.296.024 1.944.12.096.024.264.048.264.096-.024.768.24.336.456.072.144-.168.312-.264.432-.096.192.192.672-.096.648.408 0 0 .168.024.168-.024.216-.36.36-.192.552-.048.216.144.288.528.648.408.216.456.36.912.216 1.512-.168.552-.432.912-.984 1.008a.507.507 0 0 0-.24.096c-.6.384-.816.384-1.32-.048-.144-.144-.288-.168-.456-.072-.432.192-.84.312-1.224.048-.168-.12-.36-.096-.552.072-.12.096-.264.192-.384.072-.168-.144-.168-.432 0-.672.046-.069.135-.094.226-.137zm4.014-.678c-.017-.064-.02-.124-.041-.145-.072 0-.144 0-.216.024l-.024.072a.341.341 0 0 0 .144.048c.04.02.082.006.137.001zm-9.85.108a.518.518 0 0 1-.031.035l.055-.056-.023.021zm-.583-1.453c.216-.144.408-.288.576-.456.072-.048.096-.192.12-.288-.096 0-.216-.048-.288 0-.288.12-.408.384-.456.672 0 .048.048.072.048.072zm-.648 1.608c.072-.12.144-.216.192-.312 0-.024-.096-.096-.144-.12-.072.096-.12.192-.168.312-.024.024.048.048.12.12zm1.175-4.993l.001.001v-.001zm-.791.769c-.048-.096-.096-.168-.12-.24-.048.072-.12.144-.12.216-.024.072.048.144.096.216a.787.787 0 0 1 .144-.192zm-.336 1.416l.192-.192c-.024-.048-.072-.096-.096-.096-.048.024-.12.072-.144.12-.024.024.024.096.048.168zm-.384.624c-.048-.024-.12-.072-.192-.096-.024 0-.096.12-.096.12.048.072.096.12.144.168a.896.896 0 0 0 .144-.192zm.888-5.304c.024-.024.024-.048.048-.072-.024 0-.048-.024-.096-.024v.072a.074.074 0 0 0 .048.024zm.72-8.688c.36 0 .48.216.312.48a1.464 1.464 0 0 1-.288.384c-.048.048-.168.072-.216.024-.192-.144-.192-.408-.072-.648.048-.12.192-.192.264-.24zm1.56.648c-.096.024-.216.048-.312.12-.216.12-.336.096-.408-.12l-.072-.36c0-.048.024-.144.072-.168.072-.048.192-.072.24-.048.192.144.36.336.528.504l-.048.072zm-2.448-.072c.144.192.24.336.36.456-.12.072-.24.192-.36.192-.192.024-.312-.096-.264-.312.024-.096.12-.168.264-.336zm4.104 16.152c.072.192.144.312.12.408 0 .072-.12.168-.192.24-.048-.096-.144-.192-.168-.288 0-.072.12-.168.24-.36zM92.6 33.672c-.048-.144-.096-.216-.096-.312.024-.048.096-.168.168-.168.048-.024.144.072.144.12s-.072.144-.216.36zm1.032-5.736v-.168c.048-.144.096-.264.24-.168.024.024.048.168 0 .216-.024.072-.144.12-.216.168l-.024-.048zm-2.88-.72l-.216-.072c.024-.048.048-.072.072-.096.048.048.096.12.144.168zm2.904 2.424l-.024.048-.024-.048h.048zm-1.392-3.696l.072-.024-.048.096-.024-.072zm18.766-1.62l-.012.012.012-.012zm0 0l.012-.012c.456-.408.864-.96 1.344-.96.096 0 .192.024.288.024.336 0 .744-.36.936-.36.168 0 .264.264.48.264.288 0 .864-.48 1.104-.48.144 0 .288.192.432.192.216 0 .504-.24.72-.24.192 0 .408.552.696.552.096 0 .144-.024.24-.216 0-.144-.072-.36-.072-.504 0-.144.408-.36.576-.36.12 0 .24.048.36.048.384 0 .816-.432 1.224-.432.096 0 .12.048.12.216v.12c0 .168 0 .24.048.24.072 0 .216-.192.408-.312.048-.024.096-.024.144-.024a.19.19 0 0 1 .192.192c0 .432 0 .888-.144 1.296-.216.624-.744 1.728-1.176 1.728-.168 0-.36-.072-.36-.192 0-.312.36-.384.36-.624 0-.12-.072-.216-.12-.336-.264.384-.84.552-.84.84 0 .072.024.144.072.24 0 .024-.144.144-.192.144a32.82 32.82 0 0 1-1.536-.048v-.029c-.028.373-.844.605-1.08.605-.12 0-.264-.024-.408-.024-.168 0-.36.048-.552.048-.096 0-.192-.072-.288-.072-.168 0-.384.504-.768.504-.912 0-1.824.456-2.688.456h-.216c-1.152 0-.096 1.416-1.2 1.416-.168 0-.216-.048-.216-.144 0-.096.072-.24.072-.336 0-.096-.048-.144-.12-.216-.168.168-.24.48-.24.696 0 .24.24.432.24.672 0 .12-.048.24-.216.312-.528.264-.576.672-.576 1.128 0 .096.024.168.024.264 0 .24-.168.456-.384.456-.288 0-.384-.384-.6-.384-.048 0-.12.096-.12.12 0 .336.216.456.216.648 0 .168-.384.336-.384.552 0 .192.12.384.12.576 0 .216-.408.168-.408.408 0 .168.12.48.144.72.528-.096.36-.912 1.008-.912.144 0 .456.168.552.168.12 0 .36-.72.648-.72.144 0 .432.264.648.264h.144c.096 0 .168.072.216.072.096 0 .24-.552.384-.552.12 0 .408.192.576.192.216 0 .432-.288.672-.288.096 0 .216.12.336.12.144 0 .312-.288.432-.288.216 0 .336.336.48.336.192 0 .552-.576.744-.576.168 0 .384.456.456.456.12 0 .264-.6.504-.6.072.024.12.096.168.144.024.072-.096.432-.096.504 0 .024.096.024.12.024.312 0 .408-.624.816-.624.432 0 .552.192.552.48 0 .096-.024.192-.024.288 0 .048.024.072.024.12 0 .24-.12.384-.336.48-.72.336-1.56 1.344-1.992 1.344-.12 0-.264-.072-.384-.072-.072 0-.144 0-.216.024-1.056.408-2.352.456-3.312.528-.288.048-.672.192-.84.192-.12 0-.264-.072-.384-.072-.576 0-1.104.456-1.68.456-.168 0-.192.432-.384.432-.12 0-.288-.072-.456-.072-.12 0-.216.12-.216.216 0 .24.36.384.36.624 0 .168-.192.384-.24.6 0 .24.024.48.048.744.12-.216.288-.432.384-.648.12-.36.144-.96.6-.96.072 0 .24.024.24.168 0 .024-.024.072-.024.096-.24.456-.504.792-.504 1.152 0 .6.576 1.104.936 1.608.264.384.336.744.408.744.096 0 .36-.216.744-.216.48 0 .6.432.792.432.12 0 .552-.216.864-.216.072 0 .168.024.24.024.384 0 .768-.36 1.08-.36.312 0 .288.696.36 1.104-.552 0-.552 0-.552.576v.168c.192-.24.36-.504.552-.744.432-.336.6-1.224 1.272-1.392 0 .072.024.144.024.216 0 .072-.048.144-.048.24 0 .144.048.24.192.24.288 0 .48-.144.576-.432-.144.072-.24.072-.384.072.12-.48.552-.72.936-.72.12 0 .264.072.36.072.456 0 1.032-.552 1.68-.552.456 0 .744.24.744.6 0 .264-.24.792-.528.792-.096 0-.288-.072-.408-.12 0 .048-.024.096-.024.144 0 .192.096.336.096.432 0 .168-.12.216-.408.408-.792.504-.504 1.176-1.368 1.176-.288 0-.6 0-.888-.024.024-.12.024-.216.024-.288 0-.144-.072-.144-.288-.216l-.024-.024.024.048c.096.168.168.312.264.48-.192.456-.216.6-.792.6-.408 0-.264-.576-.528-.576-.192 0-.408.192-.552.192-.384 0-.48-.552-.84-.552-.48 0 .024 1.2-1.104 1.2-.792 0-.528-1.176-1.128-1.176-.696 0-.504.648-.96 1.248-.048-.072-.192-.144-.192-.24 0-.048.024-.096.024-.12-.048-.096-.096-.168-.12-.24-.384.576-.336.456-.72.552 0-.072-.024-.168-.024-.24 0-.192.096-.336.096-.528-.24.12-.312.672-.648.672-.096 0-.192-.096-.192-.24 0-.24.216-.48.216-.72 0-.072-.024-.12-.096-.12-.072 0-.264.096-.336.096-.167 0-.229-.186-.316-.299-.069.214-.098.467-.38.491-.24 0-.384-.12-.432-.36-.144-.84-.72-.936-.72-2.568 0-.648.168-1.344.168-1.92 0-.168-.072-.336-.072-.504.024-.36.12-.984.24-1.488.216-1.008 1.128-2.928 1.2-4.536.024-.552.264-1.056.36-1.56.096-.528.576-.576.864-1.152h-.144c-.168 0-.288.072-.36.072-.048 0-.072-.024-.072-.096-.024-.12.144-.504.168-.816.072-1.128.624-1.824 1.704-2.232.504-.192 1.152-.576 1.392-.576.144 0 .312.168.48.168.192 0 .432-.192.624-.192.144 0 .216.144.264.264l-.012.012zm-5.283 16.98c-.035-.043-.076-.072-.129-.072-.048 0-.12.072-.192.072h.321zm10.597-16.037c-.006-.071-.022-.133-.022-.211-.024.024-.048.048-.048.072l.07.14zM105.57 38.928c0-.048.024-.072-.048-.072 0 .048-.024.072.048.072zm-.36-.768c.144-.144.264-.264.384-.408-.072-.144-.048-.264-.168-.264-.192 0-.408.24-.408.408 0 .12.096.24.192.264zm9.984 1.944c0 .048-.024.096-.024.144 0 .096.024.216.048.312.024-.432.864-.48.864-.768v-.12c-.144.144-.144.12-.192.312-.144-.024-.264-.072-.408-.072-.048 0-.24.072-.288.192zm-7.08.264c-.144.12-.312.24-.312.24.072.12.168.24.24.336.096-.096.192-.144.192-.264 0-.096-.072-.192-.12-.312zm-2.28-.306c-.006.018 0 .042 0 .066a.314.314 0 0 1 .036-.057l-.036-.009zm1.536-14.334c.072.048.168.096.24.144 0 0 .072-.072.12-.144-.072-.048-.12-.12-.216-.168 0 0-.096.096-.144.168zm.216.768c.024 0 .048-.024.072-.024 0-.024 0-.048-.024-.096-.024.048-.024.096-.048.12zm.192 2.28c.096-.096.168-.144.168-.216 0-.048-.072-.096-.12-.144-.072.072-.144.096-.144.168 0 .072.048.12.096.192zm4.368-4.632a.543.543 0 0 0 .096-.216c0-.048-.024-.096-.096-.12-.24 0-.384.384-.384.576 0 .048.024.072.048.096.216-.096.216-.168.336-.336zm3.24 1.224c.24-.216.36-.36.36-.48 0-.192-.192-.192-.6-.408-.024.288-.048.552-.048.816 0 .048.024.144.072.144a.387.387 0 0 0 .216-.072zm1.992-.672v-.144a.331.331 0 0 0-.072.096c0 .024.024.072.048.096 0 0 .024-.024.024-.048zm10.715 7.752l.24-.072-.216.168c.168.312.12.96.312.96.24 0 .192-.456.696-.456.048 0 .12 0 .144.024.576.672 1.368.264 2.112.816.528.408 1.584 1.896 1.584 1.992 0 .12-.216.144-.576.552.288.192.792.312.792.72 0 .456-.672.48-.672.72 0 .144.288.624.288.84 0 .576-.504.432-1.224 1.008.168 0 .432.264.432.36-.072.12-.12.192-.216.192s-.192-.12-.288-.144c-.696.864-1.536 1.08-2.28 1.776-.504.48-1.536.408-2.184.696-.168.072-.288.12-.432.12-.288 0-.456-.264-.84-.264-.96 0-2.04.456-2.976.456-.432 0-.312-.6-.528-.6-.12 0-.264.144-.408.192l-.192.096.144-.168c-.744-.12-1.248-.576-1.416-1.368-.072-.312-.336-.768-.768-1.104l.024-.024c-.312-.264.072-.96-.144-.96-.072 0-.216.072-.312.072-.36 0-.096-.744-.096-1.176 0-.792.312-1.296.84-1.296 1.152 0 1.488.84 1.68 1.944.12.648.168 1.464.816 2.088.24.264.504.984.528.936.144 0 .336-.648.672-.648.312 0 .432.24.432.432 0 .168-.072.408-.072.504.096.024.216.048.336.048.384 0 .6-.168.6-.576 0-.048-.048-.12-.048-.168 0-.264.024-.432.216-.432.12 0 .336.48.504.432.528-.72 1.416-.168 2.136-.768.384-.336 2.232-.84 2.256-1.656-.216-.744-.144-2.304-.912-2.304-.144 0-.552.216-.816.216-.144 0-.192-.12-.192-.192 0-.192.192-.456.24-.696-.528.288-.792.504-.96.504-.216 0-1.368-.696-1.368-1.248 0-.096.024-.24.024-.336-.24.192-.552.432-.792.432-.264 0-2.352-1.2-2.352-1.224-.144-.216-.216-.528-.408-.624-.192-.096-.456-.072-.72-.192-.696-.24-1.128-1.272-1.128-1.824 0-.528.48-1.008.48-1.56 0-.072-.024-.168-.024-.24 0-.168.12-.264.264-.264.096 0 .144.024.192.024.456 0 .432-.744.696-.744 1.152 0 1.032-1.8 1.992-1.8.336 0 .432.72.6.72.384 0 .672-1.176 1.08-1.32.192-.048.36-.096.552-.096.384 0 .648.192.912.192.168 0 .48-.216.672-.216.384 0 .36.624.696.624.264 0 .384-.456.384-.72 0-.096-.048-.216-.048-.312 0-.168.072-.192.216-.192h.192c.24 0 .48-.192.72-.192.432 0 .696.528 1.104.528.408 0 .912-.312 1.224-.312.192 0 .408.24.648.24.648 0 .672.528.672 1.104 0 .432-.456 1.152-.84 1.152-.288 0-.576-.144-.864-.144-.384 0-.744.072-1.128.072-.192 0-.408 0-.576-.096-.216.192-.384.24-.552.24-.216 0-.408-.12-.624-.12-.336 0-1.512.696-2.016.696-.36 0-.432-.48-.528-.48-.168 0-.36.72-.696.72-.624.072-1.104.624-1.704.816-.672.192-1.92.504-1.92 1.248 0 .264.288.696.552.696.288 0 .552-.12.672-.12.264 0 .048.768.408.768h.144c.432 0 .36.336.768.504.024-.096.12-.216.12-.288-.048-.072-.048-.12-.048-.192 0-.312.192-.48.408-.696.168.072.432.096.456.264.168.744.912.744 1.536.744.216 0 .456-.024.696-.024zm2.424 3.648c-.168.168-.24.312-.24.48 0 .336.792.6.816.624.312 0 .72-.504.72-.6 0-.216-.144-.504-.264-.672-.312.312-.216.504-.456.504-.168 0-.36-.192-.576-.336zm-5.28-2.832c-.024 0-.072.048-.072.048.024.336.24.408.528.456 0-.288-.168-.48-.456-.504zm1.704.288h-.072c.168.096.264.216.528.216.024-.024.048-.12.048-.168 0-.048-.12-.12-.216-.12-.072 0-.192.048-.288.072zm3.768 4.368l-.168.24.144.24c.048-.048.144-.096.144-.144a1.881 1.881 0 0 0-.12-.336zm-2.592 2.664l-.144.192.216.24c.024-.048.096-.12.096-.144-.024-.12-.096-.192-.168-.288zm4.008-12.048l-.264.144a.899.899 0 0 1-.144-.24.573.573 0 0 1 .216-.048c.096 0 .12.072.192.144zm-6.984 2.64h.144c.096 0 .096.192.12.264-.144-.024-.264-.072-.264-.264zm-4.033 6.739v.005-.005zm3.265-9.355c-.048-.072-.12-.192-.168-.192a.182.182 0 0 0-.096.048c.024.048.024.168.12.168.024 0 .072-.024.144-.024zm-.264 14.568l-.168.12-.072-.216c.024-.024.12-.048.168-.048.048 0 .048.072.072.144zm6.48-8.088c-.024.048-.072.144-.072.192l.072.192c.024-.072.072-.144.072-.216 0-.072-.048-.12-.072-.168zm-11.184 5.112c-.024 0-.048-.024-.072-.024.096-.192.12-.144.264-.168-.048.072-.144.192-.192.192zm12.168-.432c-.096.072-.144.144-.144.24 0 .072.024.12.096.168 0-.12.024-.288.048-.408zm-4.824-12.768a.742.742 0 0 1-.048-.192l-.144.072c0 .144.12.12.192.12zm2.52 8.256l.096-.144c-.048-.024-.096-.048-.144-.048 0 .048-.048.096-.048.168l.096.024zm-3.456-8.016l.216-.192-.096-.072-.12.264zm5.52 7.632c0-.048 0-.072-.048-.096-.024 0-.048.024-.072.024 0 .048 0 .096.048.096.024 0 .024-.024.072-.024zm-6.048 8.136v.072c-.048 0-.096.024-.072-.048.024-.024.048-.024.072-.024zm3.072-14.568v.048c-.024.024-.048.024-.072.024l.072-.072zm-1.752 12.96l.096-.144c-.048.048-.096.072-.096.144zm3.79-11.738l-.022-.046c0 .015.01.03.022.046zm0 0a.52.52 0 0 0 .026.026v.024l-.026-.05zm-4.966 1.826l-.024.024v-.024h.024zm-5.808 8.496v.024h-.024l.024-.024zm23.962-7.488l.24-.072-.216.168c.168.312.12.96.312.96.24 0 .192-.456.696-.456.048 0 .12 0 .144.024.576.672 1.368.264 2.112.816.528.408 1.584 1.896 1.584 1.992 0 .12-.216.144-.576.552.288.192.792.312.792.72 0 .456-.672.48-.672.72 0 .144.288.624.288.84 0 .576-.504.432-1.224 1.008.168 0 .432.264.432.36-.072.12-.12.192-.216.192s-.192-.12-.288-.144c-.696.864-1.536 1.08-2.28 1.776-.504.48-1.536.408-2.184.696-.168.072-.288.12-.432.12-.288 0-.456-.264-.84-.264-.96 0-2.04.456-2.976.456-.432 0-.312-.6-.528-.6-.12 0-.264.144-.408.192l-.192.096.144-.168c-.744-.12-1.248-.576-1.416-1.368-.072-.312-.336-.768-.768-1.104l.024-.024c-.312-.264.072-.96-.144-.96-.072 0-.216.072-.312.072-.36 0-.096-.744-.096-1.176 0-.792.312-1.296.84-1.296 1.152 0 1.488.84 1.68 1.944.12.648.168 1.464.816 2.088.24.264.504.984.528.936.144 0 .336-.648.672-.648.312 0 .432.24.432.432 0 .168-.072.408-.072.504.096.024.216.048.336.048.384 0 .6-.168.6-.576 0-.048-.048-.12-.048-.168 0-.264.024-.432.216-.432.12 0 .336.48.504.432.528-.72 1.416-.168 2.136-.768.384-.336 2.232-.84 2.256-1.656-.216-.744-.144-2.304-.912-2.304-.144 0-.552.216-.816.216-.144 0-.192-.12-.192-.192 0-.192.192-.456.24-.696-.528.288-.792.504-.96.504-.216 0-1.368-.696-1.368-1.248 0-.096.024-.24.024-.336-.24.192-.552.432-.792.432-.264 0-2.352-1.2-2.352-1.224-.144-.216-.216-.528-.408-.624-.192-.096-.456-.072-.72-.192-.696-.24-1.128-1.272-1.128-1.824 0-.528.48-1.008.48-1.56 0-.072-.024-.168-.024-.24 0-.168.12-.264.264-.264.096 0 .144.024.192.024.456 0 .432-.744.696-.744 1.152 0 1.032-1.8 1.992-1.8.336 0 .432.72.6.72.384 0 .672-1.176 1.08-1.32.192-.048.36-.096.552-.096.384 0 .648.192.912.192.168 0 .48-.216.672-.216.384 0 .36.624.696.624.264 0 .384-.456.384-.72 0-.096-.048-.216-.048-.312 0-.168.072-.192.216-.192h.192c.24 0 .48-.192.72-.192.432 0 .696.528 1.104.528.408 0 .912-.312 1.224-.312.192 0 .408.24.648.24.648 0 .672.528.672 1.104 0 .432-.456 1.152-.84 1.152-.288 0-.576-.144-.864-.144-.384 0-.744.072-1.128.072-.192 0-.408 0-.576-.096-.216.192-.384.24-.552.24-.216 0-.408-.12-.624-.12-.336 0-1.512.696-2.016.696-.36 0-.432-.48-.528-.48-.168 0-.36.72-.696.72-.624.072-1.104.624-1.704.816-.672.192-1.92.504-1.92 1.248 0 .264.288.696.552.696.288 0 .552-.12.672-.12.264 0 .048.768.408.768h.144c.432 0 .36.336.768.504.024-.096.12-.216.12-.288-.048-.072-.048-.12-.048-.192 0-.312.192-.48.408-.696.168.072.432.096.456.264.168.744.912.744 1.536.744.216 0 .456-.024.696-.024zm2.424 3.648c-.168.168-.24.312-.24.48 0 .336.792.6.816.624.312 0 .72-.504.72-.6 0-.216-.144-.504-.264-.672-.312.312-.216.504-.456.504-.168 0-.36-.192-.576-.336zm-5.28-2.832c-.024 0-.072.048-.072.048.024.336.24.408.528.456 0-.288-.168-.48-.456-.504zm1.704.288h-.072c.168.096.264.216.528.216.024-.024.048-.12.048-.168 0-.048-.12-.12-.216-.12-.072 0-.192.048-.288.072zm3.768 4.368l-.168.24.144.24c.048-.048.144-.096.144-.144a1.881 1.881 0 0 0-.12-.336zm-2.592 2.664l-.144.192.216.24c.024-.048.096-.12.096-.144-.024-.12-.096-.192-.168-.288zm4.008-12.048l-.264.144a.899.899 0 0 1-.144-.24.573.573 0 0 1 .216-.048c.096 0 .12.072.192.144zm-6.984 2.64h.144c.096 0 .096.192.12.264-.144-.024-.264-.072-.264-.264zm-4.033 6.739v.005-.005zm3.265-9.355c-.048-.072-.12-.192-.168-.192a.182.182 0 0 0-.096.048c.024.048.024.168.12.168.024 0 .072-.024.144-.024zm-.264 14.568l-.168.12-.072-.216c.024-.024.12-.048.168-.048.048 0 .048.072.072.144zm6.48-8.088c-.024.048-.072.144-.072.192l.072.192c.024-.072.072-.144.072-.216 0-.072-.048-.12-.072-.168zm-11.184 5.112c-.024 0-.048-.024-.072-.024.096-.192.12-.144.264-.168-.048.072-.144.192-.192.192zm12.168-.432c-.096.072-.144.144-.144.24 0 .072.024.12.096.168 0-.12.024-.288.048-.408zm-4.824-12.768a.742.742 0 0 1-.048-.192l-.144.072c0 .144.12.12.192.12zm2.52 8.256l.096-.144c-.048-.024-.096-.048-.144-.048 0 .048-.048.096-.048.168l.096.024zm-3.456-8.016l.216-.192-.096-.072-.12.264zm5.52 7.632c0-.048 0-.072-.048-.096-.024 0-.048.024-.072.024 0 .048 0 .096.048.096.024 0 .024-.024.072-.024zm-6.048 8.136v.072c-.048 0-.096.024-.072-.048.024-.024.048-.024.072-.024zm3.072-14.568v.048c-.024.024-.048.024-.072.024l.072-.072zm-1.752 12.96l.096-.144c-.048.048-.096.072-.096.144zm3.79-11.738l-.022-.046c0 .015.01.03.023.046zm0 0a.52.52 0 0 0 .026.026v.024l-.025-.05zm-4.966 1.826l-.024.024v-.024h.024zm-5.808 8.496v.024h-.024l.024-.024z"/>
</svg>
