<svg xmlns="http://www.w3.org/2000/svg" xmlns:xlink="http://www.w3.org/1999/xlink" width="87" height="80" viewBox="0 0 87 80">
    <defs>
        <path id="a" d="M0 .116h.5v.59H0z"/>
        <path id="c" d="M.076.063h68.762V20H.076z"/>
    </defs>
    <g fill="none" fill-rule="evenodd">
        <path fill="#202020" d="M83.016 25.335c.133.315.401-.194.484-.225-.342-.376-.562.342-.484.225M82.375 25.375l.125-.081L82 25zM80.024 23c-.159.396.53.529.665.897L80.66 24l.339-.072c-.324-.31-.851-.62-.976-.928M80.216 21c-.137.332-.53-.214.284.5-.009-.066-.004-.091-.006-.133a3.205 3.205 0 0 1-.278-.367M81 21.164c.43.444-.004-.533 0 0M80.001 20.326l.494.174c.043-.14-.224-.42-.035-.382-.428-.236-.468-.094-.459.208M79 21.003l.397.208c.028-.124-.019-.23-.397-.208"/>
        <path fill="#202020" d="M79.5 21.443L79.047 21c-.026.203-.162.443.195.225-.153.156.032.084.258.218M80.19 21c.057.411.185.856-.19.554.522.881.714.33.19-.554M80 23.023l.102.384.398.093c-.198-.047-.351-.62-.5-.477M78.364 19c-.169.052-.219.274-.364.382l.5.118c-.078-.148-.32-.385-.136-.5"/>
        <path fill="#202020" d="M78.5 19.376L78 19c.287.589.416.576.5.376M79.11 21.135l.89.365-1-.5zM77.391 18.103l.609.01L77 18zM76.623 18c.338-.021.101-.633.377-.56-.284-.283-.663-.365-1-.44.287.164.492.462.623 1M76 16c.138.108.312.163.5.229A.883.883 0 0 0 76 16"/>
        <path fill="#202020" d="M77.234 18.5c.053-.075.225-.254-.008-.5l-.226.363.234.137"/>
        <path fill="#202020" d="M77.489 18.5l.005-.019L77 18l.489.5M77.072 19.067a7.939 7.939 0 0 0-.059-.067c-.023.068-.024.097.06.067M79 20.18c-.447-.102-1.182-.484-.959.32.417-.013.287-.473.959-.32"/>
        <path fill="#202020" d="M77 19l.264.5c.055-.08.086-.266.236-.222L77 19z"/>
        <path fill="#202020" d="M77 19.094l.466.2-.2-.294zM76.87 17.563c-.352-.076-.59-.31-.87-.563.21.365.459.709.729 1 .14-.065.445-.128.14-.437M77.09 18.041c-.03-.01-.06-.032-.09-.041 0 .079.019.123.09.041M74.024 15l-.024.14.091-.067-.067-.073z"/>
        <path fill="#202020" d="M76.04 17.118c.114.303.28.356.46.382a3.455 3.455 0 0 1-.447-.5c-.053.031-.08.06-.013.118M75 16.003c.055.163.144.33.249.497-.002-.191-.078-.538-.249-.497M77 18.1c.021.009.043.014.063.025.005-.191-.031-.133-.063-.024M76.5 18.12c-.161-.088-.335-.099-.5-.12.16.144.318.264.475.343a.998.998 0 0 1 .025-.223M72.257 15.625c.204-.129.72-.014.81.362.423.109.847-.506.933-.964-.09.057-.162.113-.572-.023.008.155.424.681.008.623-.485-.222-.258-.292-.353-.512-.065.301-.836-.108-1.083.224l.463.16c-.046.047-.254.02-.206.13M74.777 15.87L75 16c-.164-.227-.203-.459-.264-.898-.451-.147-.62-.11-.736-.045l.884.83-.107-.017z"/>
        <path fill="#202020" d="M75.676 16.519c-.281.1-.636-.096-.676.282.345.327.393.078.676.199-.586-.503.262.052-.018-.455.139.076.244.164.342.248a2.881 2.881 0 0 1-.19-.373v.024l.002.003-.003.001c0 .048-.008.07-.02.03-.004 0-.012-.005-.015-.007a.34.34 0 0 1-.097.047c-.116-.2.025-.075.097-.047.011-.008.024-.013.035-.023v-.004l-.323-.224-.326-.22c.09.143.241.28.516.519M77.074 20.16c.003-.08.04-.109.07-.144-.137-.033-.206-.03-.07.145M77 19.69c.077.014.208-.025.328.12.054.163-.113.083-.183.147.148.03.47.142.313-.184l-.075-.014c-.164-.275-.193-.772-.117-.759-.138.222-.224.39-.266.69M77 18.402L76 18l.103.433.168-.12c.393.327.525.135.729.089M74.526 15.345L75 15l-1 .073z"/>
        <path fill="#202020" d="M74.131 15.484l.369-.377L74 15zM34.422 3L34 3.194c.201-.064.329-.128.422-.194M36.073 3.295L36.137 3c-.138.165-.193.286-.064.295M58.5 5c-.188-.545-.356-1.313-.458-.866L58 4.607c.24.064.39.215.5.393M46 2.305l.12.195.38-.5-.5.305M45.5 3.5L45 3a2.1 2.1 0 0 0 .5.5M28.373 5L28 5.5c.77-.1.371-.277.373-.5M68.5 10.941c-.167-.438-.333-.727-.5-.941.18.573.234 1.196.5.941M35.366 0c-.27.135-.38.274-.364.418.278-.128.432-.262.364-.418M67 9c.031.057.076.1.113.153.302.083.597.176.887.347-.18-.265-.456-.512-1-.5M7.155 14c-.051.01-.102.035-.155.037.051.073.1.035.155-.037M1 17.5c.073-.132.248-.32.407-.5-.119.067-.25.214-.407.5M72 13c.344.252.097-.008 0 0M72.337 15a.424.424 0 0 0-.337.123c.13-.092.24-.127.337-.122M65.028 9.023L65 9c.027.177.023.144.028.023M72.275 13.5A2.43 2.43 0 0 0 72 13c.032.095.112.25.275.5"/>
        <path fill="#202020" d="M72 13c.09.12.165.209.234.295.113-.044.123-.127-.234-.295"/>
        <path fill="#202020" d="M72 13c.188.152.336.322.467.5-.032-.087-.034-.136-.003-.138-.1-.074-.239-.18-.464-.362M17.248 6.02c-.033-.007-.067-.007-.105-.02-.267.412-.119.3.105.02M54 5.056c.02 0 .035-.014.053-.015L54.005 5 54 5.056zM53 6c.5-.292.688-.191.924-.04L54 5l-.504.499L53 6z"/>
        <path fill="#202020" d="M15.818 5.375l.128.017c-.181.175-.153.082-.128-.017m55.231 6.702c.066.006.089-.025.096-.068-.074.027-.17-.048-.263-.152-.017.079.004.161.167.22m-.335-.44l-.019.003c-.133-.245-.089-.155.019-.002M47.238 2.74c-.098.075-.22.01-.353-.112.11-.007.23.023.353.112m-8.957.052c-.113.054-.335.233-.42.078.122-.314.226-.17.42-.078m-5.814.532l.411.17c-.425.413-.77.331-.376.592-.034-.775 1.482-.226 1.466-.987l.27.136c-.074 0-.082.045-.155.045.526.318.324-.587.98-.517.23.045.394.145.246.245l.49-.218c.147.006.118.14-.028.134l.38-.053c.19-.03.382-.046.382-.046l-.005.022c.104-.122.345-.313.464-.395.2.103-.095.083-.042.176l.42-.196c.179.192-.168.393-.461.373.419.748.347-.202 1.21.218 0 0-.1.025-.199.053l-.198.054c.264.42.57.263 1.018.534-.103-.14-.904-.678-.448-.867.13.057.3.085.549-.068.003.27.244.204.547.189l-.024.358c.326-.103.303-.287.498-.445.365.047.434.326.512.562.579.075-.39-.457.302-.503.481.155.826.009 1.42-.163.334.144-.072.215.044.325l.319-.267c.074.012.044.098.029.141.261-.095.044-.356.453-.428.068-.192.266-.04.509.119.243.16.531.318.8.118.112.113-.08.213-.056.355.706-.227.602-.168 1.204-.493l.447.292c-.316-.31.168-.57.6-.78-.108-.145-.201-.27-.267-.333l.662-.112c.07.067-.013.181-.137.317.047-.024.092-.048.128-.071.208.159.06.349-.128.527a6.932 6.932 0 0 1-.197-.247c-.185.196-.36.417-.356.63a.45.45 0 0 1 .217-.071c-.048.053-.08.102-.067.14.017.04.092-.03.206-.108l.087.412.056-.152s.195.084.387.18l.385.185c.637-.306 1.249-.822 2.21-.802-.287.244-.14.46-.22.798-.182-.403-.736.011-1.199-.128.242.076.16.23.087.277 0 0 .226-.053.45-.093l.454-.085c-.072.275.14.242.337.398-.06-.578.704-.257 1.082-.345-.02.192-.14.352-.549.23.373.5.734-.518 1.112-.07-.103-.019-.152-.059-.213.026.275-.112.83.146.654.275l-.102-.019c.164.055.379.105.6.157.222.054.46.1.684.123.225.024.437.028.61-.002.17-.024.3-.08.36-.186a3.997 3.997 0 0 1-.322.602s.404-.293.826-.582c.42-.29.857-.573.857-.573-.237.356-.167 1.398-.781 1.45a.904.904 0 0 0 .67.208c-.082-.092-.06-.652.097-.635.238.57.193.33.535.866-.125-.138.28-.675.526-.564-.074.075-.215.596-.33.626 0 0 .212-.093.423-.174l.427-.166c-.198.042-.233.483-.169.702-.014-.14.516.223.701.232l-.196-.24c.323.18.577.062.842-.072.264-.133.535-.27.87-.1-.141.08-.553.631-.25.857.296-.223 1.386-1.05 2.12-.963l.027.22.558.064c-.263.137-.711.313-1.175.497-.462.179-.928.344-1.23.415.18.254-.03.23.345.398.049.219-.321.133-.433.089l.797.524c.144-.356.825.016.949-.275l-.556-.08c-.137-.021-.278-.034-.382-.046l-.174-.018c.07-.176.33-.346.65-.423.317-.072.69-.046.98.149.079.215-.45.521-.5.638.142-.07.697.093.703.207l-.178.016-.178.018c.26.3.795-.12 1.005.418.124.101.147.651.29.475.01-.494.667-1.656.994-1.84.04.048.51.8.547 1.075.038.424-.778.465-.746.828.064-.082.257-.112.33-.114.093.163-.234.231.098.384.266-.29.603.426.326-.178.361.102.27.274.629.49.029-.278.795-.483 1.163-.37-.074.067-.081.217-.083.287.291.227.492.433.689.631.199.197.39.39.664.598-.006.111.19.397-.024.444.12.004.272-.045.447.074.122.504-.408-.239-.405.26.158-.16.627.08.95.159.07-.163-.056-.284-.242-.37a3.095 3.095 0 0 0-.597-.172c.288-.376 1.025-.462 1.735-.181.53.263.003.392.125.401.795.73 1.254-.058 1.735.77.075.46-.382.467-.465.683-.435-.208-.43-.598-.684-.79l.21.356c-.181-.017-.47-.154-.546-.328.028.198.37.493.766.829.392.34.832.726 1.062 1.086.178.022.44.11.432-.059l-.225-.141c-.018-.342.598.075.425-.23.38.106.865.17 1.144.603l-.168.316c.063-.082-.1-.37-.278-.383.264.023.245.851.725.674l-.094-.41c.381.114.967.142 1.215.526.09-.383-.1-.043-.057-.544-.142.544-.829-.784-.863-.107.08-.557-.279-.521-.331-1.092-.068.093-.035.26-.278-.029a.493.493 0 0 1-.13.02c-.007-.01-.008-.014-.013-.023a.863.863 0 0 1 .006.024c-.024.002-.027.004.003.008a.435.435 0 0 1 .026.254c-.318.072-.754-.329-1-.354-.132-.184.158-.038.147-.207l-.363-.042c.146-.208-.172-.697.327-.47l-.353-.314c-.117-.288-.38-.573-.632-.641-.139-.183-.619-.142-.34-.17l-.338-.174c-.168-.088-.341-.17-.341-.17l.035-.053c-.28-.238-.643-.388-.982-.586-.343-.195-.666-.433-.863-.866-.236-.098-.49-.183-.787-.479l.064-.222c-.304-.122-.653-.732-.904-.618.027-.336-.28-.58-.643-.788-.362-.21-.793-.364-1.002-.56l-.174.228a2.86 2.86 0 0 0-.518-.276 9.387 9.387 0 0 0-.638-.214l-.106.23c-.232-.016-.436-.188-.656-.395-.222-.204-.466-.435-.76-.581.087-.063.221.039.295.146-.204-.432-.616-.551-1.038-.623-.42-.074-.836-.123-1.061-.467a.438.438 0 0 1-.39-.185c.016.006.031.008.046.007a.487.487 0 0 0-.065-.034c-.052-.071-.104-.15-.167-.223a.798.798 0 0 0 .131.208 2.289 2.289 0 0 0-.542-.138l.035-.281c-.016-.004-.028-.01-.046-.013-.142-.174-.2.05-.19.279a.986.986 0 0 0-.311.037c.032-.467-.55-.07-.57-.582-.216.157-1.015-.235-1.294.184.016-.06-.029-.109.075-.075-.191-.127-.385-.255-.622-.198l.029-.354-.62.267c-.214-.287-.298-.44.076-.6-.822.17-.614-.031-1.317.171l.094-.203c-.211-.064-.634.145-.71-.068-.179-.258-.769-.45-1.444-.597-.339-.08-.7-.163-1.049-.268-.349-.102-.688-.21-.976-.366.114.686-.516-.393-.659.095-.043-.165-.2-.283.024-.377-.654.035-.91-.394-1.414-.044-.048-.164.17-.202.12-.303-.056.025-.221.102-.273 0-.051-.1.112-.113.223-.164-.654-.075-.787.386-.897.823-.295-.25-.464-.24-.736.021-.094-.158-.265-.333.142-.336-.221-.049-1.353-.384-1.415-.02-.061-.097-.313-.056-.376-.02-.504-.068-.546-.104-1.045-.116l.133.07c-.231.41-.42.064-.824.09l.014-.042c-.9-.367-.404.122-1.292-.285l.037.27c-.11.574-.788-.365-1.326-.161l.186.16c-.29.186-.787-.811-1.083-.879-.063-.05.102-.08.192-.117-.765-.342-.103.351-.672.432-.105-.19.136-.482-.25-.518-.096-.076-.375.076-.693.206-.318.137-.675.249-.942.075.12.142.237.285-.022.402-.2.032-.478-.098-.75-.177-.273-.075-.54-.092-.709.148-.053-.037-.075-.074-.079-.11-.302.138-.99.254-1.154.52-.178-.45-.65-.294-1.078-.133-.43.159-.816.329-.86-.093l-.939.16.014-.09c-.612.016-.798.247-.977.485-.146-.037-.057-.131-.052-.177-.901-.034-.991.006-1.645.552l-.125-.26c-.085.098-.419.049-.833.035a3.693 3.693 0 0 0-.66.03 1.73 1.73 0 0 0-.64.236.189.189 0 0 1 .066-.142c-.443.267-1.06.19-1.583.214-.52.02-.95.106-.991.638l-.28.198c-.139.1-.276.207-.276.207.821-.148 0 .455.374.524-.293.147-.89-.06-.521-.221l.074.031c-.005-.547-1.044.108-1.13-.241-.396.114-.785.242-1.18.346-.391.11-.791.193-1.178.305-.774.221-1.552.414-2.264.725l.33.305-.503.19c-.169-.03-.309-.216.053-.354-.283-.13-.513.434-.483.519-.762.15.065-.552-.15-.468l-.277.153.086.015c-.16.257-.1.43-.525.612-.3.053-.25-.161-.36-.125-.013-.027-.054-.022-.165.066l-.631.267.396.168c-.198.268-.573.275-.127.451-.333-.142-.915.113-1.453.4-.271.14-.52.306-.727.43-.206.124-.367.208-.451.207-.234.418-.594.617-1.032.883.144-.014.41.248.021.452-.291-.709-.859.17-1.472-.061.472.1-.968.82-.252.929-.333.169-.19-.212-.525-.186-.132.19-.306.343-.498.487-.189.15-.401.284-.623.418-.443.27-.936.53-1.302.943.055.084.293.074.22.34l-.769.023c-.128.18.252.545-.282.562.1.022.25.056.166.176-.46.289-.869.647-1.252 1.03-.376.391-.703.832-1.052 1.25-.086.107-.176.209-.26.316-.082.109-.166.217-.252.323-.171.212-.35.419-.542.617-.394.386-.786.774-1.296 1.092.332-.134.233.038.11.226.123-.094.203.138.333.19l-.418.266a4.308 4.308 0 0 0-.28.19l-.125.09c.233.337-.492.841-.23 1.102l.093-.275c.17.53 1.089.033 1.522.368-.05-.148-.001-.257.095-.35.096-.092.24-.168.393-.247.301-.161.593-.354.5-.82.175-.056.072.201.22.209-.092-.266-.023-.468.29-.703l.021.067c.614-.855 1.06-1.085 1.968-1.847l-.26-.11c.196-.167.295-.15.424-.194-.11-.487-.492.515-.654.023.16.026.315-.044.467-.16.076-.057.151-.127.226-.201.08-.071.159-.147.238-.222.316-.3.63-.585.93-.447.276-.273-.302-.137-.024-.41l.191.045-.079-.22a.47.47 0 0 1 .563.013c-.057.029-.103.145-.143.198.381-.077.643-.67.772-.699l-.347.174c.17-.206.367-.407.578-.602l.674-.558c.227-.186.444-.382.65-.578.211-.191.402-.394.56-.615l-.14-.053c.505-.653.586-.28 1.252-.845l-.01.042c.074-.199.234-.381.442-.502-.1.244.506.008.356.304.286-.344.355-.435.373-.535.019-.1-.01-.204.112-.55l.225.11c.068-.26.03-.354.381-.627-.217.338.405.128.182.537.507-.046.748-.298.95-.508.2-.208.363-.367.707-.174.096-.707-.855.097-.707-.123-.269-.07.098-.543.385-.632.268-.134.795.417 1.45.09-.067.03-.052.07-.119.1.313.012.398-.414.807-.346.018-.4.41-.158.27-.585l-.29.182-.284.193c.29-.279.414-.881 1.107-.91-.01.101-.136.284-.229.395.225.046.294-.22.526-.174.13.428-.72.416-.952.885.26.092.576-.599.588-.08.02-.674.692-.216.966-.839l.072.257c.058-.066.162-.24.3-.286l-.112.412c.264-.415.818-.036 1.116-.321-.748.294-.286-.235-.677-.293.812-.686.783.428 1.788-.041-.13.083-.59.029-.408-.162.22-.016.52-.008.688.083.679-.287-.196-.224.049-.478.343.23.3-.249.584-.436l.085.257c.863-.069.048-.6.846-.613l-.203.449.354-.203.008.317c.348-.339.495-.322.93-.339-.145-.16-.074-.486.293-.587.291.092-.075.284.435.116-.076.193-.15.43-.439.247 0 .09-.072.192-.073.282.314.112.682-.127.868-.177-.074.009-.163.016-.217-.01l.33-.276.335-.265c.143.072.066.172-.009.27.147-.061.224-.206.445-.277-.01.227.055.445-.238.614l.663-.393c.069.083.423.177.347.276.419.032.893-.604 1.457-.54.02-.047.068-.097.175-.149.51-.048.997.165 1.545-.227l.395.337c.453-.157-.53-.425.228-.681.538-.192.252.307.46.392.246-.228.68-.691 1.226-.43-.161.09-.299.051-.453.098"/>
        <path fill="#202020" d="M45.175 3.405c-.068-.131-.075-.267-.077-.405-.132.106-.152.245.077.405M28.07 4.001c-.017-.003-.031.002-.047 0A.377.377 0 0 0 28 4.14L28.07 4zM63.316 9.5c-.182-.198-.245-.358-.26-.5-.108.115-.08.276.26.5M72.5 14.33L72 14c.218.187.224.34.278.5.062-.093.085-.296.222-.17M74.075 17.31c.116.026.152.166.268.19l.157-.229c-.308-.332-.656-.404-.425.04M72.054 15c-.169.228.09.337.342.5-.014-.011-.027-.021-.038-.036.335-.226.014-.346-.304-.464M73 15c.151.116.296.243.408.397.271-.195-.115-.217-.408-.397M71.373 13.434c.106.27.545-.39.519-.136.635-.305-1.787-.533-.519.136"/>
        <path fill="#202020" d="M72.242 15.5l.258-.5-.5.143zM71 14.02l.31.48c.038-.06.111-.042.19-.005-.226-.252-.434-.58-.5-.475"/>
        <path fill="#202020" d="M72 15c.168.227.342.422.5.452-.099-.111-.315-.347-.5-.452"/>
        <path fill="#202020" d="M72.5 15.5l-.094-.189L72 15zM67.5 11.375L67.055 11c-.11.096-.048.32.123.447.142.017.312.145.322-.072M68.5 13.5c-.103-.206-.03-.302-.007-.5l-.493.466.5.034zM67.82 12.05c-.203.134-1.394-.398-.478.408.201-.132 1.014.376.478-.407M63 7.893l.119.107.381-1zM57 6.371c.612.419.416-.355.938.08.265-.098-.427-.355-.173-.43-.533.01-.701-.166-.765.35M58 6.046c.136-.003.285-.014.453-.044-.242-.009-.367.014-.453.044M.497 18L0 18.5l.5-.19z"/>
        <g transform="translate(0 19)">
            <mask id="b" fill="#fff">
                <use xlink:href="#a"/>
            </mask>
            <path fill="#202020" d="M.5.323L0 .116l.26.59C.293.58.36.335.5.323" mask="url(#b)"/>
        </g>
        <path fill="#202020" d="M38.455 4.5l.045-.214c-.09-.232-.226-.249-.5-.286l.455.5zM34.227 3.495l.191.005L34 3zM31.045 4.49c.308-.009.645-.258.955-.266-.646.257-1.157-.808-.955.266M72.022 24.005c.1-.003.062-.005.078-.005-.165.01-.075.002-.078.005M72.002 25.298l.03.202c-.014.004-.032-.5-.012-.5-.013-.001-.025.3-.018.298"/>
        <path fill="#202020" d="M72.354 24.295c.238-.285-.1-.314-.08-.228a.29.29 0 0 1-.103.106c-.037.024-.064.027-.083-.03V24l-.051.25-.037.25c.034-.04.111-.138.189-.204a.297.297 0 0 1 .018-.045c.007-.012 0-.024.051-.02a.267.267 0 0 1 .096.02.155.155 0 0 1 .037.022l.002.001.001.001-.063-.01.004.004.007.008.012.018zM72.129 25.288c.075-.412.255-.297-.129-.174.004.049 0 .076 0 .11.03.003.07.016.129.064M72.068 25c-.149-.013-.008.362 0 0"/>
        <path fill="#202020" d="M72.295 25l-.29.187c-.032.154.116.218.004.313.248-.086.279-.24.286-.5M73.144 25l-.14.122c-.013.105.002.147.14-.122"/>
        <path fill="#202020" d="M72 25.5l.298-.253c.022-.17.118-.498-.127.085.106-.293-.02-.018-.171.168"/>
        <path fill="#202020" d="M72.228 25.499c-.037-.173-.129-.296.162-.499-.396.024-.558.525-.162.499M72.239 24.335l-.025-.172a9.545 9.545 0 0 0-.009-.063l-.002-.014c.011.001-.026-.012.025 0l-.001-.007-.005-.026-.009-.053-.213.316c.053-.078.102.01.147.076l-.035-.009v.001l.002.002.001.003.005.006.007.012.017.02c.01.011.02.018.031.018.021 0 .041-.029.064-.11M73.03 25.5c.077-.122.111-.34.181-.5l-.211.119c.025.096.118.197.03.381"/>
        <path fill="#202020" d="M73 25.342l.316-.313c-.17-.099-.256.07-.316.313M73.447 25l-.447.5.5-.494zM73.266 25.165L73 25.5l.433-.5z"/>
        <path fill="#202020" d="M73.22 25c-.178.202-.08.382-.22.5.137-.017.328-.183.5-.333-.142.075-.233.033-.28-.167M74.322 25c-.088.083-.2.244-.322.416.09-.078.191-.2.322-.416"/>
        <path fill="#202020" d="M73.055 25c-.023.102-.096.366-.025.5l.103-.475a13.586 13.586 0 0 1-.078-.025"/>
        <path fill="#202020" d="M73.003 25l-.003.02c.083.04.14.072.163.087l-.16-.107"/>
        <path fill="#202020" d="M73 25.048l.02.009c.01-.064.011-.084-.02-.009M73 26c.219-.257.572-.502.487-1-.208.33-.158.613-.487 1M73.36 25.182L73.186 25c-.045.145-.076.365-.186.5l.36-.318zM73.165 25l-.165.164.065.075zM74.056 25.5c.173-.224.282-.216.41-.224-.087-.148-.196-.245-.319-.276-.074.175-.23.484-.091.5"/>
        <path fill="#202020" d="M73 25.075c.01-.013.021-.017.031-.03.003-.056-.003-.074-.031.03M74.021 25.117l.015-.117-.036.105.021.012zM74.267 25.063c-.057-.147-.158-.013-.267.16a.394.394 0 0 1 .254-.04c.034-.085.052-.142.013-.12"/>
        <path fill="#202020" d="M74.065 25.386a2.263 2.263 0 0 0-.061-.386c-.01.209-.004.54.061.386M73.024 25c-.007.008-.015.018-.022.023-.008.14.007.076.022-.023M73 25.34c.075-.075.157-.215.236-.34a.687.687 0 0 0-.217.16c-.001.047-.01.117-.019.18M74.897 24c-.11.303-.35.547-.368.185-.2.196-.452 1.224-.529 1.815.048-.132.089-.255.276-.402.01-.179-.154-.467.045-.714.221-.112.103.145.132.329.056-.4.399-.497.547-1.067l-.214.157c.026-.088.126-.212.111-.303"/>
        <path fill="#202020" d="M74.11 25l-.11.025c.072.07.076.208.075.475.23-.13.323-.24.39-.343l-.411-.115.055-.042z"/>
        <path fill="#202020" d="M74.147 25.803c.146-.319.313-.425.353-.802-.156-.018-.193.246-.328.365.267-.016-.128.164-.014.398a.282.282 0 0 1-.158.051c.03.052.056.114.076.185l.001-.022h-.001l.001-.004c.003-.044.008-.07.012-.044.002-.003.005-.004.007-.005.016-.045.034-.083.05-.12.049.087-.016.087-.05.12l-.019.05v.003l.299-.114c-.037-.06-.103-.068-.229-.061M73.03 24c-.004.058-.017.102-.03.148.05-.069.076-.117.03-.148M73.357 24.15c-.056.043-.155.173-.235.122-.03-.114.089-.16.145-.272-.109.08-.34.208-.244.402l.055-.041c.105.143.091.597.037.639.117-.311.191-.534.242-.85"/>
        <path fill="#202020" d="M74 25.5l.439-.127-.018-.373-.087.206c-.16-.118-.236.141-.334.294"/>
        <path fill="#202020" d="M74.241 25.13L74 25.5l.477-.5z"/>
        <path fill="#202020" d="M74.186 25l-.186.5.222-.273zM82.317 25.27L82 25l.317.27M82 25l.5.452A15.12 15.12 0 0 0 82 25M79.026 26c-.01.28-.088.702.085.39l.14-.31c-.138.04-.197-.005-.225-.08M82.224 26.173L82 26l.468.5c-.076-.1-.157-.21-.244-.327M82 25l.5.5c-.166-.172-.333-.34-.5-.5M81.5 24.5L81 24c.009.027.256.26.5.5M76 25.148c.056.21.128.31.209.352-.049-.301-.014-.73-.209-.352M86.5 28.5a6.323 6.323 0 0 0-.5-.5c.158.177.32.344.5.5M77.373 26.167c-.005-.07-.017-.108-.025-.167-.125.076-.245.133-.348.058.035.3.118.505.373.109M80.013 20.06c.023-.02.032-.038.061-.06-.084.026-.083.043-.061.06M82 17c.052.029.073.096.102.156.032-.044.013-.095-.102-.156M75.057 25c-.108.012-.036.064 0 0M75 25.291a1.506 1.506 0 0 1 0 0M78 25.085l.007.005c.008-.131.006-.106-.007-.005"/>
        <path fill="#202020" d="M75 25a.697.697 0 0 0 .067.221A.722.722 0 0 0 75 25"/>
        <path fill="#202020" d="M75.095 25.085c-.025-.038-.046-.06-.066-.085-.043.1-.051.169.066.085"/>
        <path fill="#202020" d="M75.144 25.111c-.058-.006-.1-.05-.137-.111.007.049.004.085-.007.105a.9.9 0 0 1 .144.006M82.144 23.035l.051-.035c-.277.038-.226.049-.05.035M81.004 25l-.004.03.008.028-.004-.058zM81.11 25c.02.335-.052.286-.11.208l.079.395.098.397s.008-.247-.01-.497a5.776 5.776 0 0 0-.056-.503"/>
        <path fill="#202020" d="M83.24 21.368l-.057.05c-.094-.02-.022-.034.057-.05m-7.33 3.876a.249.249 0 0 0-.04.11c.03-.065.058-.062.084-.034.012-.072.01-.125-.044-.076m.089.153a.547.547 0 0 0 .007-.012c.028.121.02.074-.007.012m5.689-.3c-.061-.114-.004-.05.113.096 0 .024-.031.004-.113-.096m.35-.593c-.09-.088-.394-.369-.092-.105.562.502.272.256.092.105m-.439-.64l-.35-.232c-.61-.45-.4-.297-.905-.646.626.434.667.474.708.514.04.04.081.08.741.582l-.267-.192c.01.005-.068-.055-.058-.05-.621-.46.974.765.825.696a5.183 5.183 0 0 1-.453-.35l.366.324a2.677 2.677 0 0 1-.243-.201l.15.164-.042-.035.266.233.48.43c-.194-.153-.16-.144-.334-.29l.372.35c-.203-.17-.37-.32-.504-.441-.138-.125-.223-.206-.204-.197-.707-.594-.618-.519-.445-.363.163.146.37.343-.072-.029l-.15-.149c-.817-.711-.539-.459-1.025-.895l.754.675c.325.287.67.587.819.733-.118-.097-.178-.144.064.094-.475-.435-.377-.334-.378-.317l-.605-.57.709.696c-.095-.067-.543-.5-.916-.865-.056-.047.12.126.325.324.204.198.439.422.459.465-.257-.226-.05-.005.18.295-.21-.197-.3-.327-.455-.484l.363.417c-.018-.013-.133-.142-.192-.207.121.156.484.531.554.657.25.288.025.065-.182-.146-.21-.211-.393-.407-.163-.097-.134-.15-.249-.311-.416-.511.138.2.177.27.235.358.056.088.13.195.293.457l-.158-.174-.152-.172c.32.386.581.807.731 1.134.15.185.288.348.359.428l.01.107.002.104c-.075-.086-.166-.246-.278-.441l.05.107c-.177-.195-.326-.463-.478-.724l.25.314a12.289 12.289 0 0 0-.584-.896c.034.055.056.1.061.123a3.523 3.523 0 0 0-.132-.2c-.039-.051.028.054.096.173l-.385-.546.14.212-.161-.182-.15-.18c.273.515.607 1.252.485 1.392-.127-.353-.28-.599-.486-1.034.13.237.138.197.118.11-.018-.087-.068-.223-.01-.165-.062-.06-.17-.271-.206-.343a3.494 3.494 0 0 0 .122.396c-.176-.359-.156-.277-.249-.431.352.71.129.44.159.635-.092-.23-.173-.462-.099-.39-.139-.27-.066-.07-.008.133.062.204.111.413-.001.186.014 0 .036.037 0-.077.033.19-.117.002-.151-.184h.013c-.117-.107-.266-.086-.236.436l-.075-.744s.027.44-.005.86c-.027.423-.112.828-.112.828.011-.217-.015-.597-.02-.946-.008-.35 0-.672.026-.789-.022-.069-.038-.147-.081-.004.007.064.03.644.002.676-.033-.254-.037-.32-.047-.38-.009-.06-.023-.111-.033-.323.012.097-.076.76-.131.722.02-.097.085-.655.106-.72 0 0-.04.157-.091.31-.05.155-.113.305-.113.305.052-.106.106-.542.131-.726-.01.064-.025.056-.042.04-.02-.018-.026-.039-.06-.016.009.003 0 .157 0 .157-.01-.016-.017-.012-.038 0a.248.248 0 0 0-.07.072c-.05.07-.104.174-.159.28-.11.214-.22.435-.302.393.058-.122.283-.776.218-.88-.133.306-.627 1.478-.852 1.677l.024-.191-.178.171c.213-.457.714-1.403.94-1.762-.022-.164.046-.22-.057-.233.015-.181.129-.243.16-.244l-.195-.18c-.099.376-.283.32-.365.633l.36-.31c-.099.374-.452 1.012-.594.898.002-.161.225-.653.257-.778-.058.121-.224.198-.212.103l.126-.178c-.049-.167-.29.448-.295.06-.03-.035.03-.512-.041-.294-.064.443-.436 1.759-.57 2.065-.005-.032-.077-.464-.058-.687.036-.351.324-.765.356-1.067a1.08 1.08 0 0 1-.129.253c-.014-.1.108-.31.01-.29-.124.372-.164-.084-.133.306-.115.083-.066-.104-.169-.117-.04.253-.33.802-.445.885.033-.094.051-.225.059-.285-.16-.085-.202-.284-.36-.336.012-.096-.032-.23.048-.382-.042.06-.1.182-.152.176 0-.355.124-.017.166-.432-.07.218-.215.265-.325.38-.078.345.142.114.252-.001-.136.466-.4.918-.63 1.084-.166.076.03-.319-.011-.26-.225-.156-.45.751-.557.352.005-.322.169-.592.214-.812.14-.08.11.238.186.248l-.049-.167c.064-.09.157-.142.171-.045.01-.287-.404-.177-.523-.482-.063.09-.152.175-.16.303l.073-.023c-.014.256-.21.297-.167.432-.13.144-.299.381-.373.211l.078-.345c-.027.1.015.224.077.13-.091.137-.04-.512-.223-.083l.012.259c-.132.146-.338.475-.408.338-.052.348.035-.032-.008.382.08-.507.253.099.303-.444-.06.477.071.232.054.649.03-.113.029-.225.098-.144.013-.031.034-.07.047-.093l.003.01v-.014c.008-.016.01-.02 0-.005a.659.659 0 0 1 .006-.183c.117-.244.25-.195.334-.315.035.069-.058.122-.066.25l.127-.178c-.066.25.013.453-.148.563l.103.043c.023.159.093.24.177.152.035.069.208-.236.107-.055l.213-.103-.017.062c.157.082.462-.308.52.198.074-.046.154-.105.226-.007l-.044.22c.093-.052.151.281.248.067-.092.601.31.231.406.372l.087-.28c.082.042.188-.012.329-.092l.066-.25c.152-.175.186.249.34.268-.037.091-.067.055-.077-.01.011.614.489-.295.528.16.067-.078.086-.038.096.032-.004 0-.009.004-.014.01.003.005.01.007.015.009.005.048.009.103.017.148 0-.065 0-.12-.008-.146.032.004.088-.013.151-.061l-.058.272c.004-.003.007-.001.012-.005.016.112.073-.115.108-.323a.76.76 0 0 0 .107-.142c-.044.22-.01.192.053.175.057-.018.11-.034.095.211.1-.213.39-.065.472-.552-.005.065.01.101-.023.096.06.076.127.155.195.03l.013.374s.046-.11.085-.222c.04-.112.074-.226.074-.226.085.25.142.399.048.654.117-.183.154-.213.194-.241.037-.03.075-.058.135-.257l.023.246c.07.012.114-.294.189-.075.117.263.32.34.547.42.23.082.477.164.807.475-.234-.422-.144-.316-.03-.183.115.133.265.296.105-.024.124.203.247.334.264.484.064-.063.19.042.288.1.097.059.166.071.07-.188.151.213.133.284.23.413-.007-.039-.035-.156.066-.026s.073.162.088.238c.239.045-.162-.588-.547-1.185.286.314.323.293.107-.087.172.209.386.438.309.471.084.049.678.436.289-.067.122.135.127.067.097.013.178.078.233.129.343.126l-.114-.098c-.482-.61-.005-.105.047-.145l.054.064c.343.271.328.227.31.187-.012-.038-.029-.07.368.24l-.406-.412c-.408-.434-.237-.29.029-.07.264.22.633.519.536.37l-.297-.255c-.117-.141.247.18.687.56.437.38.951.82 1.067.894.108.087.099.117.127.165.866.63-.554-.546-.503-.618.369.315.788.758.997.859.173.134.01-.08-.11-.254-.06-.087-.106-.163-.085-.176.01-.008.043.005.09.03.04.023.109.068.212.144-.315-.248-.602-.478-.788-.682-.018-.035.086.029.225.12.214.121.537.3-.16-.315.073.05.147.106.22.166-.294-.298-.567-.641-1.081-1.072.884.663.574.32.274.015-.303-.309-.6-.589.183-.036l-.246-.37.16.112c-.01-.142-.405-.448-.788-.731.078.02.23.136.308.188.15-.098.048-.207-.747-.803l.432.218c-.145-.102-.022-.106.045-.172.07-.063.077-.197-.233-.444.048.023.129.062.198.11-.32-.264-.138-.34-.089-.478.054-.131-.01-.302-.69-.527l-.206-.139-.202-.13c.007.11-.139.063-.303.003-.165-.061-.347-.133-.436-.118-.054-.045.021-.07.12-.078.098-.007.222.007.279.067l-.056.003c.676.174.098-.242.53-.178-.139-.258-.17-.503-.21-.77-.039-.264-.078-.55-.177-.817l-.185.098-.186.094-.045-.168c.072-.078.276-.185.314-.05.096-.075.026-.114-.076-.123-.102-.01-.227.029-.27.042.086-.228.471-.129.46-.182l-.057-.055-.038.034c-.18.013-.348.08-.37-.029.052-.096.224-.132.229-.163.027-.012.037-.025-.004-.043l-.027-.16-.279.186c-.176-.002-.04-.145-.356.067.488-.32-.03-.63.112-.759-.257-.002-.29-.094-.305-.218-.054.053-.39.206-.385.091.722-.243.24-.3.722-.576-.313.201-.188-.243-.628.052.027-.104.264-.107.409-.233-.346-.09.024-.492-.152-.696-.096.03-.225.123-.383.123l.426-.297c-.062-.03-.558.151-.262-.053-.075.041-.187.102-.229.08.296-.628-.704-.844.013-1.61-.164.124-.196.086-.218.039-.034.046-.235.074-.362.122l.297-.317c-.37.076-.09-.21-.44-.124l.081.045c-.432.04-.863.403-1.386.555.49-.048-.601.48.108.43-.094.07-.177.024-.29.082.235-.03.296.003.226.128l-.058.008c.137.24-.047.424-.094.765l.247-.11c-.013.075-.088.116-.142.167.41-.062-.037-.183.41-.264-.49.261.138.44-.428.703.03.097.284-.133.314-.036l-.15.082.212-.049c-.012.075-.199.178-.332.228.01-.02-.053-.03-.07-.042-.158.15.144.208.093.258l.065-.128c.238.207.148.603.56.732l.111-.065c.291.106-.073.203.107.372l-.03.004c.133-.005.213.027.221.09-.158.002-.231.205-.41.197.313.113.223.029.714-.012l-.184.11c.196-.025.29-.06.38.023-.2-.016-.27.187-.53.182-.342.393.557.145-.025.503.58-.126.223-.312.361-.304.158-.12.437-.085.41.004.015.073-.642.405-.56.575-.005-.018-.047-.002-.051-.02-.11.123.237.049.048.223.343-.094.025.112.443-.053l-.162-.117c.146.042.67-.07.478.134-.09.02-.215.03-.285.034-.113.075.106.026-.01.1-.218.065-.251.048-.275.022-.012-.016-.018-.024-.05-.041-.033-.022-.084-.034-.173-.025-.079.059.018.08.07.086.047-.001.058.006-.173.087.293-.103.286-.069.26-.034-.025.038-.073.07.172.04l-.266.065c.045-.004.177-.016.178.002l-.18.025-.176.03c.153-.02.097.017.02.045-.076.031-.173.055-.084.057-.033-.055.328-.06.513-.127.211.034.04.084-.169.116-.207.036-.453.058-.37.088-.043-.005.158-.043.3-.03a.887.887 0 0 1-.307.048.48.48 0 0 0 .208.026c.09 0 .191-.011.29.01-.355.003.165.042.306.102l-.313-.035c-.166.057.674.118.472.182l-.235-.062-.232-.056.135.062-.375-.08c.291.09.23.098.138.104.233.053.616.168.653.226-.19-.029-.336-.115-.258-.038-.226-.087-.5-.176-.194-.105l-.33-.105c-.226-.048-.033.03-.022.048.01-.001.027 0 .075.012a7.48 7.48 0 0 0 .527.248c-.129-.038-.243-.091-.354-.14.046.029.217.104.26.142-.3-.126-.607-.252-.753-.321l.173.085.178.094c-.128-.05-.352-.136-.466-.191-.086-.033.066.041.217.127.15.083.302.178.186.13.063.035.124.071.175.105-.027 0-.138-.05-.185-.066-.046-.016-.03.001.215.167l-.301-.18-.304-.186c.074.052.268.176.472.302.205.127.419.256.556.372.229.188-.527-.333-.696-.437.163.114.413.291.563.408.15.115.2.17-.057-.001-.13-.102-.039-.043-.094-.09"/>
        <path fill="#202020" d="M82 25l.39.5A4.388 4.388 0 0 0 82 25M81.18 24.098l.011.004L81 24l.18.098zM78 24c.037.12.037.257.022.396.054-.168.067-.32-.022-.396M75 25.402l.262-.119c-.111.005-.102-.158-.12-.283-.043.163-.073.41-.142.402M74.21 24c-.055.076-.067-.01-.122.067l-.088.325c.135.018.303-.215.21-.392"/>
        <path fill="#202020" d="M75.316 25.338c.157-.459-.033-.334-.21-.284.009 0 .019-.002.025.006-.285.625-.05.452.185.278"/>
        <path fill="#202020" d="M75.18 25.026c-.053.014-.103.015-.139-.026-.114.322.034.085.14.026M75.29 25.024c-.025-.118-.266.51-.235.337-.298.5.729-.53.234-.337"/>
        <path fill="#202020" d="M75.162 25l-.162.5.254-.378z"/>
        <path fill="#202020" d="M75.308 25.27l-.173-.27a.4.4 0 0 1-.135.227c.136.067.251.257.308.043"/>
        <path fill="#202020" d="M75.224 25.023c-.072-.035-.147-.041-.224.065a.298.298 0 0 0 .224-.065"/>
        <path fill="#202020" d="M75 25l.024.17.149.102zM77 25.487l.316-.13c.099-.24.075-.411-.049-.341-.112.154-.235.221-.267.47M76.051 24.174c.025.095-.019.186-.051.326l.273-.5-.222.174zM77.05 24.5c.1-.188.581-.469.243-.5-.1.185-.415.287-.242.5M78.495 25.005L78.427 25 78 26zM80.5 24.04c-.182-.191-.316.381-.447.157-.16.14.108.183-.042.303.27-.135.301-.034.489-.46M80.159 25c-.047.049-.098.11-.159.194a.866.866 0 0 0 .159-.194M82.207 17.281l.247-.281-.454.272z"/>
        <path fill="#202020" d="M82 17.328l.5-.328-.478.143c.03.03.087.088-.022.185M81 24l.207.212c.227.23.248.249.293.288L81 24zM81.02 24.008L81 24l1 .5z"/>
        <path fill="#202020" d="M81.005 24.004c-.038-.037.165.17.128.135-.163-.163.993.974-.128-.135M3.484 64.821l-.08-.256-.035-.096-.035-.116c-.045-.138-.085-.209-.128-.244-.085-.074-.177.002-.206-.109.004.156.022.298.046.422.027.141.049.182.074.251.047.118.1.22.137.257.075.076.13.08.168.058.075-.046.092-.193.059-.167M5.113 65L5 65.137l.5.033zM6.996 67c.062-.545-.545-.451-.724-.864L6.278 66 6 66.204c.33.28.834.466.996.796M7.337 68.478c.053-.445.49.044-.337-.478.02.074.02.106.03.155.07.06.16.149.307.323M7.195 68.066c-.494-.29.12.497 0 0M8.455 69.055L8 69c0 .183.293.436.126.448.417.15.413-.034.33-.393M8.41 68.072L8 68c.002.124.07.21.41.072"/>
        <path fill="#202020" d="M8 68.141l.485.158c0-.203.098-.503-.213-.099.126-.233-.041-.059-.272-.059"/>
        <path fill="#202020" d="M8.394 68.5c-.105-.212-.277-.422.106-.374-.589-.326-.7.047-.106.374M7.5 66.45L7.342 66 7 66.019c.17-.007.407.665.5.432M10.339 69.5c.129-.087.077-.329.161-.47L10 69c.134.142.453.344.339.5"/>
        <path fill="#202020" d="M10 69.203l.5.082c-.335-.411-.451-.321-.5-.082M8.875 68.022L8 68l1 .148zM11.299 70.055L11 70.28l.5-.28zM11.234 71c-.306.101.033.414-.234.44.318.1.677.054 1 .013-.294-.027-.538-.16-.766-.453M12.5 71.004c-.144-.018-.315.033-.5.082.15.03.311.018.5-.082"/>
        <path fill="#202020" d="M11.017 70c-.014.085-.088.295.236.5l.04-.405-.276-.095"/>
        <path fill="#202020" d="M11 70v.023l.5.379L11 70"/>
        <path fill="#202020" d="M11 70.03l.069.042c.005-.07-.001-.097-.069-.043M10 68.5c.476-.033 1.313.073.879-.5-.415.119-.165.448-.879.5M10.5 69.5l-.327-.5c-.035.137-.03.396-.173.425l.5.075zM11.469 69.037L11 69l.25.209zM12.159 70.334c.309-.036.555.064.841.166a4.183 4.183 0 0 0-.814-.5c-.104.08-.346.2-.027.334"/>
        <path fill="#202020" d="M11 70.06c.03 0 .063.01.091.01-.018-.073-.046-.108-.091-.01M14.078 72.137L14.066 72l-.066.091.078.046zM12.456 70.237c-.149-.29-.3-.26-.456-.191.153.08.308.186.464.337.04-.066.059-.115-.008-.146M13.406 71.486A3.306 3.306 0 0 0 13 71c.072.212.267.576.406.486"/>
        <path fill="#202020" d="M12.063 70.002c-.021 0-.042.002-.063-.002.04.179.06.114.063.002"/>
        <path fill="#202020" d="M12.018 70.216c.165.014.326-.05.482-.1A1.622 1.622 0 0 0 12 70a1 1 0 0 1 .018.216M15.626 70.12c-.169.152-.748.167-.98-.12-.485.006-.708.605-.631 1 .073-.066.13-.13.609-.107-.064-.129-.694-.466-.234-.511.592.073.375.184.555.344-.04-.263.916-.096 1.055-.425l-.544-.03c.032-.048.26-.072.17-.151M14.204 71.077L14 71c.181.217.266.487.417 1 .386.01.509-.1.583-.222l-.883-.683.087-.018z"/>
        <path fill="#202020" d="M13.378 70.64c.244-.214.631-.14.575-.558-.412-.216-.395.066-.695.044.685.316-.263.043.13.479a1.61 1.61 0 0 1-.388-.136c.101.103.194.212.276.327l-.007-.026-.003-.002.003-.003c-.012-.051-.01-.078.012-.04.003-.001.012.002.016.003a.408.408 0 0 1 .08-.087c.162.168-.005.09-.08.087-.01.013-.02.023-.028.037v.005L14 71c-.12-.118-.298-.212-.622-.36M11.031 68c.015.075-.01.114-.031.156.132-.014.194-.04.031-.156M10.48 68.23c-.068.007-.167.081-.305-.03-.087-.15.073-.116.115-.2-.131.012-.43-.01-.214.273l.066-.007c.209.232.362.726.296.734.057-.263.083-.457.042-.77M12 69.261l1 .239-.252-.5-.097.187c-.456-.3-.495-.033-.651.074M14.206 72l-.206.5.5-.47z"/>
        <path fill="#202020" d="M14.277 72l-.277.499.5-.105zM52 76.245l.344-.245a1.277 1.277 0 0 0-.344.245M51.017 76l-.017.3c.1-.18.132-.308.017-.3M31 78c.225.557.454 1.36.5.822l-.011-.546c-.222.01-.372-.11-.489-.276M42.5 78.17a50.228 50.228 0 0 1-.137-.17l-.363.5.5-.33M43 77l.5.453A1.837 1.837 0 0 0 43 77M57.196 74.5l.168-.5c-.656.174-.24.295-.168.5M21 75.07c.183.22.345.348.5.43-.21-.293-.332-.655-.5-.43M52.027 79.456c.228-.165.308-.315.273-.456-.236.159-.358.31-.273.456M23 75.436c-.044-.076-.096-.126-.144-.194-.281-.027-.558-.075-.856-.242.235.345.543.632 1 .436M76 64.061c.049-.002.097-.02.147-.014-.044-.078-.09-.048-.147.014M82.405 62c-.073.131-.24.328-.405.5.12-.06.251-.21.405-.5M17.184 74.047c-.367-.123-.086.04 0 0M17 72.222c.104-.031.2-.09.273-.222-.096.128-.186.195-.273.222M24.017 75.096l.03.013c-.062-.158-.052-.128-.03-.013M17 73c.098.133.22.263.365.382-.05-.08-.16-.2-.365-.382M16.326 73.198c-.108-.082-.196-.14-.278-.198-.09.078-.08.157.278.198"/>
        <path fill="#202020" d="M17.5 74.322A1.94 1.94 0 0 1 17 74c.046.073.06.118.033.13l.467.192M67 71.256c.031.006.063.004.1.016.207-.416.08-.3-.1-.016M34.047 76c-.018.003-.03.019-.047.022l.05.034-.002-.056zM35 76c-.505.315-.721.242-1 .129l.059.871.941-1z"/>
        <g transform="translate(14 60)">
            <mask id="d" fill="#fff">
                <use xlink:href="#c"/>
            </mask>
            <path fill="#202020" d="M54.555 11.833l-.12-.017c.153-.172.134-.081.12.017m-51.23 1.776c-.062.014-.074.05-.07.094.06-.05.164-.01.272.06-.003-.08-.041-.151-.202-.154m.406.306a.07.07 0 0 0 .016-.008c.177.192.116.12-.016.008m22.84 3.917c.083-.084.2-.032.33.078a.442.442 0 0 1-.33-.078m8.082-.883c.095-.07.271-.27.368-.122-.071.327-.183.19-.368.122m5.1-1.224l-.397-.118c.303-.459.62-.429.224-.633.088.377-.23.486-.549.593-.32.104-.64.204-.571.581l-.263-.103c.066-.008.065-.054.13-.062-.52-.254-.193.617-.79.637-.212-.016-.373-.097-.257-.214l-.201.138-.203.136c-.133.01-.126-.127.005-.137l-.333.095-.334.09.001-.024a2.63 2.63 0 0 1-.361.452c-.193-.081.074-.095.014-.182l-.35.244c-.186-.174.099-.412.363-.426-.474-.703-.283.245-1.111-.094l.341-.145c-.29-.398-.542-.206-.973-.428.108.134.888.577.505.82-.124-.042-.279-.049-.484.13-.034-.273-.242-.178-.512-.137l-.02-.362c-.28.132-.239.315-.397.492-.332-.007-.423-.28-.519-.51-.526-.02.398.422-.218.535-.448-.106-.743.058-1.263.297-.314-.112.045-.223-.07-.322l-.262.298c-.068-.006-.049-.095-.04-.14-.227.119-.007.364-.37.47-.095.402-.757-.567-1.205-.12-.111-.103.055-.22.021-.361-.62.293-.53.21-1.05.599l-.429-.251c.31.282-.109.59-.487.837.11.136.203.256.268.313l-.595.167c-.068-.063-.002-.184.102-.33-.042.027-.08.055-.112.08-.2-.144-.08-.347.079-.541a7.5 7.5 0 0 1 .196.234c.155-.213.298-.451.278-.664a.39.39 0 0 1-.193.09c.04-.059.066-.111.051-.148-.018-.039-.08.04-.18.127l-.107-.41-.04.158-.365-.147-.362-.15c-.558.367-1.079.93-1.957 1.006.244-.273.097-.476.146-.824.193.393.672-.09 1.1.02-.224-.058-.16-.221-.096-.273l-.405.133-.407.13c.048-.284-.143-.229-.333-.37.092.581-.624.312-.964.444.005-.191.106-.375.486-.283-.371-.474-.636.595-1.01.179.095.008.142.043.193-.048-.245.14-.767-.07-.615-.216l.095.01c-.617-.15-1.899-.302-2.081.152.005-.063.186-.556.24-.646l-.705.697-.72.688c.179-.388-.001-1.425.559-1.556-.136-.085-.304-.189-.644-.108.088.078.13.636-.016.646-.286-.526-.214-.295-.596-.775.132.118-.174.718-.41.645.058-.087.12-.63.22-.677l-.734.49c.175-.077.148-.52.057-.725.032.137-.506-.128-.678-.104l.215.202c-.641-.25-.876.713-1.536.512.115-.107.403-.733.09-.896-.235.276-1.093 1.339-1.76 1.413l-.062-.21-.515.075c.426-.387 1.496-1.164 2.023-1.442-.208-.207-.01-.23-.384-.313-.083-.203.271-.201.382-.182l-.823-.342c-.067.379-.76.182-.818.495l1.041-.117c-.063.377-.839.892-1.435.648-.112-.192.312-.616.335-.741-.116.102-.649.07-.677-.037l.317-.117c-.293-.238-.701.317-.996-.156-.133-.066-.263-.597-.357-.39.09.484-.278 1.779-.535 2.04-.042-.043-.617-.635-.707-.892-.12-.398.608-.655.505-.997-.042.096-.21.176-.276.197-.117-.133.165-.285-.167-.346-.18.348-.634-.25-.257.259-.347-.002-.304-.187-.673-.297.032.275-.616.686-.968.676.052-.085.027-.23.013-.298-.626-.262-.903-.553-1.49-.78-.02-.108-.262-.323-.08-.43-.11.03-.236.123-.42.06-.223-.446.422.11.306-.368-.106.2-.582.107-.892.133-.053.353.57.298.88.267-.176.445-.815.737-1.52.691-.536-.09-.092-.371-.204-.343-.882-.454-1.114.445-1.738-.197-.177-.409.234-.56.257-.79.44.064.526.436.8.538l-.273-.272c.167-.04.46.001.57.141-.144-.353-1.516-.696-2.1-1.242-.167.038-.424.037-.375.194l.237.06c.099.315-.558.122-.328.352-.368.023-.819.116-1.174-.205l.074-.35c-.036.096.18.315.343.273-.241.059-.428-.721-.817-.402l.184.355c-.372.017-.904.173-1.222-.106.013.389.102.007.184.493-.005-.556.936.472.803-.175.064.547.379.398.562.921.039-.109-.031-.256.257-.06a.48.48 0 0 1 .112-.061l.018.017-.012-.02c.021-.01.024-.012-.004-.007a.418.418 0 0 1-.085-.23c.268-.167.76.065.985.016.162.132-.133.085-.083.241l.336-.074c-.081.243.32.605-.182.546l.392.185c.175.232.476.423.718.41.167.13.588-.059.345.055l.689.116-.02.06c.61.286 1.436.125 1.982.825.235.02.48.03.809.228l-.01.232c.3.029.744.504.942.33.092.664 1.292.586 1.744.842l.11-.266c.33.124.677.15 1.129.17l.052-.25c.42-.087.866.454 1.446.595-.066.082-.204.016-.29-.07.522.75 1.557.008 2.065.572.18-.049.284.011.377.1a.079.079 0 0 0-.042.003.427.427 0 0 0 .063.02c.058.06.116.126.183.185a.734.734 0 0 0-.148-.177c.121.024.311.041.506.023l.01.283c.014 0 .026.003.042.002.152.141.173-.09.13-.312a.892.892 0 0 0 .276-.102c.037.461.503-.033.588.468.174-.194.944.034 1.142-.418-.007.063.04.104-.058.087.187.096.376.19.583.095l.014.357.531-.37c.224.259.312.4-.006.611.72-.28.552-.053 1.169-.354l-.067.215c.198.026.56-.217.645-.015.368.499 2.15.392 3.24.898-.15-.678.5.348.597-.157.05.162.202.263.004.382.596-.1.859.323 1.295-.08.056.162-.142.22-.089.317.05-.03.196-.123.25-.026.054.097-.094.125-.192.187.604.014.693-.466.761-.913.288.23.442.206.67-.08.098.151.268.313-.104.35.205.036 1.267.258 1.294-.106.064.094.29.032.345-.01.465.026.507.056.964.02l-.127-.059c.175-.436.377-.103.744-.162l-.01.045c.856.288.357-.16 1.207.162l-.06-.269c.043-.587.756.303 1.226.04l-.186-.14c.242-.22.805.73 1.086.773.064.044-.084.09-.163.135.743.271.056-.36.568-.5.118.18-.07.5.29.494.201.135.938-.745 1.468-.46-.13-.129-.256-.258-.034-.406.354-.106 1.096.381 1.338-.142.055.031.08.066.09.102.257-.172.866-.385.973-.67.235.429.644.215 1.007-.006.365-.219.684-.45.803-.032 0 0 .208-.07.415-.145.208-.072.414-.149.414-.149l.005.091c.556-.112.678-.376.795-.633.142.015.08.121.084.167.843-.11.91-.181 1.377-.827l.173.234c.106-.217 1.257-.034 1.85-.65a.19.19 0 0 1-.029.15c.677-.65 2.274-.157 2.13-1.221l.42-.473c-.716.246-.092-.448-.445-.47.24-.178.824-.046.519.156l-.074-.022c.113.538.928-.229 1.07.105 1.324-.663 2.753-1.048 4-1.672l-.34-.292.441-.204c.159.026.306.207-.008.353.273.122.42-.444.384-.528.68-.17 0 .55.187.46l.235-.159-.08-.013c.12-.256.052-.423.428-.602.272-.052.243.16.342.125.014.026.052.021.146-.066l.555-.263-.376-.167c.158-.271.51-.263.08-.45.65.305 2.088-.937 2.395-.916.204-.396.527-.582.94-.797-.135.002-.388-.277-.024-.444.28.722.8-.1 1.37.188-.441-.15.918-.685.25-.874.315-.128.174.228.487.24.506-.675 1.583-.806 2.339-1.467-.047-.09-.272-.117-.188-.36l.362.05.362.045c.13-.157-.202-.565.296-.505-.092-.036-.23-.092-.144-.196.927-.388 1.65-1.097 2.368-1.805.36-.357.719-.714 1.113-1.048a8.702 8.702 0 0 1 1.337-.94c-.334.115-.23-.052-.103-.23-.124.086-.199-.149-.326-.206 0 0 .052-.028.129-.075l.281-.174c.204-.131.408-.28.408-.28-.122-.171 0-.378.101-.597.107-.213.193-.439.043-.547L68.73.21l-.028.148c-.12-.266-.39-.223-.69-.194-.296.036-.618.063-.85-.089.132.265-.148.38-.42.502a1.04 1.04 0 0 0-.36.233c-.089.106-.133.25-.092.47-.169.028-.069-.195-.211-.22.093.257.01.429-.292.606l-.018-.066a3.406 3.406 0 0 1-.872.766c-.305.193-.64.372-1.099.661l.24.151c-.2.124-.293.092-.42.11.064.482.511-.404.625.091-.3-.103-.612.159-.932.4-.318.242-.64.462-.915.28-.288.214.278.183-.013.396l-.18-.076.06.227a.442.442 0 0 1-.529-.093c.056-.02.107-.128.149-.174-.364.023-.655.56-.781.568l.343-.117c-.706.704-1.835 1.195-2.458 1.996l.131.066c-.494.592-.573.2-1.204.717l.01-.041a.867.867 0 0 1-.42.461c.096-.232-.482-.046-.34-.325-.554.624-.234.372-.446 1.044l-.215-.119c-.057.255-.018.35-.344.6.197-.322-.388-.146-.188-.538-.969.027-.865 1.027-1.543.634-.051.697.806-.079.677.136.256.074-.064.537-.329.616-.247.121-.776-.423-1.37-.087.06-.03.043-.07.104-.1-.297-.009-.343.414-.738.35.015.392-.37.174-.199.592l.506-.387c-.257.27-.302.891-.947.94-.002-.1.097-.288.171-.402-.215-.037-.251.232-.474.194-.168-.42.632-.44.803-.921-.252-.08-.481.623-.544.106.05.673-.633.243-.823.872l-.099-.251c-.045.07-.121.252-.244.307l.054-.42c-.195.435-.765.097-1.01.402.668-.346.301.212.676.243-.665.74-.801-.384-1.671.191.108-.096.546-.09.406.12-.203.038-.484.06-.657-.013-.592.352.22.201.03.478-.357-.19-.244.267-.47.493l-.124-.245c-.786.18.064.604-.67.715l.104-.469-.29.246-.068-.313c-.261.378-.401.378-.795.463.166.135.167.47-.147.623-.285-.048.01-.29-.422-.05.03-.202.048-.447.35-.308-.018-.09.027-.2.01-.29-.312-.063-.6.227-.762.302.067-.019.148-.039.202-.021l-.492.636c-.145-.048-.098-.16-.051-.27-.12.087-.159.242-.344.348-.041-.225-.147-.428.083-.644l-.518.496c-.081-.07-.426-.106-.38-.215-.393.026-.67.754-1.194.78-.007.049-.039.106-.124.174-.45.125-.925.019-1.31.477l-.417-.28c-.37.218.557.344-.063.709-.438.273-.285-.267-.485-.32-.17.265-.47.783-1.005.592.126-.113.257-.087.385-.155" mask="url(#d)"/>
        </g>
        <path fill="#202020" d="M43 77c.071.126.087.26.099.397.112-.116.119-.257-.099-.397M57 75.145c.016 0 .028-.007.042-.008a.41.41 0 0 0-.01-.137l-.032.145zM26 74c.212.178.308.343.356.5.07-.16.004-.333-.356-.5M15 73.322l.5.178c-.228-.13-.264-.322-.344-.5-.034.149-.012.417-.156.322M14.382 70.088c-.112.023-.174-.11-.285-.085l-.097.312c.35.22.685.144.382-.227M15.479 72.5c.098-.373-.164-.4-.433-.5.016.009.03.015.044.03-.25.444.07.458.389.47"/>
        <path fill="#202020" d="M15.5 72.225a1.512 1.512 0 0 1-.443-.225c-.194.275.148.16.443.225M17.277 74.038c-.084-.207-.218.511-.236.278-.273.465.94-.073.236-.278M15.131 71l-.131.5.5-.263zM17.5 72.453L17.154 72c-.019.094-.082.107-.154.1.233.208.466.519.5.353M16.5 72.212c-.181-.138-.36-.243-.5-.203.102.062.324.186.5.203M16 71l.12.22.38.28zM21.002 74.316l.464.179c.087-.2-.001-.449-.178-.495-.133.077-.308.028-.286.316M20 73.087c.163.147.12.243.157.413l.343-.5-.5.087zM21.12 73.5c.08-.178.685-.128.182-.5-.08.177-.506.016-.182.5M26.5 75.047L26.322 75 26 76zM31.994 75.073c-.697-.285-.336.38-.946.065-.239.126.499.258.264.362.523-.088.728.044.682-.427"/>
        <path fill="#202020" d="M31.405 75a2.54 2.54 0 0 0-.405.135c.221-.041.332-.089.405-.135M83.02 60.5l.244-.24c.12-.124.236-.26.236-.26l-.249.129c-.123.063-.251.115-.251.115l.02.256zM83 59.438l.25.033.25.029-.164-.255L83.17 59c-.012.13-.039.39-.169.438M48.023 76l-.023.239c.106.24.237.238.5.239L48.023 76zM52.17 75l-.17.01.499.49zM54.443 75c-.15.064-.292.37-.443.435.292-.37.638.58.443-.435M17.007 65.483c.092.049.136-.404.165-.483-.182.083-.182.6-.165.483M16.267 65.212l.066-.212-.333.5z"/>
        <path fill="#202020" d="M16 65.149c-.009.647.276-.05.378.202l.004.149.118-.5c-.166.053-.41.347-.5.149M15.073 65c-.017.418-.231.325.167.157-.01-.047-.012-.074-.017-.109a.29.29 0 0 1-.15-.048M15.007 65.162c.164-.005-.048-.362 0 0"/>
        <path fill="#202020" d="M15.03 65.5l.27-.2c-.002-.15-.178-.2-.08-.3-.247.1-.245.25-.19.5"/>
        <path fill="#202020" d="M15 65.215l.136-.136c-.002-.105-.025-.146-.136.136M15.293 65l-.287.267c.002.16-.052.476.127-.093-.072.284.025.015.16-.174"/>
        <path fill="#202020" d="M15.063 65.004c.08.165.21.277-.063.496.43-.054.49-.551.063-.496M16 66.117l.113.336.195-.333c-.098.165-.267-.336-.308-.003"/>
        <path fill="#202020" d="M15.073 65c-.053.123-.037.339-.073.5l.2-.128c-.051-.093-.176-.187-.127-.372"/>
        <path fill="#202020" d="M15.301 65l-.301.343c.199.082.27-.094.301-.343"/>
        <path fill="#202020" d="M15.064 65.5l.436-.5-.5.499zM14.152 65.333l.227-.333-.379.5zM14.356 64.5c.16-.206.009-.378.144-.5-.152.023-.335.194-.5.348.147-.08.26-.042.356.152M14 65.44c.085-.089.188-.259.299-.44-.088.085-.183.215-.299.44"/>
        <path fill="#202020" d="M14.09 65.5c.007-.103.037-.371-.063-.5l-.027.48.09.02"/>
        <path fill="#202020" d="M14.19 65.091v-.02A2.272 2.272 0 0 1 14 65l.19.091"/>
        <path fill="#202020" d="M14.024 65.007L14 65c-.003.064 0 .085.023.007M15.422 65c-.199.264-.555.526-.371 1 .175-.333.071-.603.371-1M14 65.337l.222.163c.025-.144.025-.36.125-.5l-.347.337zM14 65.248l.159-.178-.083-.07z"/>
        <path fill="#202020" d="M14.42 65c-.16.233-.28.232-.42.248.116.14.248.229.387.252.058-.178.188-.493.033-.5M14.03 65c-.01.013-.02.018-.03.031.005.057.013.075.03-.031"/>
        <path fill="#202020" d="M14.003 65l-.003.118.027-.108-.024-.01zM14.025 65.179c.083.143.176.002.273-.179a.454.454 0 0 1-.273.056c-.027.089-.04.148 0 .123"/>
        <path fill="#202020" d="M14 65.042c.028.143.068.267.113.382-.014-.21-.06-.542-.113-.382"/>
        <path fill="#202020" d="M14 65.106c.007-.009.014-.02.021-.025-.009-.14-.017-.075-.021.025M14.214 65c-.072.08-.144.227-.214.358a.684.684 0 0 0 .216-.177 1.524 1.524 0 0 1-.002-.181M14.154 67c.097-.301.367-.55.446-.199.227-.202.387-1.22.4-1.801-.041.132-.074.255-.29.408.012.175.264.446.048.7-.264.121-.153-.136-.215-.315-.013.394-.435.503-.543 1.067l.251-.162c-.02.088-.13.213-.097.302"/>
        <path fill="#202020" d="M14.393 65.5l.107-.029c-.087-.068-.118-.205-.169-.471-.208.138-.283.252-.331.357l.441.1-.048.043z"/>
        <path fill="#202020" d="M14.32 65.197c-.133.319-.326.433-.32.803.199.008.204-.252.354-.376-.329.032.135-.168-.041-.39a.394.394 0 0 1 .187-.059.764.764 0 0 1-.12-.175l.001.021h.002l-.002.004c.003.044.001.07-.008.043-.002.004-.006.005-.008.006-.013.045-.029.084-.045.121-.072-.082.008-.087.045-.12l.016-.05v-.004l-.353.13c.054.056.138.06.292.046"/>
        <path fill="#202020" d="M14.034 66.15c-.005-.059.004-.104.01-.15-.045.072-.067.123-.01.15M14.012 65.854c.052-.044.127-.178.23-.132.066.113-.055.164-.087.278.1-.084.324-.222.163-.41l-.05.043c-.157-.137-.262-.59-.211-.633a3.185 3.185 0 0 0-.045.854"/>
        <path fill="#202020" d="M14.461 65l-.461.14.098.36.054-.202c.204.107.232-.147.309-.298"/>
        <path fill="#202020" d="M14.233 65.366l.193-.366-.426.5z"/>
        <path fill="#202020" d="M14.066 65.5l.143-.5-.209.278zM5 65l.249.301L5 65M5.428 65.5L5 65c.239.288.413.492.428.5M9.245 63.5c.012-.28.105-.7-.088-.392L9 63.412c.151-.035.216.012.245.088M5 64.32l.114.18-.101-.5c-.005.098-.008.205-.013.32M5.282 65.5L5 65c.088.17.183.338.282.5M5 65l.5.5c-.007-.034-.256-.263-.5-.5M12.258 64.352c-.08-.211-.165-.31-.258-.352.076.3.074.73.258.352M1 61c.163.193.33.357.5.5A3.493 3.493 0 0 0 1 61M11 64.221c.008.07.024.108.036.168.133-.077.261-.134.379-.06-.057-.302-.157-.507-.415-.108M6.064 71c-.024.02-.034.038-.064.06.086-.022.085-.04.064-.06M5.122 73.187c-.054-.037-.079-.115-.109-.187-.032.049-.01.109.109.187M13 65.033c.117-.015.034-.066 0 0M13.115 65c-.04.066-.079.153-.115.299.044-.15.082-.244.115-.299M11.01 65.005L11 65c0 .132 0 .106.01.005"/>
        <path fill="#202020" d="M13.094 65.22A.699.699 0 0 0 13 65c.01.055.038.126.094.22"/>
        <path fill="#202020" d="M13 65.041c.03.037.056.06.08.083.038-.103.041-.172-.08-.083"/>
        <path fill="#202020" d="M13 65c.064.004.114.049.159.108-.011-.049-.012-.086-.002-.106A1.064 1.064 0 0 1 13 65M5.053 67c-.018.013-.029.025-.053.04.29.04.236.002.053-.04M7 65.052c.008-.004.016-.019.023-.024L7.015 65 7 65.052zM6 66c.206-.322.234-.263.266-.168L6.5 65 6 66z"/>
        <path fill="#202020" d="M3.33 68.674l.063-.048c.097.043.02.044-.064.048m9.623-3.782a.225.225 0 0 0 .035-.113c-.027.066-.06.064-.092.035-.008.074-.001.128.057.078m-.115-.154l-.006.012c-.043-.123-.029-.075.006-.012m-6.981-.173c.007.103-.027.04-.09-.1.016-.018.045.004.09.1m-.845.348c.062.09.285.382.054.102-.42-.527-.195-.264-.054-.102m.198.653l.149.119.15.124c.516.49.34.323.768.698-.532-.465-.565-.512-.598-.558-.032-.046-.065-.092-.618-.643l.226.207c-.009-.004.057.062.048.057.26.245.059.042-.193-.226-.252-.264-.554-.593-.486-.556.08.06.24.221.38.384l-.298-.368c.018.005.22.233.201.225l-.114-.195.034.04-.32-.393-.232-.296c.194.208.107.136.258.308l-.146-.202-.065-.094c.191.218.347.417.429.527.052.072.073.106.043.08.457.524.519.597.474.537-.08-.1-.42-.535.012-.04l.103.152.487.585c.071.085.116.136.294.363-.091-.118-.317-.405-.564-.708-.246-.303-.51-.621-.612-.77.093.104.142.156-.026-.086.349.453.284.352.296.34l.436.588-.493-.708c.083.076.398.52.658.892.042.05-.08-.126-.223-.33-.143-.202-.31-.432-.31-.469.196.237.063.018-.05-.267.152.203.187.323.293.483l-.11-.206-.104-.202c.016.014.086.141.122.206-.061-.149-.3-.526-.312-.638-.148-.281.008-.054.146.158.143.214.26.408.155.115.082.148.13.299.223.492-.054-.186-.062-.248-.08-.33-.018-.081-.047-.181-.095-.421l.098.172.09.17c-.176-.374-.25-.76-.239-1.045a7.617 7.617 0 0 0-.204-.427c-.005-.003.116-.17.12-.168.045.087.064.235.089.417 0-.035.002-.069.003-.097.11.2.135.44.167.676l-.13-.3c.04.258.109.555.198.826-.01-.05-.01-.09-.001-.108.014.072.03.137.047.184.017.05-.003-.047-.017-.155l.16.511L5.876 65l.096.178c.045.088.084.173.084.173-.03-.46.006-1.11.262-1.19-.061.302-.016.528-.026.912-.018-.213-.055-.184-.086-.112-.032.072-.055.188-.095.13.043.061.051.25.051.314 0 0 .015-.088.04-.172.023-.084.056-.164.056-.164.001.318.029.25.052.39-.007-.63.116-.37.204-.53-.027.2-.07.399-.124.327.01.24.044.068.099-.104.05-.173.123-.348.126-.146-.02-.003-.025-.037-.052.06.08-.156.161.022.084.176l-.018-.002a.175.175 0 0 0 .091.057.483.483 0 0 0 .2.015c.15-.017.303-.111.403-.34-.02.061-.232.554-.279.644l.459-.726.452-.728c-.175.391-.404 1.39-.646 1.561.025.073.058.16.206.052-.011-.068.13-.609.186-.63-.044.488-.005.267.004.7-.017-.102.259-.716.324-.67-.045.09-.213.626-.263.682l.4-.556c-.084.095-.191.524-.21.714.022-.129.156.064.227.019l-.03-.17c.178.163.504-.809.696-.71-.068.121-.327.774-.247.887.156-.304.72-1.468.974-1.66l-.025.194.204-.167c-.237.459-.808 1.398-1.073 1.746.03.17-.05.223.074.245-.014.186-.15.24-.188.238l.241.2c.109-.378.332-.31.42-.626l-.423.296c.11-.376.515-1.01.685-.885.002.165-.248.657-.283.783.066-.12.262-.19.251-.093l-.145.176c.065.175.331-.444.35-.045.038.038-.012.526.063.306.056-.453.448-1.784.593-2.093.005.035.104.48.092.706-.026.358-.349.772-.373 1.08a.977.977 0 0 1 .142-.254c.02.101-.115.313.002.296.13-.377.2.092.144-.31.132-.08.083.11.206.127.034-.258.347-.813.476-.894-.033.095-.047.229-.053.29.192.094.254.294.444.349-.007.098.055.235-.03.39.047-.06.107-.185.169-.178.026.363-.146.017-.166.44.067-.221.236-.269.357-.386.065-.353-.176-.118-.298 0 .128-.477.407-.938.66-1.108.185-.077-.013.327.031.266.274.158.462-.774.617-.369.02.328-.146.608-.179.834-.157.084-.149-.242-.238-.25l.07.17c-.066.091-.172.147-.196.048.013.293.489.174.658.483.065-.092.161-.182.157-.313l-.083.025c-.008-.262.217-.308.153-.445.137-.15.309-.401.411-.23l-.054.354c.02-.102-.041-.227-.104-.13.092-.142.101.52.267.076l-.04-.263c.137-.155.338-.5.432-.363.022-.358-.036.033-.03-.39-.04.52-.299-.088-.3.466.02-.488-.106-.232-.126-.656-.023.115-.011.23-.097.15a.928.928 0 0 1-.046.097l-.004-.01.002.015c-.009.016-.01.02 0 .005.013.056.018.12.01.186-.11.255-.268.208-.354.331-.047-.069.056-.126.053-.256l-.13.185c.054-.257-.053-.462.121-.578l-.121-.042c-.038-.16-.124-.242-.213-.15-.044-.069-.219.247-.117.06l-.236.11.015-.064c-.182-.083-.508.316-.604-.2-.081.047-.17.107-.258.007l.04-.225c-.104.054-.185-.288-.285-.07.08-.614-.359-.242-.473-.387l-.09.283c-.095-.044-.214.007-.372.083l-.07.253c-.17.172-.219-.263-.395-.289.042-.092.077-.054.089.013-.02-.625-.557.28-.605-.192-.075.076-.098.034-.109-.04.005.001.01-.002.016-.009a.035.035 0 0 0-.017-.009c-.006-.05-.01-.106-.019-.153a.64.64 0 0 0 .008.15c-.036-.006-.1.008-.172.053l.068-.274c-.006.002-.009 0-.015.003-.017-.115-.083.113-.124.323a.737.737 0 0 0-.124.138c.106-.444-.186.1-.085-.377-.112.213-.317.077-.51.538.02-.062.014-.097.044-.09-.04-.075-.078-.148-.178-.035l.096-.346-.289.41c-.003-.234.01-.364.178-.596-.327.334-.202.098-.504.437l.088-.215c-.059-.011-.256.246-.223.054.008-.115-.026-.19-.083-.247a.495.495 0 0 0-.133-.085 3.185 3.185 0 0 0-.181-.08c-.258-.111-.538-.227-.78-.552.038.384-.013.28-.08.149-.068-.132-.163-.296-.158-.007-.034-.19-.114-.322-.039-.442-.127.032-.229-.08-.324-.151-.093-.07-.178-.097-.217.13-.066-.205.005-.256-.042-.38-.016.031-.055.13-.106.003-.052-.127.007-.145.038-.208-.295-.096-.168.502-.039 1.066-.181-.321-.247-.318-.201.037-.097-.21-.24-.448-.112-.45-.082-.061-.642-.536-.438-.032-.08-.14-.13-.089-.124-.038-.192-.111-.233-.167-.385-.196l.093.11c.266.622-.059.085-.154.102l-.034-.067c-.291-.314-.3-.275-.301-.239-.006.034-.004.066-.347-.299l.294.448c.283.466.142.303-.08.05-.22-.252-.537-.601-.496-.453l.246.292c.072.149-.223-.216-.584-.652-.359-.435-.786-.942-.896-1.036-.093-.102-.063-.123-.072-.17-.786-.764.417.604.308.647-.307-.364-.607-.845-.826-.989-.14-.148-.072.032-.014.2.056.166.106.321-.16.08A1.341 1.341 0 0 1 1 60.248a8.825 8.825 0 0 1 .404.448c.088.105.168.212.23.313.01.038-.046.002-.12-.053a1.376 1.376 0 0 0-.182-.098c-.105-.043-.13.015.229.462a1.78 1.78 0 0 1-.163-.158c.206.318.386.708.762 1.138-.657-.635-.444-.264-.232.062.213.332.427.63-.165.1l.154.428-.12-.109c-.017.184.28.49.572.771-.065-.008-.18-.124-.24-.174-.147.164-.08.279.532.884l-.348-.192c.113.102.003.134-.068.233-.073.095-.104.266.136.524a.76.76 0 0 1-.162-.104c.246.28.073.414.004.6-.07.179-.041.384.55.553l.173.143.17.134c.005-.142.134-.108.277-.06.144.05.303.11.385.075.045.05-.025.097-.116.124-.09.027-.203.031-.248-.036l.05-.015c-.599-.105-.115.333-.506.328.048.156.074.31.09.47.014.157.026.34.012.437-.016.234-.04.466.005.676l.403-.158.015.15c-.086.063-.312.137-.322.03-.222.117.244.12.335.098-.114.247-.506.052-.5.116l.054.075.044-.032c.188.023.37-.02.383.11-.062.1-.246.109-.253.144-.03.007-.041.021 0 .05l.015.191.308-.161c.184.037.03.175.379-.009-.54.278-.02.731-.176.855.27.047.296.158.306.304.059-.053.421-.175.41-.045-.773.167-.27.308-.79.556.34-.187.185.312.662.034-.034.115-.283.085-.44.21.361.152-.043.572.14.835.1-.024.239-.116.405-.096l-.454.295c.066.044.59-.111.275.092.08-.038.2-.096.243-.067-.32.709.736 1.043-.002 1.886.17-.135.204-.088.23-.03.033-.053.245-.072.377-.12l-.301.352c.386-.067.103.25.468.17l-.088-.057c.452-.025.894-.42 1.439-.566-.513.029.62-.507-.121-.49.098-.073.184-.016.303-.075-.245.022-.31-.02-.238-.156l.061-.005c-.144-.278.047-.471.102-.846l-.26.102c.014-.082.094-.121.152-.174-.43.036.035.207-.435.262.518-.252-.14-.505.463-.747-.028-.11-.301.121-.33.01l.16-.076-.224.034c.015-.082.214-.178.355-.221-.012.022.054.038.072.053.17-.15-.143-.243-.088-.293l-.073.134c-.244-.254-.127-.681-.551-.875l-.12.058c-.298-.156.089-.216-.089-.429h.033c-.14-.013-.222-.06-.226-.13.165.02.256-.196.443-.16-.319-.171-.231-.065-.747-.094l.201-.094c-.206-.002-.308.02-.396-.086.208.05.3-.165.57-.119.39-.38-.57-.252.071-.552-.615.041-.263.309-.406.277-.175.107-.462.022-.426-.074-.01-.086.709-.341.641-.543.003.021.048.01.05.032.128-.117-.242-.096-.026-.255-.367.042-.013-.127-.467-.022l.155.16c-.146-.075-.7-.035-.492-.28.094-.01.228.011.304.03.119-.088-.115-.076.007-.166.455-.105.16.203.535.225.175-.106-.385-.129.118-.202-.642.083.025-.222-.487-.235l.272-.062c-.048-.01-.188-.023-.192-.065l.37-.02c-.329-.033.204-.285.012-.35.069.224-.312.137-.484.284-.218-.091-.052-.178.142-.276.097-.05.201-.101.268-.158.07-.048.11-.06.072-.077.04 0-.15.085-.283.093a.756.756 0 0 1 .292-.117c-.037-.022-.11-.015-.194.003s-.18.049-.27.04c.333-.068-.151-.026-.278-.08l.291-.01c.161-.104-.621-.034-.424-.154l.214.04.212.031-.06-.027-.061-.03.344.037c-.265-.064-.207-.087-.12-.111-.213-.028-.56-.11-.588-.18.175.004.303.091.238.004.203.074.452.141.171.102.103.026.199.057.3.08.206.022.034-.045.025-.067-.01.003-.025.005-.069-.003 0 0-.114-.048-.231-.107-.117-.057-.237-.125-.237-.125.117.026.22.076.318.12-.04-.03-.193-.097-.229-.14.268.113.543.223.673.288 0 0-.076-.037-.154-.081-.077-.043-.156-.092-.156-.092.114.043.315.115.416.168.078.027-.056-.043-.189-.129-.131-.083-.262-.182-.158-.14a1.478 1.478 0 0 1-.152-.107c.025-.005.124.04.167.054.042.011.028-.008-.18-.185l.261.184.264.193a7.81 7.81 0 0 0-.408-.315c-.176-.132-.362-.265-.475-.394-.19-.21.454.346.6.453a9.979 9.979 0 0 1-.477-.44c-.125-.127-.164-.192.057-.011.109.112.03.05.075.103"/>
        <path fill="#202020" d="M5.167 65.489A12.367 12.367 0 0 1 5 65c.027.14.082.314.167.489M5.01 65.003c-.007-.004-.004 0-.01-.003l.161.1-.151-.097zM10.084 66.401a.903.903 0 0 1-.045-.401c-.055.168-.062.322.045.401M14.274 65l-.274.132c.12-.01.126.153.158.279.032-.166.041-.415.117-.41M14.046 66.407c.054-.08.078.005.13-.076l.058-.33c-.155-.01-.315.234-.188.406M13.033 65.168c-.113.456.082.328.273.272-.01 0-.021.002-.03-.005.231-.624-.005-.445-.243-.267"/>
        <path fill="#202020" d="M14 65.148c.057-.016.113-.019.158.02.091-.329-.047-.084-.158-.02M13.151 65.474c.042.117.228-.508.215-.337.266-.498-.733.536-.215.337"/>
        <path fill="#202020" d="M13.124 65.5l.101-.5-.225.382z"/>
        <path fill="#202020" d="M13 65.103l.223.264a.37.37 0 0 1 .129-.233c-.16-.063-.308-.248-.352-.031"/>
        <path fill="#202020" d="M13 65.075c.084.033.17.035.245-.074a.348.348 0 0 0-.245.074M13.225 66.266l-.046-.17L13 66zM11.397 65l-.345.13c-.095.242-.055.416.08.346.115-.156.248-.224.265-.476M12.228 66.325c-.043-.095-.007-.186.008-.325l-.236.5.228-.175zM11.37 66c-.094.187-.618.466-.226.5.094-.185.445-.285.225-.5M10 65.994l.077.006.423-1zM8 65.456c.191.204.309-.381.449-.144.158-.14-.114-.194.034-.312-.268.129-.303.023-.483.456M8 65.183c.053-.046.111-.103.18-.183a.806.806 0 0 0-.18.183M5.239 74L5 74.314l.449-.291zM5.5 74l-.5.333.482-.12c-.03-.038-.09-.111.018-.213M5.5 65.5l-.203-.21c-.224-.23-.248-.249-.297-.29l.5.5zM5.98 65.986L6 66l-1-1zM5.495 66.496c.038.037-.165-.173-.127-.139.163.166-.994-.978.127.139"/>
    </g>
</svg>
