<svg xmlns="http://www.w3.org/2000/svg" xmlns:xlink="http://www.w3.org/1999/xlink" width="71" height="15" viewBox="0 0 71 15">
    <defs>
        <path id="a" d="M.148.12h53.807V12H.148z"/>
        <path id="c" d="M0 .28h.5v.5H0z"/>
        <path id="e" d="M.143.07h16.771v11.708H.144z"/>
        <path id="g" d="M.243.004h.5v.5h-.5z"/>
    </defs>
    <g fill="none" fill-rule="evenodd">
        <path fill="#202020" d="M65.888 4.77c.223-.08.22.347.27.415-.403-.018-.28-.523-.27-.415M63.19 4.568l.091.157-.571-.318z"/>
        <path fill="#202020" d="M61.762 4.77c.173-.66 1.113-.11 1.612-.427l.063-.156.335.443c-.67.046-1.58-.116-2.01.14M62.052 5.983c.066-.294-.45-.161.423-.164-.037.037-.046.057-.067.083-.077.01-.18.03-.356.08M62.039 5.876c.378-.048-.203.273 0 0M61.086 5.661l.37.156c-.043.153-.332.237-.203.321-.361-.057-.317-.21-.167-.477"/>
        <path fill="#202020" d="M60.988 6.03l.274.057c-.033.075-.096.111-.274-.058M61.509 6.088l-.535-.129c.045-.124.01-.354.241.038-.078-.2.056-.018.294.091M61.996 5.977c.321-.212.753-.388.09-.51 1.2-.124 1.112.388-.09.51M61.793 4.928l.225-.253.272.193c-.135-.094-.472.284-.497.06M60.038 6.374c-.048-.12.083-.36.086-.526l.336.088c-.144.115-.433.249-.422.438"/>
        <path fill="#202020" d="M60.521 6.28l-.536-.168c.433-.109.534 0 .536.168M61.084 5.67l.915.323-1.077-.3zM59.208 6.2l.337.27-.586-.395zM58.911 6.084c.238.18-.217.41.02.506-.339.02-.654-.115-.936-.237.286.045.572-.028.916-.269M58.008 6.424c.165.042.345.138.54.24a1.44 1.44 0 0 1-.54-.24"/>
        <path fill="#202020" d="M59.41 6.065c-.027.098-.067.348-.356.5l.142-.457.213-.043M59.52 6.448l-.006.014-.46.103.465-.117"/>
        <path fill="#202020" d="M59.108 6.554c-.02.004-.034.008-.054.011.014-.045.024-.06.054-.01M60.527 6.28c-.311-.227-.908-.424-.457-.93.247.3-.01.589.457.93M58.996 6.264l.445-.178c.01.113-.043.29.104.384l-.55-.206zM59.021 6.395l.307.085-.208.073z"/>
        <path fill="#202020" d="M58.836 6.606c-.264-.144-.52-.117-.811-.098.292-.134.602-.233.904-.282.065.125.239.34-.093.38M58.128 6.746c-.02-.007-.042-.008-.06-.015.028-.042.053-.058.06.015M56.11 7.138l.036-.085.023.071-.06.014z"/>
        <path fill="#202020" d="M58.097 6.583c.189-.115.328-.032.467.078a1.994 1.994 0 0 0-.498.008c-.028-.057-.038-.096.031-.086M57.085 6.915c.115-.11.25-.21.393-.305-.105.155-.328.407-.393.305M58.086 6.682c.014.004.027.01.04.013-.066.103-.063.058-.04-.013"/>
        <path fill="#202020" d="M58.396 6.693c-.139-.039-.257-.125-.375-.201.158.008.307.029.439.07a.534.534 0 0 0-.064.131M56.02 5.118c.072.289.419.51.622.159.293.178.296 1.157.168 1.725-.03-.125-.051-.243-.344-.373.064-.172.517-.46.249-.689-.374-.095-.266.148-.408.326.08-.38-.536-.464-.553-1.005l.337.144c-.009-.083-.142-.2-.071-.287"/>
        <path fill="#202020" d="M56.821 6.49l.184.013c-.191.093-.312.253-.532.564-.322-.118-.404-.234-.444-.344l.861-.192-.069-.04zM57.677 6.636c-.164-.296-.522-.375-.376-.748.413-.046.332.215.6.31-.673.031.22.145-.225.4.139.033.258.03.37.025a2.02 2.02 0 0 0-.316.2l.012-.022h.003l-.001-.004c.022-.044.027-.07-.001-.042-.003-.003-.012-.003-.015-.004a.491.491 0 0 0-.05-.113c-.18.096-.017.086.05.113.005.015.012.029.016.046l-.002.004-.692-.063c.133-.067.31-.087.627-.102M59.731 4.295c-.028.044-.02.074-.018.105-.081-.04-.115-.07.018-.105M60.113 4.454c.07.039.147.172.342.1.155-.138-.032-.17-.043-.29.137.073.469.18.12.421l-.069-.038c-.32.184-.68.707-.612.745.043-.338.09-.582.262-.938M58.864 5.584l-1.02-.002.453-.397.005.19c.551-.172.468.078.562.209"/>
        <path fill="#202020" d="M56.429 6.72l.171.322-.586-.395z"/>
        <path fill="#202020" d="M56.312 6.695l.109.382-.359-.184zM27.735 6.541l-.283-.091c.132.025.219.056.283.091M28.662 7.177l.064.19c-.1-.099-.145-.175-.064-.19M44.044 7.955c-.442.373-.924.92-.903.545l.11-.377c.337.016.586-.06.793-.168M35.653 6.717l.105-.143.312.384-.417-.241M34.988 5.914l-.447.323c.097-.107.24-.215.447-.323M22.638 6.513l-.35-.42c.503-.03.296.206.35.42M51.158 7.871c-.366.23-.667.348-.938.412.436-.32.763-.75.938-.412M28.065 8.514c-.175-.065-.255-.148-.257-.245.18.06.285.137.257.245"/>
        <path fill="#202020" d="M50.18 8.081c.055-.052.111-.082.167-.128.261.034.522.054.824-.02-.278.23-.61.396-.99.148M6.193 6.626c-.03.016-.064.024-.091.045-.004-.06.035-.06.091-.045M2.133 7.218c.108.05.295.091.47.133-.092.012-.235-.022-.47-.133M55.122 7.297c.261-.014.048.04 0 0M55.032 6.329a.287.287 0 0 1-.136-.192c.037.1.084.159.136.192M48.879 6.506c-.008 0-.014.003-.022.004.064-.095.053-.076.022-.004"/>
        <path fill="#202020" d="M55.436 7.149c-.088.068-.192.13-.308.18.047-.042.141-.1.308-.18"/>
        <path fill="#202020" d="M55.12 7.285l.218-.078c.043.066.022.116-.219.078M54.14 7.485a1.51 1.51 0 0 0 .409-.111c-.046.037-.064.064-.048.077l-.361.034M15.5 6.85c-.016.014-.036.023-.053.042-.269-.17-.153-.145.054-.042M40.626 6.036c.013.003.02.014.032.017l-.036.02.004-.037zM39.45 5.283c.455.262.703.185 1.03.063l-.299.813-.732-.876z"/>
        <g transform="scale(1 -1) rotate(11 92.62 2.193)">
            <mask id="b" fill="#fff">
                <use xlink:href="#a"/>
            </mask>
            <path fill="#202020" d="M13.06 5.813l.077.055c-.147.11-.111.031-.077-.055M51.378.65c.035-.039.031-.077.015-.114-.023.07-.103.08-.196.065.028.07.075.115.18.05m-.36-.097a.077.077 0 0 0-.009.013c-.176-.095-.113-.056.008-.013M34.246 3.91c-.052.096-.144.063-.25-.027.071-.03.154-.03.25.027m-5.972 1.466c-.072.067-.211.264-.28.114.063-.32.142-.183.28-.114m-3.935.793l.283.173c-.287.407-.528.322-.253.585-.03-.758 1.018-.242.99-1l.187.13c-.05 0-.054.046-.104.047.369.306.204-.585.65-.549.157.033.273.125.176.232l.324-.241c.1-.001.086.133-.013.135l.512-.142-.002.023c.064-.129.217-.337.292-.426.14.089-.06.09-.018.178l.272-.225c.132.179-.09.403-.29.404.329.713.222-.224.835.13l-.263.135c.209.401.407.215.734.436-.083-.128-.665-.58-.37-.814.093.044.21.053.366-.123.023.268.181.177.385.132l.014.357c.213-.135.182-.314.3-.493.25-.001.322.266.397.489.4-.002-.306-.4.157-.537.339.09.559-.086.937-.352.24.092-.024.223.066.314l.184-.312c.05 0 .04.09.035.135.165-.134-.011-.358.253-.49.045-.402.596.496.9.007.09.09-.025.223.01.357.44-.354.38-.266.73-.71l.338.195c-.255-.238.026-.59.274-.883-.093-.118-.173-.223-.224-.27l.41-.243c.055.052.02.18-.039.337.027-.033.053-.066.072-.095.16.113.095.327 0 .54a5.999 5.999 0 0 1-.167-.202c-.09.23-.171.48-.135.686a.3.3 0 0 1 .132-.113c-.024.062-.038.116-.023.15.017.036.056-.048.119-.147l.123.384.012-.16.57.18c.368-.447.675-1.077 1.294-1.317-.138.31-.004.479.009.824-.194-.343-.477.215-.806.18.172.018.145.187.105.25l.56-.403c.004.283.136.196.295.294-.15-.545.41-.422.635-.617.026.185-.019.383-.31.369.344.385.371-.7.705-.377-.07.012-.11-.012-.132.086.155-.184.565-.096.48.077l-.07.011c.47.015 1.422-.151 1.466-.632.008.06-.03.577-.053.676l.748-1.68c-.052.414.283 1.354-.092 1.622.114.047.255.102.482-.065-.079-.05-.22-.57-.119-.617.31.426.211.224.582.576-.118-.076-.025-.726.156-.723-.023.098.048.627-.014.7l.415-.669c-.106.123.008.532.117.7-.053-.118.387-.026.503-.1l-.196-.126c.51.046.455-.93.96-.944-.055.135-.112.808.147.866.101-.33.445-1.586.88-1.87l.094.176.332-.238c-.191.5-.741 1.566-1.047 1.989.196.13.062.212.345.171.108.164-.142.274-.225.291l.664.056c-.046-.372.487-.418.448-.728l-.699.449c-.046-.372.366-1.098.838-1.072.125.14-.06.675-.045.799.055-.134.433-.283.48-.195l-.19.216c.267.12.404-.532.732-.2.11.015.342.455.352.232-.193-.413-.283-1.732-.179-2.063.04.024.586.368.718.57.192.323-.235.818-.072 1.095.002-.103.096-.236.135-.28.117.08-.035.32.21.257.026-.382.503-.003.104-.33.237-.125.26.061.542.024-.1-.239.223-.853.462-.979-.01.098.048.22.077.276.496 0 .768.15 1.23.126.046.09.272.188.183.357.064-.07.12-.203.263-.22.286.312-.316.068-.093.452.01-.222.358-.327.556-.476-.073-.338-.47-.039-.669.11-.017-.47.321-.983.798-1.228.381-.14.176.295.24.224.725.04.592-.857 1.202-.552.246.286.027.595.086.809-.31.131-.486-.163-.698-.138l.266.126c-.097.106-.303.193-.42.113.207.26 1.22-.023 1.783.206.096-.104.264-.216.18-.333l-.174.05c-.169-.235.322-.35.097-.453.232-.18.49-.46.827-.338l.07.34c-.009-.1-.222-.194-.313-.086.135-.158.521.44.663-.014l-.239-.227c.234-.182.52-.559.817-.464-.142-.332-.067.042-.286-.344.193.484-.756.013-.452.517-.226-.45-.378-.178-.669-.557.012.113.105.212-.144.167a.49.49 0 0 1-.052.102L52.335.38l.014.013c-.01.017-.011.021.005.004.06.047.11.104.13.166-.116.265-.51.274-.64.414-.149-.047.058-.132-.026-.249l-.193.21c-.027-.25-.403-.4-.06-.562l-.312.005c-.188-.13-.443-.171-.596-.057-.148-.046-.363.299-.24.095l-.486.183-.006-.062c-.484-.004-.98.472-1.548.052-.16.072-.325.163-.6.11l-.06-.213c-.206.09-.635-.172-.717.06-.247-.567-1.018-.056-1.389-.134L45.608.7c-.253.002-.492.1-.8.24l.03.248c-.262.228-.703-.12-1.129-.058.025-.098.134-.082.214-.03-.536-.523-1.059.5-1.54.127-.111.1-.196.076-.28.02a.05.05 0 0 0 .028-.015.197.197 0 0 0-.048 0c-.053-.037-.108-.082-.166-.116.05.056.1.101.141.12a1.07 1.07 0 0 0-.351.134l-.07-.263c-.01.004-.019.004-.03.01-.134-.086-.098.137-.019.333a.723.723 0 0 0-.167.178c-.126-.423-.339.18-.506-.269-.077.234-.656.234-.701.714-.008-.061-.048-.087.023-.098-.15-.04-.3-.08-.425.067l-.08-.335-.298.49c-.206-.19-.294-.302-.114-.583-.446.448-.372.19-.747.633l.007-.223c-.142.024-.353.345-.449.172-.342-.383-1.577.111-2.418-.183.199.63-.398-.244-.398.263-.058-.148-.177-.22-.053-.37-.407.202-.642-.166-.903.293-.057-.149.075-.236.027-.322-.032.038-.124.15-.174.063-.048-.086.053-.136.115-.21-.425.077-.436.555-.438 1.002-.23-.183-.335-.141-.471.169-.085-.136-.22-.272.04-.357-.15-.004-.923-.099-.913.26-.053-.083-.21.003-.246.049-.335.024-.367-.004-.691.074l.094.045c-.098.446-.265.133-.525.22l.005-.045c-.628-.227-.25.183-.874-.089l.053.262c-.013.582-.554-.268-.884.005l.137.134c-.174.223-.588-.7-.784-.744-.046-.044.059-.09.114-.135-.524-.264-.038.358-.402.494-.083-.178.05-.491-.202-.49-.137-.133-.675.719-1.044.409.086.134.172.267.01.401-.26.09-.76-.44-.96.056a.17.17 0 0 1-.056-.106c-.192.15-.639.301-.739.569-.265-.889-1.213.649-1.282-.2l-.616.146.009-.089c-.401.013-.523.24-.643.468-.097-.042-.037-.132-.034-.178-.593-.07-.648-.023-1.093.483l-.076-.266c-.116.183-.877-.287-1.413.137a.223.223 0 0 1 .05-.135c-.605.442-1.602-.473-1.735.569l-.395.325c.551-.025-.037.448.203.571-.207.1-.583-.197-.325-.297l.046.042c.043-.538-.694-.058-.716-.414-1.066.24-2.139.161-3.143.342l.16.38-.352.05c-.102-.075-.158-.29.093-.326-.157-.201-.397.28-.394.369-.506-.061.138-.51-.013-.49l-.2.074.051.037c-.146.2-.14.377-.442.423-.2-.04-.126-.228-.203-.227-.003-.03-.03-.037-.116.013l-.444.062.213.28c-.176.198-.415.076-.17.39-.364-.493-1.664.18-1.87.056-.242.3-.51.365-.848.422.093.046.19.385-.1.42 0-.762-.571-.175-.883-.639.26.288-.805.327-.401.726-.249.01-.058-.27-.267-.388-.524.452-1.288.207-1.977.55.008.099.152.203.029.397l-.462-.34c-.13.099-.018.595-.337.36.052.067.13.167.043.232-.73.027-1.407.419-2.088.776a6.92 6.92 0 0 1-1.037.486 2.93 2.93 0 0 1-1.125.189c.235.07.119.158-.018.245.103-.01.066.225.122.337l-.666-.015c.008.397-.586.398-.535.753l.154-.168c-.1.523.604.638.728 1.15.053-.3.275-.234.504-.205.231.03.468.021.585-.405.123.052-.032.202.052.29.043-.269.16-.382.425-.413l-.012.068c.326-.209.58-.282.849-.34.267-.062.553-.094.952-.19l-.116-.226c.172-.04.226.023.317.052.101-.467-.468.185-.395-.313.336.405 1.177-.489 1.45.039.258-.093-.136-.266.123-.36l.1.134.024-.23c.176-.03.3.139.334.271-.044 0-.109.082-.15.11.254.104.602-.294.69-.255l-.267-.013c.678-.398 1.578-.475 2.219-1l-.072-.107c.495-.382.445.007 1.013-.256l-.017.035a.63.63 0 0 1 .409-.288c-.128.182.317.207.145.416.545-.39.26-.264.58-.818l.116.182c.106-.218.105-.317.393-.44-.219.232.228.265-.013.561.672.297.86-.667 1.224-.078.216-.63-.573-.192-.429-.35-.156-.154.183-.475.385-.463.2-.032.423.647.919.528-.05.009-.048.052-.098.06.203.104.342-.275.598-.089.09-.37.3-.043.287-.487l-.446.197c.246-.169.432-.731.888-.573-.023.095-.138.238-.218.32.14.103.231-.136.376-.03.011.444-.546.212-.787.603.155.157.49-.427.404.076.133-.645.5-.027.787-.554l.007.266c.049-.051.146-.197.246-.21l-.142.375c.243-.345.556.147.801-.063-.549.118-.157-.291-.41-.436.64-.487.463.607 1.209.329-.099.058-.403-.08-.255-.234.15.025.352.087.455.208.498-.156-.105-.255.092-.46.205.286.233-.179.444-.325l.029.266c.592.06.095-.585.633-.476l-.18.41.26-.146-.025.314c.27-.28.367-.24.663-.208-.085-.175-.01-.49.243-.547.19.126-.072.272.285.166-.065.182-.133.408-.314.192-.008.09-.064.182-.072.272.205.146.474-.047.604-.074-.051 0-.113-.004-.148-.036l.487-.468c.092.085.034.177-.022.269.103-.05.164-.186.317-.238-.019.225.013.447-.198.59l.475-.334c.042.088.28.212.223.303.289.08.637-.54 1.02-.435.015-.045.05-.092.124-.137.35-.01.679.202 1.06-.166l.266.348c.312-.144-.358-.436.161-.675.366-.19.17.307.313.392.17-.228.46-.679.835-.418-.108.092-.203.049-.308.095" mask="url(#b)"/>
        </g>
        <path fill="#202020" d="M35.616 5.77a.602.602 0 0 0-.054.268c-.082-.072-.093-.165.054-.268M22.427 6.552c-.01.005-.02.004-.029.008a.259.259 0 0 1-.035-.086l.064.078zM46.822 4.633a.735.735 0 0 0-.31.296c-.026-.116.041-.226.31-.296M55.619 7.233l-.519-.046c.245-.014.314-.131.423-.226.007.113-.061.289.096.272M56.832 4.659c.09.044.172-.023.262.022l.015.225c-.347.045-.619-.092-.277-.247M54.898 6.146c-.007-.41.45-.347.95-.354-.03.003-.058.004-.087.014.232.536-.317.439-.863.34"/>
        <path fill="#202020" d="M54.912 6.217c.123-.001.247-.01.361-.048.083.217-.138.07-.361.048M54.363 7.015c.14-.118.172.454.236.29.247.44-1.121-.401-.236-.29M55.01 4.809l-.059.517-.283-.364z"/>
        <path fill="#202020" d="M54.73 5.28l.758-.268c.002.086.107.117.234.134-.477.098-.988.284-.991.135"/>
        <path fill="#202020" d="M54.727 5.267c.197-.04.387-.06.51.003a1.821 1.821 0 0 1-.51-.003"/>
        <path fill="#202020" d="M55.214 5.152l-.128.125-.34.088zM50.31 6.228l-.497-.079c-.075-.162.037-.284.224-.24.132.104.319.146.273.319M52.057 5.587c-.171.112-.17.203-.256.35l-.09-.49.346.14zM49.961 5.277c-.073-.164-.74-.402-.158-.439.074.163.554.245.158.439M46.702 5.91l.174-.017.108.981zM42.502 4.723c.741-.37.288.718.944.285.223.263-.536.353-.314.578-.513-.249-.737-.055-.63-.863M42.552 5.524c.083.03.172.068.268.122a.786.786 0 0 1-.268-.122M.703 7.72l-.498.061.359-.235z"/>
        <g transform="scale(1 -1) rotate(11 40.693 -2.807)">
            <mask id="d" fill="#fff">
                <use xlink:href="#c"/>
            </mask>
            <path fill="#202020" d="M.434.68L.039.28 0 .78C.098.724.288.61.435.68" mask="url(#d)"/>
        </g>
        <path fill="#202020" d="M29.817 5.812l.053.152c-.066.175-.186.198-.428.245l.375-.397zM26.57 6.258l.12-.022-.192.546zM24.323 5.852c.304-.053.668.047.973-.01-.669-.042-1.029.751-.973.01M53.83.434c-.11.027-.034-.387-.043-.464.168.109.028.572.042.464M53.926 1.143L53.91.97l.218.44zM56.081 1.75c-.193.87-.605-.237-.916.034l-.058.197-.108-.74c.36.17.816.72 1.082.51M55.14 1.007c-.078.27.166.254-.209.067.022-.028.03-.045.043-.066a.48.48 0 0 0 .166-.001M55.008 1.24c-.168-.036.133-.222 0 0M56.092 1.03l-.197-.236c.065-.144.268-.165.207-.276.215.135.15.278-.01.511"/>
        <path fill="#202020" d="M56.028 1.041L55.92.926c.026-.066.06-.088.107.115M54.883.827l.227.242c-.043.112-.067.342-.106-.09 0 .213-.03.006-.121-.152"/>
        <path fill="#202020" d="M55.281.732c-.14.14-.313.22-.111.476-.42-.129-.308-.606.111-.476M55.416 2.022l-.188.194-.124-.253c.062.125.342-.163.312.059M56.212.496c-.003.14-.119.364-.156.54l-.147-.17c.096-.09.267-.166.303-.37M56.108 1.72l.225.28c-.224.011-.254-.116-.225-.28"/>
        <path fill="#202020" d="M55.388 2.162l-.328-.423.405.43zM56.932.687l-.1-.311.188.473z"/>
        <path fill="#202020" d="M56.929.866c-.065-.234.202-.386.117-.532.16.047.272.25.372.434-.12-.105-.27-.084-.49.098M57.239 1.825c-.064-.076-.125-.207-.192-.346a.944.944 0 0 1 .192.346"/>
        <path fill="#202020" d="M57.115 1.827c.027-.09.086-.325.234-.414l-.136.417-.098-.003"/>
        <path fill="#202020" d="M57.114 1.825l.005-.014.213-.004-.218.018"/>
        <path fill="#202020" d="M57.113 1.811h.025c-.013.042-.02.055-.025 0M56.035 1.04c.132.291.423.623.103.999-.087-.347.096-.56-.103-.999"/>
        <path fill="#202020" d="M56.41 1.966l-.273.073c.016-.112.078-.272.016-.396l.257.323zM57.204 1.832l-.117-.147.101-.028z"/>
        <path fill="#202020" d="M57.22 1.465c.098.196.221.222.36.265a.927.927 0 0 1-.468.086c-.009-.136-.052-.381.108-.351"/>
        <path fill="#202020" d="M57.12 1.794c.007.01.016.016.022.027-.018.035-.032.044-.023-.027M58.13 1.582l-.03.075.002-.074.028-.001zM57.308 1.8c-.121.073-.18-.038-.232-.174.08.05.168.086.264.098.004.06.002.1-.032.077"/>
        <path fill="#202020" d="M57.337 1.632a1.436 1.436 0 0 1-.218.216c.07-.13.206-.328.218-.216"/>
        <path fill="#202020" d="M57.13 1.846c-.005-.007-.01-.015-.016-.02.046-.088.037-.044.016.02M57.131 1.547c.053.067.09.176.127.274a.61.61 0 0 1-.176-.16.721.721 0 0 0 .05-.114"/>
        <path fill="#202020" d="M57.841 2.726c.044-.301-.22-.58-.568-.258-.225-.226.168-1.217.527-1.771-.02.131-.046.253.198.432-.134.164-.71.384-.53.657.34.156.33-.107.545-.265-.235.374.358.547.157 1.099l-.285-.195c-.025.086.064.223-.044.301M57.186 1.808l-.087-.06c.105-.05.185-.193.333-.47.138.206.162.35.166.477l-.44-.008.028.061z"/>
        <path fill="#202020" d="M57.397.969c.016.328.284.464.008.823-.365-.017-.191-.271-.377-.411.579.073-.126-.181.355-.374a.847.847 0 0 0-.303-.083A2.32 2.32 0 0 0 57.43.77a1.047 1.047 0 0 1-.02.02h-.002v.004c-.037.042-.051.068-.016.044 0 .003.007.005.01.006a.57.57 0 0 0-.004.124c.191-.07.049-.086.004-.124a1.82 1.82 0 0 1 .006-.05L57.41.79l.555.172c-.139.047-.296.04-.568.007M56.137 2.038c.02-.036.021-.067.025-.098.028.056.038.093-.025.098"/>
        <path fill="#202020" d="M56.465 1.877c-.035-.06-.046-.23-.197-.192-.146.122-.032.202-.06.34-.07-.115-.258-.312.048-.508l.035.06c.27-.137.67-.65.636-.71a4.725 4.725 0 0 1-.462 1.01M57.07 1.348l.394.188-.26.296.038-.182c-.25.062-.163-.16-.171-.302M58.068 1.49l.008-.337.152.48z"/>
        <path fill="#202020" d="M58.1 1.657l.016-.395.124.25zM63.166 5.766l-.195-.017c.065.002.13.008.195.017M63.943 5.51l.32.043c-.187-.017-.318-.033-.32-.042M65.336 2.194c.461-.304 1.161-.776.833-.378l-.364.381c-.129-.096-.3-.072-.47-.003M68.285 4.77l-.396.078.965-.275-.569.197M65.924 5.219l.983-.18-.983.18M62.266 5.941l-.339-.318c.199-.106.22.137.34.318M61.02.922c.173-.155.304-.215.415-.226-.211.231-.397.59-.414.226M66.798 7.098a1.25 1.25 0 0 1-.51-.001c.203-.035.38-.045.51 0"/>
        <path fill="#202020" d="M61.459.928c-.032.04-.06.06-.092.094-.108-.083-.218-.151-.36-.136.156-.172.326-.272.452.042M55.913 11.19c-.004.023-.014.038-.015.064-.028-.052-.013-.062.015-.064M56.268 13.196c.06.006.137-.027.213-.053-.024.043-.085.066-.213.053M60.11 1.267c-.114-.04-.014-.05 0 0M59.245 2.234a.47.47 0 0 1 .028.214.604.604 0 0 0-.028-.214M61.447 2.994l.01-.001c-.042.081-.035.065-.01 0M59.082 1.467a.554.554 0 0 1 .161-.115.562.562 0 0 1-.161.115"/>
        <path fill="#202020" d="M59.188 1.434c-.043.016-.075.023-.106.033-.009-.074.009-.118.106-.033M60.255 1.238a.332.332 0 0 0-.193.028c.025-.028.037-.05.032-.066.034.01.082.023.161.038M60.71 9.253c0 .016-.004.028-.003.047-.187-.108-.127-.105.004-.047M63.963 5.611l.024-.018.032-.013-.056.031z"/>
        <path fill="#202020" d="M63.963 5.611c.592-.457.451-.414.274-.327l.74-.52.758-.516s-.419.346-.863.686l-.91.677"/>
        <g transform="scale(1 -1) rotate(11 97.276 280.406)">
            <mask id="f" fill="#fff">
                <use xlink:href="#e"/>
            </mask>
            <path fill="#202020" d="M5.931 2.006l.016.077c-.081.048-.05-.011-.016-.077m.873 9.021a.183.183 0 0 0 .014.109c-.003-.068.03-.086.073-.083-.025-.062-.054-.1-.087-.026m.174.05v-.014c.094.07.06.04 0 .014m5.63-4.159c-.173-.022-.055-.024.2-.022.026.012-.024.022-.2.022m-2.158-.64c-.09.015-.335.08-.142.006.405-.128.237-.054.142-.006m-.811-.206c.003.002-.088.184-.091.183-.242.258-.162.168-.324.408.202-.298.236-.302.269-.307.033-.004.066-.009.355-.266l-.046.06-.05.06c-.001-.008-.036.022-.037.014-.12.132-.01.041.14-.063.15-.105.34-.224.34-.168-.018.052-.104.125-.205.171l.117-.042.123-.04c.005.019-.133.09-.135.075l.155.01-.025.011c.14-.057.382-.132.495-.16-.094.07-.109.032-.208.083l.139-.03.143-.026c-.211.105-.489.17-.488.14-.409.2-.356.176-.237.142.113-.036.302-.077.061.039l-.155.025-.396.157c-.058.023-.087.038-.269.091.097-.027.322-.095.542-.172.222-.077.44-.161.593-.187-.059.032-.082.05.16.007-.372.103-.257.089-.202.1l-.523.121c.171-.025.442-.084.707-.124-.009.034-.438.116-.805.182-.033.014.144-.016.34-.054.197-.037.411-.082.505-.071-.17.062.093.037.563.044-.18.042-.405.031-.575.056l.56-.025c-.003.006-.17.016-.253.022.24.002.667-.049.92-.024.388-.017.156.021-.075.053-.227.034-.463.056.041.071-.194.012-.466 0-.75.006l1.49.102-.22.016-.227.011c.279-.003.611.008.97.034l.273.022.225.023.388.053.731-.005c.004-.002.205.102.2.104-.147.003-.378-.023-.659-.053l.144.025a4.925 4.925 0 0 1-.546-.019l-.604-.057.55.004a26.66 26.66 0 0 0-1.45-.098c.087.007.153.017.181.026-.141-.01-.243-.015-.324-.02-.088-.003.08.01.264.029l-.91-.041.345.023-.334.006-.32.002c.775.097 1.832.275 1.862.43-.475-.107-.867-.138-1.498-.238.36.043.327.016.22-.017-.106-.035-.29-.075-.178-.082a4.033 4.033 0 0 1-.538-.05l.267.062.248.07c-.527-.077-.424-.046-.667-.068 1.046.15.567.152.792.237-.318-.064-.63-.135-.487-.145-.402-.054-.133.006.128.077.265.069.522.149.187.1.013-.009.071-.003-.077-.04.224.08-.106.077-.327-.001l.012-.009c-.11.01-.19.042-.176.104.017.06.118.157.403.285l-.825-.35s.471.217.87.464c.1.061.198.124.287.184a6.056 6.056 0 0 1 .43.332c-.2-.123-.592-.309-.96-.493-.362-.183-.682-.36-.777-.44-.091-.023-.185-.054-.08.05.073.03.684.327.691.362l-.43-.174c-.068-.026-.134-.044-.36-.15.111.043.706.456.615.472-.08-.065-.588-.407-.636-.456 0 0 .125.11.234.226.11.116.206.237.206.237-.06-.09-.454-.36-.619-.475.11.082-.085.023-.06.076l.15.088c-.091-.011.041.16.154.347.117.186.215.387.103.415-.044-.114-.427-.64-.528-.68.077.132.254.454.366.794.116.337.157.695.071.856l-.113-.142-.06.13-.066.133a6.905 6.905 0 0 0-.071-.97 4.262 4.262 0 0 0-.224-.843c-.11-.104-.116-.174-.158-.14-.089-.14-.093-.228-.09-.24a.89.89 0 0 1-.118-.066c.143.325.052.362.133.648 0 0 .017-.106.019-.206.003-.1-.009-.194-.009-.194.078.16.168.394.194.599.029.203-.012.378-.103.381-.07-.124-.126-.63-.166-.74a.291.291 0 0 1-.02.17c-.04.05-.083.075-.101.036l.044-.222c-.138-.088-.082.539-.285.255-.05-.004-.231-.399-.196-.187.16.372.435 1.61.449 1.931-.022-.02-.32-.288-.415-.466-.141-.285-.044-.796-.165-1.041a.9.9 0 0 1-.009.278c-.065-.063-.042-.306-.138-.221.058.363-.218.054.015.321-.081.143-.124-.03-.24.034.086.215.057.828-.024.97a1.022 1.022 0 0 0-.083-.251c-.216.051-.363-.066-.558.009-.036-.08-.152-.147-.144-.316-.015.074-.016.206-.074.238-.18-.262.124-.101-.043-.437.036.21-.095.349-.153.512.094.31.21-.017.27-.18.092.44.04.963-.12 1.25-.14.174-.13-.258-.146-.184-.32.044-.096.875-.416.657-.16-.241-.122-.558-.187-.752.11-.16.24.097.327.05l-.138-.089c.022-.11.095-.216.16-.155-.137-.219-.524.158-.807.018-.022.11-.074.238-.016.337l.066-.069c.116.2-.074.37.043.439-.066.2-.125.495-.292.423l-.094-.311c.022.093.132.154.15.04-.028.167-.306-.348-.282.098l.145.183c-.066.202-.118.592-.263.54.123.295.02-.047.187.289-.173-.431.322-.108.097-.544.181.395.195.12.39.44-.025-.104-.084-.186.032-.176a.8.8 0 0 1 .003-.102l.009.005-.009-.01c.002-.018.001-.022-.003-.003a.421.421 0 0 1-.087-.14c.001-.264.168-.323.198-.471.073.025 0 .132.057.231l.044-.222c.058.232.247.325.13.522l.134-.042c.105.1.222.11.267-.015.072.027.101-.323.086-.117l.175-.228.014.058c.21-.051.337-.557.658-.225.056-.086.111-.187.24-.166l.065.194c.073-.106.306.099.3-.128.21.51.45-.051.625-.016l-.05-.268c.11-.028.196-.144.305-.303l-.057-.232c.036-.119.118-.106.213-.076.05.014.09.038.155.041.074 0 .15-.01.218-.044.007.095-.075.102-.138.068.236.193.417.017.544-.158.135-.179.219-.356.477-.25.028-.103.097-.1.185-.072-.007.004-.01.01-.01.018a.12.12 0 0 0 .032-.01c.057.02.122.045.184.06a.847.847 0 0 0-.169-.067.408.408 0 0 0 .166-.17l.213.187c.005-.006.011-.008.016-.015.156.037-.019-.122-.198-.255a.31.31 0 0 0-.006-.162c.184.145.214.095.245.049.033-.047.065-.09.294.051-.123-.18.282-.29-.122-.605.06.039.108.049.073.067.129.002.268 0 .207-.11l.378.19s-.067-.089-.14-.174a4.033 4.033 0 0 0-.155-.169c.323.078.517.12.682.318-.074-.174-.069-.215-.06-.256.004-.04.01-.08-.126-.225l.258.116c.076-.04-.18-.231.1-.163.359.064.615-.028.899-.133.287-.108.59-.225 1.18-.274-.607-.073-.427-.075-.198-.079.23-.004.518-.015.073-.08.304.026.538.016.693.084 0-.074.211-.101.355-.134.143-.033.216-.07-.112-.145.336.013.385.063.593.068-.042-.016-.176-.06.036-.056.211.003.216.038.3.07.257-.133-.692-.209-1.593-.275.551-.02.566-.055.02-.116.35 0 .756-.019.714.05a20.114 20.114 0 0 1 .135-.032c.008-.002.028-.004.025-.007l-.007-.01a.347.347 0 0 0-.106-.09c-.11-.065-.309-.125-.673-.13.158-.011-.062-.06-.164-.07-.137-.094-.094-.105-.337-.197l-.06.03c-.87-.006-.315-.065-.55-.134l.083-.003c.118-.098.012-.115-.074-.127-.09-.013-.16-.022-.03-.138l-.421.06c-.488.046-.404.002-.282-.07.125-.068.277-.17.02-.188l-.166.073c-.195.002.037-.082.296-.187.26-.104.547-.23.535-.274.043-.03.154-.004.244.004.14-.282-.533.09-.866.004.209-.09.703-.14.581-.24.058-.05-.268-.058-.558-.073-.292-.018-.545-.041-.447-.182a.685.685 0 0 1-.464.183c-.104-.025-.051-.144-.071-.243-.017-.097-.098-.175-.39-.08a.227.227 0 0 1 .081-.079c-.237.006-.574-.078-.837.053.323-.322.028-.35-.218-.344-.253.007-.466.043-.224-.283l-.405-.142.05-.066c-.228-.164-.398-.032-.54.112-.033-.075.03-.128.05-.165-.143-.155-.25-.237-.33-.23-.071.01-.154.091-.302.244l.038-.267c-.09.125-.26-.562-.57-.366a.28.28 0 0 1 .053-.104c-.339.187-.49-.994-.799-.095l-.23.157c.215.168-.124.395-.063.59-.103.018-.173-.38-.05-.383l.007.054c.148-.474-.25-.292-.171-.625-.46-.165-.85-.613-1.276-.804l-.03.403-.145-.08c-.02-.104.009-.32.113-.264-.013-.24-.217.114-.237.196-.178-.235.172-.417.11-.45l-.093-.005.01.053c-.102.13-.142.294-.267.226-.066-.108.006-.253-.023-.28.005-.028-.003-.045-.047-.03l-.183-.105.015.333c-.113.118-.174-.084-.155.294-.023-.582-.669-.45-.716-.645-.16.18-.274.132-.414.056.024.076-.018.426-.135.341.178-.692-.17-.386-.177-.932.028.37-.37-.04-.315.49-.093-.094.042-.268-.007-.462-.297.189-.515-.363-.838-.373-.021.092.005.252-.084.369l-.082-.52c-.069.025-.148.52-.204.16.003.084.006.21-.04.227C2.059.472 1.298 1.108.818.07.874.276.815.278.751.266.785.322.714.498.703.628L.5.2C.4.54.22.144.143.474l.09-.037c-.167.368.018.93-.075 1.437.19-.419.213.761.508.17.027.117-.062.154-.057.279.083-.205.15-.233.246-.1l-.021.05c.32.041.42.297.745.548l.015-.26c.07.057.073.14.098.215.149-.354-.207-.089-.06-.485.015.545.529.177.498.78.114.04.015-.302.13-.262l.004.168.063-.194c.07.057.075.267.055.4-.016-.021-.058.021-.08.026.066.216.286.028.31.099l-.094-.134c.339-.04.685.29 1.045.077l-.002-.126c.272-.138.162.194.434.182l-.014.025c.072-.1.151-.136.218-.098-.09.116.071.31-.042.434.294-.145.158-.14.407-.518v.21c.09-.157.113-.248.25-.253-.136.13.024.327-.135.507.182.524.478-.288.477.382.228-.496-.17-.385-.08-.475-.023-.198.18-.368.253-.282.083.044.008.746.222.816-.02-.01-.03.03-.05.02.051.168.192-.128.245.133.12-.306.123.067.223-.343l-.215.022c.132-.066.335-.515.47-.207a.721.721 0 0 1-.158.214c.029.143.12-.04.149.107-.1.408-.256-.003-.438.27.021.198.285-.216.134.212.202-.54.193.154.426-.227l-.06.245c.03-.03.102-.129.142-.106l-.142.293c.173-.23.173.33.315.223-.234-.084.01-.32-.05-.54.357-.219.03.714.374.724-.05.017-.131-.215-.039-.303a.75.75 0 0 1 .12.35c.223.036.022-.269.145-.384.008.332.13-.08.245-.139l-.054.253c.207.261.179-.5.355-.214l-.169.312.134-.044-.087.277c.17-.162.197-.092.3.04.011-.188.117-.449.226-.411.04.18-.094.221.065.25-.07.143-.15.324-.165.065-.025.079-.069.143-.094.221.04.205.189.123.244.144a.133.133 0 0 1-.046-.083l.298-.255c.013.109-.032.173-.076.236.051-.009.108-.11.178-.104-.063.196-.107.409-.22.466l.26-.138c-.007.095.05.29.007.353.087.17.373-.27.49-.045a.148.148 0 0 1 .08-.08c.067.054.118.158.181.223.016.016.033.03.05.04.006.005.013.005.021 0a.388.388 0 0 0 .073-.102s-.02.092-.047.181c-.025.09-.056.177-.056.177.026-.035.068-.142.107-.26.04-.116.077-.242.156-.282.123-.072-.114.293-.144.391.052-.077.14-.192.21-.248.067-.057.118-.055.049.078-.062.047-.041-.003-.074.012" mask="url(#f)"/>
        </g>
        <path fill="#202020" d="M65.926 5.23l.977-.213c-.27.067-.615.144-.977.213M62.047 5.974c-.002.006-.006.006-.009.011a.53.53 0 0 1-.054-.07l.063.06zM61.808 5.011a.532.532 0 0 0 .18-.234c-.007.118-.052.215-.18.234M59.082 1.181l.242.148c-.12-.035-.173.067-.242.138.015-.112.078-.27 0-.286M57.4 2.812c-.031-.063-.078-.014-.109-.076l.03-.223c.157.029.25.219.08.3M58.446 1.352c-.057.402-.203.25-.374.16.01.002.02.006.032.002-.002-.569.17-.365.342-.162"/>
        <path fill="#202020" d="M58.253 1.628a.249.249 0 0 0-.163-.025c0-.228.07-.041.163.025M60.084 1.205c-.095.087.006-.46-.06-.317-.035-.46.487.581.06.317M58.291 2.639l.11-.493.062.411zM59.594 2.33l-.296.113a.193.193 0 0 0-.06-.176c.176-.002.376-.083.356.063"/>
        <path fill="#202020" d="M59.466 2.41c-.092.002-.177-.017-.22-.103.048.01.153.035.22.104M58.291 2.639l.093-.097.204-.018zM60.404 2.819l.296.17c.016.174-.077.271-.186.193-.064-.126-.173-.203-.11-.363"/>
        <path fill="#202020" d="M60.402 3.016c.095-.083.115-.177.181-.313l-.065.522-.116-.209zM60.697 3.716c.015.174.405.533.016.459-.016-.173-.313-.344-.016-.46M61.69 4.016L61.612 4l.104-1.008zM63.03 5.773c-.206.164.309-.445.063-.24.086-.174.205-.167.283-.317-.05.188.052.09-.346.557M62.79 4.82c.01-.039.026-.086.049-.15a.46.46 0 0 1-.049.15"/>
        <g transform="scale(1 -1) rotate(11 102.469 280.906)">
            <mask id="h" fill="#fff">
                <use xlink:href="#g"/>
            </mask>
            <path fill="#202020" d="M.435.261L.243.004l.082.367z" mask="url(#h)"/>
        </g>
        <path fill="#202020" d="M55.566 13.865l.17.477-.334-.365c.06.002.176.005.164-.112M62.953 5.66l.233.012c.248.016.26.023.286.035l-.519-.047z"/>
        <path fill="#202020" d="M62.913 5.434l-.006-.011.565.284zM61.948 5.72c-.018-.019.087.073.072.052-.08-.076.457.49-.072-.052"/>
    </g>
</svg>
