<svg xmlns="http://www.w3.org/2000/svg" width="30" height="30" viewBox="0 0 30 30">
    <path fill="#4A4A4A" fill-rule="evenodd" d="M15 0C6.717 0 0 6.886 0 15.38c0 6.795 4.298 12.56 10.258 14.594.75.142 1.025-.334 1.025-.74 0-.367-.014-1.579-.02-2.864-4.174.93-5.054-1.814-5.054-1.814-.682-1.778-1.666-2.25-1.666-2.25-1.36-.955.103-.936.103-.936 1.506.109 2.3 1.585 2.3 1.585 1.337 2.352 3.508 1.672 4.364 1.279.135-.994.524-1.673.953-2.057-3.332-.389-6.834-1.707-6.834-7.6 0-1.68.586-3.052 1.545-4.129-.156-.387-.669-1.951.146-4.07 0 0 1.26-.413 4.126 1.577 1.196-.341 2.48-.512 3.754-.518 1.275.006 2.56.177 3.758.518 2.863-1.99 4.12-1.577 4.12-1.577.817 2.119.304 3.683.148 4.07.962 1.077 1.544 2.45 1.544 4.128 0 5.908-3.51 7.208-6.85 7.589.538.477 1.018 1.413 1.018 2.848 0 2.058-.018 3.714-.018 4.22 0 .41.27.89 1.03.739C25.708 27.936 30 22.172 30 15.38 30 6.886 23.284 0 15 0"/>
</svg>
