<svg xmlns="http://www.w3.org/2000/svg" width="25" height="25" viewBox="0 0 25 25">
    <path fill="#FFF" fill-rule="evenodd" d="M6.4 18.266a6.1 6.1 0 0 1 12.199 0H6.401zm6.1-13.024a2.912 2.912 0 1 1 0 5.824 2.912 2.912 0 0 1 0-5.824zM12.5 0C5.607 0 0 5.607 0 12.5c0 3.443 1.4 6.564 3.659 8.827.005.005.005.014.01.018.026.028.058.046.085.07.544.533 1.13 1.019 1.762 1.446.073.05.152.089.227.139.605.39 1.239.736 1.91 1.02.079.035.16.057.24.09.68.27 1.384.49 2.116.64.045.009.091.011.134.02.764.146 1.55.23 2.357.23.807 0 1.593-.084 2.357-.23.045-.009.09-.011.134-.02.734-.148 1.438-.37 2.12-.64.078-.033.157-.055.234-.087a12.472 12.472 0 0 0 1.923-1.028c.068-.045.141-.081.21-.127.642-.434 1.24-.93 1.792-1.473.019-.018.041-.031.062-.05.002-.002.002-.009.007-.01a12.47 12.47 0 0 0 3.66-8.835C25 5.607 19.394 0 12.5 0z"/>
</svg>
