<svg xmlns="http://www.w3.org/2000/svg" width="151" height="32" viewBox="0 0 151 32">
    <g fill="#FFF" fill-rule="evenodd">
        <path d="M14.934 30.47H8.616V6.523H0V1h23.505v5.523h-8.571V30.47zm37.925 0h-7.202l-5.788-10.471h-4.595v10.47H29V1h13.785c6.141 0 9.897 4.02 9.897 9.5 0 5.213-3.27 7.996-6.45 8.747l6.627 11.223zM41.883 14.476c2.519 0 4.418-1.503 4.418-3.977s-1.9-3.976-4.418-3.976H35.3v7.953h6.583zM70.3 31C61.329 31 57 25.963 57 18.717V1h6.362v17.496c0 4.11 2.386 6.937 6.937 6.937 4.55 0 6.892-2.828 6.892-6.937V1h6.407v17.673c0 7.334-4.33 12.327-13.299 12.327zm40.619-.53H90.063V1h20.855v5.523h-14.58v6.23h14.27v5.522h-14.27v6.672h14.58v5.523zM119 0h32v32h-32V0zm3 3v26h26V3h-26z"/>
        <path d="M143.332 23.708h-3.888l-.984-2.712h-6.864l-1.008 2.712H126.7L132.892 7.7h4.272l6.168 16.008zm-5.808-5.712l-2.496-6.888-2.496 6.888h4.992z"/>
    </g>
</svg>
