<svg xmlns="http://www.w3.org/2000/svg" width="45" height="34" viewBox="0 0 45 34">
    <g fill="none" fill-rule="evenodd">
        <path stroke="#EE6C4D" d="M37 33H8.017s-.596-4.831 5.308-6.4c6.102-1.622 5.883-4.51 5.883-4.51v-2.2s-2.152-2.744-2.152-4.054c0 0-2.943-1.73-.514-4.073l-.347-3.927s0-2.909 2.44-4.654C21.072 1.436 25.09 1 25.09 1l-.43 1.31s4.448-.292 4.878 6.399c0 0 0 2.473-.144 3.054 0 0 2.153 2.619-1.004 3.928 0 0-.143 2.142-1.865 4.198v2.057s-.489 3.223 6.094 4.654C36.875 27.525 37 33 37 33z"/>
        <path stroke="#EE6C4D" d="M7.95 32H1s0-5.401 8.273-7.608c0 0 .641-.295.855-1.104.214-.809 0-2.447 0-2.447s-1.783-1.82-2.14-3.732c0 0-2.21-1.25-.13-3.092 0 0-1.223-4.444 2.365-6.766 2.615-1.692 4.897-1.177 4.897-1.177l-.428 1.177L16 7.458M11 23s1.467.555 3 .555V27M9 24l2 4M36.588 32H44s0-5.401-8.272-7.608c0 0-.642-.295-.856-1.104-.214-.809 0-2.447 0-2.447s1.783-1.82 2.14-3.732c0 0 2.21-1.25.13-3.092 0 0 1.223-4.444-2.365-6.766-2.615-1.692-4.897-1.177-4.897-1.177l.428 1.177L29 7.458"/>
        <path stroke="#EE6C4D" d="M35 23s-1.467.555-3 .555V27M37 24l-2 4M19 23s.754 2 3.43 2c2.674 0 3.57-1.784 3.57-1.784M29 25l-3 8M18 25l3 8"/>
        <path fill="#EE6C4D" d="M21.983 25L21 34h3l-.845-9z"/>
    </g>
</svg>
