<svg xmlns="http://www.w3.org/2000/svg" width="44" height="24" viewBox="0 0 44 24">
    <path fill="#EE6C4D" fill-rule="evenodd" d="M30.275 8.237a6.19 6.19 0 0 1-1.1-.25c-.434-.133-.867-.3-1.3-.5-.434-.2-.8-.408-1.1-.625-.3-.217-.45-.425-.45-.625 0-.133.033-.283.1-.45.066-.167.1-.333.1-.5 0-.233-.05-.517-.15-.85-.1-.333-.15-.583-.15-.75 0-.433.2-.708.6-.825.4-.117.883-.192 1.45-.225A64.67 64.67 0 0 0 30 2.512c.583-.05 1.075-.192 1.475-.425.233-.167.533-.25.9-.25.666 0 1.166.125 1.5.375.333.25.566.567.7.95.133.383.2.817.2 1.3v1.425c0 .4-.1.758-.3 1.075-.2.317-.459.575-.775.775-.317.2-.675.35-1.075.45-.4.1-.784.15-1.15.15a7.222 7.222 0 0 1-1.2-.1zm-17.5-5.4v-.25c0-.3.083-.6.25-.9.166-.3.375-.575.625-.825s.516-.45.8-.6a1.76 1.76 0 0 1 .825-.225c.333 0 .625.083.875.25.25.167.483.367.7.6.216.233.433.442.65.625.216.183.458.308.725.375.366.067.633.308.8.725.166.417.25.842.25 1.275 0 .633-.134 1.125-.4 1.475-.267.35-.6.633-1 .85-.4.217-.834.4-1.3.55a5.2 5.2 0 0 0-1.3.625c-.234.133-.534.2-.9.2-.234 0-.584-.067-1.05-.2-.467-.133-.7-.35-.7-.65 0-.033.033-.15.1-.35.066-.2.15-.417.25-.65.1-.233.208-.442.325-.625.116-.183.208-.275.275-.275.066 0 .2.042.4.125.2.083.383.125.55.125.366 0 .683-.142.95-.425.266-.283.4-.625.4-1.025 0-.3-.117-.45-.35-.45-.134 0-.284.05-.45.15-.167.1-.35.217-.55.35-.2.133-.392.25-.575.35-.184.1-.342.15-.475.15-.3 0-.492-.125-.575-.375-.084-.25-.125-.575-.125-.975zm17.25 4c.1 0 .183-.083.25-.25.066-.167.183-.25.35-.25-.5 0-.842.025-1.025.075-.184.05-.267.108-.25.175.016.067.1.125.25.175.15.05.291.075.425.075zm.3-1.4c.033.033.216.058.55.075.333.017.516.025.55.025v-.25c0-.133-.034-.2-.1-.2 0 .033-.159.1-.475.2-.317.1-.492.15-.525.15zm-3 17.922a15.57 15.57 0 0 0-.725-.1c-.284-.034-.575-.067-.875-.1a.823.823 0 0 0-.25.05l-.3.1a1.28 1.28 0 0 1-.475.1c-.15 0-.309.033-.475.1-.367.1-.725.133-1.075.1-.35-.034-.709-.075-1.075-.125-.367-.05-.725-.1-1.075-.15a3.337 3.337 0 0 0-1.075.025 3.337 3.337 0 0 1-1.075.025c-.35-.05-.709-.092-1.075-.125a9.684 9.684 0 0 1-.925-.15 1.936 1.936 0 0 0-.875 0c-.267.066-.492.05-.675-.05a7.62 7.62 0 0 1-.575-.35 1.499 1.499 0 0 0-.8-.25c-.334 0-.642-.009-.925-.025-.284-.017-.559-.142-.825-.375-.2.1-.392.116-.575.05a2.825 2.825 0 0 1-.55-.275 2.825 2.825 0 0 0-.55-.275.704.704 0 0 0-.575.05h-.15c-.1-.367-.309-.617-.625-.75a1.525 1.525 0 0 1-.725-.6c-.067-.167-.125-.267-.175-.3-.05-.034-.159 0-.325.1-.434.266-.767.183-1-.25a1.99 1.99 0 0 0-.3-.5c-.134-.167-.317-.117-.55.15-.034.033-.092.025-.175-.025a.44.44 0 0 1-.175-.175 11.854 11.854 0 0 1-.45-.675 5.38 5.38 0 0 0-.45-.625l-.3-.3c-.1-.134-.209-.25-.325-.35a.67.67 0 0 1-.225-.35c-.167-.5-.517-.7-1.05-.6-.4.066-.725-.025-.975-.275s-.342-.592-.275-1.025a.822.822 0 0 0-.025-.2c-.017-.067-.042-.1-.075-.1a.34.34 0 0 0-.225-.025 1.159 1.159 0 0 1-.225.025c-.1 0-.192.008-.275.025a1.405 1.405 0 0 1-.275.025c0-.067.008-.15.025-.25.016-.1.025-.184.025-.25 0-.034.008-.05.025-.05.016 0 .025-.017.025-.05-.2-.367-.225-.725-.075-1.075.15-.35.175-.709.075-1.075-.034-.067-.034-.15 0-.25.033-.1.083-.167.15-.2.433-.2.933-.35 1.5-.45.066-.034.158 0 .275.1.116.1.225.183.325.25.133.133.25.266.35.4a.91.91 0 0 0 .4.3c.466.166.841.416 1.125.75.283.333.541.7.775 1.1a.316.316 0 0 0 .175.15.666.666 0 0 1 .225.15c.066.066.15.116.25.15.1.033.183.083.25.15l1.05.6c.1.1.15.133.15.1.366.566.833.916 1.4 1.05a13.5 13.5 0 0 1 1.65.5.436.436 0 0 0 .225.125.436.436 0 0 1 .225.125c.133.233.283.391.45.475.166.083.35.133.55.15.2.016.4.016.6 0 .2-.017.383.008.55.075.333.1.658.208.975.325.316.116.641.241.975.375.1.066.216.116.35.15.133.033.216.033.25 0 .2-.267.416-.359.65-.275.233.083.466.141.7.175.466.066.916.108 1.35.125.433.016.883.058 1.35.125.633.066 1.258.125 1.875.175a4.872 4.872 0 0 0 1.875-.225c.066 0 .141.008.225.025.083.016.125.041.125.075.1.366.233.508.4.425.166-.084.316-.175.45-.275.266-.2.533-.334.8-.4.266-.067.55.016.85.25.133.066.233.083.3.05a8.527 8.527 0 0 1 2.375-.65c.816-.1 1.625-.234 2.425-.4.433-.1.85-.225 1.25-.375s.8-.292 1.2-.425c.1-.034.2-.05.3-.05.1 0 .2-.017.3-.05.8-.267 1.533-.534 2.2-.8.033 0 .083-.067.15-.2.233-.567.583-1 1.05-1.3.466-.3.933-.584 1.4-.85.233-.167.5-.317.8-.45.3-.134.466-.4.5-.8.066-.134.166-.2.3-.2 1.166-.067 2.083.383 2.75 1.35.233.333.216.633-.05.9-.267.266-.542.525-.825.775-.284.25-.459.608-.525 1.075 0 .066-.042.108-.125.125a.436.436 0 0 0-.225.125 7.104 7.104 0 0 1-.525.475c-.184.15-.359.308-.525.475-.1.133-.184.275-.25.425-.067.15-.234.191-.5.125-.1 0-.167.05-.2.15-.167.433-.425.75-.775.95-.35.2-.709.383-1.075.55-.3.133-.6.35-.9.65-.267.266-.559.45-.875.55-.317.1-.659.2-1.025.3a3.44 3.44 0 0 0-.425.2 3.44 3.44 0 0 1-.425.2c-.634.166-1.25.341-1.85.525-.6.183-1.234.358-1.9.525-.534.1-1.084.183-1.65.25-.567.066-1.184.15-1.85.25z"/>
</svg>
