<svg xmlns="http://www.w3.org/2000/svg" xmlns:xlink="http://www.w3.org/1999/xlink" width="119" height="143" viewBox="0 0 119 143">
    <defs>
        <path id="a" d="M.194.155H1.5v3.556H.194z"/>
        <path id="c" d="M.87.595h.63v3.333H.87z"/>
        <path id="e" d="M.331.063H1.5v3.333H.331z"/>
        <path id="g" d="M.09.095H.5v3.556H.09z"/>
        <path id="i" d="M.563.803H1.5v3.333H.563z"/>
        <path id="k" d="M.216.645h2V1.5h-2z"/>
        <path id="m" d="M0 .065h32.426V41H0z"/>
        <path id="o" d="M.297.269h2V2h-2z"/>
        <path id="q" d="M.059.634h2V4h-2z"/>
        <path id="s" d="M.283.226h1.901v5.178H.283z"/>
        <path id="u" d="M.266.866h.918V5.72H.266z"/>
        <path id="w" d="M.482.091h1.702v4.854H.482z"/>
        <path id="y" d="M.132.139h.596v5.177H.132z"/>
        <path id="A" d="M.82.169h1.364v4.854H.82z"/>
        <path id="C" d="M.315.94h2.912v1.244H.315z"/>
        <path id="E" d="M0 .095h47.216V59.7H0z"/>
        <path id="G" d="M.433.392h2.912v2.52H.433z"/>
        <path id="I" d="M.086.923h2.912v4.901H.086z"/>
    </defs>
    <g fill="none" fill-rule="evenodd">
        <path fill="#EC6B4D" d="M24.522 10.975c-.056-.082-.264.513-.317.612.181-.077.374-.766.317-.612M25.573 10.735l-.119.228.425-.505zM27.527 11.673c.292-1.036-.495-.014-.562-.454l.056-.24-.419.76c.307-.021.857-.416.925-.066M28.584 14.189c.12-.402.271-.276-.097-.181l-.013.108c.027.003.061.02.11.073M28.696 13.901c-.136-.023-.052.358 0 0M29.541 14.278l-.304.276c-.062.241.063.354-.06.497.246-.119.305-.36.364-.773M30.04 13.405l-.146.11c-.023.101-.016.144.146-.11"/>
        <path fill="#EC6B4D" d="M29.631 13.865l.307-.231c.043-.172.173-.493-.129.076.135-.288-.017-.02-.178.155M28.82 13.683c-.002-.253-.064-.438.242-.713-.371.007-.61.722-.241.713M28.393 9.725l-.006-.34-.243.288c.121-.143.13.364.249.052M31.095 15.95c.098-.206.179-.584.277-.857l-.22.19c.002.17.063.353-.057.667M31.533 14.51l.331-.286c-.143-.11-.246.05-.33.286M30.385 12.477l-.612.636.673-.622z"/>
        <path fill="#EC6B4D" d="M31.276 15.348l-.305.444.489-.66zM32.023 15.382c-.243.369-.18.722-.363.933.154-.018.404-.318.629-.586-.174.13-.263.04-.266-.347"/>
        <path fill="#EC6B4D" d="M32.373 15.539a3.66 3.66 0 0 0-.351.386c.093-.072.203-.181.351-.386M31.711 14.15c-.04.133-.151.477-.107.658l.175-.62-.068-.039z"/>
        <path fill="#EC6B4D" d="M31.711 14.15l-.004.019c.068.048.117.08.138.097l-.134-.117"/>
        <path fill="#EC6B4D" d="M31.827 14.259l.017.01c.016-.06.021-.083-.017-.01M30.67 11.496c.21-.213.545-.394.489-.877-.205.282-.172.558-.49.877M32.216 13.434l-.136-.216c-.062.159-.122.402-.243.545l.379-.329z"/>
        <path fill="#EC6B4D" d="M32.273 13.305l-.171.149.05.08zM32.295 14.998c.19-.222.29-.206.41-.203-.062-.163-.148-.274-.257-.318-.094.18-.281.493-.153.52M32.73 14.69l.033-.027c.009-.054.007-.074-.033.026M35.474 15.951l.029-.114-.048.102.019.012z"/>
        <path fill="#EC6B4D" d="M32.74 14.654c-.035-.15-.145-.025-.268.139a.339.339 0 0 1 .239-.02c.043-.082.067-.137.029-.12M35.38 16.163c.007-.14.004-.267-.007-.384-.037.205-.075.532.006.384"/>
        <path fill="#EC6B4D" d="M32.77 14.62l-.023.021c-.026.14-.004.075.023-.02"/>
        <path fill="#EC6B4D" d="M32.52 14.94c.078-.068.171-.2.26-.315a.666.666 0 0 0-.22.14l-.04.175M38.25 11.587c-.306.676-.794 1.216-.671.404-.404.435-1.238 2.732-1.61 4.054.13-.295.25-.572.61-.896.093-.399-.052-1.046.373-1.597.403-.247.105.328.074.738.258-.894.85-1.103 1.329-2.375l-.411.348c.079-.197.291-.472.305-.676M35.163 15.686l-.108.035c.05.132.022.38-.041.855.242-.21.354-.403.44-.581l-.353-.24.062-.07z"/>
        <path fill="#EC6B4D" d="M34.925 16.249c.31-.566.602-.738.756-1.427-.247-.056-.368.427-.614.626.433.01-.243.285-.116.732a.445.445 0 0 1-.266.073c.037.099.064.215.078.35l.007-.04h-.002l.004-.009c.016-.08.028-.128.03-.076l.012-.01.11-.215c.057.166-.048.16-.11.216l-.042.085-.002.008.506-.168c-.043-.114-.148-.14-.35-.145M33.46 10.55c-.01.056-.03.1-.046.143.056-.063.085-.109.046-.144M33.17 10.707c-.067.08-.201.337-.26.233.007-.231.133-.318.22-.538-.125.154-.384.4-.352.79l.064-.078c.054.29-.1 1.195-.164 1.276.206-.614.346-1.056.491-1.683M33.343 12.555l.432-.165.057-.58-.12.314c-.125-.196-.248.202-.37.43"/>
        <path fill="#EC6B4D" d="M35.274 16.046l-.306.613.553-.814zM36.34 16.21l-.246.54.245-.284zM75.159 24.92l.158-.114a.514.514 0 0 0-.158.114M73.474 23.986l-.133.26c.095-.135.156-.237.133-.26M51.694 23.046c-.088.565-.284 1.42-.034.8l.219-.615c-.139.065-.182-.03-.185-.185M64.88 23.66l.04-.198-.337.532.297-.334M65.597 21.574l.007.46c.02-.15.02-.304-.007-.46M81.75 27.303l.368-.563c-.167-.068-.225.27-.369.563M42.45 19.177c.015.283.063.42.13.483.01-.403.12-.965-.13-.483M72.233 31.53a.833.833 0 0 0 .236-.329.661.661 0 0 0-.236.328M44.594 20.051v-.166c-.125.065-.243.108-.33.026-.008.3.04.508.33.14M101.775 36.595v.083c.036-.08.025-.09 0-.083M105.357 45.844c-.054.022-.115-.003-.178-.018.014.052.062.067.178.018M36.941 17.572c-.102.003-.042.06 0 0M38.41 14.196a1.639 1.639 0 0 1 0 0M46.648 15.418l.007.005c.024-.127.02-.103-.007-.005M37.236 16.61a.69.69 0 0 0 .034.224.802.802 0 0 0-.034-.225"/>
        <path fill="#EC6B4D" d="M36.916 17.629l-.05-.09c-.053.094-.07.161.05.09M40.062 17.94c-.052-.013-.085-.06-.11-.122a.214.214 0 0 1-.023.104c.029 0 .07.002.133.017M90.32 32.727l-.007.065c.193-.212.138-.188.007-.065M58.462 18.397l-.022.025.004.026zM58.873 17.485c-.397.557-.437.45-.48.277l-.516 1.469.996-1.746z"/>
        <path fill="#EC6B4D" d="M89.451 38.108l-.01-.23c.292-.122.156.043.01.23M40.079 16.875a.538.538 0 0 0-.153.294c.11-.169.219-.138.313-.036.047-.207.044-.364-.16-.258m.324.516l.025-.032c.102.382.07.235-.025.032m23.793 4.36c.177-.21.238-.04.248.29-.117.02-.213-.054-.248-.29m8.52 1.655c.164-.112.566-.497.45-.035-.471.786-.385.35-.45.035m5.305 1.766l-.086-.739c.827-.786.98-.322 1.018-1.292-.932 2.031-1.416-.37-2.347 1.658l-.04-.529c.056.047.118-.07.174-.021-.015-1.173-.964 1.34-1.404.801-.13-.242-.137-.601.102-.785l-.656.315c-.11-.097.075-.437.184-.343l-.738-.13.03-.058c-.234.28-.664.682-.86.849-.044-.37.178-.18.245-.456l-.585.333c.078-.597.61-.977.83-.79.54-2.198-.53.381-.758-1.142l.462-.106c.277-1.264-.18-.96-.26-1.858-.07.42.002 2.173-.622 2.507-.046-.202-.161-.343-.557-.025.314-.729.025-.644-.259-.72l.437-.957c-.407.154-.599.655-.955 1.017-.276-.236-.02-1.012.177-1.676-.443-.377-.163 1.354-.849 1.271-.264-.557-.734-.293-1.492.06-.154-.461.308-.565.32-.889l-.595.654c-.056-.046.065-.273.128-.389-.352.201-.436.956-.898 1.067-.556 1.022-.046-1.871-.998-.852.01-.32.306-.57.436-.956-.938.53-.76.35-1.705 1.204l-.142-.817c-.01.86-.77 1.547-1.414 2.102-.039.4-.072.749-.084.918l-.77.28c.003-.187.2-.495.463-.86l-.199.187c-.04-.44.3-.954.673-1.433-.02.219-.04.45-.059.681.388-.525.792-1.12 1.01-1.698a.558.558 0 0 1-.293.182c.106-.143.19-.276.215-.38.024-.11-.123.08-.32.287l.343-1.131-.216.415-.422-.988c-.976.86-2.11 2.261-3.112 2.35.543-.702.601-1.271 1.015-2.2-.205 1.087.808-.147 1.142.24-.172-.202.066-.627.19-.756l-1.137.571c.348-.757.087-.643.03-1.045-.504 1.576-.992.76-1.496 1.093.2-.518.496-1.003.815-.717.082-1.32-1.297 1.542-1.28.4.095.028.11.126.257-.116-.407.358-.769-.225-.458-.617l.095.03c-.525-.443-1.829-.814-2.47.432l.893-1.758-2.935 3.851c.57-1.061 1.337-3.85 2.106-4.253-.077-.22-.176-.482-.646-.226.032.202-.44 1.703-.62 1.745.162-1.39.028-.767.028-2.013.044.3-.863 1.96-1.072 1.803.15-.243.716-1.717.878-1.86L55.6 18.338c.275-.242.645-1.426.72-1.964-.082.36-.485-.25-.71-.148l.076.5c-.543-.542-1.669 2.11-2.277 1.739.228-.319 1.12-2.077.881-2.435-.522.804-2.46 3.897-3.317 4.317l.103-.545-.68.374c.833-1.189 2.778-3.614 3.655-4.503-.073-.5.184-.616-.201-.73.072-.522.503-.621.623-.601l-.722-.674c-.398 1.035-1.088.735-1.416 1.597l1.375-.65c-.396 1.03-1.77 2.65-2.295 2.208.02-.47.887-1.758 1.02-2.104-.228.316-.857.42-.808.146l.489-.432c-.173-.529-1.123 1.11-1.114-.038-.112-.124.144-1.491-.137-.898-.268 1.26-1.753 4.87-2.276 5.676-.015-.1-.255-1.427-.17-2.07.157-1.011 1.265-2.02 1.404-2.887-.13.274-.4.561-.499.65-.047-.303.425-.837.054-.85-.491 1.01-.608-.367-.52.81-.435.159-.24-.357-.625-.47-.167.717-1.29 2.126-1.723 2.285.127-.255.203-.627.236-.797-.6-.37-.742-.988-1.332-1.256.053-.274-.107-.7.201-1.093-.162.146-.388.463-.583.407.023-1.046.468.038.65-1.151-.275.591-.823.623-1.243.885-.31.961.53.44.95.178-.538 1.28-1.56 2.421-2.426 2.746-.626.105.134-.92-.029-.774-.831-.624-1.722 1.893-2.105.638.038-.948.666-1.63.843-2.246.531-.136.401.783.688.868l-.175-.532c.242-.214.596-.303.641-.005.051-.844-1.505-.819-1.939-1.804-.24.22-.576.408-.609.78l.272-.016c-.065.75-.805.727-.645 1.158-.496.331-1.138.912-1.408.357l.305-.966c-.102.277.049.675.288.443-.349.337-.134-1.54-.835-.405l.033.773c-.496.338-1.28 1.167-1.538.712-.209.992.131-.069-.047 1.122.323-1.438.942.472 1.151-1.096-.242 1.366.256.733.174 1.952.118-.31.115-.642.37-.353l.181-.242.014.033-.002-.044c.032-.039.036-.049-.003-.016a1.49 1.49 0 0 1 .033-.537c.451-.637.945-.398 1.269-.686.126.224-.226.317-.261.688l.483-.435c-.26.693.027 1.349-.582 1.557l.384.203c.074.484.335.775.652.573.128.23.792-.547.405-.086l.8-.152-.067.174c.58.351 1.745-.58 1.933.956.278-.083.58-.2.85.146l-.182.617c.352-.09.55.936.923.373-.384 1.708 1.145.908 1.494 1.392l.345-.758c.306.184.706.1 1.237-.035l.265-.689c.582-.408.684.869 1.258 1.038-.147.244-.258.116-.288-.083-.003 1.816 1.854-.511 1.968.862.252-.183.323-.053.353.162 0 0-.03.006-.05.02a.127.127 0 0 0 .057.036c.015.146.035.313.05.452.009-.193.007-.354-.017-.44.12.037.33.027.57-.067l-.239.757c.015-.003.027.003.047-.003.05.342.281-.287.427-.873a1.83 1.83 0 0 0 .413-.34c-.37 1.232.613-.202.26 1.132.376-.563 1.048-.088 1.69-1.334-.066.17-.051.27-.147.242.125.229.25.457.577.17l-.32.96.949-1.064c.007.673-.03 1.046-.584 1.649 1.071-.831.664-.199 1.64-1.06l-.282.587c.192.056.829-.615.727-.073-.083 1.315 1.95 1.042 2.542 2.558.555-1.85.147 1.001.774-.344-.117.442-.072.74-.399 1.03.713-.175.519 1.013 1.384.025-.12.443-.378.56-.428.83.08-.073.323-.289.272-.016-.052.272-.228.316-.39.46.574.169 1.183-1.089 1.745-2.274.03.69.203.671.742-.03-.07.434-.09.918-.492.91.168.141.918 1.09 1.354.132-.044.273.237.19.336.101.404.245.403.348.863.442l-.05-.209c.671-1.091.463-.106.863-.096l-.061.114c.413 1.18.508-.256.863 1.04l.27-.741c.746-1.526.283 1.215.984.815l.02-.484c.472-.426-.235 2.418-.077 2.72-.004.158-.177.18-.295.247.244 1.2.494-.913 1.065-.925-.134.55-.673 1.253-.395 1.49-.02.483 1.647-1.255 1.66-.08.074-.437.15-.874.5-1.071.4.008.273 1.893 1.115.785a.941.941 0 0 1-.072.335c.399-.207 1.074-.165 1.522-.77-.84 2.607 2.138-.51 1.137 1.795l.852.226-.123.228c.446.377.863-.098 1.28-.572.051.207-.127.387-.189.504.545.79.664.725 1.781-.153l-.256.779c.357-.362.575 1.646 1.684 1.093a.984.984 0 0 1-.225.3c1.198-.52 1.083 2.943 2.55.344l.833-.436c-.613-.518.61-1.14.512-1.72.345-.04.366 1.136-.035 1.128l.005-.16c-.732 1.37.659.886.228 1.846 1.417.532 2.432 1.911 3.707 2.536l.317-1.174.424.26c.012.31-.204.937-.509.751-.095.702.765-.29.875-.53.445.724-.79 1.187-.609 1.297l.3.032-.004-.155c.404-.36.625-.833.99-.61.153.33-.161.739-.084.824-.031.077-.015.127.139.095l.531.342.137-.973c.434-.323.519.276.67-.83-.253 1.697 1.901 1.473 1.94 2.05.622-.487.966-.327 1.369-.063-.032-.228.312-1.242.634-.962-.978 1.977.323 1.179.02 2.775.129-1.088 1.166.219 1.308-1.348.244.3-.294.772-.253 1.354 1.067-.47 1.427 1.221 2.464 1.345.12-.264.133-.738.493-1.053l-.054 1.548c.237-.053.79-1.477.75-.406.042-.245.11-.616.267-.649 1.286 2.08 4.111.491 4.994 3.729-.048-.629.139-.61.339-.55-.075-.178.26-.664.38-1.041l.377 1.34c.531-.96.853.276 1.306-.662l-.309.073c.762-1.012.526-2.74 1.14-4.19-.865 1.152-.2-2.325-1.512-.709-.014-.352.294-.426.358-.796-.396.568-.627.624-.85.202l.097-.14c-.999-.242-1.16-1.026-2.046-1.886l-.21.755c-.188-.19-.143-.44-.18-.665-.697.988.614.331-.107 1.44.287-1.6-1.59-.7-1.12-2.457-.346-.156-.236.88-.58.721l.09-.49-.324.545c-.19-.193-.077-.807.07-1.193.036.069.2-.04.274-.049-.08-.657-.908-.171-.94-.39l.221.42c-1.12.025-2.038-1.07-3.332-.547l-.067.371c-.963.328-.41-.615-1.3-.653l.061-.069c-.295.272-.57.356-.766.225.36-.315-.044-.929.393-1.26-1.04.348-.596.368-1.623 1.414l.119-.612c-.383.437-.51.697-.954.677.517-.346.111-.964.73-1.451-.294-1.581-1.719.725-1.335-1.235-1.023 1.397.336 1.167-.01 1.411-.04.584-.794 1.031-.983.765-.242-.146.396-2.183-.263-2.433.06.036.115-.079.176-.044-.076-.502-.702.33-.727-.444-.565.87-.366-.22-.919.96l.714-.022c-.469.168-1.378 1.434-1.648.513.148-.223.446-.47.635-.596-.012-.426-.413.097-.428-.338.553-1.181.835.05 1.58-.707.038-.584-1.05.572-.32-.65-.959 1.542-.549-.484-1.522.588l.332-.706c-.116.082-.404.36-.524.284l.624-.83c-.69.64-.39-.995-.912-.71.723.29-.207.936-.127 1.594-1.287.579.29-2.101-.84-2.187.175-.042.317.65-.035.892a1.847 1.847 0 0 1-.21-1.04c-.714-.135-.212.782-.676 1.104.146-.972-.473.216-.878.372l.309-.731c-.545-.792-.846 1.436-1.273.578l.713-.89-.461.112.426-.8c-.644.45-.693.24-.967-.156-.131.553-.612 1.304-.952 1.182-.039-.531.42-.639-.09-.739.301-.408.66-.933.576-.17.146-.22.279-.424.423-.638-.03-.606-.56-.381-.732-.448.054.057.113.13.111.25l-1.11.716c.01-.322.19-.504.363-.683-.168.018-.408.313-.637.287.307-.571.557-1.187.961-1.343l-.925.378c.067-.277-.029-.853.15-1.035-.209-.503-1.37.767-1.649.099a.558.558 0 0 1-.306.233c-.388-.327-.472-1.228-1.349-.646l.158-1.193c-.518.058-.17 1.517-1.029 1.614-.635.125.205-.986.16-1.357-.47.43-1.36 1.334-1.436.273.234-.134.281.074.454.055"/>
        <path fill="#EC6B4D" d="M65.73 21.633c-.031.12-.08.244-.13.37.073-.1.13-.228.13-.37M82.05 26.845l.005.011.063-.116zM50.125 14.685a1.08 1.08 0 0 1-.032.393c.071-.161.105-.31.032-.393M36.589 17.882l.257-.096c-.103-.004-.072-.163-.073-.289-.062.159-.123.399-.184.385M37.086 12.164c-.061.069-.06-.016-.123.054l-.123.316c.124.026.31-.189.246-.37M37.486 13.89c.222-.567.026-.427-.148-.377 0 0 .018 0 .024.01-.37.769-.123.568.124.367"/>
        <path fill="#EC6B4D" d="M37.655 13.511c-.051.01-.098.007-.127-.036-.148.308.021.086.127.036M39.941 17.885c0-.171-.342.7-.28.457-.371.682.776-.69.28-.457M37.94 12.544l-.246.711.309-.526zM38.891 13.19l-.125-.278a.437.437 0 0 1-.155.21c.116.079.2.276.28.069"/>
        <path fill="#EC6B4D" d="M38.973 13.008c-.06-.04-.129-.054-.214.044a.276.276 0 0 0 .214-.044"/>
        <path fill="#EC6B4D" d="M38.765 12.91v.172l.125.113zM44.003 15.858l.31-.1c.125-.228.124-.399 0-.342-.125.143-.248.198-.31.442M43.187 13.087c0 .17-.061.325-.124.569l.372-.855-.248.286zM44.835 14.18c.123-.228.62-.543.31-.611-.124.225-.436.327-.31.61M49.43 16.565l-.062-.01-.784 1.822zM55.165 15.892c-.15-.39-.365.673-.46.228-.179.24.077.362-.086.566.283-.212.298-.016.546-.794M54.812 16.772c-.05.043-.106.1-.175.176a.909.909 0 0 0 .175-.176M106.008 46.348l.056.366.079-.52z"/>
        <path fill="#EC6B4D" d="M106.124 46.185l-.321.919.433-.775c-.055.024-.164.072-.112-.144M71.932 22.205l-.106.209c-.076.244-.043.278.022.349l.084-.558zM75.675 23.893l-.032-.036-.278.84zM79.27 23.288c-.065-.07-.237.071-.302 0 .237-.07-.113 1.016.302 0"/>
        <g transform="rotate(114 13.084 35.502)">
            <mask id="b" fill="#fff">
                <use xlink:href="#a"/>
            </mask>
            <path fill="#EC6B4D" d="M.7.994C.79.934.276.294.194.155.226.504.832 1.17.7.995" mask="url(#b)"/>
        </g>
        <g transform="rotate(114 11.785 33.502)">
            <mask id="d" fill="#fff">
                <use xlink:href="#c"/>
            </mask>
            <path fill="#EC6B4D" d="M1.06.888L.87.595l.386.91z" mask="url(#d)"/>
        </g>
        <g transform="rotate(114 11.46 33.002)">
            <mask id="f" fill="#fff">
                <use xlink:href="#e"/>
            </mask>
            <path fill="#EC6B4D" d="M.331 1.593c.918.92.124-.797.554-.717l.214.197L.473.063c-.048.51.204 1.57-.142 1.53" mask="url(#f)"/>
        </g>
        <path fill="#EC6B4D" d="M47.408 33.179c-.344.236-.389.048-.033.197l.078-.076c-.02-.018-.038-.053-.045-.121M47.344 33.298c.096.1.261-.243 0 0"/>
        <path fill="#EC6B4D" d="M46.723 33.592l.416-.03c.198-.15.164-.31.352-.347-.27-.056-.467.095-.768.377M45.93 33.78h.185c.082-.064.1-.101-.185 0M47.084 34.129l-.39-.003c-.14.105-.442.274.15.016-.286.14.002.025.24-.013"/>
        <path fill="#EC6B4D" d="M46.954 34.071c-.153.197-.218.376-.633.404.303.215.938-.19.633-.404"/>
        <g transform="rotate(114 10.635 32.827)">
            <mask id="h" fill="#fff">
                <use xlink:href="#g"/>
            </mask>
            <path fill="#EC6B4D" d="M.175.497l.324.15-.22-.552C.387.37-.097.15.175.497" mask="url(#h)"/>
        </g>
        <path fill="#EC6B4D" d="M46.984 31.895c-.205.102-.501.344-.749.497l.296-.015c.1-.133.162-.311.453-.482M46.577 32.809l-.442.024c.05.169.228.108.442-.024M45.287 33.848l.883-.126-.924.08z"/>
        <path fill="#EC6B4D" d="M46.467 32.057l.517-.162-.796.22zM46.522 31.496c.423-.143.589-.457.868-.514-.138-.077-.525.01-.872.085.22.002.24.126.004.429M44.132 29.853c.12-.004.312-.047.518-.092a1.792 1.792 0 0 0-.518.092M43.753 31.122c.112-.08.413-.278.49-.447l-.521.379.03.068zM43.77 31.712l.017-.012a3.806 3.806 0 0 0-.055-.158c.006.02.017.071.038.17M43.83 31.601l-.006-.018c-.052.038-.067.051.007.018M43.43 32.502c-.371.076-.83.06-1.191.52.427-.142.63-.404 1.19-.52"/>
        <path fill="#EC6B4D" d="M43.33 31.617l-.021.247c.145-.086.342-.238.527-.275l-.505.028zM43.165 32.594l.229-.012.01-.091zM44.216 30.663c-.289.06-.36-.012-.455-.084-.05.161-.045.299.014.398.184-.085.525-.217.441-.314"/>
        <path fill="#EC6B4D" d="M43.836 31.589h-.042c-.04.037-.052.054.042 0M41.49 29.45l-.094.071.1-.052z"/>
        <path fill="#EC6B4D" d="M43.525 31.566c-.063.136.102.104.3.05a.357.357 0 0 1-.206-.124c-.084.037-.136.064-.094.074M43.274 30.275a2.49 2.49 0 0 0-.229.303c.155-.137.384-.37.229-.303M44.154 30.733l.032-.003c.104-.091.048-.055-.032.003"/>
        <path fill="#EC6B4D" d="M43.836 31.589c-.102.004-.26.052-.401.09a.73.73 0 0 0 .262.02c.037-.027.09-.072.14-.11M35.802 30.2c.805-.15 1.798-.046 1.182.361.816.095 3.266-.6 4.518-1.106-.351.065-.668.134-1.367.003-.348.174-.492.725-1.401.684-.713-.217.028-.308.295-.544-.859.334-1.819-.08-3.195.296l.773.155c-.217.054-.672.034-.805.152M43.076 29.963l.106.036c.042-.133.214-.308.554-.644a1.766 1.766 0 0 0-.709.196l.14.393-.091.019zM42.832 30.484c-.858.3-1.365.226-2.134.779.254.263.81-.114 1.28-.104-.522-.372.542-.077.764-.63a.782.782 0 0 1 .39.154 1.6 1.6 0 0 1 .198-.415l-.043.036h.003l-.012.007c-.086.067-.141.102-.1.052l-.024-.003c-.116.046-.22.085-.319.123.073-.215.196-.12.319-.123l.124-.05.01-.006-.767-.26c-.045.151.067.264.31.44"/>
        <g transform="rotate(114 9.837 30.502)">
            <mask id="j" fill="#fff">
                <use xlink:href="#i"/>
            </mask>
            <path fill="#EC6B4D" d="M.69.936C.636.896.6.849.562.803c.048.113.084.18.126.133" mask="url(#j)"/>
        </g>
        <path fill="#EC6B4D" d="M41.124 33.294c.1-.03.354-.176.334-.041-.146.204-.293.2-.492.342.188-.058.53-.109.745-.483l-.096.03c.136-.298.804-1.015.901-1.047-.528.42-.902.728-1.392 1.199"/>
        <path fill="#EC6B4D" d="M42.516 32.095l-.447-.126-.402.416.289-.171c-.02.223.322-.012.56-.119M43.118 29.653l.618-.298-.94.31zM41.384 28.82l.525-.279-.37.079zM24.17 4.46l.059-.21a.433.433 0 0 0-.059.21M23.632 5.085l.148.252c-.05-.154-.1-.261-.148-.252M31.25 17.187c.403-.408 1.058-.985.495-.625l-.535.37c.15.026.128.127.04.255M20.354 11.306l-.243-.034.893.3c-.204-.083-.42-.173-.65-.266"/>
        <g transform="rotate(114 4.797 9.606)">
            <mask id="l" fill="#fff">
                <use xlink:href="#k"/>
            </mask>
            <path fill="#EC6B4D" d="M.456 1.206L.216.645c.064.24.14.432.24.561" mask="url(#l)"/>
        </g>
        <path fill="#EC6B4D" d="M29.723 1.823l-.135-.66c-.17.07.029.352.135.66M37.928 25.118c.158-.232.198-.367.183-.457-.249.314-.672.695-.183.457M30.341 12.727a1.89 1.89 0 0 0-.169-.358c.028.11.08.224.17.358M38.61 22.852a5.278 5.278 0 0 0-.1.133c.14.02.264.054.283.168.185-.233.268-.426-.184-.301M50.892.814l.047.07c-.013-.088-.029-.088-.047-.07M59.386 8.956c-.032.043-.088.047-.139.057.029.043.07.038.139-.057M41.34 27.214c.085.057.07-.024 0 0M38.762 28.235c-.075.019-.162.052-.295.125.141-.071.235-.108.295-.125M31.858 24.073l-.003-.008c-.096.086-.078.07.003.008"/>
        <path fill="#EC6B4D" d="M41.292 27.415a.692.692 0 0 0 .108-.195.666.666 0 0 0-.108.195"/>
        <path fill="#EC6B4D" d="M41.312 27.197l-.013.1c.1-.044.154-.086.013-.1"/>
        <path fill="#EC6B4D" d="M41.29 27.17c.034.04.033.097.016.16a.204.204 0 0 1 .078-.069.63.63 0 0 1-.095-.09M40.697 4.081c.013.016.02.029.038.054.005-.289-.019-.234-.038-.054M21.661 17.383l.039.002.011-.026-.05.024zM19.377 15.225c1.524.368 1.494.445 1.446.581l2.615.133-2.003-.335-2.058-.379"/>
        <g transform="rotate(114 29.285 22.138)">
            <mask id="n" fill="#fff">
                <use xlink:href="#m"/>
            </mask>
            <path fill="#EC6B4D" d="M11.139 13.11l-.113.265c-.258.06-.081-.091.113-.265m17.713-1.334a.906.906 0 0 0-.251-.303c.145.2.113.3.02.354.178.148.315.217.231-.05m-.458.103l.025.041c-.333-.07-.205-.034-.025-.04M23.064 36.9c.032.574-.066.457-.203.012.03-.22.09-.27.203-.012m-5.887-1.379c-.143.136-.525.634-.399-.085.463-1.135.35-.46.4.085M13.1 31.18l-.241.93c-.924.801-.847.19-1.272 1.378 1.51-2.308.881.767 2.377-1.56l-.188.665c-.02-.07-.11.063-.132-.01-.438 1.495 1.306-1.39 1.498-.523.049.39-.024.917-.288 1.078l.67-.18c.076.183-.156.622-.24.432l.643.496-.039.075c.256-.334.683-.813.867-1.015-.024.583-.175.227-.276.627l.525-.35c-.136.928-.625 1.366-.8.978-.73 3.308.482-.423.587 2.123l-.435.006c-.303 1.993.153 1.684.288 3.308.004-.757-.043-3.747.535-4.087.032.353.141.634.474.202-.265 1.154-.009 1.1.237 1.312l-.325 1.558c.365-.126.487-.969.756-1.52.243.485.121 1.841.047 3.018.456.83-.045-2.448.546-2.13.294 1.08.661.714 1.13.111.218.915-.1 1.06-.036 1.681l.29-1.195c.052.098.02.53.003.747.205-.356.08-1.82.354-2.018.053-2.04.574 3.734.896 1.713.107.662.002 1.173.056 1.97.435-1.068.396-.684.605-2.557-.01-.047.434 1.823.423 1.659-.177-.773-.237-1.706-.248-2.504l-.036-2.902c-.126-.687-.232-1.287-.286-1.577l.062-1.548c.062.3.132 1.056.2 2.018l-.02-.59c.166.64.283 1.87.35 3.148l-.233-1.082c.083 1.375.158 2.92.296 4.116a5.07 5.07 0 0 1 .039-.763c.019.381.038.712.07.902.032.198.017-.328.007-.953l.337 2.139-.09-.94c-.01.015.614.53.625.51.004-2.85-.348-6.364-.215-7.843.247 1.599.525 2.362.924 4.046-.532-1.554-.184 1.489-.525 1.64.166-.06.303.846.32 1.215l.068-1.319.04-1.28c.306 1.416.331.855.594 1.17-.745-2.517-.122-2.435-.182-3.551.265.82.48 1.772.194 2.018.818 1.394-.573-3.589.126-2.419-.042.12-.108.047.007.505-.124-.953.343-.972.531-.161l-.045.126c.45-.464 1.095-2.286.224-3.958.122.199 1.03 2.053 1.184 2.441 0 0-.571-1.747-1.233-3.302a36.72 36.72 0 0 0-1.393-2.961c.779 1.368 2.996 3.863 3.168 5.203.203.004.463-.047.346-.864-.19-.028-1.38-1.441-1.391-1.697 1.16.906.64.445 1.762.934-.281-.05-1.613-1.968-1.466-2.126.201.284 1.458 1.587 1.558 1.867.028-.056-1.133-2.248-1.163-2.185.21.397 1.242 1.312 1.71 1.633-.312-.249.227-.397.144-.68l-.441-.146c.486-.325-1.814-2.696-1.473-3.17.274.382 1.795 2.11 2.11 2.022-.693-.911-3.353-4.343-3.7-5.44l.475.353-.312-.89c1.02 1.42 3.094 4.567 3.853 5.889.44.145.536.47.645.117.456.312.533.807.512.924l.601-.451c-.894-.883-.618-1.473-1.363-2.211l.538 1.738c-.892-.88-2.279-3.06-1.88-3.413.412.233 1.517 1.735 1.816 2.031-.271-.385-.348-1.094-.111-.914l.367.71c.465.06-.943-1.688.055-1.152.113-.06 1.297.833.788.265-1.09-.858-4.204-4.075-4.893-4.996.088.029 1.253.379 1.812.763.874.631 1.726 2.265 2.479 2.807-.237-.258-.48-.678-.555-.823.265.092.717.833.736.448-.864-.984.337-.47-.689-.92-.128-.534.316-.09.425-.442-.621-.508-1.818-2.347-1.942-2.883.216.255.538.508.687.621.337-.463.877-.328 1.124-.826.237.18.613.211.944.722-.122-.24-.39-.627-.338-.807.907.517-.047.48.982 1.23-.506-.571-.519-1.164-.734-1.732-.824-.779-.395.354-.181.921-1.093-1.17-2.055-2.785-2.307-3.863-.07-.716.792.574.672.334.568-.59-1.583-2.734-.482-2.548.817.489 1.387 1.482 1.916 1.965.1.627-.693.053-.774.318l.465.066c.179.36.245.776-.015.685.727.454.753-1.211 1.62-1.202-.182-.36-.334-.81-.656-1.025l.007.3c-.645-.43-.602-1.205-.98-1.243-.269-.687-.747-1.652-.258-1.678l.824.792c-.235-.243-.585-.271-.393.095-.277-.537 1.334.602.382-.694l-.67-.34c-.273-.695-.956-1.934-.553-1.99-.849-.704.054.173-.968-.59 1.229 1.037-.444.785.902 1.762-1.171-.917-.644-.079-1.696-.747.265.274.55.432.292.568l.203.309s-.017-.004-.03-.004l.039.02c.034.053.04.062.012.006.145.056.308.154.463.29.536.788.31 1.201.55 1.687-.202.029-.266-.394-.588-.605l.36.722c-.59-.606-1.169-.609-1.327-1.363l-.187.319c-.423-.148-.685-.006-.523.429-.203.028.448 1.107.06.473l.104.93-.147-.151c-.329.457.442 2.135-.898 1.621.062.337.153.716-.154.842l-.531-.48c.066.42-.837.162-.357.818-1.476-1.193-.83.813-1.263.965l.653.712c-.168.24-.109.707-.006 1.334l.593.593c.34.805-.779.332-.943.87-.21-.267-.094-.324.083-.267-1.594-.817.397 2.198-.808 1.706.151.35.036.366-.156.303 0 0 0-.035-.015-.063-.013.003-.024.022-.032.044-.128-.047-.275-.101-.397-.148.169.094.31.167.386.18-.036.11-.034.334.045.633l-.661-.59c.004.02-.003.029.002.051-.301-.098.245.426.755.842.07.18.162.379.29.587-1.075-.937.162.74-1-.224.245.312.245.63.35.95.127.273.317.649.838 1.302-.14-.158-.22-.209-.205-.272-.175-.028-.337-.085-.096.391l-.753-.93s.22.385.437.773l.423.807c-.508-.47-.756-.836-1.244-1.75.685 1.545.215.668.838 2.321l-.405-.782c-.021.113.422 1.362.066.763-.424-.653-.559-.476-.71-.233-.15.233-.329.564-.662-.177.796 3.129-.429-1.252.126 1.306-.18-.757-.294-1.158-.407-1.908.053 1.009-.344-1.079-.037 1.416l-.258-1.795c.024.196.088.804.004.303-.083-.505-.096-.757-.143-1.151-.027.249.306 3.053.615 5.69-.23-1.073-.224-.865-.109 1.05-.12-.824-.241-1.694-.192-2.183-.047.227-.43-1.47-.314.7-.05-.564-.104-.265-.113-.047-.166-.31-.179-.501-.33-.489l.044.379c-.05 2.34-.147.369-.277.495l.009-.234c-.23-2.012-.19.6-.359-1.58l-.092 1.382c-.29 2.86-.13-2.05-.386-1.133l-.036.811c-.269.77.303-4.012.358-4.346.035-.24.086-.344.128-.495.19-1.669-.313 1.57-.516 1.772.167-.851.484-2.088.47-2.305.183-.628-.888 2.327-.555.706-.177.593-.335 1.215-.555 1.546-.218.006.574-2.375-.243-.842.053-.158.11-.297.17-.423-.266.319-.584.344-1.118 1.053 1.722-2.977-1.68.29-.004-2.337l-.49-.413.18-.255c-.142-.524-.637-.022-1.132.476.057-.262.258-.445.35-.574-.028-1.06-.133-.993-1.293-.151l.52-.887c-.407.36.338-2.065-.663-1.63.068-.088.183-.237.29-.312-1.063.365.625-3.694-1.59-.93l-.772.33c.177.754-.951 1.205-1.158 1.915-.256-.038.283-1.432.552-1.328l-.079.19c1.146-1.452-.032-1.202.72-2.23-.72-.944-.724-2.798-1.266-3.826l-.804 1.268-.16-.41c.149-.357.61-1.019.723-.729.418-.779-.664.139-.858.379.073-.947 1.133-1.145 1.067-1.325l-.183-.114-.075.18c-.455.306-.843.786-.973.432.066-.416.486-.798.478-.914.064-.08.077-.142-.04-.145l-.178-.53-.597 1.066c-.459.246-.205-.46-.881.75 1.043-1.841-.504-2.201-.218-2.866-.674.356-.82.066-.945-.347-.103.261-.884 1.277-.95.86 1.73-1.87.431-1.403 1.526-3.052-.696 1.145-.636-.606-1.611 1.04.006-.406.627-.738.93-1.38-.975.157-.239-1.767-.806-2.246-.235.23-.525.725-.943.927l.96-1.593c-.182-.025-1.396 1.246-.724.151-.174.24-.441.597-.563.574.472-2.542-2.332-2.207-.66-5.585-.409.583-.5.492-.573.353-.079.193-.61.49-.939.78l.72-1.366C3.9.858 4.586-.357 3.653.23l.235.088C2.713.801 1.644 2.45.269 3.447c1.326-.587-1.447 2.384.488 1.59-.222.353-.474.249-.758.573.634-.328.82-.258.694.284l-.156.082c.508.789.094 1.7.184 3.037l.603-.68c.009.292-.17.529-.283.784 1.07-.687-.212-.65.951-1.444-1.17 1.523.634 1.489-.727 3.138.145.328.678-.826.821-.505l-.348.486.54-.438c.015.29-.418.899-.742 1.249.012-.092-.163-.048-.218-.073-.324.748.53.603.425.852l.09-.559c.772.49.797 2.085 1.986 2.006l.251-.381c.839.003-.057.842.534 1.23l-.081.053c.347-.192.586-.192.65.022-.416.224-.463 1.063-.943 1.278.91-.016.613-.196 1.874-1.022l-.406.653c.495-.36.72-.615 1.014-.442-.538.218-.583 1.057-1.263 1.397-.62 1.921 1.561-.249.292 1.87 1.427-1.274.36-1.444.73-1.611.326-.653 1.08-.927 1.073-.565.092.24-1.39 2.375-1.052 2.88-.024-.06-.12.057-.147-.003-.197.608.657-.161.288.747.825-.832.145.375 1.116-.826l-.504-.199c.412-.044 1.669-1.242 1.4-.104-.211.218-.542.42-.738.511-.199.498.339.006.134.517-.967 1.211-.563-.3-1.457.347-.318.672 1.02-.344-.096.858 1.431-1.508.153.735 1.361-.23l-.578.728c.123-.063.46-.302.51-.18l-.845.789c.798-.546-.203 1.29.307 1.11-.373-.555.595-1.044.853-1.839 1.182-.315-1.218 2.4-.448 2.826-.147 0 .08-.858.444-1.047a3.76 3.76 0 0 1-.34 1.29c.449.36.52-.867 1.002-1.12-.562 1.11.435-.129.793-.204l-.559.785c.017 1.091 1.266-1.486 1.167-.35l-.915.87.376-.006-.67.839c.663-.366.597-.098.614.445.346-.628 1.03-1.404 1.216-1.18-.213.647-.589.662-.27.908-.4.42-.895.956-.49.063-.202.224-.39.436-.59.66-.252.731.23.596.324.722a.557.557 0 0 1 .032-.331L10.894 26c-.152.385-.359.561-.566.735.13.019.431-.278.583-.193-.472.615-.924 1.3-1.283 1.385l.83-.224c-.17.319-.358 1.04-.565 1.217-.073.672 1.32-.599 1.229.275.098-.11.207-.196.322-.215.137.49-.188 1.609.69 1.095l-.62 1.432c.397.04.762-1.82 1.424-1.757.507-.025-.564 1.164-.687 1.627.524-.425 1.538-1.359 1.154-.038-.224.12-.175-.148-.305-.16" mask="url(#n)"/>
        </g>
        <g transform="rotate(114 4.797 9.606)">
            <mask id="p" fill="#fff">
                <use xlink:href="#o"/>
            </mask>
            <path fill="#EC6B4D" d="M.401 1.037A10.439 10.439 0 0 1 .297.269c.004.294.032.588.104.768" mask="url(#p)"/>
        </g>
        <path fill="#EC6B4D" d="M30.906 4.048l.014.004-.039-.124zM27.54 23.647c.057-.105.153-.203.26-.293-.156.088-.269.189-.26.293M42.315 27.63l-.267-.075c.082.062-.038.17-.113.269.144-.087.338-.242.38-.194M38.537 32.856c.091-.018.04.047.132.026l.29-.171c-.082-.093-.363-.032-.422.145M40.231 29.02c-.522.313-.278.316-.109.379 0 0-.015-.011-.012-.021.762-.385.44-.371.121-.358M39.96 29.953c.047.023.082.052.08.101.305-.153.035-.078-.08-.1M40.726 27.528c-.103.133.697-.351.5-.196.712-.322-1.038.092-.5.196M37.727 29.56l.628-.412-.565.232zM36.264 28.297l-.067.29a.452.452 0 0 1 .252-.076c-.047-.129.006-.328-.185-.214"/>
        <path fill="#EC6B4D" d="M38.147 29.08c.023.067.072.117.199.088a.28.28 0 0 0-.2-.088M35.964 29.502l.104-.133-.033-.16zM33.28 25.794l-.31-.096c-.235.107-.337.243-.204.268.185-.043.318-.016.515-.172M32.433 27.083c.103-.134.245-.22.44-.375l-.81.458.37-.083zM31.955 26.298c-.237.11-.82.078-.615.305.234-.108.544-.012.615-.305M31.42 22.755l.043.04 1.21-.555zM22.542 20.853c-.17.428.843-.428.58.024.344-.129.215-.368.516-.47-.414.05-.274-.138-1.096.446M25.222 21.265c.065-.008.143-.022.243-.045a.957.957 0 0 0-.243.045M61.388 11.161l.162.311-.115-.509zM61.715 9.994l.061.97.075-.886c-.036.045-.103.134-.136-.084"/>
        <g transform="rotate(114 8.446 8.658)">
            <mask id="r" fill="#fff">
                <use xlink:href="#q"/>
            </mask>
            <path fill="#EC6B4D" d="M.081 2.078l.094-.452C.215 1.038.163.906.059.634l.022 1.444z" mask="url(#r)"/>
        </g>
        <path fill="#EC6B4D" d="M24.018 3.061l-.076.013.52.73zM27.91 2.605c-.097 0-.118.223-.216.223.119-.223.657.781.215-.223"/>
        <g>
            <path fill="#EC6B4D" d="M13.112 58.98c-.045-.136-.575.613-.689.73.285-.035.831-.922.689-.73M14.68 59.067l-.258.27.797-.536zM17.038 61.163c.826-1.333-.687-.218-.605-.86l.175-.313-.89.894c.437.094 1.365-.237 1.32.28M17.508 65.11c.33-.515.49-.277-.063-.293-.025.062-.043.1-.061.146.036.015.077.053.124.146M17.78 64.752c-.18-.087-.216.48 0 0M18.813 65.618l-.538.264c-.183.314-.053.521-.282.672.391-.068.57-.381.82-.936M19.86 64.596l-.248.096c-.073.132-.08.195.248-.096"/>
            <path fill="#EC6B4D" d="M19.104 65.076l.522-.2c.129-.223.44-.62-.21.055.304-.35-.016-.036-.312.145M18.043 64.496c.097-.355.084-.64.624-.902-.523-.138-1.145.766-.624.902M19.032 58.784l.128-.478-.455.306c.226-.152.035.562.327.172M20.316 68.582c.22-.248.485-.745.732-1.089l-.386.179c-.064.239-.052.519-.346.91M21.507 66.742l.578-.268c-.157-.211-.364-.028-.578.268M20.716 63.436l-1.112.645 1.192-.6z"/>
            <path fill="#EC6B4D" d="M20.811 67.812l-.605.5.949-.729zM21.842 68.16c-.488.418-.54.938-.882 1.16.224.037.693-.283 1.115-.568-.295.112-.384-.05-.233-.592"/>
            <path fill="#EC6B4D" d="M22.27 68.52c-.157.069-.393.228-.647.399.16-.064.357-.172.647-.4M21.901 66.309c-.109.17-.403.608-.415.88l.495-.798-.08-.082z"/>
            <path fill="#EC6B4D" d="M21.901 66.309l-.014.026c.077.094.132.16.155.19l-.14-.216"/>
            <path fill="#EC6B4D" d="M22.019 66.509l.02.02c.047-.078.063-.106-.02-.02M21.508 62.177c.38-.213.922-.333 1.037-1.03-.4.312-.464.71-1.037 1.03M22.894 65.51l-.104-.356c-.15.197-.33.513-.557.665l.661-.308z"/>
            <path fill="#EC6B4D" d="M23.027 65.352l-.3.14.038.131zM22.377 67.73c.356-.233.49-.17.655-.119-.02-.252-.096-.442-.232-.548-.202.214-.59.577-.423.668M23.11 67.473l.058-.023c.033-.071.039-.1-.058.023M26.444 70.341l.086-.148-.107.123.021.025z"/>
            <path fill="#EC6B4D" d="M23.138 67.428c.012-.222-.192-.093-.43.087a.493.493 0 0 1 .343.067c.092-.097.148-.164.087-.154M26.227 70.6a3.59 3.59 0 0 0 .145-.54c-.133.272-.318.714-.145.54"/>
            <path fill="#EC6B4D" d="M23.194 67.393l-.04.02c-.093.184-.036.103.04-.02"/>
            <path fill="#EC6B4D" d="M22.715 67.74c.137-.063.32-.21.491-.336a.97.97 0 0 0-.364.108l-.127.228M32.08 65.346c-.698.824-1.597 1.384-1.1.297-.74.447-2.83 3.327-3.88 5.028.301-.36.58-.7 1.214-1.008.29-.522.346-1.486 1.162-2.087.664-.184.016.502-.192 1.063.72-1.148 1.633-1.203 2.813-2.79l-.715.32c.19-.243.597-.543.699-.823M26.115 69.845l-.164.006c.018.205-.123.54-.401 1.18.423-.196.657-.421.85-.636l-.398-.478.113-.072z"/>
            <path fill="#EC6B4D" d="M25.557 70.538c.66-.669 1.139-.791 1.63-1.694-.323-.177-.685.45-1.11.63.603.188-.454.3-.456.978a.648.648 0 0 1-.402-.005c.012.153.003.327-.03.52l.025-.053h-.004l.01-.01c.054-.106.091-.169.071-.095l.022-.008.24-.259c.013.256-.131.207-.24.259l-.093.102-.006.011.776-.032c-.014-.178-.151-.255-.433-.344M25.794 61.972c-.037.075-.082.129-.123.182.104-.065.164-.118.123-.182M25.324 62.076c-.125.086-.416.391-.457.222.102-.32.314-.392.524-.665-.237.165-.697.405-.81.966l.12-.085c-.04.428-.618 1.634-.74 1.721.534-.778.907-1.34 1.363-2.159M24.825 64.732l.67-.057.314-.79-.294.392c-.097-.324-.429.184-.69.455"/>
            <path fill="#EC6B4D" d="M26.126 70.394l-.673.735 1.1-.917zM27.552 71.05l-.56.66.457-.301zM78.392 98.823l.267-.096a.748.748 0 0 0-.267.096M76.41 96.84l-.292.31c.187-.15.313-.269.291-.31M46.3 86.782c-.349.756-.967 1.873-.368 1.105l.553-.772c-.22.036-.242-.115-.185-.333M64.51 92.935l.137-.262c-.245.22-.474.42-.687.61l.55-.348M66.352 90.301l-.175.648c.087-.204.15-.418.175-.648M86.66 104.803l.743-.64c-.207-.161-.424.288-.742.64M34.915 77.657c-.093.401-.08.613-.013.727.177-.56.556-1.301.013-.727M71.645 106.9c.177-.075.327-.2.462-.365a.963.963 0 0 0-.462.365M37.565 79.741c.029-.098.043-.15.066-.233-.2.04-.383.054-.471-.095-.133.416-.15.726.405.328M110.962 125.847c-.013.042-.017.065-.033.116.082-.098.07-.115.033-.116M112.263 140.23c-.084.01-.16-.05-.242-.096-.001.078.06.118.242.096M27.848 73.2c-.144-.038-.083.066 0 0M31.258 69.062c.09-.066.191-.155.334-.325-.155.17-.26.273-.334.325M42.3 74.08l.007.01c.084-.169.068-.136-.007-.01M28.648 71.97c-.035.122-.05.235-.044.328.024-.075.04-.18.044-.329"/>
            <path fill="#EC6B4D" d="M27.79 73.268c-.014-.065-.024-.103-.034-.146-.112.111-.162.199.034.146M32.068 74.965c-.067-.037-.095-.118-.105-.214a.311.311 0 0 1-.073.137c.04.01.096.03.178.077M96.48 115.835c-.012.028-.018.05-.036.088.355-.219.27-.207.036-.088M57.64 82.991l-.041.027-.005.037zM58.58 81.88c-.779.62-.792.455-.783.195l-1.312 1.848 2.095-2.043z"/>
            <path fill="#EC6B4D" d="M93.104 123.018l.08-.325c.456-.054.2.122-.08.325M32.519 73.482a.783.783 0 0 0-.331.352c.222-.193.36-.106.452.075.149-.272.207-.493-.12-.427m.246.854l.048-.036c-.01.576.003.358-.048.036M64.32 89.987c.331-.221.349.04.23.506-.172-.019-.277-.161-.23-.506m11.26 5.736c.276-.09.993-.468.646.133-.976.91-.68.334-.646-.133m6.717 4.602l.176-1.07c1.474-.767 1.502-.057 1.943-1.399-2.12 2.469-1.832-1.087-3.95 1.379l.157-.757c.06.088.193-.05.251.04.45-1.648-1.886 1.49-2.286.558-.083-.391.05-.896.458-1.058l-1.045.177c-.116-.18.281-.58.395-.406l-.981-.477.065-.07c-.438.299-1.201.688-1.543.843.086-.536.32-.18.525-.54l-.952.232c.348-.804 1.245-1.123 1.479-.773 1.637-2.86-.894.322-.603-1.902l.69.037c.894-1.658.134-1.417.38-2.706-.265.56-.869 3.042-1.876 3.26.018-.302-.088-.544-.77-.258.732-.895.294-.892-.073-1.112l.996-1.165c-.632.053-1.101.677-1.746 1.04-.29-.44.378-1.425.921-2.274-.468-.705-.771 1.829-1.698 1.439-.147-.886-.91-.706-2.113-.514-.03-.709.658-.67.805-1.118l-1.096.678c-.06-.088.202-.356.336-.494-.573.14-.994 1.162-1.684 1.133-1.19 1.208.686-2.637-1.056-1.594.142-.443.657-.674.994-1.163-1.525.367-1.204.186-2.87 1.002l.129-1.2c-.358 1.199-1.697 1.856-2.823 2.374-.215.545-.4 1.019-.486 1.251l-1.19.082c.08-.26.478-.613.994-1.018-.121.065-.244.125-.354.183.12-.633.802-1.215 1.518-1.736-.117.298-.237.614-.357.93.754-.58 1.559-1.25 2.097-1.971a.812.812 0 0 1-.484.136c.205-.157.375-.31.453-.446.077-.143-.204.063-.563.274l.934-1.446-.469.495-.195-1.552c-1.71.811-3.859 2.318-5.298 2.04 1.041-.764 1.351-1.538 2.304-2.673-.724 1.44 1.19.12 1.502.794-.16-.35.344-.85.57-.981l-1.822.343c.79-.92.38-.864.46-1.451-1.336 2.004-1.692.667-2.531.93.487-.645 1.097-1.205 1.428-.677.645-1.814-2.434 1.638-1.952.046.122.078.105.221.407-.059-.715.339-.986-.623-.394-1.047l.12.08c-.557-.83-2.232-1.873-3.63-.387.178-.192 1.674-1.8 1.956-2.101l-5.655 4.212c1.225-1.257 3.417-4.852 4.657-5.109-.02-.337-.054-.745-.815-.575-.035.296-1.3 2.207-1.568 2.194.784-1.88.347-1.063.847-2.807-.059.438-1.994 2.399-2.223 2.094.307-.28 1.69-2.116 1.975-2.253l-2.41 1.5c.483-.228 1.476-1.737 1.797-2.46-.26.47-.579-.544-.936-.493l-.093.73c-.543-.976-3.183 2.285-3.886 1.52.448-.353 2.401-2.457 2.212-3.054-1.054.916-5.009 4.467-6.377 4.711l.363-.72-1.102.25c1.644-1.33 5.34-3.943 6.924-4.835.098-.731.505-.79.01-1.104.311-.702.954-.667 1.115-.59l-.74-1.235c-.973 1.29-1.818.593-2.623 1.668l2.185-.36c-.968 1.285-3.542 3.002-4.1 2.171.22-.65 1.949-2.104 2.274-2.535-.446.35-1.368.244-1.19-.12l.858-.409c-.03-.809-2.017 1.104-1.544-.5-.107-.218.8-2.029.169-1.312-.881 1.657-4.408 6.112-5.464 7.031.02-.146.216-2.098.593-2.966.625-1.351 2.581-2.319 3.123-3.477-.29.332-.785.625-.958.709.055-.441.93-1 .416-1.168-1.093 1.217-.703-.757-1.054.924-.671.05-.192-.594-.685-.908-.521.938-2.658 2.459-3.33 2.508.282-.306.536-.797.652-1.02-.69-.76-.643-1.682-1.36-2.293.183-.363.13-1.023.72-1.45-.287.139-.73.493-.98.337.452-1.455.64.24 1.37-1.351-.62.717-1.4.542-2.093.74-.82 1.221.565.828 1.258.63-1.267 1.575-3.155 2.763-4.498 2.87-.919-.104.556-1.234.27-1.095-.913-1.208-3.17 1.959-3.202.048.434-1.312 1.585-2.013 2.081-2.806.798.024.247 1.258.615 1.492l-.032-.815c.425-.202.956-.186.9.25.41-1.16-1.78-1.75-1.99-3.303-.426.21-.97.34-1.166.847l.387.088c-.391 1.022-1.418.693-1.367 1.362-.828.264-1.96.819-2.114-.066l.814-1.23c-.254.346-.203.964.225.735-.623.332.43-2.21-1.006-.902l-.264 1.095c-.83.275-2.261 1.12-2.44.38-.689 1.305.213-.043-.514 1.552 1.029-1.884 1.128 1.038 2.05-1.072-.886 1.815.065 1.129-.54 2.802.29-.387.42-.853.66-.346l.35-.265.006.05.016-.062c.06-.042.07-.054.002-.023.04-.242.123-.501.262-.739.887-.71 1.482-.178 2.05-.45.088.364-.442.353-.64.857l.85-.415c-.641.866-.503 1.9-1.44 1.947l.457.438c-.09.707.158 1.22.683 1.064.086.373 1.327-.449.6.042l1.182.108-.163.216c.67.725 2.674-.11 2.32 2.115.423-.005.894-.047 1.131.544l-.5.793c.527.013.393 1.53 1.141.891-1.223 2.238 1.238 1.73 1.533 2.55l.787-.924c.353.38.947.423 1.745.447l.647-.858c.98-.337.609 1.49 1.344 1.958-.304.282-.407.059-.37-.231-.732 2.54 2.8.028 2.409 1.996.427-.155.474.056.43.369 0 0-.045-.005-.08.008.01.025.036.05.067.072-.038.21-.077.453-.112.653.09-.266.153-.493.153-.622.153.099.45.17.826.134l-.64.964c.023.002.037.014.067.015-.067.498.51-.29.949-1.051.226-.06.464-.156.714-.31-1.014 1.576.94-.036-.09 1.688.752-.636 1.502.298 2.9-1.188-.16.212-.18.358-.302.28.083.37.167.74.739.47l-.832 1.215 1.754-1.108c-.26.944-.46 1.451-1.479 2.072 1.833-.733 1.01-.011 2.722-.825l-.63.709c.244.155 1.406-.529 1.045.19-.643 1.806 2.313 2.24 2.532 4.6 1.52-2.368-.196 1.46 1.222-.171-.341.572-.398 1.008-.972 1.28 1.068.042.32 1.628 1.927.592-.347.572-.753.631-.933.99.142-.07.569-.274.387.087-.18.36-.446.35-.73.487.735.467 2.093-1.05 3.355-2.482-.234.979.016 1.021 1.051.256-.273.58-.495 1.248-1.053 1.075.177.266.846 1.894 1.842.73-.172.363.255.36.428.275.468.505.426.649 1.032.966l.014-.313c1.377-1.258.69.037 1.246.212l-.131.135c.104 1.818.814-.154.79 1.802l.677-.93c1.656-1.836-.093 1.815 1.05 1.536l.221-.668c.832-.407-1.3 3.29-1.198 3.775-.07.22-.322.18-.513.228-.141 1.778 1.058-1.08 1.861-.868-.407.717-1.445 1.484-1.15 1.927-.222.669 2.808-1.094 2.356.556.278-.584.56-1.164 1.128-1.3.558.172-.377 2.76 1.247 1.546a1.37 1.37 0 0 1-.236.44c.641-.129 1.57.2 2.44-.466-2.223 3.312 3.197.145.87 2.969l1.102.658-.263.27c.474.706 1.248.21 2.022-.287-.012.31-.334.491-.467.63.445 1.324.638 1.281 2.554.5l-.671.988c.644-.364.145 2.535 1.918 2.205-.094.097-.261.26-.436.33 1.886-.247.336 4.554 3.433 1.506l1.34-.276c-.65-.972 1.31-1.352 1.407-2.204.499.085.056 1.739-.502 1.566l.072-.223c-1.576 1.625.566 1.505-.422 2.676 1.769 1.314 2.637 3.652 4.17 5.038l.915-1.517.49.536c-.108.439-.662 1.229-1.014.846-.416.944 1.187-.1 1.437-.39.333 1.192-1.582 1.344-1.372 1.57l.406.166.057-.22c.71-.341 1.21-.914 1.63-.456.083.523-.522.97-.448 1.12-.074.095-.072.172.156.189l.607.692.582-1.308c.736-.278.615.596 1.27-.893-1.035 2.274 2.07 2.825 1.895 3.649 1.065-.432 1.482-.07 1.94.46.047-.33.934-1.612 1.273-1.09-2.163 2.374-.021 1.779-1.085 3.891.616-1.47 1.544.774 2.372-1.36.22.517-.722.96-.899 1.792 1.684-.23 1.508 2.282 2.91 2.871.275-.32.483-.979 1.113-1.275l-.697 2.145c.352.02 1.699-1.75 1.212-.267.158-.326.401-.818.635-.8.965 3.427 5.557 2.336 5.493 7.222.185-.9.44-.799.695-.634-.033-.278.632-.825.95-1.304l-.01 2.026c1.128-1.129 1.083.73 2.094-.402l-.462-.02c1.472-1.112 1.836-3.625 3.277-5.408-1.672 1.264.655-3.336-1.832-1.6.122-.498.583-.478.82-.97-.781.636-1.127.621-1.271-.059l.193-.158c-1.301-.738-1.21-1.9-2.106-3.46l-.599.973c-.185-.343-.023-.673.017-1.003-1.373 1.103.726.71-.728 1.973 1.044-2.125-1.944-1.618-.583-3.89-.421-.357-.682 1.137-1.1.777l.321-.65-.67.633c-.189-.346.216-1.16.577-1.641.022.11.296.023.402.04.151-.952-1.202-.603-1.159-.922l.141.677c-1.578-.415-2.424-2.317-4.445-2.104l-.243.492c-1.478.073-.327-1.025-1.557-1.436l.114-.07c-.523.26-.941.268-1.164.007.63-.297.313-1.318 1.057-1.606-1.597.069-.983.276-2.84 1.326l.412-.808c-.71.457-.993.771-1.607.564.863-.276.543-1.303 1.605-1.738.222-2.33-2.697.326-1.372-2.264-1.994 1.545 0 1.768-.582 1.971-.291.802-1.525 1.125-1.682.677-.28-.302 1.43-2.897.608-3.512.07.075.192-.064.265.01.094-.734-1.116.18-.84-.913-1.14.99-.424-.456-1.671.973l1.007.258c-.724.047-2.504 1.454-2.512.055.296-.252.813-.477 1.128-.579.153-.601-.617-.03-.465-.644 1.25-1.432 1.15.406 2.498-.356.285-.802-1.7.38-.19-1.038-1.96 1.773-.573-.898-2.365.212l.749-.856c-.197.069-.71.342-.849.189l1.208-.913c-1.223.62-.148-1.549-.993-1.358.896.694-.665 1.226-.816 2.179-2.034.294 1.249-2.824-.3-3.398.263.012.184 1.037-.405 1.235a2.69 2.69 0 0 1 .122-1.54c-.945-.476-.61 1.01-1.389 1.273.595-1.301-.75.113-1.378.17l.725-.901c-.443-1.327-1.759 1.67-2.013.298l1.356-.958-.69-.03.916-.948c-1.082.372-1.065.057-1.29-.607-.406.722-1.38 1.58-1.807 1.273.159-.76.845-.725.17-1.07.586-.451 1.299-1.041.875-.009.292-.247.56-.48.848-.722.201-.86-.63-.758-.845-.921.053.103.107.227.055.396l-1.841.556c.144-.446.467-.63.783-.81-.244-.042-.697.274-1.008.146.66-.677 1.256-1.439 1.885-1.495l-1.447.158c.206-.361.302-1.206.626-1.389-.09-.788-2.227.524-2.348-.523a.813.813 0 0 1-.522.203c-.413-.612-.168-1.908-1.629-1.445l.7-1.606c-.748-.127-.846 2.054-2.088 1.845-.94-.079.683-1.298.77-1.834-.83.412-2.44 1.32-2.12-.195.38-.093.362.217.612.26"/>
            <path fill="#EC6B4D" d="M66.514 90.437c-.092.155-.21.31-.331.467a.926.926 0 0 0 .33-.467M87.264 104.283l.004.018.135-.138zM47.46 74.45c-.023.177-.104.36-.203.536.165-.196.272-.392.203-.536M27.23 73.49l.399-.03c-.143-.047-.035-.257.013-.433-.15.197-.331.508-.412.464M30.221 65.687c-.113.072-.078-.047-.194.027l-.298.392c.163.087.509-.14.492-.42M30.088 68.263c.538-.704.207-.586-.055-.586 0 0 .025.006.029.024-.827.926-.4.744.026.562"/>
            <path fill="#EC6B4D" d="M30.476 67.801c-.075-.006-.139-.029-.162-.101-.331.372-.005.128.162.101M31.922 74.84c.067-.239-.76.842-.576.529-.794.805 1.362-.655.576-.528M31.265 66.562l-.63.897.642-.612zM32.336 67.849l-.063-.441a.636.636 0 0 1-.302.233c.131.156.168.465.365.208"/>
            <path fill="#EC6B4D" d="M32.524 67.626c-.069-.081-.16-.127-.318-.024.05.026.17.074.318.024"/>
            <path fill="#EC6B4D" d="M32.271 67.407l-.068.24.13.207zM38.42 73.634l.474-.017c.266-.267.334-.507.138-.477-.233.15-.427.178-.612.494M38.39 69.428c-.07.238-.216.43-.401.746l.863-1.047-.461.301zM40.258 71.618c.264-.27 1.086-.51.68-.73-.264.266-.742.283-.68.73M45.733 76.802l-.083-.04-1.829 2.237zM54.03 78.162c-.054-.606-.78.795-.736.135-.346.262-.037.537-.346.757.48-.184.423.097 1.083-.892M53.183 79.251c-.088.04-.188.097-.316.177.146-.06.24-.119.316-.177M112.972 141.198l-.07.535.32-.698z"/>
            <path fill="#EC6B4D" d="M113.2 141.017l-.819 1.156.917-.91c-.086.01-.257.034-.098-.246M74.965 93.727l-.232.25c-.204.312-.172.373-.11.498l.342-.748zM79.527 97.593l-.03-.064-.726 1.064zM84.802 98.188c-.064-.122-.36.005-.424-.12.36-.002-.565 1.377.424.12"/>
            <g transform="rotate(130 -5.478 62.795)">
                <mask id="t" fill="#fff">
                    <use xlink:href="#s"/>
                </mask>
                <path fill="#EC6B4D" d="M1.02 1.448C1.15 1.36.402.428.283.226c.046.508.929 1.476.737 1.222" mask="url(#t)"/>
            </g>
            <g transform="rotate(130 -7.336 60.116)">
                <mask id="v" fill="#fff">
                    <use xlink:href="#u"/>
                </mask>
                <path fill="#EC6B4D" d="M.543 1.294L.266.866l.562 1.325z" mask="url(#v)"/>
            </g>
            <g transform="rotate(130 -7.176 59.155)">
                <mask id="x" fill="#fff">
                    <use xlink:href="#w"/>
                </mask>
                <path fill="#EC6B4D" d="M.482 2.32c1.337 1.339.18-1.16.807-1.044l.311.286L.69.092C.619.833.986 2.376.482 2.318" mask="url(#x)"/>
            </g>
            <path fill="#EC6B4D" d="M36.235 99.245c-.577.193-.564-.09-.126.263l.14-.076c-.021-.033-.032-.088-.014-.187M36.097 99.386c.094.177.463-.235 0 0"/>
            <path fill="#EC6B4D" d="M35.11 99.548l.594.126c.338-.131.354-.368.631-.345-.355-.188-.691-.055-1.225.219M33.925 99.492l.259.077c.14-.058.18-.103-.26-.077M35.4 100.445l-.546-.161c-.236.09-.728.206.204.083-.456.081-.008.036.341.078"/>
            <path fill="#EC6B4D" d="M35.24 100.312c-.293.214-.455.439-1.047.31.337.424 1.389.113 1.048-.31"/>
            <g transform="rotate(130 -8.243 58.766)">
                <mask id="z" fill="#fff">
                    <use xlink:href="#y"/>
                </mask>
                <path fill="#EC6B4D" d="M.255.724L.726.94.406.14C.563.537-.142.216.255.724" mask="url(#z)"/>
            </g>
            <path fill="#EC6B4D" d="M36.156 97.278c-.328.06-.84.28-1.247.394l.42.098c.193-.145.352-.37.827-.492M35.22 98.393l-.629-.143c.002.256.276.242.629.143M32.997 99.33l1.287.179-1.325-.26zM35.368 97.297l.788-.02-1.202-.012zM35.67 96.533c.649-.03 1.007-.402 1.421-.37-.163-.163-.739-.198-1.254-.231.307.09.284.272-.167.601M32.984 93.274c.169.043.456.06.761.08-.163-.05-.391-.081-.761-.08M31.944 94.9c.188-.067.689-.225.865-.43l-.881.32.016.11zM31.731 95.732l.028-.01a5.542 5.542 0 0 0-.013-.243c0 .03-.005.105-.015.253M31.86 95.6l-.002-.028c-.088.033-.114.045.002.029M30.937 96.7c-.55-.042-1.185-.249-1.875.252.655-.029 1.045-.313 1.875-.251"/>
            <path fill="#EC6B4D" d="M31.154 95.423l-.13.336c.239-.062.575-.195.85-.174l-.72-.162zM30.53 96.724l.325.075.051-.124zM32.777 94.443c-.429-.033-.5-.161-.603-.301-.135.206-.184.4-.141.562.291-.044.823-.093.744-.261"/>
            <path fill="#EC6B4D" d="M31.873 95.585l-.059-.015c-.071.035-.094.054.06.015M29.447 91.649l-.16.063.161-.032z"/>
            <path fill="#EC6B4D" d="M31.446 95.428c-.142.166.101.188.4.19a.52.52 0 0 1-.238-.255c-.133.017-.216.035-.162.065M31.613 93.521c-.172.11-.313.22-.442.332.272-.129.686-.364.442-.332M32.66 94.516c.018.002.047.008.047.008.183-.086.09-.057-.046-.008"/>
            <path fill="#EC6B4D" d="M31.873 95.585c-.145-.034-.385-.03-.598-.034.092.058.21.103.359.134.062-.024.153-.065.24-.1M21.185 90.418c1.187.111 2.536.656 1.509.979 1.104.46 4.812.47 6.769.265-.519-.05-.99-.08-1.916-.544-.556.104-.98.816-2.235.395-.911-.59.163-.42.631-.644-1.336.124-2.513-.841-4.591-.867l1.02.527c-.326-.012-.954-.222-1.187-.111M31.461 93.004l.135.094c.111-.169.422-.345 1.034-.68a2.572 2.572 0 0 0-1.072-.01l.039.607-.136-.01zM30.91 93.637c-1.321.075-2-.233-3.3.232.251.472 1.182.167 1.835.37-.582-.73.789.108 1.322-.575.271.12.385.25.483.371a2.33 2.33 0 0 1 .444-.501l-.073.032.003.003-.02.003c-.147.06-.238.087-.16.034l-.034-.014-.494.044c.188-.271.322-.09.494-.044l.194-.02.017-.006-.97-.67c-.122.194-.011.395.26.74"/>
            <g transform="rotate(130 -9.106 55.014)">
                <mask id="B" fill="#fff">
                    <use xlink:href="#A"/>
                </mask>
                <path fill="#EC6B4D" d="M1.004.363C.928.305.876.237.82.169c.07.165.123.262.184.194" mask="url(#B)"/>
            </g>
            <path fill="#EC6B4D" d="M27.393 96.884c.15-.003.566-.104.483.076-.286.228-.49.163-.825.281.286-.005.785.061 1.236-.376l-.146.002c.31-.361 1.532-1.097 1.68-1.102-.906.374-1.554.656-2.428 1.119"/>
            <path fill="#EC6B4D" d="M29.822 95.765l-.575-.357-.73.421.473-.124c-.116.306.456.113.832.06M31.644 92.587l.986-.169-1.44.058zM29.553 90.726l.846-.18-.55-.038zM15.235 49.72l.166-.27a.63.63 0 0 0-.166.27M14.23 50.378l.106.413c-.008-.235-.035-.406-.106-.413M20.037 70.375c.727-.409 1.876-.954.943-.676l-.897.304c.2.096.127.229-.046.372M7.145 57.77c-.103-.044-.215-.096-.326-.145.404.28.778.536 1.13.778-.253-.197-.52-.41-.804-.633"/>
            <g transform="rotate(130 -11.68 26.687)">
                <mask id="D" fill="#fff">
                    <use xlink:href="#C"/>
                </mask>
                <path fill="#EC6B4D" d="M.664 1.756L.314.94c.094.35.204.63.35.817" mask="url(#D)"/>
            </g>
            <path fill="#EC6B4D" d="M24.066 48.257l.075-.978c-.266.032-.1.505-.075.978M26.2 84.157c.314-.261.425-.434.44-.566-.474.34-1.22.702-.44.566M20.555 63.768a2.753 2.753 0 0 0-.094-.568c-.006.166.022.345.094.568M28.064 81.259c-.082.06-.124.093-.192.147.187.085.347.18.328.347.352-.252.546-.488-.136-.494M54.1 55.341c.014.042.02.067.04.117.015-.128-.006-.134-.04-.117M62.722 70.148c-.062.047-.142.029-.217.023.023.073.083.082.217-.023M30.136 88.46c.095.114.107-.004 0 0M26.117 88.854a1.883 1.883 0 0 0-.463.057c.226-.042.372-.057.463-.057M18.123 80.257v-.012c-.17.083-.137.068 0 .012"/>
            <path fill="#EC6B4D" d="M29.987 88.722c.1-.075.179-.154.23-.229a.97.97 0 0 0-.23.229"/>
            <path fill="#EC6B4D" d="M30.103 88.426l-.059.133c.158-.02.25-.057.059-.133"/>
            <path fill="#EC6B4D" d="M30.081 88.379c.033.07.009.148-.04.229a.297.297 0 0 1 .137-.064.918.918 0 0 1-.097-.165M38.52 55.823l.03.09c.125-.401.069-.334-.03-.09M6.536 66.801s.038.014.053.018l.027-.03-.08.012zM4.205 62.865c1.986 1.126 1.912 1.222 1.79 1.393l3.608 1.235-2.67-1.272c-1.365-.68-2.728-1.356-2.728-1.356"/>
            <g transform="rotate(130 18.646 48)">
                <mask id="F" fill="#fff">
                    <use xlink:href="#E"/>
                </mask>
                <path fill="#EC6B4D" d="M16.22 19.09l-.165.386c-.376.087-.118-.133.165-.386m25.792-1.943a1.319 1.319 0 0 0-.366-.44c.211.289.164.436.03.514.259.216.458.317.336-.074m-.668.152l.038.06c-.485-.101-.299-.05-.038-.06m-7.76 36.431c.046.836-.097.666-.296.019.044-.322.13-.395.296-.019m-8.572-2.007c-.208.198-.764.923-.581-.124.674-1.653.51-.67.58.124M19.076 45.4l-.351 1.354c-1.345 1.167-1.234.276-1.852 2.007 2.2-3.361 1.283 1.116 3.461-2.273l-.273.97c-.028-.102-.162.09-.193-.015-.637 2.177 1.901-2.025 2.181-.762.071.57-.034 1.336-.42 1.57l.976-.261c.112.266-.227.905-.348.629l.935.721-.056.11c.373-.487.995-1.185 1.262-1.479-.034.85-.255.331-.401.914l.764-.51c-.199 1.35-.91 1.99-1.165 1.424-1.062 4.818.702-.615.855 3.09l-.634.01c-.441 2.902.224 2.452.42 4.817.005-1.102-.063-5.455.779-5.951.047.514.205.923.69.294-.385 1.68-.013 1.602.345 1.91l-.473 2.269c.532-.184.709-1.41 1.1-2.214.354.707.177 2.682.069 4.395.664 1.208-.066-3.564.795-3.1.429 1.57.963 1.038 1.646.161.317 1.332-.146 1.543-.052 2.448l.422-1.74c.075.142.028.77.003 1.088.299-.52.118-2.65.516-2.94.078-2.97.836 5.438 1.305 2.494.155.965.003 1.708.08 2.87.634-1.556.579-.996.883-3.724-.016-.069.63 2.654.615 2.416-.258-1.126-.345-2.485-.36-3.647a3821.39 3821.39 0 0 1-.053-4.225c-.183-1-.339-1.873-.416-2.296l.09-2.255c.09.436.192 1.539.292 2.94l-.031-.86c.242.933.413 2.724.51 4.584-.11-.505-.224-1.043-.34-1.575.122 2.002.23 4.252.432 5.993-.009-.41.016-.822.056-1.112.028.556.056 1.038.103 1.314.046.289.025-.478.01-1.387l.49 3.113-.13-1.368c-.016.023.894.771.91.744.006-4.152-.507-9.268-.314-11.421.36 2.328.764 3.44 1.345 5.892-.773-2.264-.267 2.167-.764 2.388.242-.088.441 1.23.466 1.768l.1-1.92.059-1.864c.444 2.062.481 1.244.863 1.703-1.084-3.664-.177-3.545-.264-5.17.385 1.193.7 2.58.283 2.938 1.19 2.03-.836-5.226.183-3.522-.062.175-.158.069.01.735-.18-1.387.5-1.415.773-.234l-.065.183c.655-.675 1.594-3.33.326-5.763.177.29 1.5 2.99 1.724 3.554 0 0-.832-2.544-1.795-4.808-.948-2.296-2.03-4.312-2.03-4.312 1.135 1.993 4.363 5.626 4.614 7.577.296.005.675-.069.504-1.258-.277-.041-2.01-2.099-2.026-2.47 1.69 1.317.932.647 2.566 1.359-.41-.074-2.348-2.866-2.134-3.096.292.414 2.122 2.31 2.268 2.72.04-.084-1.65-3.275-1.693-3.183.304.578 1.808 1.91 2.488 2.378-.453-.362.333-.578.212-.991l-.644-.212c.709-.473-2.64-3.926-2.143-4.615.397.556 2.613 3.072 3.072 2.944-1.01-1.328-4.884-6.324-5.387-7.922l.69.514-.454-1.295c1.485 2.067 4.505 6.65 5.611 8.574.64.211.78.684.938.17.665.455.777 1.176.746 1.346l.876-.657c-1.302-1.286-.9-2.145-1.985-3.22l.783 2.531c-1.299-1.281-3.318-4.455-2.737-4.969.6.34 2.209 2.526 2.644 2.958-.395-.56-.507-1.594-.162-1.332l.534 1.033c.678.087-1.373-2.457.081-1.676.165-.087 1.89 1.212 1.147.386-1.588-1.25-6.12-5.934-7.124-7.275.127.042 1.823.551 2.637 1.112 1.274.918 2.514 3.297 3.61 4.087-.344-.377-.699-.988-.807-1.199.385.133 1.044 1.213 1.072.652-1.259-1.432.49-.684-1.004-1.34-.186-.777.46-.13.618-.644-.904-.739-2.647-3.416-2.827-4.197.314.372.783.74 1 .905.491-.675 1.277-.478 1.638-1.204.345.262.891.308 1.373 1.052-.177-.349-.569-.914-.49-1.176 1.32.754-.07.699 1.428 1.792-.736-.832-.755-1.695-1.068-2.522-1.2-1.134-.575.515-.265 1.341-1.59-1.703-2.991-4.055-3.358-5.625-.103-1.043 1.153.835.979.486.826-.858-2.306-3.981-.702-3.71 1.19.712 2.019 2.158 2.79 2.86.145.915-1.01.079-1.128.465l.677.096c.26.524.357 1.13-.022.997 1.06.66 1.097-1.764 2.358-1.75-.264-.524-.484-1.18-.954-1.493l.01.437c-.938-.625-.876-1.755-1.426-1.81-.392-1-1.088-2.406-.376-2.443l1.2 1.153c-.343-.354-.852-.395-.573.138-.403-.781 1.942.877.557-1.01l-.976-.497c-.398-1.01-1.392-2.815-.805-2.897-1.236-1.025.078.252-1.41-.86 1.79 1.512-.646 1.144 1.314 2.568-1.706-1.336-.938-.115-2.47-1.088.385.4.802.629.426.826.096.147.22.34.295.45 0 0-.025-.004-.044-.004l.056.027c.05.078.06.092.019.01.211.082.447.224.674.422.78 1.148.45 1.75.802 2.457-.295.041-.389-.574-.858-.882l.525 1.052c-.86-.882-1.702-.887-1.932-1.984l-.274.464c-.615-.216-.997-.01-.76.624-.296.041.652 1.612.086.689l.152 1.355-.214-.22c-.478.665.643 3.108-1.308 2.36.09.491.224 1.042-.224 1.226l-.773-.698c.096.61-1.218.234-.519 1.19-2.15-1.737-1.209 1.184-1.84 1.405l.951 1.037c-.245.35-.158 1.03-.009 1.943l.864.863c.494 1.171-1.134.483-1.373 1.268-.305-.39-.137-.473.12-.39-2.32-1.19.579 3.2-1.177 2.484.22.51.053.533-.226.44 0 0 0-.05-.022-.09-.019.004-.034.031-.047.063-.186-.069-.4-.147-.578-.215.246.137.45.243.563.261-.053.161-.05.487.065.923l-.963-.858c.006.027-.003.04.003.073-.438-.142.357.62 1.1 1.226.102.262.236.551.422.854-1.566-1.364.236 1.08-1.457-.326.357.455.357.919.51 1.383.186.4.463.946 1.22 1.896-.204-.23-.32-.303-.298-.395-.254-.041-.49-.124-.14.57l-1.096-1.355s.32.56.637 1.125l.615 1.176c-.74-.684-1.1-1.217-1.811-2.549.997 2.25.313.974 1.22 3.38l-.59-1.139c-.03.165.615 1.984.097 1.112-.619-.951-.814-.694-1.035-.34-.217.34-.478.822-.963-.258 1.159 4.556-.625-1.823.183 1.902-.26-1.102-.428-1.686-.593-2.779.078 1.47-.5-1.57-.053 2.062L31.36 37c.034.285.128 1.171.006.441-.12-.735-.14-1.102-.208-1.676-.04.363.444 4.445.895 8.285-.336-1.562-.326-1.259-.159 1.529-.173-1.199-.35-2.466-.28-3.178-.067.33-.627-2.14-.456 1.02-.074-.823-.152-.386-.164-.07-.243-.45-.261-.73-.482-.711l.065.55c-.074 3.408-.214.538-.404.722l.013-.34c-.336-2.93-.277.872-.522-2.3l-.134 2.01c-.422 4.166-.19-2.984-.562-1.648l-.053 1.18c-.391 1.12.441-5.841.522-6.328.05-.35.124-.5.186-.721.277-2.43-.456 2.287-.751 2.58.242-1.24.705-3.04.683-3.356.267-.914-1.292 3.389-.808 1.028-.258.864-.487 1.769-.807 2.25-.317.01.835-3.457-.355-1.225.078-.23.162-.432.249-.616-.388.464-.851.5-1.628 1.534 2.507-4.335-2.448.423-.006-3.403l-.715-.601.264-.372c-.208-.763-.929-.033-1.65.693.084-.381.376-.648.51-.836-.04-1.543-.193-1.446-1.883-.22l.758-1.29c-.593.523.491-3.009-.966-2.375.1-.129.267-.344.423-.455-1.547.533.91-5.377-2.315-1.354l-1.125.482c.258 1.097-1.385 1.754-1.687 2.787-.372-.055.414-2.085.805-1.933l-.115.276c1.669-2.113-.046-1.75 1.047-3.247-1.047-1.373-1.053-4.074-1.842-5.57l-1.171 1.845-.233-.597c.217-.519.888-1.483 1.053-1.06.609-1.135-.966.202-1.25.55.106-1.377 1.65-1.666 1.554-1.928l-.267-.166-.109.262c-.661.446-1.227 1.144-1.416.63.096-.607.708-1.162.696-1.332.093-.115.111-.207-.06-.212l-.257-.771-.87 1.552c-.668.358-.299-.67-1.283 1.093 1.519-2.682-.734-3.205-.317-4.174-.982.519-1.193.096-1.377-.506-.149.382-1.286 1.86-1.382 1.254 2.52-2.723.627-2.043 2.221-4.445-1.013 1.667-.926-.882-2.345 1.515.009-.592.913-1.074 1.354-2.011-1.42.23-.348-2.572-1.174-3.27-.342.335-.764 1.056-1.373 1.35L11.1 7.802c-.264-.037-2.032 1.814-1.054.22-.254.35-.643.868-.82.836.687-3.701-3.395-3.214-.96-8.133-.596.85-.73.717-.835.514-.115.28-.889.712-1.367 1.135L7.11.385c-1.433.864-.432-.904-1.79-.05l.342.128C3.95 1.166 2.394 3.568.39 5.02c1.932-.854-2.107 3.472.711 2.315-.323.514-.69.362-1.103.835.923-.477 1.193-.376 1.01.414l-.227.12c.74 1.147.137 2.474.267 4.422l.88-.992c.012.427-.25.771-.414 1.143 1.56-1.001-.307-.946 1.386-2.103-1.703 2.218.923 2.167-1.06 4.57.212.477.988-1.204 1.197-.736l-.507.708.786-.639c.022.423-.609 1.31-1.081 1.819.019-.133-.236-.069-.317-.106-.472 1.089.77.877.618 1.24l.13-.813c1.125.712 1.163 3.036 2.893 2.921l.367-.556c1.22.005-.084 1.227.777 1.791l-.119.079c.507-.28.855-.28.948.032-.606.326-.674 1.547-1.373 1.86 1.323-.023.892-.285 2.728-1.488l-.59.95c.72-.523 1.046-.895 1.475-.643-.783.317-.848 1.539-1.84 2.035-.9 2.796 2.275-.363.426 2.723 2.079-1.855.526-2.103 1.063-2.347.475-.95 1.572-1.35 1.563-.822.133.35-2.023 3.458-1.532 4.193-.034-.087-.174.083-.214-.004-.286.886.957-.235.42 1.088 1.201-1.212.21.546 1.624-1.203l-.733-.29c.6-.064 2.43-1.809 2.038-.151-.308.317-.79.61-1.075.744-.29.725.494.009.196.753-1.408 1.763-.82-.436-2.122.505-.463.978 1.485-.5-.14 1.25 2.085-2.196.224 1.07 1.982-.336l-.842 1.06c.18-.091.671-.44.743-.26l-1.23 1.147c1.161-.794-.296 1.878.447 1.617-.544-.809.866-1.52 1.242-2.678 1.722-.459-1.774 3.495-.652 4.115-.214 0 .115-1.249.646-1.525a5.476 5.476 0 0 1-.494 1.879c.653.523.755-1.263 1.457-1.63-.817 1.616.634-.189 1.156-.3l-.814 1.144c.025 1.59 1.842-2.163 1.7-.51l-1.333 1.268.546-.009-.975 1.222c.966-.533.87-.143.895.647.503-.914 1.5-2.044 1.77-1.717-.31.94-.857.964-.394 1.322-.581.61-1.302 1.392-.711.092-.296.326-.569.634-.861.96-.367 1.065.335.868.472 1.051a.811.811 0 0 1 .047-.482l1.618-.854c-.22.56-.522.817-.823 1.07.19.028.628-.404.848-.28-.686.895-1.345 1.892-1.867 2.016l1.209-.326c-.249.464-.522 1.515-.824 1.773-.105.978 1.923-.873 1.79.4.143-.162.301-.286.469-.313.199.712-.273 2.342 1.003 1.593l-.9 2.085c.577.06 1.109-2.65 2.072-2.558.74-.036-.82 1.695-1 2.37.764-.62 2.24-1.98 1.68-.055-.326.174-.255-.216-.444-.234" mask="url(#F)"/>
            </g>
            <g transform="rotate(130 -11.68 26.687)">
                <mask id="H" fill="#fff">
                    <use xlink:href="#G"/>
                </mask>
                <path fill="#EC6B4D" d="M.584 1.51A15.2 15.2 0 0 1 .433.392C.439.82.48 1.248.584 1.51" mask="url(#H)"/>
            </g>
            <path fill="#EC6B4D" d="M24.828 51.847l.018.011-.004-.19zM12.25 77.93c.123-.125.296-.223.481-.308-.253.062-.451.158-.481.307M31.333 89.433l-.343-.211c.089.12-.123.223-.267.33.237-.063.57-.202.61-.119M23.947 95.232c.135.011.038.082.175.09l.473-.124c-.077-.162-.494-.19-.648.034M27.858 90.544c-.856.228-.517.33-.305.485 0 0-.016-.021-.009-.034 1.222-.233.766-.342.314-.451M27.104 91.74c.056.052.094.106.071.174.488-.092.08-.096-.071-.173M29.15 88.653c-.198.145 1.116-.211.779-.072 1.124-.167-1.49-.29-.78.072M24.136 90.294l1.045-.325-.885.099zM22.596 87.94l-.21.377a.658.658 0 0 1 .383-.004c-.015-.2.14-.457-.173-.374"/>
            <path fill="#EC6B4D" d="M24.917 89.79c.005.103.054.194.243.204a.409.409 0 0 0-.243-.204M21.692 89.506l.198-.146.019-.235zM19.424 83.238l-.395-.259c-.373.056-.571.205-.394.293.276.015.452.105.789-.034M17.72 84.702c.199-.146.43-.21.768-.348l-1.318.315.55.033zM17.366 83.412c-.376.058-1.18-.221-.983.179.371-.057.766.202.983-.179M18.039 78.238l.044.074 1.918-.292zM6.376 72.012c-.41.53 1.352-.26.803.267.533-.043.448-.43.91-.452-.599-.096-.327-.302-1.713.185M9.962 73.664c.095.015.21.027.359.035a1.393 1.393 0 0 0-.359-.035M64.64 74.038l.101.5.043-.759zM65.566 72.535l-.305 1.382.46-1.21c-.067.05-.197.146-.155-.172"/>
            <g transform="rotate(130 -6.632 26.106)">
                <mask id="J" fill="#fff">
                    <use xlink:href="#I"/>
                </mask>
                <path fill="#EC6B4D" d="M.118 3.026l.137-.658C.313 1.51.237 1.319.085.923l.033 2.103z" mask="url(#J)"/>
            </g>
            <path fill="#EC6B4D" d="M15.583 47.701l-.11-.013.434 1.231zM21.213 48.624c-.135-.038-.254.266-.391.226.256-.264.606 1.357.391-.226"/>
        </g>
    </g>
</svg>
