<svg xmlns="http://www.w3.org/2000/svg" width="56" height="78" viewBox="0 0 56 78">
    <path fill="#EE6C4D" fill-rule="evenodd" d="M13.884 63.659a2.115 2.115 0 0 1-.374-.376c.021.226.147.306.315.357l.06.019zm.363.218a.332.332 0 0 1 .079.216c0 .134-.017.302-.05.504-.034.201-.05.37-.05.504 0 .336.166.504.5.504.2 0 .468-.05.802-.152.334-.1.668-.15 1.002-.15.801 0 1.686.167 2.654.503.969.336 1.453.974 1.453 1.915 0 .134-.017.285-.05.453-.034.168-.05.32-.05.454l.801-1.008c.468-.94 1.102-1.511 1.904-1.713a13.37 13.37 0 0 0 2.304-.806c.4 0 .7.252.901.756.2.503.501.755.902.755.4 0 .851-.15 1.352-.453.501-.302.985-.454 1.453-.454.334 0 .568.202.701.605.134.403.234.857.3 1.36.067.504.134.958.201 1.361s.2.605.4.605c.134 0 .318-.235.552-.706.233-.47.584-.705 1.052-.705.334 0 .667.067 1.001.201.334.135.601.202.802.202.334 0 .768-.403 1.302-1.21.334-.738.768-1.108 1.302-1.108.2 0 .418.134.652.403.233.269.45.554.65.857.201.302.368.588.502.856.133.27.267.403.4.403.067 0 .184-.117.351-.352.167-.235.35-.487.551-.756.2-.269.45-.52.751-.756.3-.235.618-.353.952-.353 1.269 0 2.688.084 4.258.252 1.57.168 3.022.454 4.357.857 1.336.403 2.471.924 3.406 1.562.936.638 1.403 1.394 1.403 2.267 0 .874-.801 1.814-2.404 2.822-.267.74-.802 1.21-1.603 1.411-.601.605-1.002.907-1.202.907-.2 0-.451-.218-.752-.655l-1.001-1.461a34.895 34.895 0 0 1-.952-1.462c-.267-.436-.434-.655-.501-.655l-.2.202c-.067.067-.1.168-.1.302.066.336.15.655.25.958.1.302.15.621.15.957 0 1.075-.467 1.612-1.402 1.612-.468 0-.869-.117-1.202-.352a1.111 1.111 0 0 1-.501-.958c0-.336.066-.688.2-1.058.134-.37.2-.722.2-1.058 0-.134-.1-.269-.3-.403-.134 0-.267.017-.4.05-.135.034-.201.084-.201.151 0 .404-.134.723-.401.958a8.197 8.197 0 0 1-.852.655c-.3.201-.567.42-.801.655-.234.235-.35.554-.35.957v.303c0 .067-.05.134-.15.201a.76.76 0 0 0-.251.302c-.535-.537-1.086-1.226-1.653-2.065-.568-.84-1.152-1.26-1.753-1.26-.268 0-.535.117-.802.353-.267.235-.5.352-.701.352-.334 0-.668-.084-1.002-.252a3.971 3.971 0 0 0-1.002-.352c-.133.537-.233.957-.3 1.26a1.36 1.36 0 0 1-.451.755c-.234.202-.551.37-.952.504-.4.134-.935.302-1.603.504-.267.134-.6.201-1.001.201-.468 0-.735-.503-.802-1.511 0-.47.05-.756.15-.857a.48.48 0 0 1 .351-.15c.134 0 .3-.018.501-.051.2-.034.367-.219.5-.555-.266-.134-.467-.201-.6-.201-.2 0-.4.168-.601.504-.2.336-.384.688-.551 1.058-.167.37-.35.722-.551 1.058-.2.336-.4.504-.601.504-.2 0-.468-.151-.802-.454a27.798 27.798 0 0 1-1.052-1.007 8.05 8.05 0 0 1-.901-1.058c-.234-.336-.35-.538-.35-.605 0-.538.183-.94.55-1.21.367-.268.551-.503.551-.705-.067-.067-.1-.134-.1-.201l-.2-.202c-.535 0-.919.235-1.152.705-.234.47-.451.991-.652 1.562a4.47 4.47 0 0 1-.951 1.563c-.434.47-1.119.705-2.054.705-.735 0-1.152-.118-1.252-.353-.1-.235-.217-.79-.35-1.663a6.392 6.392 0 0 0-1.203 1.109c-.334.403-.568.605-.701.605-.535 0-.802-.303-.802-.907 0-.202.034-.403.1-.605.067-.202.1-.37.1-.504s-.133-.285-.4-.453a8.12 8.12 0 0 0-.601-.353c-.334 0-.584.117-.751.353a4.598 4.598 0 0 0-.451.806c-.134.302-.3.57-.501.806-.2.235-.468.353-.802.353-.467 0-.768-.42-.901-1.26a37.618 37.618 0 0 0-.4-2.167l-5.11 2.117c-1.002.403-1.636.604-1.903.604-.468 0-.902-.487-1.303-1.46-.4-.975-.768-1.865-1.102-2.671a46.332 46.332 0 0 0-.2-.958 4.429 4.429 0 0 1-.1-.957c0-.538.1-1.042.3-1.512.2-.47.535-.873 1.002-1.21.4-.268.601-.537.601-.805 0-.27.034-.538.1-.807.067-.268.234-.487.501-.655.267-.168.868-.251 1.803-.251.468 0 .969.1 1.503.302.534.201 1.002.42 1.403.655.4.235.751.453 1.052.655.3.201.484.302.55.302.134 0 .418-.218.852-.655.434-.437.852-1.058 1.252-1.864-.2-.403-.3-.74-.3-1.008 0-.403.233-.84.701-1.31.467-.47 1.035-.924 1.703-1.36a17.81 17.81 0 0 1 2.054-1.16c.7-.335 1.319-.537 1.853-.604.134 0 .25.067.35.202.1.134.218.201.351.201.134 0 .3-.201.501-.605.2-.403.3-.772.3-1.108 0-.134-.066-.252-.2-.353a3.767 3.767 0 0 1-.4-.353l-.702.706-.3-.403.801-.605a7.228 7.228 0 0 1-.751-.856c-.167-.236-.25-.555-.25-.958 0-.403.15-.705.45-.907.3-.201.651-.386 1.052-.554.4-.168.818-.353 1.252-.554a2.506 2.506 0 0 0 1.052-.907l-.701-.504.4-.302.401.806c.935-.336 1.92-.622 2.956-.857 1.035-.235 1.552-.52 1.552-.856 0-.336-.166-.622-.5-.857-.334-.235-.635-.353-.902-.353a1.77 1.77 0 0 0-.801.202 1.978 1.978 0 0 1-.902.201c-.2 0-.434-.067-.701-.201.133-.202.267-.47.4-.806.134-.336.334-.504.601-.504.869-.135 1.436-.454 1.704-.958.267-.504.45-1.058.55-1.662.1-.605.25-1.176.451-1.714.2-.537.702-.94 1.503-1.209.134-.067.25-.151.35-.252l.351-.353c-.734-.47-1.285-.688-1.653-.655-.367.034-.55-.117-.55-.453 0-.134.216-.538.65-1.21.435-.671.652-1.276.652-1.813v-1.008c0-.672.033-1.31.1-1.915.067-.604.367-1.176.901-1.713.134.202.268.37.401.504.134.134.2.37.2.705 0 .269-.066.605-.2 1.008 0 .067.067.235.2.504.668-.672 1.002-1.445 1.002-2.318 0-.537-.133-.974-.4-1.31a5.146 5.146 0 0 0-.852-.857 9.145 9.145 0 0 1-.851-.755 1.372 1.372 0 0 1-.401-1.008c0-.135.017-.218.05-.252s.05-.118.05-.252c0-.336-.134-.705-.4-1.109-.268-.403-.401-.772-.401-1.108 0-.403.167-.705.5-.907.334-.202.718-.403 1.153-.605a7.44 7.44 0 0 0 1.152-.655c.333-.235.5-.621.5-1.159-.267.538-.634.84-1.102.907-.467.068-.768.101-.901.101-.534 0-1.035-.571-1.503-1.713-.467-1.142-.701-2.284-.701-3.426 0-.336.033-.69.1-1.059.067-.37.1-.722.1-1.058 0-1.545-.233-2.603-.701-3.174-.467-.571-1.47-.991-3.005-1.26-.334.806-.668 1.327-1.002 1.562-.334.235-.668.37-1.002.403a6.3 6.3 0 0 0-.902.151c-.267.068-.467.303-.6.706-.134.47-.351.806-.652 1.008-.3.201-.618.37-.951.503-.334.135-.652.252-.952.353-.3.101-.484.286-.551.554a7.6 7.6 0 0 1-1.453 1.915 71.888 71.888 0 0 1-1.703 1.562 24.902 24.902 0 0 0-1.653 1.613c-.534.57-.968 1.26-1.302 2.066-.468.94-.835 1.763-1.102 2.469-.267.705-.801 1.024-1.603.957-.534 0-.901-.084-1.102-.252-.2-.168-.35-.37-.45-.605a4.316 4.316 0 0 1-.251-.907c-.067-.37-.234-.823-.501-1.36a35.848 35.848 0 0 1-.4-1.058c-.134-.37-.201-.689-.201-.958 0-.537.284-.856.851-.957a5.996 5.996 0 0 0 1.653-.554 41.426 41.426 0 0 0 1.403-3.88c.4-1.31 1.269-2.402 2.605-3.275.6-.403 1.202-.89 1.803-1.462.6-.57 1.336-.856 2.204-.856h.5c.335 0 .819-.084 1.453-.252.635-.168 1.085-.32 1.353-.454a20.158 20.158 0 0 0-1.703-.856c-.535-.235-.802-.52-.802-.857 0-.336.367-.604 1.102-.806.735-.202 1.27-.302 1.603-.302.267.067.551.15.852.252.3.1.584.15.851.15s.484-.184.651-.553c.167-.37.317-.773.451-1.21.134-.436.284-.873.45-1.31.168-.437.351-.722.552-.856a55.894 55.894 0 0 1 1.753-.958c.701-.37 1.402-.722 2.104-1.058.7-.336 1.369-.638 2.003-.907C29.336.134 29.853 0 30.254 0c.735 0 1.286.185 1.653.554.367.37.785.555 1.252.555.334 0 .601-.034.802-.101.334 0 .851.185 1.552.554.702.37 1.052.689 1.052.957 0 .336-.1.723-.3 1.16-.2.436-.434.789-.701 1.057a12.55 12.55 0 0 0-1.153 1.915A24.177 24.177 0 0 0 33.41 8.97c-.3.806-.535 1.596-.702 2.368-.167.773-.25 1.394-.25 1.865 0 .739.3 1.108.902 1.108h.5c.602 0 .935.202 1.002.605.067.403.1.873.1 1.41.668-.134 1.069-.201 1.203-.201.6 0 .901.269.901.806 0 .806-.234 1.63-.701 2.47-.468.839-.701 1.36-.701 1.561 0 .336.267.52.801.554.534.034.802.118.802.252a.705.705 0 0 1-.05.303.45.45 0 0 0-.05.201c0 .807.3 1.495.901 2.066.601.571.902 1.193.902 1.865 0 .47-.268.705-.802.705a2.63 2.63 0 0 1-.4-.252.664.664 0 0 0-.401-.151c-.267 0-.601.067-1.002.201.334.874.818 1.445 1.453 1.714.634.268.951.638.951 1.108 0 .202-.3.52-.901.958-.601.436-.902.822-.902 1.158 0 .27.234.605.701 1.008.468.403.702.874.702 1.411 0 .336-.117.689-.351 1.058-.234.37-.35.722-.35 1.058 0 .336.066.723.2 1.16.133.436.2.822.2 1.158-.134.605-.334.907-.601.907-.134 0-.317-.084-.551-.252-.234-.168-.45-.252-.651-.252-.2 0-.3.168-.3.504 0 .336.1.622.3.857.2.235.334.487.4.755 0 .202-.066.404-.2.605l-.4.605h.1c0 .134.016.252.05.353.033.1.05.218.05.352 0 .336-.15.79-.451 1.36a26.8 26.8 0 0 1-.952 1.663c-.334.538-.618.991-.851 1.36-.234.37-.318.555-.25.555a7.23 7.23 0 0 1-1.253.353c-.5.1-.751.32-.751.655 0 .202.033.437.1.705.067.27.1.504.1.706 0 .201-.234.453-.701.756-.468.302-.969.604-1.503.907-.534.302-1.035.621-1.503.957-.467.336-.7.605-.7.806-.201 1.008-.385 1.78-.552 2.318-.167.537-.4.957-.701 1.26-.3.302-.718.52-1.252.655-.535.134-1.303.268-2.304.403 0-.135.016-.252.05-.353.033-.1.05-.218.05-.353-.2.135-.434.521-.701 1.16-.268.638-.568 1.31-.902 2.015a9.32 9.32 0 0 1-1.252 1.965c-.501.605-1.052.907-1.653.907-.2 0-.484.017-.852.05-.367.034-.751.067-1.152.101-.4.034-.751.067-1.052.1l-.45.051c-.206 0-.4-.038-.58-.115zM1.002 72.76c.2.336.417.655.651.957.234.302.45.622.651.957 0 .336-.117.555-.35.655-.234.101-.451.152-.652.152-.4 0-.718-.152-.951-.454C.117 74.725 0 74.406 0 74.07v-.706c0-.134.334-.336 1.002-.604zm39.07 4.535c-.602.47-1.002.705-1.203.705-.133 0-.283-.168-.45-.504l-.351-.705c0-.067.134-.202.4-.403.268-.202.468-.303.602-.303.2.135.367.303.5.504.134.202.301.437.502.706zm-5.21-44.745a13.55 13.55 0 0 0-1.452 1.26c-.434.437-.818.89-1.152 1.36a17.788 17.788 0 0 1 1.602-.806c.468-.201.802-.806 1.002-1.814zM6.312 71.248c-.201-.201-.351-.403-.452-.605-.1-.201-.217-.37-.35-.503-.134.134-.3.251-.501.352-.2.101-.3.185-.3.252.066.202.15.403.25.605.1.201.217.37.35.504.067 0 .184-.067.351-.202.167-.134.384-.269.651-.403zm6.811-12.9a1.578 1.578 0 0 0-.3.404c-.067.134-.2.201-.4.201a.677.677 0 0 1-.502-.201c.334-.336.702-.504 1.102-.504.134-.134.234-.32.3-.554.068-.235.168-.353.301-.353.134 0 .25.017.351.05.1.034.217.05.35.05-.267.538-.45.79-.55.757-.1-.034-.318.016-.652.15zM28.901 3.847l.251.588c-.134.538-.2.974-.2 1.31.133 0 .3-.017.5-.05.201-.034.401-.05.602-.05a2.533 2.533 0 0 0-.601-1.008c-.236-.237-.42-.5-.552-.79zM24.544 52.1c-.4.269-.735.604-1.002 1.008l.5.503c.135-.134.285-.302.452-.503.167-.202.25-.404.25-.605l-.2-.403zm6.812-25.295c0 .067.067.168.2.303-.133-.27-.183-.521-.15-.756s-.117-.521-.45-.857a3.3 3.3 0 0 1-.201.353c-.067.1-.1.218-.1.353 0 .134.083.251.25.352.167.101.317.185.451.252zm-11.32 44.442a.785.785 0 0 0 .2.151.785.785 0 0 1 .2.151c.067.068.1.135.1.202l.702-.705c-.2-.202-.334-.303-.4-.303l-.402.202a1.57 1.57 0 0 0-.4.302zm11.82-35.461c-.237.335-.403.6-.5.794l-.902.404c.134.134.2.235.2.302.335-.135.602-.403.802-.806.121-.244.254-.475.4-.694zm21.74 38.585a1.415 1.415 0 0 1-.003-.006l.003.006zm-28.05 1.31c0 .135-.067.202-.2.202 0-.067-.017-.101-.05-.101-.034 0-.05-.034-.05-.1l.2-.202.1.201zm1.402-70.946h-.601c.067 0 .117.017.15.05.034.034.084.051.15.051.067 0 .117-.017.15-.05.034-.034.084-.05.151-.05zm-11.62 69.031l-.1-.201h.2l-.1.201zM2.403 70.24l-.5.303.5-.403v.1zM28.651 3.023c-.133-.134-.2-.235-.2-.302 0 .134.067.269.2.403v-.1zm-9.216 70.442l-.2.202.2-.202z"/>
</svg>
