<svg xmlns="http://www.w3.org/2000/svg" xmlns:xlink="http://www.w3.org/1999/xlink" width="38" height="60" viewBox="0 0 38 60">
    <defs>
        <path id="a" d="M0 .842h30.449v48.502H0z"/>
        <path id="c" d="M.862.63h1V1h-1z"/>
        <path id="e" d="M.421.1h1V1h-1z"/>
        <path id="g" d="M.621.981h30.03v14.194H.621z"/>
        <path id="i" d="M.766.585h1v1h-1z"/>
    </defs>
    <g fill="none" fill-rule="evenodd">
        <path fill="#EC6B4D" d="M18.95 4.648c.116-.013-.095-.377-.112-.452-.13.162.162.55.112.452M17.697 6.282l-.043-.168-.064.493zM16.148 7.02c.461.569.508-.375.895-.281l.116.125-.124-.578c-.298.245-.564.798-.887.734M14.624 6.059c.178.22-.072.305.235-.021-.032-.018-.046-.031-.067-.045a.523.523 0 0 1-.168.066M14.792 5.993c.157-.102-.214-.153 0 0M14.1 6.529l.104-.335c-.122-.122-.334-.051-.317-.195-.163.239-.039.358.213.53M14.137 7.098l.063-.152c-.052-.05-.093-.056-.063.152M14.335 6.624l-.135.322c.085.086.195.29.072-.128.078.197.031-.007.063-.194M14.52 6.65c.194.072.395.082.292.411.367-.295.08-.714-.291-.412M16.398 7.72l.25.109.034-.281c-.017.139-.393-.024-.284.173M12.563 6.942c.061.14.271.312.382.473l.076-.242c-.133-.045-.337-.041-.458-.231"/>
        <path fill="#EC6B4D" d="M12.945 7.414l-.11.361c.227-.092.205-.222.11-.36M14.47 7.819l.134-.69-.205.736zM11.63 7.457l-.04-.385.025.603zM11.052 7.874c-.05-.309-.398-.336-.384-.553-.14.15-.15.454-.157.725.067-.192.23-.262.541-.172M10.476 8.458c.03-.101.031-.251.035-.412a.935.935 0 0 0-.035.412M12.392 7.939c-.064-.068-.22-.255-.405-.263l.31.313.095-.05M12.306 7.999l-.01-.01c-.107.05-.18.085-.214.099l.224-.09M12.416 7.927l-.024.011c.03.032.043.04.024-.011M13.668 7.81c-.025.286-.184.67.267.834-.043-.31-.302-.404-.267-.835M12.799 8.323l.298-.055c-.06-.096-.187-.213-.176-.355l-.122.41zM12.745 8.51l.054-.186-.111.02zM11.12 8.52c-.008.226-.117.314-.233.424.188-.02.358-.076.496-.165-.052-.127-.116-.37-.262-.26M11.716 8.294l-.012.035c.034.022.052.025.012-.035M9.594 9.813l.065.049-.037-.064-.028.015zM11.448 8.831c.15.001.16-.122.151-.273a.888.888 0 0 1-.216.221c.023.057.042.092.065.052M10.217 8.862c.105.038.21.061.315.076-.128-.078-.357-.182-.315-.076M11.607 8.25l.006-.026c-.083-.057-.055-.02-.006.026"/>
        <path fill="#EC6B4D" d="M11.607 8.25c-.024.086-.013.202-.007.308a.648.648 0 0 0 .105-.229.707.707 0 0 1-.098-.079M10.832 12.3c-.223-.334-.177-.813.29-.62.045-.394-.834-1.369-1.463-1.818.093.145.184.277.085.631.212.116.813.05.823.48-.185.378-.331.058-.603-.004.411.306.05.865.552 1.394l.098-.396c.071.088.088.302.218.332M10.14 9.576l.073-.11c-.153.022-.322-.053-.651-.201-.056.275-.005.418.06.534l.52-.295-.001.072zM10.66 9.167c.158.412.023.716.426 1.01.27-.208.003-.43.075-.697-.412.392.006-.29-.47-.274a.755.755 0 0 1 .196-.261 1.56 1.56 0 0 1-.354-.006l.025.015v-.002l.005.006c.05.032.075.054.034.043.002.006-.005.014-.005.014.029.052.049.102.068.15-.187.015-.084-.08-.068-.15l-.03-.057-.004-.004-.345.513c.132-.022.25-.116.448-.3M14.135 9.595c-.033-.025-.047-.052-.064-.08-.004.064.002.102.064.08M13.815 9.475c.004-.07-.052-.237.081-.26.16.058.1.18.174.301.011-.137.083-.4-.229-.467l-.004.07c-.26-.024-.774-.353-.77-.422.248.305.435.517.748.778M12.3 9.387l-.278.417.392.196-.127-.185c.266-.057.075-.264.013-.428M9.424 9.67l-.21-.407.145.682zM8.95 10.085l-.219-.332.01.293zM7.323 40.496l.15.043a.348.348 0 0 0-.15-.043M6.96 39.757l-.183.072c.114-.016.191-.039.183-.072M.999 23.452c-.395.14-.998.28-.552.321l.437.004c-.055-.15.008-.25.115-.325M2.973 33.474l.13-.061a49.84 49.84 0 0 1-.419-.111l.29.172M4.771 33.523l-.266.247a.969.969 0 0 0 .266-.247M10.424 43.827l.415-.21c-.148-.145-.246.073-.415.21M4.374 14.813c-.246.05-.393.133-.487.228.338-.044.743.035.487-.228M3.147 42.447c.112.04.207.03.29-.02-.108-.043-.205-.048-.29.02M3.576 15.492c.054-.005.09-.02.138-.029.015-.155.051-.3.173-.422-.248.032-.468.122-.31.451M25.002 52.791c.006.024.018.037.022.063.022-.056.006-.063-.022-.063M29.063 58.418c-.06.015-.147-.004-.232-.017.034.038.103.05.232.017M6.845 11.572c.082-.115-.017-.05 0 0M8.465 12.428a.431.431 0 0 0 .1.192.555.555 0 0 1-.1-.192M5.21 18.013l-.006.009c.09.008.074.006.006-.01M7.128 11.577a.59.59 0 0 0-.214.024c.043.006.11 0 .214-.024M6.971 11.444l.116-.051c-.035-.066-.077-.09-.116.05M6.72 11.72a.448.448 0 0 1 .194-.118c-.04-.003-.064-.014-.068-.03a10.63 10.63 0 0 0-.125.149M15.807 49.973v.049c.192-.092.134-.095 0-.049M5.072 27.178c-.004-.006-.015-.01-.02-.015l-.016.016.036-.001zM5.358 27.624c-.524-.223-.45-.322-.323-.446l-1.26.028 1.583.418z"/>
        <g transform="translate(0 9.415)">
            <mask id="b" fill="#fff">
                <use xlink:href="#a"/>
            </mask>
            <path fill="#EC6B4D" d="M15.339 44.015l-.013-.151c.233-.031.126.054.013.15M6.509 3.303c-.014-.081-.064-.126-.125-.16.064.11-.001.19-.107.253.113.064.216.083.233-.093m-.467.188l.01.024c-.29.033-.182.026-.01-.024M3.878 23.364c.16.06.086.16-.093.279-.042-.081-.028-.174.093-.28m2.366 5.965c.123.034.464.049.225.217-.538.142-.323-.033-.225-.217m2.27 3.346l.167-.451c.698-.11.637.199.947-.325-1.116.77-.664-.74-1.816-.021l.139-.302c.018.049.09.012.106.06.364-.632-.987.322-1.058-.178.015-.195.135-.388.324-.376l-.455-.142c-.025-.103.194-.194.218-.093l-.346-.417.037-.015a4.172 4.172 0 0 1-.77.009c.109-.208.163-.001.298-.108l-.441-.124c.26-.258.687-.185.738.014 1.098-.831-.451-.063.064-.936l.255.178c.64-.473.314-.546.653-.99-.213.143-.901 1.012-1.324.86.06-.123.064-.247-.254-.305.448-.18.278-.286.175-.468l.605-.207c-.253-.134-.555-.011-.877-.04-.03-.253.449-.458.828-.634 0-.395-.691.495-.923.086.15-.386-.158-.525-.64-.83.154-.274.394-.046.55-.167l-.554-.09c-.001-.051.157-.067.236-.075-.222-.132-.628.117-.84-.133-.706.033.937-.738.096-.96.168-.105.395-.005.637-.061-.581-.404-.455-.336-1.18-.698l.397-.38c-.461.287-1.057-.006-1.533-.296-.228.107-.43.2-.521.262l-.362-.483c.103-.064.325-.021.594.05-.055-.03-.108-.06-.156-.085.23-.185.603-.103.963.007l-.388.189c.393.104.826.193 1.199.15a.351.351 0 0 1-.177-.145.599.599 0 0 0 .264.024c.067-.02-.076-.061-.242-.132l.709-.133-.284-.015L5 23.13c-.721-.421-1.787-.811-2.067-1.545.52.188.854.05 1.473.072-.656.184.265.55.14.909.066-.19.362-.148.466-.1l-.592-.65c.506.02.382-.132.594-.297-1.006.11-.66-.498-.953-.775.336-.005.677.07.585.39.766-.33-1.16-.5-.507-.832.006.08-.048.12.122.159-.295-.198-.034-.643.254-.52l.002.079c.14-.52.104-1.591-.732-1.741.11.004 1.016.15 1.186.195l-1.39-.587-1.38-.612c.72.15 2.483.003 2.85.473.117-.114.252-.253.022-.54-.112.074-1.072.107-1.127-.017.842-.237.454-.181 1.185-.494-.171.108-1.292-.16-1.231-.36.167.05 1.125.116 1.235.202l-1.054-.636c.185.152.943.142 1.272.074-.225.022.07-.423-.015-.566l-.29.17c.252-.525-1.481-.781-1.335-1.347.22.11 1.382.398 1.57.146-.544-.215-2.626-1.054-2.955-1.68l.344-.034-.278-.481c.78.452 2.436 1.479 3.078 1.944.294-.157.393.013.419-.294.322-.047.43.25.432.34l.326-.647c-.666-.104-.545-.66-1.097-.758l.52.897c-.671-.094-1.778-.821-1.546-1.321.29-.068 1.145.369 1.366.407-.215-.117-.324-.57-.15-.572l.296.289c.314-.195-.746-.66-.041-.813.068-.106.923-.073.548-.204-.787-.062-3.082-.67-3.59-.977.067-.036.916-.448 1.315-.451.628.013 1.263.754 1.803.76a1.228 1.228 0 0 1-.41-.305c.187-.06.518.232.53-.025-.622-.278.244-.454-.494-.315-.087-.307.229-.2.31-.48-.45-.086-1.246-.857-1.277-1.23.146.097.374.145.478.168.328-.47.763-.556 1.04-.99.166.054.473-.03.653.22-.057-.125-.207-.312-.128-.45.652.104-.127.333.583.56-.313-.243-.214-.637-.28-.97-.524-.318-.402.357-.326.674-.692-.474-1.185-1.328-1.118-2.048.14-.497.554.186.514.047.658-.566-.626-1.555.344-1.692.59.159.78.733 1.104.953-.1.405-.638.173-.792.378l.398-.056c.048.203-.01.47-.208.473.502.14 1.015-.987 1.8-1.085-.042-.208-.024-.481-.238-.577l-.098.195c-.436-.185-.121-.708-.451-.676-.005-.422-.068-.997.405-1.072l.452.42c-.121-.132-.436-.11-.401.105-.043-.32.997.246.627-.492l-.485-.147c.02-.428-.09-1.162.323-1.233-.503-.378-.023.105-.67-.293.723.543-.774.57.1 1.06-.731-.46-.58.032-1.316-.264.142.145.352.207.045.34.028.054.053.134.066.18l-.025.005.028.005c.01.032.014.038.01.002a.68.68 0 0 1 .325.123c.189.449-.175.777-.132 1.063-.198.055-.103-.221-.325-.31l.068.43c-.328-.308-.886-.19-.745-.683l-.154.132-.148.14c-.345-.003-.652.176-.654.453-.21.075.04.692-.112.33l-.202.677-.09-.068c-.472.455-.197 1.46-1.284 1.592-.021.248-.02.508-.317.749l-.371-.14c-.028.275-.784.597-.485.915-1.131-.124-.825 1.296-1.137 1.685l.476.18c-.126.309-.108.669-.008 1.107l.437.098c.273.419-.544.759-.605 1.29-.16-.072-.086-.194.035-.263-1.136.41.439 1.45-.378 1.86.136.166.06.257-.065.335 0-.013-.006-.026-.02-.038a.165.165 0 0 0-.012.056c-.086.049-.184.097-.265.155a.935.935 0 0 0 .26-.124.964.964 0 0 0 .11.455l-.485-.006c.005.014.002.024.008.039-.2.13.207.159.577.13.067.092.15.178.256.25-.79.017.196.448-.644.507.387.16.203.833 1.037 1.012-.11-.008-.168.032-.165-.052-.12.16-.23.325-.008.505l-.616.01.78.46c-.393.193-.62.272-1.065-.003.665.622.232.478.909 1.005l-.393-.054c.002.17.51.475.176.553-.78.33-.215 1.846-.924 2.805 1.168-.171-.528.448.375.497-.277.055-.434.19-.672.03.265.502-.433.767.329 1.105-.276.062-.405-.102-.568-.048.06.04.24.157.077.214-.163.055-.232-.07-.353-.15.056.528.913.556 1.709.566-.368.27-.311.402.219.562-.255.1-.52.27-.631-.048-.026.179-.321 1.14.34 1.11-.153.073-.011.264.069.304.02.416-.031.462.087.859l.087-.128c.785.038.217.302.356.61l-.08.006c-.398.85.329.249-.107 1.116l.454-.158c1.014-.202-.42.78.076 1.097l.22-.23c.38.108-1.136 1.062-1.153 1.35-.064.082-.167-.03-.258-.08-.327.826.622-.133.935.257-.283.207-.847.204-.782.536-.174.268 1.34.462.966 1.108.19-.201.382-.393.66-.288.233.239-.448 1.258.419 1.132a.416.416 0 0 1-.15.153c.302.126.7.553 1.175.429-1.258 1.098 1.526.82.269 1.687l.254.296.278.274-.136.08c.237.448.635.354 1.025.25-.008.154-.17.182-.238.226.229.74.31.798 1.286.698l-.32.38c.315-.09.17 1.282 1.076 1.374a.426.426 0 0 1-.208.106c.942.115.535 2.297 1.912 1.115l.669-.012c-.407-.535.565-.547.55-.954.247.086.174.824-.135.715l.017-.1c-.678.669.444.742.042 1.24.542.363.977.86 1.436 1.316.463.446.918.9 1.429 1.247l.26-.701.335.26c.007.207-.164.574-.407.385-.077.446.61-.03.699-.17.37.54-.631.628-.482.73l.247.072-.007-.101c.327-.162.498-.43.798-.225.13.237-.115.45-.05.519-.025.045-.01.08.113.085l.444.312.085-.611c.34-.14.423.264.516-.43-.168 1.09 1.59 1.212 1.655 1.576.477-.242.763-.101 1.105.114-.042-.152.169-.77.444-.554-.652 1.186.343.78.237 1.768.01-.683.979.219.95-.77.227.207-.17.473-.081.847.825-.226 1.296.882 2.177.972.068-.162.02-.462.278-.652l.146.975c.189-.028.463-.916.565-.238.004-.155.012-.387.136-.406.65.688 1.53.73 2.368.877.84.154 1.648.379 2.302 1.33-.15-.381.008-.381.18-.356-.092-.104.099-.424.129-.661l.546.797c.26-.62.748.117.944-.487l-.24.064c.432-.67-.068-1.713.173-2.641-.491.76-.541-1.405-1.31-.33-.067-.214.164-.28.155-.508-.22.372-.395.42-.638.18l.056-.092c-.82-.1-1.057-.6-1.863-1.095l-.063.474c-.173-.113-.172-.267-.228-.405-.417.63.522.185.108.893.01-.991-1.35-.386-1.185-1.505-.283-.1-.081.55-.366.449l.015-.307-.19.339c-.17-.122-.148-.506-.076-.746.036.043.15-.025.205-.03-.131-.411-.716-.111-.763-.247l.214.263c-.88.022-1.67-.698-2.622-.44l-.027.23c-.723.159-.361-.406-1.056-.475l.044-.04c-.214.16-.42.182-.576.082.257-.168-.081-.6.235-.77-.773.128-.432.182-1.177.752l.065-.38c-.278.24-.365.396-.715.339.389-.17.05-.6.512-.85-.273-1.012-1.308.29-1.044-.924-.755.757.269.796.01.905-.015.373-.582.556-.733.356-.192-.13.274-1.345-.22-1.591.047.03.088-.036.134-.006-.054-.327-.531.115-.546-.376-.435.469-.272-.188-.707.475l.545.088c-.356.043-1.076.715-1.256.058.115-.116.345-.218.488-.267.002-.275-.31-.012-.308-.295.45-.66.607.199 1.192-.19.034-.351-.795.207-.227-.454-.746.818-.38-.404-1.133.105l.273-.39c-.09.033-.312.157-.398.089l.495-.416c-.536.283-.236-.691-.63-.602.512.305-.202.549-.175.975-.983.118.304-1.244-.471-1.538.126.01.17.48-.094.558-.071-.174-.132-.445-.062-.703-.492-.24-.22.445-.576.544.19-.578-.354.03-.664.034l.289-.387c-.317-.617-.745.7-.98.064l.606-.385-.343-.038.388-.395c-.504.13-.505-.031-.643-.346-.163.308-.59.647-.814.474.04-.343.378-.28.035-.484.266-.17.583-.397.423.052.115-.108.26-.174.374-.282.063-.381-.328-.381-.437-.47.029.049.06.11.04.183l-.872.133c.054-.192.206-.253.354-.314-.121-.035-.331.077-.487-.002.299-.26.568-.562.868-.55l-.346-.008-.335-.026c.092-.15.138-.528.286-.584-.032-.362-1.028.04-1.082-.447a.356.356 0 0 1-.25.04c-.206-.313-.02-.878-.7-.851l.39-.632c-.332-.151-.475.814-1.036.552-.431-.168.375-.486.442-.712-.403.08-1.202.236-.928-.405.173.02.14.159.244.219" mask="url(#b)"/>
        </g>
        <path fill="#EC6B4D" d="M4.563 33.516c-.082.028-.17.04-.26.05a.25.25 0 0 0 .26-.05M10.348 43.865l.005.013a.72.72 0 0 0 .072-.05l-.077.037zM6.354 20.143a.54.54 0 0 1-.28.057c.111.042.216.042.28-.057M7.779 10.479l-.148.288c.095-.111.2-.063.305-.05-.076-.083-.223-.173-.157-.239M11.5 11.432c0-.071.063-.052.062-.124l-.134-.18c-.129.108-.12.322.072.304M8.99 11.558c.271.304.321.092.43-.085-.01.008-.016.018-.029.02-.3-.483-.354-.207-.4.065M9.446 11.435a.29.29 0 0 1 .136-.117c-.12-.195-.087.007-.136.117M6.743 12.124c.143.009-.31-.42-.157-.338-.277-.448-.048.904.157.338M9.942 12.513l-.363-.353.167.38zM8.577 13.175l.317-.093a.185.185 0 0 1-.05-.18c-.154.104-.373.165-.267.273M8.844 12.902c.08-.055.143-.122.131-.219a.485.485 0 0 0-.13.219M9.722 12.882l-.133-.025-.182.106zM6.275 15.463l-.09.348c.117.131.25.121.271-.015-.045-.133-.019-.269-.18-.333M7.941 15.607c-.132-.006-.218-.075-.373-.148l.461.417-.088-.269zM7.484 16.382c.113.133.112.637.32.326-.114-.128-.032-.45-.32-.326M4.597 20.043l.018-.079-.973-.304zM6.083 24.549c.295-.315-.608-.182-.258-.455-.225-.124-.285.224-.478.105.218.257.059.347.736.35M5.347 24.198a1.082 1.082 0 0 0-.136-.136.488.488 0 0 0 .136.136"/>
        <g transform="translate(29 58.415)">
            <mask id="d" fill="#fff">
                <use xlink:href="#c"/>
            </mask>
            <path fill="#EC6B4D" d="M.862.737L1.07 1 .977.63z" mask="url(#d)"/>
        </g>
        <g transform="translate(30 58.415)">
            <mask id="f" fill="#fff">
                <use xlink:href="#e"/>
            </mask>
            <path fill="#EC6B4D" d="M.487.1L.421.75.682.205C.622.222.502.253.487.1" mask="url(#f)"/>
        </g>
        <path fill="#EC6B4D" d="M7.245 37.725l-.152.04c-.146.09-.14.138-.13.235l.282-.275zM7.994 40.408l-.011-.05-.457.383zM9.975 41.9c-.042-.09-.217-.095-.26-.184.217.094-.296.66.26.184M13.967 18.72c-.05.036.356.14.425.168-.063-.1-.53-.199-.425-.168M13.367 17.593l.152.08-.336-.288zM13.736 16.824c-.68-.258-.034.334-.33.355l-.158-.045.492.302c-.004-.195-.247-.588-.004-.612M15.29 17.206c-.251-.12-.166-.195-.12.036l.07.02c.004-.015.015-.034.05-.056M15.24 17.262c-.02.077.226.073 0 0M15.29 16.872l.157.218c.15.068.229.013.313.104-.063-.157-.208-.23-.47-.322M14.905 16.506l.06.105c.062.028.09.029-.06-.105M15.088 16.829l-.124-.218c-.105-.05-.303-.17.038.089-.173-.121-.015.008.086.129M14.96 16.828c-.166-.031-.294-.01-.445-.233-.027.236.421.456.444.233M13.105 16.44l-.232-.014.176.184c-.09-.093.258-.07.056-.17M15.956 16.548c-.119-.095-.347-.21-.509-.317l.096.166c.108.027.23.022.413.15M15.447 16.23l-.141-.252c-.088.07 0 .16.14.253M14.251 16.058l.35.471-.334-.51zM16.236 16.215l.236.27-.344-.423zM16.373 15.95c.19.224.418.27.522.424.01-.09-.137-.303-.265-.498.052.132-.016.161-.257.074"/>
        <path fill="#EC6B4D" d="M16.454 15.58c.03.072.101.181.176.297a1.414 1.414 0 0 0-.176-.297M15.495 15.857c.078.049.28.18.401.192l-.366-.226-.035.034zM15.518 15.815l.012.007.084-.067-.096.06M15.486 15.865l.009-.008c-.036-.022-.05-.029-.01.008M14.762 15.991c-.154-.196-.265-.482-.655-.56.206.213.427.261.655.56M15.023 15.588l-.162.05c.093.065.238.144.312.245l-.15-.295z"/>
        <path fill="#EC6B4D" d="M14.958 15.453l.065.136.061-.018zM16.01 15.48c-.104-.163-.073-.222-.049-.295-.113 0-.199.032-.248.089.094.096.256.277.297.207M15.738 15.615l-.011-.025c-.033-.017-.046-.02.01.025M16.448 14.674l-.063-.047.05.054.013-.007zM15.644 15.232c-.101-.01-.045.085.035.194a.217.217 0 0 1 .034-.152c-.043-.043-.072-.07-.069-.042M16.434 15.307a1.487 1.487 0 0 0-.24-.089c.12.07.315.172.24.09M15.83 15.65l.01.019c.08.044.045.017-.01-.02M15.83 15.65c-.03-.062-.095-.146-.15-.224a.386.386 0 0 0 .046.163l.103.06M14.705 12.547c.264.297.39.677-.018.488.103.32 1.108 1.155 1.698 1.592-.119-.125-.233-.237-.295-.501-.187-.125-.583-.136-.75-.476-.003-.285.216-.014.43.072-.405-.297-.315-.693-.84-1.194l.04.313c-.08-.08-.156-.256-.265-.294M16.18 14.783l-.004.074c.093.003.24.08.514.24a1.237 1.237 0 0 0-.256-.416l-.225.157-.03-.055z"/>
        <path fill="#EC6B4D" d="M16.006 15.035c-.289-.32-.324-.549-.725-.805-.1.146.181.333.253.534.097-.274.127.218.434.24a.297.297 0 0 1-.007.18c.07 0 .146.01.232.034l-.024-.015.001.003-.005-.005c-.047-.029-.074-.047-.043-.035-.003-.005-.002-.01-.002-.01a7.62 7.62 0 0 0-.112-.118c.118.006.09.067.112.117l.045.046.004.002.007-.346c-.08-.002-.12.058-.17.178M13.443 14.763c.037.015.061.033.087.05-.03-.046-.056-.074-.087-.05M13.726 14.815c.036.054.164.17.088.2-.14-.025-.167-.121-.283-.201.067.103.165.3.41.317l-.035-.051c.187-.013.704.197.74.25a7.05 7.05 0 0 0-.92-.515M14.804 14.8l-.006-.314-.365-.15.175.14c-.158.048.074.202.196.325M16.617 14.81l.3.342-.362-.542zM16.78 14.579l.266.295-.112-.224zM19.237 6.726l-.299.047.3-.047M19.371 6.795l.507-.085-.507.085M27.668 9.6c1.05.087 2.714.224 1.636.063l-1.091-.145c.011.074-.23.09-.545.082M27.177 7.003l-.435.023 1.278-.031-.843.008M21.697 7.202l.948-.055-.948.055M17.348 6.747l-.757.297c.024.002.391-.15.757-.297M19.074 12.635c.225.06.38.054.49.014-.321-.1-.651-.342-.49-.014M29.896 4.763a4.403 4.403 0 0 0-.637.079 3.85 3.85 0 0 0 .637-.079M19.979 12.43c-.055-.02-.095-.025-.145-.04-.055.11-.125.213-.27.258.238.083.476.09.415-.219M11.164 5.435c-.005-.02-.014-.03-.018-.054-.009.058.001.062.018.054M8.403.802c.034-.024.086-.022.135-.024-.022-.032-.062-.03-.135.024M17.755 13.983c-.029.06.022.043 0 0M18.763 10.004l.007-.002c-.089-.048-.072-.039-.007.002M17.561 13.886a.454.454 0 0 0 .142.052.527.527 0 0 0-.142-.052M17.7 14.038h-.067c.04.06.074.092.067 0"/>
        <path fill="#EC6B4D" d="M17.805 13.913c-.022.027-.06.03-.103.025a.148.148 0 0 1 .053.045.443.443 0 0 1 .05-.07M16.655 5.037l.007-.041c-.118.163-.087.139-.007.04M19.548 7.712l.041.004h.037l-.078-.004z"/>
        <path fill="#EC6B4D" d="M18.956 7.634c1.138.083.95.088.67.083l2.73.163-3.4-.246z"/>
        <g transform="translate(7 -.585)">
            <mask id="h" fill="#fff">
                <use xlink:href="#g"/>
            </mask>
            <path fill="#EC6B4D" d="M9.85 2.359l.041.135c-.18.11-.113-.005-.04-.135m.901 11.451a.47.47 0 0 0 .113.168c-.062-.107-.029-.141.034-.146-.086-.093-.16-.146-.147-.022m.293.044l-.01-.022c.19.093.12.054.01.022m6.001-6.086c-.447.008-.175-.009.426-.041.084.006-.014.019-.426.041m-3.787-.384c-.305.032-1.196.145-.43.028 1.532-.213.838-.099.43-.028m-1.772-.134l-.778.234c-1.424.348-.938.227-2.085.542 1.422-.391 1.532-.401 1.641-.411.108-.01.215-.021 1.773-.374l-.617.16c.02-.01-.165.031-.144.021-1.45.351 2.333-.491 2.036-.349a9.045 9.045 0 0 1-1.076.238l.923-.133c-.035.021-.635.128-.596.109l.418-.009-.104.018 1.886-.266c-.464.097-.405.054-.836.131l.978-.109c-.904.157-1.894.276-1.812.24-3.523.592.988-.121-1.006.244l-.525.052c-2.07.317-1.285.213-2.622.396.742-.082 3.297-.484 4.296-.596-.258.048-.374.072.45-.013-1.369.177-.997.144-.866.15l-1.858.221 2.405-.249c-.117.041-1.594.201-2.848.333-.247.049 2.344-.264 2.81-.27-.664.1.171.033 1.528-.021-.638.077-1.269.094-1.833.147l1.705-.106-.799.061c.696-.03 2.082-.15 2.761-.155 1.178-.073.396.006-.364.076l-.945.084c-.164.015-.053.015.578-.013l-2.114.113 3.257-.106-1.46.092a99.306 99.306 0 0 1 4.533-.144l1.887-.103.997.032c-.384.023-1.15.041-2.042.063l.495-.006-1.537.066-1.528.037 1.293-.066-3.583.117.473-.005-.797.027c-.214.01.206-.003.675-.013l-2.21.087.853-.028-1.515.089c1.754-.028 4.147-.043 4.961.026.117.01.203.021.252.034-1.325-.013-2.304.015-3.978.027.531-.009.715-.026.715-.026.007-.021-1.162-.023-.815-.049-.258.02-1.077.032-1.359.035l1.377.023.093.003c-1.385.014-1.084.022-1.695.038 2.746-.03 1.63.035 2.325.066-.873-.003-1.74-.013-1.43-.04-2.055.02 2.888.057 1.095.087.01-.009.158-.012-.265-.02.685.029-.09.073-.764.045l.01-.008c-.467.043-.514.145 1.311.264l-2.63-.15s1.538.099 2.967.234l3.635.361-4.153-.304c-1.215-.09-2.32-.181-2.7-.23-.26-.004-.543-.014-.086.053.23.013 2.253.154 2.341.18l-2.497-.133c.35.017 2.57.256 2.391.284l-2.405-.266 1.001.146.961.16c-.324-.065-1.787-.219-2.402-.285.421.048-.152.035.015.076l.528.046c-.454.009 2.572.498 2.15.602-.337-.09-2.299-.465-2.613-.479a46.81 46.81 0 0 1 2.471.611l.843.241c.284.085.544.169.77.247.448.157.752.295.838.384l-.688-.13a3.35 3.35 0 0 1 .317.293l-1.183-.461-1.434-.511c-.84-.296-1.73-.552-2.242-.688-.468-.067-.626-.127-.653-.088-.49-.102-.684-.179-.7-.189l-.407-.031c.996.252.862.307 1.635.54.023-.01-.773-.365-.796-.355 1.046.231 2.667.775 2.22.844-.414-.091-1.58-.527-1.9-.615.304.102.445.254.217.186l-.409-.186c-.379-.092.997.468.1.21-.097-.001-1.102-.398-.644-.193l2.3.958 1.353.585c.413.184.736.338.898.432-.126-.011-1.443-.237-1.926-.437-.766-.32-1.396-.872-2.038-1.125.195.101.4.246.457.296-.208-.067-.579-.329-.576-.241.676.403-.247.06.536.358.087.168-.246-.03-.33.044.455.247 1.24 1.011 1.234 1.251-.14-.124-.375-.265-.474-.326-.347.113-.71-.028-.948.101-.13-.114-.356-.214-.493-.472.047.111.16.314.102.37-.455-.411.08-.159-.424-.679.223.328.197.521.184.821.374.488.323-.063.253-.311.257.337.477.708.6 1.075.114.37.135.733.127.968-.089.304-.386-.399-.356-.277-.469.145.51 1.428-.132 1.144-.434-.348-.635-.861-.889-1.156.048-.291.456.092.556-.001l-.287-.113c-.049-.183-.009-.374.142-.288-.389-.326-.72.389-1.289.274.058.184.085.402.262.537l.045-.133c.35.276.204.606.442.674.072.336.248.799-.06.746l-.428-.442c.121.134.338.188.264.008.112.26-.786-.416-.333.253l.39.225c.09.333.392.922.142.897.466.394-.019-.081.546.365-.667-.587.345-.251-.39-.838.633.541.388.116.961.559-.132-.153-.29-.263-.117-.273-.033-.05-.068-.118-.089-.158l.017.006-.02-.014c-.015-.027-.019-.032-.008-.004a1.23 1.23 0 0 1-.25-.194c-.239-.404-.044-.541-.128-.782.128.02.113.206.283.347l-.124-.358c.285.349.634.46.632.788l.155-.089c.235.141.402.138.366-.066.123.034-.108-.528.031-.197l.077-.389.065.092c.136-.062.136-.275.25-.455.18-.226.402-.35.945-.175.09-.175.146-.362.506-.408l.351.257c.108-.198 1.036-.04.78-.365.592.301.97.2 1.278.041.31-.164.481-.401.84-.427l-.587-.313c.354-.089.49-.278.576-.519l-.643-.244c-.249-.303 1.254-.08 1.74-.273.252.097.037.117-.226.093 1.138.161 1.274-.045 1.2-.245-.05-.205-.28-.402.794-.327-.189-.113.03-.118.385-.101-.012.004-.007.011.013.02a.321.321 0 0 0 .075-.015l.751.036a13.937 13.937 0 0 0-.72-.047c.1-.036.158-.109.07-.201l1.195.165c0-.006.015-.009.012-.017.612.016-.396-.125-1.337-.238a2.308 2.308 0 0 0-.478-.168c2.032.244-.25-.206 2.03.028-.922-.169.087-.338-2.24-.599.315.03.504.034.45.057.421-.015.873-.037.31-.139l1.872.138-1.04-.153-1.085-.144c1.327.034 2.143.045 3.353.217-.82-.161-.949-.2-1.063-.242-.123-.039-.235-.079-1.232-.195l1.3.073c.122-.049-1.469-.19-.257-.165 1.471.007 2.04-.116 2.633-.251.613-.141 1.21-.282 3.183-.424-3.262.053-1.249-.012-.37-.068.362-.028.362-.05-.984-.034 1.152-.028 1.743-.071 2.794-.047-1.246-.102 1.386-.228-1.585-.222l2.154-.046c-.242-.003-.948-.009-.353-.038.59-.029.882-.009 1.371-.003-.43-.113-3.457-.022-6.278.068 1.366-.093 1.146-.108-.569-.069.904-.048 1.805-.111 2.106-.07.171-.033 1.213-.242-.716-.144.502-.033.178-.045-.029-.041l.228-.072c.031-.019.134-.028-.134-.071l-.214.041c-2.233.094-.683-.038-1.148-.09l.22-.012c.993-.266-.897-.008.276-.298l-1.212.115c-1.357.106-1.05.045-.589-.05.466-.095 1.071-.227.445-.219l-.582.1c-.992.056 3.025-.501 3.124-.604.175-.038.407-.022.624-.022.968-.328-1.572.158-2.248.097.733-.122 2.117-.23 2.018-.327.481-.136-3.205.136-2.042-.174-.505.114-1.024.222-1.602.248-.399-.025 1.491-.562-.455-.308.12-.037.251-.068.385-.094-.62.03-1.295-.032-2.275.136 1.576-.379.887-.38.234-.349-.659.029-1.292.086.115-.29l-.685-.119.291-.077c-.177-.157-.938.002-1.67.173.101-.079.396-.142.54-.184.027-.312-.183-.311-1.764.039l.73-.313c-.278.071-.153-.094-.158-.259 0-.163-.14-.329-.794-.204.082-.036.224-.099.362-.134-.693.119-.56-.212-.667-.434-.094-.22-.369-.329-1.49.329l-.855.254c.29.211-.908.591-1.059.862-.245.055.178-.513.47-.541l-.064.077c1.066-.716-.199-.391.425-.902-.993-.166-1.614-.84-2.672-1.074l-.217.702-.3-.099c-.014-.176.103-.563.344-.486.03-.417-.555.247-.604.4-.37-.372.48-.777.35-.82l-.235.011.02.091c-.269.252-.372.557-.645.473-.145-.174.011-.456-.058-.496.012-.051-.009-.079-.113-.04l-.218-.068-.145-.056.026.59c-.18.259-.277-.076-.245.592-.039-1.033-1.059-.536-1.136-.861-.249.389-.43.355-.65.271.04.127-.019.775-.202.667.257-1.318-.278-.623-.31-1.6.06.653-.583.083-.476 1.012-.15-.129.055-.498-.03-.828-.456.461-.827-.44-1.337-.323-.027.174.024.45-.109.698l-.16-.903c-.107.075-.197.997-.308.374.01.149.023.375-.048.424-.874-.951-1.995.513-2.845-1.16.108.348.018.376-.084.382.06.086-.032.434-.036.672l-.36-.687c-.118.655-.44.016-.52.645l.134-.105c-.214.734.136 1.671.048 2.625.243-.834.401 1.286.788.094.053.199-.079.304-.06.528.107-.405.206-.481.363-.284l-.026.1c.488-.06.663.357 1.174.674l.003-.475c.111.074.121.225.164.348.2-.702-.32-.072-.128-.849.065.975.82.095.813 1.195.176.023.004-.55.181-.527l.016.3.085-.376c.111.074.13.451.107.701-.025-.033-.088.06-.12.078.112.365.435-.07.475.049l-.15-.2c.515-.22 1.056.23 1.598-.302L6.08 5.34c.413-.362.255.282.673.143l-.022.051c.11-.21.23-.308.334-.266-.135.245.115.531-.055.799.448-.382.238-.317.616-1.101l.005.376c.136-.319.17-.493.383-.559-.21.291.04.577-.204.967.285.86.737-.715.738.487.352-.982-.264-.621-.124-.821-.037-.346.277-.732.391-.608.064.022.068.355.096.687.045.335.066.66.138.662-.016-.008-.034.068-.049.061-.006.265.215-.324.171.1.242-.588.08.051.38-.701l-.254.141c.143-.186.632-1.04.686-.573-.09.147-.243.333-.328.437-.045.229.175-.126.124.109-.375.739-.306.12-.609.68-.086.325.375-.516.002.29.516-1.018.054.15.574-.604l-.26.436c.053-.066.212-.266.24-.248l-.396.554c.376-.466-.16.438.058.188-.12-.008.351-.519.503-.844.682-.521-.709 1.136-.428.957-.066.056.15-.264.356-.449-.037.093-.142.26-.34.477.183-.065.406-.422.708-.662-.466.503.278-.187.55-.324l-.465.405c-.142.291 1.057-.825.878-.473l-.783.531.265-.123-.608.443c.511-.316.442-.221.327-.084.385-.273 1.05-.691 1.18-.679-.293.237-.606.35-.396.323-.42.225-.908.517-.4.161l-.586.353c-.366.267-.003.079.037.082a.519.519 0 0 1 .117-.092l.505-.241.536-.233c-.223.141-.45.244-.66.348.097-.033.428-.194.537-.213-.572.287-1.153.585-1.442.715l.347-.152.366-.148c-.24.127-.653.349-.882.451-.349.165 1.295-.513.887-.282.132-.051.263-.098.376-.132-.056.084-.908.4.177.08l-1.306.446c.367-.084 1.634-.565 2.286-.694.558-.106-1.156.371-1.522.494.723-.209 2.352-.591 1.225-.244-.313.067-.11.003-.246.026" mask="url(#h)"/>
        </g>
        <path fill="#EC6B4D" d="M22.334 7.178c.26-.01.54-.023.825-.035l-.825.035M17.49 6.693l.007-.004-.149.058zM17.607 8.505c.095.028.202.07.309.117-.125-.066-.243-.116-.31-.117M17.429 14.54l.013-.178c-.031.058-.116-.007-.19-.044.076.083.2.19.177.222M14.494 13.217c.027.057-.028.04 0 .096l.167.15c.054-.077-.03-.252-.167-.246M16.275 13.42c-.277-.297-.256-.135-.28-.012.005-.005.007-.012.014-.012.362.438.31.231.266.023M15.989 13.434c-.01.035-.025.065-.06.071.147.175.059.01.06-.07M17.704 13.598c-.1-.055.297.426.177.31.276.439-.156-.672-.177-.31M15.32 12.478l.363.348-.224-.341zM16.2 12.212h-.22a.254.254 0 0 1 .074.158c.092-.052.243-.045.146-.158M16.054 12.37c-.049.027-.08.07-.05.152a.224.224 0 0 0 .05-.151M15.399 12.21l.107.045.116-.052zM17.72 11.23l.08-.219c-.076-.155-.175-.217-.198-.122.027.125.005.217.119.341M16.48 10.41c.103.057.169.147.287.266l-.346-.516.059.25zM16.88 9.967c-.079-.154-.02-.572-.217-.402.074.155-.016.381.216.402M19.639 9.348l-.032.023 1.23.588zM17.61 7.77c-.475-.048 1.047.192.464.127.375.083.479.05.807.12-.365-.098-.1-.062-1.271-.246M18.881 8.018l.225.059a2.747 2.747 0 0 0-.225-.059"/>
        <g transform="translate(7 -.585)">
            <mask id="j" fill="#fff">
                <use xlink:href="#i"/>
            </mask>
            <path fill="#EC6B4D" d="M.9.807L.767.585.84.933z" mask="url(#j)"/>
        </g>
        <path fill="#EC6B4D" d="M7.574.957l.003-.65-.122.581c.035-.027.102-.079.119.07M16.666 7.312l.45-.055c.483-.06.514-.067.576-.08l-1.026.135zM17.652 7.021l-.024.008 1.385-.295zM15.821 7.38c.052-.013.12-.031.171-.046-.212.063 1.28-.395-.17.047"/>
    </g>
</svg>
