<svg xmlns="http://www.w3.org/2000/svg" xmlns:xlink="http://www.w3.org/1999/xlink" width="135" height="135" viewBox="0 0 135 135">
    <defs>
        <path id="a" d="M0 .162h78.834V71H0z"/>
    </defs>
    <g fill="none" fill-rule="evenodd">
        <circle cx="67.5" cy="67.5" r="67.5" fill="#EE6C4D"/>
        <g transform="translate(28 31)">
            <mask id="b" fill="#fff">
                <use xlink:href="#a"/>
            </mask>
            <path fill="#E4EAF8" d="M74.286 71H4.548C2.036 71 0 68.932 0 66.38V4.782C0 2.231 2.036.162 4.548.162h69.738c2.512 0 4.548 2.069 4.548 4.62V66.38c0 2.552-2.036 4.62-4.548 4.62" mask="url(#b)"/>
        </g>
        <path fill="#89D23A" d="M41 64a3 3 0 1 1 0 6 3 3 0 0 1 0-6M41 76a3 3 0 1 1 0 6 3 3 0 0 1 0-6"/>
        <path fill="#FF5050" d="M41 88a3 3 0 1 1 0 6 3 3 0 0 1 0-6"/>
        <path fill="#707487" d="M74.444 69H49.556c-.86 0-1.556-.894-1.556-2 0-1.106.696-2 1.556-2h24.888c.86 0 1.556.894 1.556 2 0 1.106-.696 2-1.556 2"/>
        <path fill="#7F8499" d="M56.333 81h-6.666C48.745 81 48 80.106 48 79c0-1.106.745-2 1.667-2h6.666c.921 0 1.667.894 1.667 2 0 1.106-.746 2-1.667 2"/>
        <path fill="#89D23A" d="M41 52a3 3 0 1 1 0 6 3 3 0 0 1 0-6"/>
        <path fill="#7F8499" d="M56.333 57h-6.666C48.745 57 48 56.106 48 55c0-1.106.745-2 1.667-2h6.666c.921 0 1.667.894 1.667 2 0 1.106-.746 2-1.667 2"/>
        <path fill="#707487" d="M64.5 93h-15c-.83 0-1.5-.894-1.5-2 0-1.106.67-2 1.5-2h15c.829 0 1.5.894 1.5 2 0 1.106-.671 2-1.5 2"/>
        <path fill="#89D23A" d="M41 40a3 3 0 1 1 0 6 3 3 0 0 1 0-6"/>
        <path fill="#707487" d="M64.5 45h-15c-.83 0-1.5-.894-1.5-2 0-1.106.67-2 1.5-2h15c.829 0 1.5.894 1.5 2 0 1.106-.671 2-1.5 2M84.5 45h-15c-.83 0-1.5-.894-1.5-2 0-1.106.67-2 1.5-2h15c.829 0 1.5.894 1.5 2 0 1.106-.671 2-1.5 2"/>
        <path fill="#7F8499" d="M95.458 81H61.542C60.689 81 60 80.106 60 79c0-1.106.69-2 1.542-2h33.916c.852 0 1.542.894 1.542 2 0 1.106-.69 2-1.542 2"/>
        <g>
            <path fill="#D5DCED" d="M53 79c-9.39 0-17 7.723-17 17.25 0 2.02.36 3.949.988 5.75h32.024c.628-1.801.988-3.73.988-5.75C70 86.723 62.389 79 53 79"/>
            <path fill="#89D23A" d="M53.5 82C60.956 82 67 88.044 67 95.5S60.956 109 53.5 109 40 102.956 40 95.5 46.044 82 53.5 82"/>
            <path fill="#FFF" d="M52.25 101a1.89 1.89 0 0 1-1.22-.441l-4.374-3.667a1.803 1.803 0 0 1-.204-2.585 1.904 1.904 0 0 1 2.642-.199l2.998 2.513 5.65-6.026a1.905 1.905 0 0 1 2.65-.113c.763.685.815 1.844.115 2.59l-6.875 7.334c-.37.393-.875.594-1.383.594"/>
        </g>
    </g>
</svg>
