<svg xmlns="http://www.w3.org/2000/svg" xmlns:xlink="http://www.w3.org/1999/xlink" width="135" height="135" viewBox="0 0 135 135">
    <defs>
        <path id="a" d="M0 .09h49.79v49.74H0z"/>
    </defs>
    <g fill="none" fill-rule="evenodd">
        <circle cx="67.5" cy="67.5" r="67.5" fill="#EE6C4D"/>
        <path fill="#E84848" d="M53.523 82.477c3.303 3.303 3.303 8.729 0 12.032-3.303 3.303-13.035 7.609-16.338 4.306-3.303-3.303 1.003-13.035 4.306-16.338 3.303-3.303 8.67-3.303 12.032 0"/>
        <path fill="#7F8499" d="M43.692 80.994v.355c0 6.161 5.038 11.196 11.201 11.196h.238c1.66-3.199 1.126-7.227-1.6-9.952-2.609-2.666-6.64-3.199-9.84-1.6"/>
        <g transform="translate(30 55.134)">
            <mask id="b" fill="#fff">
                <use xlink:href="#a"/>
            </mask>
            <path fill="#B2B2B2" d="M41.016 8.86c10.135 10.128 12.15 24.524 2.548 34.12L39 47.541c-9.601 9.597-2.963-13.446-13.098-23.576-10.136-10.13-33.252-3.437-23.59-13.092l4.563-4.561c9.602-9.597 24.005-7.583 34.14 2.547" mask="url(#b)"/>
        </g>
        <path fill="#FFF" d="M104.563 30.464c3.083 3.08 1.72 22.628-17.188 41.585C75.046 84.31 67.28 88.635 67.28 88.635c-8.238 5.569-12.209 1.778-17.426-3.435-5.215-5.213-9.067-9.182-3.437-17.416 0 0 4.386-7.82 16.656-20.142 18.907-18.896 38.407-20.318 41.49-17.178"/>
        <g>
            <path fill="#E4EAF8" d="M71.336 85.604c-8.703 5.689-12.904 1.818-18.365-3.519-5.522-5.396-9.542-9.442-3.601-17.947l.9-1.408c-2.34 3.109-3.36 4.869-3.36 4.869-5.702 8.152-1.801 12.082 3.48 17.243 5.281 5.161 9.303 8.856 17.644 3.401 0 0 3.721-2.052 10.143-7.272-4.38 3.284-6.841 4.633-6.841 4.633"/>
            <path fill="#FFDC64" d="M85.679 50.296a7.21 7.21 0 0 1 0 10.382c-2.94 2.873-7.682 2.873-10.623 0a7.21 7.21 0 0 1 0-10.382c2.941-2.873 7.742-2.873 10.623 0"/>
            <path fill="#B2B2B2" d="M68.335 68.478c1.5 1.466-1.38 6.686-8.703 13.842-7.322 7.155-11.762 9.09-13.263 7.566-1.5-1.467.42-5.807 7.742-12.962 7.382-7.156 12.663-9.97 14.224-8.446"/>
        </g>
        <g>
            <path fill="#A1A3A8" d="M79.53 48.1c-1.894 0-3.788.71-5.208 2.19a7.395 7.395 0 0 0 0 10.476c1.42 1.42 3.314 2.19 5.208 2.19 1.894 0 3.788-.71 5.208-2.19 2.9-2.9 2.9-7.576 0-10.476-1.42-1.48-3.314-2.19-5.208-2.19m0 1.776a5.6 5.6 0 0 1 3.965 1.657 5.603 5.603 0 0 1 1.658 3.965c0 1.48-.592 2.9-1.658 3.966a5.6 5.6 0 0 1-3.965 1.657c-1.48 0-2.9-.592-3.965-1.657a5.603 5.603 0 0 1-1.658-3.966c0-1.48.592-2.9 1.658-3.965a5.601 5.601 0 0 1 3.965-1.657"/>
            <path fill="#B2B2B2" d="M86.455 31.942c.532 3.966 2.663 8.168 6.155 11.66 3.078 3.019 6.63 5.03 10.121 5.86 3.906-9.707 3.61-17.164 1.835-19-1.717-1.775-8.819-2.071-18.111 1.48"/>
        </g>
    </g>
</svg>
