<svg xmlns="http://www.w3.org/2000/svg" xmlns:xlink="http://www.w3.org/1999/xlink" width="102" height="99" viewBox="0 0 102 99">
    <defs>
        <path id="a" d="M.194.155H1.5v3.556H.194z"/>
        <path id="c" d="M.87.595h.63v3.333H.87z"/>
        <path id="e" d="M.331.063H1.5v3.333H.331z"/>
        <path id="g" d="M.09.095H.5v3.556H.09z"/>
        <path id="i" d="M.563.803H1.5v3.333H.563z"/>
        <path id="k" d="M.216.645h2V1.5h-2z"/>
        <path id="m" d="M0 .065h32.426V41H0z"/>
        <path id="o" d="M.297.269h2V2h-2z"/>
        <path id="q" d="M.059.634h2V4h-2z"/>
        <path id="s" d="M.179.08h1.203v1.834H.179z"/>
        <path id="u" d="M.8.307h.582v1.72H.8z"/>
        <path id="w" d="M.305.032h1.077v1.72H.305z"/>
        <path id="y" d="M.084.05H.46v1.833H.084z"/>
        <path id="A" d="M.519.497h.863V2.56H.519z"/>
        <path id="C" d="M0 .041h29.866v25.752H0z"/>
        <path id="E" d="M.054.327h1.842v1.736H.054z"/>
    </defs>
    <g fill="none" fill-rule="evenodd">
        <path fill="#EC6B4D" d="M21.024 89.03c-.052.083.576.031.688.04-.144-.135-.852-.03-.688-.04M20.378 88.166l.256.016L20 88zM20.44 86c-1.066.154.188.458-.186.698l-.242.046.864.074c-.144-.272-.728-.614-.436-.818M22.308 84.01c-.416.055-.362-.135-.126.163l.104-.032c-.008-.026-.006-.064.022-.13M22 84.025c.034.134.348-.098 0 0M22 83.1l.376.166c.246-.042.298-.202.478-.148-.208-.176-.452-.132-.854-.018M21 83l.16.088c.102-.02.138-.044-.16-.088"/>
        <path fill="#EC6B4D" d="M21.586 83.186L21.25 83c-.174.03-.52.042.122.086-.318-.006-.012.024.214.1M21.75 84c-.23.106-.374.238-.75.07.158.336.908.264.75-.07M18.308 86.001l-.308.144.362.104c-.18-.052.28-.266-.054-.248M22.896 81c-.228-.006-.606.074-.896.096l.264.124c.154-.072.296-.202.632-.22M21.402 81.186L21.006 81c-.042.176.146.204.396.186M20.012 83.062l.83.3L20 83z"/>
        <path fill="#EC6B4D" d="M22.272 81.08l.53.098L22 81zM22 80.384c.435.072.732-.13 1-.048-.08-.134-.455-.24-.791-.336.189.106.143.224-.209.384"/>
        <path fill="#EC6B4D" d="M22 80c.106.052.294.106.496.164A1.796 1.796 0 0 0 22 80M21 81.17c.138-.018.498-.056.646-.17l-.638.092-.008.078z"/>
        <path fill="#EC6B4D" d="M21 81.17l.02-.004.032-.166-.052.17"/>
        <path fill="#EC6B4D" d="M21.053 81.02l.002-.02c-.062.01-.084.014-.002.02M19 83.2c-.28-.105-.582-.337-1-.09.34.073.579-.07 1 .09M20.142 81l-.142.212c.17-.008.416-.052.596 0L20.142 81z"/>
        <path fill="#EC6B4D" d="M20 81l.206.096.052-.078zM21.538 80.292c-.28-.084-.306-.182-.352-.292-.124.122-.19.246-.186.364.202.012.564.056.538-.072M21.08 80.02L21.04 80c-.052.014-.07.024.038.02M21.116 77l-.116.02.112.002.004-.022z"/>
        <path fill="#EC6B4D" d="M21.043 80.025c-.122.092.036.142.236.188a.339.339 0 0 1-.116-.21c-.092-.006-.152-.006-.12.022M21.348 77c-.132.05-.246.104-.348.162.202-.05.516-.148.348-.162"/>
        <path fill="#EC6B4D" d="M21 80.011l.028.012c.138-.032.07-.026-.028-.012"/>
        <path fill="#EC6B4D" d="M21.394 80.11c-.094-.044-.252-.076-.394-.11a.666.666 0 0 0 .218.144l.176-.034M16 76.24c.742.003 1.434.23.642.447.562.192 3 .02 4.358-.178-.322 0-.624.004-1.066-.194-.403.078-.934.474-1.611.31-.39-.268.257-.23.644-.368-.922.128-1.354-.328-2.71-.248l.485.234c-.213.008-.55-.074-.742-.004M21 77.392l.076.084c.1-.1.338-.174.798-.31a1.673 1.673 0 0 0-.71-.166l-.076.42-.088-.028z"/>
        <path fill="#EC6B4D" d="M21.611 77.38c-.643-.052-.919-.25-1.611-.11.05.248.54.162.821.306-.166-.4.36.106.717-.192a.445.445 0 0 1 .174.214c.076-.074.17-.146.288-.214l-.04.01.002.002h-.01c-.079.018-.129.026-.081.004l-.014-.008a28.42 28.42 0 0 1-.242-.012c.129-.12.167-.022.242.012l.095.004.008-.002-.359-.394c-.087.086-.067.192.01.38M17 81.037c.056-.014.104-.014.15-.016-.08-.026-.134-.034-.15.016M17.263 81.238c.1.028.389.046.318.142-.214.088-.345.008-.581.018.191.052.52.188.865 0l-.097-.026c.242-.168 1.132-.396 1.232-.37-.645.062-1.106.114-1.737.236M18.88 80.328L18.554 80l-.554.184.336-.018c-.128.194.286.144.544.162"/>
        <path fill="#EC6B4D" d="M21.284 77.144l.684.03L21 77zM21 76.104l.594.004-.36-.108zM13.168 37.098L13 37a.514.514 0 0 0 .168.098M13 39.017l.292.016c-.162-.032-.28-.046-.292-.016M21 59.296c.552-.15 1.412-.318.744-.294l-.65.05c.116.1.046.178-.094.244M16.198 47l-.198.044c.224.032.43.064.624.092L16.198 47M14 47.194l.418-.194a1.554 1.554 0 0 0-.418.194M12.664 30.108L12 30c.006.18.338.096.664.108M21.226 69.314c.252-.128.358-.228.388-.314-.372.154-.93.282-.388.314M20.396 37.082A.833.833 0 0 0 20 37a.661.661 0 0 0 .396.082M21.152 67l-.152.068c.11.088.198.178.158.29.278-.114.448-.242-.006-.358M13.007 8.034c.028-.012.042-.02.076-.034-.088 0-.092.014-.076.034M20 1c.042.04.044.106.056.17.042-.034.036-.084-.056-.17M22 75c.044.092.072.014 0 0M18.318 75.032a1.639 1.639 0 0 1 0 0M16.084 67.008l.002-.008c-.126.03-.102.024-.002.008M21 75.122a.69.69 0 0 0 .192-.122.802.802 0 0 0-.192.122"/>
        <path fill="#EC6B4D" d="M22.062 75l-.062.082c.108.01.176-.002.062-.082M21.066 72c.01.052-.02.102-.066.15a.214.214 0 0 1 .104-.022.529.529 0 0 1-.038-.128M14.133 20.072l.062-.02c-.272-.09-.228-.05-.062.02M14 55.004l.032.01.022-.014zM13 55c.67.136.59.216.449.326L15 55.2l-2-.2z"/>
        <path fill="#EC6B4D" d="M19.403 18.677l-.207.102c-.23-.216-.024-.16.207-.102m.684 53.74a.538.538 0 0 0 .33.02c-.199-.032-.214-.144-.16-.271-.208.041-.35.108-.17.252m.34-.507l-.04-.01c.307-.248.187-.16.04.01M14.732 48.4c-.263-.076-.134-.2.164-.344.066.1.038.217-.164.345m-1.954-8.456c-.169-.105-.684-.316-.215-.399.91.112.476.21.215.399m-.544-5.565l-.64.38c-1.055-.437-.693-.766-1.594-.406 2.234.026.237 1.444 2.47 1.47l-.468.251c.02-.07-.112-.08-.09-.15-1.066.492 1.616.335 1.303.957-.17.217-.494.37-.76.226l.556.472c-.044.14-.43.108-.388-.029l.182.727-.066-.003c.35.099.892.328 1.125.44-.32.19-.237-.09-.516-.039l.542.399c-.577.172-1.14-.16-1.06-.437-2.227.402.564.328-.734 1.157l-.285-.38c-1.267.262-.805.555-1.592.995.413-.108 1.985-.886 2.544-.452-.167.124-.248.286.204.52-.794.009-.599.238-.553.528l-1.052-.01c.307.31.842.281 1.318.46-.103.347-.917.43-1.603.52-.165.557 1.302-.402 1.506.257-.401.469.03.79.662 1.339-.36.328-.642-.051-.943.07l.84.277c-.02.07-.276.051-.408.042.327.239 1.05.01 1.34.385 1.16.093-1.69.804-.373 1.26-.296.12-.644-.048-1.05-.01.866.64.63.551 1.794 1.068l-.689.462c.79-.341 1.726.073 2.496.436.381-.127.712-.239.872-.296l.568.59c-.17.073-.533.019-.973-.074.087.035.173.074.252.105-.386.217-.994.115-1.583-.031.208-.07.427-.147.646-.224-.638-.14-1.346-.267-1.962-.232a.558.558 0 0 1 .285.194c-.173-.038-.329-.06-.434-.041-.11.022.123.08.392.175l-1.173.147.467.028-.73.788c1.182.541 2.923 1.007 3.412 1.886-.862-.21-1.406-.031-2.423-.031 1.077-.255-.463-.68-.246-1.141-.114.239-.598.194-.767.133l.985.807c-.834-.01-.623.181-.967.398 1.644-.181 1.098.596 1.607.921-.555.029-1.118-.044-.987-.452-1.239.462 1.936.558.886 1.007-.013-.099.07-.153-.21-.188.493.226.107.793-.378.67l-.01-.1c-.191.66 0 2.002 1.398 2.082-.18-.01-1.686-.086-1.969-.102l4.712 1.115c-1.201-.089-4.06.344-4.742-.194-.17.16-.369.357.057.682.17-.112 1.734-.29 1.846-.144-1.336.418-.713.287-1.85.794.256-.162 2.141-.01 2.082.245-.283-.038-1.86.045-2.057-.044l1.853.605c-.333-.153-1.565-.01-2.087.14.362-.07-.03.546.153.711l.426-.274c-.274.717 2.607.666 2.515 1.374-.384-.08-2.353-.178-2.583.185.947.15 4.56.663 5.293 1.275l-.54.127.619.469c-1.425-.277-4.432-1.068-5.6-1.508-.428.271-.638.083-.586.482-.506.146-.772-.208-.802-.326l-.323.934c1.108-.057 1.114.695 2.035.644l-1.153-.991c1.103-.058 3.142.539 2.951 1.198-.438.172-1.967-.095-2.337-.076.381.08.732.612.462.679l-.594-.271c-.412.373 1.472.573.42 1.032-.069.153-1.422.475-.766.491 1.26-.267 5.162-.379 6.111-.23-.085.055-1.2.814-1.822.998-.987.268-2.36-.334-3.208-.108.302.006.675.137.796.191-.257.166-.937-.048-.798.297 1.122.038-.088.704.951.146.323.332-.228.364-.175.762.723-.14 2.467.312 2.79.644-.286-.013-.657.07-.825.108-.095.698-.601 1.08-.606 1.728-.272.063-.596.382-1.08.261.199.09.58.166.609.367-.965.404-.156-.443-1.316-.125.652.01.904.498 1.314.775 1.004-.109.186-.663-.224-.94 1.388-.03 2.846.44 3.495 1.1.351.528-.894.251-.695.34-.232 1.014 2.43.803 1.439 1.664-.882.35-1.759.054-2.395.143-.34-.43.553-.685.513-.981l-.414.376c-.294-.134-.52-.42-.265-.583-.792.296-.136 1.708-.86 2.505.298.13.607.36.96.239l-.125-.242c.71-.246.992.44 1.32.117.505.32 1.296.67.9 1.141l-1.007.115c.294-.019.596-.319.287-.443.45.182-1.353.75-.03.928l.692-.345c.511.316 1.588.695 1.277 1.116.99-.214-.117-.092 1.043-.414-1.445.29.049-1.052-1.469-.606 1.347-.335.566-.532 1.713-.953-.331.02-.634.156-.474-.194a35.143 35.143 0 0 0-.294-.067l.024-.026-.039.02c-.048-.013-.06-.013-.013.009a1.49 1.49 0 0 1-.504.188c-.766-.153-.748-.701-1.143-.88.154-.207.382.077.735-.041l-.595-.265c.74-.044 1.222-.573 1.66-.102l.029-.433c.412-.265.572-.622.259-.829.157-.21-.823-.5-.244-.334l-.465-.67.187-.01c.085-.672-1.24-1.357.087-2.154-.188-.22-.418-.45-.212-.835l.638-.086c-.226-.284.631-.883-.035-.994 1.717-.345.364-1.416.664-1.932l-.833-.006c.044-.354-.195-.686-.535-1.116l-.737.038c-.61-.366.515-.978.436-1.57.283.034.211.187.042.295 1.66-.736-1.221-1.485-.013-2.148-.27-.156-.18-.274.004-.389 0 0 .018.026.04.039.009-.016.01-.042.009-.067l.392-.23c-.18.07-.327.137-.395.195-.015-.125-.11-.313-.293-.494l.789-.09c-.009-.012-.009-.025-.022-.041.292-.185-.377-.14-.971-.035a1.83 1.83 0 0 0-.478-.24c1.276-.162-.435-.477.927-.697-.666-.115-.506-.921-1.905-1 .182-.01.267-.065.28.034.158-.207.316-.414-.079-.596l1.007-.099-1.357-.433c.611-.28.967-.399 1.743-.137-1.195-.64-.452-.526-1.636-1.068l.651.02c-.026-.198-.899-.508-.362-.635 1.235-.46.158-2.206 1.303-3.363-1.917.246.855-.541-.63-.567.452-.073.707-.236 1.104-.054-.45-.58.714-.886-.54-1.275.454-.07.665.118.932.054-.099-.044-.395-.178-.125-.242s.382.08.579.169c-.079-.593-1.476-.638-2.787-.67.618-.309.53-.458-.329-.666.425-.111.875-.29 1.03.08.062-.21.623-1.281-.43-1.29.268-.07.078-.294-.043-.348.06-.469.154-.51.053-.97l-.171.132c-1.27-.17-.285-.38-.439-.75l.13.01c.91-.857-.441-.36.598-1.211l-.787.054c-1.697-.06.995-.752.344-1.23l-.45.178c-.58-.258 2.305-.768 2.516-1.036.147-.06.237.09.346.17.998-.711-1.035-.08-1.278-.597.557-.102 1.418.106 1.522-.245.45-.179-1.816-.994-.748-1.485-.43.111-.86.22-1.182-.02-.156-.37 1.618-1.02.263-1.338a.941.941 0 0 1 .336-.07c-.351-.28-.588-.915-1.323-1.077 2.724-.294-1.335-1.747 1.178-1.77l-.14-.87.258.02c.162-.561-.44-.75-1.044-.937.17-.131.406-.042.538-.032.5-.82.392-.902-.864-1.565l.815-.083c-.475-.179 1.27-1.195.314-1.983a.984.984 0 0 1 .366.083c-.962-.883 2.248-2.186-.723-2.47l-.737-.583c-.224.771-1.29-.093-1.78.233-.176-.3.89-.797 1.045-.428l-.149.061c1.55.112.542-.963 1.594-.96-.09-1.51.757-2.999.81-4.417l-1.202.188.066-.494c.278-.137.938-.194.892.16.68-.198-.577-.58-.84-.584.48-.7 1.406.24 1.432.029l-.092-.287-.14.067c-.494-.223-1.016-.233-.96-.657.238-.274.74-.153.786-.258.084-.003.123-.038.031-.165l.097-.625-.945.27c-.472-.264.041-.586-1.031-.273 1.653-.46.572-2.337 1.083-2.608-.697-.37-.69-.749-.614-1.223-.195.12-1.26.22-1.136-.188 2.204.089.945-.775 2.526-1.148-1.046.325-.274-1.154-1.763-.647.176-.344.825-.045 1.34-.319-.864-.784.535-1.8.226-2.798-.29-.003-.728.178-1.162-.022l1.436-.58c-.145-.195-1.67-.122-.675-.52-.241.06-.608.15-.702.02 1.377-2.022-1.223-3.956 1.375-6.079-.555.3-.614.121-.64-.086-.132.14-.713.032-1.106.077l1.07-.89C18.016.83 19.013.032 17.972 0l.193.252c-1.235-.284-2.717.634-4.292.663 1.404.322-2.043 1.128-.032 1.67-.316.156-.51-.096-.873-.003.68.13.824.318.53.694l-.168-.031c.186 1.01-.465 1.475-.89 2.635l.776-.114c-.1.248-.345.309-.535.433 1.186.236.052-.695 1.36-.487-1.58.388.006 1.737-1.79 2.023-.002.38.899-.143.894.236l-.484.118.63.074c-.1.251-.707.398-1.12.42.05-.06-.118-.165-.155-.23-.568.342.213.9.026 1.018l.294-.373c.478 1.013-.149 2.298.855 3.267l.367-.09c.69.746-.395.625-.068 1.454L13.4 13.6c.368.16.557.376.517.609-.434-.201-.83.417-1.31.153.74.81.578.395 1.95.908l-.607.14c.555.172.845.182 1.007.596-.526-.331-.926.29-1.623-.076-1.324.911 1.362 1.275-.585 1.721 1.693.367.93-.78 1.293-.564.55-.2 1.266.306 1.099.586-.035.28-2.155.526-2.116 1.23.009-.07-.118-.073-.112-.143-.427.274.588.507-.11.845 1.025.162-.052.424 1.25.45l-.309-.645c.345.36 1.87.676 1.138 1.298-.263-.045-.61-.217-.802-.338-.384.185.256.338-.134.529-1.305-.026-.294-.784-1.29-1.157-.548.204.95.727-.462.558 1.798.248-.22.698 1.156 1.15l-.781-.016c.123.074.493.223.474.364l-1.013-.233c.866.37-.75.762-.277 1.122-.03-.778.939-.191 1.507-.532 1.052.94-2.037.59-1.656 1.657-.11-.143.465-.555.829-.332a1.847 1.847 0 0 1-.864.616c.167.707.8-.125 1.283.169-.947.26.39.344.697.65l-.794.016c-.502.819 1.656.188 1.046.927l-1.103-.29.29.376-.904-.064c.674.405.5.536.25.947.56-.105 1.44.029 1.467.389-.469.252-.754-.124-.638.382-.495-.108-1.12-.223-.39-.455-.259-.045-.5-.083-.754-.128-.542.274-.121.666-.112.851.03-.073.072-.156.184-.204l1.105.724c-.298.12-.537.032-.772-.055.086.147.452.246.522.466-.647-.048-1.311-.026-1.618-.332l.721.692c-.28.051-.767.373-1.006.284-.375.395 1.258.94.76 1.466a.558.558 0 0 1 .338.185c-.14.487-.93.93-.041 1.494l-1.154.341c.263.45 1.454-.462 1.893.284.372.53-.985.214-1.305.405.583.255 1.772.701.833 1.202-.217-.16-.046-.287-.134-.437"/>
        <path fill="#EC6B4D" d="M14 47.049c.122-.02.256-.026.392-.032a.636.636 0 0 0-.392.032M12.124 30.02l.008-.01L12 30zM14 64.13a1.08 1.08 0 0 1 .372-.13c-.176 0-.326.03-.372.13M22.426 75.196L22.234 75c.038.096-.12.132-.234.184.17-.008.414-.05.426.012M17 77.067c.088.028.01.062.1.09l.338-.016c-.026-.124-.298-.206-.438-.074M18.414 76c-.608.028-.4.15-.284.288 0 0-.008-.016 0-.026.852.026.568-.118.284-.262"/>
        <path fill="#EC6B4D" d="M18 76c.03.042.046.086.018.13.342.01.07-.054-.018-.13M21.065 72.132c-.156.07.778.028.532.07.774.062-.946-.428-.532-.07M17 76.132l.75-.064-.606-.068zM17.204 75l-.204.228c.126-.004.2.022.256.056.024-.138.17-.294-.052-.284"/>
        <path fill="#EC6B4D" d="M17.003 75c-.012.072.004.14.128.178a.276.276 0 0 0-.128-.178"/>
        <path fill="#EC6B4D" d="M17 75.23l.156-.07.052-.16zM17.562 69.246l-.218-.242c-.258-.022-.414.048-.312.138.182.056.282.146.53.104M15.362 71.118c.156-.068.322-.076.57-.118l-.932.008.362.11zM15.69 69.17c-.258-.02-.748-.347-.684-.037.256.022.476.266.684.036M16 64l.016.062L18 64.036zM13.052 59.035c-.294.296.764.06.397.328.29.066.299-.218.551-.152-.309-.172-.136-.266-.948-.176M14 59c.06.028.134.056.232.088A.909.909 0 0 0 14 59M20.196.2l.312-.2L20 .14z"/>
        <path fill="#EC6B4D" d="M20 .16l.97-.08-.884-.08c.044.04.132.12-.086.16M12 41.15l.234.012c.254-.03.272-.074.31-.162l-.544.15zM12.02 37.044l-.02.044.88-.088zM10.004 34.006c-.036.088.162.188.124.276-.16-.188.974-.31-.124-.276"/>
        <g transform="translate(35 54)">
            <mask id="b" fill="#fff">
                <use xlink:href="#a"/>
            </mask>
            <path fill="#EC6B4D" d="M.7.994C.79.934.276.294.194.155.226.504.832 1.17.7.995" mask="url(#b)"/>
        </g>
        <g transform="translate(35 58)">
            <mask id="d" fill="#fff">
                <use xlink:href="#c"/>
            </mask>
            <path fill="#EC6B4D" d="M1.06.888L.87.595l.386.91z" mask="url(#d)"/>
        </g>
        <g transform="translate(35 59)">
            <mask id="f" fill="#fff">
                <use xlink:href="#e"/>
            </mask>
            <path fill="#EC6B4D" d="M.331 1.593c.918.92.124-.797.554-.717l.214.197L.473.063c-.048.51.204 1.57-.142 1.53" mask="url(#f)"/>
        </g>
        <path fill="#EC6B4D" d="M32 59.09c.356.218.202.336.194-.05a3.294 3.294 0 0 0-.102-.04c-.008.026-.032.056-.092.09M32.135 59.1c.052-.127-.328-.14 0 0"/>
        <path fill="#EC6B4D" d="M32.656 59.548l-.196-.368c-.218-.12-.35-.024-.46-.18.058.27.276.388.656.548M33.15 60.196l-.074-.17c-.092-.048-.134-.05.074.17M33 59l.156.358c.152.084.43.292-.046-.144.244.204.022-.012-.11-.214"/>
        <path fill="#EC6B4D" d="M33 59.142c.242.06.432.046.626.414.074-.364-.554-.78-.626-.414"/>
        <g transform="translate(36 60)">
            <mask id="h" fill="#fff">
                <use xlink:href="#g"/>
            </mask>
            <path fill="#EC6B4D" d="M.175.497l.324.15-.22-.552C.387.37-.097.15.175.497" mask="url(#h)"/>
        </g>
        <path fill="#EC6B4D" d="M31 60c.176.146.518.318.758.482l-.134-.264c-.162-.038-.35-.022-.624-.218M32 60l.202.394c.134-.114.006-.252-.202-.394M33.474 60.756L33 60l.448.812zM31.358 60.406L31 60l.524.638zM30.823 60.584c-.302-.328-.656-.352-.822-.584-.014.158.222.476.432.762-.088-.202.018-.27.39-.178M30.294 63.436c-.052-.108-.17-.266-.294-.436.046.108.13.242.294.436M31.608 63.266c-.118-.07-.422-.264-.608-.266l.558.322.05-.056zM32.14 63.01l-.018-.01a3.806 3.806 0 0 0-.122.114c.016-.014.058-.044.14-.104M32.014 63l-.014.014c.056.032.074.04.014-.014M33 63c.22.308.392.734.96.876-.304-.332-.626-.412-.96-.876"/>
        <path fill="#EC6B4D" d="M32.232 63.45l.234-.08c-.138-.098-.356-.216-.466-.37l.232.45zM33.192 63.204L33.088 63l-.088.028zM31 63.03c.172.24.136.333.108.45.168-.02.292-.08.358-.175-.152-.134-.412-.392-.466-.276"/>
        <path fill="#EC6B4D" d="M32 63l.018.038c.05.022.07.026-.018-.038M31 66.014l.104.056-.088-.07z"/>
        <path fill="#EC6B4D" d="M32.106 63.294c.15.002.054-.136-.076-.294a.357.357 0 0 1-.03.238c.068.062.114.098.106.056M31.029 64.048c.134.042.254.068.37.086-.188-.086-.494-.2-.37-.086M31.09 63.058l-.016-.028c-.126-.058-.07-.022.016.028"/>
        <path fill="#EC6B4D" d="M32 63c.046.092.154.216.246.33a.73.73 0 0 0-.088-.248c-.04-.022-.102-.052-.158-.082M34 70.904c-.466-.674-.774-1.623-.151-1.226-.245-.784-1.878-2.74-2.849-3.678.203.295.394.556.56 1.248.3.247.861.155 1.194 1.002.091.74-.293.099-.617-.048.655.648.667 1.693 1.57 2.798l-.173-.77c.138.177.305.6.466.674M30.824 64.356l-.01-.112c-.138.016-.368-.07-.814-.244.154.286.314.442.468.568l.302-.288.054.076zM31.4 64.367c.623.662.76 1.155 1.579 1.633.137-.34-.434-.695-.616-1.128-.127.629-.29-.463-.885-.442a.782.782 0 0 1-.018-.418A1.6 1.6 0 0 1 31 64l.05.024v-.003l.01.01c.096.05.15.086.088.068l.008.024.241.24c-.226.022-.19-.128-.241-.24l-.096-.093-.01-.006.075.806c.155-.021.213-.168.275-.463"/>
        <g transform="translate(35 64)">
            <mask id="j" fill="#fff">
                <use xlink:href="#i"/>
            </mask>
            <path fill="#EC6B4D" d="M.69.936C.636.896.6.849.562.803c.048.113.084.18.126.133" mask="url(#j)"/>
        </g>
        <path fill="#EC6B4D" d="M34.661 64.784c-.068-.078-.305-.252-.173-.288.246.05.302.186.512.31-.13-.148-.315-.44-.744-.484l.066.076c-.327-.004-1.254-.322-1.322-.398.598.312 1.032.528 1.661.784"/>
        <path fill="#EC6B4D" d="M33 64l.066.46.544.198-.274-.194c.212-.074-.142-.29-.336-.464M30.524 64.444L30 64l.666.732zM30.468 66.366L30 66l.222.306zM15.216 92l-.216.032a.433.433 0 0 0 .216-.032M16.006 92.238l.17-.238c-.12.108-.198.198-.17.238M23.962 80.356c-.536-.202-1.33-.566-.772-.198l.556.338c-.038-.148.064-.168.216-.14M23.022 92.702l.068.236L23 92c.008.22.014.454.022.702"/>
        <g transform="translate(23 98)">
            <mask id="l" fill="#fff">
                <use xlink:href="#k"/>
            </mask>
            <path fill="#EC6B4D" d="M.456 1.206L.216.645c.064.24.14.432.24.561" mask="url(#l)"/>
        </g>
        <path fill="#EC6B4D" d="M10.548 88l-.548.392c.134.126.31-.17.548-.392M28.492 71.03c-.276-.05-.416-.032-.492.018.388.1.908.332.492-.018M20.258 83a1.89 1.89 0 0 0-.258.3c.09-.07.172-.164.258-.3M26.145 71.328l.162.036c-.038-.136-.058-.262.038-.326-.288-.074-.498-.072-.2.29M1.016 69.072c.016-.026.026-.04.044-.072-.074.048-.068.062-.044.072M5 58c.052.012.078.062.108.104.028-.044.006-.08-.108-.104M29.019 67.059c.018-.1-.05-.054 0 0M31 69c.048.06.114.126.234.218-.122-.1-.194-.17-.234-.218M30.006 77l-.006.006c.118.052.096.042.006-.006"/>
        <path fill="#EC6B4D" d="M29.222 67.022c-.084-.02-.16-.026-.222-.02.05.016.122.024.222.02"/>
        <path fill="#EC6B4D" d="M29.015 67.092l.096-.028c-.08-.074-.14-.106-.096.028"/>
        <path fill="#EC6B4D" d="M29 67.124c.022-.048.074-.07.138-.08a.204.204 0 0 1-.094-.044.63.63 0 0 1-.044.124M8.147 77.056L8.181 77c-.266.112-.206.112-.034.056M28.042 89.036L28.028 89H28l.042.036zM27 92c-.284-1.542-.201-1.545-.057-1.557L26 88l.509 1.966L27 92"/>
        <g transform="translate(0 58)">
            <mask id="n" fill="#fff">
                <use xlink:href="#m"/>
            </mask>
            <path fill="#EC6B4D" d="M11.139 13.11l-.113.265c-.258.06-.081-.091.113-.265m17.713-1.334a.906.906 0 0 0-.251-.303c.145.2.113.3.02.354.178.148.315.217.231-.05m-.458.103l.025.041c-.333-.07-.205-.034-.025-.04M23.064 36.9c.032.574-.066.457-.203.012.03-.22.09-.27.203-.012m-5.887-1.379c-.143.136-.525.634-.399-.085.463-1.135.35-.46.4.085M13.1 31.18l-.241.93c-.924.801-.847.19-1.272 1.378 1.51-2.308.881.767 2.377-1.56l-.188.665c-.02-.07-.11.063-.132-.01-.438 1.495 1.306-1.39 1.498-.523.049.39-.024.917-.288 1.078l.67-.18c.076.183-.156.622-.24.432l.643.496-.039.075c.256-.334.683-.813.867-1.015-.024.583-.175.227-.276.627l.525-.35c-.136.928-.625 1.366-.8.978-.73 3.308.482-.423.587 2.123l-.435.006c-.303 1.993.153 1.684.288 3.308.004-.757-.043-3.747.535-4.087.032.353.141.634.474.202-.265 1.154-.009 1.1.237 1.312l-.325 1.558c.365-.126.487-.969.756-1.52.243.485.121 1.841.047 3.018.456.83-.045-2.448.546-2.13.294 1.08.661.714 1.13.111.218.915-.1 1.06-.036 1.681l.29-1.195c.052.098.02.53.003.747.205-.356.08-1.82.354-2.018.053-2.04.574 3.734.896 1.713.107.662.002 1.173.056 1.97.435-1.068.396-.684.605-2.557-.01-.047.434 1.823.423 1.659-.177-.773-.237-1.706-.248-2.504l-.036-2.902c-.126-.687-.232-1.287-.286-1.577l.062-1.548c.062.3.132 1.056.2 2.018l-.02-.59c.166.64.283 1.87.35 3.148l-.233-1.082c.083 1.375.158 2.92.296 4.116a5.07 5.07 0 0 1 .039-.763c.019.381.038.712.07.902.032.198.017-.328.007-.953l.337 2.139-.09-.94c-.01.015.614.53.625.51.004-2.85-.348-6.364-.215-7.843.247 1.599.525 2.362.924 4.046-.532-1.554-.184 1.489-.525 1.64.166-.06.303.846.32 1.215l.068-1.319.04-1.28c.306 1.416.331.855.594 1.17-.745-2.517-.122-2.435-.182-3.551.265.82.48 1.772.194 2.018.818 1.394-.573-3.589.126-2.419-.042.12-.108.047.007.505-.124-.953.343-.972.531-.161l-.045.126c.45-.464 1.095-2.286.224-3.958.122.199 1.03 2.053 1.184 2.441 0 0-.571-1.747-1.233-3.302a36.72 36.72 0 0 0-1.393-2.961c.779 1.368 2.996 3.863 3.168 5.203.203.004.463-.047.346-.864-.19-.028-1.38-1.441-1.391-1.697 1.16.906.64.445 1.762.934-.281-.05-1.613-1.968-1.466-2.126.201.284 1.458 1.587 1.558 1.867.028-.056-1.133-2.248-1.163-2.185.21.397 1.242 1.312 1.71 1.633-.312-.249.227-.397.144-.68l-.441-.146c.486-.325-1.814-2.696-1.473-3.17.274.382 1.795 2.11 2.11 2.022-.693-.911-3.353-4.343-3.7-5.44l.475.353-.312-.89c1.02 1.42 3.094 4.567 3.853 5.889.44.145.536.47.645.117.456.312.533.807.512.924l.601-.451c-.894-.883-.618-1.473-1.363-2.211l.538 1.738c-.892-.88-2.279-3.06-1.88-3.413.412.233 1.517 1.735 1.816 2.031-.271-.385-.348-1.094-.111-.914l.367.71c.465.06-.943-1.688.055-1.152.113-.06 1.297.833.788.265-1.09-.858-4.204-4.075-4.893-4.996.088.029 1.253.379 1.812.763.874.631 1.726 2.265 2.479 2.807-.237-.258-.48-.678-.555-.823.265.092.717.833.736.448-.864-.984.337-.47-.689-.92-.128-.534.316-.09.425-.442-.621-.508-1.818-2.347-1.942-2.883.216.255.538.508.687.621.337-.463.877-.328 1.124-.826.237.18.613.211.944.722-.122-.24-.39-.627-.338-.807.907.517-.047.48.982 1.23-.506-.571-.519-1.164-.734-1.732-.824-.779-.395.354-.181.921-1.093-1.17-2.055-2.785-2.307-3.863-.07-.716.792.574.672.334.568-.59-1.583-2.734-.482-2.548.817.489 1.387 1.482 1.916 1.965.1.627-.693.053-.774.318l.465.066c.179.36.245.776-.015.685.727.454.753-1.211 1.62-1.202-.182-.36-.334-.81-.656-1.025l.007.3c-.645-.43-.602-1.205-.98-1.243-.269-.687-.747-1.652-.258-1.678l.824.792c-.235-.243-.585-.271-.393.095-.277-.537 1.334.602.382-.694l-.67-.34c-.273-.695-.956-1.934-.553-1.99-.849-.704.054.173-.968-.59 1.229 1.037-.444.785.902 1.762-1.171-.917-.644-.079-1.696-.747.265.274.55.432.292.568l.203.309s-.017-.004-.03-.004l.039.02c.034.053.04.062.012.006.145.056.308.154.463.29.536.788.31 1.201.55 1.687-.202.029-.266-.394-.588-.605l.36.722c-.59-.606-1.169-.609-1.327-1.363l-.187.319c-.423-.148-.685-.006-.523.429-.203.028.448 1.107.06.473l.104.93-.147-.151c-.329.457.442 2.135-.898 1.621.062.337.153.716-.154.842l-.531-.48c.066.42-.837.162-.357.818-1.476-1.193-.83.813-1.263.965l.653.712c-.168.24-.109.707-.006 1.334l.593.593c.34.805-.779.332-.943.87-.21-.267-.094-.324.083-.267-1.594-.817.397 2.198-.808 1.706.151.35.036.366-.156.303 0 0 0-.035-.015-.063-.013.003-.024.022-.032.044-.128-.047-.275-.101-.397-.148.169.094.31.167.386.18-.036.11-.034.334.045.633l-.661-.59c.004.02-.003.029.002.051-.301-.098.245.426.755.842.07.18.162.379.29.587-1.075-.937.162.74-1-.224.245.312.245.63.35.95.127.273.317.649.838 1.302-.14-.158-.22-.209-.205-.272-.175-.028-.337-.085-.096.391l-.753-.93s.22.385.437.773l.423.807c-.508-.47-.756-.836-1.244-1.75.685 1.545.215.668.838 2.321l-.405-.782c-.021.113.422 1.362.066.763-.424-.653-.559-.476-.71-.233-.15.233-.329.564-.662-.177.796 3.129-.429-1.252.126 1.306-.18-.757-.294-1.158-.407-1.908.053 1.009-.344-1.079-.037 1.416l-.258-1.795c.024.196.088.804.004.303-.083-.505-.096-.757-.143-1.151-.027.249.306 3.053.615 5.69-.23-1.073-.224-.865-.109 1.05-.12-.824-.241-1.694-.192-2.183-.047.227-.43-1.47-.314.7-.05-.564-.104-.265-.113-.047-.166-.31-.179-.501-.33-.489l.044.379c-.05 2.34-.147.369-.277.495l.009-.234c-.23-2.012-.19.6-.359-1.58l-.092 1.382c-.29 2.86-.13-2.05-.386-1.133l-.036.811c-.269.77.303-4.012.358-4.346.035-.24.086-.344.128-.495.19-1.669-.313 1.57-.516 1.772.167-.851.484-2.088.47-2.305.183-.628-.888 2.327-.555.706-.177.593-.335 1.215-.555 1.546-.218.006.574-2.375-.243-.842.053-.158.11-.297.17-.423-.266.319-.584.344-1.118 1.053 1.722-2.977-1.68.29-.004-2.337l-.49-.413.18-.255c-.142-.524-.637-.022-1.132.476.057-.262.258-.445.35-.574-.028-1.06-.133-.993-1.293-.151l.52-.887c-.407.36.338-2.065-.663-1.63.068-.088.183-.237.29-.312-1.063.365.625-3.694-1.59-.93l-.772.33c.177.754-.951 1.205-1.158 1.915-.256-.038.283-1.432.552-1.328l-.079.19c1.146-1.452-.032-1.202.72-2.23-.72-.944-.724-2.798-1.266-3.826l-.804 1.268-.16-.41c.149-.357.61-1.019.723-.729.418-.779-.664.139-.858.379.073-.947 1.133-1.145 1.067-1.325l-.183-.114-.075.18c-.455.306-.843.786-.973.432.066-.416.486-.798.478-.914.064-.08.077-.142-.04-.145l-.178-.53-.597 1.066c-.459.246-.205-.46-.881.75 1.043-1.841-.504-2.201-.218-2.866-.674.356-.82.066-.945-.347-.103.261-.884 1.277-.95.86 1.73-1.87.431-1.403 1.526-3.052-.696 1.145-.636-.606-1.611 1.04.006-.406.627-.738.93-1.38-.975.157-.239-1.767-.806-2.246-.235.23-.525.725-.943.927l.96-1.593c-.182-.025-1.396 1.246-.724.151-.174.24-.441.597-.563.574.472-2.542-2.332-2.207-.66-5.585-.409.583-.5.492-.573.353-.079.193-.61.49-.939.78l.72-1.366C3.9.858 4.586-.357 3.653.23l.235.088C2.713.801 1.644 2.45.269 3.447c1.326-.587-1.447 2.384.488 1.59-.222.353-.474.249-.758.573.634-.328.82-.258.694.284l-.156.082c.508.789.094 1.7.184 3.037l.603-.68c.009.292-.17.529-.283.784 1.07-.687-.212-.65.951-1.444-1.17 1.523.634 1.489-.727 3.138.145.328.678-.826.821-.505l-.348.486.54-.438c.015.29-.418.899-.742 1.249.012-.092-.163-.048-.218-.073-.324.748.53.603.425.852l.09-.559c.772.49.797 2.085 1.986 2.006l.251-.381c.839.003-.057.842.534 1.23l-.081.053c.347-.192.586-.192.65.022-.416.224-.463 1.063-.943 1.278.91-.016.613-.196 1.874-1.022l-.406.653c.495-.36.72-.615 1.014-.442-.538.218-.583 1.057-1.263 1.397-.62 1.921 1.561-.249.292 1.87 1.427-1.274.36-1.444.73-1.611.326-.653 1.08-.927 1.073-.565.092.24-1.39 2.375-1.052 2.88-.024-.06-.12.057-.147-.003-.197.608.657-.161.288.747.825-.832.145.375 1.116-.826l-.504-.199c.412-.044 1.669-1.242 1.4-.104-.211.218-.542.42-.738.511-.199.498.339.006.134.517-.967 1.211-.563-.3-1.457.347-.318.672 1.02-.344-.096.858 1.431-1.508.153.735 1.361-.23l-.578.728c.123-.063.46-.302.51-.18l-.845.789c.798-.546-.203 1.29.307 1.11-.373-.555.595-1.044.853-1.839 1.182-.315-1.218 2.4-.448 2.826-.147 0 .08-.858.444-1.047a3.76 3.76 0 0 1-.34 1.29c.449.36.52-.867 1.002-1.12-.562 1.11.435-.129.793-.204l-.559.785c.017 1.091 1.266-1.486 1.167-.35l-.915.87.376-.006-.67.839c.663-.366.597-.098.614.445.346-.628 1.03-1.404 1.216-1.18-.213.647-.589.662-.27.908-.4.42-.895.956-.49.063-.202.224-.39.436-.59.66-.252.731.23.596.324.722a.557.557 0 0 1 .032-.331L10.894 26c-.152.385-.359.561-.566.735.13.019.431-.278.583-.193-.472.615-.924 1.3-1.283 1.385l.83-.224c-.17.319-.358 1.04-.565 1.217-.073.672 1.32-.599 1.229.275.098-.11.207-.196.322-.215.137.49-.188 1.609.69 1.095l-.62 1.432c.397.04.762-1.82 1.424-1.757.507-.025-.564 1.164-.687 1.627.524-.425 1.538-1.359 1.154-.038-.224.12-.175-.148-.305-.16" mask="url(#n)"/>
        </g>
        <g transform="translate(23 98)">
            <mask id="p" fill="#fff">
                <use xlink:href="#o"/>
            </mask>
            <path fill="#EC6B4D" d="M.401 1.037A10.439 10.439 0 0 1 .297.269c.004.294.032.588.104.768" mask="url(#p)"/>
        </g>
        <path fill="#EC6B4D" d="M12.1 86.014L12.098 86l-.098.086zM31.374 81.118A1.124 1.124 0 0 1 31 81c.144.106.282.168.374.118M29.002 66l.04.274c.024-.1.172-.034.292-.006-.138-.096-.358-.21-.332-.268M35.313 67.326c-.054-.076.026-.056-.03-.132L35.01 67c-.052.112.118.344.304.326M31.12 67.338c.498.35.402.126.39-.054 0 0-.004.018-.014.02-.662-.54-.518-.252-.376.034M32.083 67.206c.002-.052.014-.096.06-.114-.264-.216-.086 0-.06.114M29.555 67.493c.164.04-.604-.494-.382-.378-.584-.518.506.912.382.378M32.632 69.406L32 69l.442.422zM32.073 71.256l.292-.056a.452.452 0 0 1-.172-.2c-.098.096-.302.128-.12.256"/>
        <path fill="#EC6B4D" d="M32.022 69.218c.052-.048.078-.114 0-.218a.28.28 0 0 0 0 .218M33.296 71.04l-.164-.04-.132.094zM31 75l.038.322c.194.172.36.21.328.078-.114-.152-.144-.284-.366-.4M32.522 75.25c-.164-.04-.3-.134-.522-.25l.748.554-.226-.304zM32 76.006c.196.172.404.718.528.438-.194-.17-.232-.492-.528-.438M28.98 77.936l.02-.056-1-.88zM30.854 86.82c.46-.018-.734-.596-.214-.54-.258-.262-.424-.046-.64-.28.214.358-.014.306.854.82M30.14 84.204A2.407 2.407 0 0 0 30 84c.05.094.096.156.14.204M6.2 55.274L6.418 55 6 55.312zM5 55.45l.862-.45-.84.292c.056.014.164.04-.022.158"/>
        <g transform="translate(17 96)">
            <mask id="r" fill="#fff">
                <use xlink:href="#q"/>
            </mask>
            <path fill="#EC6B4D" d="M.081 2.078l.094-.452C.215 1.038.163.906.059.634l.022 1.444z" mask="url(#r)"/>
        </g>
        <path fill="#EC6B4D" d="M14 92.708l.042.064.456-.772zM12 89.339c.04.088.252.016.292.106-.252-.018.446-.918-.292-.106"/>
        <g>
            <path fill="#EC6B4D" d="M87.365 92.776c-.048.087.53.033.633.041-.132-.138-.784-.03-.633-.041M86.77 92.917l.235.017-.584-.188zM86.826 90.683c-.981.158.174.472-.17.72l-.224.047.796.077c-.133-.281-.67-.634-.402-.844M88.547 89.662c-.383.056-.333-.14-.116.167l.096-.033c-.008-.027-.006-.066.02-.134M88.263 89.676c.031.139.32-.1 0 0M88.263 88.722l.346.171c.227-.043.275-.208.44-.152-.19-.182-.416-.136-.786-.019M87.342 88.619l.147.09c.094-.02.128-.045-.147-.09"/>
            <path fill="#EC6B4D" d="M87.882 88.811l-.31-.192c-.16.031-.478.043.113.089-.293-.006-.01.025.197.103M88.033 89.65c-.212.11-.345.246-.69.073.145.347.835.272.69-.072M84.863 90.684l-.284.148.333.108c-.165-.054.258-.275-.05-.256M89.088 87.588c-.21-.007-.558.076-.825.099l.243.128c.142-.075.273-.209.582-.227M87.712 87.78l-.364-.193c-.04.182.134.21.364.192M86.432 88.683l.765.31-.776-.374z"/>
            <path fill="#EC6B4D" d="M88.514 87.67l.488.101-.739-.184z"/>
            <path fill="#EC6B4D" d="M88.263 87.983c.401.075.674-.134.921-.049-.073-.138-.42-.248-.729-.347.174.11.132.231-.192.396"/>
            <path fill="#EC6B4D" d="M88.263 87.587c.098.054.27.11.457.17a1.538 1.538 0 0 0-.457-.17M87.342 87.763c.127-.019.459-.058.595-.176l-.588.095-.007.08z"/>
            <path fill="#EC6B4D" d="M87.342 87.763l.019-.004c.014-.085.023-.145.029-.172l-.048.176"/>
            <path fill="#EC6B4D" d="M87.391 87.608l.002-.02c-.057.01-.077.014-.002.02M85.5 88.826c-.258-.11-.536-.349-.921-.093.314.074.533-.072.921.093M86.552 87.587l-.13.219c.156-.008.382-.054.548 0l-.418-.219z"/>
            <path fill="#EC6B4D" d="M86.421 87.587l.19.1.048-.081zM87.838 87.889c-.258-.087-.282-.188-.324-.302-.115.126-.175.254-.172.376.186.012.52.058.496-.074M87.415 87.608l-.035-.02c-.048.014-.064.024.035.02M87.449 85.524l-.107.02.103.003.004-.023z"/>
            <path fill="#EC6B4D" d="M87.381 87.613c-.112.095.034.147.218.194a.363.363 0 0 1-.107-.216c-.085-.007-.14-.007-.11.022M87.663 85.524a2.167 2.167 0 0 0-.32.167c.185-.052.474-.153.32-.167"/>
            <path fill="#EC6B4D" d="M87.342 87.599l.026.012c.127-.033.064-.026-.026-.012"/>
            <path fill="#EC6B4D" d="M87.705 87.7c-.087-.045-.232-.078-.363-.113a.614.614 0 0 0 .2.149c.043-.008.106-.023.163-.035M82.737 84.74c.683.003 1.32.236.591.461.518.198 2.763.021 4.014-.183-.297 0-.575.004-.982-.2-.37.08-.86.489-1.484.32-.359-.277.237-.238.594-.38-.85.132-1.247-.339-2.496-.256l.446.241c-.195.009-.506-.076-.683-.004M87.342 85.928l.07.087c.092-.103.311-.18.735-.32a1.404 1.404 0 0 0-.654-.171l-.07.433-.08-.029z"/>
            <path fill="#EC6B4D" d="M87.905 85.916c-.592-.054-.846-.258-1.484-.114.046.256.497.168.757.316-.154-.413.33.11.66-.198.102.08.135.153.16.22.07-.076.157-.15.265-.22l-.036.01.001.002h-.009c-.073.019-.118.027-.075.005l-.012-.009a23.39 23.39 0 0 1-.223-.012c.118-.124.153-.023.223.012l.087.004.008-.002-.331-.406c-.08.089-.062.198.009.392M83.658 87.625c.051-.014.096-.014.138-.016-.074-.027-.123-.036-.138.016M83.9 87.833c.092.029.358.047.293.146-.197.091-.318.009-.535.019.176.054.48.194.797 0l-.09-.027c.223-.173 1.043-.408 1.135-.382-.594.064-1.018.118-1.6.244"/>
            <path fill="#EC6B4D" d="M85.39 87.926l-.3-.339-.511.19.31-.018c-.118.2.263.148.5.167M87.604 85.672l.63.031-.892-.18zM87.342 84.6l.547.003-.331-.11zM80.128 59.831l-.154-.1c.048.047.1.078.154.1M79.974 60.779l.269.017c-.15-.034-.258-.048-.27-.017M87.342 74.48c.509-.154 1.3-.328.685-.303l-.598.052c.107.103.042.183-.087.251M82.92 65.92l-.183.046c.206.033.396.066.575.095-.124-.043-.255-.09-.393-.14M80.895 66.12l.385-.2c-.135.046-.264.11-.385.2M79.664 55.715l-.611-.112c.005.186.31.1.611.112M87.55 80.689c.232-.132.33-.235.357-.324-.342.159-.856.291-.357.324M86.786 59.815a.698.698 0 0 0-.365-.085.556.556 0 0 0 .365.085M87.482 79.333l-.14.07c.101.091.182.184.146.3.256-.118.412-.25-.006-.37M79.98 41.194l.07-.035c-.08 0-.084.014-.07.035M86.421 37.032c.039.041.04.11.052.175.038-.035.033-.087-.052-.175M88.263 84.492c.04.095.066.015 0 0M84.872 84.525a1.354 1.354 0 0 1 0 0M82.814 79.342l.002-.009c-.116.031-.094.025-.002.009"/>
            <path fill="#EC6B4D" d="M87.342 84.618a.633.633 0 0 0 .177-.126.732.732 0 0 0-.177.126M88.32 84.492l-.057.085c.1.01.162-.002.057-.085M87.403 82.429c.01.053-.019.105-.06.154.04-.018.073-.026.095-.022a.595.595 0 0 1-.035-.132M81.018 48.455c.018-.006.03-.012.057-.02-.25-.093-.21-.052-.057.02M80.895 71.083l.03.01.02-.014zM79.974 71.08c.617.14.543.222.413.336l1.429-.13-1.842-.207z"/>
            <path fill="#EC6B4D" d="M85.87 47.917l-.189.065c-.212-.138-.022-.101.19-.065m.63 34.29c.103.03.204.026.305.011-.184-.02-.198-.091-.148-.172-.191.026-.323.069-.157.16m.313-.323l-.036-.006c.282-.159.171-.102.036.006m-5.245-15c-.242-.049-.123-.128.151-.22.061.063.035.138-.151.22m-1.8-5.395c-.155-.068-.63-.202-.197-.255.838.072.438.135.197.255m-.5-3.551l-.59.242c-.972-.279-.638-.488-1.468-.258 2.058.016.218.92 2.274.937l-.43.16c.018-.044-.104-.05-.083-.095-.982.313 1.488.214 1.2.61-.156.139-.455.236-.7.145l.512.3c-.04.09-.396.07-.358-.018l.168.464-.06-.002c.322.063.821.21 1.035.28-.295.123-.218-.056-.474-.024l.498.254c-.53.11-1.05-.101-.975-.278-2.052.256.519.21-.677.738l-.262-.242c-1.168.167-.741.354-1.467.634.38-.069 1.828-.565 2.343-.288-.153.079-.228.183.188.331-.731.006-.551.153-.509.338l-.97-.006c.283.197.776.179 1.215.293-.095.221-.845.274-1.477.331-.151.356 1.2-.256 1.388.165-.37.299.028.504.61.854-.332.21-.592-.033-.869.045l.774.177c-.018.044-.255.032-.376.026.301.152.967.006 1.234.246 1.068.059-1.557.512-.343.803-.273.078-.594-.03-.968-.006.798.409.58.352 1.652.681l-.634.295c.727-.217 1.59.047 2.299.279.351-.081.656-.153.803-.19l.523.377c-.157.047-.49.012-.896-.047l.232.067c-.355.139-.915.074-1.458-.02l.596-.142c-.588-.09-1.24-.171-1.808-.149a.557.557 0 0 1 .263.124 1.634 1.634 0 0 0-.4-.026c-.101.014.113.05.361.112l-1.08.093.43.019-.673.502c1.089.346 2.693.642 3.143 1.204-.794-.134-1.295-.02-2.232-.02.992-.163-.426-.434-.226-.729-.105.153-.551.124-.707.086l.907.514c-.768-.006-.574.116-.89.255 1.514-.116 1.011.38 1.48.587-.511.019-1.03-.028-.91-.289-1.14.295 1.784.356.817.643-.012-.063.064-.098-.194-.12.454.145.099.506-.347.427l-.01-.063c-.176.421 0 1.277 1.288 1.328l-1.814-.065 4.34.712c-1.106-.057-3.74.22-4.368-.124-.155.101-.34.228.053.435.157-.071 1.597-.185 1.7-.092-1.23.267-.656.183-1.705.507.237-.104 1.974-.006 1.92.156-.261-.024-1.713.029-1.895-.028l1.706.386c-.307-.097-1.442-.006-1.922.09.333-.045-.029.348.141.453l.392-.175c-.253.458 2.401.425 2.316.877-.353-.05-2.167-.114-2.379.118.873.095 4.201.423 4.876.813l-.497.082.57.299c-1.313-.177-4.082-.682-5.159-.962-.394.173-.588.053-.54.307-.466.093-.71-.132-.738-.208l-.297.596c1.02-.036 1.026.444 1.874.411l-1.062-.632c1.016-.037 2.894.343 2.718.764-.404.11-1.811-.06-2.153-.049.352.051.675.39.426.434l-.547-.173c-.38.238 1.355.366.386.659-.063.097-1.309.303-.705.313 1.161-.171 4.754-.242 5.629-.147-.079.035-1.105.519-1.679.637-.908.17-2.173-.214-2.954-.07.278.005.622.088.733.123-.237.105-.863-.03-.735.189 1.034.024-.081.45.876.093.297.212-.21.232-.161.486.666-.089 2.272.2 2.569.411a4.563 4.563 0 0 0-.76.07c-.087.445-.553.689-.557 1.102-.25.04-.55.244-.996.166.184.057.535.106.562.234-.89.259-.144-.282-1.212-.08.6.007.832.318 1.21.495.925-.069.171-.423-.206-.6 1.278-.018 2.621.28 3.219.702.323.337-.824.16-.64.217-.214.647 2.237.513 1.325 1.062-.812.224-1.62.035-2.206.091-.313-.274.509-.437.473-.626l-.382.24c-.27-.085-.479-.268-.244-.372-.73.189-.126 1.09-.792 1.598.275.084.56.23.884.153l-.115-.155c.655-.156.913.281 1.216.076.465.203 1.194.427.828.728l-.927.073c.27-.012.55-.204.265-.283.414.116-1.246.478-.028.592l.638-.22c.47.202 1.462.444 1.175.712.913-.136-.107-.059.962-.264-1.331.185.044-.671-1.354-.387 1.24-.213.521-.34 1.578-.608-.305.012-.584.1-.437-.124a44.946 44.946 0 0 0-.27-.043l.022-.016-.036.012c-.045-.008-.055-.008-.012.007-.134.054-.293.1-.465.12-.705-.098-.689-.448-1.052-.562.141-.132.351.049.676-.026l-.547-.169c.68-.028 1.125-.366 1.529-.065l.026-.277c.38-.168.527-.396.239-.528.145-.135-.758-.32-.225-.214l-.428-.427.172-.006c.079-.43-1.141-.866.08-1.375-.173-.14-.385-.287-.195-.533l.587-.055c-.208-.18.582-.563-.032-.634 1.582-.22.335-.903.612-1.232l-.767-.005c.04-.225-.18-.437-.493-.711l-.679.024c-.561-.234.475-.624.402-1.002.26.022.194.12.038.189 1.53-.47-1.124-.948-.012-1.371-.248-.1-.165-.175.004-.248 0 0 .017.016.037.024.008-.01.01-.026.008-.042l.361-.147c-.165.045-.3.088-.363.124-.014-.08-.101-.2-.27-.315l.726-.057c-.008-.008-.008-.016-.02-.026.269-.118-.347-.09-.895-.023a2.055 2.055 0 0 0-.44-.152c1.176-.104-.4-.305.854-.446-.614-.073-.466-.587-1.755-.638.168-.006.247-.04.259.022.145-.132.29-.264-.073-.38l.927-.063-1.25-.277c.563-.179.89-.254 1.606-.087-1.101-.409-.416-.336-1.507-.681l.6.012c-.024-.126-.828-.324-.333-.405 1.137-.293.145-1.407 1.2-2.145-1.766.156.787-.346-.58-.362.416-.047.65-.15 1.015-.035-.414-.37.659-.565-.496-.813.418-.045.612.075.858.034-.09-.028-.364-.114-.115-.154.248-.041.351.05.533.107-.073-.378-1.36-.406-2.567-.427.57-.197.489-.293-.303-.425.392-.07.806-.185.95.051.056-.134.573-.817-.397-.824.247-.044.071-.187-.04-.221.055-.3.141-.326.049-.618l-.158.083c-1.17-.108-.263-.242-.404-.478l.12.006c.837-.547-.407-.23.55-.773l-.724.035c-1.564-.039.916-.48.317-.785l-.414.114c-.536-.165 2.122-.49 2.316-.661.135-.039.218.057.32.108.918-.454-.954-.051-1.178-.38.513-.066 1.307.067 1.401-.157.414-.114-1.672-.635-.688-.948-.396.071-.792.14-1.089-.012-.143-.236 1.49-.65.243-.854.107-.03.21-.043.309-.045-.324-.179-.542-.584-1.218-.687 2.508-.187-1.23-1.115 1.084-1.129l-.129-.555.238.012c.15-.358-.406-.478-.961-.598.155-.083.374-.026.495-.02.46-.523.361-.576-.796-.999l.751-.053c-.438-.113 1.17-.762.29-1.264.084.004.231.014.336.052-.886-.563 2.07-1.395-.666-1.576l-.679-.372c-.206.492-1.187-.059-1.64.149-.161-.192.82-.509.964-.273l-.138.039c1.428.07.5-.614 1.469-.612-.083-.964.696-1.914.745-2.819l-1.107.12.06-.315c.257-.088.865-.124.823.101.626-.126-.531-.37-.774-.372.443-.447 1.295.153 1.32.019l-.086-.183-.129.042c-.454-.142-.935-.148-.885-.419.22-.175.683-.097.725-.164.077-.002.114-.025.029-.106l.089-.399-.87.173c-.435-.169.037-.374-.95-.175 1.523-.293.527-1.49.998-1.663-.643-.236-.637-.478-.566-.781-.18.077-1.161.14-1.046-.12 2.03.057.87-.494 2.327-.732-.964.207-.253-.736-1.624-.413.161-.22.76-.029 1.234-.203-.796-.5.493-1.15.208-1.786-.267-.002-.67.114-1.07-.014l1.322-.37c-.133-.124-1.539-.078-.622-.332-.222.039-.56.096-.646.012 1.268-1.289-1.127-2.523 1.266-3.878-.51.191-.565.078-.59-.055-.12.09-.656.02-1.017.05l.985-.568c-1.006-.061-.087-.57-1.046-.59l.178.16c-1.137-.18-2.503.405-3.953.424 1.293.205-1.882.72-.03 1.065-.29.1-.469-.06-.804-.002.626.084.76.204.489.444l-.156-.02c.172.644-.428.94-.82 1.681l.715-.073c-.09.158-.317.197-.492.276 1.092.15.048-.443 1.252-.31-1.454.247.006 1.108-1.648 1.29-.002.243.828-.09.824.151l-.447.075.58.047c-.09.16-.65.254-1.03.269.044-.04-.11-.106-.143-.147-.524.218.195.574.024.649l.27-.238c.44.647-.137 1.466.788 2.084l.337-.057c.637.476-.363.4-.062.928l-.081-.018c.34.101.513.24.477.388-.4-.128-.766.266-1.208.098.683.516.533.252 1.797.58l-.56.089c.512.11.779.116.928.38-.485-.212-.852.185-1.495-.049-1.22.582 1.255.814-.539 1.098 1.56.234.857-.498 1.192-.36.507-.128 1.165.196 1.012.375-.033.178-1.986.335-1.95.784.009-.044-.108-.046-.102-.091-.394.175.54.323-.101.539.943.104-.049.27 1.15.287l-.284-.411c.317.23 1.723.431 1.048.828a3.048 3.048 0 0 1-.739-.216c-.353.118.236.216-.123.338-1.202-.017-.27-.5-1.188-.739-.505.13.875.464-.426.356 1.656.159-.202.446 1.065.734l-.72-.01c.114.047.455.143.437.232l-.933-.148c.797.235-.691.486-.255.715-.028-.496.865-.122 1.388-.34.97.6-1.877.377-1.525 1.058-.101-.091.428-.354.763-.211-.145.132-.42.307-.795.392.153.452.737-.079 1.181.108-.872.167.36.22.642.415l-.73.01c-.463.523 1.524.12.963.592l-1.016-.185.266.24-.832-.04c.62.257.46.34.23.603.515-.067 1.327.018 1.352.248-.433.16-.695-.08-.588.244-.457-.069-1.032-.142-.36-.29-.238-.029-.46-.053-.694-.082-.5.175-.111.425-.103.543a.265.265 0 0 1 .17-.13l1.017.462c-.274.077-.495.02-.71-.035.078.094.415.157.48.297-.596-.03-1.208-.016-1.49-.212l.664.442c-.259.032-.707.238-.927.18-.345.253 1.16.6.7.936a.606.606 0 0 1 .312.118c-.13.311-.857.594-.039.954l-1.062.217c.242.287 1.339-.294 1.743.181.343.338-.907.137-1.202.259.538.162 1.632.447.768.766-.2-.101-.043-.183-.123-.278"/>
            <path fill="#EC6B4D" d="M80.895 65.97c.112-.02.236-.026.36-.032a.527.527 0 0 0-.36.033M79.167 55.624l.007-.01-.121-.01zM80.895 77.404a.926.926 0 0 1 .342-.134c-.162 0-.3.03-.342.134M88.656 84.694l-.177-.202c.035.1-.11.136-.216.19.157-.008.381-.052.393.012M83.658 85.593c.08.03.01.064.092.093l.311-.016c-.024-.128-.274-.213-.403-.077M84.96 84.492c-.56.029-.368.155-.261.297 0 0-.007-.016 0-.027.785.027.523-.121.262-.27"/>
            <path fill="#EC6B4D" d="M84.579 84.492c.028.043.042.089.017.134.315.01.064-.056-.017-.134M87.402 82.565c-.143.072.717.029.49.072.713.064-.871-.442-.49-.072M83.658 84.628l.69-.066-.557-.07z"/>
            <path fill="#EC6B4D" d="M83.846 84.493l-.188.235a.368.368 0 0 1 .236.058c.022-.143.156-.304-.048-.293"/>
            <path fill="#EC6B4D" d="M83.66 84.492c-.01.074.005.145.119.184a.288.288 0 0 0-.118-.184"/>
            <path fill="#EC6B4D" d="M83.658 84.73l.144-.073.047-.165zM84.175 80.619l-.2-.25c-.238-.022-.382.05-.288.143.168.057.26.15.488.107M82.15 81.519c.143-.07.296-.079.524-.122l-.858.008.333.114zM82.451 80.54c-.238-.021-.689-.357-.63-.038.236.023.438.275.63.038M82.737 77.27l.014.064 1.828-.027zM80.022 74.21c-.271.306.703.062.365.339.268.068.275-.225.508-.157-.285-.177-.125-.274-.873-.182M80.895 74.175c.055.028.123.057.213.09a.783.783 0 0 0-.213-.09M86.602 36.206l.287-.206-.468.144z"/>
            <path fill="#EC6B4D" d="M86.421 36.165l.893-.082L86.5 36c.04.041.122.124-.079.165M79.053 61.948l.215.013c.234-.031.25-.077.286-.167l-.501.154zM79.071 59.776l-.018.045.81-.09zM77.215 57.673c-.034.09.149.193.114.284-.148-.194.897-.32-.114-.284"/>
            <g transform="translate(100.237 70.048)">
                <mask id="t" fill="#fff">
                    <use xlink:href="#s"/>
                </mask>
                <path fill="#EC6B4D" d="M.645.513C.728.482.255.152.179.08c.03.18.587.523.466.433" mask="url(#t)"/>
            </g>
            <g transform="translate(100.237 73.143)">
                <mask id="v" fill="#fff">
                    <use xlink:href="#u"/>
                </mask>
                <path fill="#EC6B4D" d="M.976.458L.8.307l.355.47z" mask="url(#v)"/>
            </g>
            <g transform="translate(100.237 74.175)">
                <mask id="x" fill="#fff">
                    <use xlink:href="#w"/>
                </mask>
                <path fill="#EC6B4D" d="M.305.822c.845.474.114-.411.51-.37l.197.101-.576-.52C.39.294.624.842.305.821" mask="url(#x)"/>
            </g>
            <path fill="#EC6B4D" d="M97.474 74.267c.328.225.186.347.178-.051a2.847 2.847 0 0 0-.094-.041c-.007.026-.03.057-.084.092M97.598 74.278c.048-.132-.302-.144 0 0"/>
            <path fill="#EC6B4D" d="M98.078 74.74l-.18-.38c-.201-.123-.323-.024-.424-.185.053.278.254.4.604.565M98.533 74.377l-.068-.175c-.085-.05-.124-.052.068.175"/>
            <path fill="#EC6B4D" d="M98.395 74.175l.143.369c.14.087.396.301-.042-.149.225.21.02-.012-.101-.22"/>
            <path fill="#EC6B4D" d="M98.395 74.321c.223.062.398.047.576.427.068-.375-.51-.805-.576-.427"/>
            <g transform="translate(101.158 74.175)">
                <mask id="z" fill="#fff">
                    <use xlink:href="#y"/>
                </mask>
                <path fill="#EC6B4D" d="M.161.256l.298.077L.257.05C.357.19-.09.077.16.256" mask="url(#z)"/>
            </g>
            <path fill="#EC6B4D" d="M96.553 74.175c.162.15.477.328.698.497l-.124-.272c-.149-.04-.322-.023-.574-.225M97.474 74.175l.186.406c.123-.118.005-.26-.186-.406M98.831 74.955l-.436-.78.412.837zM96.882 74.593l-.33-.418.483.658zM96.39 74.777c-.279-.338-.605-.363-.758-.602-.013.163.205.49.398.786-.081-.209.017-.279.36-.184M95.902 76.688c-.048-.111-.156-.275-.27-.45.042.112.12.25.27.45M97.113 76.513c-.11-.073-.39-.273-.56-.275l.514.332.046-.057zM97.603 76.248l-.017-.01a3.706 3.706 0 0 0-.112.118c.014-.015.053-.046.129-.108M97.487 76.238l-.013.015c.051.033.068.04.013-.015M98.395 76.238c.202.318.36.757.884.904-.28-.343-.577-.425-.884-.904"/>
            <path fill="#EC6B4D" d="M97.687 76.702l.216-.082c-.127-.101-.328-.223-.43-.382l.214.464zM98.572 76.449l-.096-.21-.081.028zM96.553 76.268c.158.248.125.345.1.465.154-.021.268-.083.329-.18-.14-.138-.38-.404-.43-.285"/>
            <path fill="#EC6B4D" d="M97.474 76.238l.016.04c.046.022.065.026-.016-.04M96.553 78.316l.095.058-.08-.072z"/>
            <path fill="#EC6B4D" d="M97.571 76.541c.138.002.05-.14-.07-.303a.408.408 0 0 1-.027.246c.062.064.105.1.097.057M96.58 77.32c.123.043.233.07.34.088-.173-.089-.455-.206-.34-.089M96.635 76.298l-.014-.03c-.117-.059-.065-.022.014.03"/>
            <path fill="#EC6B4D" d="M97.474 76.238c.042.095.142.223.226.34a.814.814 0 0 0-.08-.255c-.038-.023-.095-.054-.146-.085M99.316 81.338c-.43-.418-.713-1.006-.14-.76-.225-.485-1.729-1.695-2.623-2.276.187.182.363.344.515.772.277.153.794.096 1.1.62.084.458-.27.062-.568-.03.603.402.614 1.049 1.446 1.733l-.16-.477c.127.11.281.372.43.418M96.39 77.637l-.009-.115c-.127.016-.339-.073-.75-.252.142.295.29.456.432.586l.278-.297.05.078zM96.921 77.46c.574.34.7.595 1.454.842.127-.176-.4-.359-.567-.582-.117.324-.268-.24-.815-.228a.236.236 0 0 1-.017-.216 2.62 2.62 0 0 1-.423-.006l.045.012v-.001l.01.004c.088.027.138.045.081.036l.007.012.223.125c-.209.01-.175-.067-.223-.125l-.088-.048-.01-.003.07.416c.143-.01.196-.087.253-.239"/>
            <g transform="translate(100.237 77.27)">
                <mask id="B" fill="#fff">
                    <use xlink:href="#A"/>
                </mask>
                <path fill="#EC6B4D" d="M.635.58C.587.554.554.525.519.496c.044.07.077.111.116.082" mask="url(#B)"/>
            </g>
            <path fill="#EC6B4D" d="M99.925 78.079c-.063-.08-.281-.26-.16-.297.227.051.279.191.472.32-.12-.153-.29-.455-.685-.5l.06.078c-.3-.004-1.154-.332-1.217-.41.55.322.95.545 1.53.809"/>
            <path fill="#EC6B4D" d="M98.395 77.27l.06.474.502.205-.253-.2c.195-.077-.13-.3-.31-.48M96.114 77.728l-.482-.458.613.755zM96.063 78.68l-.431-.378.204.315zM82.015 94.81l-.2.033a.36.36 0 0 0 .2-.033M82.742 95.055l.157-.245c-.11.111-.183.204-.157.245M90.07 87.954c-.493-.208-1.224-.584-.71-.204l.512.349c-.035-.153.059-.173.199-.145M89.204 95.534l.063.243-.083-.967c.008.227.013.468.02.724M77.715 92.746l-.504.404c.123.13.285-.175.504-.404M94.243 81.427c-.255-.051-.384-.033-.454.019.358.103.837.343.454-.019M86.659 88.619c-.08.083-.16.186-.238.31a1.14 1.14 0 0 0 .238-.31M92.08 81.736l.15.037c-.035-.14-.054-.27.035-.337-.265-.076-.459-.074-.184.3M68.936 80.44c.015-.027.024-.042.04-.075-.068.05-.062.064-.04.074M72.605 73.143c.048.012.072.064.1.107.026-.045.005-.082-.1-.107M94.728 79.394c.016-.103-.046-.056 0 0M96.553 80.365a1.772 1.772 0 0 1 0 0M95.637 85.524l-.005.006c.108.054.088.043.005-.006"/>
            <path fill="#EC6B4D" d="M94.915 79.356c-.077-.02-.147-.027-.204-.02a.55.55 0 0 0 .204.02"/>
            <path fill="#EC6B4D" d="M94.724 79.428l.089-.029c-.074-.076-.13-.109-.089.03"/>
            <path fill="#EC6B4D" d="M94.71 79.461c.02-.05.069-.072.128-.082-.043-.013-.074-.03-.087-.046a.704.704 0 0 1-.04.128M75.504 85.582l.031-.058c-.245.115-.19.115-.03.058M93.828 92.783l-.013-.037h-.026l.04.037zM92.868 94.81c-.261-.796-.185-.798-.052-.804l-.869-1.26.469 1.014.452 1.05"/>
            <g transform="translate(68 73.143)">
                <mask id="D" fill="#fff">
                    <use xlink:href="#C"/>
                </mask>
                <path fill="#EC6B4D" d="M10.26 8.248l-.105.166c-.237.038-.074-.057.105-.166m16.314-.84a.693.693 0 0 0-.231-.19c.133.125.104.189.02.222.162.094.288.137.211-.031m-.422.065l.024.026c-.307-.044-.19-.022-.024-.026m-4.909 15.74c.03.361-.06.288-.187.008.028-.139.083-.17.187-.008m-5.422-.867c-.132.085-.483.399-.367-.054.426-.714.322-.29.367.054m-3.755-2.732l-.222.585c-.851.504-.78.12-1.172.867 1.392-1.452.812.482 2.19-.982l-.173.419c-.018-.044-.103.04-.122-.006-.403.94 1.202-.875 1.38-.33.044.246-.022.578-.266.679l.617-.113c.07.115-.143.39-.22.272l.591.311-.035.048c.236-.21.629-.512.798-.639-.022.367-.161.143-.254.395l.484-.22c-.126.583-.576.859-.737.615-.672 2.081.444-.266.54 1.335l-.4.004c-.28 1.254.14 1.06.265 2.081.004-.476-.04-2.357.493-2.571.03.222.13.399.436.127-.243.726-.008.692.218.825l-.298.98c.336-.079.448-.609.695-.956.224.306.112 1.159.044 1.899.42.522-.042-1.54.503-1.34.27.68.609.449 1.041.07.2.575-.092.667-.033 1.058l.267-.752c.047.061.018.333.002.47.189-.224.075-1.145.326-1.27.05-1.284.529 2.35.826 1.077.098.417.002.738.05 1.24.402-.672.366-.43.559-1.609-.01-.03.399 1.147.389 1.044-.163-.486-.218-1.073-.228-1.575-.012-.625-.024-1.254-.033-1.826l-.264-.992.057-.974c.057.188.122.665.185 1.27-.006-.13-.014-.254-.02-.371.154.402.262 1.176.323 1.98-.07-.218-.142-.45-.215-.68.077.864.146 1.837.274 2.589-.006-.177.01-.356.035-.48.018.24.035.448.065.567.03.125.016-.206.006-.6l.31 1.346-.082-.591c-.01.01.566.333.575.321.004-1.794-.32-4.004-.198-4.934.228 1.006.483 1.486.85 2.545-.488-.978-.168.937-.483 1.032.154-.038.28.532.295.764l.063-.83.037-.805c.281.89.305.538.547.736-.686-1.583-.112-1.532-.167-2.234.243.516.442 1.115.179 1.27.752.877-.53-2.258.116-1.522-.04.075-.1.03.005.317-.114-.599.317-.61.49-.1l-.042.079c.415-.292 1.009-1.439.207-2.49.112.124.949 1.291 1.09 1.535 0 0-.526-1.099-1.135-2.077-.6-.992-1.284-1.863-1.284-1.863.718.86 2.76 2.43 2.919 3.274.186.002.426-.03.318-.544-.175-.018-1.271-.907-1.281-1.068 1.069.57.59.28 1.623.588-.26-.032-1.486-1.238-1.35-1.338.185.179 1.342.998 1.434 1.175.026-.036-1.043-1.415-1.07-1.375.192.25 1.143.825 1.574 1.028-.287-.157.21-.25.133-.429l-.407-.091c.448-.204-1.67-1.696-1.356-1.994.252.24 1.653 1.327 1.944 1.272-.639-.574-3.09-2.732-3.408-3.423l.437.222-.287-.56c.94.894 2.85 2.874 3.549 3.705.405.091.493.296.593.074.42.196.492.508.472.58l.554-.283c-.823-.555-.57-.926-1.256-1.39l.496 1.093c-.822-.554-2.1-1.925-1.732-2.147.38.147 1.398 1.091 1.673 1.278-.25-.243-.32-.689-.103-.576l.338.447c.429.037-.868-1.062.052-.725.104-.037 1.194.524.725.167-1.005-.54-3.872-2.563-4.506-3.143.08.018 1.153.238 1.668.48.806.397 1.59 1.425 2.284 1.766a3.072 3.072 0 0 1-.511-.518c.243.058.66.524.678.282-.796-.619.31-.296-.635-.58-.118-.335.29-.055.39-.277-.571-.32-1.673-1.476-1.787-1.814.198.161.495.32.632.391.31-.291.808-.206 1.036-.52.218.114.564.133.869.455-.112-.15-.36-.395-.31-.508.834.325-.044.302.903.774-.466-.36-.477-.732-.676-1.09-.758-.49-.363.223-.167.58-1.006-.736-1.892-1.752-2.124-2.43-.065-.451.729.36.619.21.522-.371-1.458-1.72-.444-1.604.752.308 1.277.933 1.764 1.237.093.394-.638.033-.713.2l.428.042c.165.226.226.488-.013.43.67.286.693-.762 1.491-.756-.167-.226-.306-.51-.603-.645l.006.189c-.594-.27-.554-.758-.902-.782-.248-.432-.688-1.04-.238-1.055l.759.498c-.217-.153-.539-.171-.362.06-.256-.338 1.228.378.352-.437l-.617-.215c-.252-.436-.88-1.216-.51-1.252-.782-.442.05.11-.892-.37 1.132.652-.408.493.832 1.108-1.08-.577-.594-.05-1.563-.47.244.173.507.272.27.357l.186.195-.027-.002.035.012c.032.033.038.04.012.004.134.035.283.097.426.182.494.496.285.756.507 1.062-.186.018-.245-.248-.542-.381l.332.454c-.544-.38-1.077-.383-1.222-.857l-.173.2c-.39-.093-.63-.004-.482.27-.186.018.413.697.055.298l.097.585-.136-.095c-.302.288.407 1.343-.827 1.02.057.212.141.45-.142.53l-.489-.302c.06.264-.77.101-.328.514-1.36-.75-.765.512-1.164.607l.602.448c-.155.151-.1.445-.006.84l.546.373c.313.506-.717.208-.868.547-.193-.168-.087-.204.076-.168-1.468-.514.366 1.383-.745 1.073.14.22.034.23-.143.19 0 0 0-.021-.014-.04-.012.003-.021.015-.03.029-.117-.03-.253-.064-.365-.094.155.06.285.105.356.113-.034.07-.032.21.041.4l-.609-.372c.004.012-.002.018.002.032-.277-.062.226.268.696.53.064.113.149.238.267.369-.99-.59.15.466-.922-.141.226.196.226.397.322.597.118.173.293.409.773.82-.13-.1-.203-.131-.189-.171-.161-.018-.31-.054-.088.246l-.694-.585s.202.242.403.486l.389.508c-.468-.296-.696-.526-1.146-1.101.631.972.199.42.773 1.46l-.374-.492c-.02.071.39.857.061.48-.391-.41-.515-.3-.654-.147-.138.147-.303.355-.61-.111.734 1.968-.394-.788.116.821-.165-.476-.27-.728-.375-1.2.05.635-.316-.679-.033.89-.116-.55-.17-.8-.238-1.128.022.123.08.506.004.19-.077-.317-.089-.476-.132-.724-.025.157.281 1.92.566 3.58-.212-.675-.206-.544-.1.66-.11-.518-.222-1.065-.177-1.373-.043.143-.397-.924-.289.44-.047-.354-.096-.166-.104-.029-.153-.194-.165-.316-.305-.308l.042.239c-.047 1.472-.136.232-.256.311l.008-.147c-.212-1.266-.175.377-.33-.994l-.085.87c-.267 1.799-.12-1.29-.355-.713l-.034.51c-.247.484.28-2.524.33-2.734.032-.151.08-.217.118-.312.175-1.05-.289.988-.475 1.115.153-.535.446-1.313.432-1.45.17-.395-.817 1.464-.51.444-.164.373-.31.764-.512.973-.2.004.529-1.495-.224-.53.05-.1.102-.187.157-.266-.245.2-.538.216-1.03.663 1.587-1.873-1.548.182-.003-1.47l-.452-.26.167-.161c-.132-.33-.588-.014-1.044.3.053-.165.238-.28.323-.362-.026-.666-.122-.625-1.191-.095l.48-.558c-.376.227.31-1.3-.612-1.025.063-.056.169-.15.267-.197-.978.23.576-2.323-1.464-.585l-.711.208c.163.474-.877.758-1.067 1.205-.236-.024.261-.901.509-.836l-.073.12c1.055-.913-.03-.757.662-1.403-.662-.594-.666-1.76-1.165-2.407l-.741.797-.147-.258c.137-.224.562-.64.666-.458.385-.49-.611.087-.79.238.067-.595 1.043-.72.982-.833l-.169-.072-.068.114c-.419.192-.777.494-.896.271.06-.261.448-.502.44-.575.059-.05.07-.09-.038-.091l-.163-.334-.55.671c-.422.155-.189-.29-.812.472.961-1.158-.463-1.385-.2-1.803-.621.224-.755.041-.87-.219-.095.165-.814.804-.875.542 1.594-1.176.397-.883 1.405-1.92-.64.72-.586-.381-1.484.654.006-.256.578-.464.857-.869-.898.1-.22-1.11-.743-1.413-.216.145-.483.457-.868.584L7.02 3.37c-.167-.016-1.285.784-.666.095-.161.15-.407.375-.519.361.434-1.599-2.148-1.389-.607-3.514-.378.367-.462.31-.529.223-.073.12-.562.307-.865.49l.663-.86c-.906.373-.273-.39-1.132-.021L3.582.2C2.499.504 1.515 1.541.247 2.168c1.222-.369-1.332 1.5.45 1-.204.223-.436.157-.698.362.584-.207.755-.163.64.178l-.144.052c.467.496.086 1.07.169 1.91l.556-.428c.008.184-.157.333-.262.494.987-.433-.194-.409.877-.909-1.077.959.584.937-.67 1.974.133.207.625-.52.756-.317l-.32.305.497-.275c.014.182-.385.565-.684.785.012-.057-.149-.03-.2-.045-.299.47.487.379.391.535l.082-.35c.712.307.735 1.31 1.83 1.261l.232-.24c.772.002-.053.53.491.774l-.074.034c.32-.121.54-.121.599.014-.383.14-.426.668-.869.803.838-.01.564-.123 1.726-.643l-.374.411c.456-.226.663-.387.934-.278-.495.137-.537.665-1.164.88-.57 1.207 1.439-.158.27 1.176 1.314-.802.332-.909.672-1.014.3-.41.994-.583.988-.355.085.15-1.28 1.494-.969 1.811-.021-.037-.11.036-.135-.002-.18.383.605-.101.265.47.76-.523.134.237 1.028-.52l-.464-.124c.38-.028 1.537-.782 1.29-.066-.195.137-.5.264-.68.322-.183.313.312.004.123.325-.89.762-.519-.189-1.342.218-.293.423.94-.216-.088.54 1.318-.949.141.462 1.253-.145l-.532.458c.114-.04.424-.19.47-.113l-.779.496c.735-.343-.186.812.283.699-.344-.35.548-.657.786-1.157 1.089-.198-1.122 1.51-.412 1.778-.136 0 .072-.54.408-.659a1.8 1.8 0 0 1-.312.812c.413.226.477-.546.922-.705-.517.699.4-.081.73-.129l-.514.494c.015.687 1.165-.934 1.075-.22l-.843.548.345-.004-.617.527c.612-.23.55-.061.566.28.319-.395.95-.883 1.12-.742-.196.407-.542.417-.25.572-.367.263-.822.6-.45.04-.186.14-.359.273-.543.414-.232.46.212.375.298.454a.248.248 0 0 1 .03-.208l1.024-.37c-.14.243-.33.354-.521.463.12.012.397-.174.536-.12-.434.386-.85.817-1.18.87l.764-.14c-.158.2-.33.654-.521.765-.067.423 1.216-.377 1.132.173.09-.07.19-.123.297-.135.125.307-.173 1.012.634.688l-.57.901c.366.026.702-1.145 1.311-1.105.468-.016-.519.732-.633 1.024.484-.268 1.417-.855 1.064-.024-.207.075-.162-.093-.281-.101" mask="url(#D)"/>
            </g>
            <path fill="#EC6B4D" d="M79.145 90.697l-.002-.014-.09.088zM96.897 87.709a.958.958 0 0 1-.344-.122c.132.11.26.174.344.122M94.712 78.302l.037.282c.022-.103.159-.035.27-.006-.128-.099-.33-.217-.307-.276M100.526 79.67c-.05-.079.024-.058-.028-.137l-.252-.2c-.048.116.108.355.28.337M96.663 79.682c.459.361.37.13.36-.056 0 0-.004.019-.013.02-.61-.556-.478-.26-.347.036M97.55 79.546c.002-.054.013-.099.055-.117-.243-.223-.079 0-.055.117M95.222 79.842c.151.041-.556-.51-.352-.39-.538-.534.466.941.352.39M98.056 80.784l-.582-.419.407.435zM97.54 81.661l.27-.058a.458.458 0 0 1-.159-.206c-.09.099-.278.132-.11.264"/>
            <path fill="#EC6B4D" d="M97.494 80.59c.048-.05.072-.118 0-.225a.322.322 0 0 0 0 .225M98.667 81.438l-.15-.041-.122.097zM96.553 84.492l.035.332c.178.178.331.217.302.08-.105-.156-.133-.292-.337-.412M97.954 84.75c-.15-.041-.276-.138-.48-.258l.689.572-.209-.314z"/>
            <path fill="#EC6B4D" d="M97.474 84.498c.18.178.372.741.486.452-.179-.175-.214-.507-.486-.452M94.693 86.49l.018-.058-.922-.908zM96.418 91.529c.424-.019-.676-.615-.197-.558-.238-.27-.39-.047-.59-.288.198.369-.012.315.787.846M95.76 89.861a2.516 2.516 0 0 0-.128-.21.998.998 0 0 0 .129.21M73.71 71.362l.201-.283-.385.322zM72.605 71.544l.794-.465-.773.302c.051.014.15.04-.02.163"/>
            <g transform="translate(83.658 97.905)">
                <mask id="F" fill="#fff">
                    <use xlink:href="#E"/>
                </mask>
                <path fill="#EC6B4D" d="M.075 1.072L.16.839C.198.535.151.467.054.327l.02.745z" mask="url(#F)"/>
            </g>
            <path fill="#EC6B4D" d="M80.895 95.54l.038.066.42-.796zM79.053 93.096c.036.09.232.016.269.109-.233-.019.41-.947-.27-.11"/>
        </g>
    </g>
</svg>
