<svg xmlns="http://www.w3.org/2000/svg" xmlns:xlink="http://www.w3.org/1999/xlink" width="135" height="135" viewBox="0 0 135 135">
    <defs>
        <path id="a" d="M0 .162h78.834V71H0z"/>
    </defs>
    <g fill="none" fill-rule="evenodd">
        <circle cx="67.5" cy="67.5" r="67.5" fill="#EE6C4D"/>
        <g transform="translate(28 31)">
            <mask id="b" fill="#fff">
                <use xlink:href="#a"/>
            </mask>
            <path fill="#E4EAF8" d="M74.286 71H4.548C2.036 71 0 68.932 0 66.38V4.782C0 2.231 2.036.162 4.548.162h69.738c2.512 0 4.548 2.069 4.548 4.62V66.38c0 2.552-2.036 4.62-4.548 4.62" mask="url(#b)"/>
        </g>
        <path fill="#FF5050" d="M41 64a3 3 0 1 1 0 6 3 3 0 0 1 0-6M41 76a3 3 0 1 1 0 6 3 3 0 0 1 0-6M41 88a3 3 0 1 1 0 6 3 3 0 0 1 0-6"/>
        <path fill="#707487" d="M74.444 69H49.556c-.86 0-1.556-.894-1.556-2 0-1.106.696-2 1.556-2h24.888c.86 0 1.556.894 1.556 2 0 1.106-.696 2-1.556 2"/>
        <path fill="#7F8499" d="M56.333 81h-6.666C48.745 81 48 80.106 48 79c0-1.106.745-2 1.667-2h6.666c.921 0 1.667.894 1.667 2 0 1.106-.746 2-1.667 2"/>
        <path fill="#FF5050" d="M41 52a3 3 0 1 1 0 6 3 3 0 0 1 0-6"/>
        <path fill="#7F8499" d="M56.333 57h-6.666C48.745 57 48 56.106 48 55c0-1.106.745-2 1.667-2h6.666c.921 0 1.667.894 1.667 2 0 1.106-.746 2-1.667 2"/>
        <path fill="#707487" d="M64.5 93h-15c-.83 0-1.5-.894-1.5-2 0-1.106.67-2 1.5-2h15c.829 0 1.5.894 1.5 2 0 1.106-.671 2-1.5 2"/>
        <path fill="#FF5050" d="M41 40a3 3 0 1 1 0 6 3 3 0 0 1 0-6"/>
        <path fill="#707487" d="M64.5 45h-15c-.83 0-1.5-.894-1.5-2 0-1.106.67-2 1.5-2h15c.829 0 1.5.894 1.5 2 0 1.106-.671 2-1.5 2M84.5 45h-15c-.83 0-1.5-.894-1.5-2 0-1.106.67-2 1.5-2h15c.829 0 1.5.894 1.5 2 0 1.106-.671 2-1.5 2"/>
        <path fill="#7F8499" d="M95.458 81H61.542C60.689 81 60 80.106 60 79c0-1.106.69-2 1.542-2h33.916c.852 0 1.542.894 1.542 2 0 1.106-.69 2-1.542 2"/>
        <path fill="#D5DCED" d="M107 47L73.005 81.718l-3.886 8.505c-.482 1.054.589 2.148 1.62 1.656l8.33-3.97L107 59.383V47z"/>
        <path fill="#707487" d="M90 77H77.2L74 81h12.8z"/>
        <path fill="#FFDC64" d="M67.767 89.88l7.472-3.488a6.16 6.16 0 0 0 1.75-1.225l39.56-39.56c.601-.602.601-1.576 0-2.177l-3.979-3.98c-.6-.6-1.575-.6-2.176 0l-39.56 39.561a6.156 6.156 0 0 0-1.226 1.75l-3.487 7.472c-.49 1.048.597 2.135 1.646 1.646"/>
        <path fill="#FFC850" d="M66 89.632c.337.342.863.492 1.38.247l7.367-3.491a6.067 6.067 0 0 0 1.725-1.228L112 49.082 108.966 46 66 89.632z"/>
        <path fill="#FAEBC8" d="M78 82.895L72.105 77l-1.476 1.476a5.89 5.89 0 0 0-1.174 1.676l-3.34 7.156c-.468 1.004.573 2.045 1.577 1.576l7.156-3.34a5.89 5.89 0 0 0 1.676-1.173L78 82.895z"/>
        <path fill="#F5DCB4" d="M74.964 80L66 89.611c.337.362.864.52 1.38.261l7.373-3.689a6.084 6.084 0 0 0 1.726-1.296L78 83.256 74.964 80z"/>
        <path fill="#FAEBC8" d="M112.629 39.49a1.423 1.423 0 0 0-2.147 0L107 43.32l6.074 6.68 3.481-3.83c.593-.652.593-1.71 0-2.362l-3.926-4.319z"/>
        <path fill="#F5DCB4" d="M116.553 44.069L114.579 42 110 46.8l3.053 3.2 3.5-3.669a1.655 1.655 0 0 0 0-2.262"/>
    </g>
</svg>
