<svg width="44" height="44" viewBox="0 0 44 44" fill="none" xmlns="http://www.w3.org/2000/svg"><g clip-path="url(#a)"><path d="M44 8.358a18.024 18.024 0 0 1-5.183 1.422 9.064 9.064 0 0 0 3.968-4.99 18.196 18.196 0 0 1-5.736 2.19 9 9 0 0 0-6.587-2.85c-4.985 0-9.027 4.041-9.027 9.023 0 .707.08 1.397.234 2.057-7.5-.377-14.152-3.97-18.603-9.431a8.958 8.958 0 0 0-1.221 4.537 9.022 9.022 0 0 0 4.014 7.511 9.027 9.027 0 0 1-4.088-1.133v.113c0 4.372 3.112 8.02 7.24 8.85a9.141 9.141 0 0 1-2.38.317 8.664 8.664 0 0 1-1.698-.168 9.03 9.03 0 0 0 8.43 6.27 18.11 18.11 0 0 1-11.21 3.857A19.19 19.19 0 0 1 0 35.809a25.514 25.514 0 0 0 13.835 4.061c16.605 0 25.68-13.753 25.68-25.68l-.03-1.169A18.025 18.025 0 0 0 44 8.358z" fill="#fff"/></g><defs><clipPath id="a"><path fill="#fff" d="M0 0h44v44H0z"/></clipPath></defs></svg>