<svg xmlns="http://www.w3.org/2000/svg" width="14" height="19" viewBox="0 0 14 19">
    <metadata><?xpacket begin="﻿" id="W5M0MpCehiHzreSzNTczkc9d"?>
        <x:xmpmeta xmlns:x="adobe:ns:meta/" x:xmptk="Adobe XMP Core 5.6-c138 79.159824, 2016/09/14-01:09:01        ">
            <rdf:RDF xmlns:rdf="http://www.w3.org/1999/02/22-rdf-syntax-ns#">
                <rdf:Description rdf:about=""/>
            </rdf:RDF>
        </x:xmpmeta>


        <?xpacket end="w"?>
    </metadata>

    <path fill="#fff" fill-rule="evenodd"
          d="M6.047,17.9a0.807,0.807,0,0,0,.7.352,0.807,0.807,0,0,0,.7-0.352l2.355-3.375q1.758-2.531,2.32-3.41a9.9,9.9,0,0,0,1.09-2.127A6.4,6.4,0,0,0,13.5,7a6.515,6.515,0,0,0-.914-3.375,6.878,6.878,0,0,0-2.461-2.461A6.515,6.515,0,0,0,6.75.25a6.515,6.515,0,0,0-3.375.914A6.879,6.879,0,0,0,.914,3.625,6.515,6.515,0,0,0,0,7,6.4,6.4,0,0,0,.281,8.986a9.9,9.9,0,0,0,1.09,2.127q0.563,0.879,2.32,3.41Q5.133,16.563,6.047,17.9Zm0.7-8.086A2.821,2.821,0,0,1,3.938,7,2.821,2.821,0,0,1,6.75,4.188,2.821,2.821,0,0,1,9.563,7,2.821,2.821,0,0,1,6.75,9.813Z"/>
</svg>
