<svg xmlns="http://www.w3.org/2000/svg" width="78" height="45" viewBox="0 0 78 45">
  <metadata><?xpacket begin="﻿" id="W5M0MpCehiHzreSzNTczkc9d"?>
    <x:xmpmeta xmlns:x="adobe:ns:meta/" x:xmptk="Adobe XMP Core 5.6-c138 79.159824, 2016/09/14-01:09:01        ">
      <rdf:RDF xmlns:rdf="http://www.w3.org/1999/02/22-rdf-syntax-ns#">
        <rdf:Description rdf:about=""/>
      </rdf:RDF>
    </x:xmpmeta>

    <?xpacket end="w"?></metadata>
  <path
    fill="#43ac3c"
    id="Фигура_1"
    data-name="Фигура 1"
    d="M1.846,25.026L9.115,21.7,0,8.839,5.423,7.117,20.769,17.1l13.269-4.821-10.5-11.25s5.538-1.607,8.077-.8S45.462,8.151,45.462,8.151s11.885-3.673,15-4.247S72.89,1.782,77.539,7.347c2.077,2.411-2.308,4.936-22.846,11.48C50.654,28.584,43.846,39.6,41.769,41.671S34.039,45,34.039,45l5.308-20.548a59.86,59.86,0,0,1-15.231,4.133C15.115,29.847,4.269,26.633,1.846,25.026Z"/>
</svg>
