<svg xmlns="http://www.w3.org/2000/svg" width="74" height="53" viewBox="0 0 74 53">
  <metadata><?xpacket begin="﻿" id="W5M0MpCehiHzreSzNTczkc9d"?>
    <x:xmpmeta xmlns:x="adobe:ns:meta/" x:xmptk="Adobe XMP Core 5.6-c138 79.159824, 2016/09/14-01:09:01        ">
      <rdf:RDF xmlns:rdf="http://www.w3.org/1999/02/22-rdf-syntax-ns#">
        <rdf:Description rdf:about=""/>
      </rdf:RDF>
    </x:xmpmeta>

    <?xpacket end="w"?></metadata>

  <path
    id="Фигура_1"
    data-name="Фигура 1"
    fill="#43ac3c"
    d="M63.1,2.923l-3.517,3.39s-23.526-.106-25.117,0-2.345,2.119-2.345,3.6V37.25c0,1.165.421,1.483,1.6,1.483s25.53,0.106,27.248.106S64.8,37.779,64.8,35.978,64.7,13.2,64.7,13.2l3.091-3.708V36.508c0,3.5-2.79,5.3-6.181,5.3H34.146c-2.549,0-5.649-.212-5.649-4.238s0.213-25.109.213-28.394,1.279-6.145,6.608-6.145S63.1,2.923,63.1,2.923Z"/>
  <path
    id="Фигура_2"
    data-name="Фигура 2"
    fill="#43ac3c"
    d="M38.3,15L48,21.887s6.1-7.946,10.445-11.972S70.24,0.062,70.24.062h3.73A198.407,198.407,0,0,0,59.9,17.014,186.867,186.867,0,0,0,47.787,35.766S37.229,19.133,35.424,17.755A38.725,38.725,0,0,1,38.3,15Z"/>
  <path
    id="Фигура_1-2"
    data-name="Фигура 1"
    fill="#43ac3c"
    d="M0.109,47.427S0,24.046,0,22.548s1.194-.964,2.6-0.964h24.09c1.085,0,.977.864,0.977,2.142V44.857h0.977V25.44c0-.863.76-0.749,1.3-0.749s8.464,0.107,9.115.107,0.868,0.869,1.411,1.606,4.232,6.919,4.775,7.567c1.411,1.289,4.666,4.5,4.666,5.247s0.108,6.056.108,7.139-0.543,1.178-.977,1.178H44.924S44.811,41.78,39.064,42a5.2,5.2,0,0,0-5.317,5.426h-14S19.314,41.884,13.564,42c-5.209.107-5.426,5.533-5.426,5.533Z"/>
  <path id="Эллипс_1" data-name="Эллипс 1" fill="#43ac3c" d="M14.032,42.869a4.845,4.845,0,1,1-4.926,4.844A4.886,4.886,0,0,1,14.032,42.869Z"/>
  <circle id="Эллипс_1_копия" data-name="Эллипс 1 копия" fill="#43ac3c" cx="39.438" cy="47.719" r="4.906"/>
</svg>
