<svg xmlns="http://www.w3.org/2000/svg" width="100" height="100" viewBox="0 0 100 100">
    <metadata><?xpacket begin="﻿" id="W5M0MpCehiHzreSzNTczkc9d"?>
        <x:xmpmeta xmlns:x="adobe:ns:meta/" x:xmptk="Adobe XMP Core 5.6-c138 79.159824, 2016/09/14-01:09:01        ">
            <rdf:RDF xmlns:rdf="http://www.w3.org/1999/02/22-rdf-syntax-ns#">
                <rdf:Description rdf:about=""/>
            </rdf:RDF>
        </x:xmpmeta>


        <?xpacket end="w"?>
    </metadata>
    <defs>
        <style>
            .cls-1 {
            fill: #434242;
            fill-rule: evenodd;
            }
        </style>
    </defs>
    <path id="_" data-name="" class="cls-1"
          d="M68.85,29.5A27.217,27.217,0,0,1,76.8,48.7a26.473,26.473,0,0,1-3.45,13.35A27.3,27.3,0,0,1,63.7,71.9a6.209,6.209,0,0,0-2.1,1.65,4.8,4.8,0,0,0-.5,2.55v5.5a1.281,1.281,0,0,1-.45,1,1.529,1.529,0,0,1-1.05.4H39.7a1.529,1.529,0,0,1-1.05-.4,1.281,1.281,0,0,1-.45-1V76.1a4.456,4.456,0,0,0-.55-2.55A4.934,4.934,0,0,0,36,72.2a6.612,6.612,0,0,0-1-.6,26.548,26.548,0,0,1-9.15-9.8A27.89,27.89,0,0,1,22.5,48.7,27.118,27.118,0,0,1,68.85,29.5Zm2,31.1A23.781,23.781,0,0,0,73.9,48.7a24.43,24.43,0,0,0-7.1-17.15A24.275,24.275,0,0,0,25.4,48.7a23.724,23.724,0,0,0,2.95,11.65A24.9,24.9,0,0,0,36.6,69.2a6.612,6.612,0,0,1,1,.6,7.8,7.8,0,0,1,2.35,2,7.3,7.3,0,0,1,1.15,4.3v4.1H58.2V76.1a6.655,6.655,0,0,1,1.1-4.3,10.3,10.3,0,0,1,2.9-2.3A24.824,24.824,0,0,0,70.85,60.6ZM60.65,84.4a1.283,1.283,0,0,1,.45,1V87a7.115,7.115,0,0,1-2.2,5.2,7.457,7.457,0,0,1-3.7,2,5.5,5.5,0,0,1-2.1,2.85,6.193,6.193,0,0,1-6.9,0,5.5,5.5,0,0,1-2.1-2.85,8.059,8.059,0,0,1-3.7-2A7.667,7.667,0,0,1,38.2,87V85.4a1.283,1.283,0,0,1,.45-1A1.536,1.536,0,0,1,39.7,84H59.6A1.536,1.536,0,0,1,60.65,84.4ZM58.2,86.9H41.1V87a5.242,5.242,0,0,0,1.3,3.2,4.516,4.516,0,0,0,1.6.95,4.709,4.709,0,0,0,1.35.25,1.217,1.217,0,0,1,.9.35,1.626,1.626,0,0,1,.45.85,3.329,3.329,0,0,0,1,1.95,2.91,2.91,0,0,0,3.9,0,3.347,3.347,0,0,0,1-1.95,1.481,1.481,0,0,1,.5-0.85A1.322,1.322,0,0,1,54,91.4a4.273,4.273,0,0,0,2.9-1.2A4.577,4.577,0,0,0,58.2,87V86.9ZM66,32l3.2,3.3a1.25,1.25,0,0,1,0,2l-1.3,1.3a10.676,10.676,0,0,1,.8,1.8h1.8a1.283,1.283,0,0,1,1,.45,1.536,1.536,0,0,1,.4,1.05v4.6a1.367,1.367,0,0,1-1.4,1.4H68.7a10.676,10.676,0,0,1-.8,1.8L69.2,51a1.45,1.45,0,0,1,0,2.1L66,56.3a1.45,1.45,0,0,1-2.1,0L62.6,55q-0.9.4-1.8,0.7v1.9A1.367,1.367,0,0,1,59.4,59H54.8a1.529,1.529,0,0,1-1.05-.4,1.281,1.281,0,0,1-.45-1V55.7a12.857,12.857,0,0,1-1.7-.7l-1.4,1.3a1.3,1.3,0,0,1-.95.4,1.653,1.653,0,0,1-1.05-.4l-3.3-3.2-0.2-.6a1.244,1.244,0,0,1-.4.9l-0.4.4L44,54h0.6a1.283,1.283,0,0,1,1,.45A1.536,1.536,0,0,1,46,55.5V58a1.536,1.536,0,0,1-.4,1.05,1.283,1.283,0,0,1-1,.45H44a0.289,0.289,0,0,1-.1.2l0.4,0.4a1.488,1.488,0,0,1,.5,1.05,1.186,1.186,0,0,1-.5.95L42.5,64a1.742,1.742,0,0,1-1,.4,2.24,2.24,0,0,1-1-.4l-0.4-.4a0.781,0.781,0,0,0-.3.1v0.5a1.536,1.536,0,0,1-.4,1.05,1.283,1.283,0,0,1-1,.45H35.8a1.281,1.281,0,0,1-1-.45,1.529,1.529,0,0,1-.4-1.05V63.7a0.3,0.3,0,0,0-.2-0.1l-0.4.4a3.133,3.133,0,0,1-1,.4,3.087,3.087,0,0,1-1.1-.4l-1.8-1.8a1.748,1.748,0,0,1,0-2.1l0.4-.4a0.3,0.3,0,0,0-.1-0.2H29.7A1.538,1.538,0,0,1,28.2,58V55.5A1.538,1.538,0,0,1,29.7,54h0.5c0.066,0,.1-0.066.1-0.2l-0.4-.4a1.264,1.264,0,0,1-.35-1.05,1.465,1.465,0,0,1,.35-0.95l1.8-1.8a1.45,1.45,0,0,1,2.1,0L34.2,50a0.289,0.289,0,0,1,.2-0.1V49.3a1.529,1.529,0,0,1,.4-1.05,1.281,1.281,0,0,1,1-.45h2.6a1.283,1.283,0,0,1,1,.45,1.536,1.536,0,0,1,.4,1.05v0.6a0.414,0.414,0,0,1,.3.1l0.4-.5a1.662,1.662,0,0,1,1.05-.4,1.3,1.3,0,0,1,.95.4l1.8,1.9a1.275,1.275,0,0,1,.3.5,1.465,1.465,0,0,1,.3-0.9l1.4-1.3a10.549,10.549,0,0,1-.8-1.8H43.7a1.529,1.529,0,0,1-1.05-.4,1.281,1.281,0,0,1-.45-1V41.9a1.538,1.538,0,0,1,1.5-1.5h1.8a10.549,10.549,0,0,1,.8-1.8l-1.4-1.3a1.293,1.293,0,0,1-.4-0.95,1.66,1.66,0,0,1,.4-1.05L48.2,32a1.662,1.662,0,0,1,1.05-.4,1.3,1.3,0,0,1,.95.4l1.3,1.3q0.9-.4,1.8-0.7V30.8a1.538,1.538,0,0,1,1.5-1.5h4.6a1.283,1.283,0,0,1,1,.45,1.536,1.536,0,0,1,.4,1.05v1.8q0.9,0.3,1.8.7L63.9,32h0A1.579,1.579,0,0,1,66,32h0ZM42.3,56.8a2.1,2.1,0,0,1-.7-1L41,54.3a1.256,1.256,0,0,1-.2-1.2,1.434,1.434,0,0,1-1.25-.2,4.319,4.319,0,0,0-1.35-.55,1.7,1.7,0,0,1-1.1-.75,1.245,1.245,0,0,1-1,.7,3.139,3.139,0,0,0-1.35.55,1.365,1.365,0,0,1-1.25.25,1.941,1.941,0,0,1-.25,1.25,6.711,6.711,0,0,0-.55,1.35,1.912,1.912,0,0,1-.8,1.1,1.52,1.52,0,0,1,.8.9,6.138,6.138,0,0,0,.55,1.45,1.943,1.943,0,0,1,.25,1.25l0.4-.1a1.082,1.082,0,0,1,.8.3,4.391,4.391,0,0,0,1.5.6,1.52,1.52,0,0,1,.9.8,1.912,1.912,0,0,1,1.1-.8,6.311,6.311,0,0,0,1.4-.6,1.265,1.265,0,0,1,1.2-.2,1.524,1.524,0,0,1,.15-1.25,11.77,11.77,0,0,0,.65-1.45,1.255,1.255,0,0,1,.7-0.9h0ZM65.1,37.4l1.1-1.1-1.3-1.2-1,1.1a1.764,1.764,0,0,1-.9.35,1.236,1.236,0,0,1-.9-0.25,14.151,14.151,0,0,0-3-1.2A1.334,1.334,0,0,1,58,33.7V32.2H56.2v1.5a1.469,1.469,0,0,1-1.1,1.4,11.791,11.791,0,0,0-3,1.2,1.6,1.6,0,0,1-1.8-.1l-1.1-1.1L48,36.3l1.1,1.1a1.743,1.743,0,0,1,.2,1.8,8.712,8.712,0,0,0-1.3,3,1.357,1.357,0,0,1-1.4,1.1H45.1V45h1.5A1.383,1.383,0,0,1,48,46.2a11.66,11.66,0,0,0,1.3,3,1.625,1.625,0,0,1,.15.9,1.767,1.767,0,0,1-.35.9L48,52l1.2,1.3,1.1-1.1a1.337,1.337,0,0,1,1.8-.2,8.339,8.339,0,0,0,3,1.2,1.608,1.608,0,0,1,1.1,1.4v1.6H58V54.6a1.434,1.434,0,0,1,1.1-1.4,7.488,7.488,0,0,0,3-1.2,1.244,1.244,0,0,1,.9-0.25,1.472,1.472,0,0,1,.9.45l1,1.1L66.2,52l-1.1-1.1a0.948,0.948,0,0,1-.4-0.8,1.974,1.974,0,0,1,.2-0.9,11.716,11.716,0,0,0,1.3-3A1.488,1.488,0,0,1,67.6,45h1.5V43.3H67.6a1.466,1.466,0,0,1-1.4-1.1,8.742,8.742,0,0,0-1.3-3,1.5,1.5,0,0,1,.2-1.8h0Zm-4.15,2.9a5.4,5.4,0,0,1,1.55,3.9,5.227,5.227,0,0,1-1.55,3.85,5.287,5.287,0,0,1-3.9,1.55,5.211,5.211,0,0,1-3.85-1.5,5.276,5.276,0,0,1-1.5-3.9,5.448,5.448,0,0,1,1.5-3.95A5.32,5.32,0,0,1,60.95,40.3Zm-2,5.75a2.651,2.651,0,1,0-3.8,0,2.638,2.638,0,0,0,1.95.75A2.515,2.515,0,0,0,58.95,46.05ZM39.75,54.1a3.7,3.7,0,0,1,1.05,2.65,3.612,3.612,0,0,1-1.1,2.65,3.623,3.623,0,0,1-5.2,0,3.742,3.742,0,0,1,0-5.3A3.556,3.556,0,0,1,37.1,53,3.511,3.511,0,0,1,39.75,54.1Zm8.9-38.2a1.281,1.281,0,0,1-.45-1V4.2a1.439,1.439,0,0,1,.45-1.05,1.336,1.336,0,0,1,2,0A1.439,1.439,0,0,1,51.1,4.2V14.9a1.281,1.281,0,0,1-.45,1,1.412,1.412,0,0,1-.95.4A1.529,1.529,0,0,1,48.65,15.9ZM24.2,26l-7.5-7.6a1.293,1.293,0,0,1-.4-0.95,1.66,1.66,0,0,1,.4-1.05,1.186,1.186,0,0,1,.95-0.5,1.488,1.488,0,0,1,1.05.5L26.3,24a1.3,1.3,0,0,1,.4.95,1.385,1.385,0,0,1-.45,1,1.339,1.339,0,0,1-.95.45,1.717,1.717,0,0,1-1.1-.4h0Zm58.9-8.55a1.3,1.3,0,0,1-.4.95L75.1,26a1.356,1.356,0,0,1-1,.4,1.281,1.281,0,0,1-1-.45,1.466,1.466,0,0,1-.4-1A1.3,1.3,0,0,1,73.1,24l7.5-7.6a1.45,1.45,0,0,1,2.1,0A1.669,1.669,0,0,1,83.1,17.45Zm12.8,30.9a1.536,1.536,0,0,1,.4,1.05,1.367,1.367,0,0,1-1.4,1.4H84.2a1.365,1.365,0,0,1-1.4-1.4,1.529,1.529,0,0,1,.4-1.05,1.281,1.281,0,0,1,1-.45H94.9A1.283,1.283,0,0,1,95.9,48.35Zm-79.75,0a1.439,1.439,0,0,1,.45,1.05,1.281,1.281,0,0,1-.45,1,1.412,1.412,0,0,1-.95.4H4.5a1.529,1.529,0,0,1-1.05-.4,1.281,1.281,0,0,1-.45-1,1.439,1.439,0,0,1,.45-1.05A1.439,1.439,0,0,1,4.5,47.9H15.2A1.339,1.339,0,0,1,16.15,48.35Z"/>
</svg>
