<svg xmlns="http://www.w3.org/2000/svg" width="18" height="14" viewBox="0 0 18 14">
    <metadata><?xpacket begin="﻿" id="W5M0MpCehiHzreSzNTczkc9d"?>
        <x:xmpmeta xmlns:x="adobe:ns:meta/" x:xmptk="Adobe XMP Core 5.6-c138 79.159824, 2016/09/14-01:09:01        ">
            <rdf:RDF xmlns:rdf="http://www.w3.org/1999/02/22-rdf-syntax-ns#">
                <rdf:Description rdf:about=""/>
            </rdf:RDF>
        </x:xmpmeta>


        <?xpacket end="w"?>
    </metadata>

    <path fill="#fff" fill-rule="evenodd"
          d="M17.648,4.965q-1.266.984-5.414,3.973l-0.352.281a9.815,9.815,0,0,1-1.336.914A3.121,3.121,0,0,1,9,10.625a3.293,3.293,0,0,1-1.547-.457,13.992,13.992,0,0,1-1.336-.914L5.766,8.938Q1.512,5.844.352,4.965A0.227,0.227,0,0,0,.123,4.947,0.193,0.193,0,0,0,0,5.141v7.172a1.627,1.627,0,0,0,.492,1.2,1.627,1.627,0,0,0,1.2.492H16.313A1.681,1.681,0,0,0,18,12.313V5.141a0.228,0.228,0,0,0-.123-0.211A0.174,0.174,0,0,0,17.648,4.965ZM9,9.5a2.244,2.244,0,0,1-1.125-.422A8.378,8.378,0,0,1,6.785,8.3L6.434,8.059Q2.109,4.895.563,3.7L0.316,3.523A0.8,0.8,0,0,1,0,2.855V2.188A1.627,1.627,0,0,1,.492.992,1.627,1.627,0,0,1,1.688.5H16.313a1.627,1.627,0,0,1,1.2.492A1.627,1.627,0,0,1,18,2.188V2.855a0.8,0.8,0,0,1-.316.668l-0.176.141Q16,4.859,11.566,8.059L11.215,8.3a8.376,8.376,0,0,1-1.09.773A2.244,2.244,0,0,1,9,9.5Z"/>
</svg>
