<svg xmlns="http://www.w3.org/2000/svg" width="18" height="19" viewBox="0 0 18 19">
    <metadata><?xpacket begin="﻿" id="W5M0MpCehiHzreSzNTczkc9d"?>
        <x:xmpmeta xmlns:x="adobe:ns:meta/" x:xmptk="Adobe XMP Core 5.6-c138 79.159824, 2016/09/14-01:09:01        ">
            <rdf:RDF xmlns:rdf="http://www.w3.org/1999/02/22-rdf-syntax-ns#">
                <rdf:Description rdf:about=""/>
            </rdf:RDF>
        </x:xmpmeta>


        <?xpacket end="w"?>
    </metadata>

    <path fill="#00ae2c" fill-rule="evenodd"
          d="M17.332,1.129a0.667,0.667,0,0,1,.492.281A0.89,0.89,0,0,1,18,1.938a16.045,16.045,0,0,1-2.215,8.227,16.392,16.392,0,0,1-5.871,5.871A16.045,16.045,0,0,1,1.688,18.25a0.89,0.89,0,0,1-.527-0.176,0.667,0.667,0,0,1-.281-0.492L0.035,13.926a0.793,0.793,0,0,1,.07-0.562,0.757,0.757,0,0,1,.422-0.387l3.937-1.687a0.761,0.761,0,0,1,.51-0.035,1.047,1.047,0,0,1,.475.281l1.723,2.109a12.356,12.356,0,0,0,3.674-2.566,12.915,12.915,0,0,0,2.549-3.656L11.285,5.7A1.047,1.047,0,0,1,11,5.225a0.761,0.761,0,0,1,.035-0.51l1.688-3.937A0.757,0.757,0,0,1,13.113.355a0.793,0.793,0,0,1,.563-0.07Z"/>
</svg>
