<svg xmlns="http://www.w3.org/2000/svg" width="48" height="48" viewBox="0 0 48 48">
  <metadata><?xpacket begin="﻿" id="W5M0MpCehiHzreSzNTczkc9d"?>
    <x:xmpmeta xmlns:x="adobe:ns:meta/" x:xmptk="Adobe XMP Core 5.6-c138 79.159824, 2016/09/14-01:09:01        ">
      <rdf:RDF xmlns:rdf="http://www.w3.org/1999/02/22-rdf-syntax-ns#">
        <rdf:Description rdf:about=""/>
      </rdf:RDF>
    </x:xmpmeta>

    <?xpacket end="w"?></metadata>
  
  <path id="Эллипс_1" data-name="Эллипс 1" fill="#43ac3c" d="M18.443,0.285A18.158,18.158,0,1,1,.285,18.443,18.158,18.158,0,0,1,18.443.285ZM18.42,3.69A14.73,14.73,0,1,1,3.69,18.42,14.73,14.73,0,0,1,18.42,3.69Z"/>
  <path id="Фигура_1" data-name="Фигура 1" fill="#43ac3c" d="M8.619,14.02a15.339,15.339,0,0,0,4.141,9.362c3.945,3.945,10.532,4.208,10.532,4.208s-7.756,3.945-12.782-1.35S8.619,14.02,8.619,14.02Z"/>
  <path
    id="Фигура_3"
    data-name="Фигура 3"
    fill="#43ac3c"
    d="M29.76,32.448l2.688-2.784L34.176,31.3s1.44-1.344,3.84.576,8.16,8.16,9.12,9.216-0.1,3.552-.96,4.416-3.552,2.784-5.184,1.44-7.008-6.72-8.64-8.352A4.37,4.37,0,0,1,31.2,34.176C30.144,32.832,29.76,32.448,29.76,32.448Z"/>
</svg>
