<svg xmlns="http://www.w3.org/2000/svg" width="88" height="24" viewBox="0 0 88 24">
  <metadata><?xpacket begin="﻿" id="W5M0MpCehiHzreSzNTczkc9d"?>
    <x:xmpmeta xmlns:x="adobe:ns:meta/" x:xmptk="Adobe XMP Core 5.6-c138 79.159824, 2016/09/14-01:09:01        ">
      <rdf:RDF xmlns:rdf="http://www.w3.org/1999/02/22-rdf-syntax-ns#">
        <rdf:Description rdf:about=""/>
      </rdf:RDF>
    </x:xmpmeta>

    <?xpacket end="w"?></metadata>
  <path id="Прямоугольник_1" data-name="Прямоугольник 1" fill="#43ac3c" d="M-0.1,22.411H88.1V23.52H-0.1V22.411Z"/>
  <path id="Прямоугольник_2" data-name="Прямоугольник 2" fill="#43ac3c" d="M2.028,23.5H5.272v0.414H2.028V23.5Z"/>
  <path id="Прямоугольник_2_копия" data-name="Прямоугольник 2 копия" fill="#43ac3c" d="M8.289,23.5h3.244v0.414H8.289V23.5Z"/>
  <path id="Прямоугольник_2_копия_2" data-name="Прямоугольник 2 копия 2" fill="#43ac3c" d="M14.437,23.5h3.244v0.414H14.437V23.5Z"/>
  <path id="Прямоугольник_2_копия_3" data-name="Прямоугольник 2 копия 3" fill="#43ac3c" d="M20.7,23.5h3.244v0.414H20.7V23.5Z"/>
  <path id="Прямоугольник_2_копия_3-2" data-name="Прямоугольник 2 копия 3" fill="#43ac3c" d="M26.96,23.5H30.2v0.414H26.96V23.5Z"/>
  <path id="Прямоугольник_2_копия_3-3" data-name="Прямоугольник 2 копия 3" fill="#43ac3c" d="M33.108,23.5h3.244v0.414H33.108V23.5Z"/>
  <path id="Прямоугольник_2_копия_4" data-name="Прямоугольник 2 копия 4" fill="#43ac3c" d="M39.369,23.5h3.244v0.414H39.369V23.5Z"/>
  <path id="Прямоугольник_2_копия_4-2" data-name="Прямоугольник 2 копия 4" fill="#43ac3c" d="M45.63,23.5h3.244v0.414H45.63V23.5Z"/>
  <path id="Прямоугольник_2_копия_4-3" data-name="Прямоугольник 2 копия 4" fill="#43ac3c" d="M51.778,23.5h3.244v0.414H51.778V23.5Z"/>
  <path id="Прямоугольник_2_копия_5" data-name="Прямоугольник 2 копия 5" fill="#43ac3c" d="M57.926,23.5H61.17v0.414H57.926V23.5Z"/>
  <path id="Прямоугольник_2_копия_5-2" data-name="Прямоугольник 2 копия 5" fill="#43ac3c" d="M64.187,23.5h3.244v0.414H64.187V23.5Z"/>
  <path id="Прямоугольник_2_копия_5-3" data-name="Прямоугольник 2 копия 5" fill="#43ac3c" d="M70.335,23.5h3.244v0.414H70.335V23.5Z"/>
  <path id="Прямоугольник_2_копия_6" data-name="Прямоугольник 2 копия 6" fill="#43ac3c" d="M76.629,23.5h3.244v0.414H76.629V23.5Z"/>
  <path id="Прямоугольник_2_копия_6-2" data-name="Прямоугольник 2 копия 6" fill="#43ac3c" d="M82.777,23.5h3.244v0.414H82.777V23.5Z"/>
  <path
    id="Фигура_1"
    data-name="Фигура 1"
    fill="#43ac3c"
    d="M2.011,14.748c0.258-.929,6.1-4.838,7.072-5.5s5.5-4.616,10.171-6.074A48.512,48.512,0,0,1,29.7,1.258C31.646,1.058,44.341.6,44.738,0.53A4.059,4.059,0,0,1,46.944.066H81.057V0.6h0.908V1.324h4.153v18.24H82.031v1.589H77.489a3.017,3.017,0,0,1-2.66,1.258,2.477,2.477,0,0,1-2.449-1.258H68.94s-0.192,1.258-2.336,1.258c-2.534,0-2.531-1.258-2.531-1.258l-34.048,0s-0.262,1.254-2.271,1.254a2.556,2.556,0,0,1-2.53-1.254H21.59s-0.266,1.254-2.4,1.254-2.271-1.254-2.271-1.254H6.034a3.954,3.954,0,0,1-4.088-3.5A8.909,8.909,0,0,1,2.011,14.748Z"/>
</svg>
