<svg xmlns="http://www.w3.org/2000/svg" width="16" height="16" viewBox="0 0 16 16">
    <metadata><?xpacket begin="﻿" id="W5M0MpCehiHzreSzNTczkc9d"?>
        <x:xmpmeta xmlns:x="adobe:ns:meta/" x:xmptk="Adobe XMP Core 5.6-c138 79.159824, 2016/09/14-01:09:01        ">
            <rdf:RDF xmlns:rdf="http://www.w3.org/1999/02/22-rdf-syntax-ns#">
                <rdf:Description rdf:about=""/>
            </rdf:RDF>
        </x:xmpmeta>


        <?xpacket end="w"?>
    </metadata>

    <path fill="#00ae2c" fill-rule="evenodd"
          d="M15.135,5.209a7.569,7.569,0,0,1-.457,6.873,8,8,0,0,1-2.883,2.848,7.655,7.655,0,0,1-3.92,1.055,7.6,7.6,0,0,1-3.727-.949L0,16.125l1.125-4.043A7.56,7.56,0,0,1,.07,8.18a7.56,7.56,0,0,1,1.055-3.9A7.9,7.9,0,0,1,3.973,1.43,7.719,7.719,0,0,1,10.846.973,8.208,8.208,0,0,1,13.395,2.66h0A8.164,8.164,0,0,1,15.135,5.209Zm-3.99,8.6a6.674,6.674,0,0,0,2.408-2.373,6.2,6.2,0,0,0,.9-3.252,6.039,6.039,0,0,0-.527-2.461,6.968,6.968,0,0,0-1.459-2.127,6.53,6.53,0,0,0-2.109-1.424,6.37,6.37,0,0,0-2.479-.492,6.3,6.3,0,0,0-3.252.879A6.578,6.578,0,0,0,2.25,4.928,6.3,6.3,0,0,0,1.371,8.18a6.233,6.233,0,0,0,1.02,3.445l0.141,0.246L1.863,14.262l2.461-.633L4.57,13.77a6.264,6.264,0,0,0,3.3.914A6.393,6.393,0,0,0,11.145,13.8Zm0.387-3.938a0.629,0.629,0,0,1,.281.176,0.916,0.916,0,0,1,.018.352,1.832,1.832,0,0,1-.141.58,1.468,1.468,0,0,1-.562.6,1.773,1.773,0,0,1-.756.334,3.2,3.2,0,0,1-.949,0,7.279,7.279,0,0,1-1.406-.492,7.951,7.951,0,0,1-3.27-2.883l-0.07-.07a3.548,3.548,0,0,1-.773-2,2.224,2.224,0,0,1,.633-1.582L4.57,4.84A0.739,0.739,0,0,1,5.1,4.594H5.52a0.441,0.441,0,0,1,.229.053,0.487,0.487,0,0,1,.158.264L6.5,6.352a0.388,0.388,0,0,1,.035.352,2.428,2.428,0,0,1-.457.633,0.785,0.785,0,0,0-.176.229,0.18,0.18,0,0,0,.07.193A4.538,4.538,0,0,0,7.137,9.2a8.952,8.952,0,0,0,1.477.879,0.311,0.311,0,0,0,.422-0.035q0.456-.527.633-0.773a0.206,0.206,0,0,1,.176-0.141,1.053,1.053,0,0,1,.246.035q0.281,0.105,1.336.633Z"/>
</svg>
