<svg width="16" height="16" viewBox="0 0 16 16" fill="none" xmlns="http://www.w3.org/2000/svg"><g clip-path="url(#a)" fill="#F0F0F0"><path d="M12.187 13.455L9.49 11.656a.278.278 0 0 0-.372.06l-.785 1.01a.842.842 0 0 1-1.079.223l-.145-.08c-.524-.286-1.176-.641-2.47-1.936-1.295-1.294-1.65-1.947-1.936-2.47l-.08-.146a.842.842 0 0 1 .222-1.078l1.01-.786c.113-.09.14-.25.06-.371L2.117 3.384a.276.276 0 0 0-.372-.084l-1.128.677c-.242.141-.42.37-.497.64-.37 1.35-.06 3.714 3.53 7.304 3.59 3.59 5.953 3.902 7.304 3.53.27-.076.5-.254.64-.496l.677-1.129a.276.276 0 0 0-.084-.371z"/><path d="M15.954.474a.155.155 0 0 0-.111-.046H3.869a.155.155 0 0 0-.158.157v4.16l.68 1.02a.851.851 0 0 1-.185 1.139l-1.009.786a.273.273 0 0 0-.074.349l.083.15c.262.499.582.965.953 1.39h11.684A.156.156 0 0 0 16 9.425V.585a.156.156 0 0 0-.046-.111zM7.834 5.67V5.67L4.908 8.806a.286.286 0 1 1-.418-.39l2.928-3.135a.286.286 0 0 1 .418.39zm2.022-.225a.947.947 0 0 1-.572-.189L4.508 1.635a.286.286 0 0 1 .347-.455l4.774 3.622a.386.386 0 0 0 .453 0l4.776-3.622a.286.286 0 0 1 .346.455l-4.777 3.622a.947.947 0 0 1-.571.189zm5.37 3.374a.286.286 0 0 1-.404-.014L11.895 5.67a.286.286 0 0 1 .418-.389l2.927 3.135a.286.286 0 0 1-.014.404z"/></g><defs><clipPath id="a"><path fill="#fff" d="M0 0h16v16H0z"/></clipPath></defs></svg>