<svg width="14" height="14" viewBox="0 0 14 14" fill="none" xmlns="http://www.w3.org/2000/svg"><path d="M10.644 9.261c-.458-.451-1.029-.451-1.483 0-.347.344-.693.688-1.034 1.037-.094.097-.172.117-.286.053-.224-.123-.463-.222-.679-.356-1.005-.632-1.847-1.445-2.592-2.36-.37-.454-.7-.94-.93-1.488-.046-.11-.038-.184.053-.274.346-.335.684-.679 1.025-1.022.475-.478.475-1.038-.003-1.518-.27-.274-.542-.542-.813-.816-.28-.28-.556-.562-.839-.839-.457-.446-1.028-.446-1.483.003-.35.344-.684.696-1.04 1.034-.329.312-.495.694-.53 1.14-.055.725.123 1.41.373 2.076.513 1.381 1.294 2.608 2.24 3.732a13.865 13.865 0 0 0 4.592 3.592c.804.39 1.637.69 2.543.74.624.035 1.166-.122 1.6-.608.297-.333.632-.636.946-.953.467-.472.47-1.043.006-1.51-.553-.556-1.11-1.11-1.666-1.663zM10.087 6.94l1.075-.184A4.805 4.805 0 0 0 9.82 4.163a4.779 4.779 0 0 0-2.738-1.366l-.152 1.08A3.708 3.708 0 0 1 9.05 4.936a3.707 3.707 0 0 1 1.037 2.004zM11.768 2.267A7.927 7.927 0 0 0 7.224 0l-.152 1.08A6.874 6.874 0 0 1 11 3.04a6.868 6.868 0 0 1 1.926 3.714L14 6.569a7.985 7.985 0 0 0-2.232-4.302z" fill="#F0F0F0"/></svg>