<svg width="23" height="16" viewBox="0 0 23 16" fill="none" xmlns="http://www.w3.org/2000/svg"><path d="M18.63 12a.406.406 0 0 1-.254-.085l-4.26-3.374a.28.28 0 0 1-.016-.442.418.418 0 0 1 .524-.013l4.26 3.374a.28.28 0 0 1 .016.441.404.404 0 0 1-.27.1zM4.37 12a.406.406 0 0 1-.27-.098.28.28 0 0 1 .017-.442l4.26-3.375a.42.42 0 0 1 .523.014.28.28 0 0 1-.016.441l-4.26 3.375A.405.405 0 0 1 4.37 12z" fill="#fff"/><path d="M21.146 16H1.854C.832 16 0 15.187 0 14.186V1.814C0 .814.832 0 1.854 0h19.292C22.168 0 23 .814 23 1.814v12.372c0 1-.832 1.814-1.854 1.814zM1.854.726c-.613 0-1.112.488-1.112 1.088v12.372c0 .6.499 1.088 1.112 1.088h19.292c.613 0 1.112-.488 1.112-1.088V1.814c0-.6-.499-1.088-1.112-1.088H1.854z" fill="#fff"/><path d="M11.506 10a2.15 2.15 0 0 1-1.422-.52L.133.688A.397.397 0 0 1 .095.134.386.386 0 0 1 .642.096l9.95 8.792c.496.437 1.333.437 1.827 0L22.358.11a.385.385 0 0 1 .547.038.397.397 0 0 1-.038.554L12.93 9.48c-.393.347-.907.52-1.423.52z" fill="#fff"/></svg>