<svg width="23" height="23" viewBox="0 0 23 23" fill="none" xmlns="http://www.w3.org/2000/svg"><path d="M22.396 17.744l-4.655-3.105a1.359 1.359 0 0 0-1.82.296l-1.355 1.743a.58.58 0 0 1-.743.156l-.258-.142c-.855-.466-1.92-1.046-4.063-3.19-2.144-2.145-2.725-3.21-3.191-4.064l-.142-.258a.58.58 0 0 1 .154-.746L8.065 7.08a1.36 1.36 0 0 0 .296-1.82L5.256.604a1.352 1.352 0 0 0-1.822-.41L1.488 1.362c-.612.36-1.06.942-1.253 1.625-.7 2.554-.173 6.963 6.32 13.457C11.721 21.611 15.566 23 18.21 23a6.79 6.79 0 0 0 1.802-.235 2.743 2.743 0 0 0 1.625-1.253l1.17-1.945a1.352 1.352 0 0 0-.41-1.823zm-.25 1.43l-1.168 1.946a1.981 1.981 0 0 1-1.169.906c-2.358.648-6.477.111-12.711-6.123S.328 5.55.975 3.191c.14-.493.465-.912.907-1.17L3.829.851a.586.586 0 0 1 .79.178l1.687 2.532L7.72 5.685a.59.59 0 0 1-.128.79L5.85 7.83a1.342 1.342 0 0 0-.355 1.721l.139.252c.49.898 1.098 2.016 3.322 4.24 2.223 2.222 3.34 2.831 4.239 3.321l.251.14a1.341 1.341 0 0 0 1.722-.356l1.356-1.743a.59.59 0 0 1 .79-.128l4.654 3.105c.261.173.34.522.178.79zM12.4 3.8a6.808 6.808 0 0 1 6.8 6.8.4.4 0 0 0 .8 0A7.608 7.608 0 0 0 12.4 3a.4.4 0 1 0 0 .8z" fill="#fff"/><path d="M12.429 6.714c2.602.003 4.71 1.76 4.714 3.929 0 .197.192.357.428.357.237 0 .429-.16.429-.357-.004-2.563-2.496-4.64-5.571-4.643-.237 0-.429.16-.429.357 0 .197.192.357.429.357zM12.375 8.75a1.877 1.877 0 0 1 1.875 1.875.375.375 0 0 0 .75 0A2.628 2.628 0 0 0 12.375 8a.375.375 0 1 0 0 .75z" fill="#fff"/></svg>