<svg width="19" height="27" viewBox="0 0 19 27" fill="none" xmlns="http://www.w3.org/2000/svg"><path d="M9.5 7C7.57 7 6 8.346 6 10s1.57 3 3.5 3 3.5-1.346 3.5-3-1.57-3-3.5-3zm0 5.143C8.121 12.143 7 11.182 7 10s1.121-2.143 2.5-2.143S12 8.818 12 10s-1.121 2.143-2.5 2.143z" fill="#16222A"/><path d="M16.219 2.77A9.461 9.461 0 0 0 9.5 0a9.46 9.46 0 0 0-6.718 2.77c-3.32 3.304-3.733 9.522-.894 13.29L9.501 27l7.6-10.925c2.851-3.783 2.439-10-.882-13.305zm.079 12.728L9.5 25.268l-6.808-9.785C.118 12.065.487 6.45 3.484 3.467A8.474 8.474 0 0 1 9.501.987c2.273 0 4.41.88 6.017 2.48 2.998 2.983 3.367 8.598.78 12.031z" fill="#16222A"/></svg>