<svg xmlns="http://www.w3.org/2000/svg" width="512" height="512" viewBox="0 0 512 512"><path d="M462.49 468.206l-33.937 33.937c-6.063 6.031-23.812 9.843-24.343 9.843-107.435.906-210.869-41.279-286.883-117.309C41.096 318.46-1.137 214.619.035 106.872c0-.063 3.891-17.312 9.938-23.312L43.91 49.592c12.453-12.437 36.295-18.062 52.998-12.5l7.156 2.406c16.703 5.562 34.155 23.999 38.78 40.967l17.093 62.717c4.64 17-1.594 41.186-14.031 53.623l-22.687 22.687c22.25 82.467 86.919 147.122 169.339 169.402l22.687-22.687c12.438-12.438 36.687-18.656 53.687-14.031l62.717 17.125c16.937 4.594 35.374 22.03 40.968 38.748l2.375 7.156c5.56 16.721-.064 40.564-12.502 53.001zM287.995 255.993h31.999c0-35.343-28.655-63.998-63.998-63.998v31.999c17.64 0 31.999 14.374 31.999 31.999zm127.996 0c0-88.373-71.623-159.996-159.995-159.996v32c70.592 0 127.996 57.436 127.996 127.996h31.999zM255.996 0v31.999c123.496 0 223.993 100.497 223.993 223.994h31.999C511.988 114.622 397.367 0 255.996 0z"/></svg>