<svg width="44" height="44" viewBox="0 0 44 44" fill="none" xmlns="http://www.w3.org/2000/svg">
<g clip-path="url(#clip0)">
<path d="M38.0714 0H5.93005C2.65557 0 0.000959396 2.6545 0.000959396 5.92909V38.0707C0.000959396 41.3453 2.65546 43.9998 5.93005 43.9998H21.782L21.809 28.2766H17.7242C17.1933 28.2766 16.7625 27.8474 16.7604 27.3165L16.7408 22.2483C16.7388 21.7146 17.1709 21.2808 17.7047 21.2808H21.7821V16.3836C21.7821 10.7005 25.253 7.60594 30.3228 7.60594H34.4829C35.0151 7.60594 35.4468 8.03745 35.4468 8.56981V12.8434C35.4468 13.3755 35.0155 13.8069 34.4834 13.8072L31.9304 13.8084C29.1733 13.8084 28.6395 15.1186 28.6395 17.0412V21.2809H34.6977C35.275 21.2809 35.7228 21.7849 35.6548 22.3582L35.0541 27.4264C34.9966 27.9114 34.5854 28.2769 34.097 28.2769H28.6665L28.6395 44H38.0717C41.3461 44 44.0006 41.3455 44.0006 38.071V5.92909C44.0005 2.6545 41.346 0 38.0714 0Z" fill="white"/>
</g>
<defs>
<clipPath id="clip0">
<rect width="44" height="44" fill="white"/>
</clipPath>
</defs>
</svg>
