<svg width="23" height="34" viewBox="0 0 23 34" fill="none" xmlns="http://www.w3.org/2000/svg">
<path d="M11.5 8.78571C9.23578 8.78571 7.39285 10.4443 7.39285 12.4821C7.39285 14.5199 9.23578 16.1786 11.5 16.1786C13.7642 16.1786 15.6071 14.5199 15.6071 12.4821C15.6071 10.4443 13.7642 8.78571 11.5 8.78571ZM11.5 15.1224C9.88236 15.1224 8.56631 13.938 8.56631 12.4821C8.56631 11.0263 9.88236 9.84183 11.5 9.84183C13.1176 9.84183 14.4337 11.0263 14.4337 12.4821C14.4337 13.938 13.1176 15.1224 11.5 15.1224Z" fill="#88B04B"/>
<path d="M19.6334 3.94191C17.4612 1.76852 14.5729 0.571411 11.5012 0.571411C8.42878 0.571411 5.54111 1.76852 3.36891 3.94191C-0.651031 7.96347 -1.1506 15.5302 2.28701 20.1146L11.5012 33.4286L20.7015 20.1332C24.1529 15.5301 23.6534 7.96347 19.6334 3.94191ZM19.7288 19.4317L11.5012 31.32L3.26037 19.4131C0.142403 15.2535 0.589197 8.42011 4.21752 4.79039C6.16303 2.84381 8.74963 1.77152 11.5012 1.77152C14.2527 1.77152 16.8393 2.84381 18.7854 4.79039C22.4137 8.42011 22.8605 15.2535 19.7288 19.4317Z" fill="#88B04B"/>
</svg>
